<?xml version="1.0" encoding="UTF-8" standalone="no"?><svg xmlns="http://www.w3.org/2000/svg" xmlns:xlink="http://www.w3.org/1999/xlink" contentScriptType="application/ecmascript" contentStyleType="text/css" height="598px" preserveAspectRatio="none" style="width:884px;height:598px;" version="1.1" viewBox="0 0 884 598" width="884px" zoomAndPan="magnify"><defs><filter height="300%" id="f6mo72l9h8fn1" width="300%" x="-1" y="-1"><feGaussianBlur result="blurOut" stdDeviation="2.0"/><feColorMatrix in="blurOut" result="blurOut2" type="matrix" values="0 0 0 0 0 0 0 0 0 0 0 0 0 0 0 0 0 0 .4 0"/><feOffset dx="4.0" dy="4.0" in="blurOut2" result="blurOut3"/><feBlend in="SourceGraphic" in2="blurOut3" mode="normal"/></filter></defs><g><text fill="#000000" font-family="sans-serif" font-size="18" lengthAdjust="spacing" textLength="186" x="346.5" y="28.708">Forward Stored Data</text><rect fill="#FFFFFF" filter="url(#f6mo72l9h8fn1)" height="239.7969" style="stroke:#A80036;stroke-width:1.0;" width="10" x="227" y="220.6484"/><rect fill="#FFFFFF" filter="url(#f6mo72l9h8fn1)" height="170.6641" style="stroke:#A80036;stroke-width:1.0;" width="10" x="232" y="262.7813"/><line style="stroke:#A80036;stroke-width:1.0;stroke-dasharray:5.0,5.0;" x1="79" x2="79" y1="123.25" y2="514.5781"/><line style="stroke:#A80036;stroke-width:1.0;stroke-dasharray:5.0,5.0;" x1="232" x2="232" y1="123.25" y2="514.5781"/><line style="stroke:#A80036;stroke-width:1.0;stroke-dasharray:5.0,5.0;" x1="435" x2="435" y1="123.25" y2="514.5781"/><line style="stroke:#A80036;stroke-width:1.0;stroke-dasharray:5.0,5.0;" x1="482" x2="482" y1="123.25" y2="514.5781"/><line style="stroke:#A80036;stroke-width:1.0;stroke-dasharray:5.0,5.0;" x1="602" x2="602" y1="123.25" y2="514.5781"/><line style="stroke:#A80036;stroke-width:1.0;stroke-dasharray:5.0,5.0;" x1="746" x2="746" y1="123.25" y2="514.5781"/><line style="stroke:#A80036;stroke-width:1.0;stroke-dasharray:5.0,5.0;" x1="836" x2="836" y1="123.25" y2="514.5781"/><rect fill="#FEFECE" filter="url(#f6mo72l9h8fn1)" height="30.2969" style="stroke:#A80036;stroke-width:1.5;" width="145" x="5" y="87.9531"/><text fill="#000000" font-family="sans-serif" font-size="14" lengthAdjust="spacing" textLength="131" x="12" y="107.9482">ProxyRepoSources</text><rect fill="#FEFECE" filter="url(#f6mo72l9h8fn1)" height="30.2969" style="stroke:#A80036;stroke-width:1.5;" width="145" x="5" y="513.5781"/><text fill="#000000" font-family="sans-serif" font-size="14" lengthAdjust="spacing" textLength="131" x="12" y="533.5732">ProxyRepoSources</text><rect fill="#FEFECE" filter="url(#f6mo72l9h8fn1)" height="30.2969" style="stroke:#A80036;stroke-width:1.5;" width="132" x="164" y="87.9531"/><text fill="#000000" font-family="sans-serif" font-size="14" lengthAdjust="spacing" textLength="118" x="171" y="107.9482">SourceForwarder</text><rect fill="#FEFECE" filter="url(#f6mo72l9h8fn1)" height="30.2969" style="stroke:#A80036;stroke-width:1.5;" width="132" x="164" y="513.5781"/><text fill="#000000" font-family="sans-serif" font-size="14" lengthAdjust="spacing" textLength="118" x="171" y="533.5732">SourceForwarder</text><text fill="#000000" font-family="sans-serif" font-size="14" lengthAdjust="spacing" textLength="18" x="423" y="119.9482">db</text><path d="M417,70.9531 C417,60.9531 435,60.9531 435,60.9531 C435,60.9531 453,60.9531 453,70.9531 L453,96.9531 C453,106.9531 435,106.9531 435,106.9531 C435,106.9531 417,106.9531 417,96.9531 L417,70.9531 " fill="#FEFECE" filter="url(#f6mo72l9h8fn1)" style="stroke:#000000;stroke-width:1.5;"/><path d="M417,70.9531 C417,80.9531 435,80.9531 435,80.9531 C435,80.9531 453,80.9531 453,70.9531 " fill="none" style="stroke:#000000;stroke-width:1.5;"/><text fill="#000000" font-family="sans-serif" font-size="14" lengthAdjust="spacing" textLength="18" x="423" y="526.5732">db</text><path d="M417,539.875 C417,529.875 435,529.875 435,529.875 C435,529.875 453,529.875 453,539.875 L453,565.875 C453,575.875 435,575.875 435,575.875 C435,575.875 417,575.875 417,565.875 L417,539.875 " fill="#FEFECE" filter="url(#f6mo72l9h8fn1)" style="stroke:#000000;stroke-width:1.5;"/><path d="M417,539.875 C417,549.875 435,549.875 435,549.875 C435,549.875 453,549.875 453,539.875 " fill="none" style="stroke:#000000;stroke-width:1.5;"/><text fill="#000000" font-family="sans-serif" font-size="14" lengthAdjust="spacing" textLength="32" x="463" y="119.9482">repo</text><path d="M464,70.9531 C464,60.9531 482,60.9531 482,60.9531 C482,60.9531 500,60.9531 500,70.9531 L500,96.9531 C500,106.9531 482,106.9531 482,106.9531 C482,106.9531 464,106.9531 464,96.9531 L464,70.9531 " fill="#FEFECE" filter="url(#f6mo72l9h8fn1)" style="stroke:#000000;stroke-width:1.5;"/><path d="M464,70.9531 C464,80.9531 482,80.9531 482,80.9531 C482,80.9531 500,80.9531 500,70.9531 " fill="none" style="stroke:#000000;stroke-width:1.5;"/><text fill="#000000" font-family="sans-serif" font-size="14" lengthAdjust="spacing" textLength="32" x="463" y="526.5732">repo</text><path d="M464,539.875 C464,529.875 482,529.875 482,529.875 C482,529.875 500,529.875 500,539.875 L500,565.875 C500,575.875 482,575.875 482,575.875 C482,575.875 464,575.875 464,565.875 L464,539.875 " fill="#FEFECE" filter="url(#f6mo72l9h8fn1)" style="stroke:#000000;stroke-width:1.5;"/><path d="M464,539.875 C464,549.875 482,549.875 482,549.875 C482,549.875 500,549.875 500,539.875 " fill="none" style="stroke:#000000;stroke-width:1.5;"/><rect fill="#FEFECE" filter="url(#f6mo72l9h8fn1)" height="30.2969" style="stroke:#A80036;stroke-width:1.5;" width="179" x="511" y="87.9531"/><text fill="#000000" font-family="sans-serif" font-size="14" lengthAdjust="spacing" textLength="165" x="518" y="107.9482">ForwardStreamHandlers</text><rect fill="#FEFECE" filter="url(#f6mo72l9h8fn1)" height="30.2969" style="stroke:#A80036;stroke-width:1.5;" width="179" x="511" y="513.5781"/><text fill="#000000" font-family="sans-serif" font-size="14" lengthAdjust="spacing" textLength="165" x="518" y="533.5732">ForwardStreamHandlers</text><text fill="#000000" font-family="sans-serif" font-size="14" lengthAdjust="spacing" textLength="79" x="704" y="119.9482">Destination</text><ellipse cx="746.5" cy="49.9531" fill="#FEFECE" filter="url(#f6mo72l9h8fn1)" rx="8" ry="8" style="stroke:#A80036;stroke-width:2.0;"/><path d="M746.5,57.9531 L746.5,84.9531 M733.5,65.9531 L759.5,65.9531 M746.5,84.9531 L733.5,99.9531 M746.5,84.9531 L759.5,99.9531 " fill="none" filter="url(#f6mo72l9h8fn1)" style="stroke:#A80036;stroke-width:2.0;"/><text fill="#000000" font-family="sans-serif" font-size="14" lengthAdjust="spacing" textLength="79" x="704" y="526.5732">Destination</text><ellipse cx="746.5" cy="539.875" fill="#FEFECE" filter="url(#f6mo72l9h8fn1)" rx="8" ry="8" style="stroke:#A80036;stroke-width:2.0;"/><path d="M746.5,547.875 L746.5,574.875 M733.5,555.875 L759.5,555.875 M746.5,574.875 L733.5,589.875 M746.5,574.875 L759.5,589.875 " fill="none" filter="url(#f6mo72l9h8fn1)" style="stroke:#A80036;stroke-width:2.0;"/><rect fill="#FEFECE" filter="url(#f6mo72l9h8fn1)" height="30.2969" style="stroke:#A80036;stroke-width:1.5;" width="71" x="799" y="87.9531"/><text fill="#000000" font-family="sans-serif" font-size="14" lengthAdjust="spacing" textLength="57" x="806" y="107.9482">Cleanup</text><rect fill="#FEFECE" filter="url(#f6mo72l9h8fn1)" height="30.2969" style="stroke:#A80036;stroke-width:1.5;" width="71" x="799" y="513.5781"/><text fill="#000000" font-family="sans-serif" font-size="14" lengthAdjust="spacing" textLength="57" x="806" y="533.5732">Cleanup</text><rect fill="#FFFFFF" filter="url(#f6mo72l9h8fn1)" height="239.7969" style="stroke:#A80036;stroke-width:1.0;" width="10" x="227" y="220.6484"/><rect fill="#FFFFFF" filter="url(#f6mo72l9h8fn1)" height="170.6641" style="stroke:#A80036;stroke-width:1.0;" width="10" x="232" y="262.7813"/><line style="stroke:#A80036;stroke-width:1.0;" x1="230" x2="220" y1="154.3828" y2="158.3828"/><line style="stroke:#A80036;stroke-width:1.0;stroke-dasharray:2.0,2.0;" x1="79.5" x2="231" y1="154.3828" y2="154.3828"/><text fill="#000000" font-family="sans-serif" font-size="13" lengthAdjust="spacing" textLength="65" x="86.5" y="149.3169">onChange</text><polygon fill="#A80036" points="423,179.5156,433,183.5156,423,187.5156,427,183.5156" style="stroke:#A80036;stroke-width:1.0;"/><line style="stroke:#A80036;stroke-width:1.0;" x1="232" x2="429" y1="183.5156" y2="183.5156"/><text fill="#000000" font-family="sans-serif" font-size="13" lengthAdjust="spacing" textLength="109" x="239" y="178.4497">Find new sources</text><line style="stroke:#A80036;stroke-width:1.0;" x1="232" x2="279" y1="207.6484" y2="207.6484"/><line style="stroke:#A80036;stroke-width:1.0;" x1="279" x2="279" y1="207.6484" y2="220.6484"/><line style="stroke:#A80036;stroke-width:1.0;" x1="238" x2="279" y1="220.6484" y2="220.6484"/><line style="stroke:#A80036;stroke-width:1.0;" x1="238" x2="248" y1="220.6484" y2="224.6484"/><text fill="#000000" font-family="sans-serif" font-size="13" lengthAdjust="spacing" textLength="106" x="244" y="202.5825">Forward Sources</text><line style="stroke:#A80036;stroke-width:1.0;" x1="237" x2="284" y1="249.7813" y2="249.7813"/><line style="stroke:#A80036;stroke-width:1.0;" x1="284" x2="284" y1="249.7813" y2="262.7813"/><line style="stroke:#A80036;stroke-width:1.0;" x1="243" x2="284" y1="262.7813" y2="262.7813"/><line style="stroke:#A80036;stroke-width:1.0;" x1="243" x2="253" y1="262.7813" y2="266.7813"/><text fill="#000000" font-family="sans-serif" font-size="13" lengthAdjust="spacing" textLength="99" x="249" y="244.7153">Forward Source</text><polygon fill="#A80036" points="470,292.9141,480,296.9141,470,300.9141,474,296.9141" style="stroke:#A80036;stroke-width:1.0;"/><line style="stroke:#A80036;stroke-width:1.0;" x1="242" x2="476" y1="296.9141" y2="296.9141"/><text fill="#000000" font-family="sans-serif" font-size="13" lengthAdjust="spacing" textLength="29" x="249" y="291.8481">read</text><polygon fill="#A80036" points="590.5,322.0469,600.5,326.0469,590.5,330.0469,594.5,326.0469" style="stroke:#A80036;stroke-width:1.0;"/><line style="stroke:#A80036;stroke-width:1.0;" x1="242" x2="596.5" y1="326.0469" y2="326.0469"/><text fill="#000000" font-family="sans-serif" font-size="13" lengthAdjust="spacing" textLength="30" x="249" y="320.981">write</text><polygon fill="#A80036" points="734.5,351.1797,744.5,355.1797,734.5,359.1797,738.5,355.1797" style="stroke:#A80036;stroke-width:1.0;"/><line style="stroke:#A80036;stroke-width:1.0;stroke-dasharray:2.0,2.0;" x1="602.5" x2="740.5" y1="355.1797" y2="355.1797"/><text fill="#000000" font-family="sans-serif" font-size="13" lengthAdjust="spacing" textLength="43" x="609.5" y="350.1138">handle</text><polygon fill="#A80036" points="423,380.3125,433,384.3125,423,388.3125,427,384.3125" style="stroke:#A80036;stroke-width:1.0;"/><line style="stroke:#A80036;stroke-width:1.0;" x1="242" x2="429" y1="384.3125" y2="384.3125"/><text fill="#000000" font-family="sans-serif" font-size="13" lengthAdjust="spacing" textLength="169" x="249" y="379.2466">record FORWARD_SOURCE</text><polygon fill="#A80036" points="423,409.4453,433,413.4453,423,417.4453,427,413.4453" style="stroke:#A80036;stroke-width:1.0;"/><line style="stroke:#A80036;stroke-width:1.0;" x1="242" x2="429" y1="413.4453" y2="413.4453"/><text fill="#000000" font-family="sans-serif" font-size="13" lengthAdjust="spacing" textLength="166" x="249" y="408.3794">record SOURCE forwarded</text><line style="stroke:#A80036;stroke-width:1.0;stroke-dasharray:2.0,2.0;" x1="242" x2="284" y1="432.4453" y2="432.4453"/><line style="stroke:#A80036;stroke-width:1.0;stroke-dasharray:2.0,2.0;" x1="284" x2="284" y1="432.4453" y2="445.4453"/><line style="stroke:#A80036;stroke-width:1.0;stroke-dasharray:2.0,2.0;" x1="237" x2="284" y1="445.4453" y2="445.4453"/><line style="stroke:#A80036;stroke-width:1.0;" x1="237" x2="247" y1="445.4453" y2="449.4453"/><line style="stroke:#A80036;stroke-width:1.0;stroke-dasharray:2.0,2.0;" x1="237" x2="279" y1="459.4453" y2="459.4453"/><line style="stroke:#A80036;stroke-width:1.0;stroke-dasharray:2.0,2.0;" x1="279" x2="279" y1="459.4453" y2="472.4453"/><line style="stroke:#A80036;stroke-width:1.0;stroke-dasharray:2.0,2.0;" x1="232" x2="279" y1="472.4453" y2="472.4453"/><line style="stroke:#A80036;stroke-width:1.0;" x1="232" x2="242" y1="472.4453" y2="476.4453"/><line style="stroke:#A80036;stroke-width:1.0;" x1="834.5" x2="824.5" y1="496.5781" y2="500.5781"/><line style="stroke:#A80036;stroke-width:1.0;stroke-dasharray:2.0,2.0;" x1="232" x2="835.5" y1="496.5781" y2="496.5781"/><text fill="#000000" font-family="sans-serif" font-size="13" lengthAdjust="spacing" textLength="65" x="239" y="491.5122">onChange</text><!--MD5=[e8c71e5a94c1b36b084b85cc9b955fb0]
@startuml

title Forward Stored Data

participant ProxyRepoSources
participant SourceForwarder
database db
database repo
participant ForwardStreamHandlers
actor Destination
participant Cleanup

ProxyRepoSources - -// SourceForwarder: onChange
SourceForwarder -> db: Find new sources
SourceForwarder -// SourceForwarder++: Forward Sources
SourceForwarder -// SourceForwarder++: Forward Source
SourceForwarder -> repo: read
SourceForwarder -> ForwardStreamHandlers: write
ForwardStreamHandlers - -> Destination: handle
SourceForwarder -> db: record FORWARD_SOURCE

SourceForwarder -> db: record SOURCE forwarded
return
return

SourceForwarder - -// Cleanup: onChange

@enduml

PlantUML version 1.2021.00(Sun Jan 10 10:25:05 GMT 2021)
(GPL source distribution)
Java Runtime: OpenJDK Runtime Environment
JVM: OpenJDK 64-Bit Server VM
Default Encoding: UTF-8
Language: en
Country: GB
--></g></svg>