<?xml version="1.0" encoding="UTF-8" standalone="no"?><svg xmlns="http://www.w3.org/2000/svg" xmlns:xlink="http://www.w3.org/1999/xlink" contentScriptType="application/ecmascript" contentStyleType="text/css" height="343px" preserveAspectRatio="none" style="width:381px;height:343px;" version="1.1" viewBox="0 0 381 343" width="381px" zoomAndPan="magnify"><defs><filter height="300%" id="fmyl8r3v15snx" width="300%" x="-1" y="-1"><feGaussianBlur result="blurOut" stdDeviation="2.0"/><feColorMatrix in="blurOut" result="blurOut2" type="matrix" values="0 0 0 0 0 0 0 0 0 0 0 0 0 0 0 0 0 0 .4 0"/><feOffset dx="4.0" dy="4.0" in="blurOut2" result="blurOut3"/><feBlend in="SourceGraphic" in2="blurOut3" mode="normal"/></filter></defs><g><!--MD5=[fb94403e3d3521d383fd6507b67b3642]
class source--><rect codeLine="5" fill="#FEFECE" filter="url(#fmyl8r3v15snx)" height="150.4375" id="source" style="stroke:#A80036;stroke-width:1.5;" width="200" x="7" y="179"/><ellipse cx="81.25" cy="195" fill="#ADD1B2" rx="11" ry="11" style="stroke:#A80036;stroke-width:1.0;"/><path d="M85.3594,201 L77.6406,201 L77.6406,188.6094 L85.3594,188.6094 L85.3594,190.7656 L80.0938,190.7656 L80.0938,193.4375 L84.8594,193.4375 L84.8594,195.5938 L80.0938,195.5938 L80.0938,198.8438 L85.3594,198.8438 L85.3594,201 Z " fill="#000000"/><text fill="#000000" font-family="sans-serif" font-size="12" lengthAdjust="spacing" textLength="43" x="101.75" y="199.1543">source</text><line style="stroke:#A80036;stroke-width:1.5;" x1="8" x2="206" y1="211" y2="211"/><ellipse cx="18" cy="222" fill="#000000" rx="3" ry="3" style="stroke:#000000;stroke-width:1.0;"/><text fill="#000000" font-family="sans-serif" font-size="11" lengthAdjust="spacing" textLength="53" x="27" y="225.2104">id : bigint</text><line style="stroke:#A80036;stroke-width:1.0;" x1="8" x2="206" y1="231.8047" y2="231.8047"/><ellipse cx="18" cy="242.8047" fill="#000000" rx="3" ry="3" style="stroke:#000000;stroke-width:1.0;"/><text fill="#000000" font-family="sans-serif" font-size="11" lengthAdjust="spacing" textLength="159" x="27" y="246.0151">path : varchar(255) - unique</text><ellipse cx="18" cy="255.6094" fill="#000000" rx="3" ry="3" style="stroke:#000000;stroke-width:1.0;"/><text fill="#000000" font-family="sans-serif" font-size="11" lengthAdjust="spacing" textLength="147" x="27" y="258.8198">feed_name : varchar(255)</text><ellipse cx="18" cy="268.4141" fill="#000000" rx="3" ry="3" style="stroke:#000000;stroke-width:1.0;"/><text fill="#000000" font-family="sans-serif" font-size="11" lengthAdjust="spacing" textLength="146" x="27" y="271.6245">type_name : varchar(255)</text><ellipse cx="18" cy="281.2188" fill="#000000" rx="3" ry="3" style="stroke:#000000;stroke-width:1.0;"/><text fill="#000000" font-family="sans-serif" font-size="11" lengthAdjust="spacing" textLength="174" x="27" y="284.4292">last_modified_time_ms : bigint</text><text fill="#000000" font-family="sans-serif" font-size="11" lengthAdjust="spacing" textLength="112" x="27" y="297.2339">examined : boolean</text><ellipse cx="18" cy="306.8281" fill="#000000" rx="3" ry="3" style="stroke:#000000;stroke-width:1.0;"/><text fill="#000000" font-family="sans-serif" font-size="11" lengthAdjust="spacing" textLength="115" x="27" y="310.0386">forwarded : boolean</text><ellipse cx="18" cy="319.6328" fill="#000000" rx="3" ry="3" style="stroke:#000000;stroke-width:1.0;"/><text fill="#000000" font-family="sans-serif" font-size="11" lengthAdjust="spacing" textLength="136" x="27" y="322.8433">forward_error : boolean</text><!--MD5=[3cc1e4effaee23fb9097a8bf1d8fa0d4]
class forward_url--><rect codeLine="17" fill="#FEFECE" filter="url(#fmyl8r3v15snx)" height="73.6094" id="forward_url" style="stroke:#A80036;stroke-width:1.5;" width="125" x="242.5" y="217"/><ellipse cx="268.3" cy="233" fill="#ADD1B2" rx="11" ry="11" style="stroke:#A80036;stroke-width:1.0;"/><path d="M272.4094,239 L264.6906,239 L264.6906,226.6094 L272.4094,226.6094 L272.4094,228.7656 L267.1438,228.7656 L267.1438,231.4375 L271.9094,231.4375 L271.9094,233.5938 L267.1438,233.5938 L267.1438,236.8438 L272.4094,236.8438 L272.4094,239 Z " fill="#000000"/><text fill="#000000" font-family="sans-serif" font-size="12" lengthAdjust="spacing" textLength="69" x="284.7" y="237.1543">forward_url</text><line style="stroke:#A80036;stroke-width:1.5;" x1="243.5" x2="366.5" y1="249" y2="249"/><ellipse cx="253.5" cy="260" fill="#000000" rx="3" ry="3" style="stroke:#000000;stroke-width:1.0;"/><text fill="#000000" font-family="sans-serif" font-size="11" lengthAdjust="spacing" textLength="36" x="262.5" y="263.2104">id : int</text><line style="stroke:#A80036;stroke-width:1.0;" x1="243.5" x2="366.5" y1="269.8047" y2="269.8047"/><ellipse cx="253.5" cy="280.8047" fill="#000000" rx="3" ry="3" style="stroke:#000000;stroke-width:1.0;"/><text fill="#000000" font-family="sans-serif" font-size="11" lengthAdjust="spacing" textLength="99" x="262.5" y="284.0151">url : varchar(255)</text><!--MD5=[cbb12bc3eee1de79b3f2e300a168c511]
class forward_source--><rect codeLine="23" fill="#FEFECE" filter="url(#fmyl8r3v15snx)" height="112.0234" id="forward_source" style="stroke:#A80036;stroke-width:1.5;" width="149" x="131.5" y="7"/><ellipse cx="155.95" cy="23" fill="#ADD1B2" rx="11" ry="11" style="stroke:#A80036;stroke-width:1.0;"/><path d="M160.0594,29 L152.3406,29 L152.3406,16.6094 L160.0594,16.6094 L160.0594,18.7656 L154.7938,18.7656 L154.7938,21.4375 L159.5594,21.4375 L159.5594,23.5938 L154.7938,23.5938 L154.7938,26.8438 L160.0594,26.8438 L160.0594,29 Z " fill="#000000"/><text fill="#000000" font-family="sans-serif" font-size="12" lengthAdjust="spacing" textLength="96" x="172.05" y="27.1543">forward_source</text><line style="stroke:#A80036;stroke-width:1.5;" x1="132.5" x2="279.5" y1="39" y2="39"/><ellipse cx="142.5" cy="50" fill="#000000" rx="3" ry="3" style="stroke:#000000;stroke-width:1.0;"/><text fill="#000000" font-family="sans-serif" font-size="11" lengthAdjust="spacing" textLength="53" x="151.5" y="53.2104">id : bigint</text><line style="stroke:#A80036;stroke-width:1.0;" x1="132.5" x2="279.5" y1="59.8047" y2="59.8047"/><ellipse cx="142.5" cy="70.8047" fill="#000000" rx="3" ry="3" style="stroke:#000000;stroke-width:1.0;"/><text fill="#000000" font-family="sans-serif" font-size="11" lengthAdjust="spacing" textLength="123" x="151.5" y="74.0151">fk_forward_url_id : int</text><ellipse cx="142.5" cy="83.6094" fill="#000000" rx="3" ry="3" style="stroke:#000000;stroke-width:1.0;"/><text fill="#000000" font-family="sans-serif" font-size="11" lengthAdjust="spacing" textLength="114" x="151.5" y="86.8198">fk_source_id : bigint</text><ellipse cx="142.5" cy="96.4141" fill="#000000" rx="3" ry="3" style="stroke:#000000;stroke-width:1.0;"/><text fill="#000000" font-family="sans-serif" font-size="11" lengthAdjust="spacing" textLength="104" x="151.5" y="99.6245">success : boolean</text><ellipse cx="142.5" cy="109.2188" fill="#000000" rx="3" ry="3" style="stroke:#000000;stroke-width:1.0;"/><text fill="#000000" font-family="sans-serif" font-size="11" lengthAdjust="spacing" textLength="113" x="151.5" y="112.4292">error : varchar(255)</text><!--MD5=[237522a801e7bb9308fa36e58d02c106]
link forward_source to forward_url--><path codeLine="32" d="M261.5,127.02 C261.5,127.02 261.5,208.72 261.5,208.72 " fill="none" id="forward_source-forward_url" style="stroke:#A80036;stroke-width:1.0;"/><line style="stroke:#A80036;stroke-width:1.0;" x1="265.5" x2="257.5" y1="212.72" y2="212.72"/><line style="stroke:#A80036;stroke-width:1.0;" x1="265.5" x2="257.5" y1="209.72" y2="209.72"/><line style="stroke:#A80036;stroke-width:1.0;" x1="261.5" x2="261.5" y1="208.72" y2="216.72"/><line style="stroke:#A80036;stroke-width:1.0;" x1="261.5" x2="255.5" y1="127.02" y2="119.02"/><line style="stroke:#A80036;stroke-width:1.0;" x1="261.5" x2="267.5" y1="127.02" y2="119.02"/><line style="stroke:#A80036;stroke-width:1.0;" x1="261.5" x2="261.5" y1="127.02" y2="119.02"/><ellipse cx="261.5" cy="133.02" fill="none" rx="4" ry="4" style="stroke:#A80036;stroke-width:1.0;"/><!--MD5=[d49f4a8229bc31f1f5d61244df6e6e3c]
link forward_source to source--><path codeLine="33" d="M169.25,127.02 C169.25,127.02 169.25,170.83 169.25,170.83 " fill="none" id="forward_source-source" style="stroke:#A80036;stroke-width:1.0;stroke-dasharray:7.0,7.0;"/><line style="stroke:#A80036;stroke-width:1.0;" x1="173.25" x2="165.25" y1="174.83" y2="174.83"/><line style="stroke:#A80036;stroke-width:1.0;" x1="173.25" x2="165.25" y1="171.83" y2="171.83"/><line style="stroke:#A80036;stroke-width:1.0;" x1="169.25" x2="169.25" y1="170.83" y2="178.83"/><line style="stroke:#A80036;stroke-width:1.0;" x1="169.25" x2="163.25" y1="127.02" y2="119.02"/><line style="stroke:#A80036;stroke-width:1.0;" x1="169.25" x2="175.25" y1="127.02" y2="119.02"/><line style="stroke:#A80036;stroke-width:1.0;" x1="169.25" x2="169.25" y1="127.02" y2="119.02"/><ellipse cx="169.25" cy="133.02" fill="none" rx="4" ry="4" style="stroke:#A80036;stroke-width:1.0;"/><!--MD5=[0a7651ef30f14cdd5acb2bd4ba02003f]
@startuml

' avoid problems with angled crows feet
skinparam linetype ortho

entity source {
  *id : bigint
  - -
  *path : varchar(255) - unique
  *feed_name : varchar(255)
  *type_name : varchar(255)
  *last_modified_time_ms : bigint
  examined : boolean
  *forwarded : boolean
  *forward_error : boolean
}

entity forward_url {
  *id : int
  - -
  *url : varchar(255)
}

entity forward_source {
  *id : bigint
  - -
  *fk_forward_url_id : int
  *fk_source_id : bigint
  *success : boolean
  *error : varchar(255)
}

forward_source }o- -|| forward_url
forward_source }o..|| source

@enduml

@startuml

skinparam linetype ortho

entity source {
  *id : bigint
  - -
  *path : varchar(255) - unique
  *feed_name : varchar(255)
  *type_name : varchar(255)
  *last_modified_time_ms : bigint
  examined : boolean
  *forwarded : boolean
  *forward_error : boolean
}

entity forward_url {
  *id : int
  - -
  *url : varchar(255)
}

entity forward_source {
  *id : bigint
  - -
  *fk_forward_url_id : int
  *fk_source_id : bigint
  *success : boolean
  *error : varchar(255)
}

forward_source }o- -|| forward_url
forward_source }o..|| source

@enduml

PlantUML version 1.2021.00(Sun Jan 10 10:25:05 GMT 2021)
(GPL source distribution)
Java Runtime: OpenJDK Runtime Environment
JVM: OpenJDK 64-Bit Server VM
Default Encoding: UTF-8
Language: en
Country: GB
--></g></svg>