<?xml version="1.0" encoding="UTF-8" standalone="no"?><svg xmlns="http://www.w3.org/2000/svg" xmlns:xlink="http://www.w3.org/1999/xlink" contentScriptType="application/ecmascript" contentStyleType="text/css" height="598px" preserveAspectRatio="none" style="width:867px;height:598px;" version="1.1" viewBox="0 0 867 598" width="867px" zoomAndPan="magnify"><defs><filter height="300%" id="f152zdz374ol7v" width="300%" x="-1" y="-1"><feGaussianBlur result="blurOut" stdDeviation="2.0"/><feColorMatrix in="blurOut" result="blurOut2" type="matrix" values="0 0 0 0 0 0 0 0 0 0 0 0 0 0 0 0 0 0 .4 0"/><feOffset dx="4.0" dy="4.0" in="blurOut2" result="blurOut3"/><feBlend in="SourceGraphic" in2="blurOut3" mode="normal"/></filter></defs><g><text fill="#000000" font-family="sans-serif" font-size="18" lengthAdjust="spacing" textLength="186" x="342.5" y="28.708">Forward Stored Data</text><rect fill="#FFFFFF" filter="url(#f152zdz374ol7v)" height="239.7969" style="stroke:#A80036;stroke-width:1.0;" width="10" x="227" y="220.6484"/><rect fill="#FFFFFF" filter="url(#f152zdz374ol7v)" height="170.6641" style="stroke:#A80036;stroke-width:1.0;" width="10" x="232" y="262.7813"/><line style="stroke:#A80036;stroke-width:1.0;stroke-dasharray:5.0,5.0;" x1="79" x2="79" y1="123.25" y2="514.5781"/><line style="stroke:#A80036;stroke-width:1.0;stroke-dasharray:5.0,5.0;" x1="232" x2="232" y1="123.25" y2="514.5781"/><line style="stroke:#A80036;stroke-width:1.0;stroke-dasharray:5.0,5.0;" x1="427" x2="427" y1="123.25" y2="514.5781"/><line style="stroke:#A80036;stroke-width:1.0;stroke-dasharray:5.0,5.0;" x1="474" x2="474" y1="123.25" y2="514.5781"/><line style="stroke:#A80036;stroke-width:1.0;stroke-dasharray:5.0,5.0;" x1="594" x2="594" y1="123.25" y2="514.5781"/><line style="stroke:#A80036;stroke-width:1.0;stroke-dasharray:5.0,5.0;" x1="733" x2="733" y1="123.25" y2="514.5781"/><line style="stroke:#A80036;stroke-width:1.0;stroke-dasharray:5.0,5.0;" x1="823" x2="823" y1="123.25" y2="514.5781"/><rect fill="#FEFECE" filter="url(#f152zdz374ol7v)" height="30.2969" style="stroke:#A80036;stroke-width:1.5;" width="145" x="5" y="87.9531"/><text fill="#000000" font-family="sans-serif" font-size="14" lengthAdjust="spacing" textLength="131" x="12" y="107.9482">ProxyRepoSources</text><rect fill="#FEFECE" filter="url(#f152zdz374ol7v)" height="30.2969" style="stroke:#A80036;stroke-width:1.5;" width="145" x="5" y="513.5781"/><text fill="#000000" font-family="sans-serif" font-size="14" lengthAdjust="spacing" textLength="131" x="12" y="533.5732">ProxyRepoSources</text><rect fill="#FEFECE" filter="url(#f152zdz374ol7v)" height="30.2969" style="stroke:#A80036;stroke-width:1.5;" width="132" x="164" y="87.9531"/><text fill="#000000" font-family="sans-serif" font-size="14" lengthAdjust="spacing" textLength="118" x="171" y="107.9482">SourceForwarder</text><rect fill="#FEFECE" filter="url(#f152zdz374ol7v)" height="30.2969" style="stroke:#A80036;stroke-width:1.5;" width="132" x="164" y="513.5781"/><text fill="#000000" font-family="sans-serif" font-size="14" lengthAdjust="spacing" textLength="118" x="171" y="533.5732">SourceForwarder</text><text fill="#000000" font-family="sans-serif" font-size="14" lengthAdjust="spacing" textLength="18" x="415" y="119.9482">db</text><path d="M409,70.9531 C409,60.9531 427,60.9531 427,60.9531 C427,60.9531 445,60.9531 445,70.9531 L445,96.9531 C445,106.9531 427,106.9531 427,106.9531 C427,106.9531 409,106.9531 409,96.9531 L409,70.9531 " fill="#FEFECE" filter="url(#f152zdz374ol7v)" style="stroke:#000000;stroke-width:1.5;"/><path d="M409,70.9531 C409,80.9531 427,80.9531 427,80.9531 C427,80.9531 445,80.9531 445,70.9531 " fill="none" style="stroke:#000000;stroke-width:1.5;"/><text fill="#000000" font-family="sans-serif" font-size="14" lengthAdjust="spacing" textLength="18" x="415" y="526.5732">db</text><path d="M409,539.875 C409,529.875 427,529.875 427,529.875 C427,529.875 445,529.875 445,539.875 L445,565.875 C445,575.875 427,575.875 427,575.875 C427,575.875 409,575.875 409,565.875 L409,539.875 " fill="#FEFECE" filter="url(#f152zdz374ol7v)" style="stroke:#000000;stroke-width:1.5;"/><path d="M409,539.875 C409,549.875 427,549.875 427,549.875 C427,549.875 445,549.875 445,539.875 " fill="none" style="stroke:#000000;stroke-width:1.5;"/><text fill="#000000" font-family="sans-serif" font-size="14" lengthAdjust="spacing" textLength="32" x="455" y="119.9482">repo</text><path d="M456,70.9531 C456,60.9531 474,60.9531 474,60.9531 C474,60.9531 492,60.9531 492,70.9531 L492,96.9531 C492,106.9531 474,106.9531 474,106.9531 C474,106.9531 456,106.9531 456,96.9531 L456,70.9531 " fill="#FEFECE" filter="url(#f152zdz374ol7v)" style="stroke:#000000;stroke-width:1.5;"/><path d="M456,70.9531 C456,80.9531 474,80.9531 474,80.9531 C474,80.9531 492,80.9531 492,70.9531 " fill="none" style="stroke:#000000;stroke-width:1.5;"/><text fill="#000000" font-family="sans-serif" font-size="14" lengthAdjust="spacing" textLength="32" x="455" y="526.5732">repo</text><path d="M456,539.875 C456,529.875 474,529.875 474,529.875 C474,529.875 492,529.875 492,539.875 L492,565.875 C492,575.875 474,575.875 474,575.875 C474,575.875 456,575.875 456,565.875 L456,539.875 " fill="#FEFECE" filter="url(#f152zdz374ol7v)" style="stroke:#000000;stroke-width:1.5;"/><path d="M456,539.875 C456,549.875 474,549.875 474,549.875 C474,549.875 492,549.875 492,539.875 " fill="none" style="stroke:#000000;stroke-width:1.5;"/><rect fill="#FEFECE" filter="url(#f152zdz374ol7v)" height="30.2969" style="stroke:#A80036;stroke-width:1.5;" width="179" x="503" y="87.9531"/><text fill="#000000" font-family="sans-serif" font-size="14" lengthAdjust="spacing" textLength="165" x="510" y="107.9482">ForwardStreamHandlers</text><rect fill="#FEFECE" filter="url(#f152zdz374ol7v)" height="30.2969" style="stroke:#A80036;stroke-width:1.5;" width="179" x="503" y="513.5781"/><text fill="#000000" font-family="sans-serif" font-size="14" lengthAdjust="spacing" textLength="165" x="510" y="533.5732">ForwardStreamHandlers</text><rect fill="#FEFECE" filter="url(#f152zdz374ol7v)" height="30.2969" style="stroke:#A80036;stroke-width:1.5;" width="71" x="696" y="87.9531"/><text fill="#000000" font-family="sans-serif" font-size="14" lengthAdjust="spacing" textLength="57" x="703" y="107.9482">Cleanup</text><rect fill="#FEFECE" filter="url(#f152zdz374ol7v)" height="30.2969" style="stroke:#A80036;stroke-width:1.5;" width="71" x="696" y="513.5781"/><text fill="#000000" font-family="sans-serif" font-size="14" lengthAdjust="spacing" textLength="57" x="703" y="533.5732">Cleanup</text><text fill="#000000" font-family="sans-serif" font-size="14" lengthAdjust="spacing" textLength="79" x="781" y="119.9482">Destination</text><ellipse cx="823.5" cy="49.9531" fill="#FEFECE" filter="url(#f152zdz374ol7v)" rx="8" ry="8" style="stroke:#A80036;stroke-width:2.0;"/><path d="M823.5,57.9531 L823.5,84.9531 M810.5,65.9531 L836.5,65.9531 M823.5,84.9531 L810.5,99.9531 M823.5,84.9531 L836.5,99.9531 " fill="none" filter="url(#f152zdz374ol7v)" style="stroke:#A80036;stroke-width:2.0;"/><text fill="#000000" font-family="sans-serif" font-size="14" lengthAdjust="spacing" textLength="79" x="781" y="526.5732">Destination</text><ellipse cx="823.5" cy="539.875" fill="#FEFECE" filter="url(#f152zdz374ol7v)" rx="8" ry="8" style="stroke:#A80036;stroke-width:2.0;"/><path d="M823.5,547.875 L823.5,574.875 M810.5,555.875 L836.5,555.875 M823.5,574.875 L810.5,589.875 M823.5,574.875 L836.5,589.875 " fill="none" filter="url(#f152zdz374ol7v)" style="stroke:#A80036;stroke-width:2.0;"/><rect fill="#FFFFFF" filter="url(#f152zdz374ol7v)" height="239.7969" style="stroke:#A80036;stroke-width:1.0;" width="10" x="227" y="220.6484"/><rect fill="#FFFFFF" filter="url(#f152zdz374ol7v)" height="170.6641" style="stroke:#A80036;stroke-width:1.0;" width="10" x="232" y="262.7813"/><line style="stroke:#A80036;stroke-width:1.0;" x1="230" x2="220" y1="154.3828" y2="158.3828"/><line style="stroke:#A80036;stroke-width:1.0;stroke-dasharray:2.0,2.0;" x1="79.5" x2="231" y1="154.3828" y2="154.3828"/><text fill="#000000" font-family="sans-serif" font-size="13" lengthAdjust="spacing" textLength="65" x="86.5" y="149.3169">onChange</text><polygon fill="#A80036" points="415,179.5156,425,183.5156,415,187.5156,419,183.5156" style="stroke:#A80036;stroke-width:1.0;"/><line style="stroke:#A80036;stroke-width:1.0;" x1="232" x2="421" y1="183.5156" y2="183.5156"/><text fill="#000000" font-family="sans-serif" font-size="13" lengthAdjust="spacing" textLength="109" x="239" y="178.4497">Find new sources</text><line style="stroke:#A80036;stroke-width:1.0;" x1="232" x2="279" y1="207.6484" y2="207.6484"/><line style="stroke:#A80036;stroke-width:1.0;" x1="279" x2="279" y1="207.6484" y2="220.6484"/><line style="stroke:#A80036;stroke-width:1.0;" x1="238" x2="279" y1="220.6484" y2="220.6484"/><line style="stroke:#A80036;stroke-width:1.0;" x1="238" x2="248" y1="220.6484" y2="224.6484"/><text fill="#000000" font-family="sans-serif" font-size="13" lengthAdjust="spacing" textLength="106" x="244" y="202.5825">Forward Sources</text><line style="stroke:#A80036;stroke-width:1.0;" x1="237" x2="284" y1="249.7813" y2="249.7813"/><line style="stroke:#A80036;stroke-width:1.0;" x1="284" x2="284" y1="249.7813" y2="262.7813"/><line style="stroke:#A80036;stroke-width:1.0;" x1="243" x2="284" y1="262.7813" y2="262.7813"/><line style="stroke:#A80036;stroke-width:1.0;" x1="243" x2="253" y1="262.7813" y2="266.7813"/><text fill="#000000" font-family="sans-serif" font-size="13" lengthAdjust="spacing" textLength="99" x="249" y="244.7153">Forward Source</text><polygon fill="#A80036" points="462,292.9141,472,296.9141,462,300.9141,466,296.9141" style="stroke:#A80036;stroke-width:1.0;"/><line style="stroke:#A80036;stroke-width:1.0;" x1="242" x2="468" y1="296.9141" y2="296.9141"/><text fill="#000000" font-family="sans-serif" font-size="13" lengthAdjust="spacing" textLength="29" x="249" y="291.8481">read</text><polygon fill="#A80036" points="582.5,322.0469,592.5,326.0469,582.5,330.0469,586.5,326.0469" style="stroke:#A80036;stroke-width:1.0;"/><line style="stroke:#A80036;stroke-width:1.0;" x1="242" x2="588.5" y1="326.0469" y2="326.0469"/><text fill="#000000" font-family="sans-serif" font-size="13" lengthAdjust="spacing" textLength="30" x="249" y="320.981">write</text><polygon fill="#A80036" points="811.5,351.1797,821.5,355.1797,811.5,359.1797,815.5,355.1797" style="stroke:#A80036;stroke-width:1.0;"/><line style="stroke:#A80036;stroke-width:1.0;stroke-dasharray:2.0,2.0;" x1="594.5" x2="817.5" y1="355.1797" y2="355.1797"/><text fill="#000000" font-family="sans-serif" font-size="13" lengthAdjust="spacing" textLength="43" x="601.5" y="350.1138">handle</text><polygon fill="#A80036" points="415,380.3125,425,384.3125,415,388.3125,419,384.3125" style="stroke:#A80036;stroke-width:1.0;"/><line style="stroke:#A80036;stroke-width:1.0;" x1="242" x2="421" y1="384.3125" y2="384.3125"/><text fill="#000000" font-family="sans-serif" font-size="13" lengthAdjust="spacing" textLength="148" x="249" y="379.2466">record 'forward_source'</text><polygon fill="#A80036" points="415,409.4453,425,413.4453,415,417.4453,419,413.4453" style="stroke:#A80036;stroke-width:1.0;"/><line style="stroke:#A80036;stroke-width:1.0;" x1="242" x2="421" y1="413.4453" y2="413.4453"/><text fill="#000000" font-family="sans-serif" font-size="13" lengthAdjust="spacing" textLength="161" x="249" y="408.3794">record 'source' forwarded</text><line style="stroke:#A80036;stroke-width:1.0;stroke-dasharray:2.0,2.0;" x1="242" x2="284" y1="432.4453" y2="432.4453"/><line style="stroke:#A80036;stroke-width:1.0;stroke-dasharray:2.0,2.0;" x1="284" x2="284" y1="432.4453" y2="445.4453"/><line style="stroke:#A80036;stroke-width:1.0;stroke-dasharray:2.0,2.0;" x1="237" x2="284" y1="445.4453" y2="445.4453"/><line style="stroke:#A80036;stroke-width:1.0;" x1="237" x2="247" y1="445.4453" y2="449.4453"/><line style="stroke:#A80036;stroke-width:1.0;stroke-dasharray:2.0,2.0;" x1="237" x2="279" y1="459.4453" y2="459.4453"/><line style="stroke:#A80036;stroke-width:1.0;stroke-dasharray:2.0,2.0;" x1="279" x2="279" y1="459.4453" y2="472.4453"/><line style="stroke:#A80036;stroke-width:1.0;stroke-dasharray:2.0,2.0;" x1="232" x2="279" y1="472.4453" y2="472.4453"/><line style="stroke:#A80036;stroke-width:1.0;" x1="232" x2="242" y1="472.4453" y2="476.4453"/><line style="stroke:#A80036;stroke-width:1.0;" x1="731.5" x2="721.5" y1="496.5781" y2="500.5781"/><line style="stroke:#A80036;stroke-width:1.0;stroke-dasharray:2.0,2.0;" x1="232" x2="732.5" y1="496.5781" y2="496.5781"/><text fill="#000000" font-family="sans-serif" font-size="13" lengthAdjust="spacing" textLength="65" x="239" y="491.5122">onChange</text><!--MD5=[c357406335b4af511c88819a72abe26b]
@startuml

title Forward Stored Data

participant ProxyRepoSources
participant SourceForwarder
database db
database repo
participant ForwardStreamHandlers
participant Cleanup
actor Destination

ProxyRepoSources - -// SourceForwarder: onChange
SourceForwarder -> db: Find new sources
SourceForwarder -// SourceForwarder++: Forward Sources
SourceForwarder -// SourceForwarder++: Forward Source
SourceForwarder -> repo: read
SourceForwarder -> ForwardStreamHandlers: write
ForwardStreamHandlers - -> Destination: handle
SourceForwarder -> db: record 'forward_source'

SourceForwarder -> db: record 'source' forwarded
return
return

SourceForwarder - -// Cleanup: onChange

@enduml

PlantUML version 1.2021.00(Sun Jan 10 10:25:05 GMT 2021)
(GPL source distribution)
Java Runtime: OpenJDK Runtime Environment
JVM: OpenJDK 64-Bit Server VM
Default Encoding: UTF-8
Language: en
Country: GB
--></g></svg>