<?xml version="1.0" encoding="UTF-8" standalone="no"?><svg xmlns="http://www.w3.org/2000/svg" xmlns:xlink="http://www.w3.org/1999/xlink" contentScriptType="application/ecmascript" contentStyleType="text/css" height="344px" preserveAspectRatio="none" style="width:557px;height:344px;" version="1.1" viewBox="0 0 557 344" width="557px" zoomAndPan="magnify"><defs><filter height="300%" id="fojwt077nuaqn" width="300%" x="-1" y="-1"><feGaussianBlur result="blurOut" stdDeviation="2.0"/><feColorMatrix in="blurOut" result="blurOut2" type="matrix" values="0 0 0 0 0 0 0 0 0 0 0 0 0 0 0 0 0 0 .4 0"/><feOffset dx="4.0" dy="4.0" in="blurOut2" result="blurOut3"/><feBlend in="SourceGraphic" in2="blurOut3" mode="normal"/></filter></defs><g><text fill="#000000" font-family="sans-serif" font-size="18" lengthAdjust="spacing" textLength="151" x="205.25" y="28.708">Scan Proxy Repo</text><line style="stroke:#A80036;stroke-width:1.0;stroke-dasharray:5.0,5.0;" x1="91" x2="91" y1="123.25" y2="259.7813"/><line style="stroke:#A80036;stroke-width:1.0;stroke-dasharray:5.0,5.0;" x1="261" x2="261" y1="123.25" y2="259.7813"/><line style="stroke:#A80036;stroke-width:1.0;stroke-dasharray:5.0,5.0;" x1="365" x2="365" y1="123.25" y2="259.7813"/><line style="stroke:#A80036;stroke-width:1.0;stroke-dasharray:5.0,5.0;" x1="413.5" x2="413.5" y1="123.25" y2="259.7813"/><line style="stroke:#A80036;stroke-width:1.0;stroke-dasharray:5.0,5.0;" x1="498.5" x2="498.5" y1="123.25" y2="259.7813"/><rect fill="#FEFECE" filter="url(#fojwt077nuaqn)" height="30.2969" style="stroke:#A80036;stroke-width:1.5;" width="168" x="5" y="87.9531"/><text fill="#000000" font-family="sans-serif" font-size="14" lengthAdjust="spacing" textLength="154" x="12" y="107.9482">ProxyRepoFileScanner</text><rect fill="#FEFECE" filter="url(#fojwt077nuaqn)" height="30.2969" style="stroke:#A80036;stroke-width:1.5;" width="168" x="5" y="258.7813"/><text fill="#000000" font-family="sans-serif" font-size="14" lengthAdjust="spacing" textLength="154" x="12" y="278.7764">ProxyRepoFileScanner</text><rect fill="#FEFECE" filter="url(#fojwt077nuaqn)" height="30.2969" style="stroke:#A80036;stroke-width:1.5;" width="145" x="187" y="87.9531"/><text fill="#000000" font-family="sans-serif" font-size="14" lengthAdjust="spacing" textLength="131" x="194" y="107.9482">ProxyRepoSources</text><rect fill="#FEFECE" filter="url(#fojwt077nuaqn)" height="30.2969" style="stroke:#A80036;stroke-width:1.5;" width="145" x="187" y="258.7813"/><text fill="#000000" font-family="sans-serif" font-size="14" lengthAdjust="spacing" textLength="131" x="194" y="278.7764">ProxyRepoSources</text><text fill="#000000" font-family="sans-serif" font-size="14" lengthAdjust="spacing" textLength="32" x="346" y="119.9482">repo</text><path d="M347,70.9531 C347,60.9531 365,60.9531 365,60.9531 C365,60.9531 383,60.9531 383,70.9531 L383,96.9531 C383,106.9531 365,106.9531 365,106.9531 C365,106.9531 347,106.9531 347,96.9531 L347,70.9531 " fill="#FEFECE" filter="url(#fojwt077nuaqn)" style="stroke:#000000;stroke-width:1.5;"/><path d="M347,70.9531 C347,80.9531 365,80.9531 365,80.9531 C365,80.9531 383,80.9531 383,70.9531 " fill="none" style="stroke:#000000;stroke-width:1.5;"/><text fill="#000000" font-family="sans-serif" font-size="14" lengthAdjust="spacing" textLength="32" x="346" y="271.7764">repo</text><path d="M347,285.0781 C347,275.0781 365,275.0781 365,275.0781 C365,275.0781 383,275.0781 383,285.0781 L383,311.0781 C383,321.0781 365,321.0781 365,321.0781 C365,321.0781 347,321.0781 347,311.0781 L347,285.0781 " fill="#FEFECE" filter="url(#fojwt077nuaqn)" style="stroke:#000000;stroke-width:1.5;"/><path d="M347,285.0781 C347,295.0781 365,295.0781 365,295.0781 C365,295.0781 383,295.0781 383,285.0781 " fill="none" style="stroke:#000000;stroke-width:1.5;"/><text fill="#000000" font-family="sans-serif" font-size="14" lengthAdjust="spacing" textLength="18" x="401.5" y="119.9482">db</text><path d="M395.5,70.9531 C395.5,60.9531 413.5,60.9531 413.5,60.9531 C413.5,60.9531 431.5,60.9531 431.5,70.9531 L431.5,96.9531 C431.5,106.9531 413.5,106.9531 413.5,106.9531 C413.5,106.9531 395.5,106.9531 395.5,96.9531 L395.5,70.9531 " fill="#FEFECE" filter="url(#fojwt077nuaqn)" style="stroke:#000000;stroke-width:1.5;"/><path d="M395.5,70.9531 C395.5,80.9531 413.5,80.9531 413.5,80.9531 C413.5,80.9531 431.5,80.9531 431.5,70.9531 " fill="none" style="stroke:#000000;stroke-width:1.5;"/><text fill="#000000" font-family="sans-serif" font-size="14" lengthAdjust="spacing" textLength="18" x="401.5" y="271.7764">db</text><path d="M395.5,285.0781 C395.5,275.0781 413.5,275.0781 413.5,275.0781 C413.5,275.0781 431.5,275.0781 431.5,285.0781 L431.5,311.0781 C431.5,321.0781 413.5,321.0781 413.5,321.0781 C413.5,321.0781 395.5,321.0781 395.5,311.0781 L395.5,285.0781 " fill="#FEFECE" filter="url(#fojwt077nuaqn)" style="stroke:#000000;stroke-width:1.5;"/><path d="M395.5,285.0781 C395.5,295.0781 413.5,295.0781 413.5,295.0781 C413.5,295.0781 431.5,295.0781 431.5,285.0781 " fill="none" style="stroke:#000000;stroke-width:1.5;"/><text fill="#000000" font-family="sans-serif" font-size="14" lengthAdjust="spacing" textLength="109" x="441.5" y="119.9482">ChangeListener</text><ellipse cx="499" cy="49.9531" fill="#FEFECE" filter="url(#fojwt077nuaqn)" rx="8" ry="8" style="stroke:#A80036;stroke-width:2.0;"/><path d="M499,57.9531 L499,84.9531 M486,65.9531 L512,65.9531 M499,84.9531 L486,99.9531 M499,84.9531 L512,99.9531 " fill="none" filter="url(#fojwt077nuaqn)" style="stroke:#A80036;stroke-width:2.0;"/><text fill="#000000" font-family="sans-serif" font-size="14" lengthAdjust="spacing" textLength="109" x="441.5" y="271.7764">ChangeListener</text><ellipse cx="499" cy="285.0781" fill="#FEFECE" filter="url(#fojwt077nuaqn)" rx="8" ry="8" style="stroke:#A80036;stroke-width:2.0;"/><path d="M499,293.0781 L499,320.0781 M486,301.0781 L512,301.0781 M499,320.0781 L486,335.0781 M499,320.0781 L512,335.0781 " fill="none" filter="url(#fojwt077nuaqn)" style="stroke:#A80036;stroke-width:2.0;"/><line style="stroke:#A80036;stroke-width:1.0;" x1="363" x2="353" y1="154.3828" y2="150.3828"/><line style="stroke:#A80036;stroke-width:1.0;" x1="363" x2="353" y1="154.3828" y2="158.3828"/><line style="stroke:#A80036;stroke-width:1.0;" x1="91" x2="364" y1="154.3828" y2="154.3828"/><text fill="#000000" font-family="sans-serif" font-size="13" lengthAdjust="spacing" textLength="30" x="98" y="149.3169">scan</text><line style="stroke:#A80036;stroke-width:1.0;" x1="259.5" x2="249.5" y1="183.5156" y2="179.5156"/><line style="stroke:#A80036;stroke-width:1.0;" x1="259.5" x2="249.5" y1="183.5156" y2="187.5156"/><line style="stroke:#A80036;stroke-width:1.0;" x1="91" x2="260.5" y1="183.5156" y2="183.5156"/><text fill="#000000" font-family="sans-serif" font-size="13" lengthAdjust="spacing" textLength="69" x="98" y="178.4497">addSource</text><line style="stroke:#A80036;stroke-width:1.0;" x1="411.5" x2="401.5" y1="212.6484" y2="208.6484"/><line style="stroke:#A80036;stroke-width:1.0;" x1="411.5" x2="401.5" y1="212.6484" y2="216.6484"/><line style="stroke:#A80036;stroke-width:1.0;" x1="261.5" x2="412.5" y1="212.6484" y2="212.6484"/><text fill="#000000" font-family="sans-serif" font-size="13" lengthAdjust="spacing" textLength="128" x="268.5" y="207.5825">Add SOURCE record</text><line style="stroke:#A80036;stroke-width:1.0;" x1="497" x2="487" y1="241.7813" y2="245.7813"/><line style="stroke:#A80036;stroke-width:1.0;stroke-dasharray:2.0,2.0;" x1="261.5" x2="498" y1="241.7813" y2="241.7813"/><text fill="#000000" font-family="sans-serif" font-size="13" lengthAdjust="spacing" textLength="65" x="268.5" y="236.7153">onChange</text><!--MD5=[25e67fd1d8a1039d74711c063c59edf8]
@startuml

title Scan Proxy Repo

participant ProxyRepoFileScanner
participant ProxyRepoSources
database repo
database db
actor ChangeListener

ProxyRepoFileScanner ->> repo: scan
ProxyRepoFileScanner ->> ProxyRepoSources: addSource
ProxyRepoSources ->> db: Add SOURCE record
ProxyRepoSources - -// ChangeListener: onChange


@enduml

PlantUML version 1.2021.00(Sun Jan 10 10:25:05 GMT 2021)
(GPL source distribution)
Java Runtime: OpenJDK Runtime Environment
JVM: OpenJDK 64-Bit Server VM
Default Encoding: UTF-8
Language: en
Country: GB
--></g></svg>