<?xml version="1.0" encoding="UTF-8" standalone="no"?><svg xmlns="http://www.w3.org/2000/svg" xmlns:xlink="http://www.w3.org/1999/xlink" contentScriptType="application/ecmascript" contentStyleType="text/css" height="530px" preserveAspectRatio="none" style="width:490px;height:530px;" version="1.1" viewBox="0 0 490 530" width="490px" zoomAndPan="magnify"><defs><filter height="300%" id="f1bbogzjwmh5qf" width="300%" x="-1" y="-1"><feGaussianBlur result="blurOut" stdDeviation="2.0"/><feColorMatrix in="blurOut" result="blurOut2" type="matrix" values="0 0 0 0 0 0 0 0 0 0 0 0 0 0 0 0 0 0 .4 0"/><feOffset dx="4.0" dy="4.0" in="blurOut2" result="blurOut3"/><feBlend in="SourceGraphic" in2="blurOut3" mode="normal"/></filter></defs><g><text fill="#000000" font-family="sans-serif" font-size="18" lengthAdjust="spacing" textLength="111" x="183" y="16.708">Storing Data</text><!--MD5=[334049d3a1ffeab5811ce8957a01f1ef]
cluster repo--><rect fill="#FFFFFF" filter="url(#f1bbogzjwmh5qf)" height="170" rx="35" ry="35" style="stroke:#000000;stroke-width:1.5;" width="235" x="243" y="207.9531"/><text fill="#000000" font-family="sans-serif" font-size="14" font-weight="bold" lengthAdjust="spacing" textLength="37" x="342" y="227.9482">repo</text><!--MD5=[5dfe1150c87218a9f0b25c58295c84f7]
cluster folder--><polygon fill="#FFFFFF" filter="url(#f1bbogzjwmh5qf)" points="283,258.9531,336,258.9531,343,281.25,446,281.25,446,345.9531,283,345.9531,283,258.9531" style="stroke:#000000;stroke-width:1.5;"/><line style="stroke:#000000;stroke-width:1.5;" x1="283" x2="343" y1="281.25" y2="281.25"/><text fill="#000000" font-family="sans-serif" font-size="14" font-weight="bold" lengthAdjust="spacing" textLength="47" x="287" y="273.9482">folder</text><!--MD5=[815249f79c2c08157ac02b3106e03757]
cluster Database--><path d="M156,419.9531 C156,409.9531 213,409.9531 213,409.9531 C213,409.9531 270,409.9531 270,419.9531 L270,513.9531 C270,523.9531 213,523.9531 213,523.9531 C213,523.9531 156,523.9531 156,513.9531 L156,419.9531 " fill="#FFFFFF" filter="url(#f1bbogzjwmh5qf)" style="stroke:#000000;stroke-width:1.5;"/><path d="M156,419.9531 C156,429.9531 213,429.9531 213,429.9531 C213,429.9531 270,429.9531 270,419.9531 " fill="none" style="stroke:#000000;stroke-width:1.5;"/><text fill="#000000" font-family="sans-serif" font-size="14" font-weight="bold" lengthAdjust="spacing" textLength="73" x="176.5" y="444.9482">Database</text><!--MD5=[bf3ce7a256daaaf5dbab58753aeb22ee]
entity zip--><polygon fill="#FFFFFF" filter="url(#f1bbogzjwmh5qf)" points="390,293.9531,390,330.25,430,330.25,430,303.9531,420,293.9531,390,293.9531" style="stroke:#000000;stroke-width:1.5;"/><path d="M420,293.9531 L420,303.9531 L430,303.9531 " fill="#FFFFFF" style="stroke:#000000;stroke-width:1.5;"/><text fill="#000000" font-family="sans-serif" font-size="14" lengthAdjust="spacing" textLength="20" x="400" y="316.9482">zip</text><!--MD5=[c12a1600b6b75d8e137ee7341d68ba4c]
entity meta--><polygon fill="#FFFFFF" filter="url(#f1bbogzjwmh5qf)" points="299.5,293.9531,299.5,330.25,354.5,330.25,354.5,303.9531,344.5,293.9531,299.5,293.9531" style="stroke:#000000;stroke-width:1.5;"/><path d="M344.5,293.9531 L344.5,303.9531 L354.5,303.9531 " fill="#FFFFFF" style="stroke:#000000;stroke-width:1.5;"/><text fill="#000000" font-family="sans-serif" font-size="14" lengthAdjust="spacing" textLength="35" x="309.5" y="316.9482">meta</text><!--MD5=[23b040da7204fd07ca5426bfc499883a]
class SOURCE--><rect codeLine="25" fill="#FEFECE" filter="url(#f1bbogzjwmh5qf)" height="48" id="SOURCE" style="stroke:#A80036;stroke-width:1.5;" width="82" x="172" y="459.9531"/><ellipse cx="187" cy="475.9531" fill="#ADD1B2" rx="11" ry="11" style="stroke:#A80036;stroke-width:1.0;"/><path d="M191.1094,481.9531 L183.3906,481.9531 L183.3906,469.5625 L191.1094,469.5625 L191.1094,471.7188 L185.8438,471.7188 L185.8438,474.3906 L190.6094,474.3906 L190.6094,476.5469 L185.8438,476.5469 L185.8438,479.7969 L191.1094,479.7969 L191.1094,481.9531 Z " fill="#000000"/><text fill="#000000" font-family="sans-serif" font-size="12" lengthAdjust="spacing" textLength="50" x="201" y="480.1074">SOURCE</text><line style="stroke:#A80036;stroke-width:1.5;" x1="173" x2="253" y1="491.9531" y2="491.9531"/><line style="stroke:#A80036;stroke-width:1.5;" x1="173" x2="253" y1="499.9531" y2="499.9531"/><!--MD5=[43461efb75070d5b99f20b1925d828b0]
class ProxyRequestHandler--><rect codeLine="4" fill="#FEFECE" filter="url(#f1bbogzjwmh5qf)" height="48" id="ProxyRequestHandler" style="stroke:#A80036;stroke-width:1.5;" width="166" x="113" y="27.9531"/><ellipse cx="128" cy="43.9531" fill="#ADD1B2" rx="11" ry="11" style="stroke:#A80036;stroke-width:1.0;"/><path d="M130.9688,49.5938 Q130.3906,49.8906 129.75,50.0313 Q129.1094,50.1875 128.4063,50.1875 Q125.9063,50.1875 124.5781,48.5469 Q123.2656,46.8906 123.2656,43.7656 Q123.2656,40.6406 124.5781,38.9844 Q125.9063,37.3281 128.4063,37.3281 Q129.1094,37.3281 129.75,37.4844 Q130.4063,37.6406 130.9688,37.9375 L130.9688,40.6563 Q130.3438,40.0781 129.75,39.8125 Q129.1563,39.5313 128.5313,39.5313 Q127.1875,39.5313 126.5,40.6094 Q125.8125,41.6719 125.8125,43.7656 Q125.8125,45.8594 126.5,46.9375 Q127.1875,48 128.5313,48 Q129.1563,48 129.75,47.7344 Q130.3438,47.4531 130.9688,46.875 L130.9688,49.5938 Z " fill="#000000"/><text fill="#000000" font-family="sans-serif" font-size="12" lengthAdjust="spacing" textLength="134" x="142" y="48.1074">ProxyRequestHandler</text><line style="stroke:#A80036;stroke-width:1.5;" x1="114" x2="278" y1="59.9531" y2="59.9531"/><line style="stroke:#A80036;stroke-width:1.5;" x1="114" x2="278" y1="67.9531" y2="67.9531"/><!--MD5=[30e2d8deda946a11189666f8d4da17df]
class ProxyRepo--><rect codeLine="7" fill="#FEFECE" filter="url(#f1bbogzjwmh5qf)" height="48" id="ProxyRepo" style="stroke:#A80036;stroke-width:1.5;" width="97" x="147.5" y="135.9531"/><ellipse cx="162.5" cy="151.9531" fill="#ADD1B2" rx="11" ry="11" style="stroke:#A80036;stroke-width:1.0;"/><path d="M165.4688,157.5938 Q164.8906,157.8906 164.25,158.0313 Q163.6094,158.1875 162.9063,158.1875 Q160.4063,158.1875 159.0781,156.5469 Q157.7656,154.8906 157.7656,151.7656 Q157.7656,148.6406 159.0781,146.9844 Q160.4063,145.3281 162.9063,145.3281 Q163.6094,145.3281 164.25,145.4844 Q164.9063,145.6406 165.4688,145.9375 L165.4688,148.6563 Q164.8438,148.0781 164.25,147.8125 Q163.6563,147.5313 163.0313,147.5313 Q161.6875,147.5313 161,148.6094 Q160.3125,149.6719 160.3125,151.7656 Q160.3125,153.8594 161,154.9375 Q161.6875,156 163.0313,156 Q163.6563,156 164.25,155.7344 Q164.8438,155.4531 165.4688,154.875 L165.4688,157.5938 Z " fill="#000000"/><text fill="#000000" font-family="sans-serif" font-size="12" lengthAdjust="spacing" textLength="65" x="176.5" y="156.1074">ProxyRepo</text><line style="stroke:#A80036;stroke-width:1.5;" x1="148.5" x2="243.5" y1="167.9531" y2="167.9531"/><line style="stroke:#A80036;stroke-width:1.5;" x1="148.5" x2="243.5" y1="175.9531" y2="175.9531"/><!--MD5=[17c80345ce122db1d9d72f6005235627]
class ProxyRepoSources--><rect codeLine="10" fill="#FEFECE" filter="url(#f1bbogzjwmh5qf)" height="48" id="ProxyRepoSources" style="stroke:#A80036;stroke-width:1.5;" width="148" x="68" y="287.9531"/><ellipse cx="83" cy="303.9531" fill="#ADD1B2" rx="11" ry="11" style="stroke:#A80036;stroke-width:1.0;"/><path d="M85.9688,309.5938 Q85.3906,309.8906 84.75,310.0313 Q84.1094,310.1875 83.4063,310.1875 Q80.9063,310.1875 79.5781,308.5469 Q78.2656,306.8906 78.2656,303.7656 Q78.2656,300.6406 79.5781,298.9844 Q80.9063,297.3281 83.4063,297.3281 Q84.1094,297.3281 84.75,297.4844 Q85.4063,297.6406 85.9688,297.9375 L85.9688,300.6563 Q85.3438,300.0781 84.75,299.8125 Q84.1563,299.5313 83.5313,299.5313 Q82.1875,299.5313 81.5,300.6094 Q80.8125,301.6719 80.8125,303.7656 Q80.8125,305.8594 81.5,306.9375 Q82.1875,308 83.5313,308 Q84.1563,308 84.75,307.7344 Q85.3438,307.4531 85.9688,306.875 L85.9688,309.5938 Z " fill="#000000"/><text fill="#000000" font-family="sans-serif" font-size="12" lengthAdjust="spacing" textLength="116" x="97" y="308.1074">ProxyRepoSources</text><line style="stroke:#A80036;stroke-width:1.5;" x1="69" x2="215" y1="319.9531" y2="319.9531"/><line style="stroke:#A80036;stroke-width:1.5;" x1="69" x2="215" y1="327.9531" y2="327.9531"/><!--MD5=[a94ef3b8c8e4fd23532822afff4ed5f3]
class ChangeListener--><rect codeLine="30" fill="#FEFECE" filter="url(#f1bbogzjwmh5qf)" height="48" id="ChangeListener" style="stroke:#A80036;stroke-width:1.5;" width="130" x="7" y="459.9531"/><ellipse cx="22" cy="475.9531" fill="#B4A7E5" rx="11" ry="11" style="stroke:#A80036;stroke-width:1.0;"/><path d="M17.9219,471.7188 L17.9219,469.5625 L25.3125,469.5625 L25.3125,471.7188 L22.8438,471.7188 L22.8438,479.7969 L25.3125,479.7969 L25.3125,481.9531 L17.9219,481.9531 L17.9219,479.7969 L20.3906,479.7969 L20.3906,471.7188 L17.9219,471.7188 Z " fill="#000000"/><text fill="#000000" font-family="sans-serif" font-size="12" font-style="italic" lengthAdjust="spacing" textLength="98" x="36" y="480.1074">ChangeListener</text><line style="stroke:#A80036;stroke-width:1.5;" x1="8" x2="136" y1="491.9531" y2="491.9531"/><line style="stroke:#A80036;stroke-width:1.5;" x1="8" x2="136" y1="499.9531" y2="499.9531"/><!--MD5=[74dbc2d11b45a085a2d234dd096bbe12]
link ProxyRequestHandler to ProxyRepo--><path codeLine="33" d="M196,75.9531 C196,91.9531 196,113.4031 196,130.4831 " fill="none" id="ProxyRequestHandler-to-ProxyRepo" style="stroke:#A80036;stroke-width:1.0;"/><polygon fill="#A80036" points="196,135.6331,200,126.6331,196,130.6331,192,126.6331,196,135.6331" style="stroke:#A80036;stroke-width:1.0;"/><!--MD5=[48f5647f8b5ba421b8466003118b8251]
link ProxyRepo to repo--><path codeLine="34" d="M228.27,183.9831 C230.45,186.4731 232.41,189.1331 234,191.9531 C237.2338,197.6769 239.9291,203.7938 242.1695,210.1204 C242.4495,210.9112 242.7225,211.7053 242.9885,212.5023 " fill="none" id="ProxyRepo-to-repo" style="stroke:#A80036;stroke-width:1.0;"/><polygon fill="#FFFFFF" points="242.9885,212.5023,243.6135,192.2635,230.3335,196.6956,242.9885,212.5023" style="stroke:#A80036;stroke-width:1.0;"/><!--MD5=[dbd87b12790057922deb2ba961a91844]
link ProxyRepo to ProxyRepoSources--><path codeLine="35" d="M187.68,184.0631 C178.12,210.6331 162.42,254.2431 152.14,282.7731 " fill="none" id="ProxyRepo-to-ProxyRepoSources" style="stroke:#A80036;stroke-width:1.0;"/><polygon fill="#A80036" points="150.42,287.5731,157.2358,280.4637,152.1161,282.8696,149.7102,277.7499,150.42,287.5731" style="stroke:#A80036;stroke-width:1.0;"/><!--MD5=[395047b7a61991979230fa8d16ece2bd]
link ProxyRepoSources to SOURCE--><path codeLine="36" d="M151.72,336.2331 C162.98,363.1931 181.75,408.1231 195.55,441.1731 " fill="none" id="ProxyRepoSources-to-SOURCE" style="stroke:#A80036;stroke-width:1.0;"/><polygon fill="none" points="202.15,438.8031,203.39,459.9531,189.23,444.1931,202.15,438.8031" style="stroke:#A80036;stroke-width:1.0;"/><!--MD5=[49d74a1de686f523f054ef3a8a8c5fdf]
link ProxyRepoSources to ChangeListener--><path codeLine="37" d="M132.41,336.2331 C119.64,367.2631 97.06,422.1031 83.42,455.2231 " fill="none" id="ProxyRepoSources-to-ChangeListener" style="stroke:#A80036;stroke-width:1.0;stroke-dasharray:7.0,7.0;"/><polygon fill="#A80036" points="81.47,459.9531,88.5955,453.154,83.3737,455.3297,81.198,450.108,81.47,459.9531" style="stroke:#A80036;stroke-width:1.0;"/><!--MD5=[6afddacf542b188311eee59480ac62a3]
@startuml

title Storing Data

class ProxyRequestHandler {
}

class ProxyRepo {
}

class ProxyRepoSources {
}

storage repo {
    folder folder {
        file zip {
        }
        file meta {
        }
    }
}



package Database <<Database>> {
entity SOURCE
}



interface ChangeListener {
}

ProxyRequestHandler - -> ProxyRepo
ProxyRepo - -|> repo
ProxyRepo - -> ProxyRepoSources
ProxyRepoSources - -|> SOURCE
ProxyRepoSources ..> ChangeListener

@enduml

PlantUML version 1.2021.00(Sun Jan 10 10:25:05 GMT 2021)
(GPL source distribution)
Java Runtime: OpenJDK Runtime Environment
JVM: OpenJDK 64-Bit Server VM
Default Encoding: UTF-8
Language: en
Country: GB
--></g></svg>