<?xml version="1.0" encoding="utf-8"?>
<svg xmlns="http://www.w3.org/2000/svg" width="1792" height="1792" viewBox="0 0 1792 1792">
    <path style="fill:#757575"
          d="m 1797.4237,1536 0,128 L 0,1664 0,128 l 128,0 0,1408 z"/>
    <path style="fill:#1e88e5"
          d="m 1800.3555,369.26798 0,404.31287 q 0,19.51855 -18.1244,27.41892 -18.1244,7.90037 -32.9956,-6.97091 L 1636.7714,681.56482 1048.4265,1269.9098 q -9.2946,9.2945 -21.3775,9.2945 -12.0829,0 -21.3774,-9.2945 L 789.10857,1053.3468 402.45534,1440 224,1261.5447 767.7311,717.81356 q 9.29455,-9.29455 21.37747,-9.29455 12.08291,0 21.37746,9.29455 L 1027.049,934.37655 1458.3161,503.10948 1345.852,390.64544 q -14.8712,-14.87128 -6.9709,-32.99565 7.9004,-18.12437 27.4189,-18.12437 l 404.3129,0 q 13.0124,0 21.3775,8.3651 8.3651,8.36509 8.3651,21.37746 z"/>
</svg>