<?xml version="1.0" encoding="UTF-8" standalone="no"?>
<svg xmlns="http://www.w3.org/2000/svg" width="1792" height="1792" viewBox="0 0 1792 1792">
    <path style="fill:#ff6f00"
          d="m 224,128 c -26.66667,0 -49.33333,9.33333 -68,28 -18.66667,18.66667 -28,41.33333 -28,68 l 0,1344 c 0,26.6667 9.33333,49.3333 28,68 18.66667,18.6667 41.33333,28 68,28 l 1344,0 c 26.6667,0 49.3333,-9.3333 68,-28 18.6667,-18.6667 28,-41.3333 28,-68 l 0,-1344 c 0,-26.66667 -9.3333,-49.33333 -28,-68 -18.6667,-18.66667 -41.3333,-28 -68,-28 z"/>
    <path style="fill:#ffffff"
          d="m 592.51802,522.82793 c -206.51277,0 -373.17209,166.65939 -373.17209,373.17211 0,204.70116 166.65932,373.17206 373.17209,373.17206 206.51288,0 373.17222,-168.4709 373.17222,-373.17206 0,-206.51272 -166.65934,-373.17211 -373.17222,-373.17211 z m 0,605.04607 c -128.61749,0 -233.68552,-103.2564 -233.68552,-231.87396 0,-128.61758 105.06803,-233.68545 233.68552,-233.68545 128.61767,0 233.68545,105.06787 233.68545,233.68545 0,128.61756 -105.06778,231.87396 -233.68545,231.87396 z"/>
    <path style="fill:#ffffff"
          d="m 1199.4818,522.82793 c -206.51266,0 -373.172,166.65939 -373.172,373.17211 0,204.70116 166.65934,373.17206 373.172,373.17206 206.5127,0 373.1723,-168.4709 373.1723,-373.17206 0,-206.51272 -166.6596,-373.17211 -373.1723,-373.17211 z m 0,605.04607 c -128.6174,0 -233.68541,-103.2564 -233.68541,-231.87396 0,-128.61758 105.06801,-233.68545 233.68541,-233.68545 128.6177,0 233.6855,105.06787 233.6855,233.68545 0,128.61756 -105.0678,231.87396 -233.6855,231.87396 z"/>
</svg>
