<?xml version="1.0" encoding="UTF-8" standalone="no"?>
<svg xmlns="http://www.w3.org/2000/svg" width="1792" height="1792" viewBox="0 0 1792 1792">
    <path id="background"
          d="m 224,128 c -26.66667,0 -49.33333,9.33333 -68,28 -18.66667,18.66667 -28,41.33333 -28,68 l 0,1344 c 0,26.6667 9.33333,49.3333 28,68 18.66667,18.6667 41.33333,28 68,28 l 1344,0 c 26.6667,0 49.3333,-9.3333 68,-28 18.6667,-18.6667 28,-41.3333 28,-68 l 0,-928 c 0,-26.66667 -6.6667,-56 -20,-88 -13.3333,-32 -29.3333,-57.33333 -48,-76 L 1316,196 c -18.6667,-18.66667 -44,-34.66667 -76,-48 -32,-13.33333 -61.3333,-20 -88,-20 z"
          style="fill:#1976d2"/>
    <path id="slider"
          style="fill:#eeeeee"
          d="M 384.00002,256 1152,256 l 0,415.99997 c 0,26.6667 -9.3333,49.3334 -28,68 -18.6667,18.6667 -41.3333,28 -68,28 l -575.99998,0 c -26.6667,0 -49.3333,-9.3333 -68,-28 -18.6667,-18.6666 -28,-41.3333 -28,-68 z"/>
    <path id="platter"
          style="fill:#616161"
          d="m 767.8022,255.3895 0,347.7071 c 0,9.8296 3.1667,18.3344 9.5,25.5175 6.3333,7.1832 13.8333,10.7754 22.5,10.7754 l 192,0 c 8.6667,0 16.1667,-3.5922 22.5,-10.7754 6.3333,-7.1831 9.5,-15.6879 9.5,-25.5175 l 0,-347.7071 z"/>
    <path id="label"
          style="fill:#ffffff"
          d="m 480.24608,1023.9999 832.00002,0 c 26.6667,0 49.3334,9.3333 68,28 18.6667,18.6667 28,41.3333 28,68 l 0,416 -1024.00002,0 0,-416 c 0,-26.6667 9.3333,-49.3333 28,-68 18.6667,-18.6667 41.3333,-28 68,-28 z"/>
    <g>
        <path id="a"
              style="fill:#000000"
              d="m 659.77967,1462.6141 q -2.63706,-5.0344 -4.31519,-12.4661 -1.4384,-7.6715 -2.1576,-15.8224 -6.71254,6.7125 -15.1032,12.7059 -8.15093,5.9933 -18.21973,10.5482 -9.82906,4.555 -21.09653,7.192 -11.26746,2.6371 -23.97333,2.6371 -20.61706,0 -37.39839,-5.9933 -16.54159,-5.9934 -28.28852,-16.0622 -11.5072,-10.3085 -17.98,-24.213 -6.23307,-14.1443 -6.23307,-30.4461 0,-21.3363 8.39067,-37.3984 8.6304,-16.0622 24.21306,-26.6104 15.58266,-10.788 37.39839,-16.0622 22.05546,-5.2741 49.14532,-5.2741 l 48.42613,0 0,-20.3773 q 0,-11.747 -4.3152,-21.0966 -4.3152,-9.3496 -12.2264,-15.8223 -7.9112,-6.7126 -19.4184,-10.3086 -11.26746,-3.596 -25.41172,-3.596 -13.18533,0 -23.7336,3.3563 -10.30853,3.3563 -17.50053,8.8701 -7.192,5.5139 -11.26746,13.1853 -3.83573,7.4318 -3.83573,15.5827 l -44.59039,0 q 0.23973,-14.1443 7.19199,-27.809 7.192,-13.6648 20.37733,-24.4528 13.42507,-11.0278 32.364,-17.7403 19.17866,-6.7125 43.39172,-6.7125 22.05546,0 40.99439,5.5138 18.93893,5.2742 32.60373,16.3019 13.90453,10.788 21.81572,27.0899 7.9112,16.3018 7.9112,38.1175 l 0,120.5859 q 0,12.9456 2.39734,27.5693 2.39733,14.384 6.71253,25.172 l 0,3.8357 -46.26853,0 z m -78.39278,-33.8024 q 12.9456,0 24.21306,-3.3562 11.26747,-3.3563 20.37733,-8.8702 9.3496,-5.5138 16.06213,-12.4661 6.71253,-7.192 10.54827,-14.8634 l 0,-52.5016 -41.23413,0 q -38.83679,0 -60.41278,11.5072 -21.576,11.5072 -21.576,36.1997 0,9.5893 3.11653,17.7402 3.35627,8.151 9.82907,14.1443 6.4728,5.7536 16.30186,9.1099 9.82907,3.3562 22.77466,3.3562 z"/>
        <path id="b"
              style="fill:#000000"
              d="m 1003.5572,1335.7952 q 0,27.8091 -6.71255,52.0222 -6.71253,23.9733 -19.65812,41.7135 -12.9456,17.7403 -32.12426,27.8091 -18.93893,10.0688 -43.63146,10.0688 -24.93226,0 -43.39172,-8.8701 -18.21973,-8.8702 -31.16533,-25.4118 l -2.1576,29.4872 -40.75466,0 0,-368.2303 44.35066,0 0,136.648 q 12.70586,-15.8224 30.68586,-24.2131 17.97999,-8.3906 41.95332,-8.3906 24.93226,0 44.11093,9.829 19.17866,9.8291 32.12426,27.3296 12.94559,17.5006 19.65812,41.9533 6.71255,24.2131 6.71255,53.2208 l 0,5.0344 z m -44.35067,-5.0344 q 0,-18.9389 -3.83573,-35.96 -3.596,-17.2608 -11.74693,-30.2064 -8.15094,-13.1853 -21.33627,-20.8567 -13.18533,-7.6715 -32.36399,-7.6715 -11.5072,0 -21.09653,3.1165 -9.58933,2.8768 -17.26079,8.3907 -7.43173,5.2741 -13.42507,12.7058 -5.7536,7.192 -9.82906,15.8224 l 0,113.3939 q 4.3152,8.6304 10.0688,16.0621 5.99333,7.192 13.66479,12.7059 7.67147,5.5138 17.2608,8.6304 9.58933,2.8768 21.09653,2.8768 18.21973,0 31.16532,-7.4318 13.18533,-7.6714 21.33627,-20.617 8.39066,-12.9456 12.22639,-29.9667 4.07547,-17.021 4.07547,-35.96 l 0,-5.0344 z"/>
        <path id="c"
              style="fill:#000000"
              d="m 1189.5903,1431.4488 q 11.9866,0 23.2541,-3.8357 11.5072,-3.8358 20.3773,-10.5483 8.8701,-6.9523 14.1443,-16.0621 5.5138,-9.3496 5.7536,-20.1376 l 41.9533,0 q -0.2397,17.2608 -9.1099,33.0832 -8.6304,15.5826 -23.2541,27.5693 -14.6237,11.7469 -33.5627,18.9389 -18.9389,6.9523 -39.5559,6.9523 -29.4872,0 -51.5427,-10.5483 -22.0555,-10.5482 -36.9189,-28.2885 -14.6238,-17.98 -22.0555,-41.2341 -7.4317,-23.4939 -7.4317,-49.3851 l 0,-10.0688 q 0,-25.6514 7.4317,-49.1453 7.4317,-23.4939 22.0555,-41.2341 14.8634,-17.98 36.9189,-28.5283 22.0555,-10.5482 51.5427,-10.5482 23.0143,0 42.193,7.4317 19.4184,7.192 33.3229,19.8979 14.1443,12.4661 22.0555,29.7269 7.9112,17.2608 7.9112,36.9189 l -41.9533,0 q -0.2398,-11.7469 -5.2742,-22.0555 -4.7946,-10.5482 -13.1853,-18.4594 -8.3907,-7.9112 -20.1376,-12.4661 -11.5072,-4.555 -24.9322,-4.555 -20.6171,0 -34.7614,8.3907 -13.9045,8.1509 -22.5349,21.576 -8.6304,13.1853 -12.4661,29.7269 -3.596,16.5416 -3.596,33.3229 l 0,10.0688 q 0,17.0211 3.596,33.8024 3.8357,16.5416 12.2264,29.9667 8.6304,13.1853 22.5349,21.576 14.1443,8.1509 35.0011,8.1509 z"/>
    </g>
</svg>