<?xml version="1.0" encoding="utf-8"?>
<svg xmlns="http://www.w3.org/2000/svg" width="1792" height="1792" viewBox="0 0 1792 1792">
    <path style="fill:#1e88e5"
          d="m 1664,896 c 0,139.3333 -34.3333,267.8333 -103,385.5 -68.6667,117.6667 -161.8333,210.8333 -279.5,279.5 -117.6667,68.6667 -246.1667,103 -385.5,103 -139.33333,0 -267.83333,-34.3333 -385.5,-103 C 392.83333,1492.3333 299.66667,1399.1667 231,1281.5 162.33333,1163.8333 128,1035.3333 128,896 128,756.66667 162.33333,628.16667 231,510.5 299.66667,392.83333 392.83333,299.66667 510.5,231 628.16667,162.33333 756.66667,128 896,128 c 139.3333,0 267.8333,34.33333 385.5,103 117.6667,68.66667 210.8333,161.83333 279.5,279.5 68.6667,117.66667 103,246.16667 103,385.5 z"/>
    <path style="fill:#ffffff"
          d="m 548.77565,1457.3583 q -14.12691,14.1269 -23.79267,9.6659 -9.66578,-4.4612 -9.66578,-23.7928 l 0,-1094.4629 q 0,-19.33155 9.66578,-23.79268 9.66576,-4.46112 23.79267,9.66578 l 527.89995,527.8999 q 6.6917,6.69173 9.6657,14.12689 l 0,-504.10722 q 0,-19.33154 14.1269,-33.45844 14.1269,-14.12691 33.4585,-14.12691 l 95.1707,0 q 19.3316,0 33.4585,14.12691 14.1269,14.1269 14.1269,33.45844 l 0,1046.87763 q 0,19.3316 -14.1269,33.4585 -14.1269,14.1269 -33.4585,14.1269 l -95.1707,0 q -19.3316,0 -33.4585,-14.1269 -14.1269,-14.1269 -14.1269,-33.4585 l 0,-504.10726 q -2.974,7.43516 -9.6657,14.12689 z"/>
</svg>