<?xml version="1.0" encoding="UTF-8" standalone="no"?>
<svg xmlns="http://www.w3.org/2000/svg" width="1109.5421" height="1109.5421" viewBox="0 0 887.63302 887.632" version="1.1">
  <circle r="443.81653" cy="443.81616" cx="443.81653" id="circle" style="fill:#ff6f00"/>
  <path id="o1" style="fill:#ffffff" d="m 276.28719,237.81636 c -113.99987,0 -205.99976,91.99993 -205.99976,205.99979 0,112.9999 91.99989,205.9998 205.99976,205.9998 114,0 205.9999,-92.9999 205.9999,-205.9998 0,-113.99986 -91.9999,-205.9998 -205.9999,-205.99979 z m 0,333.99969 c -70.99987,0 -128.99987,-56.9999 -128.99987,-127.9999 0,-70.9999 58,-128.99985 128.99987,-128.99985 71,0 128.9999,57.99995 128.9999,128.99985 0,71 -57.9999,127.9999 -128.9999,127.9999 z"/>
  <path id="o2" style="fill:#ffffff" d="m 611.34559,237.81636 c -113.9999,0 -205.9998,91.99993 -205.9998,205.99979 0,112.9999 91.9999,205.9998 205.9998,205.9998 113.9999,0 205.9999,-92.9999 205.9999,-205.9998 0,-113.99986 -92,-205.9998 -205.9999,-205.99979 z m 0,333.99969 c -70.9999,0 -128.9999,-56.9999 -128.9999,-127.9999 0,-70.9999 58,-128.99985 128.9999,-128.99985 71,0 128.9999,57.99995 128.9999,128.99985 0,71 -57.9999,127.9999 -128.9999,127.9999 z"/>
</svg>
