<?xml version="1.0" encoding="utf-8"?>
<svg xmlns="http://www.w3.org/2000/svg" width="1792" height="1792" viewBox="0 0 1792 1792">
    <path style="fill:#000000"
          d="M 667.67188 91.148438 C 619.39347 91.698167 576.48195 152.96042 619.24805 195.7832 C 852.0697 429.64712 1085.6877 662.71597 1319.0312 896.05859 C 1085.6877 1129.4012 852.0697 1362.4701 619.24805 1596.334 C 563.39029 1652.2658 653.69534 1739.6543 711.21484 1682.1348 C 948.13639 1444.7639 1186.3655 1208.4419 1422.1973 969.94727 C 1428.9828 963.81151 1434.8493 956.85735 1439.7129 949.35156 C 1451.373 933.40401 1456.5977 914.76003 1456.2676 896.05859 C 1456.5977 877.35715 1451.373 858.71318 1439.7129 842.76562 C 1434.8493 835.25983 1428.9828 828.30568 1422.1973 822.16992 C 1186.3655 583.67531 948.13639 347.35332 711.21484 109.98242 C 697.73371 96.501289 682.45098 90.980153 667.67188 91.148438 z "/>
</svg>