<?xml version="1.0" encoding="utf-8"?>
<svg xmlns="http://www.w3.org/2000/svg" width="1792" height="1792" viewBox="0 0 1792 1792">
    <path style="fill:#000000"
          d="m 1664,896 c 0,139.3333 -34.3333,267.8333 -103,385.5 -68.6667,117.6667 -161.8333,210.8333 -279.5,279.5 -117.6667,68.6667 -246.1667,103 -385.5,103 -139.33333,0 -267.83333,-34.3333 -385.5,-103 C 392.83333,1492.3333 299.66667,1399.1667 231,1281.5 162.33333,1163.8333 128,1035.3333 128,896 128,756.66667 162.33333,628.16667 231,510.5 299.66667,392.83333 392.83333,299.66667 510.5,231 628.16667,162.33333 756.66667,128 896,128 c 139.3333,0 267.8333,34.33333 385.5,103 117.6667,68.66667 210.8333,161.83333 279.5,279.5 68.6667,117.66667 103,246.16667 103,385.5 z"/>
    <path style="fill:#ffffff"
          d="m 1277,1122 c 0,-17.3333 -6.3333,-32.3333 -19,-45 L 1077,896 1258,715 c 12.6667,-12.66667 19,-27.66667 19,-45 0,-18 -6.3333,-33.33333 -19,-46 l -90,-90 c -12.6667,-12.66667 -28,-19 -46,-19 -17.3333,0 -32.3333,6.33333 -45,19 L 896,715 715,534 c -12.66667,-12.66667 -27.66667,-19 -45,-19 -18,0 -33.33333,6.33333 -46,19 l -90,90 c -12.66667,12.66667 -19,28 -19,46 0,17.33333 6.33333,32.33333 19,45 l 181,181 -181,181 c -12.66667,12.6667 -19,27.6667 -19,45 0,18 6.33333,33.3333 19,46 l 90,90 c 12.66667,12.6667 28,19 46,19 17.33333,0 32.33333,-6.3333 45,-19 l 181,-181 181,181 c 12.6667,12.6667 27.6667,19 45,19 18,0 33.3333,-6.3333 46,-19 l 90,-90 c 12.6667,-12.6667 19,-28 19,-46 z"/>
</svg>