<?xml version="1.0" encoding="utf-8"?>
<svg xmlns="http://www.w3.org/2000/svg" width="1792" height="1792" viewBox="0 0 1792 1792">
    <path style="fill:#000000"
          d="m 1522.1543,129.30336 16.9536,359.41707 -42.9492,0 q -12.4327,-94.94036 -33.9073,-135.62908 -35.0375,-65.55406 -93.8101,-96.0706 -57.6424,-31.64679 -152.5827,-31.64679 l -215.8763,0 0,1170.93104 q 0,141.2803 30.5165,176.3178 42.9492,47.4702 132.2384,47.4702 l 53.1214,0 0,41.819 -649.88937,0 0,-41.819 54.25164,0 q 97.20084,0 137.88956,-58.7726 24.86533,-36.1677 24.86533,-165.0154 l 0,-1170.93104 -184.2295,0 q -107.37302,0 -152.58272,15.8234 -58.7726,21.4746 -100.59156,82.50769 -41.81897,61.03308 -49.73067,165.01538 l -42.94921,0 18.08388,-359.41707 1251.17832,0 z"/>
</svg>