<?xml version="1.0" encoding="utf-8"?>
<svg xmlns="http://www.w3.org/2000/svg" width="1792" height="1792" viewBox="0 0 1792 1792">
    <path style="fill:#64b5f6"
          d="M 684.30664 211.38672 C 672.42766 211.38672 661.91891 215.95413 652.78125 225.0918 L 14.058594 863.81641 C 4.9209141 872.95409 0.3515625 883.46088 0.3515625 895.33984 C 0.3515625 907.21882 4.9209142 917.72756 14.058594 926.86523 L 652.78125 1565.5898 C 661.91891 1574.7275 672.42766 1579.2949 684.30664 1579.2949 C 696.1856 1579.2949 706.69435 1574.7275 715.83203 1565.5898 L 784.36523 1497.0566 C 793.5029 1487.9191 798.07031 1477.4102 798.07031 1465.5312 C 798.07031 1453.6524 793.5029 1443.1436 784.36523 1434.0059 L 245.69922 895.33984 L 784.36523 356.67578 C 793.5029 347.53811 798.07031 337.02937 798.07031 325.15039 C 798.07031 313.27142 793.5029 302.76268 784.36523 293.625 L 715.83203 225.0918 C 706.69435 215.95413 696.1856 211.38672 684.30664 211.38672 z M 1107.9082 211.38672 C 1096.0293 211.38672 1085.5225 215.95414 1076.3848 225.0918 L 1007.8516 293.625 C 998.71402 302.76268 994.14453 313.27142 994.14453 325.15039 C 994.14453 337.02937 998.71402 347.53811 1007.8516 356.67578 L 1546.5176 895.33984 L 1007.8516 1434.0059 C 998.71402 1443.1436 994.14453 1453.6523 994.14453 1465.5312 C 994.14453 1477.4102 998.71402 1487.9191 1007.8516 1497.0566 L 1076.3848 1565.5898 C 1085.5225 1574.7275 1096.0293 1579.2949 1107.9082 1579.2949 C 1119.7872 1579.2949 1130.2959 1574.7275 1139.4336 1565.5898 L 1778.1582 926.86523 C 1787.2959 917.72756 1791.8633 907.21882 1791.8633 895.33984 C 1791.8633 883.46088 1787.2959 872.95409 1778.1582 863.81641 L 1139.4336 225.0918 C 1130.2959 215.95414 1119.7872 211.38672 1107.9082 211.38672 z "/>
    <path style="fill:#000000"
          d="M 914.01562 609.75391 C 846.69543 609.75391 793.7585 624.0295 755.20508 652.58203 C 716.65166 681.13457 697.375 720.39439 697.375 770.36133 C 697.375 809.25185 709.09092 840.2669 732.51953 863.4043 C 755.94815 886.29555 800.72934 908.20094 866.86328 929.12305 L 931.36523 949.42969 C 953.90415 956.5678 971.1042 966.4135 982.9668 978.9668 C 994.82939 991.27392 1000.7617 1005.6745 1000.7617 1022.166 C 1000.7617 1044.0727 991.86421 1061.1792 974.07031 1073.4863 C 956.27643 1085.5473 931.21618 1091.5781 898.89062 1091.5781 C 866.86163 1091.5781 834.38939 1086.5313 801.4707 1076.4395 C 768.84858 1066.3477 735.03956 1050.9651 700.04492 1030.2891 L 700.04492 1142.8984 C 730.88766 1155.6978 762.76881 1165.2975 795.6875 1171.6973 C 828.90275 1178.3431 861.96998 1181.666 894.88867 1181.666 C 974.96115 1181.666 1034.719 1168.0054 1074.1621 1140.6836 C 1113.9018 1113.1156 1133.7715 1071.5169 1133.7715 1015.8887 C 1133.7715 975.02903 1121.167 941.18506 1095.959 914.35547 C 1070.751 887.52595 1031.4559 865.98759 978.07422 849.74219 L 921.57812 832.01953 C 882.43158 819.95854 856.6315 809.00586 844.17578 799.16016 C 832.01663 789.06832 825.93555 776.3917 825.93555 761.13086 C 825.93555 741.43946 834.38878 726.30288 851.29297 715.71875 C 868.19716 705.13462 892.51562 699.8418 924.24805 699.8418 C 952.71826 699.8418 981.4855 704.14869 1010.5488 712.76367 C 1039.6122 721.37867 1068.2307 733.93228 1096.4043 750.42383 L 1096.4043 644.08984 C 1066.4513 632.76728 1036.2005 624.27651 1005.6543 618.61523 C 975.10813 612.70782 944.56179 609.75391 914.01562 609.75391 z M 109.28711 619.72266 L 298.79297 891.09375 L 103.94922 1170.959 L 239.62891 1170.959 L 365.96484 988.56641 L 492.74609 1170.959 L 628.42383 1170.959 L 434.4707 891.09375 L 623.08594 619.72266 L 487.4082 619.72266 L 365.96484 795.09961 L 244.9668 619.72266 L 109.28711 619.72266 z M 1248.9863 619.72266 L 1248.9863 1170.959 L 1389.5586 1170.959 C 1498.1013 1170.959 1576.2453 1149.4206 1623.9922 1106.3457 C 1671.7391 1063.0246 1695.6133 992.50568 1695.6133 894.78711 C 1695.6133 797.31467 1671.7391 727.16474 1623.9922 684.33594 C 1576.2453 641.26099 1498.1013 619.72266 1389.5586 619.72266 L 1248.9863 619.72266 z M 1380.2168 717.93359 L 1415.8047 717.93359 C 1467.407 717.93359 1504.1793 731.34819 1526.125 758.17773 C 1548.0708 785.00727 1559.0449 830.5439 1559.0449 894.78711 C 1559.0449 959.5226 1548.0708 1005.4282 1526.125 1032.5039 C 1504.1793 1059.3334 1467.407 1072.748 1415.8047 1072.748 L 1380.2168 1072.748 L 1380.2168 717.93359 z "/>
</svg>