<?xml version="1.0" encoding="utf-8"?>
<svg width="1792" height="1792" viewBox="0 0 1792 1792" xmlns="http://www.w3.org/2000/svg">
    <path style="fill:#2196f3"
          d="m 1440,96.289062 c -9.3333,0 -17,3.000004 -23,8.999998 -6,6 -9,13.66667 -9,23 v 192 h -256 c -45.3333,0 -88,5.5 -128,16.5 -40,11 -75.5,25 -106.5,42 -31,17 -61,39.83333 -90,68.5 -29,28.66667 -53.66667,56.33333 -74,83 -8.86076,11.62068 -17.91178,24.50943 -27.15234,38.66211 -0.30342,-0.21044 -0.58959,-0.399 -0.89454,-0.61133 -2.01732,3.86655 -4.01837,7.65431 -6.0039,11.36719 -9.77563,15.4777 -19.75705,32.3274 -29.94922,50.58203 -2.11038,3.77979 -4.14474,7.47162 -6.17773,11.16211 -0.95714,1.46627 -1.92118,2.96672 -2.86915,4.38867 -14,21 -31,41.5 -51,61.5 -20,20 -43,35 -69,45 -17.14673,6.5949 -35.60697,11.00047 -55.36328,13.2461 -10.39894,-0.61233 -31.63672,-0.92969 -31.63672,-0.92969 l -228.84906,2.68359 -212.60406,0 c -9.333333,0 -17,3 -23,9 -6,6 -9,13.66667 -9,23 v 192 c 0,9.33336 3,16.99996 9,22.99996 6,6 13.666667,9 23,9 h 224 217.45312 c 10.69584,0 21.23778,-0.3173 31.63672,-0.9296 19.75631,2.2456 38.21655,6.6512 55.36328,13.246 26,10 49,25 69,45 17.743,17.743 33.11984,35.8802 46.14063,54.4102 4.44404,8.2203 9.05293,16.6317 13.90625,25.3242 22.33333,40 43.66667,73.3333 64,100 20.33333,26.6667 45,54.3333 74,83 29,28.6667 59,51.5 90,68.5 31,17 66.5,31 106.5,42 40,11 82.6667,16.5 128,16.5 h 256 v 192 c 0,9.3333 3,17 9,23 6,6 13.6667,9 23,9 8,0 16,-3.3333 24,-10 l 319,-319 c 6,-6 9,-13.6667 9,-23 0,-9.3333 -3,-17 -9,-23 L 1463,999.39062 c -6,-6 -13.6667,-9 -23,-9 -8.6667,0 -16.1667,3.16668 -22.5,9.5 -6.3333,6.33328 -9.5,13.83328 -9.5,22.49998 v 192 h -256 c -32,0 -61,-5 -87,-15 -26,-10 -49,-25 -69,-45 -20,-20 -37,-40.5 -51,-61.5 -1.53061,-2.2959 -3.07829,-4.6744 -4.63281,-7.0859 -1.40636,-3.6714 -2.87267,-7.3847 -4.41407,-11.1485 -22.33333,-40 -43.66666,-73.3332 -64,-99.99995 -19.77849,-25.93902 -43.66979,-52.82684 -71.64843,-80.6582 27.97864,-27.83136 51.86994,-54.71919 71.64843,-80.65821 8.59791,-11.27594 17.37653,-23.75802 26.33204,-37.41796 0.59631,-0.21895 1.1162,-0.41315 1.71484,-0.63282 2.01733,-3.86655 4.01837,-7.65431 6.00391,-11.36718 9.77563,-15.4777 19.75705,-32.32741 29.94921,-50.58204 -0.19533,-0.20339 -0.37752,-0.38545 -0.57226,-0.58789 3.25495,-5.22066 6.46567,-10.23268 9.61914,-14.96289 14,-21 31,-41.5 51,-61.5 20,-20 43,-35 69,-45 26,-10 55,-15 87,-15 h 256 v 192 c 0,8.66667 3.1667,16.16667 9.5,22.5 6.3333,6.33333 13.8333,9.5 22.5,9.5 9.3333,0 17,-3 23,-9 l 320,-320 c 6,-6 9,-13.66667 9,-23 0,-9.33333 -3,-17 -9,-23 l -319,-319 c -8,-6.66666 -16,-9.999998 -24,-9.999998 z"/>
</svg>
