<?xml version="1.0" encoding="utf-8"?>
<svg xmlns="http://www.w3.org/2000/svg" width="1792" height="1792" viewBox="0 0 1792 1792">
    <path style="fill:#1e88e5"
          d="m 1205.3507,897.46166 q 0,20.9696 -14.368,35.3376 L 938.18285,1185.5992 q -15.14469,14.368 -35.33761,14.368 -19.80459,0 -34.94929,-14.368 l -29.1244,-29.1244 q -14.75637,-14.7564 -14.75637,-35.3377 0,-20.5812 14.75637,-35.3376 l 113.77934,-113.77934 -273.38109,0 q -20.19292,0 -32.81349,-14.5622 -12.62058,-14.5622 -12.62058,-35.1435 l 0,-49.7056 q 0,-20.5813 12.62058,-35.1435 12.62057,-14.5622 32.81349,-14.5622 l 273.38109,0 -113.77934,-114.1676 q -14.75637,-13.9798 -14.75637,-34.9493 0,-20.9696 14.75637,-34.9493 l 29.1244,-29.1244 q 14.75637,-14.7564 34.94929,-14.7564 20.58125,0 35.33761,14.7564 l 252.79985,252.7998 q 14.368,13.5914 14.368,34.9493 z"/>
    <path style="fill:#000000"
          d="M 155.66211 541.10742 L 377.63672 873.35547 L 123.20117 1253.8164 L 227.26758 1253.8164 L 429.19336 950.6875 L 629.6875 1253.8164 L 733.27734 1253.8164 L 488.86523 883.37891 L 718 541.10742 L 614.41211 541.10742 L 436.35352 806.04492 L 259.25 541.10742 L 155.66211 541.10742 z M 1073.6406 541.10742 L 1325.6895 914.4082 L 1325.6895 1253.8164 L 1422.5957 1253.8164 L 1422.5957 914.4082 L 1674.6465 541.10742 L 1571.0566 541.10742 L 1374.8594 834.21094 L 1177.2285 541.10742 L 1073.6406 541.10742 z "/>
</svg>