<?xml version="1.0" encoding="utf-8"?>
<svg xmlns="http://www.w3.org/2000/svg" width="1792" height="1792" viewBox="0 0 1792 1792">
    <path style="fill:#2196f3"
          d="M 499.42773 349.50586 C 471.2255 349.65535 443.05802 352.21777 415.25195 357.10156 C 314.29291 374.83377 218.08985 423.16111 142.17383 497.58398 C 120.16923 517.22845 82.017578 562.56836 82.017578 562.56836 L 17.439453 647.62891 C 11.715074 655.16906 9.4362619 663.20332 10.603516 671.73047 C 11.770779 680.25761 16.123954 687.38299 23.664062 693.10742 L 178.77539 810.86523 C 186.3155 816.58967 194.34977 818.87035 202.87695 817.70312 C 211.40415 816.53588 218.95139 812.4832 224.25391 804.64062 C 252.73415 758.03917 266.71282 735.64156 320.53711 677.81836 C 409.46174 596.02665 519.53665 566.34857 644.56055 635.73047 C 814.48739 738.37221 971.75585 900.37132 1180.918 905.55859 C 1209.7108 905.57829 1251.7809 901.38952 1283.5625 895.00391 C 1384.5214 877.27168 1480.7245 828.94644 1556.6406 754.52344 C 1578.6452 734.87902 1616.7969 689.53906 1616.7969 689.53906 L 1681.375 604.47852 C 1687.0993 596.93839 1689.3762 588.90409 1688.209 580.37695 C 1687.0417 571.8498 1682.6905 564.72444 1675.1504 559 L 1520.0391 441.24219 C 1512.499 435.51777 1504.4646 433.23706 1495.9375 434.4043 C 1487.4102 435.57155 1479.8631 439.62422 1474.5605 447.4668 C 1446.0803 494.06826 1432.1016 516.46587 1378.2773 574.28906 C 1348.8635 601.34351 1316.4063 622.69518 1281.6191 636.6543 C 1067.6463 709.61943 913.77105 505.66893 745.44531 415.86719 C 668.96293 370.33416 584.03444 349.05738 499.42773 349.50586 z M 594.88477 897.21094 C 566.68253 897.36043 538.51505 899.92285 510.70898 904.80664 C 409.74993 922.53885 313.54689 970.86407 237.63086 1045.2871 C 215.62627 1064.9315 177.47266 1110.2734 177.47266 1110.2734 L 112.89648 1195.332 C 107.1721 1202.8722 104.89329 1210.9084 106.06055 1219.4355 C 107.22781 1227.9627 111.58098 1235.086 119.12109 1240.8105 L 274.23242 1358.5684 C 281.77254 1364.2928 289.80483 1366.5734 298.33203 1365.4062 C 306.85921 1364.239 314.4084 1360.1864 319.71094 1352.3438 C 348.19118 1305.7423 362.16986 1283.3466 415.99414 1225.5234 C 504.91877 1143.7317 614.99368 1114.0536 740.01758 1183.4355 C 909.94442 1286.0772 1067.2128 1448.0744 1276.375 1453.2617 C 1305.1678 1453.2817 1347.2362 1449.0945 1379.0176 1442.709 C 1479.9765 1424.9767 1576.1817 1376.6515 1652.0977 1302.2285 C 1674.1023 1282.584 1712.2539 1237.2441 1712.2539 1237.2441 L 1776.832 1152.1836 C 1782.5562 1144.6434 1784.8333 1136.6091 1783.666 1128.082 C 1782.4987 1119.5548 1778.1456 1112.4295 1770.6055 1106.7051 L 1615.4941 988.94727 C 1607.9538 983.22287 1599.9217 980.94208 1591.3945 982.10938 C 1582.8673 983.27657 1575.3182 987.32927 1570.0156 995.17188 C 1541.5354 1041.7734 1527.5567 1064.169 1473.7324 1121.9922 C 1444.3187 1149.0467 1411.8635 1170.4003 1377.0762 1184.3594 C 1163.1036 1257.3246 1009.2262 1053.3739 840.90039 963.57227 C 764.41799 918.0392 679.49147 896.76246 594.88477 897.21094 z "/>
</svg>