<!--
  - Copyright 2016-2025 Crown Copyright
  -
  - Licensed under the Apache License, Version 2.0 (the "License");
  - you may not use this file except in compliance with the License.
  - You may obtain a copy of the License at
  -
  -     http://www.apache.org/licenses/LICENSE-2.0
  -
  - Unless required by applicable law or agreed to in writing, software
  - distributed under the License is distributed on an "AS IS" BASIS,
  - WITHOUT WARRANTIES OR CONDITIONS OF ANY KIND, either express or implied.
  - See the License for the specific language governing permissions and
  - limitations under the License.
  -->

<svg xmlns="http://www.w3.org/2000/svg" width="1792" height="1792" viewBox="0 0 1792 1792"><path style="fill:var(--icon-colour__orange)" d="M1333 566q18 20 7 44l-540 1157q-13 25-42 25-4 0-14-2-17-5-25.5-19t-4.5-30l197-808-406 101q-4 1-12 1-18 0-31-11-18-15-13-39l201-825q4-14 16-23t28-9h328q19 0 32 12.5t13 29.5q0 8-5 18l-171 463 396-98q8-2 12-2 19 0 34 15z"/></svg>
