<svg xmlns="http://www.w3.org/2000/svg" width="1792" height="1792" viewBox="0 0 1792 1792"><!--! Font Awesome Free 6.4.2 by @fontawesome - https://fontawesome.com License - https://fontawesome.com/license (Commercial License) Copyright 2023 Fonticons, Inc. --><path style="fill:var(--icon-colour__blue)" d="m 219.01773,122.13325 c -106.70898,0 -193.466693,86.75772 -193.466693,193.46669 V 1476.4001 c 0,106.709 86.757713,193.4667 193.466693,193.4667 h 773.86674 c 106.70893,0 193.46663,-86.7577 193.46663,-193.4667 v -58.3423 c -8.1619,3.3252 -16.3237,6.0458 -24.7879,8.1619 l -181.67727,45.3437 c -9.06875,2.1161 -18.1375,3.6275 -27.20625,4.2321 -2.72063,0.3023 -5.44125,0.6045 -8.16188,0.6045 H 751.05112 c -18.4398,0 -35.06584,-10.2779 -43.22772,-26.6016 l -26.60167,-53.5056 c -5.13896,-10.2779 -15.41687,-16.6261 -26.60167,-16.6261 -11.18479,0 -21.765,6.3482 -26.60167,16.6261 l -26.60166,53.5056 c -8.76646,17.8352 -27.81084,28.4155 -47.4598,26.6016 -19.64896,-1.8136 -36.5773,-15.4168 -42.01855,-34.159 l -51.08729,-168.3764 -29.62459,99.1516 C 412.78671,1434.3815 356.25816,1476.4 292.17232,1476.4 H 267.3844 c -26.60167,0 -48.36667,-21.765 -48.36667,-48.3667 0,-26.6016 21.765,-48.3666 48.36667,-48.3666 h 24.78792 c 21.46271,0 40.20479,-13.9055 46.25063,-34.4613 l 45.04146,-149.6344 c 10.27792,-34.1589 41.71626,-57.7377 77.38668,-57.7377 35.67042,0 67.10875,23.5788 77.38667,57.7377 l 35.06584,116.6846 c 22.36958,-18.7421 50.785,-29.3223 81.01417,-29.3223 48.06438,0 91.89668,27.2063 113.35939,70.1317 l 13.30083,26.6017 h 26.90397 c -9.37105,-26.6017 -11.1848,-55.6217 -4.23209,-84.0371 l 45.34376,-181.6773 c 8.46416,-34.159 25.99708,-64.9927 50.785,-89.7806 L 1186.3511,737.59915 V 605.79997 H 799.41779 c -53.50563,0 -96.73335,-43.22772 -96.73335,-96.73335 V 122.13325 Z m 580.40006,0 v 386.93337 h 386.93331 z m 888.13301,422.3015 c -47.1575,-47.1575 -123.6373,-47.1575 -171.0971,0 l -88.8738,88.87376 214.6271,214.62711 88.8738,-88.87376 c 47.1575,-47.15751 47.1575,-123.63731 0,-171.0971 z M 968.39885,1092.4896 c -12.39396,12.394 -21.16042,27.8108 -25.39251,45.0415 l -45.34375,181.6772 c -4.23208,16.6261 0.60458,33.8568 12.69625,45.9485 12.09167,12.0915 29.3223,16.9283 45.94834,12.6962 l 181.67722,-45.3437 c 16.9284,-4.2321 32.6476,-12.9986 45.0415,-25.3925 l 390.5609,-390.86326 -214.6271,-214.6271 z" /></svg> 