<svg width="1792" height="1792" viewBox="0 0 1792 1792" version="1.1" id="svg1" sodipodi:docname="Folder.svg" inkscape:export-filename="GitRepoFolder.svg" inkscape:export-xdpi="96" inkscape:export-ydpi="96" xmlns:inkscape="http://www.inkscape.org/namespaces/inkscape" xmlns:sodipodi="http://sodipodi.sourceforge.net/DTD/sodipodi-0.dtd" xmlns="http://www.w3.org/2000/svg" ><defs id="defs1" /><sodipodi:namedview id="namedview1" pagecolor="#fff" bordercolor="var(--icon-colour__black)" borderopacity="0.25" inkscape:showpageshadow="2" inkscape:pageopacity="0.0" inkscape:pagecheckerboard="0" inkscape:deskcolor="#d1d1d1"><inkscape:page x="0" y="0" width="1792" height="1792" id="page2" margin="0" bleed="0" /></sodipodi:namedview><path style="fill:var(--icon-colour__blue)" d="m 1728,608 v 704 q 0,92 -66,158 -66,66 -158,66 H 288 q -92,0 -158,-66 -66,-66 -66,-158 V 352 q 0,-92 66,-158 66,-66 158,-66 h 320 q 92,0 158,66 66,66 66,158 v 32 h 672 q 92,0 158,66 66,66 66,158 z" id="path1" /><path id="path2-2" style="fill:#fff;fill-opacity:1;fill-rule:nonzero;stroke:none;stroke-width:15.4599" d="m 894.13024,264.02329 a 91.49185,91.49185 0 0 1 10.6809,0.64162 c -3.55,-0.39759 -7.1129,-0.65886 -10.6809,-0.64162 z m -0.1104,0.006 c -3.5379,0.0214 -7.0657,0.31389 -10.5825,0.7431 a 91.49185,91.49185 0 0 1 10.5825,-0.7431 z m 13.6981,1.04153 a 91.49185,91.49185 0 0 1 8.35,1.60557 c -2.7642,-0.66579 -5.5456,-1.2004 -8.35,-1.60557 z m -27.1663,0.13125 c -2.8177,0.4351 -5.6112,1.00227 -8.386,1.70106 a 91.49185,91.49185 0 0 1 8.386,-1.70106 z m 37.8949,2.04128 a 91.49185,91.49185 0 0 1 10.4749,3.47075 c -3.4299,-1.3873 -6.9318,-2.51634 -10.4749,-3.47075 z m -48.5967,0.23277 c -3.5421,0.99113 -7.041,2.16451 -10.4659,3.59014 a 91.49185,91.49185 0 0 1 10.4659,-3.59014 z m 59.2985,3.34244 a 91.49185,91.49185 0 0 1 9.5348,4.61377 c -3.1131,-1.71601 -6.2822,-3.28778 -9.5348,-4.61377 z m -70.0062,0.3611 c -3.2249,1.3534 -6.3647,2.94604 -9.4483,4.68539 a 91.49185,91.49185 0 0 1 9.4483,-4.68539 z m 81.7942,5.55681 a 91.49185,91.49185 0 0 1 7.1833,4.71225 c -2.3384,-1.69411 -4.7299,-3.26665 -7.1833,-4.71225 z m -93.5316,0.48644 c -2.4192,1.4596 -4.7744,3.04449 -7.0788,4.74805 a 91.49185,91.49185 0 0 1 7.0788,-4.74805 z m 102.9352,5.82837 a 91.49185,91.49185 0 0 1 8.2993,7.14148 c -2.6435,-2.59362 -5.4367,-4.9334 -8.2993,-7.14148 z m -112.2612,0.57299 c -2.836,2.23397 -5.6035,4.59906 -8.2188,7.21609 a 91.49185,91.49185 0 0 1 8.2188,-7.21609 z m -8.2188,7.21609 c -81.73302,81.76015 -163.47828,163.5074 -245.23042,245.24843 l 53.18946,-53.1746 161.06076,161.09356 a 108.97703,108.97703 0 0 0 59.0567,142.75491 v 390.00904 a 109.14709,109.14709 0 0 0 -35.6208,23.7938 108.83789,108.83789 0 0 0 0,153.9491 108.83789,108.83789 0 0 0 153.9341,0 108.83789,108.83789 0 0 0 -28.7538,-174.5438 V 793.51916 l 146.87036,146.8226 a 108.89973,108.89973 0 0 0 23.6209,118.42384 108.99249,108.99249 0 0 0 154.0594,0 108.83789,108.83789 0 0 0 0,-153.93424 108.65237,108.65237 0 0 0 -112.5177,-25.8502 L 1002.0373,721.53736 A 108.74513,108.74513 0 0 0 976.23494,609.03751 108.68329,108.68329 0 0 0 864.46014,583.00229 L 701.11047,419.65257 Z m -617.3751,617.3007 c -2.63209,2.6371 -5.00824,5.4242 -7.25191,8.2844 a 91.600069,91.600069 0 0 1 7.25191,-8.2844 z m 1367.75246,3.608 a 91.600069,91.600069 0 0 1 6.8461,7.9443 c -2.1242,-2.7359 -4.3688,-5.4092 -6.8461,-7.9443 z m -1376.65779,6.9266 c -1.70827,2.3206 -3.29507,4.6964 -4.75688,7.1325 a 91.600069,91.600069 0 0 1 4.75688,-7.1325 z m 1385.10349,3.2141 a 91.600069,91.600069 0 0 1 4.5361,6.8282 c -1.3981,-2.3304 -2.9125,-4.6032 -4.5361,-6.8282 z m -1391.22133,6.2223 c -1.75381,3.1276 -3.36001,6.3113 -4.71823,9.5827 a 91.600069,91.600069 0 0 1 4.71823,-9.5827 z m 1397.03773,2.7725 a 91.600069,91.600069 0 0 1 4.5839,9.2215 c -1.328,-3.1465 -2.8883,-6.2096 -4.5839,-9.2215 z m -1401.83648,6.9833 c -1.42377,3.45 -2.59083,6.9733 -3.57515,10.5406 a 91.600069,91.600069 0 0 1 3.57515,-10.5406 z m 1406.45918,2.3188 a 91.600069,91.600069 0 0 1 3.5215,10.0691 c -0.9843,-3.4066 -2.1341,-6.7731 -3.5215,-10.0691 z m -1410.61328,10.6003 c -0.68682,2.777 -1.24178,5.5731 -1.66533,8.392 a 91.600069,91.600069 0 0 1 1.66533,-8.392 z m 1414.70188,1.6683 a 91.600069,91.600069 0 0 1 1.7339,8.0547 c -0.4549,-2.7068 -1.0352,-5.3898 -1.7339,-8.0547 z m -1416.78802,9.6422 c -0.42019,3.5732 -0.70424,7.1566 -0.70424,10.7496 a 91.600069,91.600069 0 0 1 0.70424,-10.7496 z m -0.70424,10.7496 c 0,3.5943 0.28374,7.1812 0.70424,10.7554 a 91.600069,91.600069 0 0 1 -0.70424,-10.7554 z m 1419.67366,-9.5798 a 91.600069,91.600069 0 0 1 0.8895,10.2633 c -0.082,-3.4335 -0.4227,-6.8547 -0.8895,-10.2633 z m 0.8895,14.7129 a 91.600069,91.600069 0 0 1 -0.8924,10.266 c 0.4671,-3.4095 0.8094,-6.8314 0.8924,-10.266 z m -1419.43811,8.5351 c 0.42309,2.8163 0.97927,5.6084 1.66533,8.3829 a 91.600069,91.600069 0 0 1 -1.66533,-8.3829 z m 1418.10711,4.4496 a 91.600069,91.600069 0 0 1 -1.7399,8.0904 c 0.7019,-2.6767 1.2839,-5.3715 1.7399,-8.0904 z m -1415.85993,6.3298 c 0.98386,3.56414 2.14955,7.08464 3.57225,10.53174 a 91.600069,91.600069 0 0 1 -3.57225,-10.53174 z m 1413.55603,3.94234 a 91.600069,91.600069 0 0 1 -3.5186,10.0661 c 1.3863,-3.2957 2.535,-6.6601 3.5186,-10.0661 z m -1409.90326,6.7654 c 1.35654,3.2669 2.96121,6.4471 4.71227,9.5707 a 91.600069,91.600069 0 0 1 -4.71227,-9.5707 z m 1406.35486,3.3663 a 91.600069,91.600069 0 0 1 -4.5899,9.2395 c 1.6977,-3.0173 3.2608,-6.0872 4.5899,-9.2395 z m -1400.27277,8.5262 c 1.46273,2.437 3.05366,4.8113 4.763,7.1326 a 91.600069,91.600069 0 0 1 -4.763,-7.1326 z m 1394.41757,2.8559 a 91.600069,91.600069 0 0 1 -4.5601,6.873 c 1.6337,-2.2385 3.1547,-4.5277 4.5601,-6.873 z m -1388.01017,6.5179 c 2.24383,2.8604 4.61982,5.6501 7.25191,8.2874 a 91.600069,91.600069 0 0 1 -7.25191,-8.2874 z m 1381.89517,2.4889 a 91.600069,91.600069 0 0 1 -6.8549,7.9652 c 2.4819,-2.5426 4.7278,-5.2211 6.8549,-7.9652 z m -754.32266,626.1193 c 2.5477,2.5391 5.2388,4.8387 7.9951,7.0161 a 91.600069,91.600069 0 0 1 -7.9951,-7.0161 z m 128.3646,0.94 a 91.600069,91.600069 0 0 1 -7.9354,6.7803 c 2.7325,-2.1037 5.4012,-4.3261 7.9354,-6.7803 z m -118.1851,7.6965 c 2.2336,1.6589 4.5188,3.2023 6.861,4.6318 a 91.600069,91.600069 0 0 1 -6.861,-4.6318 z m 108.1339,0.6149 a 91.600069,91.600069 0 0 1 -6.8251,4.5032 c 2.3283,-1.3883 4.6012,-2.8903 6.8251,-4.5032 z m -99.0435,5.3567 c 2.9937,1.7115 6.0413,3.2855 9.1707,4.6318 a 91.600069,91.600069 0 0 1 -9.1707,-4.6318 z m 90.0607,0.4149 a 91.600069,91.600069 0 0 1 -9.138,4.5183 c 3.1166,-1.3103 6.1528,-2.8478 9.138,-4.5183 z m -80.6721,4.3212 c 3.3145,1.4155 6.7004,2.5925 10.1288,3.5992 a 91.600069,91.600069 0 0 1 -10.1288,-3.5992 z m 71.4356,0.2418 a 91.600069,91.600069 0 0 1 -10.0005,3.4857 c 3.3837,-0.9748 6.7256,-2.1133 10.0005,-3.4857 z m -59.0387,3.9513 c 2.6959,0.7169 5.4107,1.3087 8.1502,1.7756 a 91.600069,91.600069 0 0 1 -8.1502,-1.7756 z m 46.9044,0.087 a 91.600069,91.600069 0 0 1 -8.0785,1.7339 c 2.7146,-0.4553 5.4061,-1.0332 8.0785,-1.7339 z m -35.9938,2.1457 c 3.45,0.4806 6.9122,0.8321 10.3884,0.9192 a 91.600069,91.600069 0 0 1 -10.3884,-0.9192 z m 25.2592,0.021 a 91.600069,91.600069 0 0 1 -10.2093,0.8983 c 3.415,-0.087 6.8194,-0.4312 10.2093,-0.8983 z" /></svg> 