<!-- Created with Inkscape (http://www.inkscape.org/) --><svg width="114.55069mm" height="96.927391mm" viewBox="0 0 114.55069 96.927391" version="1.1" id="svg4037" xmlns="http://www.w3.org/2000/svg" xmlns:svg="http://www.w3.org/2000/svg"><defs id="defs4034"><clipPath clipPathUnits="userSpaceOnUse" id="clipPath4012"><g id="g4016"><path d="M 0,0.113 H 91.887 V 92 H 0 Z m 0,0" id="path4014" /></g></clipPath></defs><g id="layer1" transform="translate(-48.951414,-132.1274)"><path d="m 48.976395,154.80845 -0.02498,-6.06159 c 2e-6,-4.22221 1.514493,-9.04701 4.54348,-12.07599 3.02898,-3.02898 6.654577,-4.54347 10.87679,-4.54347 h 22.02896 c 4.222213,0 7.84781,1.51449 10.87679,4.54347 3.028976,3.02898 4.543466,6.65458 4.543466,10.8768 v 2.20289 c 25.00798,-0.19431 28.83059,-0.0192 32.25597,-0.018 5.08992,0.002 9.98913,0.007 14.00496,0.0178 3.92919,0.0103 7.84782,1.51449 10.8768,4.54347 3.02898,3.02898 4.54347,6.65458 4.54347,10.8768 l -1.3e-4,2e-4 v 48.46369 c 0,4.22222 -1.51449,7.84782 -4.54347,10.8768 -3.02898,3.02898 -6.65458,4.54347 -10.8768,4.54347 H 64.371684 c -4.222213,0 -7.84781,-1.51449 -10.87679,-4.54347 -3.028987,-3.02898 -4.293072,-6.66201 -4.54348,-10.8768 l -0.03748,-52.08527 m 0,0 c 6.123196,1.83699 46.099126,11.48536 50.021088,12.58631 -0.01452,2.59099 3.272544,8.35252 9.557534,6.91973 2.54617,4.41529 14.89102,25.20922 15.17683,25.624 -5.21265,5.98401 1.97878,17.16325 10.95897,12.04133 6.69298,-3.8174 4.36221,-15.44442 -5.09697,-15.23871 -2.74053,-4.70357 -10.3641,-17.57145 -14.94577,-25.33703 1.19369,0.24534 11.9913,2.9922 15.31803,3.86218 1.88704,9.08896 14.51331,9.13789 16.30912,0.3922 1.79578,-8.74568 -9.26226,-13.46555 -14.58194,-6.95858 -1.51494,-0.37026 -13.28203,-3.27574 -16.47595,-4.01111 -0.0994,-1.99784 -2.62853,-5.95248 -5.67555,-6.5872 -3.047,-0.63472 -6.05857,-0.43956 -9.06284,2.80496 -1.613519,-0.46918 -40.429027,-10.13343 -51.440095,-12.83888" id="path4026" style="fill:var(--icon-colour__blue);fill-opacity:1;stroke:none;stroke-width:0.0688404;stroke-opacity:1" /></g></svg> 