<svg width="80px" height="80px" viewBox="0 0 80 80" version="1.1" id="svg2" sodipodi:docname="S3.svg" inkscape:version="1.3.2 (091e20ef0f, 2023-11-25, custom)" xmlns:inkscape="http://www.inkscape.org/namespaces/inkscape" xmlns:sodipodi="http://sodipodi.sourceforge.net/DTD/sodipodi-0.dtd" xmlns="http://www.w3.org/2000/svg" xmlns:svg="http://www.w3.org/2000/svg" xmlns:rdf="http://www.w3.org/1999/02/22-rdf-syntax-ns#" xmlns:cc="http://creativecommons.org/ns#" xmlns:dc="http://purl.org/dc/elements/1.1/"><sodipodi:namedview id="namedview2" pagecolor="#fefefe" bordercolor="var(--icon-colour__black)" borderopacity="0.25" inkscape:showpageshadow="2" inkscape:pageopacity="0.0" inkscape:pagecheckerboard="0" inkscape:deskcolor="#d1d1d1" inkscape:zoom="7.9060446" inkscape:cx="44.333167" inkscape:cy="20.870107" inkscape:window-width="2560" inkscape:window-height="1412" inkscape:window-x="2560" inkscape:window-y="0" inkscape:window-maximized="1" inkscape:current-layer="Icon-Service/64/Amazon-Simple-Storage-Service_64" /><title id="title1">Icon-Architecture/64/Arch_Amazon-Simple-Storage-Service_64</title><defs id="defs2"><linearGradient x1="0%" y1="100%" x2="100%" y2="0%" id="linearGradient-1"><stop stop-color="#1B660F" offset="0%" id="stop1" /><stop stop-color="#6CAE3E" offset="100%" id="stop2" /></linearGradient></defs><g id="Icon-Architecture/64/Arch_Amazon-Simple-Storage-Service_64" stroke="none" stroke-width="1" fill="none" fill-rule="evenodd"><g id="Rectangle" fill="url(#linearGradient-1)"><rect x="0" y="0" width="80" height="80" id="rect2" /></g><g id="Icon-Service/64/Amazon-Simple-Storage-Service_64" transform="translate(8.000000, 8.000000)" fill="#fefefe"><path d="M52.8359,34.8926 L53.2199,32.1886 C56.7609,34.3096 56.8069,35.1856 56.8059132,35.2096 C56.7999,35.2146 56.1959,35.7186 52.8359,34.8926 L52.8359,34.8926 Z M50.8929,34.3526 C44.7729,32.5006 36.2499,28.5906 32.8009,26.9606 C32.8009,26.9466 32.8049,26.9336 32.8049,26.9196 C32.8049,25.5946 31.7269,24.5166 30.4009,24.5166 C29.0769,24.5166 27.9989,25.5946 27.9989,26.9196 C27.9989,28.2446 29.0769,29.3226 30.4009,29.3226 C30.9829,29.3226 31.5109,29.1056 31.9279,28.7606 C35.9859,30.6816 44.4429,34.5346 50.6079,36.3546 L48.1699,53.5606 C48.1629,53.6076 48.1599,53.6546 48.1599,53.7016 C48.1599,55.2166 41.4529,57.9996 30.4939,57.9996 C19.4189,57.9996 12.6409,55.2166 12.6409,53.7016 C12.6409,53.6556 12.6379,53.6106 12.6319,53.5656 L7.5379,16.3586 C11.9469,19.3936 21.4299,20.9996 30.4999,20.9996 C39.5559,20.9996 49.0229,19.3996 53.4409,16.3736 L50.8929,34.3526 Z M6.9999,12.4776 C7.0719,11.1616 14.6339,5.9996 30.4999,5.9996 C46.3639,5.9996 53.9269,11.1606 53.9999,12.4776 L53.9999,12.9266 C53.1299,15.8776 43.3299,18.9996 30.4999,18.9996 C17.6479,18.9996 7.8429,15.8676 6.9999,12.9126 L6.9999,12.4776 Z M55.9999,12.4996 C55.9999,9.0346 46.0659,3.9996 30.4999,3.9996 C14.9339,3.9996 4.9999,9.0346 4.9999,12.4996 L5.0939,13.2536 L10.6419,53.7776 C10.7749,58.3096 22.8609,59.9996 30.4939,59.9996 C39.9659,59.9996 50.0289,57.8216 50.1589,53.7806 L52.5549,36.8836 C53.8879,37.2026 54.9849,37.3656 55.8659,37.3656 C57.0489,37.3656 57.8489,37.0766 58.3339,36.4986 C58.7319,36.0246 58.8839,35.4506 58.7699,34.8396 C58.5109,33.4556 56.8679,31.9636 53.5219,30.0546 L55.8979,13.2926 L55.9999,12.4996 Z" id="Amazon-Simple-Storage-Service-Icon_64_Squid" /><path id="path3" style="fill:none;stroke:#fefefe;stroke-width:2.5;stroke-linejoin:round;stroke-dasharray:none;stroke-linecap:round;stroke-opacity:1" d="M 30.570718,5.1563256 C 17.24082,5.1563761 6.2453494,8.5565961 6.2431254,12.512277 8.0568194,26.238594 10.074059,39.958792 11.873047,53.6875 c 0,2.953556 8.318837,5.291016 18.689453,5.291016 10.370615,0 18.466524,-2.410709 18.779297,-5.347657 0.08961,-0.841422 5.399302,-41.098044 5.402343,-41.121093 l 0.002,-0.0078 v -0.0039 c 0,-3.9541862 -10.850662,-7.3416908 -24.175422,-7.3417404 z" sodipodi:nodetypes="cccssccsc" /><path id="path9" style="fill:none;stroke:#fefefe;stroke-width:2.49999999;stroke-linejoin:round;stroke-dasharray:none;stroke-linecap:round;stroke-opacity:1" d="M 54.74569,12.45398 A 24.241349,7.2845618 0 0 1 30.504342,19.738541 24.241349,7.2845618 0 0 1 6.2629922,12.45398 24.241349,7.2845618 0 0 1 30.504342,5.1694182 24.241349,7.2845618 0 0 1 54.74569,12.45398 Z" /><path style="fill:none;stroke:#fefefe;stroke-width:2.5;stroke-linejoin:round;stroke-dasharray:none;stroke-opacity:1;stroke-linecap:round" d="m 30.288158,26.897561 c 0,0 24.573672,11.459397 26.964842,9.148214 2.336247,-2.258096 -4.892396,-5.448471 -4.892396,-5.448471" id="path10" sodipodi:nodetypes="csc" /><circle style="fill:var(--icon-colour__black);stroke:#fefefe;stroke-width:2.5;stroke-linejoin:round;stroke-dasharray:none;stroke-opacity:1;fill-opacity:1;stroke-linecap:round" id="path11" cx="30.288158" cy="26.89756" r="1.2700596" /></g></g><metadata id="metadata2"><rdf:RDF><cc:Work rdf:about=""><dc:title>Icon-Architecture/64/Arch_Amazon-Simple-Storage-Service_64</dc:title></cc:Work></rdf:RDF></metadata></svg> 