<?xml version="1.0" encoding="UTF-8" standalone="no"?>
<svg xmlns="http://www.w3.org/2000/svg"
     width="67.015625pt"
     height="67.03125pt"
     viewBox="0 0 67.015623 67.03125">
    <ellipse style="fill:#ffffff;fill-opacity:1" cx="33.5" cy="33.5" rx="33.5" ry="33.5"/>
    <path style="fill:#d93321;fill-opacity:1;fill-rule:nonzero;stroke:none;stroke-width:1"
          d="M 33.437988,0 C 28.867678,0 24.511234,0.91748048 20.538574,2.5737305 L 16.108887,39.886231 38.238281,0.34716797 C 36.667971,0.12060597 35.070798,0 33.437988,0 Z M 40.261231,0.69580078 21.023437,42.391113 56.707031,9.3823245 C 52.234381,5.0776373 46.57373,2.0004888 40.261231,0.69580078 Z M 17.629394,3.9536133 C 12.891115,6.4887693 8.835447,10.121094 5.7963867,14.519531 l 4.8676763,24.503906 z m 40.291993,6.6591797 -33,35.676269 41.472656,-19.132324 C 65.167483,20.824707 62.163567,15.132324 57.921387,10.612793 Z M 2.831543,19.773925 C 1.319823,23.117676 0.33984,26.750489 0,30.566894 l 5.2148437,9.319337 z m 63.895019,9.436524 -39.300293,21.993164 36.870118,-4.375488 c 1.75,-4.066406 2.71875,-8.542481 2.71875,-13.249512 0,-1.480469 -0.104975,-2.938477 -0.288575,-4.368164 z m -3.878906,20.578125 -34.558594,6.859863 23.948731,4.757813 c 4.39063,-2.972656 8.035644,-6.957519 10.609863,-11.617676 z m -35.421387,12.309082 8.819825,4.933594 c 3.718749,-0.308594 7.2622,-1.214844 10.53955,-2.636719 z"/>
</svg>
