<?xml version="1.0" encoding="UTF-8" standalone="no"?><svg xmlns="http://www.w3.org/2000/svg" xmlns:xlink="http://www.w3.org/1999/xlink" contentScriptType="application/ecmascript" contentStyleType="text/css" height="725px" preserveAspectRatio="none" style="width:416px;height:725px;" version="1.1" viewBox="0 0 416 725" width="416px" zoomAndPan="magnify"><defs><filter height="300%" id="ff14vv86i8m3u" width="300%" x="-1" y="-1"><feGaussianBlur result="blurOut" stdDeviation="2.0"/><feColorMatrix in="blurOut" result="blurOut2" type="matrix" values="0 0 0 0 0 0 0 0 0 0 0 0 0 0 0 0 0 0 .4 0"/><feOffset dx="4.0" dy="4.0" in="blurOut2" result="blurOut3"/><feBlend in="SourceGraphic" in2="blurOut3" mode="normal"/></filter></defs><g><!--MD5=[fb94403e3d3521d383fd6507b67b3642]
class source--><rect codeLine="5" fill="#FEFECE" filter="url(#ff14vv86i8m3u)" height="150.4375" id="source" style="stroke:#A80036;stroke-width:1.5;" width="172" x="230.5" y="179"/><ellipse cx="293.75" cy="195" fill="#ADD1B2" rx="11" ry="11" style="stroke:#A80036;stroke-width:1.0;"/><path d="M296.7656,201 L289.7813,201 L289.7813,188.8594 L296.7656,188.8594 L296.7656,190.9688 L292.3438,190.9688 L292.3438,193.6406 L296.4531,193.6406 L296.4531,195.75 L292.3438,195.75 L292.3438,198.875 L296.7656,198.875 L296.7656,201 Z " fill="#000000"/><text fill="#000000" font-family="sans-serif" font-size="12" lengthAdjust="spacing" textLength="37" x="314.25" y="199.1543">source</text><line style="stroke:#A80036;stroke-width:1.5;" x1="231.5" x2="401.5" y1="211" y2="211"/><ellipse cx="241.5" cy="222" fill="#000000" rx="3" ry="3" style="stroke:#000000;stroke-width:1.0;"/><text fill="#000000" font-family="sans-serif" font-size="11" lengthAdjust="spacing" textLength="43" x="250.5" y="225.2104">id : bigint</text><line style="stroke:#A80036;stroke-width:1.0;" x1="231.5" x2="401.5" y1="231.8047" y2="231.8047"/><ellipse cx="241.5" cy="242.8047" fill="#000000" rx="3" ry="3" style="stroke:#000000;stroke-width:1.0;"/><text fill="#000000" font-family="sans-serif" font-size="11" lengthAdjust="spacing" textLength="134" x="250.5" y="246.0151">path : varchar(255) - unique</text><ellipse cx="241.5" cy="255.6094" fill="#000000" rx="3" ry="3" style="stroke:#000000;stroke-width:1.0;"/><text fill="#000000" font-family="sans-serif" font-size="11" lengthAdjust="spacing" textLength="125" x="250.5" y="258.8198">feed_name : varchar(255)</text><ellipse cx="241.5" cy="268.4141" fill="#000000" rx="3" ry="3" style="stroke:#000000;stroke-width:1.0;"/><text fill="#000000" font-family="sans-serif" font-size="11" lengthAdjust="spacing" textLength="125" x="250.5" y="271.6245">type_name : varchar(255)</text><ellipse cx="241.5" cy="281.2188" fill="#000000" rx="3" ry="3" style="stroke:#000000;stroke-width:1.0;"/><text fill="#000000" font-family="sans-serif" font-size="11" lengthAdjust="spacing" textLength="146" x="250.5" y="284.4292">last_modified_time_ms : bigint</text><ellipse cx="241.5" cy="294.0234" fill="#000000" rx="3" ry="3" style="stroke:#000000;stroke-width:1.0;"/><text fill="#000000" font-family="sans-serif" font-size="11" lengthAdjust="spacing" textLength="95" x="250.5" y="297.2339">examined : boolean</text><ellipse cx="241.5" cy="306.8281" fill="#000000" rx="3" ry="3" style="stroke:#000000;stroke-width:1.0;"/><text fill="#000000" font-family="sans-serif" font-size="11" lengthAdjust="spacing" textLength="97" x="250.5" y="310.0386">forwarded : boolean</text><ellipse cx="241.5" cy="319.6328" fill="#000000" rx="3" ry="3" style="stroke:#000000;stroke-width:1.0;"/><text fill="#000000" font-family="sans-serif" font-size="11" lengthAdjust="spacing" textLength="114" x="250.5" y="322.8433">forward_error : boolean</text><!--MD5=[23693ca385c1414b1e74e8b4c3b37cb4]
class source_item--><rect codeLine="17" fill="#FEFECE" filter="url(#ff14vv86i8m3u)" height="124.8281" id="source_item" style="stroke:#A80036;stroke-width:1.5;" width="151" x="217" y="401.5"/><ellipse cx="255.4" cy="417.5" fill="#ADD1B2" rx="11" ry="11" style="stroke:#A80036;stroke-width:1.0;"/><path d="M258.4156,423.5 L251.4313,423.5 L251.4313,411.3594 L258.4156,411.3594 L258.4156,413.4688 L253.9938,413.4688 L253.9938,416.1406 L258.1031,416.1406 L258.1031,418.25 L253.9938,418.25 L253.9938,421.375 L258.4156,421.375 L258.4156,423.5 Z " fill="#000000"/><text fill="#000000" font-family="sans-serif" font-size="12" lengthAdjust="spacing" textLength="67" x="274.6" y="421.6543">source_item</text><line style="stroke:#A80036;stroke-width:1.5;" x1="218" x2="367" y1="433.5" y2="433.5"/><ellipse cx="228" cy="444.5" fill="#000000" rx="3" ry="3" style="stroke:#000000;stroke-width:1.0;"/><text fill="#000000" font-family="sans-serif" font-size="11" lengthAdjust="spacing" textLength="43" x="237" y="447.7104">id : bigint</text><line style="stroke:#A80036;stroke-width:1.0;" x1="218" x2="367" y1="454.3047" y2="454.3047"/><ellipse cx="228" cy="465.3047" fill="#000000" rx="3" ry="3" style="stroke:#000000;stroke-width:1.0;"/><text fill="#000000" font-family="sans-serif" font-size="11" lengthAdjust="spacing" textLength="98" x="237" y="468.5151">name : varchar(255)</text><ellipse cx="228" cy="478.1094" fill="#000000" rx="3" ry="3" style="stroke:#000000;stroke-width:1.0;"/><text fill="#000000" font-family="sans-serif" font-size="11" lengthAdjust="spacing" textLength="125" x="237" y="481.3198">feed_name : varchar(255)</text><ellipse cx="228" cy="490.9141" fill="#000000" rx="3" ry="3" style="stroke:#000000;stroke-width:1.0;"/><text fill="#000000" font-family="sans-serif" font-size="11" lengthAdjust="spacing" textLength="125" x="237" y="494.1245">type_name : varchar(255)</text><ellipse cx="228" cy="503.7188" fill="#000000" rx="3" ry="3" style="stroke:#000000;stroke-width:1.0;"/><text fill="#000000" font-family="sans-serif" font-size="11" lengthAdjust="spacing" textLength="94" x="237" y="506.9292">fk_source_id : bigint</text><ellipse cx="228" cy="516.5234" fill="#000000" rx="3" ry="3" style="stroke:#000000;stroke-width:1.0;"/><text fill="#000000" font-family="sans-serif" font-size="11" lengthAdjust="spacing" textLength="103" x="237" y="519.7339">aggregated : boolean</text><!--MD5=[920d5660a06730163c0204a2780a33ae]
class source_entry--><rect codeLine="27" fill="#FEFECE" filter="url(#ff14vv86i8m3u)" height="112.0234" id="source_entry" style="stroke:#A80036;stroke-width:1.5;" width="147" x="219" y="599"/><ellipse cx="254.7" cy="615" fill="#ADD1B2" rx="11" ry="11" style="stroke:#A80036;stroke-width:1.0;"/><path d="M257.7156,621 L250.7313,621 L250.7313,608.8594 L257.7156,608.8594 L257.7156,610.9688 L253.2938,610.9688 L253.2938,613.6406 L257.4031,613.6406 L257.4031,615.75 L253.2938,615.75 L253.2938,618.875 L257.7156,618.875 L257.7156,621 Z " fill="#000000"/><text fill="#000000" font-family="sans-serif" font-size="12" lengthAdjust="spacing" textLength="69" x="273.3" y="619.1543">source_entry</text><line style="stroke:#A80036;stroke-width:1.5;" x1="220" x2="365" y1="631" y2="631"/><ellipse cx="230" cy="642" fill="#000000" rx="3" ry="3" style="stroke:#000000;stroke-width:1.0;"/><text fill="#000000" font-family="sans-serif" font-size="11" lengthAdjust="spacing" textLength="43" x="239" y="645.2104">id : bigint</text><line style="stroke:#A80036;stroke-width:1.0;" x1="220" x2="365" y1="651.8047" y2="651.8047"/><ellipse cx="230" cy="662.8047" fill="#000000" rx="3" ry="3" style="stroke:#000000;stroke-width:1.0;"/><text fill="#000000" font-family="sans-serif" font-size="11" lengthAdjust="spacing" textLength="117" x="239" y="666.0151">extension : varchar(255)</text><ellipse cx="230" cy="675.6094" fill="#000000" rx="3" ry="3" style="stroke:#000000;stroke-width:1.0;"/><text fill="#000000" font-family="sans-serif" font-size="11" lengthAdjust="spacing" textLength="95" x="239" y="678.8198">extension_type : int</text><ellipse cx="230" cy="688.4141" fill="#000000" rx="3" ry="3" style="stroke:#000000;stroke-width:1.0;"/><text fill="#000000" font-family="sans-serif" font-size="11" lengthAdjust="spacing" textLength="80" x="239" y="691.6245">byte_size : bigint</text><ellipse cx="230" cy="701.2188" fill="#000000" rx="3" ry="3" style="stroke:#000000;stroke-width:1.0;"/><text fill="#000000" font-family="sans-serif" font-size="11" lengthAdjust="spacing" textLength="121" x="239" y="704.4292">fk_source_item_id : bigint</text><!--MD5=[1ef907470190a52481b72bc04299235e]
class aggregate--><rect codeLine="36" fill="#FEFECE" filter="url(#ff14vv86i8m3u)" height="150.4375" id="aggregate" style="stroke:#A80036;stroke-width:1.5;" width="151" x="7" y="389"/><ellipse cx="51.25" cy="405" fill="#ADD1B2" rx="11" ry="11" style="stroke:#A80036;stroke-width:1.0;"/><path d="M54.2656,411 L47.2813,411 L47.2813,398.8594 L54.2656,398.8594 L54.2656,400.9688 L49.8438,400.9688 L49.8438,403.6406 L53.9531,403.6406 L53.9531,405.75 L49.8438,405.75 L49.8438,408.875 L54.2656,408.875 L54.2656,411 Z " fill="#000000"/><text fill="#000000" font-family="sans-serif" font-size="12" lengthAdjust="spacing" textLength="54" x="71.75" y="409.1543">aggregate</text><line style="stroke:#A80036;stroke-width:1.5;" x1="8" x2="157" y1="421" y2="421"/><ellipse cx="18" cy="432" fill="#000000" rx="3" ry="3" style="stroke:#000000;stroke-width:1.0;"/><text fill="#000000" font-family="sans-serif" font-size="11" lengthAdjust="spacing" textLength="43" x="27" y="435.2104">id : bigint</text><line style="stroke:#A80036;stroke-width:1.0;" x1="8" x2="157" y1="441.8047" y2="441.8047"/><ellipse cx="18" cy="452.8047" fill="#000000" rx="3" ry="3" style="stroke:#000000;stroke-width:1.0;"/><text fill="#000000" font-family="sans-serif" font-size="11" lengthAdjust="spacing" textLength="113" x="27" y="456.0151">create_time_ms : bigint</text><ellipse cx="18" cy="465.6094" fill="#000000" rx="3" ry="3" style="stroke:#000000;stroke-width:1.0;"/><text fill="#000000" font-family="sans-serif" font-size="11" lengthAdjust="spacing" textLength="125" x="27" y="468.8198">feed_name : varchar(255)</text><ellipse cx="18" cy="478.4141" fill="#000000" rx="3" ry="3" style="stroke:#000000;stroke-width:1.0;"/><text fill="#000000" font-family="sans-serif" font-size="11" lengthAdjust="spacing" textLength="125" x="27" y="481.6245">type_name : varchar(255)</text><ellipse cx="18" cy="491.2188" fill="#000000" rx="3" ry="3" style="stroke:#000000;stroke-width:1.0;"/><text fill="#000000" font-family="sans-serif" font-size="11" lengthAdjust="spacing" textLength="80" x="27" y="494.4292">byte_size : bigint</text><ellipse cx="18" cy="504.0234" fill="#000000" rx="3" ry="3" style="stroke:#000000;stroke-width:1.0;"/><text fill="#000000" font-family="sans-serif" font-size="11" lengthAdjust="spacing" textLength="48" x="27" y="507.2339">items : int</text><ellipse cx="18" cy="516.8281" fill="#000000" rx="3" ry="3" style="stroke:#000000;stroke-width:1.0;"/><text fill="#000000" font-family="sans-serif" font-size="11" lengthAdjust="spacing" textLength="92" x="27" y="520.0386">complete : boolean</text><ellipse cx="18" cy="529.6328" fill="#000000" rx="3" ry="3" style="stroke:#000000;stroke-width:1.0;"/><text fill="#000000" font-family="sans-serif" font-size="11" lengthAdjust="spacing" textLength="114" x="27" y="532.8433">forward_error : boolean</text><!--MD5=[a7aae3f2a4de1495d12a81e05f498d83]
class aggregate_item--><rect codeLine="48" fill="#FEFECE" filter="url(#ff14vv86i8m3u)" height="86.4141" id="aggregate_item" style="stroke:#A80036;stroke-width:1.5;" width="147" x="35" y="612"/><ellipse cx="63.95" cy="628" fill="#ADD1B2" rx="11" ry="11" style="stroke:#A80036;stroke-width:1.0;"/><path d="M66.9656,634 L59.9813,634 L59.9813,621.8594 L66.9656,621.8594 L66.9656,623.9688 L62.5438,623.9688 L62.5438,626.6406 L66.6531,626.6406 L66.6531,628.75 L62.5438,628.75 L62.5438,631.875 L66.9656,631.875 L66.9656,634 Z " fill="#000000"/><text fill="#000000" font-family="sans-serif" font-size="12" lengthAdjust="spacing" textLength="84" x="81.05" y="632.1543">aggregate_item</text><line style="stroke:#A80036;stroke-width:1.5;" x1="36" x2="181" y1="644" y2="644"/><ellipse cx="46" cy="655" fill="#000000" rx="3" ry="3" style="stroke:#000000;stroke-width:1.0;"/><text fill="#000000" font-family="sans-serif" font-size="11" lengthAdjust="spacing" textLength="43" x="55" y="658.2104">id : bigint</text><line style="stroke:#A80036;stroke-width:1.0;" x1="36" x2="181" y1="664.8047" y2="664.8047"/><ellipse cx="46" cy="675.8047" fill="#000000" rx="3" ry="3" style="stroke:#000000;stroke-width:1.0;"/><text fill="#000000" font-family="sans-serif" font-size="11" lengthAdjust="spacing" textLength="112" x="55" y="679.0151">fk_aggregate_id : bigint</text><ellipse cx="46" cy="688.6094" fill="#000000" rx="3" ry="3" style="stroke:#000000;stroke-width:1.0;"/><text fill="#000000" font-family="sans-serif" font-size="11" lengthAdjust="spacing" textLength="121" x="55" y="691.8198">fk_source_item_id : bigint</text><!--MD5=[3cc1e4effaee23fb9097a8bf1d8fa0d4]
class forward_url--><rect codeLine="55" fill="#FEFECE" filter="url(#ff14vv86i8m3u)" height="73.6094" id="forward_url" style="stroke:#A80036;stroke-width:1.5;" width="108" x="87.5" y="217"/><ellipse cx="109.7" cy="233" fill="#ADD1B2" rx="11" ry="11" style="stroke:#A80036;stroke-width:1.0;"/><path d="M112.7156,239 L105.7313,239 L105.7313,226.8594 L112.7156,226.8594 L112.7156,228.9688 L108.2938,228.9688 L108.2938,231.6406 L112.4031,231.6406 L112.4031,233.75 L108.2938,233.75 L108.2938,236.875 L112.7156,236.875 L112.7156,239 Z " fill="#000000"/><text fill="#000000" font-family="sans-serif" font-size="12" lengthAdjust="spacing" textLength="60" x="125.3" y="237.1543">forward_url</text><line style="stroke:#A80036;stroke-width:1.5;" x1="88.5" x2="194.5" y1="249" y2="249"/><ellipse cx="98.5" cy="260" fill="#000000" rx="3" ry="3" style="stroke:#000000;stroke-width:1.0;"/><text fill="#000000" font-family="sans-serif" font-size="11" lengthAdjust="spacing" textLength="29" x="107.5" y="263.2104">id : int</text><line style="stroke:#A80036;stroke-width:1.0;" x1="88.5" x2="194.5" y1="269.8047" y2="269.8047"/><ellipse cx="98.5" cy="280.8047" fill="#000000" rx="3" ry="3" style="stroke:#000000;stroke-width:1.0;"/><text fill="#000000" font-family="sans-serif" font-size="11" lengthAdjust="spacing" textLength="82" x="107.5" y="284.0151">url : varchar(255)</text><!--MD5=[cbb12bc3eee1de79b3f2e300a168c511]
class forward_source--><rect codeLine="61" fill="#FEFECE" filter="url(#ff14vv86i8m3u)" height="112.0234" id="forward_source" style="stroke:#A80036;stroke-width:1.5;" width="129" x="222" y="7"/><ellipse cx="243.3" cy="23" fill="#ADD1B2" rx="11" ry="11" style="stroke:#A80036;stroke-width:1.0;"/><path d="M246.3156,29 L239.3313,29 L239.3313,16.8594 L246.3156,16.8594 L246.3156,18.9688 L241.8938,18.9688 L241.8938,21.6406 L246.0031,21.6406 L246.0031,23.75 L241.8938,23.75 L241.8938,26.875 L246.3156,26.875 L246.3156,29 Z " fill="#000000"/><text fill="#000000" font-family="sans-serif" font-size="12" lengthAdjust="spacing" textLength="83" x="258.7" y="27.1543">forward_source</text><line style="stroke:#A80036;stroke-width:1.5;" x1="223" x2="350" y1="39" y2="39"/><ellipse cx="233" cy="50" fill="#000000" rx="3" ry="3" style="stroke:#000000;stroke-width:1.0;"/><text fill="#000000" font-family="sans-serif" font-size="11" lengthAdjust="spacing" textLength="43" x="242" y="53.2104">id : bigint</text><line style="stroke:#A80036;stroke-width:1.0;" x1="223" x2="350" y1="59.8047" y2="59.8047"/><ellipse cx="233" cy="70.8047" fill="#000000" rx="3" ry="3" style="stroke:#000000;stroke-width:1.0;"/><text fill="#000000" font-family="sans-serif" font-size="11" lengthAdjust="spacing" textLength="103" x="242" y="74.0151">fk_forward_url_id : int</text><ellipse cx="233" cy="83.6094" fill="#000000" rx="3" ry="3" style="stroke:#000000;stroke-width:1.0;"/><text fill="#000000" font-family="sans-serif" font-size="11" lengthAdjust="spacing" textLength="94" x="242" y="86.8198">fk_source_id : bigint</text><ellipse cx="233" cy="96.4141" fill="#000000" rx="3" ry="3" style="stroke:#000000;stroke-width:1.0;"/><text fill="#000000" font-family="sans-serif" font-size="11" lengthAdjust="spacing" textLength="84" x="242" y="99.6245">success : boolean</text><ellipse cx="233" cy="109.2188" fill="#000000" rx="3" ry="3" style="stroke:#000000;stroke-width:1.0;"/><text fill="#000000" font-family="sans-serif" font-size="11" lengthAdjust="spacing" textLength="94" x="242" y="112.4292">error : varchar(255)</text><!--MD5=[d4f398bbc1193deb68c8428dcb929078]
class forward_aggregate--><rect codeLine="70" fill="#FEFECE" filter="url(#ff14vv86i8m3u)" height="112.0234" id="forward_aggregate" style="stroke:#A80036;stroke-width:1.5;" width="138" x="18.5" y="7"/><ellipse cx="36.2" cy="23" fill="#ADD1B2" rx="11" ry="11" style="stroke:#A80036;stroke-width:1.0;"/><path d="M39.2156,29 L32.2313,29 L32.2313,16.8594 L39.2156,16.8594 L39.2156,18.9688 L34.7938,18.9688 L34.7938,21.6406 L38.9031,21.6406 L38.9031,23.75 L34.7938,23.75 L34.7938,26.875 L39.2156,26.875 L39.2156,29 Z " fill="#000000"/><text fill="#000000" font-family="sans-serif" font-size="12" lengthAdjust="spacing" textLength="100" x="50.8" y="27.1543">forward_aggregate</text><line style="stroke:#A80036;stroke-width:1.5;" x1="19.5" x2="155.5" y1="39" y2="39"/><ellipse cx="29.5" cy="50" fill="#000000" rx="3" ry="3" style="stroke:#000000;stroke-width:1.0;"/><text fill="#000000" font-family="sans-serif" font-size="11" lengthAdjust="spacing" textLength="43" x="38.5" y="53.2104">id : bigint</text><line style="stroke:#A80036;stroke-width:1.0;" x1="19.5" x2="155.5" y1="59.8047" y2="59.8047"/><ellipse cx="29.5" cy="70.8047" fill="#000000" rx="3" ry="3" style="stroke:#000000;stroke-width:1.0;"/><text fill="#000000" font-family="sans-serif" font-size="11" lengthAdjust="spacing" textLength="103" x="38.5" y="74.0151">fk_forward_url_id : int</text><ellipse cx="29.5" cy="83.6094" fill="#000000" rx="3" ry="3" style="stroke:#000000;stroke-width:1.0;"/><text fill="#000000" font-family="sans-serif" font-size="11" lengthAdjust="spacing" textLength="112" x="38.5" y="86.8198">fk_aggregate_id : bigint</text><ellipse cx="29.5" cy="96.4141" fill="#000000" rx="3" ry="3" style="stroke:#000000;stroke-width:1.0;"/><text fill="#000000" font-family="sans-serif" font-size="11" lengthAdjust="spacing" textLength="84" x="38.5" y="99.6245">success : boolean</text><ellipse cx="29.5" cy="109.2188" fill="#000000" rx="3" ry="3" style="stroke:#000000;stroke-width:1.0;"/><text fill="#000000" font-family="sans-serif" font-size="11" lengthAdjust="spacing" textLength="94" x="38.5" y="112.4292">error : varchar(255)</text><!--MD5=[bde66a182555eb887059de8293221a83]
link source to source_item--><path codeLine="79" d="M299.25,337.22 C299.25,337.22 299.25,393.41 299.25,393.41 " fill="none" id="source-source_item" style="stroke:#A80036;stroke-width:1.0;stroke-dasharray:7.0,7.0;"/><line style="stroke:#A80036;stroke-width:1.0;" x1="299.25" x2="305.25" y1="393.41" y2="401.41"/><line style="stroke:#A80036;stroke-width:1.0;" x1="299.25" x2="293.25" y1="393.41" y2="401.41"/><line style="stroke:#A80036;stroke-width:1.0;" x1="299.25" x2="299.25" y1="393.41" y2="401.41"/><ellipse cx="299.25" cy="387.41" rx="4" ry="4" style="stroke:#A80036;stroke-width:1.0;fill:none;"/><line style="stroke:#A80036;stroke-width:1.0;fill:none;" x1="295.25" x2="303.25" y1="333.22" y2="333.22"/><line style="stroke:#A80036;stroke-width:1.0;fill:none;" x1="295.25" x2="303.25" y1="336.22" y2="336.22"/><line style="stroke:#A80036;stroke-width:1.0;fill:none;" x1="299.25" x2="299.25" y1="337.22" y2="329.22"/><!--MD5=[6610028f0c7a0554f2085ee3824405a3]
link source_item to source_entry--><path codeLine="80" d="M292.5,534.54 C292.5,534.54 292.5,590.77 292.5,590.77 " fill="none" id="source_item-source_entry" style="stroke:#A80036;stroke-width:1.0;"/><line style="stroke:#A80036;stroke-width:1.0;" x1="292.5" x2="298.5" y1="590.77" y2="598.77"/><line style="stroke:#A80036;stroke-width:1.0;" x1="292.5" x2="286.5" y1="590.77" y2="598.77"/><line style="stroke:#A80036;stroke-width:1.0;" x1="292.5" x2="292.5" y1="590.77" y2="598.77"/><line style="stroke:#A80036;stroke-width:1.0;" x1="296.5" x2="288.5" y1="588.77" y2="588.77"/><line style="stroke:#A80036;stroke-width:1.0;" x1="288.5" x2="296.5" y1="530.54" y2="530.54"/><line style="stroke:#A80036;stroke-width:1.0;" x1="288.5" x2="296.5" y1="533.54" y2="533.54"/><line style="stroke:#A80036;stroke-width:1.0;" x1="292.5" x2="292.5" y1="534.54" y2="526.54"/><!--MD5=[791733cf99fddd84ca9a2108048a79c4]
link aggregate to aggregate_item--><path codeLine="81" d="M96.5,547.21 C96.5,547.21 96.5,603.81 96.5,603.81 " fill="none" id="aggregate-aggregate_item" style="stroke:#A80036;stroke-width:1.0;"/><line style="stroke:#A80036;stroke-width:1.0;" x1="96.5" x2="102.5" y1="603.81" y2="611.81"/><line style="stroke:#A80036;stroke-width:1.0;" x1="96.5" x2="90.5" y1="603.81" y2="611.81"/><line style="stroke:#A80036;stroke-width:1.0;" x1="96.5" x2="96.5" y1="603.81" y2="611.81"/><line style="stroke:#A80036;stroke-width:1.0;" x1="100.5" x2="92.5" y1="601.81" y2="601.81"/><line style="stroke:#A80036;stroke-width:1.0;" x1="92.5" x2="100.5" y1="543.21" y2="543.21"/><line style="stroke:#A80036;stroke-width:1.0;" x1="92.5" x2="100.5" y1="546.21" y2="546.21"/><line style="stroke:#A80036;stroke-width:1.0;" x1="96.5" x2="96.5" y1="547.21" y2="539.21"/><!--MD5=[446b403935e84f8470581e0b86ba8ed1]
link source_item to aggregate_item--><path codeLine="82" d="M208.66,465 C208.66,465 170,465 170,465 C170,465 170,603.89 170,603.89 " fill="none" id="source_item-aggregate_item" style="stroke:#A80036;stroke-width:1.0;stroke-dasharray:7.0,7.0;"/><line style="stroke:#A80036;stroke-width:1.0;" x1="170" x2="170" y1="600.89" y2="611.89"/><ellipse cx="170" cy="600.89" rx="4" ry="4" style="stroke:#A80036;stroke-width:1.0;fill:none;"/><line style="stroke:#A80036;stroke-width:1.0;fill:none;" x1="174" x2="166" y1="607.89" y2="607.89"/><line style="stroke:#A80036;stroke-width:1.0;fill:none;" x1="212.66" x2="212.66" y1="461" y2="469"/><line style="stroke:#A80036;stroke-width:1.0;fill:none;" x1="209.66" x2="209.66" y1="461" y2="469"/><line style="stroke:#A80036;stroke-width:1.0;fill:none;" x1="208.66" x2="216.66" y1="465" y2="465"/><!--MD5=[237522a801e7bb9308fa36e58d02c106]
link forward_source to forward_url--><path codeLine="83" d="M226.25,127.05 C226.25,127.05 226.25,255 226.25,255 C226.25,255 203.65,255 203.65,255 " fill="none" id="forward_source-forward_url" style="stroke:#A80036;stroke-width:1.0;"/><line style="stroke:#A80036;stroke-width:1.0;" x1="199.65" x2="199.65" y1="259" y2="251"/><line style="stroke:#A80036;stroke-width:1.0;" x1="202.65" x2="202.65" y1="259" y2="251"/><line style="stroke:#A80036;stroke-width:1.0;" x1="203.65" x2="195.65" y1="255" y2="255"/><line style="stroke:#A80036;stroke-width:1.0;" x1="226.25" x2="220.25" y1="127.05" y2="119.05"/><line style="stroke:#A80036;stroke-width:1.0;" x1="226.25" x2="232.25" y1="127.05" y2="119.05"/><line style="stroke:#A80036;stroke-width:1.0;" x1="226.25" x2="226.25" y1="127.05" y2="119.05"/><ellipse cx="226.25" cy="133.05" rx="4" ry="4" style="stroke:#A80036;stroke-width:1.0;fill:none;"/><!--MD5=[d49f4a8229bc31f1f5d61244df6e6e3c]
link forward_source to source--><path codeLine="84" d="M290.75,127.02 C290.75,127.02 290.75,170.83 290.75,170.83 " fill="none" id="forward_source-source" style="stroke:#A80036;stroke-width:1.0;stroke-dasharray:7.0,7.0;"/><line style="stroke:#A80036;stroke-width:1.0;" x1="294.75" x2="286.75" y1="174.83" y2="174.83"/><line style="stroke:#A80036;stroke-width:1.0;" x1="294.75" x2="286.75" y1="171.83" y2="171.83"/><line style="stroke:#A80036;stroke-width:1.0;" x1="290.75" x2="290.75" y1="170.83" y2="178.83"/><line style="stroke:#A80036;stroke-width:1.0;" x1="290.75" x2="284.75" y1="127.02" y2="119.02"/><line style="stroke:#A80036;stroke-width:1.0;" x1="290.75" x2="296.75" y1="127.02" y2="119.02"/><line style="stroke:#A80036;stroke-width:1.0;" x1="290.75" x2="290.75" y1="127.02" y2="119.02"/><ellipse cx="290.75" cy="133.02" rx="4" ry="4" style="stroke:#A80036;stroke-width:1.0;fill:none;"/><!--MD5=[04d9ecdcc61a774a98679dad38ac2f3f]
link forward_aggregate to forward_url--><path codeLine="85" d="M122,127.02 C122,127.02 122,208.72 122,208.72 " fill="none" id="forward_aggregate-forward_url" style="stroke:#A80036;stroke-width:1.0;"/><line style="stroke:#A80036;stroke-width:1.0;" x1="126" x2="118" y1="212.72" y2="212.72"/><line style="stroke:#A80036;stroke-width:1.0;" x1="126" x2="118" y1="209.72" y2="209.72"/><line style="stroke:#A80036;stroke-width:1.0;" x1="122" x2="122" y1="208.72" y2="216.72"/><line style="stroke:#A80036;stroke-width:1.0;" x1="122" x2="116" y1="127.02" y2="119.02"/><line style="stroke:#A80036;stroke-width:1.0;" x1="122" x2="128" y1="127.02" y2="119.02"/><line style="stroke:#A80036;stroke-width:1.0;" x1="122" x2="122" y1="127.02" y2="119.02"/><ellipse cx="122" cy="133.02" rx="4" ry="4" style="stroke:#A80036;stroke-width:1.0;fill:none;"/><!--MD5=[0ac3d8377118ba1284c6e32a49f23729]
link forward_aggregate to aggregate--><path codeLine="86" d="M53,127.18 C53,127.18 53,380.72 53,380.72 " fill="none" id="forward_aggregate-aggregate" style="stroke:#A80036;stroke-width:1.0;"/><line style="stroke:#A80036;stroke-width:1.0;" x1="57" x2="49" y1="384.72" y2="384.72"/><line style="stroke:#A80036;stroke-width:1.0;" x1="57" x2="49" y1="381.72" y2="381.72"/><line style="stroke:#A80036;stroke-width:1.0;" x1="53" x2="53" y1="380.72" y2="388.72"/><line style="stroke:#A80036;stroke-width:1.0;" x1="53" x2="47" y1="127.18" y2="119.18"/><line style="stroke:#A80036;stroke-width:1.0;" x1="53" x2="59" y1="127.18" y2="119.18"/><line style="stroke:#A80036;stroke-width:1.0;" x1="53" x2="53" y1="127.18" y2="119.18"/><ellipse cx="53" cy="133.18" rx="4" ry="4" style="stroke:#A80036;stroke-width:1.0;fill:none;"/><!--MD5=[e469cfdcde0fd6247c5f893b841be2dd]
@startuml

' avoid problems with angled crows feet
skinparam linetype ortho

entity source {
  *id : bigint
  - -
  *path : varchar(255) - unique
  *feed_name : varchar(255)
  *type_name : varchar(255)
  *last_modified_time_ms : bigint
  *examined : boolean
  *forwarded : boolean
  *forward_error : boolean
}

entity source_item {
  *id : bigint
  - -
  *name : varchar(255)
  *feed_name : varchar(255)
  *type_name : varchar(255)
  *fk_source_id : bigint
  *aggregated : boolean
}

entity source_entry {
  *id : bigint
  - -
  *extension : varchar(255)
  *extension_type : int
  *byte_size : bigint
  *fk_source_item_id : bigint
}

entity aggregate {
  *id : bigint
  - -
  *create_time_ms : bigint
  *feed_name : varchar(255)
  *type_name : varchar(255)
  *byte_size : bigint
  *items : int
  *complete : boolean
  *forward_error : boolean
}

entity aggregate_item {
  *id : bigint
  - -
  *fk_aggregate_id : bigint
  *fk_source_item_id : bigint
}

entity forward_url {
  *id : int
  - -
  *url : varchar(255)
}

entity forward_source {
  *id : bigint
  - -
  *fk_forward_url_id : int
  *fk_source_id : bigint
  *success : boolean
  *error : varchar(255)
}

entity forward_aggregate {
  *id : bigint
  - -
  *fk_forward_url_id : int
  *fk_aggregate_id : bigint
  *success : boolean
  *error : varchar(255)
}

source ||..o{ source_item
source_item ||- -|{ source_entry
aggregate ||- -|{ aggregate_item
source_item ||..o| aggregate_item
forward_source }o- -|| forward_url
forward_source }o..|| source
forward_aggregate }o- -|| forward_url
forward_aggregate }o- -|| aggregate

@enduml

@startuml

skinparam linetype ortho

entity source {
  *id : bigint
  - -
  *path : varchar(255) - unique
  *feed_name : varchar(255)
  *type_name : varchar(255)
  *last_modified_time_ms : bigint
  *examined : boolean
  *forwarded : boolean
  *forward_error : boolean
}

entity source_item {
  *id : bigint
  - -
  *name : varchar(255)
  *feed_name : varchar(255)
  *type_name : varchar(255)
  *fk_source_id : bigint
  *aggregated : boolean
}

entity source_entry {
  *id : bigint
  - -
  *extension : varchar(255)
  *extension_type : int
  *byte_size : bigint
  *fk_source_item_id : bigint
}

entity aggregate {
  *id : bigint
  - -
  *create_time_ms : bigint
  *feed_name : varchar(255)
  *type_name : varchar(255)
  *byte_size : bigint
  *items : int
  *complete : boolean
  *forward_error : boolean
}

entity aggregate_item {
  *id : bigint
  - -
  *fk_aggregate_id : bigint
  *fk_source_item_id : bigint
}

entity forward_url {
  *id : int
  - -
  *url : varchar(255)
}

entity forward_source {
  *id : bigint
  - -
  *fk_forward_url_id : int
  *fk_source_id : bigint
  *success : boolean
  *error : varchar(255)
}

entity forward_aggregate {
  *id : bigint
  - -
  *fk_forward_url_id : int
  *fk_aggregate_id : bigint
  *success : boolean
  *error : varchar(255)
}

source ||..o{ source_item
source_item ||- -|{ source_entry
aggregate ||- -|{ aggregate_item
source_item ||..o| aggregate_item
forward_source }o- -|| forward_url
forward_source }o..|| source
forward_aggregate }o- -|| forward_url
forward_aggregate }o- -|| aggregate

@enduml

PlantUML version 1.2021.5(Sun Apr 25 11:20:28 GMT 2021)
(GPL source distribution)
Java Runtime: OpenJDK Runtime Environment
JVM: OpenJDK 64-Bit Server VM
Default Encoding: UTF-8
Language: en
Country: US
--></g></svg>