<?xml version="1.0" encoding="UTF-8" standalone="no"?><svg xmlns="http://www.w3.org/2000/svg" xmlns:xlink="http://www.w3.org/1999/xlink" contentScriptType="application/ecmascript" contentStyleType="text/css" height="842px" preserveAspectRatio="none" style="width:545px;height:842px;background:#FFFFFF;" version="1.1" viewBox="0 0 545 842" width="545px" zoomAndPan="magnify"><defs><filter height="300%" id="fqoo5zj1etvai" width="300%" x="-1" y="-1"><feGaussianBlur result="blurOut" stdDeviation="2.0"/><feColorMatrix in="blurOut" result="blurOut2" type="matrix" values="0 0 0 0 0 0 0 0 0 0 0 0 0 0 0 0 0 0 .4 0"/><feOffset dx="4.0" dy="4.0" in="blurOut2" result="blurOut3"/><feBlend in="SourceGraphic" in2="blurOut3" mode="normal"/></filter></defs><g><!--MD5=[fb94403e3d3521d383fd6507b67b3642]
class source--><rect codeLine="5" fill="#FEFECE" filter="url(#fqoo5zj1etvai)" height="167.8551" id="source" style="stroke:#A80036;stroke-width:1.5;" width="184" x="347" y="250"/><ellipse cx="415.75" cy="266" fill="#ADD1B2" rx="11" ry="11" style="stroke:#A80036;stroke-width:1.0;"/><path d="M412.1094,272.5 L412.1094,260.3594 L419.7656,260.3594 L419.7656,262.4844 L414.4844,262.4844 L414.4844,265.1406 L419.5,265.1406 L419.5,267.2656 L414.4844,267.2656 L414.4844,270.375 L419.7656,270.375 L419.7656,272.5 L412.1094,272.5 Z " fill="#000000"/><text fill="#000000" font-family="sans-serif" font-size="12" lengthAdjust="spacing" textLength="38" x="436.25" y="270.656">source</text><line style="stroke:#A80036;stroke-width:1.5;" x1="348" x2="530" y1="282" y2="282"/><ellipse cx="358" cy="293" fill="#000000" rx="3" ry="3" style="stroke:#000000;stroke-width:1.0;"/><text fill="#000000" font-family="sans-serif" font-size="11" lengthAdjust="spacing" textLength="50" x="367" y="297.7589">id : bigint</text><line style="stroke:#A80036;stroke-width:1.0;" x1="348" x2="530" y1="304.9819" y2="304.9819"/><ellipse cx="358" cy="315.9819" fill="#000000" rx="3" ry="3" style="stroke:#000000;stroke-width:1.0;"/><text fill="#000000" font-family="sans-serif" font-size="11" lengthAdjust="spacing" textLength="144" x="367" y="320.7408">path : varchar(255) - unique</text><ellipse cx="358" cy="330.9638" fill="#000000" rx="3" ry="3" style="stroke:#000000;stroke-width:1.0;"/><text fill="#000000" font-family="sans-serif" font-size="11" lengthAdjust="spacing" textLength="130" x="367" y="335.7227">feed_name : varchar(255)</text><ellipse cx="358" cy="345.9457" fill="#000000" rx="3" ry="3" style="stroke:#000000;stroke-width:1.0;"/><text fill="#000000" font-family="sans-serif" font-size="11" lengthAdjust="spacing" textLength="130" x="367" y="350.7046">type_name : varchar(255)</text><ellipse cx="358" cy="360.9276" fill="#000000" rx="3" ry="3" style="stroke:#000000;stroke-width:1.0;"/><text fill="#000000" font-family="sans-serif" font-size="11" lengthAdjust="spacing" textLength="158" x="367" y="365.6865">last_modified_time_ms : bigint</text><ellipse cx="358" cy="375.9094" fill="#000000" rx="3" ry="3" style="stroke:#000000;stroke-width:1.0;"/><text fill="#000000" font-family="sans-serif" font-size="11" lengthAdjust="spacing" textLength="103" x="367" y="380.6684">examined : boolean</text><ellipse cx="358" cy="390.8913" fill="#000000" rx="3" ry="3" style="stroke:#000000;stroke-width:1.0;"/><text fill="#000000" font-family="sans-serif" font-size="11" lengthAdjust="spacing" textLength="108" x="367" y="395.6502">forwarded : boolean</text><ellipse cx="358" cy="405.8732" fill="#000000" rx="3" ry="3" style="stroke:#000000;stroke-width:1.0;"/><text fill="#000000" font-family="sans-serif" font-size="11" lengthAdjust="spacing" textLength="110" x="367" y="410.6321">new_position : bigint</text><!--MD5=[23693ca385c1414b1e74e8b4c3b37cb4]
class source_item--><rect codeLine="17" fill="#FEFECE" filter="url(#fqoo5zj1etvai)" height="167.8551" id="source_item" style="stroke:#A80036;stroke-width:1.5;" width="156" x="184" y="478"/><ellipse cx="224.2" cy="494" fill="#ADD1B2" rx="11" ry="11" style="stroke:#A80036;stroke-width:1.0;"/><path d="M220.5594,500.5 L220.5594,488.3594 L228.2156,488.3594 L228.2156,490.4844 L222.9344,490.4844 L222.9344,493.1406 L227.95,493.1406 L227.95,495.2656 L222.9344,495.2656 L222.9344,498.375 L228.2156,498.375 L228.2156,500.5 L220.5594,500.5 Z " fill="#000000"/><text fill="#000000" font-family="sans-serif" font-size="12" lengthAdjust="spacing" textLength="68" x="243.8" y="498.656">source_item</text><line style="stroke:#A80036;stroke-width:1.5;" x1="185" x2="339" y1="510" y2="510"/><ellipse cx="195" cy="521" fill="#000000" rx="3" ry="3" style="stroke:#000000;stroke-width:1.0;"/><text fill="#000000" font-family="sans-serif" font-size="11" lengthAdjust="spacing" textLength="50" x="204" y="525.7589">id : bigint</text><line style="stroke:#A80036;stroke-width:1.0;" x1="185" x2="339" y1="532.9819" y2="532.9819"/><ellipse cx="195" cy="543.9819" fill="#000000" rx="3" ry="3" style="stroke:#000000;stroke-width:1.0;"/><text fill="#000000" font-family="sans-serif" font-size="11" lengthAdjust="spacing" textLength="102" x="204" y="548.7408">name : varchar(255)</text><ellipse cx="195" cy="558.9638" fill="#000000" rx="3" ry="3" style="stroke:#000000;stroke-width:1.0;"/><text fill="#000000" font-family="sans-serif" font-size="11" lengthAdjust="spacing" textLength="130" x="204" y="563.7227">feed_name : varchar(255)</text><ellipse cx="195" cy="573.9457" fill="#000000" rx="3" ry="3" style="stroke:#000000;stroke-width:1.0;"/><text fill="#000000" font-family="sans-serif" font-size="11" lengthAdjust="spacing" textLength="130" x="204" y="578.7046">type_name : varchar(255)</text><ellipse cx="195" cy="588.9276" fill="#000000" rx="3" ry="3" style="stroke:#000000;stroke-width:1.0;"/><text fill="#000000" font-family="sans-serif" font-size="11" lengthAdjust="spacing" textLength="87" x="204" y="593.6865">byte_size : bigint</text><ellipse cx="195" cy="603.9094" fill="#000000" rx="3" ry="3" style="stroke:#000000;stroke-width:1.0;"/><text fill="#000000" font-family="sans-serif" font-size="11" lengthAdjust="spacing" textLength="105" x="204" y="608.6684">fk_source_id : bigint</text><ellipse cx="195" cy="618.8913" fill="#000000" rx="3" ry="3" style="stroke:#000000;stroke-width:1.0;"/><text fill="#000000" font-family="sans-serif" font-size="11" lengthAdjust="spacing" textLength="124" x="204" y="623.6502">fk_aggregate_id : bigint</text><ellipse cx="195" cy="633.8732" fill="#000000" rx="3" ry="3" style="stroke:#000000;stroke-width:1.0;"/><text fill="#000000" font-family="sans-serif" font-size="11" lengthAdjust="spacing" textLength="110" x="204" y="638.6321">new_position : bigint</text><!--MD5=[920d5660a06730163c0204a2780a33ae]
class source_entry--><rect codeLine="29" fill="#FEFECE" filter="url(#fqoo5zj1etvai)" height="122.9094" id="source_entry" style="stroke:#A80036;stroke-width:1.5;" width="159" x="182.5" y="706"/><ellipse cx="222.25" cy="722" fill="#ADD1B2" rx="11" ry="11" style="stroke:#A80036;stroke-width:1.0;"/><path d="M218.6094,728.5 L218.6094,716.3594 L226.2656,716.3594 L226.2656,718.4844 L220.9844,718.4844 L220.9844,721.1406 L226,721.1406 L226,723.2656 L220.9844,723.2656 L220.9844,726.375 L226.2656,726.375 L226.2656,728.5 L218.6094,728.5 Z " fill="#000000"/><text fill="#000000" font-family="sans-serif" font-size="12" lengthAdjust="spacing" textLength="72" x="241.75" y="726.656">source_entry</text><line style="stroke:#A80036;stroke-width:1.5;" x1="183.5" x2="340.5" y1="738" y2="738"/><ellipse cx="193.5" cy="749" fill="#000000" rx="3" ry="3" style="stroke:#000000;stroke-width:1.0;"/><text fill="#000000" font-family="sans-serif" font-size="11" lengthAdjust="spacing" textLength="50" x="202.5" y="753.7589">id : bigint</text><line style="stroke:#A80036;stroke-width:1.0;" x1="183.5" x2="340.5" y1="760.9819" y2="760.9819"/><ellipse cx="193.5" cy="771.9819" fill="#000000" rx="3" ry="3" style="stroke:#000000;stroke-width:1.0;"/><text fill="#000000" font-family="sans-serif" font-size="11" lengthAdjust="spacing" textLength="124" x="202.5" y="776.7408">extension : varchar(255)</text><ellipse cx="193.5" cy="786.9638" fill="#000000" rx="3" ry="3" style="stroke:#000000;stroke-width:1.0;"/><text fill="#000000" font-family="sans-serif" font-size="11" lengthAdjust="spacing" textLength="102" x="202.5" y="791.7227">extension_type : int</text><ellipse cx="193.5" cy="801.9457" fill="#000000" rx="3" ry="3" style="stroke:#000000;stroke-width:1.0;"/><text fill="#000000" font-family="sans-serif" font-size="11" lengthAdjust="spacing" textLength="87" x="202.5" y="806.7046">byte_size : bigint</text><ellipse cx="193.5" cy="816.9276" fill="#000000" rx="3" ry="3" style="stroke:#000000;stroke-width:1.0;"/><text fill="#000000" font-family="sans-serif" font-size="11" lengthAdjust="spacing" textLength="133" x="202.5" y="821.6865">fk_source_item_id : bigint</text><!--MD5=[1ef907470190a52481b72bc04299235e]
class aggregate--><rect codeLine="38" fill="#FEFECE" filter="url(#fqoo5zj1etvai)" height="167.8551" id="aggregate" style="stroke:#A80036;stroke-width:1.5;" width="156" x="7" y="250"/><ellipse cx="51.75" cy="266" fill="#ADD1B2" rx="11" ry="11" style="stroke:#A80036;stroke-width:1.0;"/><path d="M48.1094,272.5 L48.1094,260.3594 L55.7656,260.3594 L55.7656,262.4844 L50.4844,262.4844 L50.4844,265.1406 L55.5,265.1406 L55.5,267.2656 L50.4844,267.2656 L50.4844,270.375 L55.7656,270.375 L55.7656,272.5 L48.1094,272.5 Z " fill="#000000"/><text fill="#000000" font-family="sans-serif" font-size="12" lengthAdjust="spacing" textLength="58" x="72.25" y="270.656">aggregate</text><line style="stroke:#A80036;stroke-width:1.5;" x1="8" x2="162" y1="282" y2="282"/><ellipse cx="18" cy="293" fill="#000000" rx="3" ry="3" style="stroke:#000000;stroke-width:1.0;"/><text fill="#000000" font-family="sans-serif" font-size="11" lengthAdjust="spacing" textLength="50" x="27" y="297.7589">id : bigint</text><line style="stroke:#A80036;stroke-width:1.0;" x1="8" x2="162" y1="304.9819" y2="304.9819"/><ellipse cx="18" cy="315.9819" fill="#000000" rx="3" ry="3" style="stroke:#000000;stroke-width:1.0;"/><text fill="#000000" font-family="sans-serif" font-size="11" lengthAdjust="spacing" textLength="120" x="27" y="320.7408">create_time_ms : bigint</text><ellipse cx="18" cy="330.9638" fill="#000000" rx="3" ry="3" style="stroke:#000000;stroke-width:1.0;"/><text fill="#000000" font-family="sans-serif" font-size="11" lengthAdjust="spacing" textLength="130" x="27" y="335.7227">feed_name : varchar(255)</text><ellipse cx="18" cy="345.9457" fill="#000000" rx="3" ry="3" style="stroke:#000000;stroke-width:1.0;"/><text fill="#000000" font-family="sans-serif" font-size="11" lengthAdjust="spacing" textLength="130" x="27" y="350.7046">type_name : varchar(255)</text><ellipse cx="18" cy="360.9276" fill="#000000" rx="3" ry="3" style="stroke:#000000;stroke-width:1.0;"/><text fill="#000000" font-family="sans-serif" font-size="11" lengthAdjust="spacing" textLength="87" x="27" y="365.6865">byte_size : bigint</text><ellipse cx="18" cy="375.9094" fill="#000000" rx="3" ry="3" style="stroke:#000000;stroke-width:1.0;"/><text fill="#000000" font-family="sans-serif" font-size="11" lengthAdjust="spacing" textLength="51" x="27" y="380.6684">items : int</text><ellipse cx="18" cy="390.8913" fill="#000000" rx="3" ry="3" style="stroke:#000000;stroke-width:1.0;"/><text fill="#000000" font-family="sans-serif" font-size="11" lengthAdjust="spacing" textLength="100" x="27" y="395.6502">complete : boolean</text><ellipse cx="18" cy="405.8732" fill="#000000" rx="3" ry="3" style="stroke:#000000;stroke-width:1.0;"/><text fill="#000000" font-family="sans-serif" font-size="11" lengthAdjust="spacing" textLength="110" x="27" y="410.6321">new_position : bigint</text><!--MD5=[3cc1e4effaee23fb9097a8bf1d8fa0d4]
class forward_url--><rect codeLine="50" fill="#FEFECE" filter="url(#fqoo5zj1etvai)" height="77.9638" id="forward_url" style="stroke:#A80036;stroke-width:1.5;" width="114" x="198" y="295"/><ellipse cx="221.1" cy="311" fill="#ADD1B2" rx="11" ry="11" style="stroke:#A80036;stroke-width:1.0;"/><path d="M217.4594,317.5 L217.4594,305.3594 L225.1156,305.3594 L225.1156,307.4844 L219.8344,307.4844 L219.8344,310.1406 L224.85,310.1406 L224.85,312.2656 L219.8344,312.2656 L219.8344,315.375 L225.1156,315.375 L225.1156,317.5 L217.4594,317.5 Z " fill="#000000"/><text fill="#000000" font-family="sans-serif" font-size="12" lengthAdjust="spacing" textLength="64" x="236.9" y="315.656">forward_url</text><line style="stroke:#A80036;stroke-width:1.5;" x1="199" x2="311" y1="327" y2="327"/><ellipse cx="209" cy="338" fill="#000000" rx="3" ry="3" style="stroke:#000000;stroke-width:1.0;"/><text fill="#000000" font-family="sans-serif" font-size="11" lengthAdjust="spacing" textLength="33" x="218" y="342.7589">id : int</text><line style="stroke:#A80036;stroke-width:1.0;" x1="199" x2="311" y1="349.9819" y2="349.9819"/><ellipse cx="209" cy="360.9819" fill="#000000" rx="3" ry="3" style="stroke:#000000;stroke-width:1.0;"/><text fill="#000000" font-family="sans-serif" font-size="11" lengthAdjust="spacing" textLength="88" x="218" y="365.7408">url : varchar(255)</text><!--MD5=[cbb12bc3eee1de79b3f2e300a168c511]
class forward_source--><rect codeLine="56" fill="#FEFECE" filter="url(#fqoo5zj1etvai)" height="182.837" id="forward_source" style="stroke:#A80036;stroke-width:1.5;" width="151" x="321.5" y="7"/><ellipse cx="350.9" cy="23" fill="#ADD1B2" rx="11" ry="11" style="stroke:#A80036;stroke-width:1.0;"/><path d="M347.2594,29.5 L347.2594,17.3594 L354.9156,17.3594 L354.9156,19.4844 L349.6344,19.4844 L349.6344,22.1406 L354.65,22.1406 L354.65,24.2656 L349.6344,24.2656 L349.6344,27.375 L354.9156,27.375 L354.9156,29.5 L347.2594,29.5 Z " fill="#000000"/><text fill="#000000" font-family="sans-serif" font-size="12" lengthAdjust="spacing" textLength="87" x="368.1" y="27.656">forward_source</text><line style="stroke:#A80036;stroke-width:1.5;" x1="322.5" x2="471.5" y1="39" y2="39"/><ellipse cx="332.5" cy="50" fill="#000000" rx="3" ry="3" style="stroke:#000000;stroke-width:1.0;"/><text fill="#000000" font-family="sans-serif" font-size="11" lengthAdjust="spacing" textLength="50" x="341.5" y="54.7589">id : bigint</text><line style="stroke:#A80036;stroke-width:1.0;" x1="322.5" x2="471.5" y1="61.9819" y2="61.9819"/><ellipse cx="332.5" cy="72.9819" fill="#000000" rx="3" ry="3" style="stroke:#000000;stroke-width:1.0;"/><text fill="#000000" font-family="sans-serif" font-size="11" lengthAdjust="spacing" textLength="125" x="341.5" y="77.7408">update_time_ms : bigint</text><ellipse cx="332.5" cy="87.9638" fill="#000000" rx="3" ry="3" style="stroke:#000000;stroke-width:1.0;"/><text fill="#000000" font-family="sans-serif" font-size="11" lengthAdjust="spacing" textLength="116" x="341.5" y="92.7227">fk_forward_url_id : int</text><ellipse cx="332.5" cy="102.9457" fill="#000000" rx="3" ry="3" style="stroke:#000000;stroke-width:1.0;"/><text fill="#000000" font-family="sans-serif" font-size="11" lengthAdjust="spacing" textLength="105" x="341.5" y="107.7046">fk_source_id : bigint</text><ellipse cx="332.5" cy="117.9276" fill="#000000" rx="3" ry="3" style="stroke:#000000;stroke-width:1.0;"/><text fill="#000000" font-family="sans-serif" font-size="11" lengthAdjust="spacing" textLength="90" x="341.5" y="122.6865">success : boolean</text><ellipse cx="332.5" cy="132.9094" fill="#000000" rx="3" ry="3" style="stroke:#000000;stroke-width:1.0;"/><text fill="#000000" font-family="sans-serif" font-size="11" lengthAdjust="spacing" textLength="101" x="341.5" y="137.6684">error : varchar(255)</text><ellipse cx="332.5" cy="147.8913" fill="#000000" rx="3" ry="3" style="stroke:#000000;stroke-width:1.0;"/><text fill="#000000" font-family="sans-serif" font-size="11" lengthAdjust="spacing" textLength="63" x="341.5" y="152.6502">tries : bigint</text><ellipse cx="332.5" cy="162.8732" fill="#000000" rx="3" ry="3" style="stroke:#000000;stroke-width:1.0;"/><text fill="#000000" font-family="sans-serif" font-size="11" lengthAdjust="spacing" textLength="110" x="341.5" y="167.6321">new_position : bigint</text><ellipse cx="332.5" cy="177.8551" fill="#000000" rx="3" ry="3" style="stroke:#000000;stroke-width:1.0;"/><text fill="#000000" font-family="sans-serif" font-size="11" lengthAdjust="spacing" textLength="114" x="341.5" y="182.614">retry_position : bigint</text><!--MD5=[d4f398bbc1193deb68c8428dcb929078]
class forward_aggregate--><rect codeLine="69" fill="#FEFECE" filter="url(#fqoo5zj1etvai)" height="182.837" id="forward_aggregate" style="stroke:#A80036;stroke-width:1.5;" width="151" x="93.5" y="7"/><ellipse cx="113.9" cy="23" fill="#ADD1B2" rx="11" ry="11" style="stroke:#A80036;stroke-width:1.0;"/><path d="M110.2594,29.5 L110.2594,17.3594 L117.9156,17.3594 L117.9156,19.4844 L112.6344,19.4844 L112.6344,22.1406 L117.65,22.1406 L117.65,24.2656 L112.6344,24.2656 L112.6344,27.375 L117.9156,27.375 L117.9156,29.5 L110.2594,29.5 Z " fill="#000000"/><text fill="#000000" font-family="sans-serif" font-size="12" lengthAdjust="spacing" textLength="107" x="129.1" y="27.656">forward_aggregate</text><line style="stroke:#A80036;stroke-width:1.5;" x1="94.5" x2="243.5" y1="39" y2="39"/><ellipse cx="104.5" cy="50" fill="#000000" rx="3" ry="3" style="stroke:#000000;stroke-width:1.0;"/><text fill="#000000" font-family="sans-serif" font-size="11" lengthAdjust="spacing" textLength="50" x="113.5" y="54.7589">id : bigint</text><line style="stroke:#A80036;stroke-width:1.0;" x1="94.5" x2="243.5" y1="61.9819" y2="61.9819"/><ellipse cx="104.5" cy="72.9819" fill="#000000" rx="3" ry="3" style="stroke:#000000;stroke-width:1.0;"/><text fill="#000000" font-family="sans-serif" font-size="11" lengthAdjust="spacing" textLength="125" x="113.5" y="77.7408">update_time_ms : bigint</text><ellipse cx="104.5" cy="87.9638" fill="#000000" rx="3" ry="3" style="stroke:#000000;stroke-width:1.0;"/><text fill="#000000" font-family="sans-serif" font-size="11" lengthAdjust="spacing" textLength="116" x="113.5" y="92.7227">fk_forward_url_id : int</text><ellipse cx="104.5" cy="102.9457" fill="#000000" rx="3" ry="3" style="stroke:#000000;stroke-width:1.0;"/><text fill="#000000" font-family="sans-serif" font-size="11" lengthAdjust="spacing" textLength="124" x="113.5" y="107.7046">fk_aggregate_id : bigint</text><ellipse cx="104.5" cy="117.9276" fill="#000000" rx="3" ry="3" style="stroke:#000000;stroke-width:1.0;"/><text fill="#000000" font-family="sans-serif" font-size="11" lengthAdjust="spacing" textLength="90" x="113.5" y="122.6865">success : boolean</text><ellipse cx="104.5" cy="132.9094" fill="#000000" rx="3" ry="3" style="stroke:#000000;stroke-width:1.0;"/><text fill="#000000" font-family="sans-serif" font-size="11" lengthAdjust="spacing" textLength="101" x="113.5" y="137.6684">error : varchar(255)</text><ellipse cx="104.5" cy="147.8913" fill="#000000" rx="3" ry="3" style="stroke:#000000;stroke-width:1.0;"/><text fill="#000000" font-family="sans-serif" font-size="11" lengthAdjust="spacing" textLength="63" x="113.5" y="152.6502">tries : bigint</text><ellipse cx="104.5" cy="162.8732" fill="#000000" rx="3" ry="3" style="stroke:#000000;stroke-width:1.0;"/><text fill="#000000" font-family="sans-serif" font-size="11" lengthAdjust="spacing" textLength="110" x="113.5" y="167.6321">new_position : bigint</text><ellipse cx="104.5" cy="177.8551" fill="#000000" rx="3" ry="3" style="stroke:#000000;stroke-width:1.0;"/><text fill="#000000" font-family="sans-serif" font-size="11" lengthAdjust="spacing" textLength="114" x="113.5" y="182.614">retry_position : bigint</text><!--MD5=[bde66a182555eb887059de8293221a83]
link source to source_item--><path codeLine="82" d="M338.81,403 C338.81,403 327.67,403 327.67,403 C327.67,403 327.67,469.84 327.67,469.84 " fill="none" id="source-source_item" style="stroke:#A80036;stroke-width:1.0;stroke-dasharray:7.0,7.0;"/><line style="stroke:#A80036;stroke-width:1.0;" x1="327.67" x2="333.67" y1="469.84" y2="477.84"/><line style="stroke:#A80036;stroke-width:1.0;" x1="327.67" x2="321.67" y1="469.84" y2="477.84"/><line style="stroke:#A80036;stroke-width:1.0;" x1="327.67" x2="327.67" y1="469.84" y2="477.84"/><ellipse cx="327.67" cy="463.84" rx="4" ry="4" style="stroke:#A80036;stroke-width:1.0;fill:none;"/><line style="stroke:#A80036;stroke-width:1.0;fill:none;" x1="342.81" x2="342.81" y1="399" y2="407"/><line style="stroke:#A80036;stroke-width:1.0;fill:none;" x1="339.81" x2="339.81" y1="399" y2="407"/><line style="stroke:#A80036;stroke-width:1.0;fill:none;" x1="338.81" x2="346.81" y1="403" y2="403"/><!--MD5=[6610028f0c7a0554f2085ee3824405a3]
link source_item to source_entry--><path codeLine="83" d="M262,654.18 C262,654.18 262,697.79 262,697.79 " fill="none" id="source_item-source_entry" style="stroke:#A80036;stroke-width:1.0;"/><line style="stroke:#A80036;stroke-width:1.0;" x1="262" x2="268" y1="697.79" y2="705.79"/><line style="stroke:#A80036;stroke-width:1.0;" x1="262" x2="256" y1="697.79" y2="705.79"/><line style="stroke:#A80036;stroke-width:1.0;" x1="262" x2="262" y1="697.79" y2="705.79"/><line style="stroke:#A80036;stroke-width:1.0;" x1="266" x2="258" y1="695.79" y2="695.79"/><line style="stroke:#A80036;stroke-width:1.0;" x1="258" x2="266" y1="650.18" y2="650.18"/><line style="stroke:#A80036;stroke-width:1.0;" x1="258" x2="266" y1="653.18" y2="653.18"/><line style="stroke:#A80036;stroke-width:1.0;" x1="262" x2="262" y1="654.18" y2="646.18"/><!--MD5=[c19e3c6eb4e2962e1f79b15e01c56d18]
link aggregate to source_item--><path codeLine="84" d="M171.15,388 C171.15,388 191,388 191,388 C191,388 191,469.8 191,469.8 " fill="none" id="aggregate-source_item" style="stroke:#A80036;stroke-width:1.0;"/><line style="stroke:#A80036;stroke-width:1.0;" x1="191" x2="197" y1="469.8" y2="477.8"/><line style="stroke:#A80036;stroke-width:1.0;" x1="191" x2="185" y1="469.8" y2="477.8"/><line style="stroke:#A80036;stroke-width:1.0;" x1="191" x2="191" y1="469.8" y2="477.8"/><line style="stroke:#A80036;stroke-width:1.0;" x1="195" x2="187" y1="467.8" y2="467.8"/><line style="stroke:#A80036;stroke-width:1.0;" x1="167.15" x2="167.15" y1="392" y2="384"/><line style="stroke:#A80036;stroke-width:1.0;" x1="170.15" x2="170.15" y1="392" y2="384"/><line style="stroke:#A80036;stroke-width:1.0;" x1="171.15" x2="163.15" y1="388" y2="388"/><!--MD5=[237522a801e7bb9308fa36e58d02c106]
link forward_source to forward_url--><path codeLine="85" d="M333.83,198.22 C333.83,198.22 333.83,334 333.83,334 C333.83,334 320.29,334 320.29,334 " fill="none" id="forward_source-forward_url" style="stroke:#A80036;stroke-width:1.0;"/><line style="stroke:#A80036;stroke-width:1.0;" x1="316.29" x2="316.29" y1="338" y2="330"/><line style="stroke:#A80036;stroke-width:1.0;" x1="319.29" x2="319.29" y1="338" y2="330"/><line style="stroke:#A80036;stroke-width:1.0;" x1="320.29" x2="312.29" y1="334" y2="334"/><line style="stroke:#A80036;stroke-width:1.0;" x1="333.83" x2="327.83" y1="198.22" y2="190.22"/><line style="stroke:#A80036;stroke-width:1.0;" x1="333.83" x2="339.83" y1="198.22" y2="190.22"/><line style="stroke:#A80036;stroke-width:1.0;" x1="333.83" x2="333.83" y1="198.22" y2="190.22"/><ellipse cx="333.83" cy="204.22" rx="4" ry="4" style="stroke:#A80036;stroke-width:1.0;fill:none;"/><!--MD5=[d49f4a8229bc31f1f5d61244df6e6e3c]
link forward_source to source--><path codeLine="86" d="M409.75,198.22 C409.75,198.22 409.75,241.83 409.75,241.83 " fill="none" id="forward_source-source" style="stroke:#A80036;stroke-width:1.0;stroke-dasharray:7.0,7.0;"/><line style="stroke:#A80036;stroke-width:1.0;" x1="413.75" x2="405.75" y1="245.83" y2="245.83"/><line style="stroke:#A80036;stroke-width:1.0;" x1="413.75" x2="405.75" y1="242.83" y2="242.83"/><line style="stroke:#A80036;stroke-width:1.0;" x1="409.75" x2="409.75" y1="241.83" y2="249.83"/><line style="stroke:#A80036;stroke-width:1.0;" x1="409.75" x2="403.75" y1="198.22" y2="190.22"/><line style="stroke:#A80036;stroke-width:1.0;" x1="409.75" x2="415.75" y1="198.22" y2="190.22"/><line style="stroke:#A80036;stroke-width:1.0;" x1="409.75" x2="409.75" y1="198.22" y2="190.22"/><ellipse cx="409.75" cy="204.22" rx="4" ry="4" style="stroke:#A80036;stroke-width:1.0;fill:none;"/><!--MD5=[04d9ecdcc61a774a98679dad38ac2f3f]
link forward_aggregate to forward_url--><path codeLine="87" d="M221.25,198.22 C221.25,198.22 221.25,286.77 221.25,286.77 " fill="none" id="forward_aggregate-forward_url" style="stroke:#A80036;stroke-width:1.0;"/><line style="stroke:#A80036;stroke-width:1.0;" x1="225.25" x2="217.25" y1="290.77" y2="290.77"/><line style="stroke:#A80036;stroke-width:1.0;" x1="225.25" x2="217.25" y1="287.77" y2="287.77"/><line style="stroke:#A80036;stroke-width:1.0;" x1="221.25" x2="221.25" y1="286.77" y2="294.77"/><line style="stroke:#A80036;stroke-width:1.0;" x1="221.25" x2="215.25" y1="198.22" y2="190.22"/><line style="stroke:#A80036;stroke-width:1.0;" x1="221.25" x2="227.25" y1="198.22" y2="190.22"/><line style="stroke:#A80036;stroke-width:1.0;" x1="221.25" x2="221.25" y1="198.22" y2="190.22"/><ellipse cx="221.25" cy="204.22" rx="4" ry="4" style="stroke:#A80036;stroke-width:1.0;fill:none;"/><!--MD5=[0ac3d8377118ba1284c6e32a49f23729]
link forward_aggregate to aggregate--><path codeLine="88" d="M128.25,198.22 C128.25,198.22 128.25,241.83 128.25,241.83 " fill="none" id="forward_aggregate-aggregate" style="stroke:#A80036;stroke-width:1.0;"/><line style="stroke:#A80036;stroke-width:1.0;" x1="132.25" x2="124.25" y1="245.83" y2="245.83"/><line style="stroke:#A80036;stroke-width:1.0;" x1="132.25" x2="124.25" y1="242.83" y2="242.83"/><line style="stroke:#A80036;stroke-width:1.0;" x1="128.25" x2="128.25" y1="241.83" y2="249.83"/><line style="stroke:#A80036;stroke-width:1.0;" x1="128.25" x2="122.25" y1="198.22" y2="190.22"/><line style="stroke:#A80036;stroke-width:1.0;" x1="128.25" x2="134.25" y1="198.22" y2="190.22"/><line style="stroke:#A80036;stroke-width:1.0;" x1="128.25" x2="128.25" y1="198.22" y2="190.22"/><ellipse cx="128.25" cy="204.22" rx="4" ry="4" style="stroke:#A80036;stroke-width:1.0;fill:none;"/><!--MD5=[4d5759f4e417af5cb1f00a09b531005b]
@startuml

' avoid problems with angled crows feet
skinparam linetype ortho

entity source {
  *id : bigint
  - -
  *path : varchar(255) - unique
  *feed_name : varchar(255)
  *type_name : varchar(255)
  *last_modified_time_ms : bigint
  *examined : boolean
  *forwarded : boolean
  *new_position : bigint
}

entity source_item {
  *id : bigint
  - -
  *name : varchar(255)
  *feed_name : varchar(255)
  *type_name : varchar(255)
  *byte_size : bigint
  *fk_source_id : bigint
  *fk_aggregate_id : bigint
  *new_position : bigint
}

entity source_entry {
  *id : bigint
  - -
  *extension : varchar(255)
  *extension_type : int
  *byte_size : bigint
  *fk_source_item_id : bigint
}

entity aggregate {
  *id : bigint
  - -
  *create_time_ms : bigint
  *feed_name : varchar(255)
  *type_name : varchar(255)
  *byte_size : bigint
  *items : int
  *complete : boolean
  *new_position : bigint
}

entity forward_url {
  *id : int
  - -
  *url : varchar(255)
}

entity forward_source {
  *id : bigint
  - -
  *update_time_ms : bigint
  *fk_forward_url_id : int
  *fk_source_id : bigint
  *success : boolean
  *error : varchar(255)
  *tries : bigint
  *new_position : bigint
  *retry_position : bigint
}

entity forward_aggregate {
  *id : bigint
  - -
  *update_time_ms : bigint
  *fk_forward_url_id : int
  *fk_aggregate_id : bigint
  *success : boolean
  *error : varchar(255)
  *tries : bigint
  *new_position : bigint
  *retry_position : bigint
}

source ||..o{ source_item
source_item ||- -|{ source_entry
aggregate ||- -|{ source_item
forward_source }o- -|| forward_url
forward_source }o..|| source
forward_aggregate }o- -|| forward_url
forward_aggregate }o- -|| aggregate

@enduml

@startuml

skinparam linetype ortho

entity source {
  *id : bigint
  - -
  *path : varchar(255) - unique
  *feed_name : varchar(255)
  *type_name : varchar(255)
  *last_modified_time_ms : bigint
  *examined : boolean
  *forwarded : boolean
  *new_position : bigint
}

entity source_item {
  *id : bigint
  - -
  *name : varchar(255)
  *feed_name : varchar(255)
  *type_name : varchar(255)
  *byte_size : bigint
  *fk_source_id : bigint
  *fk_aggregate_id : bigint
  *new_position : bigint
}

entity source_entry {
  *id : bigint
  - -
  *extension : varchar(255)
  *extension_type : int
  *byte_size : bigint
  *fk_source_item_id : bigint
}

entity aggregate {
  *id : bigint
  - -
  *create_time_ms : bigint
  *feed_name : varchar(255)
  *type_name : varchar(255)
  *byte_size : bigint
  *items : int
  *complete : boolean
  *new_position : bigint
}

entity forward_url {
  *id : int
  - -
  *url : varchar(255)
}

entity forward_source {
  *id : bigint
  - -
  *update_time_ms : bigint
  *fk_forward_url_id : int
  *fk_source_id : bigint
  *success : boolean
  *error : varchar(255)
  *tries : bigint
  *new_position : bigint
  *retry_position : bigint
}

entity forward_aggregate {
  *id : bigint
  - -
  *update_time_ms : bigint
  *fk_forward_url_id : int
  *fk_aggregate_id : bigint
  *success : boolean
  *error : varchar(255)
  *tries : bigint
  *new_position : bigint
  *retry_position : bigint
}

source ||..o{ source_item
source_item ||- -|{ source_entry
aggregate ||- -|{ source_item
forward_source }o- -|| forward_url
forward_source }o..|| source
forward_aggregate }o- -|| forward_url
forward_aggregate }o- -|| aggregate

@enduml

PlantUML version 1.2021.16(Wed Dec 08 17:25:22 GMT 2021)
(GPL source distribution)
Java Runtime: OpenJDK Runtime Environment
JVM: OpenJDK 64-Bit Server VM
Default Encoding: UTF-8
Language: en
Country: GB
--></g></svg>