<?xml version="1.0" encoding="UTF-8" standalone="no"?><svg xmlns="http://www.w3.org/2000/svg" xmlns:xlink="http://www.w3.org/1999/xlink" contentScriptType="application/ecmascript" contentStyleType="text/css" height="752px" preserveAspectRatio="none" style="width:526px;height:752px;" version="1.1" viewBox="0 0 526 752" width="526px" zoomAndPan="magnify"><defs><filter height="300%" id="f1fx2mctc0vg3h" width="300%" x="-1" y="-1"><feGaussianBlur result="blurOut" stdDeviation="2.0"/><feColorMatrix in="blurOut" result="blurOut2" type="matrix" values="0 0 0 0 0 0 0 0 0 0 0 0 0 0 0 0 0 0 .4 0"/><feOffset dx="4.0" dy="4.0" in="blurOut2" result="blurOut3"/><feBlend in="SourceGraphic" in2="blurOut3" mode="normal"/></filter></defs><g><!--MD5=[a89e013394a4179b87aacb584f03bea5]
class feed--><rect codeLine="5" fill="#FEFECE" filter="url(#f1fx2mctc0vg3h)" height="86.4141" id="feed" style="stroke:#A80036;stroke-width:1.5;" width="151" x="7" y="45.5"/><ellipse cx="66.25" cy="61.5" fill="#ADD1B2" rx="11" ry="11" style="stroke:#A80036;stroke-width:1.0;"/><path d="M69.2656,67.5 L62.2813,67.5 L62.2813,55.3594 L69.2656,55.3594 L69.2656,57.4688 L64.8438,57.4688 L64.8438,60.1406 L68.9531,60.1406 L68.9531,62.25 L64.8438,62.25 L64.8438,65.375 L69.2656,65.375 L69.2656,67.5 Z " fill="#000000"/><text fill="#000000" font-family="sans-serif" font-size="12" lengthAdjust="spacing" textLength="24" x="86.75" y="65.6543">feed</text><line style="stroke:#A80036;stroke-width:1.5;" x1="8" x2="157" y1="77.5" y2="77.5"/><ellipse cx="18" cy="88.5" fill="#000000" rx="3" ry="3" style="stroke:#000000;stroke-width:1.0;"/><text fill="#000000" font-family="sans-serif" font-size="11" lengthAdjust="spacing" textLength="43" x="27" y="91.7104">id : bigint</text><line style="stroke:#A80036;stroke-width:1.0;" x1="8" x2="157" y1="98.3047" y2="98.3047"/><ellipse cx="18" cy="109.3047" fill="#000000" rx="3" ry="3" style="stroke:#000000;stroke-width:1.0;"/><text fill="#000000" font-family="sans-serif" font-size="11" lengthAdjust="spacing" textLength="125" x="27" y="112.5151">feed_name : varchar(255)</text><ellipse cx="18" cy="122.1094" fill="#000000" rx="3" ry="3" style="stroke:#000000;stroke-width:1.0;"/><text fill="#000000" font-family="sans-serif" font-size="11" lengthAdjust="spacing" textLength="125" x="27" y="125.3198">type_name : varchar(255)</text><!--MD5=[fb94403e3d3521d383fd6507b67b3642]
class source--><rect codeLine="12" fill="#FEFECE" filter="url(#f1fx2mctc0vg3h)" height="124.8281" id="source" style="stroke:#A80036;stroke-width:1.5;" width="160" x="9.5" y="236.5"/><ellipse cx="66.75" cy="252.5" fill="#ADD1B2" rx="11" ry="11" style="stroke:#A80036;stroke-width:1.0;"/><path d="M69.7656,258.5 L62.7813,258.5 L62.7813,246.3594 L69.7656,246.3594 L69.7656,248.4688 L65.3438,248.4688 L65.3438,251.1406 L69.4531,251.1406 L69.4531,253.25 L65.3438,253.25 L65.3438,256.375 L69.7656,256.375 L69.7656,258.5 Z " fill="#000000"/><text fill="#000000" font-family="sans-serif" font-size="12" lengthAdjust="spacing" textLength="37" x="87.25" y="256.6543">source</text><line style="stroke:#A80036;stroke-width:1.5;" x1="10.5" x2="168.5" y1="268.5" y2="268.5"/><ellipse cx="20.5" cy="279.5" fill="#000000" rx="3" ry="3" style="stroke:#000000;stroke-width:1.0;"/><text fill="#000000" font-family="sans-serif" font-size="11" lengthAdjust="spacing" textLength="43" x="29.5" y="282.7104">id : bigint</text><line style="stroke:#A80036;stroke-width:1.0;" x1="10.5" x2="168.5" y1="289.3047" y2="289.3047"/><ellipse cx="20.5" cy="300.3047" fill="#000000" rx="3" ry="3" style="stroke:#000000;stroke-width:1.0;"/><text fill="#000000" font-family="sans-serif" font-size="11" lengthAdjust="spacing" textLength="134" x="29.5" y="303.5151">path : varchar(255) - unique</text><ellipse cx="20.5" cy="313.1094" fill="#000000" rx="3" ry="3" style="stroke:#000000;stroke-width:1.0;"/><text fill="#000000" font-family="sans-serif" font-size="11" lengthAdjust="spacing" textLength="84" x="29.5" y="316.3198">fk_feed_id : bigint</text><ellipse cx="20.5" cy="325.9141" fill="#000000" rx="3" ry="3" style="stroke:#000000;stroke-width:1.0;"/><text fill="#000000" font-family="sans-serif" font-size="11" lengthAdjust="spacing" textLength="95" x="29.5" y="329.1245">examined : boolean</text><ellipse cx="20.5" cy="338.7188" fill="#000000" rx="3" ry="3" style="stroke:#000000;stroke-width:1.0;"/><text fill="#000000" font-family="sans-serif" font-size="11" lengthAdjust="spacing" textLength="97" x="29.5" y="341.9292">item_count : integer</text><ellipse cx="20.5" cy="351.5234" fill="#000000" rx="3" ry="3" style="stroke:#000000;stroke-width:1.0;"/><text fill="#000000" font-family="sans-serif" font-size="11" lengthAdjust="spacing" textLength="97" x="29.5" y="354.7339">new_position : bigint</text><!--MD5=[23693ca385c1414b1e74e8b4c3b37cb4]
class source_item--><rect codeLine="22" fill="#FEFECE" filter="url(#f1fx2mctc0vg3h)" height="137.6328" id="source_item" style="stroke:#A80036;stroke-width:1.5;" width="138" x="20.5" y="428"/><ellipse cx="53.05" cy="444" fill="#ADD1B2" rx="11" ry="11" style="stroke:#A80036;stroke-width:1.0;"/><path d="M56.0656,450 L49.0813,450 L49.0813,437.8594 L56.0656,437.8594 L56.0656,439.9688 L51.6438,439.9688 L51.6438,442.6406 L55.7531,442.6406 L55.7531,444.75 L51.6438,444.75 L51.6438,447.875 L56.0656,447.875 L56.0656,450 Z " fill="#000000"/><text fill="#000000" font-family="sans-serif" font-size="12" lengthAdjust="spacing" textLength="67" x="70.95" y="448.1543">source_item</text><line style="stroke:#A80036;stroke-width:1.5;" x1="21.5" x2="157.5" y1="460" y2="460"/><ellipse cx="31.5" cy="471" fill="#000000" rx="3" ry="3" style="stroke:#000000;stroke-width:1.0;"/><text fill="#000000" font-family="sans-serif" font-size="11" lengthAdjust="spacing" textLength="43" x="40.5" y="474.2104">id : bigint</text><line style="stroke:#A80036;stroke-width:1.0;" x1="21.5" x2="157.5" y1="480.8047" y2="480.8047"/><ellipse cx="31.5" cy="491.8047" fill="#000000" rx="3" ry="3" style="stroke:#000000;stroke-width:1.0;"/><text fill="#000000" font-family="sans-serif" font-size="11" lengthAdjust="spacing" textLength="98" x="40.5" y="495.0151">name : varchar(255)</text><ellipse cx="31.5" cy="504.6094" fill="#000000" rx="3" ry="3" style="stroke:#000000;stroke-width:1.0;"/><text fill="#000000" font-family="sans-serif" font-size="11" lengthAdjust="spacing" textLength="84" x="40.5" y="507.8198">fk_feed_id : bigint</text><ellipse cx="31.5" cy="517.4141" fill="#000000" rx="3" ry="3" style="stroke:#000000;stroke-width:1.0;"/><text fill="#000000" font-family="sans-serif" font-size="11" lengthAdjust="spacing" textLength="80" x="40.5" y="520.6245">byte_size : bigint</text><ellipse cx="31.5" cy="530.2188" fill="#000000" rx="3" ry="3" style="stroke:#000000;stroke-width:1.0;"/><text fill="#000000" font-family="sans-serif" font-size="11" lengthAdjust="spacing" textLength="94" x="40.5" y="533.4292">fk_source_id : bigint</text><ellipse cx="31.5" cy="543.0234" fill="#000000" rx="3" ry="3" style="stroke:#000000;stroke-width:1.0;"/><text fill="#000000" font-family="sans-serif" font-size="11" lengthAdjust="spacing" textLength="112" x="40.5" y="546.2339">fk_aggregate_id : bigint</text><ellipse cx="31.5" cy="555.8281" fill="#000000" rx="3" ry="3" style="stroke:#000000;stroke-width:1.0;"/><text fill="#000000" font-family="sans-serif" font-size="11" lengthAdjust="spacing" textLength="97" x="40.5" y="559.0386">new_position : bigint</text><!--MD5=[920d5660a06730163c0204a2780a33ae]
class source_entry--><rect codeLine="33" fill="#FEFECE" filter="url(#f1fx2mctc0vg3h)" height="112.0234" id="source_entry" style="stroke:#A80036;stroke-width:1.5;" width="147" x="16" y="626"/><ellipse cx="51.7" cy="642" fill="#ADD1B2" rx="11" ry="11" style="stroke:#A80036;stroke-width:1.0;"/><path d="M54.7156,648 L47.7313,648 L47.7313,635.8594 L54.7156,635.8594 L54.7156,637.9688 L50.2938,637.9688 L50.2938,640.6406 L54.4031,640.6406 L54.4031,642.75 L50.2938,642.75 L50.2938,645.875 L54.7156,645.875 L54.7156,648 Z " fill="#000000"/><text fill="#000000" font-family="sans-serif" font-size="12" lengthAdjust="spacing" textLength="69" x="70.3" y="646.1543">source_entry</text><line style="stroke:#A80036;stroke-width:1.5;" x1="17" x2="162" y1="658" y2="658"/><ellipse cx="27" cy="669" fill="#000000" rx="3" ry="3" style="stroke:#000000;stroke-width:1.0;"/><text fill="#000000" font-family="sans-serif" font-size="11" lengthAdjust="spacing" textLength="43" x="36" y="672.2104">id : bigint</text><line style="stroke:#A80036;stroke-width:1.0;" x1="17" x2="162" y1="678.8047" y2="678.8047"/><ellipse cx="27" cy="689.8047" fill="#000000" rx="3" ry="3" style="stroke:#000000;stroke-width:1.0;"/><text fill="#000000" font-family="sans-serif" font-size="11" lengthAdjust="spacing" textLength="117" x="36" y="693.0151">extension : varchar(255)</text><ellipse cx="27" cy="702.6094" fill="#000000" rx="3" ry="3" style="stroke:#000000;stroke-width:1.0;"/><text fill="#000000" font-family="sans-serif" font-size="11" lengthAdjust="spacing" textLength="95" x="36" y="705.8198">extension_type : int</text><ellipse cx="27" cy="715.4141" fill="#000000" rx="3" ry="3" style="stroke:#000000;stroke-width:1.0;"/><text fill="#000000" font-family="sans-serif" font-size="11" lengthAdjust="spacing" textLength="80" x="36" y="718.6245">byte_size : bigint</text><ellipse cx="27" cy="728.2188" fill="#000000" rx="3" ry="3" style="stroke:#000000;stroke-width:1.0;"/><text fill="#000000" font-family="sans-serif" font-size="11" lengthAdjust="spacing" textLength="121" x="36" y="731.4292">fk_source_item_id : bigint</text><!--MD5=[1ef907470190a52481b72bc04299235e]
class aggregate--><rect codeLine="42" fill="#FEFECE" filter="url(#f1fx2mctc0vg3h)" height="137.6328" id="aggregate" style="stroke:#A80036;stroke-width:1.5;" width="139" x="205" y="230"/><ellipse cx="243.85" cy="246" fill="#ADD1B2" rx="11" ry="11" style="stroke:#A80036;stroke-width:1.0;"/><path d="M246.8656,252 L239.8813,252 L239.8813,239.8594 L246.8656,239.8594 L246.8656,241.9688 L242.4438,241.9688 L242.4438,244.6406 L246.5531,244.6406 L246.5531,246.75 L242.4438,246.75 L242.4438,249.875 L246.8656,249.875 L246.8656,252 Z " fill="#000000"/><text fill="#000000" font-family="sans-serif" font-size="12" lengthAdjust="spacing" textLength="54" x="263.15" y="250.1543">aggregate</text><line style="stroke:#A80036;stroke-width:1.5;" x1="206" x2="343" y1="262" y2="262"/><ellipse cx="216" cy="273" fill="#000000" rx="3" ry="3" style="stroke:#000000;stroke-width:1.0;"/><text fill="#000000" font-family="sans-serif" font-size="11" lengthAdjust="spacing" textLength="43" x="225" y="276.2104">id : bigint</text><line style="stroke:#A80036;stroke-width:1.0;" x1="206" x2="343" y1="282.8047" y2="282.8047"/><ellipse cx="216" cy="293.8047" fill="#000000" rx="3" ry="3" style="stroke:#000000;stroke-width:1.0;"/><text fill="#000000" font-family="sans-serif" font-size="11" lengthAdjust="spacing" textLength="113" x="225" y="297.0151">create_time_ms : bigint</text><ellipse cx="216" cy="306.6094" fill="#000000" rx="3" ry="3" style="stroke:#000000;stroke-width:1.0;"/><text fill="#000000" font-family="sans-serif" font-size="11" lengthAdjust="spacing" textLength="84" x="225" y="309.8198">fk_feed_id : bigint</text><ellipse cx="216" cy="319.4141" fill="#000000" rx="3" ry="3" style="stroke:#000000;stroke-width:1.0;"/><text fill="#000000" font-family="sans-serif" font-size="11" lengthAdjust="spacing" textLength="80" x="225" y="322.6245">byte_size : bigint</text><ellipse cx="216" cy="332.2188" fill="#000000" rx="3" ry="3" style="stroke:#000000;stroke-width:1.0;"/><text fill="#000000" font-family="sans-serif" font-size="11" lengthAdjust="spacing" textLength="48" x="225" y="335.4292">items : int</text><ellipse cx="216" cy="345.0234" fill="#000000" rx="3" ry="3" style="stroke:#000000;stroke-width:1.0;"/><text fill="#000000" font-family="sans-serif" font-size="11" lengthAdjust="spacing" textLength="92" x="225" y="348.2339">complete : boolean</text><ellipse cx="216" cy="357.8281" fill="#000000" rx="3" ry="3" style="stroke:#000000;stroke-width:1.0;"/><text fill="#000000" font-family="sans-serif" font-size="11" lengthAdjust="spacing" textLength="97" x="225" y="361.0386">new_position : bigint</text><!--MD5=[9ec5b5fc933be4ccfb94bd357655b06c]
class forward_dest--><rect codeLine="53" fill="#FEFECE" filter="url(#f1fx2mctc0vg3h)" height="73.6094" id="forward_dest" style="stroke:#A80036;stroke-width:1.5;" width="124" x="379.5" y="262"/><ellipse cx="404.4" cy="278" fill="#ADD1B2" rx="11" ry="11" style="stroke:#A80036;stroke-width:1.0;"/><path d="M407.4156,284 L400.4313,284 L400.4313,271.8594 L407.4156,271.8594 L407.4156,273.9688 L402.9938,273.9688 L402.9938,276.6406 L407.1031,276.6406 L407.1031,278.75 L402.9938,278.75 L402.9938,281.875 L407.4156,281.875 L407.4156,284 Z " fill="#000000"/><text fill="#000000" font-family="sans-serif" font-size="12" lengthAdjust="spacing" textLength="70" x="420.6" y="282.1543">forward_dest</text><line style="stroke:#A80036;stroke-width:1.5;" x1="380.5" x2="502.5" y1="294" y2="294"/><ellipse cx="390.5" cy="305" fill="#000000" rx="3" ry="3" style="stroke:#000000;stroke-width:1.0;"/><text fill="#000000" font-family="sans-serif" font-size="11" lengthAdjust="spacing" textLength="29" x="399.5" y="308.2104">id : int</text><line style="stroke:#A80036;stroke-width:1.0;" x1="380.5" x2="502.5" y1="314.8047" y2="314.8047"/><ellipse cx="390.5" cy="325.8047" fill="#000000" rx="3" ry="3" style="stroke:#000000;stroke-width:1.0;"/><text fill="#000000" font-family="sans-serif" font-size="11" lengthAdjust="spacing" textLength="98" x="399.5" y="329.0151">name : varchar(255)</text><!--MD5=[cbb12bc3eee1de79b3f2e300a168c511]
class forward_source--><rect codeLine="59" fill="#FEFECE" filter="url(#f1fx2mctc0vg3h)" height="163.2422" id="forward_source" style="stroke:#A80036;stroke-width:1.5;" width="142" x="193.5" y="7"/><ellipse cx="220.65" cy="23" fill="#ADD1B2" rx="11" ry="11" style="stroke:#A80036;stroke-width:1.0;"/><path d="M223.6656,29 L216.6813,29 L216.6813,16.8594 L223.6656,16.8594 L223.6656,18.9688 L219.2438,18.9688 L219.2438,21.6406 L223.3531,21.6406 L223.3531,23.75 L219.2438,23.75 L219.2438,26.875 L223.6656,26.875 L223.6656,29 Z " fill="#000000"/><text fill="#000000" font-family="sans-serif" font-size="12" lengthAdjust="spacing" textLength="83" x="237.35" y="27.1543">forward_source</text><line style="stroke:#A80036;stroke-width:1.5;" x1="194.5" x2="334.5" y1="39" y2="39"/><ellipse cx="204.5" cy="50" fill="#000000" rx="3" ry="3" style="stroke:#000000;stroke-width:1.0;"/><text fill="#000000" font-family="sans-serif" font-size="11" lengthAdjust="spacing" textLength="43" x="213.5" y="53.2104">id : bigint</text><line style="stroke:#A80036;stroke-width:1.0;" x1="194.5" x2="334.5" y1="59.8047" y2="59.8047"/><ellipse cx="204.5" cy="70.8047" fill="#000000" rx="3" ry="3" style="stroke:#000000;stroke-width:1.0;"/><text fill="#000000" font-family="sans-serif" font-size="11" lengthAdjust="spacing" textLength="116" x="213.5" y="74.0151">update_time_ms : bigint</text><ellipse cx="204.5" cy="83.6094" fill="#000000" rx="3" ry="3" style="stroke:#000000;stroke-width:1.0;"/><text fill="#000000" font-family="sans-serif" font-size="11" lengthAdjust="spacing" textLength="112" x="213.5" y="86.8198">fk_forward_dest_id : int</text><ellipse cx="204.5" cy="96.4141" fill="#000000" rx="3" ry="3" style="stroke:#000000;stroke-width:1.0;"/><text fill="#000000" font-family="sans-serif" font-size="11" lengthAdjust="spacing" textLength="94" x="213.5" y="99.6245">fk_source_id : bigint</text><ellipse cx="204.5" cy="109.2188" fill="#000000" rx="3" ry="3" style="stroke:#000000;stroke-width:1.0;"/><text fill="#000000" font-family="sans-serif" font-size="11" lengthAdjust="spacing" textLength="84" x="213.5" y="112.4292">success : boolean</text><ellipse cx="204.5" cy="122.0234" fill="#000000" rx="3" ry="3" style="stroke:#000000;stroke-width:1.0;"/><text fill="#000000" font-family="sans-serif" font-size="11" lengthAdjust="spacing" textLength="94" x="213.5" y="125.2339">error : varchar(255)</text><ellipse cx="204.5" cy="134.8281" fill="#000000" rx="3" ry="3" style="stroke:#000000;stroke-width:1.0;"/><text fill="#000000" font-family="sans-serif" font-size="11" lengthAdjust="spacing" textLength="56" x="213.5" y="138.0386">tries : bigint</text><ellipse cx="204.5" cy="147.6328" fill="#000000" rx="3" ry="3" style="stroke:#000000;stroke-width:1.0;"/><text fill="#000000" font-family="sans-serif" font-size="11" lengthAdjust="spacing" textLength="97" x="213.5" y="150.8433">new_position : bigint</text><ellipse cx="204.5" cy="160.4375" fill="#000000" rx="3" ry="3" style="stroke:#000000;stroke-width:1.0;"/><text fill="#000000" font-family="sans-serif" font-size="11" lengthAdjust="spacing" textLength="101" x="213.5" y="163.6479">retry_position : bigint</text><!--MD5=[d4f398bbc1193deb68c8428dcb929078]
class forward_aggregate--><rect codeLine="72" fill="#FEFECE" filter="url(#f1fx2mctc0vg3h)" height="163.2422" id="forward_aggregate" style="stroke:#A80036;stroke-width:1.5;" width="142" x="370.5" y="7"/><ellipse cx="390" cy="23" fill="#ADD1B2" rx="11" ry="11" style="stroke:#A80036;stroke-width:1.0;"/><path d="M393.0156,29 L386.0313,29 L386.0313,16.8594 L393.0156,16.8594 L393.0156,18.9688 L388.5938,18.9688 L388.5938,21.6406 L392.7031,21.6406 L392.7031,23.75 L388.5938,23.75 L388.5938,26.875 L393.0156,26.875 L393.0156,29 Z " fill="#000000"/><text fill="#000000" font-family="sans-serif" font-size="12" lengthAdjust="spacing" textLength="100" x="405" y="27.1543">forward_aggregate</text><line style="stroke:#A80036;stroke-width:1.5;" x1="371.5" x2="511.5" y1="39" y2="39"/><ellipse cx="381.5" cy="50" fill="#000000" rx="3" ry="3" style="stroke:#000000;stroke-width:1.0;"/><text fill="#000000" font-family="sans-serif" font-size="11" lengthAdjust="spacing" textLength="43" x="390.5" y="53.2104">id : bigint</text><line style="stroke:#A80036;stroke-width:1.0;" x1="371.5" x2="511.5" y1="59.8047" y2="59.8047"/><ellipse cx="381.5" cy="70.8047" fill="#000000" rx="3" ry="3" style="stroke:#000000;stroke-width:1.0;"/><text fill="#000000" font-family="sans-serif" font-size="11" lengthAdjust="spacing" textLength="116" x="390.5" y="74.0151">update_time_ms : bigint</text><ellipse cx="381.5" cy="83.6094" fill="#000000" rx="3" ry="3" style="stroke:#000000;stroke-width:1.0;"/><text fill="#000000" font-family="sans-serif" font-size="11" lengthAdjust="spacing" textLength="112" x="390.5" y="86.8198">fk_forward_dest_id : int</text><ellipse cx="381.5" cy="96.4141" fill="#000000" rx="3" ry="3" style="stroke:#000000;stroke-width:1.0;"/><text fill="#000000" font-family="sans-serif" font-size="11" lengthAdjust="spacing" textLength="112" x="390.5" y="99.6245">fk_aggregate_id : bigint</text><ellipse cx="381.5" cy="109.2188" fill="#000000" rx="3" ry="3" style="stroke:#000000;stroke-width:1.0;"/><text fill="#000000" font-family="sans-serif" font-size="11" lengthAdjust="spacing" textLength="84" x="390.5" y="112.4292">success : boolean</text><ellipse cx="381.5" cy="122.0234" fill="#000000" rx="3" ry="3" style="stroke:#000000;stroke-width:1.0;"/><text fill="#000000" font-family="sans-serif" font-size="11" lengthAdjust="spacing" textLength="94" x="390.5" y="125.2339">error : varchar(255)</text><ellipse cx="381.5" cy="134.8281" fill="#000000" rx="3" ry="3" style="stroke:#000000;stroke-width:1.0;"/><text fill="#000000" font-family="sans-serif" font-size="11" lengthAdjust="spacing" textLength="56" x="390.5" y="138.0386">tries : bigint</text><ellipse cx="381.5" cy="147.6328" fill="#000000" rx="3" ry="3" style="stroke:#000000;stroke-width:1.0;"/><text fill="#000000" font-family="sans-serif" font-size="11" lengthAdjust="spacing" textLength="97" x="390.5" y="150.8433">new_position : bigint</text><ellipse cx="381.5" cy="160.4375" fill="#000000" rx="3" ry="3" style="stroke:#000000;stroke-width:1.0;"/><text fill="#000000" font-family="sans-serif" font-size="11" lengthAdjust="spacing" textLength="101" x="390.5" y="163.6479">retry_position : bigint</text><!--MD5=[8fc0b909dc2d6f9332fdd45de385bd9e]
link feed to source--><path codeLine="85" d="M83.75,139.61 C83.75,139.61 83.75,228.39 83.75,228.39 " fill="none" id="feed-source" style="stroke:#A80036;stroke-width:1.0;"/><line style="stroke:#A80036;stroke-width:1.0;" x1="83.75" x2="89.75" y1="228.39" y2="236.39"/><line style="stroke:#A80036;stroke-width:1.0;" x1="83.75" x2="77.75" y1="228.39" y2="236.39"/><line style="stroke:#A80036;stroke-width:1.0;" x1="83.75" x2="83.75" y1="228.39" y2="236.39"/><line style="stroke:#A80036;stroke-width:1.0;" x1="87.75" x2="79.75" y1="226.39" y2="226.39"/><line style="stroke:#A80036;stroke-width:1.0;" x1="79.75" x2="87.75" y1="135.61" y2="135.61"/><line style="stroke:#A80036;stroke-width:1.0;" x1="79.75" x2="87.75" y1="138.61" y2="138.61"/><line style="stroke:#A80036;stroke-width:1.0;" x1="83.75" x2="83.75" y1="139.61" y2="131.61"/><!--MD5=[11c2e13f815eb43a8199e329e64e3864]
link feed to source_item--><path codeLine="86" d="M166.28,103 C166.28,103 177.5,103 177.5,103 C177.5,103 177.5,474 177.5,474 C177.5,474 166.84,474 166.84,474 " fill="none" id="feed-source_item" style="stroke:#A80036;stroke-width:1.0;"/><line style="stroke:#A80036;stroke-width:1.0;" x1="166.84" x2="158.84" y1="474" y2="480"/><line style="stroke:#A80036;stroke-width:1.0;" x1="166.84" x2="158.84" y1="474" y2="468"/><line style="stroke:#A80036;stroke-width:1.0;" x1="166.84" x2="158.84" y1="474" y2="474"/><line style="stroke:#A80036;stroke-width:1.0;" x1="168.84" x2="168.84" y1="478" y2="470"/><line style="stroke:#A80036;stroke-width:1.0;" x1="162.28" x2="162.28" y1="107" y2="99"/><line style="stroke:#A80036;stroke-width:1.0;" x1="165.28" x2="165.28" y1="107" y2="99"/><line style="stroke:#A80036;stroke-width:1.0;" x1="166.28" x2="158.28" y1="103" y2="103"/><!--MD5=[2216fa80f18d20d599bb2d67b2e757c8]
link feed to aggregate--><path codeLine="87" d="M166.17,75 C166.17,75 185.5,75 185.5,75 C185.5,75 185.5,299 185.5,299 C185.5,299 196.81,299 196.81,299 " fill="none" id="feed-aggregate" style="stroke:#A80036;stroke-width:1.0;"/><line style="stroke:#A80036;stroke-width:1.0;" x1="196.81" x2="204.81" y1="299" y2="293"/><line style="stroke:#A80036;stroke-width:1.0;" x1="196.81" x2="204.81" y1="299" y2="305"/><line style="stroke:#A80036;stroke-width:1.0;" x1="196.81" x2="204.81" y1="299" y2="299"/><line style="stroke:#A80036;stroke-width:1.0;" x1="194.81" x2="194.81" y1="295" y2="303"/><line style="stroke:#A80036;stroke-width:1.0;" x1="162.17" x2="162.17" y1="79" y2="71"/><line style="stroke:#A80036;stroke-width:1.0;" x1="165.17" x2="165.17" y1="79" y2="71"/><line style="stroke:#A80036;stroke-width:1.0;" x1="166.17" x2="158.17" y1="75" y2="75"/><!--MD5=[bde66a182555eb887059de8293221a83]
link source to source_item--><path codeLine="89" d="M89.5,369.65 C89.5,369.65 89.5,419.89 89.5,419.89 " fill="none" id="source-source_item" style="stroke:#A80036;stroke-width:1.0;stroke-dasharray:7.0,7.0;"/><line style="stroke:#A80036;stroke-width:1.0;" x1="89.5" x2="95.5" y1="419.89" y2="427.89"/><line style="stroke:#A80036;stroke-width:1.0;" x1="89.5" x2="83.5" y1="419.89" y2="427.89"/><line style="stroke:#A80036;stroke-width:1.0;" x1="89.5" x2="89.5" y1="419.89" y2="427.89"/><ellipse cx="89.5" cy="413.89" rx="4" ry="4" style="stroke:#A80036;stroke-width:1.0;fill:none;"/><line style="stroke:#A80036;stroke-width:1.0;fill:none;" x1="85.5" x2="93.5" y1="365.65" y2="365.65"/><line style="stroke:#A80036;stroke-width:1.0;fill:none;" x1="85.5" x2="93.5" y1="368.65" y2="368.65"/><line style="stroke:#A80036;stroke-width:1.0;fill:none;" x1="89.5" x2="89.5" y1="369.65" y2="361.65"/><!--MD5=[6610028f0c7a0554f2085ee3824405a3]
link source_item to source_entry--><path codeLine="90" d="M89.5,574.15 C89.5,574.15 89.5,617.9 89.5,617.9 " fill="none" id="source_item-source_entry" style="stroke:#A80036;stroke-width:1.0;"/><line style="stroke:#A80036;stroke-width:1.0;" x1="89.5" x2="95.5" y1="617.9" y2="625.9"/><line style="stroke:#A80036;stroke-width:1.0;" x1="89.5" x2="83.5" y1="617.9" y2="625.9"/><line style="stroke:#A80036;stroke-width:1.0;" x1="89.5" x2="89.5" y1="617.9" y2="625.9"/><line style="stroke:#A80036;stroke-width:1.0;" x1="93.5" x2="85.5" y1="615.9" y2="615.9"/><line style="stroke:#A80036;stroke-width:1.0;" x1="85.5" x2="93.5" y1="570.15" y2="570.15"/><line style="stroke:#A80036;stroke-width:1.0;" x1="85.5" x2="93.5" y1="573.15" y2="573.15"/><line style="stroke:#A80036;stroke-width:1.0;" x1="89.5" x2="89.5" y1="574.15" y2="566.15"/><!--MD5=[c19e3c6eb4e2962e1f79b15e01c56d18]
link aggregate to source_item--><path codeLine="91" d="M274.5,376.02 C274.5,376.02 274.5,520 274.5,520 C274.5,520 166.65,520 166.65,520 " fill="none" id="aggregate-source_item" style="stroke:#A80036;stroke-width:1.0;"/><line style="stroke:#A80036;stroke-width:1.0;" x1="166.65" x2="158.65" y1="520" y2="526"/><line style="stroke:#A80036;stroke-width:1.0;" x1="166.65" x2="158.65" y1="520" y2="514"/><line style="stroke:#A80036;stroke-width:1.0;" x1="166.65" x2="158.65" y1="520" y2="520"/><line style="stroke:#A80036;stroke-width:1.0;" x1="168.65" x2="168.65" y1="524" y2="516"/><line style="stroke:#A80036;stroke-width:1.0;" x1="270.5" x2="278.5" y1="372.02" y2="372.02"/><line style="stroke:#A80036;stroke-width:1.0;" x1="270.5" x2="278.5" y1="375.02" y2="375.02"/><line style="stroke:#A80036;stroke-width:1.0;" x1="274.5" x2="274.5" y1="376.02" y2="368.02"/><!--MD5=[54c1b24e6057a99c9e198a549ce0fbbe]
link forward_source to forward_dest--><path codeLine="92" d="M343.74,89 C343.74,89 357.25,89 357.25,89 C357.25,89 357.25,299 357.25,299 C357.25,299 371.39,299 371.39,299 " fill="none" id="forward_source-forward_dest" style="stroke:#A80036;stroke-width:1.0;"/><line style="stroke:#A80036;stroke-width:1.0;" x1="375.39" x2="375.39" y1="295" y2="303"/><line style="stroke:#A80036;stroke-width:1.0;" x1="372.39" x2="372.39" y1="295" y2="303"/><line style="stroke:#A80036;stroke-width:1.0;" x1="371.39" x2="379.39" y1="299" y2="299"/><line style="stroke:#A80036;stroke-width:1.0;" x1="343.74" x2="335.74" y1="89" y2="95"/><line style="stroke:#A80036;stroke-width:1.0;" x1="343.74" x2="335.74" y1="89" y2="83"/><line style="stroke:#A80036;stroke-width:1.0;" x1="343.74" x2="335.74" y1="89" y2="89"/><ellipse cx="349.74" cy="89" rx="4" ry="4" style="stroke:#A80036;stroke-width:1.0;fill:none;"/><!--MD5=[d49f4a8229bc31f1f5d61244df6e6e3c]
link forward_source to source--><path codeLine="93" d="M185.43,151 C185.43,151 163.75,151 163.75,151 C163.75,151 163.75,228.23 163.75,228.23 " fill="none" id="forward_source-source" style="stroke:#A80036;stroke-width:1.0;stroke-dasharray:7.0,7.0;"/><line style="stroke:#A80036;stroke-width:1.0;" x1="167.75" x2="159.75" y1="232.23" y2="232.23"/><line style="stroke:#A80036;stroke-width:1.0;" x1="167.75" x2="159.75" y1="229.23" y2="229.23"/><line style="stroke:#A80036;stroke-width:1.0;" x1="163.75" x2="163.75" y1="228.23" y2="236.23"/><line style="stroke:#A80036;stroke-width:1.0;" x1="185.43" x2="193.43" y1="151" y2="145"/><line style="stroke:#A80036;stroke-width:1.0;" x1="185.43" x2="193.43" y1="151" y2="157"/><line style="stroke:#A80036;stroke-width:1.0;" x1="185.43" x2="193.43" y1="151" y2="151"/><ellipse cx="179.43" cy="151" rx="4" ry="4" style="stroke:#A80036;stroke-width:1.0;fill:none;"/><!--MD5=[899709fd871b185fa39e21df274ef805]
link forward_aggregate to forward_dest--><path codeLine="94" d="M441.5,178.19 C441.5,178.19 441.5,253.9 441.5,253.9 " fill="none" id="forward_aggregate-forward_dest" style="stroke:#A80036;stroke-width:1.0;"/><line style="stroke:#A80036;stroke-width:1.0;" x1="445.5" x2="437.5" y1="257.9" y2="257.9"/><line style="stroke:#A80036;stroke-width:1.0;" x1="445.5" x2="437.5" y1="254.9" y2="254.9"/><line style="stroke:#A80036;stroke-width:1.0;" x1="441.5" x2="441.5" y1="253.9" y2="261.9"/><line style="stroke:#A80036;stroke-width:1.0;" x1="441.5" x2="435.5" y1="178.19" y2="170.19"/><line style="stroke:#A80036;stroke-width:1.0;" x1="441.5" x2="447.5" y1="178.19" y2="170.19"/><line style="stroke:#A80036;stroke-width:1.0;" x1="441.5" x2="441.5" y1="178.19" y2="170.19"/><ellipse cx="441.5" cy="184.19" rx="4" ry="4" style="stroke:#A80036;stroke-width:1.0;fill:none;"/><!--MD5=[0ac3d8377118ba1284c6e32a49f23729]
link forward_aggregate to aggregate--><path codeLine="95" d="M375,178.02 C375,178.02 375,246 375,246 C375,246 352.03,246 352.03,246 " fill="none" id="forward_aggregate-aggregate" style="stroke:#A80036;stroke-width:1.0;"/><line style="stroke:#A80036;stroke-width:1.0;" x1="348.03" x2="348.03" y1="250" y2="242"/><line style="stroke:#A80036;stroke-width:1.0;" x1="351.03" x2="351.03" y1="250" y2="242"/><line style="stroke:#A80036;stroke-width:1.0;" x1="352.03" x2="344.03" y1="246" y2="246"/><line style="stroke:#A80036;stroke-width:1.0;" x1="375" x2="369" y1="178.02" y2="170.02"/><line style="stroke:#A80036;stroke-width:1.0;" x1="375" x2="381" y1="178.02" y2="170.02"/><line style="stroke:#A80036;stroke-width:1.0;" x1="375" x2="375" y1="178.02" y2="170.02"/><ellipse cx="375" cy="184.02" rx="4" ry="4" style="stroke:#A80036;stroke-width:1.0;fill:none;"/><!--MD5=[aecc4d89c710076b2971c1c41830bdd5]
@startuml

' avoid problems with angled crows feet
skinparam linetype ortho

entity feed {
  *id : bigint
  - -
  *feed_name : varchar(255)
  *type_name : varchar(255)
}

entity source {
  *id : bigint
  - -
  *path : varchar(255) - unique
  *fk_feed_id : bigint
  *examined : boolean
  *item_count : integer
  *new_position : bigint
}

entity source_item {
  *id : bigint
  - -
  *name : varchar(255)
  *fk_feed_id : bigint
  *byte_size : bigint
  *fk_source_id : bigint
  *fk_aggregate_id : bigint
  *new_position : bigint
}

entity source_entry {
  *id : bigint
  - -
  *extension : varchar(255)
  *extension_type : int
  *byte_size : bigint
  *fk_source_item_id : bigint
}

entity aggregate {
  *id : bigint
  - -
  *create_time_ms : bigint
  *fk_feed_id : bigint
  *byte_size : bigint
  *items : int
  *complete : boolean
  *new_position : bigint
}

entity forward_dest {
  *id : int
  - -
  *name : varchar(255)
}

entity forward_source {
  *id : bigint
  - -
  *update_time_ms : bigint
  *fk_forward_dest_id : int
  *fk_source_id : bigint
  *success : boolean
  *error : varchar(255)
  *tries : bigint
  *new_position : bigint
  *retry_position : bigint
}

entity forward_aggregate {
  *id : bigint
  - -
  *update_time_ms : bigint
  *fk_forward_dest_id : int
  *fk_aggregate_id : bigint
  *success : boolean
  *error : varchar(255)
  *tries : bigint
  *new_position : bigint
  *retry_position : bigint
}

feed ||- -|{ source
feed ||- -|{ source_item
feed ||- -|{ aggregate

source ||..o{ source_item
source_item ||- -|{ source_entry
aggregate ||- -|{ source_item
forward_source }o- -|| forward_dest
forward_source }o..|| source
forward_aggregate }o- -|| forward_dest
forward_aggregate }o- -|| aggregate

@enduml

@startuml

skinparam linetype ortho

entity feed {
  *id : bigint
  - -
  *feed_name : varchar(255)
  *type_name : varchar(255)
}

entity source {
  *id : bigint
  - -
  *path : varchar(255) - unique
  *fk_feed_id : bigint
  *examined : boolean
  *item_count : integer
  *new_position : bigint
}

entity source_item {
  *id : bigint
  - -
  *name : varchar(255)
  *fk_feed_id : bigint
  *byte_size : bigint
  *fk_source_id : bigint
  *fk_aggregate_id : bigint
  *new_position : bigint
}

entity source_entry {
  *id : bigint
  - -
  *extension : varchar(255)
  *extension_type : int
  *byte_size : bigint
  *fk_source_item_id : bigint
}

entity aggregate {
  *id : bigint
  - -
  *create_time_ms : bigint
  *fk_feed_id : bigint
  *byte_size : bigint
  *items : int
  *complete : boolean
  *new_position : bigint
}

entity forward_dest {
  *id : int
  - -
  *name : varchar(255)
}

entity forward_source {
  *id : bigint
  - -
  *update_time_ms : bigint
  *fk_forward_dest_id : int
  *fk_source_id : bigint
  *success : boolean
  *error : varchar(255)
  *tries : bigint
  *new_position : bigint
  *retry_position : bigint
}

entity forward_aggregate {
  *id : bigint
  - -
  *update_time_ms : bigint
  *fk_forward_dest_id : int
  *fk_aggregate_id : bigint
  *success : boolean
  *error : varchar(255)
  *tries : bigint
  *new_position : bigint
  *retry_position : bigint
}

feed ||- -|{ source
feed ||- -|{ source_item
feed ||- -|{ aggregate

source ||..o{ source_item
source_item ||- -|{ source_entry
aggregate ||- -|{ source_item
forward_source }o- -|| forward_dest
forward_source }o..|| source
forward_aggregate }o- -|| forward_dest
forward_aggregate }o- -|| aggregate

@enduml

PlantUML version 1.2021.5(Sun Apr 25 11:20:28 GMT 2021)
(GPL source distribution)
Java Runtime: OpenJDK Runtime Environment
JVM: OpenJDK 64-Bit Server VM
Default Encoding: UTF-8
Language: en
Country: US
--></g></svg>