<?xml version="1.0" encoding="UTF-8" standalone="no"?>
<svg xmlns="http://www.w3.org/2000/svg" contentScriptType="application/ecmascript" contentStyleType="text/css"
     height="812px" preserveAspectRatio="none" style="width:549px;height:812px;background:#FFFFFF;" version="1.1"
     viewBox="0 0 549 812" width="549px" zoomAndPan="magnify"><defs><filter height="300%" id="fqen1nghx6u6e" width="300%" x="-1" y="-1"><feGaussianBlur result="blurOut" stdDeviation="2.0"/><feColorMatrix in="blurOut" result="blurOut2" type="matrix" values="0 0 0 0 0 0 0 0 0 0 0 0 0 0 0 0 0 0 .4 0"/><feOffset dx="4.0" dy="4.0" in="blurOut2" result="blurOut3"/><feBlend in="SourceGraphic" in2="blurOut3" mode="normal"/></filter></defs><g><!--MD5=[a89e013394a4179b87aacb584f03bea5]
class feed--><rect codeLine="5" fill="#FEFECE" filter="url(#fqen1nghx6u6e)" height="92.9457" id="feed" style="stroke:#A80036;stroke-width:1.5;" width="156" x="7" y="52"/><ellipse cx="68.25" cy="68" fill="#ADD1B2" rx="11" ry="11" style="stroke:#A80036;stroke-width:1.0;"/><path d="M64.6094,74.5 L64.6094,62.3594 L72.2656,62.3594 L72.2656,64.4844 L66.9844,64.4844 L66.9844,67.1406 L72,67.1406 L72,69.2656 L66.9844,69.2656 L66.9844,72.375 L72.2656,72.375 L72.2656,74.5 L64.6094,74.5 Z " fill="#000000"/><text fill="#000000" font-family="sans-serif" font-size="12" lengthAdjust="spacing" textLength="25" x="88.75" y="72.656">feed</text><line style="stroke:#A80036;stroke-width:1.5;" x1="8" x2="162" y1="84" y2="84"/><ellipse cx="18" cy="95" fill="#000000" rx="3" ry="3" style="stroke:#000000;stroke-width:1.0;"/><text fill="#000000" font-family="sans-serif" font-size="11" lengthAdjust="spacing" textLength="50" x="27" y="99.7589">id : bigint</text><line style="stroke:#A80036;stroke-width:1.0;" x1="8" x2="162" y1="106.9819" y2="106.9819"/><ellipse cx="18" cy="117.9819" fill="#000000" rx="3" ry="3" style="stroke:#000000;stroke-width:1.0;"/><text fill="#000000" font-family="sans-serif" font-size="11" lengthAdjust="spacing" textLength="130" x="27" y="122.7408">feed_name : varchar(255)</text><ellipse cx="18" cy="132.9638" fill="#000000" rx="3" ry="3" style="stroke:#000000;stroke-width:1.0;"/><text fill="#000000" font-family="sans-serif" font-size="11" lengthAdjust="spacing" textLength="130" x="27" y="137.7227">type_name : varchar(255)</text><!--MD5=[fb94403e3d3521d383fd6507b67b3642]
class source--><rect codeLine="12" fill="#FEFECE" filter="url(#fqen1nghx6u6e)" height="137.8913" id="source" style="stroke:#A80036;stroke-width:1.5;" width="170" x="10" y="257.5"/><ellipse cx="71.75" cy="273.5" fill="#ADD1B2" rx="11" ry="11" style="stroke:#A80036;stroke-width:1.0;"/><path d="M68.1094,280 L68.1094,267.8594 L75.7656,267.8594 L75.7656,269.9844 L70.4844,269.9844 L70.4844,272.6406 L75.5,272.6406 L75.5,274.7656 L70.4844,274.7656 L70.4844,277.875 L75.7656,277.875 L75.7656,280 L68.1094,280 Z " fill="#000000"/><text fill="#000000" font-family="sans-serif" font-size="12" lengthAdjust="spacing" textLength="38" x="92.25" y="278.156">source</text><line style="stroke:#A80036;stroke-width:1.5;" x1="11" x2="179" y1="289.5" y2="289.5"/><ellipse cx="21" cy="300.5" fill="#000000" rx="3" ry="3" style="stroke:#000000;stroke-width:1.0;"/><text fill="#000000" font-family="sans-serif" font-size="11" lengthAdjust="spacing" textLength="50" x="30" y="305.2589">id : bigint</text><line style="stroke:#A80036;stroke-width:1.0;" x1="11" x2="179" y1="312.4819" y2="312.4819"/><ellipse cx="21" cy="323.4819" fill="#000000" rx="3" ry="3" style="stroke:#000000;stroke-width:1.0;"/><text fill="#000000" font-family="sans-serif" font-size="11" lengthAdjust="spacing" textLength="144" x="30" y="328.2408">path : varchar(255) - unique</text><ellipse cx="21" cy="338.4638" fill="#000000" rx="3" ry="3" style="stroke:#000000;stroke-width:1.0;"/><text fill="#000000" font-family="sans-serif" font-size="11" lengthAdjust="spacing" textLength="93" x="30" y="343.2227">fk_feed_id : bigint</text><ellipse cx="21" cy="353.4457" fill="#000000" rx="3" ry="3" style="stroke:#000000;stroke-width:1.0;"/><text fill="#000000" font-family="sans-serif" font-size="11" lengthAdjust="spacing" textLength="103" x="30" y="358.2046">examined : boolean</text><ellipse cx="21" cy="368.4276" fill="#000000" rx="3" ry="3" style="stroke:#000000;stroke-width:1.0;"/><text fill="#000000" font-family="sans-serif" font-size="11" lengthAdjust="spacing" textLength="108" x="30" y="373.1865">forwarded : boolean</text><ellipse cx="21" cy="383.4094" fill="#000000" rx="3" ry="3" style="stroke:#000000;stroke-width:1.0;"/><text fill="#000000" font-family="sans-serif" font-size="11" lengthAdjust="spacing" textLength="110" x="30" y="388.1684">new_position : bigint</text><!--MD5=[23693ca385c1414b1e74e8b4c3b37cb4]
class source_item--><rect codeLine="22" fill="#FEFECE" filter="url(#fqen1nghx6u6e)" height="152.8732" id="source_item" style="stroke:#A80036;stroke-width:1.5;" width="150" x="20" y="463"/><ellipse cx="57.5" cy="479" fill="#ADD1B2" rx="11" ry="11" style="stroke:#A80036;stroke-width:1.0;"/><path d="M53.8594,485.5 L53.8594,473.3594 L61.5156,473.3594 L61.5156,475.4844 L56.2344,475.4844 L56.2344,478.1406 L61.25,478.1406 L61.25,480.2656 L56.2344,480.2656 L56.2344,483.375 L61.5156,483.375 L61.5156,485.5 L53.8594,485.5 Z " fill="#000000"/><text fill="#000000" font-family="sans-serif" font-size="12" lengthAdjust="spacing" textLength="68" x="76.5" y="483.656">source_item</text><line style="stroke:#A80036;stroke-width:1.5;" x1="21" x2="169" y1="495" y2="495"/><ellipse cx="31" cy="506" fill="#000000" rx="3" ry="3" style="stroke:#000000;stroke-width:1.0;"/><text fill="#000000" font-family="sans-serif" font-size="11" lengthAdjust="spacing" textLength="50" x="40" y="510.7589">id : bigint</text><line style="stroke:#A80036;stroke-width:1.0;" x1="21" x2="169" y1="517.9819" y2="517.9819"/><ellipse cx="31" cy="528.9819" fill="#000000" rx="3" ry="3" style="stroke:#000000;stroke-width:1.0;"/><text fill="#000000" font-family="sans-serif" font-size="11" lengthAdjust="spacing" textLength="102" x="40" y="533.7408">name : varchar(255)</text><ellipse cx="31" cy="543.9638" fill="#000000" rx="3" ry="3" style="stroke:#000000;stroke-width:1.0;"/><text fill="#000000" font-family="sans-serif" font-size="11" lengthAdjust="spacing" textLength="93" x="40" y="548.7227">fk_feed_id : bigint</text><ellipse cx="31" cy="558.9457" fill="#000000" rx="3" ry="3" style="stroke:#000000;stroke-width:1.0;"/><text fill="#000000" font-family="sans-serif" font-size="11" lengthAdjust="spacing" textLength="87" x="40" y="563.7046">byte_size : bigint</text><ellipse cx="31" cy="573.9276" fill="#000000" rx="3" ry="3" style="stroke:#000000;stroke-width:1.0;"/><text fill="#000000" font-family="sans-serif" font-size="11" lengthAdjust="spacing" textLength="105" x="40" y="578.6865">fk_source_id : bigint</text><ellipse cx="31" cy="588.9094" fill="#000000" rx="3" ry="3" style="stroke:#000000;stroke-width:1.0;"/><text fill="#000000" font-family="sans-serif" font-size="11" lengthAdjust="spacing" textLength="124" x="40" y="593.6684">fk_aggregate_id : bigint</text><ellipse cx="31" cy="603.8913" fill="#000000" rx="3" ry="3" style="stroke:#000000;stroke-width:1.0;"/><text fill="#000000" font-family="sans-serif" font-size="11" lengthAdjust="spacing" textLength="110" x="40" y="608.6502">new_position : bigint</text><!--MD5=[920d5660a06730163c0204a2780a33ae]
class source_entry--><rect codeLine="33" fill="#FEFECE" filter="url(#fqen1nghx6u6e)" height="122.9094" id="source_entry" style="stroke:#A80036;stroke-width:1.5;" width="159" x="15.5" y="676"/><ellipse cx="55.25" cy="692" fill="#ADD1B2" rx="11" ry="11" style="stroke:#A80036;stroke-width:1.0;"/><path d="M51.6094,698.5 L51.6094,686.3594 L59.2656,686.3594 L59.2656,688.4844 L53.9844,688.4844 L53.9844,691.1406 L59,691.1406 L59,693.2656 L53.9844,693.2656 L53.9844,696.375 L59.2656,696.375 L59.2656,698.5 L51.6094,698.5 Z " fill="#000000"/><text fill="#000000" font-family="sans-serif" font-size="12" lengthAdjust="spacing" textLength="72" x="74.75" y="696.656">source_entry</text><line style="stroke:#A80036;stroke-width:1.5;" x1="16.5" x2="173.5" y1="708" y2="708"/><ellipse cx="26.5" cy="719" fill="#000000" rx="3" ry="3" style="stroke:#000000;stroke-width:1.0;"/><text fill="#000000" font-family="sans-serif" font-size="11" lengthAdjust="spacing" textLength="50" x="35.5" y="723.7589">id : bigint</text><line style="stroke:#A80036;stroke-width:1.0;" x1="16.5" x2="173.5" y1="730.9819" y2="730.9819"/><ellipse cx="26.5" cy="741.9819" fill="#000000" rx="3" ry="3" style="stroke:#000000;stroke-width:1.0;"/><text fill="#000000" font-family="sans-serif" font-size="11" lengthAdjust="spacing" textLength="124" x="35.5" y="746.7408">extension : varchar(255)</text><ellipse cx="26.5" cy="756.9638" fill="#000000" rx="3" ry="3" style="stroke:#000000;stroke-width:1.0;"/><text fill="#000000" font-family="sans-serif" font-size="11" lengthAdjust="spacing" textLength="102" x="35.5" y="761.7227">extension_type : int</text><ellipse cx="26.5" cy="771.9457" fill="#000000" rx="3" ry="3" style="stroke:#000000;stroke-width:1.0;"/><text fill="#000000" font-family="sans-serif" font-size="11" lengthAdjust="spacing" textLength="87" x="35.5" y="776.7046">byte_size : bigint</text><ellipse cx="26.5" cy="786.9276" fill="#000000" rx="3" ry="3" style="stroke:#000000;stroke-width:1.0;"/><text fill="#000000" font-family="sans-serif" font-size="11" lengthAdjust="spacing" textLength="133" x="35.5" y="791.6865">fk_source_item_id : bigint</text><!--MD5=[1ef907470190a52481b72bc04299235e]
class aggregate--><rect codeLine="42" fill="#FEFECE" filter="url(#fqen1nghx6u6e)" height="152.8732" id="aggregate" style="stroke:#A80036;stroke-width:1.5;" width="146" x="215" y="250"/><ellipse cx="255.2" cy="266" fill="#ADD1B2" rx="11" ry="11" style="stroke:#A80036;stroke-width:1.0;"/><path d="M251.5594,272.5 L251.5594,260.3594 L259.2156,260.3594 L259.2156,262.4844 L253.9344,262.4844 L253.9344,265.1406 L258.95,265.1406 L258.95,267.2656 L253.9344,267.2656 L253.9344,270.375 L259.2156,270.375 L259.2156,272.5 L251.5594,272.5 Z " fill="#000000"/><text fill="#000000" font-family="sans-serif" font-size="12" lengthAdjust="spacing" textLength="58" x="274.8" y="270.656">aggregate</text><line style="stroke:#A80036;stroke-width:1.5;" x1="216" x2="360" y1="282" y2="282"/><ellipse cx="226" cy="293" fill="#000000" rx="3" ry="3" style="stroke:#000000;stroke-width:1.0;"/><text fill="#000000" font-family="sans-serif" font-size="11" lengthAdjust="spacing" textLength="50" x="235" y="297.7589">id : bigint</text><line style="stroke:#A80036;stroke-width:1.0;" x1="216" x2="360" y1="304.9819" y2="304.9819"/><ellipse cx="226" cy="315.9819" fill="#000000" rx="3" ry="3" style="stroke:#000000;stroke-width:1.0;"/><text fill="#000000" font-family="sans-serif" font-size="11" lengthAdjust="spacing" textLength="120" x="235" y="320.7408">create_time_ms : bigint</text><ellipse cx="226" cy="330.9638" fill="#000000" rx="3" ry="3" style="stroke:#000000;stroke-width:1.0;"/><text fill="#000000" font-family="sans-serif" font-size="11" lengthAdjust="spacing" textLength="93" x="235" y="335.7227">fk_feed_id : bigint</text><ellipse cx="226" cy="345.9457" fill="#000000" rx="3" ry="3" style="stroke:#000000;stroke-width:1.0;"/><text fill="#000000" font-family="sans-serif" font-size="11" lengthAdjust="spacing" textLength="87" x="235" y="350.7046">byte_size : bigint</text><ellipse cx="226" cy="360.9276" fill="#000000" rx="3" ry="3" style="stroke:#000000;stroke-width:1.0;"/><text fill="#000000" font-family="sans-serif" font-size="11" lengthAdjust="spacing" textLength="51" x="235" y="365.6865">items : int</text><ellipse cx="226" cy="375.9094" fill="#000000" rx="3" ry="3" style="stroke:#000000;stroke-width:1.0;"/><text fill="#000000" font-family="sans-serif" font-size="11" lengthAdjust="spacing" textLength="100" x="235" y="380.6684">complete : boolean</text><ellipse cx="226" cy="390.8913" fill="#000000" rx="3" ry="3" style="stroke:#000000;stroke-width:1.0;"/><text fill="#000000" font-family="sans-serif" font-size="11" lengthAdjust="spacing" textLength="110" x="235" y="395.6502">new_position : bigint</text><!--MD5=[9ec5b5fc933be4ccfb94bd357655b06c]
class forward_dest--><rect codeLine="53" fill="#FEFECE" filter="url(#fqen1nghx6u6e)" height="77.9638" id="forward_dest" style="stroke:#A80036;stroke-width:1.5;" width="128" x="396" y="287.5"/><ellipse cx="421.35" cy="303.5" fill="#ADD1B2" rx="11" ry="11" style="stroke:#A80036;stroke-width:1.0;"/><path d="M417.7094,310 L417.7094,297.8594 L425.3656,297.8594 L425.3656,299.9844 L420.0844,299.9844 L420.0844,302.6406 L425.1,302.6406 L425.1,304.7656 L420.0844,304.7656 L420.0844,307.875 L425.3656,307.875 L425.3656,310 L417.7094,310 Z " fill="#000000"/><text fill="#000000" font-family="sans-serif" font-size="12" lengthAdjust="spacing" textLength="73" x="437.65" y="308.156">forward_dest</text><line style="stroke:#A80036;stroke-width:1.5;" x1="397" x2="523" y1="319.5" y2="319.5"/><ellipse cx="407" cy="330.5" fill="#000000" rx="3" ry="3" style="stroke:#000000;stroke-width:1.0;"/><text fill="#000000" font-family="sans-serif" font-size="11" lengthAdjust="spacing" textLength="33" x="416" y="335.2589">id : int</text><line style="stroke:#A80036;stroke-width:1.0;" x1="397" x2="523" y1="342.4819" y2="342.4819"/><ellipse cx="407" cy="353.4819" fill="#000000" rx="3" ry="3" style="stroke:#000000;stroke-width:1.0;"/><text fill="#000000" font-family="sans-serif" font-size="11" lengthAdjust="spacing" textLength="102" x="416" y="358.2408">name : varchar(255)</text><!--MD5=[cbb12bc3eee1de79b3f2e300a168c511]
class forward_source--><rect codeLine="59" fill="#FEFECE" filter="url(#fqen1nghx6u6e)" height="182.837" id="forward_source" style="stroke:#A80036;stroke-width:1.5;" width="151" x="198.5" y="7"/><ellipse cx="227.9" cy="23" fill="#ADD1B2" rx="11" ry="11" style="stroke:#A80036;stroke-width:1.0;"/><path d="M224.2594,29.5 L224.2594,17.3594 L231.9156,17.3594 L231.9156,19.4844 L226.6344,19.4844 L226.6344,22.1406 L231.65,22.1406 L231.65,24.2656 L226.6344,24.2656 L226.6344,27.375 L231.9156,27.375 L231.9156,29.5 L224.2594,29.5 Z " fill="#000000"/><text fill="#000000" font-family="sans-serif" font-size="12" lengthAdjust="spacing" textLength="87" x="245.1" y="27.656">forward_source</text><line style="stroke:#A80036;stroke-width:1.5;" x1="199.5" x2="348.5" y1="39" y2="39"/><ellipse cx="209.5" cy="50" fill="#000000" rx="3" ry="3" style="stroke:#000000;stroke-width:1.0;"/><text fill="#000000" font-family="sans-serif" font-size="11" lengthAdjust="spacing" textLength="50" x="218.5" y="54.7589">id : bigint</text><line style="stroke:#A80036;stroke-width:1.0;" x1="199.5" x2="348.5" y1="61.9819" y2="61.9819"/><ellipse cx="209.5" cy="72.9819" fill="#000000" rx="3" ry="3" style="stroke:#000000;stroke-width:1.0;"/><text fill="#000000" font-family="sans-serif" font-size="11" lengthAdjust="spacing" textLength="125" x="218.5" y="77.7408">update_time_ms : bigint</text><ellipse cx="209.5" cy="87.9638" fill="#000000" rx="3" ry="3" style="stroke:#000000;stroke-width:1.0;"/><text fill="#000000" font-family="sans-serif" font-size="11" lengthAdjust="spacing" textLength="123" x="218.5" y="92.7227">fk_forward_dest_id : int</text><ellipse cx="209.5" cy="102.9457" fill="#000000" rx="3" ry="3" style="stroke:#000000;stroke-width:1.0;"/><text fill="#000000" font-family="sans-serif" font-size="11" lengthAdjust="spacing" textLength="105" x="218.5" y="107.7046">fk_source_id : bigint</text><ellipse cx="209.5" cy="117.9276" fill="#000000" rx="3" ry="3" style="stroke:#000000;stroke-width:1.0;"/><text fill="#000000" font-family="sans-serif" font-size="11" lengthAdjust="spacing" textLength="90" x="218.5" y="122.6865">success : boolean</text><ellipse cx="209.5" cy="132.9094" fill="#000000" rx="3" ry="3" style="stroke:#000000;stroke-width:1.0;"/><text fill="#000000" font-family="sans-serif" font-size="11" lengthAdjust="spacing" textLength="101" x="218.5" y="137.6684">error : varchar(255)</text><ellipse cx="209.5" cy="147.8913" fill="#000000" rx="3" ry="3" style="stroke:#000000;stroke-width:1.0;"/><text fill="#000000" font-family="sans-serif" font-size="11" lengthAdjust="spacing" textLength="63" x="218.5" y="152.6502">tries : bigint</text><ellipse cx="209.5" cy="162.8732" fill="#000000" rx="3" ry="3" style="stroke:#000000;stroke-width:1.0;"/><text fill="#000000" font-family="sans-serif" font-size="11" lengthAdjust="spacing" textLength="110" x="218.5" y="167.6321">new_position : bigint</text><ellipse cx="209.5" cy="177.8551" fill="#000000" rx="3" ry="3" style="stroke:#000000;stroke-width:1.0;"/><text fill="#000000" font-family="sans-serif" font-size="11" lengthAdjust="spacing" textLength="114" x="218.5" y="182.614">retry_position : bigint</text><!--MD5=[d4f398bbc1193deb68c8428dcb929078]
class forward_aggregate--><rect codeLine="72" fill="#FEFECE" filter="url(#fqen1nghx6u6e)" height="182.837" id="forward_aggregate" style="stroke:#A80036;stroke-width:1.5;" width="151" x="384.5" y="7"/><ellipse cx="404.9" cy="23" fill="#ADD1B2" rx="11" ry="11" style="stroke:#A80036;stroke-width:1.0;"/><path d="M401.2594,29.5 L401.2594,17.3594 L408.9156,17.3594 L408.9156,19.4844 L403.6344,19.4844 L403.6344,22.1406 L408.65,22.1406 L408.65,24.2656 L403.6344,24.2656 L403.6344,27.375 L408.9156,27.375 L408.9156,29.5 L401.2594,29.5 Z " fill="#000000"/><text fill="#000000" font-family="sans-serif" font-size="12" lengthAdjust="spacing" textLength="107" x="420.1" y="27.656">forward_aggregate</text><line style="stroke:#A80036;stroke-width:1.5;" x1="385.5" x2="534.5" y1="39" y2="39"/><ellipse cx="395.5" cy="50" fill="#000000" rx="3" ry="3" style="stroke:#000000;stroke-width:1.0;"/><text fill="#000000" font-family="sans-serif" font-size="11" lengthAdjust="spacing" textLength="50" x="404.5" y="54.7589">id : bigint</text><line style="stroke:#A80036;stroke-width:1.0;" x1="385.5" x2="534.5" y1="61.9819" y2="61.9819"/><ellipse cx="395.5" cy="72.9819" fill="#000000" rx="3" ry="3" style="stroke:#000000;stroke-width:1.0;"/><text fill="#000000" font-family="sans-serif" font-size="11" lengthAdjust="spacing" textLength="125" x="404.5" y="77.7408">update_time_ms : bigint</text><ellipse cx="395.5" cy="87.9638" fill="#000000" rx="3" ry="3" style="stroke:#000000;stroke-width:1.0;"/><text fill="#000000" font-family="sans-serif" font-size="11" lengthAdjust="spacing" textLength="123" x="404.5" y="92.7227">fk_forward_dest_id : int</text><ellipse cx="395.5" cy="102.9457" fill="#000000" rx="3" ry="3" style="stroke:#000000;stroke-width:1.0;"/><text fill="#000000" font-family="sans-serif" font-size="11" lengthAdjust="spacing" textLength="124" x="404.5" y="107.7046">fk_aggregate_id : bigint</text><ellipse cx="395.5" cy="117.9276" fill="#000000" rx="3" ry="3" style="stroke:#000000;stroke-width:1.0;"/><text fill="#000000" font-family="sans-serif" font-size="11" lengthAdjust="spacing" textLength="90" x="404.5" y="122.6865">success : boolean</text><ellipse cx="395.5" cy="132.9094" fill="#000000" rx="3" ry="3" style="stroke:#000000;stroke-width:1.0;"/><text fill="#000000" font-family="sans-serif" font-size="11" lengthAdjust="spacing" textLength="101" x="404.5" y="137.6684">error : varchar(255)</text><ellipse cx="395.5" cy="147.8913" fill="#000000" rx="3" ry="3" style="stroke:#000000;stroke-width:1.0;"/><text fill="#000000" font-family="sans-serif" font-size="11" lengthAdjust="spacing" textLength="63" x="404.5" y="152.6502">tries : bigint</text><ellipse cx="395.5" cy="162.8732" fill="#000000" rx="3" ry="3" style="stroke:#000000;stroke-width:1.0;"/><text fill="#000000" font-family="sans-serif" font-size="11" lengthAdjust="spacing" textLength="110" x="404.5" y="167.6321">new_position : bigint</text><ellipse cx="395.5" cy="177.8551" fill="#000000" rx="3" ry="3" style="stroke:#000000;stroke-width:1.0;"/><text fill="#000000" font-family="sans-serif" font-size="11" lengthAdjust="spacing" textLength="114" x="404.5" y="182.614">retry_position : bigint</text><!--MD5=[8fc0b909dc2d6f9332fdd45de385bd9e]
link feed to source--><path codeLine="85" d="M61,153.19 C61,153.19 61,249.37 61,249.37 " fill="none" id="feed-source" style="stroke:#A80036;stroke-width:1.0;"/><line style="stroke:#A80036;stroke-width:1.0;" x1="61" x2="67" y1="249.37" y2="257.37"/><line style="stroke:#A80036;stroke-width:1.0;" x1="61" x2="55" y1="249.37" y2="257.37"/><line style="stroke:#A80036;stroke-width:1.0;" x1="61" x2="61" y1="249.37" y2="257.37"/><line style="stroke:#A80036;stroke-width:1.0;" x1="65" x2="57" y1="247.37" y2="247.37"/><line style="stroke:#A80036;stroke-width:1.0;" x1="57" x2="65" y1="149.19" y2="149.19"/><line style="stroke:#A80036;stroke-width:1.0;" x1="57" x2="65" y1="152.19" y2="152.19"/><line style="stroke:#A80036;stroke-width:1.0;" x1="61" x2="61" y1="153.19" y2="145.19"/><!--MD5=[11c2e13f815eb43a8199e329e64e3864]
link feed to source_item--><path codeLine="86" d="M171.21,99 C171.21,99 189.25,99 189.25,99 C189.25,99 189.25,540 189.25,540 C189.25,540 178.18,540 178.18,540 " fill="none" id="feed-source_item" style="stroke:#A80036;stroke-width:1.0;"/><line style="stroke:#A80036;stroke-width:1.0;" x1="178.18" x2="170.18" y1="540" y2="546"/><line style="stroke:#A80036;stroke-width:1.0;" x1="178.18" x2="170.18" y1="540" y2="534"/><line style="stroke:#A80036;stroke-width:1.0;" x1="178.18" x2="170.18" y1="540" y2="540"/><line style="stroke:#A80036;stroke-width:1.0;" x1="180.18" x2="180.18" y1="544" y2="536"/><line style="stroke:#A80036;stroke-width:1.0;" x1="167.21" x2="167.21" y1="103" y2="95"/><line style="stroke:#A80036;stroke-width:1.0;" x1="170.21" x2="170.21" y1="103" y2="95"/><line style="stroke:#A80036;stroke-width:1.0;" x1="171.21" x2="163.21" y1="99" y2="99"/><!--MD5=[2216fa80f18d20d599bb2d67b2e757c8]
link feed to aggregate--><path codeLine="87" d="M112,153.16 C112,153.16 112,254 112,254 C112,254 206.89,254 206.89,254 " fill="none" id="feed-aggregate" style="stroke:#A80036;stroke-width:1.0;"/><line style="stroke:#A80036;stroke-width:1.0;" x1="206.89" x2="214.89" y1="254" y2="248"/><line style="stroke:#A80036;stroke-width:1.0;" x1="206.89" x2="214.89" y1="254" y2="260"/><line style="stroke:#A80036;stroke-width:1.0;" x1="206.89" x2="214.89" y1="254" y2="254"/><line style="stroke:#A80036;stroke-width:1.0;" x1="204.89" x2="204.89" y1="250" y2="258"/><line style="stroke:#A80036;stroke-width:1.0;" x1="108" x2="116" y1="149.16" y2="149.16"/><line style="stroke:#A80036;stroke-width:1.0;" x1="108" x2="116" y1="152.16" y2="152.16"/><line style="stroke:#A80036;stroke-width:1.0;" x1="112" x2="112" y1="153.16" y2="145.16"/><!--MD5=[bde66a182555eb887059de8293221a83]
link source to source_item--><path codeLine="89" d="M70,403.65 C70,403.65 70,454.96 70,454.96 " fill="none" id="source-source_item" style="stroke:#A80036;stroke-width:1.0;stroke-dasharray:7.0,7.0;"/><line style="stroke:#A80036;stroke-width:1.0;" x1="70" x2="76" y1="454.96" y2="462.96"/><line style="stroke:#A80036;stroke-width:1.0;" x1="70" x2="64" y1="454.96" y2="462.96"/><line style="stroke:#A80036;stroke-width:1.0;" x1="70" x2="70" y1="454.96" y2="462.96"/><ellipse cx="70" cy="448.96" rx="4" ry="4" style="stroke:#A80036;stroke-width:1.0;fill:none;"/><line style="stroke:#A80036;stroke-width:1.0;fill:none;" x1="66.0071" x2="74.0071" y1="399.6571" y2="399.6429"/><line style="stroke:#A80036;stroke-width:1.0;fill:none;" x1="66.0125" x2="74.0125" y1="402.6571" y2="402.6428"/><line style="stroke:#A80036;stroke-width:1.0;fill:none;" x1="70.0143" x2="70" y1="403.65" y2="395.65"/><!--MD5=[6610028f0c7a0554f2085ee3824405a3]
link source_item to source_entry--><path codeLine="90" d="M95,624.05 C95,624.05 95,667.86 95,667.86 " fill="none" id="source_item-source_entry" style="stroke:#A80036;stroke-width:1.0;"/><line style="stroke:#A80036;stroke-width:1.0;" x1="95" x2="101" y1="667.86" y2="675.86"/><line style="stroke:#A80036;stroke-width:1.0;" x1="95" x2="89" y1="667.86" y2="675.86"/><line style="stroke:#A80036;stroke-width:1.0;" x1="95" x2="95" y1="667.86" y2="675.86"/><line style="stroke:#A80036;stroke-width:1.0;" x1="99" x2="91" y1="665.86" y2="665.86"/><line style="stroke:#A80036;stroke-width:1.0;" x1="91" x2="99" y1="620.05" y2="620.05"/><line style="stroke:#A80036;stroke-width:1.0;" x1="91" x2="99" y1="623.05" y2="623.05"/><line style="stroke:#A80036;stroke-width:1.0;" x1="95" x2="95" y1="624.05" y2="616.05"/><!--MD5=[c19e3c6eb4e2962e1f79b15e01c56d18]
link aggregate to source_item--><path codeLine="91" d="M206.8,400 C206.8,400 120,400 120,400 C120,400 120,454.81 120,454.81 " fill="none" id="aggregate-source_item" style="stroke:#A80036;stroke-width:1.0;"/><line style="stroke:#A80036;stroke-width:1.0;" x1="120" x2="126" y1="454.81" y2="462.81"/><line style="stroke:#A80036;stroke-width:1.0;" x1="120" x2="114" y1="454.81" y2="462.81"/><line style="stroke:#A80036;stroke-width:1.0;" x1="120" x2="120" y1="454.81" y2="462.81"/><line style="stroke:#A80036;stroke-width:1.0;" x1="124" x2="116" y1="452.81" y2="452.81"/><line style="stroke:#A80036;stroke-width:1.0;" x1="210.8" x2="210.8" y1="396" y2="404"/><line style="stroke:#A80036;stroke-width:1.0;" x1="207.8" x2="207.8" y1="396" y2="404"/><line style="stroke:#A80036;stroke-width:1.0;" x1="206.8" x2="214.8" y1="400" y2="400"/><!--MD5=[54c1b24e6057a99c9e198a549ce0fbbe]
link forward_source to forward_dest--><path codeLine="92" d="M357.6,99 C357.6,99 372.75,99 372.75,99 C372.75,99 372.75,327 372.75,327 C372.75,327 387.67,327 387.67,327 " fill="none" id="forward_source-forward_dest" style="stroke:#A80036;stroke-width:1.0;"/><line style="stroke:#A80036;stroke-width:1.0;" x1="391.67" x2="391.67" y1="323" y2="331"/><line style="stroke:#A80036;stroke-width:1.0;" x1="388.67" x2="388.67" y1="323" y2="331"/><line style="stroke:#A80036;stroke-width:1.0;" x1="387.67" x2="395.67" y1="327" y2="327"/><line style="stroke:#A80036;stroke-width:1.0;" x1="357.6" x2="349.6" y1="99" y2="105"/><line style="stroke:#A80036;stroke-width:1.0;" x1="357.6" x2="349.6" y1="99" y2="93"/><line style="stroke:#A80036;stroke-width:1.0;" x1="357.6" x2="349.6" y1="99" y2="99"/><ellipse cx="363.6" cy="99" rx="4" ry="4" style="stroke:#A80036;stroke-width:1.0;fill:none;"/><!--MD5=[d49f4a8229bc31f1f5d61244df6e6e3c]
link forward_source to source--><path codeLine="93" d="M190.43,168 C190.43,168 171.5,168 171.5,168 C171.5,168 171.5,249.44 171.5,249.44 " fill="none" id="forward_source-source" style="stroke:#A80036;stroke-width:1.0;stroke-dasharray:7.0,7.0;"/><line style="stroke:#A80036;stroke-width:1.0;" x1="175.5" x2="167.5" y1="253.44" y2="253.44"/><line style="stroke:#A80036;stroke-width:1.0;" x1="175.5" x2="167.5" y1="250.44" y2="250.44"/><line style="stroke:#A80036;stroke-width:1.0;" x1="171.5" x2="171.5" y1="249.44" y2="257.44"/><line style="stroke:#A80036;stroke-width:1.0;" x1="190.43" x2="198.43" y1="168" y2="162"/><line style="stroke:#A80036;stroke-width:1.0;" x1="190.43" x2="198.43" y1="168" y2="174"/><line style="stroke:#A80036;stroke-width:1.0;" x1="190.43" x2="198.43" y1="168" y2="168"/><ellipse cx="184.43" cy="168" rx="4" ry="4" style="stroke:#A80036;stroke-width:1.0;fill:none;"/><!--MD5=[899709fd871b185fa39e21df274ef805]
link forward_aggregate to forward_dest--><path codeLine="94" d="M460,198.25 C460,198.25 460,279.23 460,279.23 " fill="none" id="forward_aggregate-forward_dest" style="stroke:#A80036;stroke-width:1.0;"/><line style="stroke:#A80036;stroke-width:1.0;" x1="464" x2="456" y1="283.23" y2="283.23"/><line style="stroke:#A80036;stroke-width:1.0;" x1="464" x2="456" y1="280.23" y2="280.23"/><line style="stroke:#A80036;stroke-width:1.0;" x1="460" x2="460" y1="279.23" y2="287.23"/><line style="stroke:#A80036;stroke-width:1.0;" x1="460" x2="454" y1="198.25" y2="190.25"/><line style="stroke:#A80036;stroke-width:1.0;" x1="460" x2="466" y1="198.25" y2="190.25"/><line style="stroke:#A80036;stroke-width:1.0;" x1="460" x2="460" y1="198.25" y2="190.25"/><ellipse cx="460" cy="204.25" rx="4" ry="4" style="stroke:#A80036;stroke-width:1.0;fill:none;"/><!--MD5=[0ac3d8377118ba1284c6e32a49f23729]
link forward_aggregate to aggregate--><path codeLine="95" d="M390.25,198.24 C390.25,198.24 390.25,269 390.25,269 C390.25,269 369.22,269 369.22,269 " fill="none" id="forward_aggregate-aggregate" style="stroke:#A80036;stroke-width:1.0;"/><line style="stroke:#A80036;stroke-width:1.0;" x1="365.22" x2="365.22" y1="273" y2="265"/><line style="stroke:#A80036;stroke-width:1.0;" x1="368.22" x2="368.22" y1="273" y2="265"/><line style="stroke:#A80036;stroke-width:1.0;" x1="369.22" x2="361.22" y1="269" y2="269"/><line style="stroke:#A80036;stroke-width:1.0;" x1="390.25" x2="384.25" y1="198.24" y2="190.24"/><line style="stroke:#A80036;stroke-width:1.0;" x1="390.25" x2="396.25" y1="198.24" y2="190.24"/><line style="stroke:#A80036;stroke-width:1.0;" x1="390.25" x2="390.25" y1="198.24" y2="190.24"/><ellipse cx="390.25" cy="204.24" rx="4" ry="4" style="stroke:#A80036;stroke-width:1.0;fill:none;"/><!--MD5=[c4790328fe010f91919c576593788ef2]
@startuml

' avoid problems with angled crows feet
skinparam linetype ortho

entity feed {
  *id : bigint
  - -
  *feed_name : varchar(255)
  *type_name : varchar(255)
}

entity source {
  *id : bigint
  - -
  *path : varchar(255) - unique
  *fk_feed_id : bigint
  *examined : boolean
  *forwarded : boolean
  *new_position : bigint
}

entity source_item {
  *id : bigint
  - -
  *name : varchar(255)
  *fk_feed_id : bigint
  *byte_size : bigint
  *fk_source_id : bigint
  *fk_aggregate_id : bigint
  *new_position : bigint
}

entity source_entry {
  *id : bigint
  - -
  *extension : varchar(255)
  *extension_type : int
  *byte_size : bigint
  *fk_source_item_id : bigint
}

entity aggregate {
  *id : bigint
  - -
  *create_time_ms : bigint
  *fk_feed_id : bigint
  *byte_size : bigint
  *items : int
  *complete : boolean
  *new_position : bigint
}

entity forward_dest {
  *id : int
  - -
  *name : varchar(255)
}

entity forward_source {
  *id : bigint
  - -
  *update_time_ms : bigint
  *fk_forward_dest_id : int
  *fk_source_id : bigint
  *success : boolean
  *error : varchar(255)
  *tries : bigint
  *new_position : bigint
  *retry_position : bigint
}

entity forward_aggregate {
  *id : bigint
  - -
  *update_time_ms : bigint
  *fk_forward_dest_id : int
  *fk_aggregate_id : bigint
  *success : boolean
  *error : varchar(255)
  *tries : bigint
  *new_position : bigint
  *retry_position : bigint
}

feed ||- -|{ source
feed ||- -|{ source_item
feed ||- -|{ aggregate

source ||..o{ source_item
source_item ||- -|{ source_entry
aggregate ||- -|{ source_item
forward_source }o- -|| forward_dest
forward_source }o..|| source
forward_aggregate }o- -|| forward_dest
forward_aggregate }o- -|| aggregate

@enduml

@startuml

skinparam linetype ortho

entity feed {
  *id : bigint
  - -
  *feed_name : varchar(255)
  *type_name : varchar(255)
}

entity source {
  *id : bigint
  - -
  *path : varchar(255) - unique
  *fk_feed_id : bigint
  *examined : boolean
  *forwarded : boolean
  *new_position : bigint
}

entity source_item {
  *id : bigint
  - -
  *name : varchar(255)
  *fk_feed_id : bigint
  *byte_size : bigint
  *fk_source_id : bigint
  *fk_aggregate_id : bigint
  *new_position : bigint
}

entity source_entry {
  *id : bigint
  - -
  *extension : varchar(255)
  *extension_type : int
  *byte_size : bigint
  *fk_source_item_id : bigint
}

entity aggregate {
  *id : bigint
  - -
  *create_time_ms : bigint
  *fk_feed_id : bigint
  *byte_size : bigint
  *items : int
  *complete : boolean
  *new_position : bigint
}

entity forward_dest {
  *id : int
  - -
  *name : varchar(255)
}

entity forward_source {
  *id : bigint
  - -
  *update_time_ms : bigint
  *fk_forward_dest_id : int
  *fk_source_id : bigint
  *success : boolean
  *error : varchar(255)
  *tries : bigint
  *new_position : bigint
  *retry_position : bigint
}

entity forward_aggregate {
  *id : bigint
  - -
  *update_time_ms : bigint
  *fk_forward_dest_id : int
  *fk_aggregate_id : bigint
  *success : boolean
  *error : varchar(255)
  *tries : bigint
  *new_position : bigint
  *retry_position : bigint
}

feed ||- -|{ source
feed ||- -|{ source_item
feed ||- -|{ aggregate

source ||..o{ source_item
source_item ||- -|{ source_entry
aggregate ||- -|{ source_item
forward_source }o- -|| forward_dest
forward_source }o..|| source
forward_aggregate }o- -|| forward_dest
forward_aggregate }o- -|| aggregate

@enduml

PlantUML version 1.2021.16(Wed Dec 08 17:25:22 GMT 2021)
(GPL source distribution)
Java Runtime: OpenJDK Runtime Environment
JVM: OpenJDK 64-Bit Server VM
Default Encoding: UTF-8
Language: en
Country: GB
--></g></svg>