<?xml version="1.0" encoding="UTF-8" standalone="no"?><svg xmlns="http://www.w3.org/2000/svg" xmlns:xlink="http://www.w3.org/1999/xlink" contentStyleType="text/css" height="919px" preserveAspectRatio="none" style="width:655px;height:919px;background:#FFFFFF;" version="1.1" viewBox="0 0 655 919" width="655px" zoomAndPan="magnify"><defs/><g><!--MD5=[a89e013394a4179b87aacb584f03bea5]
class feed--><g id="elem_feed"><rect codeLine="5" fill="#F1F1F1" height="105.2038" id="feed" rx="2.5" ry="2.5" style="stroke:#181818;stroke-width:0.5;" width="195" x="7" y="64.5"/><ellipse cx="85.25" cy="80.5" fill="#ADD1B2" rx="11" ry="11" style="stroke:#181818;stroke-width:1.0;"/><path d="M81.6094,87 L81.6094,74.8594 L89.2656,74.8594 L89.2656,76.9844 L83.9844,76.9844 L83.9844,79.6406 L89,79.6406 L89,81.7656 L83.9844,81.7656 L83.9844,84.875 L89.2656,84.875 L89.2656,87 L81.6094,87 Z " fill="#000000"/><text fill="#000000" font-family="sans-serif" font-size="14" lengthAdjust="spacing" textLength="30" x="105.75" y="85.932">feed</text><line style="stroke:#181818;stroke-width:0.5;" x1="8" x2="201" y1="96.5" y2="96.5"/><ellipse cx="18" cy="107.5" fill="#000000" rx="3" ry="3" style="stroke:#000000;stroke-width:1.0;"/><text fill="#000000" font-family="sans-serif" font-size="14" lengthAdjust="spacing" textLength="65" x="27" y="115.4659">id : bigint</text><line style="stroke:#181818;stroke-width:1.0;" x1="8" x2="201" y1="123.5679" y2="123.5679"/><ellipse cx="18" cy="134.5679" fill="#000000" rx="3" ry="3" style="stroke:#000000;stroke-width:1.0;"/><text fill="#000000" font-family="sans-serif" font-size="14" lengthAdjust="spacing" textLength="169" x="27" y="142.5339">feed_name : varchar(255)</text><ellipse cx="18" cy="153.6358" fill="#000000" rx="3" ry="3" style="stroke:#000000;stroke-width:1.0;"/><text fill="#000000" font-family="sans-serif" font-size="14" lengthAdjust="spacing" textLength="168" x="27" y="161.6018">type_name : varchar(255)</text></g><!--MD5=[fb94403e3d3521d383fd6507b67b3642]
class source--><g id="elem_source"><rect codeLine="12" fill="#F1F1F1" height="162.4075" id="source" rx="2.5" ry="2.5" style="stroke:#181818;stroke-width:0.5;" width="213" x="9" y="296.5"/><ellipse cx="88.75" cy="312.5" fill="#ADD1B2" rx="11" ry="11" style="stroke:#181818;stroke-width:1.0;"/><path d="M85.1094,319 L85.1094,306.8594 L92.7656,306.8594 L92.7656,308.9844 L87.4844,308.9844 L87.4844,311.6406 L92.5,311.6406 L92.5,313.7656 L87.4844,313.7656 L87.4844,316.875 L92.7656,316.875 L92.7656,319 L85.1094,319 Z " fill="#000000"/><text fill="#000000" font-family="sans-serif" font-size="14" lengthAdjust="spacing" textLength="45" x="109.25" y="317.932">source</text><line style="stroke:#181818;stroke-width:0.5;" x1="10" x2="221" y1="328.5" y2="328.5"/><ellipse cx="20" cy="339.5" fill="#000000" rx="3" ry="3" style="stroke:#000000;stroke-width:1.0;"/><text fill="#000000" font-family="sans-serif" font-size="14" lengthAdjust="spacing" textLength="65" x="29" y="347.4659">id : bigint</text><line style="stroke:#181818;stroke-width:1.0;" x1="10" x2="221" y1="355.5679" y2="355.5679"/><ellipse cx="20" cy="366.5679" fill="#000000" rx="3" ry="3" style="stroke:#000000;stroke-width:1.0;"/><text fill="#000000" font-family="sans-serif" font-size="14" lengthAdjust="spacing" textLength="187" x="29" y="374.5339">path : varchar(255) - unique</text><ellipse cx="20" cy="385.6358" fill="#000000" rx="3" ry="3" style="stroke:#000000;stroke-width:1.0;"/><text fill="#000000" font-family="sans-serif" font-size="14" lengthAdjust="spacing" textLength="119" x="29" y="393.6018">fk_feed_id : bigint</text><ellipse cx="20" cy="404.7038" fill="#000000" rx="3" ry="3" style="stroke:#000000;stroke-width:1.0;"/><text fill="#000000" font-family="sans-serif" font-size="14" lengthAdjust="spacing" textLength="132" x="29" y="412.6697">examined : boolean</text><ellipse cx="20" cy="423.7717" fill="#000000" rx="3" ry="3" style="stroke:#000000;stroke-width:1.0;"/><text fill="#000000" font-family="sans-serif" font-size="14" lengthAdjust="spacing" textLength="135" x="29" y="431.7376">item_count : integer</text><ellipse cx="20" cy="442.8396" fill="#000000" rx="3" ry="3" style="stroke:#000000;stroke-width:1.0;"/><text fill="#000000" font-family="sans-serif" font-size="14" lengthAdjust="spacing" textLength="140" x="29" y="450.8055">new_position : bigint</text></g><!--MD5=[23693ca385c1414b1e74e8b4c3b37cb4]
class source_item--><g id="elem_source_item"><rect codeLine="22" fill="#F1F1F1" height="181.4754" id="source_item" rx="2.5" ry="2.5" style="stroke:#181818;stroke-width:0.5;" width="185" x="23" y="528"/><ellipse cx="70.75" cy="544" fill="#ADD1B2" rx="11" ry="11" style="stroke:#181818;stroke-width:1.0;"/><path d="M67.1094,550.5 L67.1094,538.3594 L74.7656,538.3594 L74.7656,540.4844 L69.4844,540.4844 L69.4844,543.1406 L74.5,543.1406 L74.5,545.2656 L69.4844,545.2656 L69.4844,548.375 L74.7656,548.375 L74.7656,550.5 L67.1094,550.5 Z " fill="#000000"/><text fill="#000000" font-family="sans-serif" font-size="14" lengthAdjust="spacing" textLength="81" x="91.25" y="549.432">source_item</text><line style="stroke:#181818;stroke-width:0.5;" x1="24" x2="207" y1="560" y2="560"/><ellipse cx="34" cy="571" fill="#000000" rx="3" ry="3" style="stroke:#000000;stroke-width:1.0;"/><text fill="#000000" font-family="sans-serif" font-size="14" lengthAdjust="spacing" textLength="65" x="43" y="578.9659">id : bigint</text><line style="stroke:#181818;stroke-width:1.0;" x1="24" x2="207" y1="587.0679" y2="587.0679"/><ellipse cx="34" cy="598.0679" fill="#000000" rx="3" ry="3" style="stroke:#000000;stroke-width:1.0;"/><text fill="#000000" font-family="sans-serif" font-size="14" lengthAdjust="spacing" textLength="133" x="43" y="606.0339">name : varchar(255)</text><ellipse cx="34" cy="617.1358" fill="#000000" rx="3" ry="3" style="stroke:#000000;stroke-width:1.0;"/><text fill="#000000" font-family="sans-serif" font-size="14" lengthAdjust="spacing" textLength="119" x="43" y="625.1018">fk_feed_id : bigint</text><ellipse cx="34" cy="636.2038" fill="#000000" rx="3" ry="3" style="stroke:#000000;stroke-width:1.0;"/><text fill="#000000" font-family="sans-serif" font-size="14" lengthAdjust="spacing" textLength="113" x="43" y="644.1697">byte_size : bigint</text><ellipse cx="34" cy="655.2717" fill="#000000" rx="3" ry="3" style="stroke:#000000;stroke-width:1.0;"/><text fill="#000000" font-family="sans-serif" font-size="14" lengthAdjust="spacing" textLength="134" x="43" y="663.2376">fk_source_id : bigint</text><ellipse cx="34" cy="674.3396" fill="#000000" rx="3" ry="3" style="stroke:#000000;stroke-width:1.0;"/><text fill="#000000" font-family="sans-serif" font-size="14" lengthAdjust="spacing" textLength="159" x="43" y="682.3055">fk_aggregate_id : bigint</text><ellipse cx="34" cy="693.4075" fill="#000000" rx="3" ry="3" style="stroke:#000000;stroke-width:1.0;"/><text fill="#000000" font-family="sans-serif" font-size="14" lengthAdjust="spacing" textLength="140" x="43" y="701.3734">new_position : bigint</text></g><!--MD5=[920d5660a06730163c0204a2780a33ae]
class source_entry--><g id="elem_source_entry"><rect codeLine="33" fill="#F1F1F1" height="143.3396" id="source_entry" rx="2.5" ry="2.5" style="stroke:#181818;stroke-width:0.5;" width="196" x="17.5" y="769"/><ellipse cx="68.25" cy="785" fill="#ADD1B2" rx="11" ry="11" style="stroke:#181818;stroke-width:1.0;"/><path d="M64.6094,791.5 L64.6094,779.3594 L72.2656,779.3594 L72.2656,781.4844 L66.9844,781.4844 L66.9844,784.1406 L72,784.1406 L72,786.2656 L66.9844,786.2656 L66.9844,789.375 L72.2656,789.375 L72.2656,791.5 L64.6094,791.5 Z " fill="#000000"/><text fill="#000000" font-family="sans-serif" font-size="14" lengthAdjust="spacing" textLength="86" x="88.75" y="790.432">source_entry</text><line style="stroke:#181818;stroke-width:0.5;" x1="18.5" x2="212.5" y1="801" y2="801"/><ellipse cx="28.5" cy="812" fill="#000000" rx="3" ry="3" style="stroke:#000000;stroke-width:1.0;"/><text fill="#000000" font-family="sans-serif" font-size="14" lengthAdjust="spacing" textLength="65" x="37.5" y="819.9659">id : bigint</text><line style="stroke:#181818;stroke-width:1.0;" x1="18.5" x2="212.5" y1="828.0679" y2="828.0679"/><ellipse cx="28.5" cy="839.0679" fill="#000000" rx="3" ry="3" style="stroke:#000000;stroke-width:1.0;"/><text fill="#000000" font-family="sans-serif" font-size="14" lengthAdjust="spacing" textLength="160" x="37.5" y="847.0339">extension : varchar(255)</text><ellipse cx="28.5" cy="858.1358" fill="#000000" rx="3" ry="3" style="stroke:#000000;stroke-width:1.0;"/><text fill="#000000" font-family="sans-serif" font-size="14" lengthAdjust="spacing" textLength="130" x="37.5" y="866.1018">extension_type : int</text><ellipse cx="28.5" cy="877.2038" fill="#000000" rx="3" ry="3" style="stroke:#000000;stroke-width:1.0;"/><text fill="#000000" font-family="sans-serif" font-size="14" lengthAdjust="spacing" textLength="113" x="37.5" y="885.1697">byte_size : bigint</text><ellipse cx="28.5" cy="896.2717" fill="#000000" rx="3" ry="3" style="stroke:#000000;stroke-width:1.0;"/><text fill="#000000" font-family="sans-serif" font-size="14" lengthAdjust="spacing" textLength="170" x="37.5" y="904.2376">fk_source_item_id : bigint</text></g><!--MD5=[1ef907470190a52481b72bc04299235e]
class aggregate--><g id="elem_aggregate"><rect codeLine="42" fill="#F1F1F1" height="181.4754" id="aggregate" rx="2.5" ry="2.5" style="stroke:#181818;stroke-width:0.5;" width="182" x="257.5" y="287"/><ellipse cx="309.25" cy="303" fill="#ADD1B2" rx="11" ry="11" style="stroke:#181818;stroke-width:1.0;"/><path d="M305.6094,309.5 L305.6094,297.3594 L313.2656,297.3594 L313.2656,299.4844 L307.9844,299.4844 L307.9844,302.1406 L313,302.1406 L313,304.2656 L307.9844,304.2656 L307.9844,307.375 L313.2656,307.375 L313.2656,309.5 L305.6094,309.5 Z " fill="#000000"/><text fill="#000000" font-family="sans-serif" font-size="14" lengthAdjust="spacing" textLength="70" x="329.75" y="308.432">aggregate</text><line style="stroke:#181818;stroke-width:0.5;" x1="258.5" x2="438.5" y1="319" y2="319"/><ellipse cx="268.5" cy="330" fill="#000000" rx="3" ry="3" style="stroke:#000000;stroke-width:1.0;"/><text fill="#000000" font-family="sans-serif" font-size="14" lengthAdjust="spacing" textLength="65" x="277.5" y="337.9659">id : bigint</text><line style="stroke:#181818;stroke-width:1.0;" x1="258.5" x2="438.5" y1="346.0679" y2="346.0679"/><ellipse cx="268.5" cy="357.0679" fill="#000000" rx="3" ry="3" style="stroke:#000000;stroke-width:1.0;"/><text fill="#000000" font-family="sans-serif" font-size="14" lengthAdjust="spacing" textLength="156" x="277.5" y="365.0339">create_time_ms : bigint</text><ellipse cx="268.5" cy="376.1358" fill="#000000" rx="3" ry="3" style="stroke:#000000;stroke-width:1.0;"/><text fill="#000000" font-family="sans-serif" font-size="14" lengthAdjust="spacing" textLength="119" x="277.5" y="384.1018">fk_feed_id : bigint</text><ellipse cx="268.5" cy="395.2038" fill="#000000" rx="3" ry="3" style="stroke:#000000;stroke-width:1.0;"/><text fill="#000000" font-family="sans-serif" font-size="14" lengthAdjust="spacing" textLength="113" x="277.5" y="403.1697">byte_size : bigint</text><ellipse cx="268.5" cy="414.2717" fill="#000000" rx="3" ry="3" style="stroke:#000000;stroke-width:1.0;"/><text fill="#000000" font-family="sans-serif" font-size="14" lengthAdjust="spacing" textLength="67" x="277.5" y="422.2376">items : int</text><ellipse cx="268.5" cy="433.3396" fill="#000000" rx="3" ry="3" style="stroke:#000000;stroke-width:1.0;"/><text fill="#000000" font-family="sans-serif" font-size="14" lengthAdjust="spacing" textLength="128" x="277.5" y="441.3055">complete : boolean</text><ellipse cx="268.5" cy="452.4075" fill="#000000" rx="3" ry="3" style="stroke:#000000;stroke-width:1.0;"/><text fill="#000000" font-family="sans-serif" font-size="14" lengthAdjust="spacing" textLength="140" x="277.5" y="460.3734">new_position : bigint</text></g><!--MD5=[9ec5b5fc933be4ccfb94bd357655b06c]
class forward_dest--><g id="elem_forward_dest"><rect codeLine="53" fill="#F1F1F1" height="86.1358" id="forward_dest" rx="2.5" ry="2.5" style="stroke:#181818;stroke-width:0.5;" width="159" x="475" y="334.5"/><ellipse cx="507.55" cy="350.5" fill="#ADD1B2" rx="11" ry="11" style="stroke:#181818;stroke-width:1.0;"/><path d="M503.9094,357 L503.9094,344.8594 L511.5656,344.8594 L511.5656,346.9844 L506.2844,346.9844 L506.2844,349.6406 L511.3,349.6406 L511.3,351.7656 L506.2844,351.7656 L506.2844,354.875 L511.5656,354.875 L511.5656,357 L503.9094,357 Z " fill="#000000"/><text fill="#000000" font-family="sans-serif" font-size="14" lengthAdjust="spacing" textLength="88" x="525.45" y="355.932">forward_dest</text><line style="stroke:#181818;stroke-width:0.5;" x1="476" x2="633" y1="366.5" y2="366.5"/><ellipse cx="486" cy="377.5" fill="#000000" rx="3" ry="3" style="stroke:#000000;stroke-width:1.0;"/><text fill="#000000" font-family="sans-serif" font-size="14" lengthAdjust="spacing" textLength="43" x="495" y="385.4659">id : int</text><line style="stroke:#181818;stroke-width:1.0;" x1="476" x2="633" y1="393.5679" y2="393.5679"/><ellipse cx="486" cy="404.5679" fill="#000000" rx="3" ry="3" style="stroke:#000000;stroke-width:1.0;"/><text fill="#000000" font-family="sans-serif" font-size="14" lengthAdjust="spacing" textLength="133" x="495" y="412.5339">name : varchar(255)</text></g><!--MD5=[cbb12bc3eee1de79b3f2e300a168c511]
class forward_source--><g id="elem_forward_source"><rect codeLine="59" fill="#F1F1F1" height="219.6113" id="forward_source" rx="2.5" ry="2.5" style="stroke:#181818;stroke-width:0.5;" width="188" x="237.5" y="7"/><ellipse cx="275.9" cy="23" fill="#ADD1B2" rx="11" ry="11" style="stroke:#181818;stroke-width:1.0;"/><path d="M272.2594,29.5 L272.2594,17.3594 L279.9156,17.3594 L279.9156,19.4844 L274.6344,19.4844 L274.6344,22.1406 L279.65,22.1406 L279.65,24.2656 L274.6344,24.2656 L274.6344,27.375 L279.9156,27.375 L279.9156,29.5 L272.2594,29.5 Z " fill="#000000"/><text fill="#000000" font-family="sans-serif" font-size="14" lengthAdjust="spacing" textLength="104" x="295.1" y="28.432">forward_source</text><line style="stroke:#181818;stroke-width:0.5;" x1="238.5" x2="424.5" y1="39" y2="39"/><ellipse cx="248.5" cy="50" fill="#000000" rx="3" ry="3" style="stroke:#000000;stroke-width:1.0;"/><text fill="#000000" font-family="sans-serif" font-size="14" lengthAdjust="spacing" textLength="65" x="257.5" y="57.9659">id : bigint</text><line style="stroke:#181818;stroke-width:1.0;" x1="238.5" x2="424.5" y1="66.0679" y2="66.0679"/><ellipse cx="248.5" cy="77.0679" fill="#000000" rx="3" ry="3" style="stroke:#000000;stroke-width:1.0;"/><text fill="#000000" font-family="sans-serif" font-size="14" lengthAdjust="spacing" textLength="162" x="257.5" y="85.0339">update_time_ms : bigint</text><ellipse cx="248.5" cy="96.1358" fill="#000000" rx="3" ry="3" style="stroke:#000000;stroke-width:1.0;"/><text fill="#000000" font-family="sans-serif" font-size="14" lengthAdjust="spacing" textLength="155" x="257.5" y="104.1018">fk_forward_dest_id : int</text><ellipse cx="248.5" cy="115.2038" fill="#000000" rx="3" ry="3" style="stroke:#000000;stroke-width:1.0;"/><text fill="#000000" font-family="sans-serif" font-size="14" lengthAdjust="spacing" textLength="134" x="257.5" y="123.1697">fk_source_id : bigint</text><ellipse cx="248.5" cy="134.2717" fill="#000000" rx="3" ry="3" style="stroke:#000000;stroke-width:1.0;"/><text fill="#000000" font-family="sans-serif" font-size="14" lengthAdjust="spacing" textLength="118" x="257.5" y="142.2376">success : boolean</text><ellipse cx="248.5" cy="153.3396" fill="#000000" rx="3" ry="3" style="stroke:#000000;stroke-width:1.0;"/><text fill="#000000" font-family="sans-serif" font-size="14" lengthAdjust="spacing" textLength="129" x="257.5" y="161.3055">error : varchar(255)</text><ellipse cx="248.5" cy="172.4075" fill="#000000" rx="3" ry="3" style="stroke:#000000;stroke-width:1.0;"/><text fill="#000000" font-family="sans-serif" font-size="14" lengthAdjust="spacing" textLength="82" x="257.5" y="180.3734">tries : bigint</text><ellipse cx="248.5" cy="191.4754" fill="#000000" rx="3" ry="3" style="stroke:#000000;stroke-width:1.0;"/><text fill="#000000" font-family="sans-serif" font-size="14" lengthAdjust="spacing" textLength="140" x="257.5" y="199.4414">new_position : bigint</text><ellipse cx="248.5" cy="210.5433" fill="#000000" rx="3" ry="3" style="stroke:#000000;stroke-width:1.0;"/><text fill="#000000" font-family="sans-serif" font-size="14" lengthAdjust="spacing" textLength="144" x="257.5" y="218.5093">retry_position : bigint</text></g><!--MD5=[d4f398bbc1193deb68c8428dcb929078]
class forward_aggregate--><g id="elem_forward_aggregate"><rect codeLine="72" fill="#F1F1F1" height="219.6113" id="forward_aggregate" rx="2.5" ry="2.5" style="stroke:#181818;stroke-width:0.5;" width="188" x="460.5" y="7"/><ellipse cx="487.65" cy="23" fill="#ADD1B2" rx="11" ry="11" style="stroke:#181818;stroke-width:1.0;"/><path d="M484.0094,29.5 L484.0094,17.3594 L491.6656,17.3594 L491.6656,19.4844 L486.3844,19.4844 L486.3844,22.1406 L491.4,22.1406 L491.4,24.2656 L486.3844,24.2656 L486.3844,27.375 L491.6656,27.375 L491.6656,29.5 L484.0094,29.5 Z " fill="#000000"/><text fill="#000000" font-family="sans-serif" font-size="14" lengthAdjust="spacing" textLength="129" x="504.35" y="28.432">forward_aggregate</text><line style="stroke:#181818;stroke-width:0.5;" x1="461.5" x2="647.5" y1="39" y2="39"/><ellipse cx="471.5" cy="50" fill="#000000" rx="3" ry="3" style="stroke:#000000;stroke-width:1.0;"/><text fill="#000000" font-family="sans-serif" font-size="14" lengthAdjust="spacing" textLength="65" x="480.5" y="57.9659">id : bigint</text><line style="stroke:#181818;stroke-width:1.0;" x1="461.5" x2="647.5" y1="66.0679" y2="66.0679"/><ellipse cx="471.5" cy="77.0679" fill="#000000" rx="3" ry="3" style="stroke:#000000;stroke-width:1.0;"/><text fill="#000000" font-family="sans-serif" font-size="14" lengthAdjust="spacing" textLength="162" x="480.5" y="85.0339">update_time_ms : bigint</text><ellipse cx="471.5" cy="96.1358" fill="#000000" rx="3" ry="3" style="stroke:#000000;stroke-width:1.0;"/><text fill="#000000" font-family="sans-serif" font-size="14" lengthAdjust="spacing" textLength="155" x="480.5" y="104.1018">fk_forward_dest_id : int</text><ellipse cx="471.5" cy="115.2038" fill="#000000" rx="3" ry="3" style="stroke:#000000;stroke-width:1.0;"/><text fill="#000000" font-family="sans-serif" font-size="14" lengthAdjust="spacing" textLength="159" x="480.5" y="123.1697">fk_aggregate_id : bigint</text><ellipse cx="471.5" cy="134.2717" fill="#000000" rx="3" ry="3" style="stroke:#000000;stroke-width:1.0;"/><text fill="#000000" font-family="sans-serif" font-size="14" lengthAdjust="spacing" textLength="118" x="480.5" y="142.2376">success : boolean</text><ellipse cx="471.5" cy="153.3396" fill="#000000" rx="3" ry="3" style="stroke:#000000;stroke-width:1.0;"/><text fill="#000000" font-family="sans-serif" font-size="14" lengthAdjust="spacing" textLength="129" x="480.5" y="161.3055">error : varchar(255)</text><ellipse cx="471.5" cy="172.4075" fill="#000000" rx="3" ry="3" style="stroke:#000000;stroke-width:1.0;"/><text fill="#000000" font-family="sans-serif" font-size="14" lengthAdjust="spacing" textLength="82" x="480.5" y="180.3734">tries : bigint</text><ellipse cx="471.5" cy="191.4754" fill="#000000" rx="3" ry="3" style="stroke:#000000;stroke-width:1.0;"/><text fill="#000000" font-family="sans-serif" font-size="14" lengthAdjust="spacing" textLength="140" x="480.5" y="199.4414">new_position : bigint</text><ellipse cx="471.5" cy="210.5433" fill="#000000" rx="3" ry="3" style="stroke:#000000;stroke-width:1.0;"/><text fill="#000000" font-family="sans-serif" font-size="14" lengthAdjust="spacing" textLength="144" x="480.5" y="218.5093">retry_position : bigint</text></g><!--MD5=[8fc0b909dc2d6f9332fdd45de385bd9e]
link feed to source--><g id="link_feed_source"><path codeLine="85" d="M73.33,177.72 C73.33,177.72 73.33,288.38 73.33,288.38 " fill="none" id="feed-source" style="stroke:#181818;stroke-width:1.0;"/><line style="stroke:#181818;stroke-width:1.0;" x1="73.33" x2="79.33" y1="288.38" y2="296.38"/><line style="stroke:#181818;stroke-width:1.0;" x1="73.33" x2="67.33" y1="288.38" y2="296.38"/><line style="stroke:#181818;stroke-width:1.0;" x1="73.33" x2="73.33" y1="288.38" y2="296.38"/><line style="stroke:#181818;stroke-width:1.0;" x1="77.33" x2="69.33" y1="286.38" y2="286.38"/><line style="stroke:#181818;stroke-width:1.0;" x1="69.33" x2="77.33" y1="173.72" y2="173.72"/><line style="stroke:#181818;stroke-width:1.0;" x1="69.33" x2="77.33" y1="176.72" y2="176.72"/><line style="stroke:#181818;stroke-width:1.0;" x1="73.33" x2="73.33" y1="177.72" y2="169.72"/></g><!--MD5=[11c2e13f815eb43a8199e329e64e3864]
link feed to source_item--><g id="link_feed_source_item"><path codeLine="86" d="M210.26,117 C210.26,117 229.75,117 229.75,117 C229.75,117 229.75,619 229.75,619 C229.75,619 216.26,619 216.26,619 " fill="none" id="feed-source_item" style="stroke:#181818;stroke-width:1.0;"/><line style="stroke:#181818;stroke-width:1.0;" x1="216.26" x2="208.26" y1="619" y2="625"/><line style="stroke:#181818;stroke-width:1.0;" x1="216.26" x2="208.26" y1="619" y2="613"/><line style="stroke:#181818;stroke-width:1.0;" x1="216.26" x2="208.26" y1="619" y2="619"/><line style="stroke:#181818;stroke-width:1.0;" x1="218.26" x2="218.26" y1="623" y2="615"/><line style="stroke:#181818;stroke-width:1.0;" x1="206.26" x2="206.26" y1="121" y2="113"/><line style="stroke:#181818;stroke-width:1.0;" x1="209.26" x2="209.26" y1="121" y2="113"/><line style="stroke:#181818;stroke-width:1.0;" x1="210.26" x2="202.26" y1="117" y2="117"/></g><!--MD5=[2216fa80f18d20d599bb2d67b2e757c8]
link feed to aggregate--><g id="link_feed_aggregate"><path codeLine="87" d="M137.67,177.51 C137.67,177.51 137.67,292 137.67,292 C137.67,292 249.25,292 249.25,292 " fill="none" id="feed-aggregate" style="stroke:#181818;stroke-width:1.0;"/><line style="stroke:#181818;stroke-width:1.0;" x1="249.25" x2="257.25" y1="292" y2="286"/><line style="stroke:#181818;stroke-width:1.0;" x1="249.25" x2="257.25" y1="292" y2="298"/><line style="stroke:#181818;stroke-width:1.0;" x1="249.25" x2="257.25" y1="292" y2="292"/><line style="stroke:#181818;stroke-width:1.0;" x1="247.25" x2="247.25" y1="288" y2="296"/><line style="stroke:#181818;stroke-width:1.0;" x1="133.67" x2="141.67" y1="173.51" y2="173.51"/><line style="stroke:#181818;stroke-width:1.0;" x1="133.67" x2="141.67" y1="176.51" y2="176.51"/><line style="stroke:#181818;stroke-width:1.0;" x1="137.67" x2="137.67" y1="177.51" y2="169.51"/></g><!--MD5=[bde66a182555eb887059de8293221a83]
link source to source_item--><g id="link_source_source_item"><path codeLine="89" d="M84.67,466.76 C84.67,466.76 84.67,519.65 84.67,519.65 " fill="none" id="source-source_item" style="stroke:#181818;stroke-width:1.0;stroke-dasharray:7.0,7.0;"/><line style="stroke:#181818;stroke-width:1.0;" x1="84.67" x2="90.67" y1="519.65" y2="527.65"/><line style="stroke:#181818;stroke-width:1.0;" x1="84.67" x2="78.67" y1="519.65" y2="527.65"/><line style="stroke:#181818;stroke-width:1.0;" x1="84.67" x2="84.67" y1="519.65" y2="527.65"/><ellipse cx="84.67" cy="513.65" fill="none" rx="4" ry="4" style="stroke:#181818;stroke-width:1.0;"/><line style="stroke:#181818;stroke-width:1.0;" x1="80.67" x2="88.67" y1="462.76" y2="462.76"/><line style="stroke:#181818;stroke-width:1.0;" x1="80.67" x2="88.67" y1="465.76" y2="465.76"/><line style="stroke:#181818;stroke-width:1.0;" x1="84.67" x2="84.67" y1="466.76" y2="458.76"/></g><!--MD5=[6610028f0c7a0554f2085ee3824405a3]
link source_item to source_entry--><g id="link_source_item_source_entry"><path codeLine="90" d="M115.5,717.12 C115.5,717.12 115.5,760.86 115.5,760.86 " fill="none" id="source_item-source_entry" style="stroke:#181818;stroke-width:1.0;"/><line style="stroke:#181818;stroke-width:1.0;" x1="115.5" x2="121.5" y1="760.86" y2="768.86"/><line style="stroke:#181818;stroke-width:1.0;" x1="115.5" x2="109.5" y1="760.86" y2="768.86"/><line style="stroke:#181818;stroke-width:1.0;" x1="115.5" x2="115.5" y1="760.86" y2="768.86"/><line style="stroke:#181818;stroke-width:1.0;" x1="119.5" x2="111.5" y1="758.86" y2="758.86"/><line style="stroke:#181818;stroke-width:1.0;" x1="111.5" x2="119.5" y1="713.12" y2="713.12"/><line style="stroke:#181818;stroke-width:1.0;" x1="111.5" x2="119.5" y1="716.12" y2="716.12"/><line style="stroke:#181818;stroke-width:1.0;" x1="115.5" x2="115.5" y1="717.12" y2="709.12"/></g><!--MD5=[c19e3c6eb4e2962e1f79b15e01c56d18]
link aggregate to source_item--><g id="link_aggregate_source_item"><path codeLine="91" d="M249.47,464 C249.47,464 146.33,464 146.33,464 C146.33,464 146.33,519.73 146.33,519.73 " fill="none" id="aggregate-source_item" style="stroke:#181818;stroke-width:1.0;"/><line style="stroke:#181818;stroke-width:1.0;" x1="146.33" x2="152.33" y1="519.73" y2="527.73"/><line style="stroke:#181818;stroke-width:1.0;" x1="146.33" x2="140.33" y1="519.73" y2="527.73"/><line style="stroke:#181818;stroke-width:1.0;" x1="146.33" x2="146.33" y1="519.73" y2="527.73"/><line style="stroke:#181818;stroke-width:1.0;" x1="150.33" x2="142.33" y1="517.73" y2="517.73"/><line style="stroke:#181818;stroke-width:1.0;" x1="253.47" x2="253.47" y1="460" y2="468"/><line style="stroke:#181818;stroke-width:1.0;" x1="250.47" x2="250.47" y1="460" y2="468"/><line style="stroke:#181818;stroke-width:1.0;" x1="249.47" x2="257.47" y1="464" y2="464"/></g><!--MD5=[54c1b24e6057a99c9e198a549ce0fbbe]
link forward_source to forward_dest--><g id="link_forward_source_forward_dest"><path codeLine="92" d="M433.73,117 C433.73,117 450,117 450,117 C450,117 450,378 450,378 C450,378 466.77,378 466.77,378 " fill="none" id="forward_source-forward_dest" style="stroke:#181818;stroke-width:1.0;"/><line style="stroke:#181818;stroke-width:1.0;" x1="470.77" x2="470.77" y1="374" y2="382"/><line style="stroke:#181818;stroke-width:1.0;" x1="467.77" x2="467.77" y1="374" y2="382"/><line style="stroke:#181818;stroke-width:1.0;" x1="466.77" x2="474.77" y1="378" y2="378"/><line style="stroke:#181818;stroke-width:1.0;" x1="433.73" x2="425.73" y1="117" y2="123"/><line style="stroke:#181818;stroke-width:1.0;" x1="433.73" x2="425.73" y1="117" y2="111"/><line style="stroke:#181818;stroke-width:1.0;" x1="433.73" x2="425.73" y1="117" y2="117"/><ellipse cx="439.73" cy="117" fill="none" rx="4" ry="4" style="stroke:#181818;stroke-width:1.0;"/></g><!--MD5=[d49f4a8229bc31f1f5d61244df6e6e3c]
link forward_source to source--><g id="link_forward_source_source"><path codeLine="93" d="M229.34,199 C229.34,199 212,199 212,199 C212,199 212,288.35 212,288.35 " fill="none" id="forward_source-source" style="stroke:#181818;stroke-width:1.0;stroke-dasharray:7.0,7.0;"/><line style="stroke:#181818;stroke-width:1.0;" x1="216" x2="208" y1="292.35" y2="292.35"/><line style="stroke:#181818;stroke-width:1.0;" x1="216" x2="208" y1="289.35" y2="289.35"/><line style="stroke:#181818;stroke-width:1.0;" x1="212" x2="212" y1="288.35" y2="296.35"/><line style="stroke:#181818;stroke-width:1.0;" x1="229.34" x2="237.34" y1="199" y2="193"/><line style="stroke:#181818;stroke-width:1.0;" x1="229.34" x2="237.34" y1="199" y2="205"/><line style="stroke:#181818;stroke-width:1.0;" x1="229.34" x2="237.34" y1="199" y2="199"/><ellipse cx="223.34" cy="199" fill="none" rx="4" ry="4" style="stroke:#181818;stroke-width:1.0;"/></g><!--MD5=[899709fd871b185fa39e21df274ef805]
link forward_aggregate to forward_dest--><g id="link_forward_aggregate_forward_dest"><path codeLine="94" d="M554.5,235.1 C554.5,235.1 554.5,326.24 554.5,326.24 " fill="none" id="forward_aggregate-forward_dest" style="stroke:#181818;stroke-width:1.0;"/><line style="stroke:#181818;stroke-width:1.0;" x1="558.5" x2="550.5" y1="330.24" y2="330.24"/><line style="stroke:#181818;stroke-width:1.0;" x1="558.5" x2="550.5" y1="327.24" y2="327.24"/><line style="stroke:#181818;stroke-width:1.0;" x1="554.5" x2="554.5" y1="326.24" y2="334.24"/><line style="stroke:#181818;stroke-width:1.0;" x1="554.5" x2="548.5" y1="235.1" y2="227.1"/><line style="stroke:#181818;stroke-width:1.0;" x1="554.5" x2="560.5" y1="235.1" y2="227.1"/><line style="stroke:#181818;stroke-width:1.0;" x1="554.5" x2="554.5" y1="235.1" y2="227.1"/><ellipse cx="554.5" cy="241.1" fill="none" rx="4" ry="4" style="stroke:#181818;stroke-width:1.0;"/></g><!--MD5=[0ac3d8377118ba1284c6e32a49f23729]
link forward_aggregate to aggregate--><g id="link_forward_aggregate_aggregate"><path codeLine="95" d="M467.75,235.04 C467.75,235.04 467.75,311 467.75,311 C467.75,311 447.79,311 447.79,311 " fill="none" id="forward_aggregate-aggregate" style="stroke:#181818;stroke-width:1.0;"/><line style="stroke:#181818;stroke-width:1.0;" x1="443.79" x2="443.79" y1="315" y2="307"/><line style="stroke:#181818;stroke-width:1.0;" x1="446.79" x2="446.79" y1="315" y2="307"/><line style="stroke:#181818;stroke-width:1.0;" x1="447.79" x2="439.79" y1="311" y2="311"/><line style="stroke:#181818;stroke-width:1.0;" x1="467.75" x2="461.75" y1="235.04" y2="227.04"/><line style="stroke:#181818;stroke-width:1.0;" x1="467.75" x2="473.75" y1="235.04" y2="227.04"/><line style="stroke:#181818;stroke-width:1.0;" x1="467.75" x2="467.75" y1="235.04" y2="227.04"/><ellipse cx="467.75" cy="241.04" fill="none" rx="4" ry="4" style="stroke:#181818;stroke-width:1.0;"/></g><!--MD5=[023d446393509cda49b5ab5bf7af428e]
@startuml

' avoid problems with angled crows feet
skinparam linetype ortho

entity feed {
  *id : bigint
  - -
  *feed_name : varchar(255)
  *type_name : varchar(255)
}

entity source {
  *id : bigint
  - -
  *path : varchar(255) - unique
  *fk_feed_id : bigint
  *examined : boolean
  *item_count : integer
  *new_position : bigint
}

entity source_item {
  *id : bigint
  - -
  *name : varchar(255)
  *fk_feed_id : bigint
  *byte_size : bigint
  *fk_source_id : bigint
  *fk_aggregate_id : bigint
  *new_position : bigint
}

entity source_entry {
  *id : bigint
  - -
  *extension : varchar(255)
  *extension_type : int
  *byte_size : bigint
  *fk_source_item_id : bigint
}

entity aggregate {
  *id : bigint
  - -
  *create_time_ms : bigint
  *fk_feed_id : bigint
  *byte_size : bigint
  *items : int
  *complete : boolean
  *new_position : bigint
}

entity forward_dest {
  *id : int
  - -
  *name : varchar(255)
}

entity forward_source {
  *id : bigint
  - -
  *update_time_ms : bigint
  *fk_forward_dest_id : int
  *fk_source_id : bigint
  *success : boolean
  *error : varchar(255)
  *tries : bigint
  *new_position : bigint
  *retry_position : bigint
}

entity forward_aggregate {
  *id : bigint
  - -
  *update_time_ms : bigint
  *fk_forward_dest_id : int
  *fk_aggregate_id : bigint
  *success : boolean
  *error : varchar(255)
  *tries : bigint
  *new_position : bigint
  *retry_position : bigint
}

feed ||- -|{ source
feed ||- -|{ source_item
feed ||- -|{ aggregate

source ||..o{ source_item
source_item ||- -|{ source_entry
aggregate ||- -|{ source_item
forward_source }o- -|| forward_dest
forward_source }o..|| source
forward_aggregate }o- -|| forward_dest
forward_aggregate }o- -|| aggregate

@enduml

@startuml

skinparam linetype ortho

entity feed {
  *id : bigint
  - -
  *feed_name : varchar(255)
  *type_name : varchar(255)
}

entity source {
  *id : bigint
  - -
  *path : varchar(255) - unique
  *fk_feed_id : bigint
  *examined : boolean
  *item_count : integer
  *new_position : bigint
}

entity source_item {
  *id : bigint
  - -
  *name : varchar(255)
  *fk_feed_id : bigint
  *byte_size : bigint
  *fk_source_id : bigint
  *fk_aggregate_id : bigint
  *new_position : bigint
}

entity source_entry {
  *id : bigint
  - -
  *extension : varchar(255)
  *extension_type : int
  *byte_size : bigint
  *fk_source_item_id : bigint
}

entity aggregate {
  *id : bigint
  - -
  *create_time_ms : bigint
  *fk_feed_id : bigint
  *byte_size : bigint
  *items : int
  *complete : boolean
  *new_position : bigint
}

entity forward_dest {
  *id : int
  - -
  *name : varchar(255)
}

entity forward_source {
  *id : bigint
  - -
  *update_time_ms : bigint
  *fk_forward_dest_id : int
  *fk_source_id : bigint
  *success : boolean
  *error : varchar(255)
  *tries : bigint
  *new_position : bigint
  *retry_position : bigint
}

entity forward_aggregate {
  *id : bigint
  - -
  *update_time_ms : bigint
  *fk_forward_dest_id : int
  *fk_aggregate_id : bigint
  *success : boolean
  *error : varchar(255)
  *tries : bigint
  *new_position : bigint
  *retry_position : bigint
}

feed ||- -|{ source
feed ||- -|{ source_item
feed ||- -|{ aggregate

source ||..o{ source_item
source_item ||- -|{ source_entry
aggregate ||- -|{ source_item
forward_source }o- -|| forward_dest
forward_source }o..|| source
forward_aggregate }o- -|| forward_dest
forward_aggregate }o- -|| aggregate

@enduml

PlantUML version 1.2022.4(Sat Apr 09 14:29:17 BST 2022)
(GPL source distribution)
Java Runtime: OpenJDK Runtime Environment
JVM: OpenJDK 64-Bit Server VM
Default Encoding: UTF-8
Language: en
Country: GB
--></g></svg>