<?xml version="1.0" encoding="UTF-8" standalone="no"?><svg xmlns="http://www.w3.org/2000/svg" xmlns:xlink="http://www.w3.org/1999/xlink" contentScriptType="application/ecmascript" contentStyleType="text/css" height="725px" preserveAspectRatio="none" style="width:468px;height:725px;" version="1.1" viewBox="0 0 468 725" width="468px" zoomAndPan="magnify"><defs><filter height="300%" id="ff14vv86i8m3u" width="300%" x="-1" y="-1"><feGaussianBlur result="blurOut" stdDeviation="2.0"/><feColorMatrix in="blurOut" result="blurOut2" type="matrix" values="0 0 0 0 0 0 0 0 0 0 0 0 0 0 0 0 0 0 .4 0"/><feOffset dx="4.0" dy="4.0" in="blurOut2" result="blurOut3"/><feBlend in="SourceGraphic" in2="blurOut3" mode="normal"/></filter></defs><g><!--MD5=[fb94403e3d3521d383fd6507b67b3642]
class source--><rect codeLine="5" fill="#FEFECE" filter="url(#ff14vv86i8m3u)" height="150.4375" id="source" style="stroke:#A80036;stroke-width:1.5;" width="200" x="254.5" y="179"/><ellipse cx="328.75" cy="195" fill="#ADD1B2" rx="11" ry="11" style="stroke:#A80036;stroke-width:1.0;"/><path d="M332.8594,201 L325.1406,201 L325.1406,188.6094 L332.8594,188.6094 L332.8594,190.7656 L327.5938,190.7656 L327.5938,193.4375 L332.3594,193.4375 L332.3594,195.5938 L327.5938,195.5938 L327.5938,198.8438 L332.8594,198.8438 L332.8594,201 Z " fill="#000000"/><text fill="#000000" font-family="sans-serif" font-size="12" lengthAdjust="spacing" textLength="43" x="349.25" y="199.1543">source</text><line style="stroke:#A80036;stroke-width:1.5;" x1="255.5" x2="453.5" y1="211" y2="211"/><ellipse cx="265.5" cy="222" fill="#000000" rx="3" ry="3" style="stroke:#000000;stroke-width:1.0;"/><text fill="#000000" font-family="sans-serif" font-size="11" lengthAdjust="spacing" textLength="53" x="274.5" y="225.2104">id : bigint</text><line style="stroke:#A80036;stroke-width:1.0;" x1="255.5" x2="453.5" y1="231.8047" y2="231.8047"/><ellipse cx="265.5" cy="242.8047" fill="#000000" rx="3" ry="3" style="stroke:#000000;stroke-width:1.0;"/><text fill="#000000" font-family="sans-serif" font-size="11" lengthAdjust="spacing" textLength="159" x="274.5" y="246.0151">path : varchar(255) - unique</text><ellipse cx="265.5" cy="255.6094" fill="#000000" rx="3" ry="3" style="stroke:#000000;stroke-width:1.0;"/><text fill="#000000" font-family="sans-serif" font-size="11" lengthAdjust="spacing" textLength="147" x="274.5" y="258.8198">feed_name : varchar(255)</text><ellipse cx="265.5" cy="268.4141" fill="#000000" rx="3" ry="3" style="stroke:#000000;stroke-width:1.0;"/><text fill="#000000" font-family="sans-serif" font-size="11" lengthAdjust="spacing" textLength="146" x="274.5" y="271.6245">type_name : varchar(255)</text><ellipse cx="265.5" cy="281.2188" fill="#000000" rx="3" ry="3" style="stroke:#000000;stroke-width:1.0;"/><text fill="#000000" font-family="sans-serif" font-size="11" lengthAdjust="spacing" textLength="174" x="274.5" y="284.4292">last_modified_time_ms : bigint</text><ellipse cx="265.5" cy="294.0234" fill="#000000" rx="3" ry="3" style="stroke:#000000;stroke-width:1.0;"/><text fill="#000000" font-family="sans-serif" font-size="11" lengthAdjust="spacing" textLength="112" x="274.5" y="297.2339">examined : boolean</text><ellipse cx="265.5" cy="306.8281" fill="#000000" rx="3" ry="3" style="stroke:#000000;stroke-width:1.0;"/><text fill="#000000" font-family="sans-serif" font-size="11" lengthAdjust="spacing" textLength="115" x="274.5" y="310.0386">forwarded : boolean</text><ellipse cx="265.5" cy="319.6328" fill="#000000" rx="3" ry="3" style="stroke:#000000;stroke-width:1.0;"/><text fill="#000000" font-family="sans-serif" font-size="11" lengthAdjust="spacing" textLength="136" x="274.5" y="322.8433">forward_error : boolean</text><!--MD5=[23693ca385c1414b1e74e8b4c3b37cb4]
class source_item--><rect codeLine="17" fill="#FEFECE" filter="url(#ff14vv86i8m3u)" height="124.8281" id="source_item" style="stroke:#A80036;stroke-width:1.5;" width="173" x="241" y="401.5"/><ellipse cx="285.25" cy="417.5" fill="#ADD1B2" rx="11" ry="11" style="stroke:#A80036;stroke-width:1.0;"/><path d="M289.3594,423.5 L281.6406,423.5 L281.6406,411.1094 L289.3594,411.1094 L289.3594,413.2656 L284.0938,413.2656 L284.0938,415.9375 L288.8594,415.9375 L288.8594,418.0938 L284.0938,418.0938 L284.0938,421.3438 L289.3594,421.3438 L289.3594,423.5 Z " fill="#000000"/><text fill="#000000" font-family="sans-serif" font-size="12" lengthAdjust="spacing" textLength="76" x="305.75" y="421.6543">source_item</text><line style="stroke:#A80036;stroke-width:1.5;" x1="242" x2="413" y1="433.5" y2="433.5"/><ellipse cx="252" cy="444.5" fill="#000000" rx="3" ry="3" style="stroke:#000000;stroke-width:1.0;"/><text fill="#000000" font-family="sans-serif" font-size="11" lengthAdjust="spacing" textLength="53" x="261" y="447.7104">id : bigint</text><line style="stroke:#A80036;stroke-width:1.0;" x1="242" x2="413" y1="454.3047" y2="454.3047"/><ellipse cx="252" cy="465.3047" fill="#000000" rx="3" ry="3" style="stroke:#000000;stroke-width:1.0;"/><text fill="#000000" font-family="sans-serif" font-size="11" lengthAdjust="spacing" textLength="116" x="261" y="468.5151">name : varchar(255)</text><ellipse cx="252" cy="478.1094" fill="#000000" rx="3" ry="3" style="stroke:#000000;stroke-width:1.0;"/><text fill="#000000" font-family="sans-serif" font-size="11" lengthAdjust="spacing" textLength="147" x="261" y="481.3198">feed_name : varchar(255)</text><ellipse cx="252" cy="490.9141" fill="#000000" rx="3" ry="3" style="stroke:#000000;stroke-width:1.0;"/><text fill="#000000" font-family="sans-serif" font-size="11" lengthAdjust="spacing" textLength="146" x="261" y="494.1245">type_name : varchar(255)</text><ellipse cx="252" cy="503.7188" fill="#000000" rx="3" ry="3" style="stroke:#000000;stroke-width:1.0;"/><text fill="#000000" font-family="sans-serif" font-size="11" lengthAdjust="spacing" textLength="114" x="261" y="506.9292">fk_source_id : bigint</text><ellipse cx="252" cy="516.5234" fill="#000000" rx="3" ry="3" style="stroke:#000000;stroke-width:1.0;"/><text fill="#000000" font-family="sans-serif" font-size="11" lengthAdjust="spacing" textLength="122" x="261" y="519.7339">aggregated : boolean</text><!--MD5=[920d5660a06730163c0204a2780a33ae]
class source_entry--><rect codeLine="27" fill="#FEFECE" filter="url(#ff14vv86i8m3u)" height="112.0234" id="source_entry" style="stroke:#A80036;stroke-width:1.5;" width="171" x="242" y="599"/><ellipse cx="283.1" cy="615" fill="#ADD1B2" rx="11" ry="11" style="stroke:#A80036;stroke-width:1.0;"/><path d="M287.2094,621 L279.4906,621 L279.4906,608.6094 L287.2094,608.6094 L287.2094,610.7656 L281.9438,610.7656 L281.9438,613.4375 L286.7094,613.4375 L286.7094,615.5938 L281.9438,615.5938 L281.9438,618.8438 L287.2094,618.8438 L287.2094,621 Z " fill="#000000"/><text fill="#000000" font-family="sans-serif" font-size="12" lengthAdjust="spacing" textLength="81" x="302.9" y="619.1543">source_entry</text><line style="stroke:#A80036;stroke-width:1.5;" x1="243" x2="412" y1="631" y2="631"/><ellipse cx="253" cy="642" fill="#000000" rx="3" ry="3" style="stroke:#000000;stroke-width:1.0;"/><text fill="#000000" font-family="sans-serif" font-size="11" lengthAdjust="spacing" textLength="53" x="262" y="645.2104">id : bigint</text><line style="stroke:#A80036;stroke-width:1.0;" x1="243" x2="412" y1="651.8047" y2="651.8047"/><ellipse cx="253" cy="662.8047" fill="#000000" rx="3" ry="3" style="stroke:#000000;stroke-width:1.0;"/><text fill="#000000" font-family="sans-serif" font-size="11" lengthAdjust="spacing" textLength="139" x="262" y="666.0151">extension : varchar(255)</text><ellipse cx="253" cy="675.6094" fill="#000000" rx="3" ry="3" style="stroke:#000000;stroke-width:1.0;"/><text fill="#000000" font-family="sans-serif" font-size="11" lengthAdjust="spacing" textLength="111" x="262" y="678.8198">extension_type : int</text><ellipse cx="253" cy="688.4141" fill="#000000" rx="3" ry="3" style="stroke:#000000;stroke-width:1.0;"/><text fill="#000000" font-family="sans-serif" font-size="11" lengthAdjust="spacing" textLength="95" x="262" y="691.6245">byte_size : bigint</text><ellipse cx="253" cy="701.2188" fill="#000000" rx="3" ry="3" style="stroke:#000000;stroke-width:1.0;"/><text fill="#000000" font-family="sans-serif" font-size="11" lengthAdjust="spacing" textLength="145" x="262" y="704.4292">fk_source_item_id : bigint</text><!--MD5=[1ef907470190a52481b72bc04299235e]
class aggregate--><rect codeLine="36" fill="#FEFECE" filter="url(#ff14vv86i8m3u)" height="150.4375" id="aggregate" style="stroke:#A80036;stroke-width:1.5;" width="173" x="7" y="389"/><ellipse cx="56.25" cy="405" fill="#ADD1B2" rx="11" ry="11" style="stroke:#A80036;stroke-width:1.0;"/><path d="M60.3594,411 L52.6406,411 L52.6406,398.6094 L60.3594,398.6094 L60.3594,400.7656 L55.0938,400.7656 L55.0938,403.4375 L59.8594,403.4375 L59.8594,405.5938 L55.0938,405.5938 L55.0938,408.8438 L60.3594,408.8438 L60.3594,411 Z " fill="#000000"/><text fill="#000000" font-family="sans-serif" font-size="12" lengthAdjust="spacing" textLength="66" x="76.75" y="409.1543">aggregate</text><line style="stroke:#A80036;stroke-width:1.5;" x1="8" x2="179" y1="421" y2="421"/><ellipse cx="18" cy="432" fill="#000000" rx="3" ry="3" style="stroke:#000000;stroke-width:1.0;"/><text fill="#000000" font-family="sans-serif" font-size="11" lengthAdjust="spacing" textLength="53" x="27" y="435.2104">id : bigint</text><line style="stroke:#A80036;stroke-width:1.0;" x1="8" x2="179" y1="441.8047" y2="441.8047"/><ellipse cx="18" cy="452.8047" fill="#000000" rx="3" ry="3" style="stroke:#000000;stroke-width:1.0;"/><text fill="#000000" font-family="sans-serif" font-size="11" lengthAdjust="spacing" textLength="134" x="27" y="456.0151">create_time_ms : bigint</text><ellipse cx="18" cy="465.6094" fill="#000000" rx="3" ry="3" style="stroke:#000000;stroke-width:1.0;"/><text fill="#000000" font-family="sans-serif" font-size="11" lengthAdjust="spacing" textLength="147" x="27" y="468.8198">feed_name : varchar(255)</text><ellipse cx="18" cy="478.4141" fill="#000000" rx="3" ry="3" style="stroke:#000000;stroke-width:1.0;"/><text fill="#000000" font-family="sans-serif" font-size="11" lengthAdjust="spacing" textLength="146" x="27" y="481.6245">type_name : varchar(255)</text><ellipse cx="18" cy="491.2188" fill="#000000" rx="3" ry="3" style="stroke:#000000;stroke-width:1.0;"/><text fill="#000000" font-family="sans-serif" font-size="11" lengthAdjust="spacing" textLength="95" x="27" y="494.4292">byte_size : bigint</text><ellipse cx="18" cy="504.0234" fill="#000000" rx="3" ry="3" style="stroke:#000000;stroke-width:1.0;"/><text fill="#000000" font-family="sans-serif" font-size="11" lengthAdjust="spacing" textLength="58" x="27" y="507.2339">items : int</text><ellipse cx="18" cy="516.8281" fill="#000000" rx="3" ry="3" style="stroke:#000000;stroke-width:1.0;"/><text fill="#000000" font-family="sans-serif" font-size="11" lengthAdjust="spacing" textLength="109" x="27" y="520.0386">complete : boolean</text><ellipse cx="18" cy="529.6328" fill="#000000" rx="3" ry="3" style="stroke:#000000;stroke-width:1.0;"/><text fill="#000000" font-family="sans-serif" font-size="11" lengthAdjust="spacing" textLength="136" x="27" y="532.8433">forward_error : boolean</text><!--MD5=[a7aae3f2a4de1495d12a81e05f498d83]
class aggregate_item--><rect codeLine="48" fill="#FEFECE" filter="url(#ff14vv86i8m3u)" height="86.4141" id="aggregate_item" style="stroke:#A80036;stroke-width:1.5;" width="171" x="35" y="612"/><ellipse cx="68" cy="628" fill="#ADD1B2" rx="11" ry="11" style="stroke:#A80036;stroke-width:1.0;"/><path d="M72.1094,634 L64.3906,634 L64.3906,621.6094 L72.1094,621.6094 L72.1094,623.7656 L66.8438,623.7656 L66.8438,626.4375 L71.6094,626.4375 L71.6094,628.5938 L66.8438,628.5938 L66.8438,631.8438 L72.1094,631.8438 L72.1094,634 Z " fill="#000000"/><text fill="#000000" font-family="sans-serif" font-size="12" lengthAdjust="spacing" textLength="99" x="86" y="632.1543">aggregate_item</text><line style="stroke:#A80036;stroke-width:1.5;" x1="36" x2="205" y1="644" y2="644"/><ellipse cx="46" cy="655" fill="#000000" rx="3" ry="3" style="stroke:#000000;stroke-width:1.0;"/><text fill="#000000" font-family="sans-serif" font-size="11" lengthAdjust="spacing" textLength="53" x="55" y="658.2104">id : bigint</text><line style="stroke:#A80036;stroke-width:1.0;" x1="36" x2="205" y1="664.8047" y2="664.8047"/><ellipse cx="46" cy="675.8047" fill="#000000" rx="3" ry="3" style="stroke:#000000;stroke-width:1.0;"/><text fill="#000000" font-family="sans-serif" font-size="11" lengthAdjust="spacing" textLength="133" x="55" y="679.0151">fk_aggregate_id : bigint</text><ellipse cx="46" cy="688.6094" fill="#000000" rx="3" ry="3" style="stroke:#000000;stroke-width:1.0;"/><text fill="#000000" font-family="sans-serif" font-size="11" lengthAdjust="spacing" textLength="145" x="55" y="691.8198">fk_source_item_id : bigint</text><!--MD5=[3cc1e4effaee23fb9097a8bf1d8fa0d4]
class forward_url--><rect codeLine="55" fill="#FEFECE" filter="url(#ff14vv86i8m3u)" height="73.6094" id="forward_url" style="stroke:#A80036;stroke-width:1.5;" width="125" x="94" y="217"/><ellipse cx="119.8" cy="233" fill="#ADD1B2" rx="11" ry="11" style="stroke:#A80036;stroke-width:1.0;"/><path d="M123.9094,239 L116.1906,239 L116.1906,226.6094 L123.9094,226.6094 L123.9094,228.7656 L118.6438,228.7656 L118.6438,231.4375 L123.4094,231.4375 L123.4094,233.5938 L118.6438,233.5938 L118.6438,236.8438 L123.9094,236.8438 L123.9094,239 Z " fill="#000000"/><text fill="#000000" font-family="sans-serif" font-size="12" lengthAdjust="spacing" textLength="69" x="136.2" y="237.1543">forward_url</text><line style="stroke:#A80036;stroke-width:1.5;" x1="95" x2="218" y1="249" y2="249"/><ellipse cx="105" cy="260" fill="#000000" rx="3" ry="3" style="stroke:#000000;stroke-width:1.0;"/><text fill="#000000" font-family="sans-serif" font-size="11" lengthAdjust="spacing" textLength="36" x="114" y="263.2104">id : int</text><line style="stroke:#A80036;stroke-width:1.0;" x1="95" x2="218" y1="269.8047" y2="269.8047"/><ellipse cx="105" cy="280.8047" fill="#000000" rx="3" ry="3" style="stroke:#000000;stroke-width:1.0;"/><text fill="#000000" font-family="sans-serif" font-size="11" lengthAdjust="spacing" textLength="99" x="114" y="284.0151">url : varchar(255)</text><!--MD5=[cbb12bc3eee1de79b3f2e300a168c511]
class forward_source--><rect codeLine="61" fill="#FEFECE" filter="url(#ff14vv86i8m3u)" height="112.0234" id="forward_source" style="stroke:#A80036;stroke-width:1.5;" width="149" x="246" y="7"/><ellipse cx="270.45" cy="23" fill="#ADD1B2" rx="11" ry="11" style="stroke:#A80036;stroke-width:1.0;"/><path d="M274.5594,29 L266.8406,29 L266.8406,16.6094 L274.5594,16.6094 L274.5594,18.7656 L269.2938,18.7656 L269.2938,21.4375 L274.0594,21.4375 L274.0594,23.5938 L269.2938,23.5938 L269.2938,26.8438 L274.5594,26.8438 L274.5594,29 Z " fill="#000000"/><text fill="#000000" font-family="sans-serif" font-size="12" lengthAdjust="spacing" textLength="96" x="286.55" y="27.1543">forward_source</text><line style="stroke:#A80036;stroke-width:1.5;" x1="247" x2="394" y1="39" y2="39"/><ellipse cx="257" cy="50" fill="#000000" rx="3" ry="3" style="stroke:#000000;stroke-width:1.0;"/><text fill="#000000" font-family="sans-serif" font-size="11" lengthAdjust="spacing" textLength="53" x="266" y="53.2104">id : bigint</text><line style="stroke:#A80036;stroke-width:1.0;" x1="247" x2="394" y1="59.8047" y2="59.8047"/><ellipse cx="257" cy="70.8047" fill="#000000" rx="3" ry="3" style="stroke:#000000;stroke-width:1.0;"/><text fill="#000000" font-family="sans-serif" font-size="11" lengthAdjust="spacing" textLength="123" x="266" y="74.0151">fk_forward_url_id : int</text><ellipse cx="257" cy="83.6094" fill="#000000" rx="3" ry="3" style="stroke:#000000;stroke-width:1.0;"/><text fill="#000000" font-family="sans-serif" font-size="11" lengthAdjust="spacing" textLength="114" x="266" y="86.8198">fk_source_id : bigint</text><ellipse cx="257" cy="96.4141" fill="#000000" rx="3" ry="3" style="stroke:#000000;stroke-width:1.0;"/><text fill="#000000" font-family="sans-serif" font-size="11" lengthAdjust="spacing" textLength="104" x="266" y="99.6245">success : boolean</text><ellipse cx="257" cy="109.2188" fill="#000000" rx="3" ry="3" style="stroke:#000000;stroke-width:1.0;"/><text fill="#000000" font-family="sans-serif" font-size="11" lengthAdjust="spacing" textLength="113" x="266" y="112.4292">error : varchar(255)</text><!--MD5=[d4f398bbc1193deb68c8428dcb929078]
class forward_aggregate--><rect codeLine="70" fill="#FEFECE" filter="url(#ff14vv86i8m3u)" height="112.0234" id="forward_aggregate" style="stroke:#A80036;stroke-width:1.5;" width="159" x="19" y="7"/><ellipse cx="37.6" cy="23" fill="#ADD1B2" rx="11" ry="11" style="stroke:#A80036;stroke-width:1.0;"/><path d="M41.7094,29 L33.9906,29 L33.9906,16.6094 L41.7094,16.6094 L41.7094,18.7656 L36.4438,18.7656 L36.4438,21.4375 L41.2094,21.4375 L41.2094,23.5938 L36.4438,23.5938 L36.4438,26.8438 L41.7094,26.8438 L41.7094,29 Z " fill="#000000"/><text fill="#000000" font-family="sans-serif" font-size="12" lengthAdjust="spacing" textLength="119" x="52.4" y="27.1543">forward_aggregate</text><line style="stroke:#A80036;stroke-width:1.5;" x1="20" x2="177" y1="39" y2="39"/><ellipse cx="30" cy="50" fill="#000000" rx="3" ry="3" style="stroke:#000000;stroke-width:1.0;"/><text fill="#000000" font-family="sans-serif" font-size="11" lengthAdjust="spacing" textLength="53" x="39" y="53.2104">id : bigint</text><line style="stroke:#A80036;stroke-width:1.0;" x1="20" x2="177" y1="59.8047" y2="59.8047"/><ellipse cx="30" cy="70.8047" fill="#000000" rx="3" ry="3" style="stroke:#000000;stroke-width:1.0;"/><text fill="#000000" font-family="sans-serif" font-size="11" lengthAdjust="spacing" textLength="123" x="39" y="74.0151">fk_forward_url_id : int</text><ellipse cx="30" cy="83.6094" fill="#000000" rx="3" ry="3" style="stroke:#000000;stroke-width:1.0;"/><text fill="#000000" font-family="sans-serif" font-size="11" lengthAdjust="spacing" textLength="133" x="39" y="86.8198">fk_aggregate_id : bigint</text><ellipse cx="30" cy="96.4141" fill="#000000" rx="3" ry="3" style="stroke:#000000;stroke-width:1.0;"/><text fill="#000000" font-family="sans-serif" font-size="11" lengthAdjust="spacing" textLength="104" x="39" y="99.6245">success : boolean</text><ellipse cx="30" cy="109.2188" fill="#000000" rx="3" ry="3" style="stroke:#000000;stroke-width:1.0;"/><text fill="#000000" font-family="sans-serif" font-size="11" lengthAdjust="spacing" textLength="113" x="39" y="112.4292">error : varchar(255)</text><!--MD5=[bde66a182555eb887059de8293221a83]
link source to source_item--><path codeLine="79" d="M334.25,337.22 C334.25,337.22 334.25,393.41 334.25,393.41 " fill="none" id="source-source_item" style="stroke:#A80036;stroke-width:1.0;stroke-dasharray:7.0,7.0;"/><line style="stroke:#A80036;stroke-width:1.0;" x1="334.25" x2="340.25" y1="393.41" y2="401.41"/><line style="stroke:#A80036;stroke-width:1.0;" x1="334.25" x2="328.25" y1="393.41" y2="401.41"/><line style="stroke:#A80036;stroke-width:1.0;" x1="334.25" x2="334.25" y1="393.41" y2="401.41"/><ellipse cx="334.25" cy="387.41" fill="none" rx="4" ry="4" style="stroke:#A80036;stroke-width:1.0;"/><line style="stroke:#A80036;stroke-width:1.0;" x1="330.25" x2="338.25" y1="333.22" y2="333.22"/><line style="stroke:#A80036;stroke-width:1.0;" x1="330.25" x2="338.25" y1="336.22" y2="336.22"/><line style="stroke:#A80036;stroke-width:1.0;" x1="334.25" x2="334.25" y1="337.22" y2="329.22"/><!--MD5=[6610028f0c7a0554f2085ee3824405a3]
link source_item to source_entry--><path codeLine="80" d="M327.5,534.54 C327.5,534.54 327.5,590.77 327.5,590.77 " fill="none" id="source_item-source_entry" style="stroke:#A80036;stroke-width:1.0;"/><line style="stroke:#A80036;stroke-width:1.0;" x1="327.5" x2="333.5" y1="590.77" y2="598.77"/><line style="stroke:#A80036;stroke-width:1.0;" x1="327.5" x2="321.5" y1="590.77" y2="598.77"/><line style="stroke:#A80036;stroke-width:1.0;" x1="327.5" x2="327.5" y1="590.77" y2="598.77"/><line style="stroke:#A80036;stroke-width:1.0;" x1="331.5" x2="323.5" y1="588.77" y2="588.77"/><line style="stroke:#A80036;stroke-width:1.0;" x1="323.5" x2="331.5" y1="530.54" y2="530.54"/><line style="stroke:#A80036;stroke-width:1.0;" x1="323.5" x2="331.5" y1="533.54" y2="533.54"/><line style="stroke:#A80036;stroke-width:1.0;" x1="327.5" x2="327.5" y1="534.54" y2="526.54"/><!--MD5=[791733cf99fddd84ca9a2108048a79c4]
link aggregate to aggregate_item--><path codeLine="81" d="M107.5,547.21 C107.5,547.21 107.5,603.81 107.5,603.81 " fill="none" id="aggregate-aggregate_item" style="stroke:#A80036;stroke-width:1.0;"/><line style="stroke:#A80036;stroke-width:1.0;" x1="107.5" x2="113.5" y1="603.81" y2="611.81"/><line style="stroke:#A80036;stroke-width:1.0;" x1="107.5" x2="101.5" y1="603.81" y2="611.81"/><line style="stroke:#A80036;stroke-width:1.0;" x1="107.5" x2="107.5" y1="603.81" y2="611.81"/><line style="stroke:#A80036;stroke-width:1.0;" x1="111.5" x2="103.5" y1="601.81" y2="601.81"/><line style="stroke:#A80036;stroke-width:1.0;" x1="103.5" x2="111.5" y1="543.21" y2="543.21"/><line style="stroke:#A80036;stroke-width:1.0;" x1="103.5" x2="111.5" y1="546.21" y2="546.21"/><line style="stroke:#A80036;stroke-width:1.0;" x1="107.5" x2="107.5" y1="547.21" y2="539.21"/><!--MD5=[446b403935e84f8470581e0b86ba8ed1]
link source_item to aggregate_item--><path codeLine="82" d="M232.8,465 C232.8,465 193,465 193,465 C193,465 193,603.89 193,603.89 " fill="none" id="source_item-aggregate_item" style="stroke:#A80036;stroke-width:1.0;stroke-dasharray:7.0,7.0;"/><line style="stroke:#A80036;stroke-width:1.0;" x1="193" x2="193" y1="600.89" y2="611.89"/><ellipse cx="193" cy="600.89" fill="none" rx="4" ry="4" style="stroke:#A80036;stroke-width:1.0;"/><line style="stroke:#A80036;stroke-width:1.0;" x1="197" x2="189" y1="607.89" y2="607.89"/><line style="stroke:#A80036;stroke-width:1.0;" x1="236.8" x2="236.8" y1="461" y2="469"/><line style="stroke:#A80036;stroke-width:1.0;" x1="233.8" x2="233.8" y1="461" y2="469"/><line style="stroke:#A80036;stroke-width:1.0;" x1="232.8" x2="240.8" y1="465" y2="465"/><!--MD5=[237522a801e7bb9308fa36e58d02c106]
link forward_source to forward_url--><path codeLine="83" d="M250.25,127.05 C250.25,127.05 250.25,255 250.25,255 C250.25,255 227.03,255 227.03,255 " fill="none" id="forward_source-forward_url" style="stroke:#A80036;stroke-width:1.0;"/><line style="stroke:#A80036;stroke-width:1.0;" x1="223.03" x2="223.03" y1="259" y2="251"/><line style="stroke:#A80036;stroke-width:1.0;" x1="226.03" x2="226.03" y1="259" y2="251"/><line style="stroke:#A80036;stroke-width:1.0;" x1="227.03" x2="219.03" y1="255" y2="255"/><line style="stroke:#A80036;stroke-width:1.0;" x1="250.25" x2="244.25" y1="127.05" y2="119.05"/><line style="stroke:#A80036;stroke-width:1.0;" x1="250.25" x2="256.25" y1="127.05" y2="119.05"/><line style="stroke:#A80036;stroke-width:1.0;" x1="250.25" x2="250.25" y1="127.05" y2="119.05"/><ellipse cx="250.25" cy="133.05" fill="none" rx="4" ry="4" style="stroke:#A80036;stroke-width:1.0;"/><!--MD5=[d49f4a8229bc31f1f5d61244df6e6e3c]
link forward_source to source--><path codeLine="84" d="M324.75,127.02 C324.75,127.02 324.75,170.83 324.75,170.83 " fill="none" id="forward_source-source" style="stroke:#A80036;stroke-width:1.0;stroke-dasharray:7.0,7.0;"/><line style="stroke:#A80036;stroke-width:1.0;" x1="328.75" x2="320.75" y1="174.83" y2="174.83"/><line style="stroke:#A80036;stroke-width:1.0;" x1="328.75" x2="320.75" y1="171.83" y2="171.83"/><line style="stroke:#A80036;stroke-width:1.0;" x1="324.75" x2="324.75" y1="170.83" y2="178.83"/><line style="stroke:#A80036;stroke-width:1.0;" x1="324.75" x2="318.75" y1="127.02" y2="119.02"/><line style="stroke:#A80036;stroke-width:1.0;" x1="324.75" x2="330.75" y1="127.02" y2="119.02"/><line style="stroke:#A80036;stroke-width:1.0;" x1="324.75" x2="324.75" y1="127.02" y2="119.02"/><ellipse cx="324.75" cy="133.02" fill="none" rx="4" ry="4" style="stroke:#A80036;stroke-width:1.0;"/><!--MD5=[04d9ecdcc61a774a98679dad38ac2f3f]
link forward_aggregate to forward_url--><path codeLine="85" d="M136,127.02 C136,127.02 136,208.72 136,208.72 " fill="none" id="forward_aggregate-forward_url" style="stroke:#A80036;stroke-width:1.0;"/><line style="stroke:#A80036;stroke-width:1.0;" x1="140" x2="132" y1="212.72" y2="212.72"/><line style="stroke:#A80036;stroke-width:1.0;" x1="140" x2="132" y1="209.72" y2="209.72"/><line style="stroke:#A80036;stroke-width:1.0;" x1="136" x2="136" y1="208.72" y2="216.72"/><line style="stroke:#A80036;stroke-width:1.0;" x1="136" x2="130" y1="127.02" y2="119.02"/><line style="stroke:#A80036;stroke-width:1.0;" x1="136" x2="142" y1="127.02" y2="119.02"/><line style="stroke:#A80036;stroke-width:1.0;" x1="136" x2="136" y1="127.02" y2="119.02"/><ellipse cx="136" cy="133.02" fill="none" rx="4" ry="4" style="stroke:#A80036;stroke-width:1.0;"/><!--MD5=[0ac3d8377118ba1284c6e32a49f23729]
link forward_aggregate to aggregate--><path codeLine="86" d="M56.5,127.18 C56.5,127.18 56.5,380.72 56.5,380.72 " fill="none" id="forward_aggregate-aggregate" style="stroke:#A80036;stroke-width:1.0;"/><line style="stroke:#A80036;stroke-width:1.0;" x1="60.5" x2="52.5" y1="384.72" y2="384.72"/><line style="stroke:#A80036;stroke-width:1.0;" x1="60.5" x2="52.5" y1="381.72" y2="381.72"/><line style="stroke:#A80036;stroke-width:1.0;" x1="56.5" x2="56.5" y1="380.72" y2="388.72"/><line style="stroke:#A80036;stroke-width:1.0;" x1="56.5" x2="50.5" y1="127.18" y2="119.18"/><line style="stroke:#A80036;stroke-width:1.0;" x1="56.5" x2="62.5" y1="127.18" y2="119.18"/><line style="stroke:#A80036;stroke-width:1.0;" x1="56.5" x2="56.5" y1="127.18" y2="119.18"/><ellipse cx="56.5" cy="133.18" fill="none" rx="4" ry="4" style="stroke:#A80036;stroke-width:1.0;"/><!--MD5=[823333f69d9f3e846d6306853b3b7067]
@startuml

' avoid problems with angled crows feet
skinparam linetype ortho

entity source {
  *id : bigint
  - -
  *path : varchar(255) - unique
  *feed_name : varchar(255)
  *type_name : varchar(255)
  *last_modified_time_ms : bigint
  *examined : boolean
  *forwarded : boolean
  *forward_error : boolean
}

entity source_item {
  *id : bigint
  - -
  *name : varchar(255)
  *feed_name : varchar(255)
  *type_name : varchar(255)
  *fk_source_id : bigint
  *aggregated : boolean
}

entity source_entry {
  *id : bigint
  - -
  *extension : varchar(255)
  *extension_type : int
  *byte_size : bigint
  *fk_source_item_id : bigint
}

entity aggregate {
  *id : bigint
  - -
  *create_time_ms : bigint
  *feed_name : varchar(255)
  *type_name : varchar(255)
  *byte_size : bigint
  *items : int
  *complete : boolean
  *forward_error : boolean
}

entity aggregate_item {
  *id : bigint
  - -
  *fk_aggregate_id : bigint
  *fk_source_item_id : bigint
}

entity forward_url {
  *id : int
  - -
  *url : varchar(255)
}

entity forward_source {
  *id : bigint
  - -
  *fk_forward_url_id : int
  *fk_source_id : bigint
  *success : boolean
  *error : varchar(255)
}

entity forward_aggregate {
  *id : bigint
  - -
  *fk_forward_url_id : int
  *fk_aggregate_id : bigint
  *success : boolean
  *error : varchar(255)
}

source ||..o{ source_item
source_item ||- -|{ source_entry
aggregate ||- -|{ aggregate_item
source_item ||..o| aggregate_item
forward_source }o- -|| forward_url
forward_source }o..|| source
forward_aggregate }o- -|| forward_url
forward_aggregate }o- -|| aggregate

@enduml

@startuml

skinparam linetype ortho

entity source {
  *id : bigint
  - -
  *path : varchar(255) - unique
  *feed_name : varchar(255)
  *type_name : varchar(255)
  *last_modified_time_ms : bigint
  *examined : boolean
  *forwarded : boolean
  *forward_error : boolean
}

entity source_item {
  *id : bigint
  - -
  *name : varchar(255)
  *feed_name : varchar(255)
  *type_name : varchar(255)
  *fk_source_id : bigint
  *aggregated : boolean
}

entity source_entry {
  *id : bigint
  - -
  *extension : varchar(255)
  *extension_type : int
  *byte_size : bigint
  *fk_source_item_id : bigint
}

entity aggregate {
  *id : bigint
  - -
  *create_time_ms : bigint
  *feed_name : varchar(255)
  *type_name : varchar(255)
  *byte_size : bigint
  *items : int
  *complete : boolean
  *forward_error : boolean
}

entity aggregate_item {
  *id : bigint
  - -
  *fk_aggregate_id : bigint
  *fk_source_item_id : bigint
}

entity forward_url {
  *id : int
  - -
  *url : varchar(255)
}

entity forward_source {
  *id : bigint
  - -
  *fk_forward_url_id : int
  *fk_source_id : bigint
  *success : boolean
  *error : varchar(255)
}

entity forward_aggregate {
  *id : bigint
  - -
  *fk_forward_url_id : int
  *fk_aggregate_id : bigint
  *success : boolean
  *error : varchar(255)
}

source ||..o{ source_item
source_item ||- -|{ source_entry
aggregate ||- -|{ aggregate_item
source_item ||..o| aggregate_item
forward_source }o- -|| forward_url
forward_source }o..|| source
forward_aggregate }o- -|| forward_url
forward_aggregate }o- -|| aggregate

@enduml

PlantUML version 1.2021.00(Sun Jan 10 10:25:05 GMT 2021)
(GPL source distribution)
Java Runtime: OpenJDK Runtime Environment
JVM: OpenJDK 64-Bit Server VM
Default Encoding: UTF-8
Language: en
Country: GB
--></g></svg>