<?xml version="1.0" encoding="us-ascii" standalone="no"?><svg xmlns="http://www.w3.org/2000/svg" xmlns:xlink="http://www.w3.org/1999/xlink" contentStyleType="text/css" height="842px" preserveAspectRatio="none" style="width:630px;height:842px;background:#FFFFFF;" version="1.1" viewBox="0 0 630 842" width="630px" zoomAndPan="magnify"><defs/><g><!--class feed--><g id="elem_feed"><rect codeLine="5" fill="#F1F1F1" height="96.8906" id="feed" rx="2.5" ry="2.5" style="stroke:#181818;stroke-width:0.5;" width="186" x="7" y="56"/><ellipse cx="81.75" cy="72" fill="#ADD1B2" rx="11" ry="11" style="stroke:#181818;stroke-width:1.0;"/><path d="M84.7656,78 L77.7813,78 L77.7813,65.8594 L84.7656,65.8594 L84.7656,67.9688 L80.3438,67.9688 L80.3438,70.6406 L84.4531,70.6406 L84.4531,72.75 L80.3438,72.75 L80.3438,75.875 L84.7656,75.875 L84.7656,78 Z " fill="#000000"/><text fill="#000000" font-family="sans-serif" font-size="14" lengthAdjust="spacing" textLength="28" x="102.25" y="76.8467">feed</text><line style="stroke:#181818;stroke-width:0.5;" x1="8" x2="192" y1="88" y2="88"/><ellipse cx="18" cy="101.6484" fill="#000000" rx="3" ry="3" style="stroke:#000000;stroke-width:1.0;"/><text fill="#000000" font-family="sans-serif" font-size="14" lengthAdjust="spacing" textLength="60" x="27" y="104.9951">id : bigint</text><line style="stroke:#181818;stroke-width:1.0;" x1="8" x2="192" y1="112.2969" y2="112.2969"/><ellipse cx="18" cy="125.9453" fill="#000000" rx="3" ry="3" style="stroke:#000000;stroke-width:1.0;"/><text fill="#000000" font-family="sans-serif" font-size="14" lengthAdjust="spacing" textLength="160" x="27" y="129.292">feed_name : varchar(255)</text><ellipse cx="18" cy="142.2422" fill="#000000" rx="3" ry="3" style="stroke:#000000;stroke-width:1.0;"/><text fill="#000000" font-family="sans-serif" font-size="14" lengthAdjust="spacing" textLength="160" x="27" y="145.5889">type_name : varchar(255)</text></g><!--class source--><g id="elem_source"><rect codeLine="12" fill="#F1F1F1" height="145.7813" id="source" rx="2.5" ry="2.5" style="stroke:#181818;stroke-width:0.5;" width="201" x="9.5" y="270"/><ellipse cx="84.25" cy="286" fill="#ADD1B2" rx="11" ry="11" style="stroke:#181818;stroke-width:1.0;"/><path d="M87.2656,292 L80.2813,292 L80.2813,279.8594 L87.2656,279.8594 L87.2656,281.9688 L82.8438,281.9688 L82.8438,284.6406 L86.9531,284.6406 L86.9531,286.75 L82.8438,286.75 L82.8438,289.875 L87.2656,289.875 L87.2656,292 Z " fill="#000000"/><text fill="#000000" font-family="sans-serif" font-size="14" lengthAdjust="spacing" textLength="43" x="104.75" y="290.8467">source</text><line style="stroke:#181818;stroke-width:0.5;" x1="10.5" x2="209.5" y1="302" y2="302"/><ellipse cx="20.5" cy="315.6484" fill="#000000" rx="3" ry="3" style="stroke:#000000;stroke-width:1.0;"/><text fill="#000000" font-family="sans-serif" font-size="14" lengthAdjust="spacing" textLength="60" x="29.5" y="318.9951">id : bigint</text><line style="stroke:#181818;stroke-width:1.0;" x1="10.5" x2="209.5" y1="326.2969" y2="326.2969"/><ellipse cx="20.5" cy="339.9453" fill="#000000" rx="3" ry="3" style="stroke:#000000;stroke-width:1.0;"/><text fill="#000000" font-family="sans-serif" font-size="14" lengthAdjust="spacing" textLength="175" x="29.5" y="343.292">path : varchar(255) - unique</text><ellipse cx="20.5" cy="356.2422" fill="#000000" rx="3" ry="3" style="stroke:#000000;stroke-width:1.0;"/><text fill="#000000" font-family="sans-serif" font-size="14" lengthAdjust="spacing" textLength="111" x="29.5" y="359.5889">fk_feed_id : bigint</text><ellipse cx="20.5" cy="372.5391" fill="#000000" rx="3" ry="3" style="stroke:#000000;stroke-width:1.0;"/><text fill="#000000" font-family="sans-serif" font-size="14" lengthAdjust="spacing" textLength="126" x="29.5" y="375.8857">examined : boolean</text><ellipse cx="20.5" cy="388.8359" fill="#000000" rx="3" ry="3" style="stroke:#000000;stroke-width:1.0;"/><text fill="#000000" font-family="sans-serif" font-size="14" lengthAdjust="spacing" textLength="129" x="29.5" y="392.1826">item_count : integer</text><ellipse cx="20.5" cy="405.1328" fill="#000000" rx="3" ry="3" style="stroke:#000000;stroke-width:1.0;"/><text fill="#000000" font-family="sans-serif" font-size="14" lengthAdjust="spacing" textLength="132" x="29.5" y="408.4795">new_position : bigint</text></g><!--class source_item--><g id="elem_source_item"><rect codeLine="22" fill="#F1F1F1" height="162.0781" id="source_item" rx="2.5" ry="2.5" style="stroke:#181818;stroke-width:0.5;" width="170" x="25" y="484"/><ellipse cx="66.55" cy="500" fill="#ADD1B2" rx="11" ry="11" style="stroke:#181818;stroke-width:1.0;"/><path d="M69.5656,506 L62.5813,506 L62.5813,493.8594 L69.5656,493.8594 L69.5656,495.9688 L65.1438,495.9688 L65.1438,498.6406 L69.2531,498.6406 L69.2531,500.75 L65.1438,500.75 L65.1438,503.875 L69.5656,503.875 L69.5656,506 Z " fill="#000000"/><text fill="#000000" font-family="sans-serif" font-size="14" lengthAdjust="spacing" textLength="79" x="86.45" y="504.8467">source_item</text><line style="stroke:#181818;stroke-width:0.5;" x1="26" x2="194" y1="516" y2="516"/><ellipse cx="36" cy="529.6484" fill="#000000" rx="3" ry="3" style="stroke:#000000;stroke-width:1.0;"/><text fill="#000000" font-family="sans-serif" font-size="14" lengthAdjust="spacing" textLength="60" x="45" y="532.9951">id : bigint</text><line style="stroke:#181818;stroke-width:1.0;" x1="26" x2="194" y1="540.2969" y2="540.2969"/><ellipse cx="36" cy="553.9453" fill="#000000" rx="3" ry="3" style="stroke:#000000;stroke-width:1.0;"/><text fill="#000000" font-family="sans-serif" font-size="14" lengthAdjust="spacing" textLength="126" x="45" y="557.292">name : varchar(255)</text><ellipse cx="36" cy="570.2422" fill="#000000" rx="3" ry="3" style="stroke:#000000;stroke-width:1.0;"/><text fill="#000000" font-family="sans-serif" font-size="14" lengthAdjust="spacing" textLength="111" x="45" y="573.5889">fk_feed_id : bigint</text><ellipse cx="36" cy="586.5391" fill="#000000" rx="3" ry="3" style="stroke:#000000;stroke-width:1.0;"/><text fill="#000000" font-family="sans-serif" font-size="14" lengthAdjust="spacing" textLength="108" x="45" y="589.8857">byte_size : bigint</text><ellipse cx="36" cy="602.8359" fill="#000000" rx="3" ry="3" style="stroke:#000000;stroke-width:1.0;"/><text fill="#000000" font-family="sans-serif" font-size="14" lengthAdjust="spacing" textLength="126" x="45" y="606.1826">fk_source_id : bigint</text><ellipse cx="36" cy="619.1328" fill="#000000" rx="3" ry="3" style="stroke:#000000;stroke-width:1.0;"/><text fill="#000000" font-family="sans-serif" font-size="14" lengthAdjust="spacing" textLength="144" x="45" y="622.4795">fk_aggregate_id : bigint</text><ellipse cx="36" cy="635.4297" fill="#000000" rx="3" ry="3" style="stroke:#000000;stroke-width:1.0;"/><text fill="#000000" font-family="sans-serif" font-size="14" lengthAdjust="spacing" textLength="132" x="45" y="638.7764">new_position : bigint</text></g><!--class source_entry--><g id="elem_source_entry"><rect codeLine="33" fill="#F1F1F1" height="129.4844" id="source_entry" rx="2.5" ry="2.5" style="stroke:#181818;stroke-width:0.5;" width="188" x="16" y="706"/><ellipse cx="64.75" cy="722" fill="#ADD1B2" rx="11" ry="11" style="stroke:#181818;stroke-width:1.0;"/><path d="M67.7656,728 L60.7813,728 L60.7813,715.8594 L67.7656,715.8594 L67.7656,717.9688 L63.3438,717.9688 L63.3438,720.6406 L67.4531,720.6406 L67.4531,722.75 L63.3438,722.75 L63.3438,725.875 L67.7656,725.875 L67.7656,728 Z " fill="#000000"/><text fill="#000000" font-family="sans-serif" font-size="14" lengthAdjust="spacing" textLength="82" x="85.25" y="726.8467">source_entry</text><line style="stroke:#181818;stroke-width:0.5;" x1="17" x2="203" y1="738" y2="738"/><ellipse cx="27" cy="751.6484" fill="#000000" rx="3" ry="3" style="stroke:#000000;stroke-width:1.0;"/><text fill="#000000" font-family="sans-serif" font-size="14" lengthAdjust="spacing" textLength="60" x="36" y="754.9951">id : bigint</text><line style="stroke:#181818;stroke-width:1.0;" x1="17" x2="203" y1="762.2969" y2="762.2969"/><ellipse cx="27" cy="775.9453" fill="#000000" rx="3" ry="3" style="stroke:#000000;stroke-width:1.0;"/><text fill="#000000" font-family="sans-serif" font-size="14" lengthAdjust="spacing" textLength="153" x="36" y="779.292">extension : varchar(255)</text><ellipse cx="27" cy="792.2422" fill="#000000" rx="3" ry="3" style="stroke:#000000;stroke-width:1.0;"/><text fill="#000000" font-family="sans-serif" font-size="14" lengthAdjust="spacing" textLength="126" x="36" y="795.5889">extension_type : int</text><ellipse cx="27" cy="808.5391" fill="#000000" rx="3" ry="3" style="stroke:#000000;stroke-width:1.0;"/><text fill="#000000" font-family="sans-serif" font-size="14" lengthAdjust="spacing" textLength="108" x="36" y="811.8857">byte_size : bigint</text><ellipse cx="27" cy="824.8359" fill="#000000" rx="3" ry="3" style="stroke:#000000;stroke-width:1.0;"/><text fill="#000000" font-family="sans-serif" font-size="14" lengthAdjust="spacing" textLength="162" x="36" y="828.1826">fk_source_item_id : bigint</text></g><!--class aggregate--><g id="elem_aggregate"><rect codeLine="42" fill="#F1F1F1" height="162.0781" id="aggregate" rx="2.5" ry="2.5" style="stroke:#181818;stroke-width:0.5;" width="176" x="246" y="262"/><ellipse cx="299.25" cy="278" fill="#ADD1B2" rx="11" ry="11" style="stroke:#181818;stroke-width:1.0;"/><path d="M302.2656,284 L295.2813,284 L295.2813,271.8594 L302.2656,271.8594 L302.2656,273.9688 L297.8438,273.9688 L297.8438,276.6406 L301.9531,276.6406 L301.9531,278.75 L297.8438,278.75 L297.8438,281.875 L302.2656,281.875 L302.2656,284 Z " fill="#000000"/><text fill="#000000" font-family="sans-serif" font-size="14" lengthAdjust="spacing" textLength="61" x="319.75" y="282.8467">aggregate</text><line style="stroke:#181818;stroke-width:0.5;" x1="247" x2="421" y1="294" y2="294"/><ellipse cx="257" cy="307.6484" fill="#000000" rx="3" ry="3" style="stroke:#000000;stroke-width:1.0;"/><text fill="#000000" font-family="sans-serif" font-size="14" lengthAdjust="spacing" textLength="60" x="266" y="310.9951">id : bigint</text><line style="stroke:#181818;stroke-width:1.0;" x1="247" x2="421" y1="318.2969" y2="318.2969"/><ellipse cx="257" cy="331.9453" fill="#000000" rx="3" ry="3" style="stroke:#000000;stroke-width:1.0;"/><text fill="#000000" font-family="sans-serif" font-size="14" lengthAdjust="spacing" textLength="150" x="266" y="335.292">create_time_ms : bigint</text><ellipse cx="257" cy="348.2422" fill="#000000" rx="3" ry="3" style="stroke:#000000;stroke-width:1.0;"/><text fill="#000000" font-family="sans-serif" font-size="14" lengthAdjust="spacing" textLength="111" x="266" y="351.5889">fk_feed_id : bigint</text><ellipse cx="257" cy="364.5391" fill="#000000" rx="3" ry="3" style="stroke:#000000;stroke-width:1.0;"/><text fill="#000000" font-family="sans-serif" font-size="14" lengthAdjust="spacing" textLength="108" x="266" y="367.8857">byte_size : bigint</text><ellipse cx="257" cy="380.8359" fill="#000000" rx="3" ry="3" style="stroke:#000000;stroke-width:1.0;"/><text fill="#000000" font-family="sans-serif" font-size="14" lengthAdjust="spacing" textLength="66" x="266" y="384.1826">items : int</text><ellipse cx="257" cy="397.1328" fill="#000000" rx="3" ry="3" style="stroke:#000000;stroke-width:1.0;"/><text fill="#000000" font-family="sans-serif" font-size="14" lengthAdjust="spacing" textLength="124" x="266" y="400.4795">complete : boolean</text><ellipse cx="257" cy="413.4297" fill="#000000" rx="3" ry="3" style="stroke:#000000;stroke-width:1.0;"/><text fill="#000000" font-family="sans-serif" font-size="14" lengthAdjust="spacing" textLength="132" x="266" y="416.7764">new_position : bigint</text></g><!--class forward_dest--><g id="elem_forward_dest"><rect codeLine="53" fill="#F1F1F1" height="80.5938" id="forward_dest" rx="2.5" ry="2.5" style="stroke:#181818;stroke-width:0.5;" width="152" x="457" y="302.5"/><ellipse cx="489.55" cy="318.5" fill="#ADD1B2" rx="11" ry="11" style="stroke:#181818;stroke-width:1.0;"/><path d="M492.5656,324.5 L485.5813,324.5 L485.5813,312.3594 L492.5656,312.3594 L492.5656,314.4688 L488.1438,314.4688 L488.1438,317.1406 L492.2531,317.1406 L492.2531,319.25 L488.1438,319.25 L488.1438,322.375 L492.5656,322.375 L492.5656,324.5 Z " fill="#000000"/><text fill="#000000" font-family="sans-serif" font-size="14" lengthAdjust="spacing" textLength="81" x="507.45" y="323.3467">forward_dest</text><line style="stroke:#181818;stroke-width:0.5;" x1="458" x2="608" y1="334.5" y2="334.5"/><ellipse cx="468" cy="348.1484" fill="#000000" rx="3" ry="3" style="stroke:#000000;stroke-width:1.0;"/><text fill="#000000" font-family="sans-serif" font-size="14" lengthAdjust="spacing" textLength="41" x="477" y="351.4951">id : int</text><line style="stroke:#181818;stroke-width:1.0;" x1="458" x2="608" y1="358.7969" y2="358.7969"/><ellipse cx="468" cy="372.4453" fill="#000000" rx="3" ry="3" style="stroke:#000000;stroke-width:1.0;"/><text fill="#000000" font-family="sans-serif" font-size="14" lengthAdjust="spacing" textLength="126" x="477" y="375.792">name : varchar(255)</text></g><!--class forward_source--><g id="elem_forward_source"><rect codeLine="59" fill="#F1F1F1" height="194.6719" id="forward_source" rx="2.5" ry="2.5" style="stroke:#181818;stroke-width:0.5;" width="180" x="228" y="7"/><ellipse cx="266.4" cy="23" fill="#ADD1B2" rx="11" ry="11" style="stroke:#181818;stroke-width:1.0;"/><path d="M269.4156,29 L262.4313,29 L262.4313,16.8594 L269.4156,16.8594 L269.4156,18.9688 L264.9938,18.9688 L264.9938,21.6406 L269.1031,21.6406 L269.1031,23.75 L264.9938,23.75 L264.9938,26.875 L269.4156,26.875 L269.4156,29 Z " fill="#000000"/><text fill="#000000" font-family="sans-serif" font-size="14" lengthAdjust="spacing" textLength="96" x="285.6" y="27.8467">forward_source</text><line style="stroke:#181818;stroke-width:0.5;" x1="229" x2="407" y1="39" y2="39"/><ellipse cx="239" cy="52.6484" fill="#000000" rx="3" ry="3" style="stroke:#000000;stroke-width:1.0;"/><text fill="#000000" font-family="sans-serif" font-size="14" lengthAdjust="spacing" textLength="60" x="248" y="55.9951">id : bigint</text><line style="stroke:#181818;stroke-width:1.0;" x1="229" x2="407" y1="63.2969" y2="63.2969"/><ellipse cx="239" cy="76.9453" fill="#000000" rx="3" ry="3" style="stroke:#000000;stroke-width:1.0;"/><text fill="#000000" font-family="sans-serif" font-size="14" lengthAdjust="spacing" textLength="154" x="248" y="80.292">update_time_ms : bigint</text><ellipse cx="239" cy="93.2422" fill="#000000" rx="3" ry="3" style="stroke:#000000;stroke-width:1.0;"/><text fill="#000000" font-family="sans-serif" font-size="14" lengthAdjust="spacing" textLength="145" x="248" y="96.5889">fk_forward_dest_id : int</text><ellipse cx="239" cy="109.5391" fill="#000000" rx="3" ry="3" style="stroke:#000000;stroke-width:1.0;"/><text fill="#000000" font-family="sans-serif" font-size="14" lengthAdjust="spacing" textLength="126" x="248" y="112.8857">fk_source_id : bigint</text><ellipse cx="239" cy="125.8359" fill="#000000" rx="3" ry="3" style="stroke:#000000;stroke-width:1.0;"/><text fill="#000000" font-family="sans-serif" font-size="14" lengthAdjust="spacing" textLength="114" x="248" y="129.1826">success : boolean</text><ellipse cx="239" cy="142.1328" fill="#000000" rx="3" ry="3" style="stroke:#000000;stroke-width:1.0;"/><text fill="#000000" font-family="sans-serif" font-size="14" lengthAdjust="spacing" textLength="121" x="248" y="145.4795">error : varchar(255)</text><ellipse cx="239" cy="158.4297" fill="#000000" rx="3" ry="3" style="stroke:#000000;stroke-width:1.0;"/><text fill="#000000" font-family="sans-serif" font-size="14" lengthAdjust="spacing" textLength="77" x="248" y="161.7764">tries : bigint</text><ellipse cx="239" cy="174.7266" fill="#000000" rx="3" ry="3" style="stroke:#000000;stroke-width:1.0;"/><text fill="#000000" font-family="sans-serif" font-size="14" lengthAdjust="spacing" textLength="132" x="248" y="178.0732">new_position : bigint</text><ellipse cx="239" cy="191.0234" fill="#000000" rx="3" ry="3" style="stroke:#000000;stroke-width:1.0;"/><text fill="#000000" font-family="sans-serif" font-size="14" lengthAdjust="spacing" textLength="136" x="248" y="194.3701">retry_position : bigint</text></g><!--class forward_aggregate--><g id="elem_forward_aggregate"><rect codeLine="72" fill="#F1F1F1" height="194.6719" id="forward_aggregate" rx="2.5" ry="2.5" style="stroke:#181818;stroke-width:0.5;" width="180" x="443" y="7"/><ellipse cx="473.3" cy="23" fill="#ADD1B2" rx="11" ry="11" style="stroke:#181818;stroke-width:1.0;"/><path d="M476.3156,29 L469.3313,29 L469.3313,16.8594 L476.3156,16.8594 L476.3156,18.9688 L471.8938,18.9688 L471.8938,21.6406 L476.0031,21.6406 L476.0031,23.75 L471.8938,23.75 L471.8938,26.875 L476.3156,26.875 L476.3156,29 Z " fill="#000000"/><text fill="#000000" font-family="sans-serif" font-size="14" lengthAdjust="spacing" textLength="114" x="490.7" y="27.8467">forward_aggregate</text><line style="stroke:#181818;stroke-width:0.5;" x1="444" x2="622" y1="39" y2="39"/><ellipse cx="454" cy="52.6484" fill="#000000" rx="3" ry="3" style="stroke:#000000;stroke-width:1.0;"/><text fill="#000000" font-family="sans-serif" font-size="14" lengthAdjust="spacing" textLength="60" x="463" y="55.9951">id : bigint</text><line style="stroke:#181818;stroke-width:1.0;" x1="444" x2="622" y1="63.2969" y2="63.2969"/><ellipse cx="454" cy="76.9453" fill="#000000" rx="3" ry="3" style="stroke:#000000;stroke-width:1.0;"/><text fill="#000000" font-family="sans-serif" font-size="14" lengthAdjust="spacing" textLength="154" x="463" y="80.292">update_time_ms : bigint</text><ellipse cx="454" cy="93.2422" fill="#000000" rx="3" ry="3" style="stroke:#000000;stroke-width:1.0;"/><text fill="#000000" font-family="sans-serif" font-size="14" lengthAdjust="spacing" textLength="145" x="463" y="96.5889">fk_forward_dest_id : int</text><ellipse cx="454" cy="109.5391" fill="#000000" rx="3" ry="3" style="stroke:#000000;stroke-width:1.0;"/><text fill="#000000" font-family="sans-serif" font-size="14" lengthAdjust="spacing" textLength="144" x="463" y="112.8857">fk_aggregate_id : bigint</text><ellipse cx="454" cy="125.8359" fill="#000000" rx="3" ry="3" style="stroke:#000000;stroke-width:1.0;"/><text fill="#000000" font-family="sans-serif" font-size="14" lengthAdjust="spacing" textLength="114" x="463" y="129.1826">success : boolean</text><ellipse cx="454" cy="142.1328" fill="#000000" rx="3" ry="3" style="stroke:#000000;stroke-width:1.0;"/><text fill="#000000" font-family="sans-serif" font-size="14" lengthAdjust="spacing" textLength="121" x="463" y="145.4795">error : varchar(255)</text><ellipse cx="454" cy="158.4297" fill="#000000" rx="3" ry="3" style="stroke:#000000;stroke-width:1.0;"/><text fill="#000000" font-family="sans-serif" font-size="14" lengthAdjust="spacing" textLength="77" x="463" y="161.7764">tries : bigint</text><ellipse cx="454" cy="174.7266" fill="#000000" rx="3" ry="3" style="stroke:#000000;stroke-width:1.0;"/><text fill="#000000" font-family="sans-serif" font-size="14" lengthAdjust="spacing" textLength="132" x="463" y="178.0732">new_position : bigint</text><ellipse cx="454" cy="191.0234" fill="#000000" rx="3" ry="3" style="stroke:#000000;stroke-width:1.0;"/><text fill="#000000" font-family="sans-serif" font-size="14" lengthAdjust="spacing" textLength="136" x="463" y="194.3701">retry_position : bigint</text></g><!--link feed to source--><g id="link_feed_source"><path codeLine="85" d="M70.67,161.05 C70.67,161.05 70.67,261.59 70.67,261.59 " fill="none" id="feed-source" style="stroke:#181818;stroke-width:1.0;"/><line style="stroke:#181818;stroke-width:1.0;" x1="66.67" x2="74.67" y1="157.05" y2="157.05"/><line style="stroke:#181818;stroke-width:1.0;" x1="66.67" x2="74.67" y1="160.05" y2="160.05"/><line style="stroke:#181818;stroke-width:1.0;" x1="70.67" x2="70.67" y1="161.05" y2="153.05"/><line style="stroke:#181818;stroke-width:1.0;" x1="70.67" x2="76.67" y1="261.59" y2="269.59"/><line style="stroke:#181818;stroke-width:1.0;" x1="70.67" x2="64.67" y1="261.59" y2="269.59"/><line style="stroke:#181818;stroke-width:1.0;" x1="70.67" x2="70.67" y1="261.59" y2="269.59"/><line style="stroke:#181818;stroke-width:1.0;" x1="74.67" x2="66.67" y1="259.59" y2="259.59"/></g><!--link feed to source_item--><g id="link_feed_source_item"><path codeLine="86" d="M201.08,105 C201.08,105 219.25,105 219.25,105 C219.25,105 219.25,565 219.25,565 C219.25,565 203,565 203,565 " fill="none" id="feed-source_item" style="stroke:#181818;stroke-width:1.0;"/><line style="stroke:#181818;stroke-width:1.0;" x1="197.08" x2="197.08" y1="109" y2="101"/><line style="stroke:#181818;stroke-width:1.0;" x1="200.08" x2="200.08" y1="109" y2="101"/><line style="stroke:#181818;stroke-width:1.0;" x1="201.08" x2="193.08" y1="105" y2="105"/><line style="stroke:#181818;stroke-width:1.0;" x1="203" x2="195" y1="565" y2="571"/><line style="stroke:#181818;stroke-width:1.0;" x1="203" x2="195" y1="565" y2="559"/><line style="stroke:#181818;stroke-width:1.0;" x1="203" x2="195" y1="565" y2="565"/><line style="stroke:#181818;stroke-width:1.0;" x1="205" x2="205" y1="569" y2="561"/></g><!--link feed to aggregate--><g id="link_feed_aggregate"><path codeLine="87" d="M131.83,161.39 C131.83,161.39 131.83,266 131.83,266 C131.83,266 237.91,266 237.91,266 " fill="none" id="feed-aggregate" style="stroke:#181818;stroke-width:1.0;"/><line style="stroke:#181818;stroke-width:1.0;" x1="127.83" x2="135.83" y1="157.39" y2="157.39"/><line style="stroke:#181818;stroke-width:1.0;" x1="127.83" x2="135.83" y1="160.39" y2="160.39"/><line style="stroke:#181818;stroke-width:1.0;" x1="131.83" x2="131.83" y1="161.39" y2="153.39"/><line style="stroke:#181818;stroke-width:1.0;" x1="237.91" x2="245.91" y1="266" y2="260"/><line style="stroke:#181818;stroke-width:1.0;" x1="237.91" x2="245.91" y1="266" y2="272"/><line style="stroke:#181818;stroke-width:1.0;" x1="237.91" x2="245.91" y1="266" y2="266"/><line style="stroke:#181818;stroke-width:1.0;" x1="235.91" x2="235.91" y1="262" y2="270"/></g><!--link source to source_item--><g id="link_source_source_item"><path codeLine="89" d="M81.67,424.31 C81.67,424.31 81.67,475.73 81.67,475.73 " fill="none" id="source-source_item" style="stroke:#181818;stroke-width:1.0;stroke-dasharray:7.0,7.0;"/><line style="stroke:#181818;stroke-width:1.0;" x1="77.67" x2="85.67" y1="420.31" y2="420.31"/><line style="stroke:#181818;stroke-width:1.0;" x1="77.67" x2="85.67" y1="423.31" y2="423.31"/><line style="stroke:#181818;stroke-width:1.0;" x1="81.67" x2="81.67" y1="424.31" y2="416.31"/><line style="stroke:#181818;stroke-width:1.0;" x1="81.67" x2="87.67" y1="475.73" y2="483.73"/><line style="stroke:#181818;stroke-width:1.0;" x1="81.67" x2="75.67" y1="475.73" y2="483.73"/><line style="stroke:#181818;stroke-width:1.0;" x1="81.67" x2="81.67" y1="475.73" y2="483.73"/><ellipse cx="81.67" cy="469.73" fill="none" rx="4" ry="4" style="stroke:#181818;stroke-width:1.0;"/></g><!--link source_item to source_entry--><g id="link_source_item_source_entry"><path codeLine="90" d="M110,654.22 C110,654.22 110,697.69 110,697.69 " fill="none" id="source_item-source_entry" style="stroke:#181818;stroke-width:1.0;"/><line style="stroke:#181818;stroke-width:1.0;" x1="106" x2="114" y1="650.22" y2="650.22"/><line style="stroke:#181818;stroke-width:1.0;" x1="106" x2="114" y1="653.22" y2="653.22"/><line style="stroke:#181818;stroke-width:1.0;" x1="110" x2="110" y1="654.22" y2="646.22"/><line style="stroke:#181818;stroke-width:1.0;" x1="110" x2="116" y1="697.69" y2="705.69"/><line style="stroke:#181818;stroke-width:1.0;" x1="110" x2="104" y1="697.69" y2="705.69"/><line style="stroke:#181818;stroke-width:1.0;" x1="110" x2="110" y1="697.69" y2="705.69"/><line style="stroke:#181818;stroke-width:1.0;" x1="114" x2="106" y1="695.69" y2="695.69"/></g><!--link aggregate to source_item--><g id="link_aggregate_source_item"><path codeLine="91" d="M237.9,420 C237.9,420 138.33,420 138.33,420 C138.33,420 138.33,475.6 138.33,475.6 " fill="none" id="aggregate-source_item" style="stroke:#181818;stroke-width:1.0;"/><line style="stroke:#181818;stroke-width:1.0;" x1="241.9" x2="241.9" y1="416" y2="424"/><line style="stroke:#181818;stroke-width:1.0;" x1="238.9" x2="238.9" y1="416" y2="424"/><line style="stroke:#181818;stroke-width:1.0;" x1="237.9" x2="245.9" y1="420" y2="420"/><line style="stroke:#181818;stroke-width:1.0;" x1="138.33" x2="144.33" y1="475.6" y2="483.6"/><line style="stroke:#181818;stroke-width:1.0;" x1="138.33" x2="132.33" y1="475.6" y2="483.6"/><line style="stroke:#181818;stroke-width:1.0;" x1="138.33" x2="138.33" y1="475.6" y2="483.6"/><line style="stroke:#181818;stroke-width:1.0;" x1="142.33" x2="134.33" y1="473.6" y2="473.6"/></g><!--link forward_source to forward_dest--><g id="link_forward_source_forward_dest"><path codeLine="92" d="M416.22,105 C416.22,105 432.5,105 432.5,105 C432.5,105 432.5,343 432.5,343 C432.5,343 448.83,343 448.83,343 " fill="none" id="forward_source-forward_dest" style="stroke:#181818;stroke-width:1.0;"/><line style="stroke:#181818;stroke-width:1.0;" x1="416.22" x2="408.22" y1="105" y2="111"/><line style="stroke:#181818;stroke-width:1.0;" x1="416.22" x2="408.22" y1="105" y2="99"/><line style="stroke:#181818;stroke-width:1.0;" x1="416.22" x2="408.22" y1="105" y2="105"/><ellipse cx="422.22" cy="105" fill="none" rx="4" ry="4" style="stroke:#181818;stroke-width:1.0;"/><line style="stroke:#181818;stroke-width:1.0;" x1="452.83" x2="452.83" y1="339" y2="347"/><line style="stroke:#181818;stroke-width:1.0;" x1="449.83" x2="449.83" y1="339" y2="347"/><line style="stroke:#181818;stroke-width:1.0;" x1="448.83" x2="456.83" y1="343" y2="343"/></g><!--link forward_source to source--><g id="link_forward_source_source"><path codeLine="93" d="M219.84,178 C219.84,178 201.75,178 201.75,178 C201.75,178 201.75,261.67 201.75,261.67 " fill="none" id="forward_source-source" style="stroke:#181818;stroke-width:1.0;stroke-dasharray:7.0,7.0;"/><line style="stroke:#181818;stroke-width:1.0;" x1="219.84" x2="227.84" y1="178" y2="172"/><line style="stroke:#181818;stroke-width:1.0;" x1="219.84" x2="227.84" y1="178" y2="184"/><line style="stroke:#181818;stroke-width:1.0;" x1="219.84" x2="227.84" y1="178" y2="178"/><ellipse cx="213.84" cy="178" fill="none" rx="4" ry="4" style="stroke:#181818;stroke-width:1.0;"/><line style="stroke:#181818;stroke-width:1.0;" x1="205.75" x2="197.75" y1="265.67" y2="265.67"/><line style="stroke:#181818;stroke-width:1.0;" x1="205.75" x2="197.75" y1="262.67" y2="262.67"/><line style="stroke:#181818;stroke-width:1.0;" x1="201.75" x2="201.75" y1="261.67" y2="269.67"/></g><!--link forward_aggregate to forward_dest--><g id="link_forward_aggregate_forward_dest"><path codeLine="94" d="M533,210.2 C533,210.2 533,294.25 533,294.25 " fill="none" id="forward_aggregate-forward_dest" style="stroke:#181818;stroke-width:1.0;"/><line style="stroke:#181818;stroke-width:1.0;" x1="533" x2="527" y1="210.2" y2="202.2"/><line style="stroke:#181818;stroke-width:1.0;" x1="533" x2="539" y1="210.2" y2="202.2"/><line style="stroke:#181818;stroke-width:1.0;" x1="533" x2="533" y1="210.2" y2="202.2"/><ellipse cx="533" cy="216.2" fill="none" rx="4" ry="4" style="stroke:#181818;stroke-width:1.0;"/><line style="stroke:#181818;stroke-width:1.0;" x1="537" x2="529" y1="298.25" y2="298.25"/><line style="stroke:#181818;stroke-width:1.0;" x1="537" x2="529" y1="295.25" y2="295.25"/><line style="stroke:#181818;stroke-width:1.0;" x1="533" x2="533" y1="294.25" y2="302.25"/></g><!--link forward_aggregate to aggregate--><g id="link_forward_aggregate_aggregate"><path codeLine="95" d="M450,210.11 C450,210.11 450,283 450,283 C450,283 430.22,283 430.22,283 " fill="none" id="forward_aggregate-aggregate" style="stroke:#181818;stroke-width:1.0;"/><line style="stroke:#181818;stroke-width:1.0;" x1="450" x2="444" y1="210.11" y2="202.11"/><line style="stroke:#181818;stroke-width:1.0;" x1="450" x2="456" y1="210.11" y2="202.11"/><line style="stroke:#181818;stroke-width:1.0;" x1="450" x2="450" y1="210.11" y2="202.11"/><ellipse cx="450" cy="216.11" fill="none" rx="4" ry="4" style="stroke:#181818;stroke-width:1.0;"/><line style="stroke:#181818;stroke-width:1.0;" x1="426.22" x2="426.22" y1="287" y2="279"/><line style="stroke:#181818;stroke-width:1.0;" x1="429.22" x2="429.22" y1="287" y2="279"/><line style="stroke:#181818;stroke-width:1.0;" x1="430.22" x2="422.22" y1="283" y2="283"/></g><!--SRC=[nLJ1SeCW4Btx5TpQPaOFdScbFyCGt1Wc2dR161lpxmMQg6Xed5vwP7Tv-zxobXV2Jahaf4QrAw7If1NcG9WiIiW9HzLgiWSmYJuAMJDa5Ic51DFLG1IQWqeIa4QOpbNbv98Gih5e7sGd2Y6DFQQfYxaibQm2cpenv0U6h-_RxPlBER27kUi0hbM37EBmDREamzia9OqKdmtuzaVg6OHtDt1cbLNZWqgLmAHlOA2YN3NIsBYjX0BGnIMqj5PQ6A7a23CdITtrEDF83284Tvq1giKN155RVE-LpnEiA10APXQvbUpj2RiuVJWRaFe7OgvXo55l3p-xLIBSlAVDHbA3cZWZZk3K6b41jVQTjLW_LCT2ZwIvgkeI38JMU3R4lSAMOKvpq6P2-Pa1bW3F3D_K-M-g9pJeX47SERhX7BGErGAYmaSBYmBq2dFP18ArqwgHhNZglukERiK_wFOVPT-dQN-vBTs3a5-A83v8I9AREVe-orHuOVe5XNX-hvDno8-wXTwxAblH1vPUbcIPBRchMBpaRn2Bgb7WDm00]--></g></svg>