<?xml version="1.0" encoding="UTF-8" standalone="no"?><svg xmlns="http://www.w3.org/2000/svg" xmlns:xlink="http://www.w3.org/1999/xlink" contentScriptType="application/ecmascript" contentStyleType="text/css" height="812px" preserveAspectRatio="none" style="width:549px;height:812px;background:#FFFFFF;" version="1.1" viewBox="0 0 549 812" width="549px" zoomAndPan="magnify"><defs><filter height="300%" id="f1mvs68pdo1e6r" width="300%" x="-1" y="-1"><feGaussianBlur result="blurOut" stdDeviation="2.0"/><feColorMatrix in="blurOut" result="blurOut2" type="matrix" values="0 0 0 0 0 0 0 0 0 0 0 0 0 0 0 0 0 0 .4 0"/><feOffset dx="4.0" dy="4.0" in="blurOut2" result="blurOut3"/><feBlend in="SourceGraphic" in2="blurOut3" mode="normal"/></filter></defs><g><!--MD5=[a89e013394a4179b87aacb584f03bea5]
class feed--><rect codeLine="5" fill="#FEFECE" filter="url(#f1mvs68pdo1e6r)" height="92.9457" id="feed" style="stroke:#A80036;stroke-width:1.5;" width="156" x="7" y="52"/><ellipse cx="68.25" cy="68" fill="#ADD1B2" rx="11" ry="11" style="stroke:#A80036;stroke-width:1.0;"/><path d="M64.6094,74.5 L64.6094,62.3594 L72.2656,62.3594 L72.2656,64.4844 L66.9844,64.4844 L66.9844,67.1406 L72,67.1406 L72,69.2656 L66.9844,69.2656 L66.9844,72.375 L72.2656,72.375 L72.2656,74.5 L64.6094,74.5 Z " fill="#000000"/><text fill="#000000" font-family="sans-serif" font-size="12" lengthAdjust="spacing" textLength="25" x="88.75" y="72.656">feed</text><line style="stroke:#A80036;stroke-width:1.5;" x1="8" x2="162" y1="84" y2="84"/><ellipse cx="18" cy="95" fill="#000000" rx="3" ry="3" style="stroke:#000000;stroke-width:1.0;"/><text fill="#000000" font-family="sans-serif" font-size="11" lengthAdjust="spacing" textLength="50" x="27" y="99.7589">id : bigint</text><line style="stroke:#A80036;stroke-width:1.0;" x1="8" x2="162" y1="106.9819" y2="106.9819"/><ellipse cx="18" cy="117.9819" fill="#000000" rx="3" ry="3" style="stroke:#000000;stroke-width:1.0;"/><text fill="#000000" font-family="sans-serif" font-size="11" lengthAdjust="spacing" textLength="130" x="27" y="122.7408">feed_name : varchar(255)</text><ellipse cx="18" cy="132.9638" fill="#000000" rx="3" ry="3" style="stroke:#000000;stroke-width:1.0;"/><text fill="#000000" font-family="sans-serif" font-size="11" lengthAdjust="spacing" textLength="130" x="27" y="137.7227">type_name : varchar(255)</text><!--MD5=[fb94403e3d3521d383fd6507b67b3642]
class source--><rect codeLine="12" fill="#FEFECE" filter="url(#f1mvs68pdo1e6r)" height="137.8913" id="source" style="stroke:#A80036;stroke-width:1.5;" width="170" x="17" y="257.5"/><ellipse cx="78.75" cy="273.5" fill="#ADD1B2" rx="11" ry="11" style="stroke:#A80036;stroke-width:1.0;"/><path d="M75.1094,280 L75.1094,267.8594 L82.7656,267.8594 L82.7656,269.9844 L77.4844,269.9844 L77.4844,272.6406 L82.5,272.6406 L82.5,274.7656 L77.4844,274.7656 L77.4844,277.875 L82.7656,277.875 L82.7656,280 L75.1094,280 Z " fill="#000000"/><text fill="#000000" font-family="sans-serif" font-size="12" lengthAdjust="spacing" textLength="38" x="99.25" y="278.156">source</text><line style="stroke:#A80036;stroke-width:1.5;" x1="18" x2="186" y1="289.5" y2="289.5"/><ellipse cx="28" cy="300.5" fill="#000000" rx="3" ry="3" style="stroke:#000000;stroke-width:1.0;"/><text fill="#000000" font-family="sans-serif" font-size="11" lengthAdjust="spacing" textLength="50" x="37" y="305.2589">id : bigint</text><line style="stroke:#A80036;stroke-width:1.0;" x1="18" x2="186" y1="312.4819" y2="312.4819"/><ellipse cx="28" cy="323.4819" fill="#000000" rx="3" ry="3" style="stroke:#000000;stroke-width:1.0;"/><text fill="#000000" font-family="sans-serif" font-size="11" lengthAdjust="spacing" textLength="144" x="37" y="328.2408">path : varchar(255) - unique</text><ellipse cx="28" cy="338.4638" fill="#000000" rx="3" ry="3" style="stroke:#000000;stroke-width:1.0;"/><text fill="#000000" font-family="sans-serif" font-size="11" lengthAdjust="spacing" textLength="93" x="37" y="343.2227">fk_feed_id : bigint</text><ellipse cx="28" cy="353.4457" fill="#000000" rx="3" ry="3" style="stroke:#000000;stroke-width:1.0;"/><text fill="#000000" font-family="sans-serif" font-size="11" lengthAdjust="spacing" textLength="103" x="37" y="358.2046">examined : boolean</text><ellipse cx="28" cy="368.4276" fill="#000000" rx="3" ry="3" style="stroke:#000000;stroke-width:1.0;"/><text fill="#000000" font-family="sans-serif" font-size="11" lengthAdjust="spacing" textLength="108" x="37" y="373.1865">forwarded : boolean</text><ellipse cx="28" cy="383.4094" fill="#000000" rx="3" ry="3" style="stroke:#000000;stroke-width:1.0;"/><text fill="#000000" font-family="sans-serif" font-size="11" lengthAdjust="spacing" textLength="110" x="37" y="388.1684">new_position : bigint</text><!--MD5=[23693ca385c1414b1e74e8b4c3b37cb4]
class source_item--><rect codeLine="22" fill="#FEFECE" filter="url(#f1mvs68pdo1e6r)" height="152.8732" id="source_item" style="stroke:#A80036;stroke-width:1.5;" width="150" x="27" y="463"/><ellipse cx="64.5" cy="479" fill="#ADD1B2" rx="11" ry="11" style="stroke:#A80036;stroke-width:1.0;"/><path d="M60.8594,485.5 L60.8594,473.3594 L68.5156,473.3594 L68.5156,475.4844 L63.2344,475.4844 L63.2344,478.1406 L68.25,478.1406 L68.25,480.2656 L63.2344,480.2656 L63.2344,483.375 L68.5156,483.375 L68.5156,485.5 L60.8594,485.5 Z " fill="#000000"/><text fill="#000000" font-family="sans-serif" font-size="12" lengthAdjust="spacing" textLength="68" x="83.5" y="483.656">source_item</text><line style="stroke:#A80036;stroke-width:1.5;" x1="28" x2="176" y1="495" y2="495"/><ellipse cx="38" cy="506" fill="#000000" rx="3" ry="3" style="stroke:#000000;stroke-width:1.0;"/><text fill="#000000" font-family="sans-serif" font-size="11" lengthAdjust="spacing" textLength="50" x="47" y="510.7589">id : bigint</text><line style="stroke:#A80036;stroke-width:1.0;" x1="28" x2="176" y1="517.9819" y2="517.9819"/><ellipse cx="38" cy="528.9819" fill="#000000" rx="3" ry="3" style="stroke:#000000;stroke-width:1.0;"/><text fill="#000000" font-family="sans-serif" font-size="11" lengthAdjust="spacing" textLength="102" x="47" y="533.7408">name : varchar(255)</text><ellipse cx="38" cy="543.9638" fill="#000000" rx="3" ry="3" style="stroke:#000000;stroke-width:1.0;"/><text fill="#000000" font-family="sans-serif" font-size="11" lengthAdjust="spacing" textLength="93" x="47" y="548.7227">fk_feed_id : bigint</text><ellipse cx="38" cy="558.9457" fill="#000000" rx="3" ry="3" style="stroke:#000000;stroke-width:1.0;"/><text fill="#000000" font-family="sans-serif" font-size="11" lengthAdjust="spacing" textLength="87" x="47" y="563.7046">byte_size : bigint</text><ellipse cx="38" cy="573.9276" fill="#000000" rx="3" ry="3" style="stroke:#000000;stroke-width:1.0;"/><text fill="#000000" font-family="sans-serif" font-size="11" lengthAdjust="spacing" textLength="105" x="47" y="578.6865">fk_source_id : bigint</text><ellipse cx="38" cy="588.9094" fill="#000000" rx="3" ry="3" style="stroke:#000000;stroke-width:1.0;"/><text fill="#000000" font-family="sans-serif" font-size="11" lengthAdjust="spacing" textLength="124" x="47" y="593.6684">fk_aggregate_id : bigint</text><ellipse cx="38" cy="603.8913" fill="#000000" rx="3" ry="3" style="stroke:#000000;stroke-width:1.0;"/><text fill="#000000" font-family="sans-serif" font-size="11" lengthAdjust="spacing" textLength="110" x="47" y="608.6502">new_position : bigint</text><!--MD5=[920d5660a06730163c0204a2780a33ae]
class source_entry--><rect codeLine="33" fill="#FEFECE" filter="url(#f1mvs68pdo1e6r)" height="122.9094" id="source_entry" style="stroke:#A80036;stroke-width:1.5;" width="159" x="22.5" y="676"/><ellipse cx="62.25" cy="692" fill="#ADD1B2" rx="11" ry="11" style="stroke:#A80036;stroke-width:1.0;"/><path d="M58.6094,698.5 L58.6094,686.3594 L66.2656,686.3594 L66.2656,688.4844 L60.9844,688.4844 L60.9844,691.1406 L66,691.1406 L66,693.2656 L60.9844,693.2656 L60.9844,696.375 L66.2656,696.375 L66.2656,698.5 L58.6094,698.5 Z " fill="#000000"/><text fill="#000000" font-family="sans-serif" font-size="12" lengthAdjust="spacing" textLength="72" x="81.75" y="696.656">source_entry</text><line style="stroke:#A80036;stroke-width:1.5;" x1="23.5" x2="180.5" y1="708" y2="708"/><ellipse cx="33.5" cy="719" fill="#000000" rx="3" ry="3" style="stroke:#000000;stroke-width:1.0;"/><text fill="#000000" font-family="sans-serif" font-size="11" lengthAdjust="spacing" textLength="50" x="42.5" y="723.7589">id : bigint</text><line style="stroke:#A80036;stroke-width:1.0;" x1="23.5" x2="180.5" y1="730.9819" y2="730.9819"/><ellipse cx="33.5" cy="741.9819" fill="#000000" rx="3" ry="3" style="stroke:#000000;stroke-width:1.0;"/><text fill="#000000" font-family="sans-serif" font-size="11" lengthAdjust="spacing" textLength="124" x="42.5" y="746.7408">extension : varchar(255)</text><ellipse cx="33.5" cy="756.9638" fill="#000000" rx="3" ry="3" style="stroke:#000000;stroke-width:1.0;"/><text fill="#000000" font-family="sans-serif" font-size="11" lengthAdjust="spacing" textLength="102" x="42.5" y="761.7227">extension_type : int</text><ellipse cx="33.5" cy="771.9457" fill="#000000" rx="3" ry="3" style="stroke:#000000;stroke-width:1.0;"/><text fill="#000000" font-family="sans-serif" font-size="11" lengthAdjust="spacing" textLength="87" x="42.5" y="776.7046">byte_size : bigint</text><ellipse cx="33.5" cy="786.9276" fill="#000000" rx="3" ry="3" style="stroke:#000000;stroke-width:1.0;"/><text fill="#000000" font-family="sans-serif" font-size="11" lengthAdjust="spacing" textLength="133" x="42.5" y="791.6865">fk_source_item_id : bigint</text><!--MD5=[1ef907470190a52481b72bc04299235e]
class aggregate--><rect codeLine="42" fill="#FEFECE" filter="url(#f1mvs68pdo1e6r)" height="152.8732" id="aggregate" style="stroke:#A80036;stroke-width:1.5;" width="146" x="222" y="250"/><ellipse cx="262.2" cy="266" fill="#ADD1B2" rx="11" ry="11" style="stroke:#A80036;stroke-width:1.0;"/><path d="M258.5594,272.5 L258.5594,260.3594 L266.2156,260.3594 L266.2156,262.4844 L260.9344,262.4844 L260.9344,265.1406 L265.95,265.1406 L265.95,267.2656 L260.9344,267.2656 L260.9344,270.375 L266.2156,270.375 L266.2156,272.5 L258.5594,272.5 Z " fill="#000000"/><text fill="#000000" font-family="sans-serif" font-size="12" lengthAdjust="spacing" textLength="58" x="281.8" y="270.656">aggregate</text><line style="stroke:#A80036;stroke-width:1.5;" x1="223" x2="367" y1="282" y2="282"/><ellipse cx="233" cy="293" fill="#000000" rx="3" ry="3" style="stroke:#000000;stroke-width:1.0;"/><text fill="#000000" font-family="sans-serif" font-size="11" lengthAdjust="spacing" textLength="50" x="242" y="297.7589">id : bigint</text><line style="stroke:#A80036;stroke-width:1.0;" x1="223" x2="367" y1="304.9819" y2="304.9819"/><ellipse cx="233" cy="315.9819" fill="#000000" rx="3" ry="3" style="stroke:#000000;stroke-width:1.0;"/><text fill="#000000" font-family="sans-serif" font-size="11" lengthAdjust="spacing" textLength="120" x="242" y="320.7408">create_time_ms : bigint</text><ellipse cx="233" cy="330.9638" fill="#000000" rx="3" ry="3" style="stroke:#000000;stroke-width:1.0;"/><text fill="#000000" font-family="sans-serif" font-size="11" lengthAdjust="spacing" textLength="93" x="242" y="335.7227">fk_feed_id : bigint</text><ellipse cx="233" cy="345.9457" fill="#000000" rx="3" ry="3" style="stroke:#000000;stroke-width:1.0;"/><text fill="#000000" font-family="sans-serif" font-size="11" lengthAdjust="spacing" textLength="87" x="242" y="350.7046">byte_size : bigint</text><ellipse cx="233" cy="360.9276" fill="#000000" rx="3" ry="3" style="stroke:#000000;stroke-width:1.0;"/><text fill="#000000" font-family="sans-serif" font-size="11" lengthAdjust="spacing" textLength="51" x="242" y="365.6865">items : int</text><ellipse cx="233" cy="375.9094" fill="#000000" rx="3" ry="3" style="stroke:#000000;stroke-width:1.0;"/><text fill="#000000" font-family="sans-serif" font-size="11" lengthAdjust="spacing" textLength="100" x="242" y="380.6684">complete : boolean</text><ellipse cx="233" cy="390.8913" fill="#000000" rx="3" ry="3" style="stroke:#000000;stroke-width:1.0;"/><text fill="#000000" font-family="sans-serif" font-size="11" lengthAdjust="spacing" textLength="110" x="242" y="395.6502">new_position : bigint</text><!--MD5=[3cc1e4effaee23fb9097a8bf1d8fa0d4]
class forward_url--><rect codeLine="53" fill="#FEFECE" filter="url(#f1mvs68pdo1e6r)" height="77.9638" id="forward_url" style="stroke:#A80036;stroke-width:1.5;" width="114" x="403" y="287.5"/><ellipse cx="426.1" cy="303.5" fill="#ADD1B2" rx="11" ry="11" style="stroke:#A80036;stroke-width:1.0;"/><path d="M422.4594,310 L422.4594,297.8594 L430.1156,297.8594 L430.1156,299.9844 L424.8344,299.9844 L424.8344,302.6406 L429.85,302.6406 L429.85,304.7656 L424.8344,304.7656 L424.8344,307.875 L430.1156,307.875 L430.1156,310 L422.4594,310 Z " fill="#000000"/><text fill="#000000" font-family="sans-serif" font-size="12" lengthAdjust="spacing" textLength="64" x="441.9" y="308.156">forward_url</text><line style="stroke:#A80036;stroke-width:1.5;" x1="404" x2="516" y1="319.5" y2="319.5"/><ellipse cx="414" cy="330.5" fill="#000000" rx="3" ry="3" style="stroke:#000000;stroke-width:1.0;"/><text fill="#000000" font-family="sans-serif" font-size="11" lengthAdjust="spacing" textLength="33" x="423" y="335.2589">id : int</text><line style="stroke:#A80036;stroke-width:1.0;" x1="404" x2="516" y1="342.4819" y2="342.4819"/><ellipse cx="414" cy="353.4819" fill="#000000" rx="3" ry="3" style="stroke:#000000;stroke-width:1.0;"/><text fill="#000000" font-family="sans-serif" font-size="11" lengthAdjust="spacing" textLength="88" x="423" y="358.2408">url : varchar(255)</text><!--MD5=[cbb12bc3eee1de79b3f2e300a168c511]
class forward_source--><rect codeLine="59" fill="#FEFECE" filter="url(#f1mvs68pdo1e6r)" height="182.837" id="forward_source" style="stroke:#A80036;stroke-width:1.5;" width="151" x="198.5" y="7"/><ellipse cx="227.9" cy="23" fill="#ADD1B2" rx="11" ry="11" style="stroke:#A80036;stroke-width:1.0;"/><path d="M224.2594,29.5 L224.2594,17.3594 L231.9156,17.3594 L231.9156,19.4844 L226.6344,19.4844 L226.6344,22.1406 L231.65,22.1406 L231.65,24.2656 L226.6344,24.2656 L226.6344,27.375 L231.9156,27.375 L231.9156,29.5 L224.2594,29.5 Z " fill="#000000"/><text fill="#000000" font-family="sans-serif" font-size="12" lengthAdjust="spacing" textLength="87" x="245.1" y="27.656">forward_source</text><line style="stroke:#A80036;stroke-width:1.5;" x1="199.5" x2="348.5" y1="39" y2="39"/><ellipse cx="209.5" cy="50" fill="#000000" rx="3" ry="3" style="stroke:#000000;stroke-width:1.0;"/><text fill="#000000" font-family="sans-serif" font-size="11" lengthAdjust="spacing" textLength="50" x="218.5" y="54.7589">id : bigint</text><line style="stroke:#A80036;stroke-width:1.0;" x1="199.5" x2="348.5" y1="61.9819" y2="61.9819"/><ellipse cx="209.5" cy="72.9819" fill="#000000" rx="3" ry="3" style="stroke:#000000;stroke-width:1.0;"/><text fill="#000000" font-family="sans-serif" font-size="11" lengthAdjust="spacing" textLength="125" x="218.5" y="77.7408">update_time_ms : bigint</text><ellipse cx="209.5" cy="87.9638" fill="#000000" rx="3" ry="3" style="stroke:#000000;stroke-width:1.0;"/><text fill="#000000" font-family="sans-serif" font-size="11" lengthAdjust="spacing" textLength="116" x="218.5" y="92.7227">fk_forward_url_id : int</text><ellipse cx="209.5" cy="102.9457" fill="#000000" rx="3" ry="3" style="stroke:#000000;stroke-width:1.0;"/><text fill="#000000" font-family="sans-serif" font-size="11" lengthAdjust="spacing" textLength="105" x="218.5" y="107.7046">fk_source_id : bigint</text><ellipse cx="209.5" cy="117.9276" fill="#000000" rx="3" ry="3" style="stroke:#000000;stroke-width:1.0;"/><text fill="#000000" font-family="sans-serif" font-size="11" lengthAdjust="spacing" textLength="90" x="218.5" y="122.6865">success : boolean</text><ellipse cx="209.5" cy="132.9094" fill="#000000" rx="3" ry="3" style="stroke:#000000;stroke-width:1.0;"/><text fill="#000000" font-family="sans-serif" font-size="11" lengthAdjust="spacing" textLength="101" x="218.5" y="137.6684">error : varchar(255)</text><ellipse cx="209.5" cy="147.8913" fill="#000000" rx="3" ry="3" style="stroke:#000000;stroke-width:1.0;"/><text fill="#000000" font-family="sans-serif" font-size="11" lengthAdjust="spacing" textLength="63" x="218.5" y="152.6502">tries : bigint</text><ellipse cx="209.5" cy="162.8732" fill="#000000" rx="3" ry="3" style="stroke:#000000;stroke-width:1.0;"/><text fill="#000000" font-family="sans-serif" font-size="11" lengthAdjust="spacing" textLength="110" x="218.5" y="167.6321">new_position : bigint</text><ellipse cx="209.5" cy="177.8551" fill="#000000" rx="3" ry="3" style="stroke:#000000;stroke-width:1.0;"/><text fill="#000000" font-family="sans-serif" font-size="11" lengthAdjust="spacing" textLength="114" x="218.5" y="182.614">retry_position : bigint</text><!--MD5=[d4f398bbc1193deb68c8428dcb929078]
class forward_aggregate--><rect codeLine="72" fill="#FEFECE" filter="url(#f1mvs68pdo1e6r)" height="182.837" id="forward_aggregate" style="stroke:#A80036;stroke-width:1.5;" width="151" x="384.5" y="7"/><ellipse cx="404.9" cy="23" fill="#ADD1B2" rx="11" ry="11" style="stroke:#A80036;stroke-width:1.0;"/><path d="M401.2594,29.5 L401.2594,17.3594 L408.9156,17.3594 L408.9156,19.4844 L403.6344,19.4844 L403.6344,22.1406 L408.65,22.1406 L408.65,24.2656 L403.6344,24.2656 L403.6344,27.375 L408.9156,27.375 L408.9156,29.5 L401.2594,29.5 Z " fill="#000000"/><text fill="#000000" font-family="sans-serif" font-size="12" lengthAdjust="spacing" textLength="107" x="420.1" y="27.656">forward_aggregate</text><line style="stroke:#A80036;stroke-width:1.5;" x1="385.5" x2="534.5" y1="39" y2="39"/><ellipse cx="395.5" cy="50" fill="#000000" rx="3" ry="3" style="stroke:#000000;stroke-width:1.0;"/><text fill="#000000" font-family="sans-serif" font-size="11" lengthAdjust="spacing" textLength="50" x="404.5" y="54.7589">id : bigint</text><line style="stroke:#A80036;stroke-width:1.0;" x1="385.5" x2="534.5" y1="61.9819" y2="61.9819"/><ellipse cx="395.5" cy="72.9819" fill="#000000" rx="3" ry="3" style="stroke:#000000;stroke-width:1.0;"/><text fill="#000000" font-family="sans-serif" font-size="11" lengthAdjust="spacing" textLength="125" x="404.5" y="77.7408">update_time_ms : bigint</text><ellipse cx="395.5" cy="87.9638" fill="#000000" rx="3" ry="3" style="stroke:#000000;stroke-width:1.0;"/><text fill="#000000" font-family="sans-serif" font-size="11" lengthAdjust="spacing" textLength="116" x="404.5" y="92.7227">fk_forward_url_id : int</text><ellipse cx="395.5" cy="102.9457" fill="#000000" rx="3" ry="3" style="stroke:#000000;stroke-width:1.0;"/><text fill="#000000" font-family="sans-serif" font-size="11" lengthAdjust="spacing" textLength="124" x="404.5" y="107.7046">fk_aggregate_id : bigint</text><ellipse cx="395.5" cy="117.9276" fill="#000000" rx="3" ry="3" style="stroke:#000000;stroke-width:1.0;"/><text fill="#000000" font-family="sans-serif" font-size="11" lengthAdjust="spacing" textLength="90" x="404.5" y="122.6865">success : boolean</text><ellipse cx="395.5" cy="132.9094" fill="#000000" rx="3" ry="3" style="stroke:#000000;stroke-width:1.0;"/><text fill="#000000" font-family="sans-serif" font-size="11" lengthAdjust="spacing" textLength="101" x="404.5" y="137.6684">error : varchar(255)</text><ellipse cx="395.5" cy="147.8913" fill="#000000" rx="3" ry="3" style="stroke:#000000;stroke-width:1.0;"/><text fill="#000000" font-family="sans-serif" font-size="11" lengthAdjust="spacing" textLength="63" x="404.5" y="152.6502">tries : bigint</text><ellipse cx="395.5" cy="162.8732" fill="#000000" rx="3" ry="3" style="stroke:#000000;stroke-width:1.0;"/><text fill="#000000" font-family="sans-serif" font-size="11" lengthAdjust="spacing" textLength="110" x="404.5" y="167.6321">new_position : bigint</text><ellipse cx="395.5" cy="177.8551" fill="#000000" rx="3" ry="3" style="stroke:#000000;stroke-width:1.0;"/><text fill="#000000" font-family="sans-serif" font-size="11" lengthAdjust="spacing" textLength="114" x="404.5" y="182.614">retry_position : bigint</text><!--MD5=[8fc0b909dc2d6f9332fdd45de385bd9e]
link feed to source--><path codeLine="85" d="M65.67,153.19 C65.67,153.19 65.67,249.37 65.67,249.37 " fill="none" id="feed-source" style="stroke:#A80036;stroke-width:1.0;"/><line style="stroke:#A80036;stroke-width:1.0;" x1="65.67" x2="71.67" y1="249.37" y2="257.37"/><line style="stroke:#A80036;stroke-width:1.0;" x1="65.67" x2="59.67" y1="249.37" y2="257.37"/><line style="stroke:#A80036;stroke-width:1.0;" x1="65.67" x2="65.67" y1="249.37" y2="257.37"/><line style="stroke:#A80036;stroke-width:1.0;" x1="69.67" x2="61.67" y1="247.37" y2="247.37"/><line style="stroke:#A80036;stroke-width:1.0;" x1="61.67" x2="69.67" y1="149.19" y2="149.19"/><line style="stroke:#A80036;stroke-width:1.0;" x1="61.67" x2="69.67" y1="152.19" y2="152.19"/><line style="stroke:#A80036;stroke-width:1.0;" x1="65.67" x2="65.67" y1="153.19" y2="145.19"/><!--MD5=[11c2e13f815eb43a8199e329e64e3864]
link feed to source_item--><path codeLine="86" d="M12,153.33 C12,153.33 12,540 12,540 C12,540 18.86,540 18.86,540 " fill="none" id="feed-source_item" style="stroke:#A80036;stroke-width:1.0;"/><line style="stroke:#A80036;stroke-width:1.0;" x1="18.86" x2="26.86" y1="540" y2="534"/><line style="stroke:#A80036;stroke-width:1.0;" x1="18.86" x2="26.86" y1="540" y2="546"/><line style="stroke:#A80036;stroke-width:1.0;" x1="18.86" x2="26.86" y1="540" y2="540"/><line style="stroke:#A80036;stroke-width:1.0;" x1="16.86" x2="16.86" y1="536" y2="544"/><line style="stroke:#A80036;stroke-width:1.0;" x1="8" x2="16" y1="149.33" y2="149.33"/><line style="stroke:#A80036;stroke-width:1.0;" x1="8" x2="16" y1="152.33" y2="152.33"/><line style="stroke:#A80036;stroke-width:1.0;" x1="12" x2="12" y1="153.33" y2="145.33"/><!--MD5=[2216fa80f18d20d599bb2d67b2e757c8]
link feed to aggregate--><path codeLine="87" d="M114.33,153.16 C114.33,153.16 114.33,254 114.33,254 C114.33,254 213.78,254 213.78,254 " fill="none" id="feed-aggregate" style="stroke:#A80036;stroke-width:1.0;"/><line style="stroke:#A80036;stroke-width:1.0;" x1="213.78" x2="221.78" y1="254" y2="248"/><line style="stroke:#A80036;stroke-width:1.0;" x1="213.78" x2="221.78" y1="254" y2="260"/><line style="stroke:#A80036;stroke-width:1.0;" x1="213.78" x2="221.78" y1="254" y2="254"/><line style="stroke:#A80036;stroke-width:1.0;" x1="211.78" x2="211.78" y1="250" y2="258"/><line style="stroke:#A80036;stroke-width:1.0;" x1="110.33" x2="118.33" y1="149.16" y2="149.16"/><line style="stroke:#A80036;stroke-width:1.0;" x1="110.33" x2="118.33" y1="152.16" y2="152.16"/><line style="stroke:#A80036;stroke-width:1.0;" x1="114.33" x2="114.33" y1="153.16" y2="145.16"/><!--MD5=[bde66a182555eb887059de8293221a83]
link source to source_item--><path codeLine="89" d="M77,403.65 C77,403.65 77,454.96 77,454.96 " fill="none" id="source-source_item" style="stroke:#A80036;stroke-width:1.0;stroke-dasharray:7.0,7.0;"/><line style="stroke:#A80036;stroke-width:1.0;" x1="77" x2="83" y1="454.96" y2="462.96"/><line style="stroke:#A80036;stroke-width:1.0;" x1="77" x2="71" y1="454.96" y2="462.96"/><line style="stroke:#A80036;stroke-width:1.0;" x1="77" x2="77" y1="454.96" y2="462.96"/><ellipse cx="77" cy="448.96" rx="4" ry="4" style="stroke:#A80036;stroke-width:1.0;fill:none;"/><line style="stroke:#A80036;stroke-width:1.0;fill:none;" x1="73.0071" x2="81.0071" y1="399.6571" y2="399.6429"/><line style="stroke:#A80036;stroke-width:1.0;fill:none;" x1="73.0125" x2="81.0125" y1="402.6571" y2="402.6428"/><line style="stroke:#A80036;stroke-width:1.0;fill:none;" x1="77.0143" x2="77" y1="403.65" y2="395.65"/><!--MD5=[6610028f0c7a0554f2085ee3824405a3]
link source_item to source_entry--><path codeLine="90" d="M102,624.05 C102,624.05 102,667.86 102,667.86 " fill="none" id="source_item-source_entry" style="stroke:#A80036;stroke-width:1.0;"/><line style="stroke:#A80036;stroke-width:1.0;" x1="102" x2="108" y1="667.86" y2="675.86"/><line style="stroke:#A80036;stroke-width:1.0;" x1="102" x2="96" y1="667.86" y2="675.86"/><line style="stroke:#A80036;stroke-width:1.0;" x1="102" x2="102" y1="667.86" y2="675.86"/><line style="stroke:#A80036;stroke-width:1.0;" x1="106" x2="98" y1="665.86" y2="665.86"/><line style="stroke:#A80036;stroke-width:1.0;" x1="98" x2="106" y1="620.05" y2="620.05"/><line style="stroke:#A80036;stroke-width:1.0;" x1="98" x2="106" y1="623.05" y2="623.05"/><line style="stroke:#A80036;stroke-width:1.0;" x1="102" x2="102" y1="624.05" y2="616.05"/><!--MD5=[c19e3c6eb4e2962e1f79b15e01c56d18]
link aggregate to source_item--><path codeLine="91" d="M213.8,400 C213.8,400 127,400 127,400 C127,400 127,454.81 127,454.81 " fill="none" id="aggregate-source_item" style="stroke:#A80036;stroke-width:1.0;"/><line style="stroke:#A80036;stroke-width:1.0;" x1="127" x2="133" y1="454.81" y2="462.81"/><line style="stroke:#A80036;stroke-width:1.0;" x1="127" x2="121" y1="454.81" y2="462.81"/><line style="stroke:#A80036;stroke-width:1.0;" x1="127" x2="127" y1="454.81" y2="462.81"/><line style="stroke:#A80036;stroke-width:1.0;" x1="131" x2="123" y1="452.81" y2="452.81"/><line style="stroke:#A80036;stroke-width:1.0;" x1="217.8" x2="217.8" y1="396" y2="404"/><line style="stroke:#A80036;stroke-width:1.0;" x1="214.8" x2="214.8" y1="396" y2="404"/><line style="stroke:#A80036;stroke-width:1.0;" x1="213.8" x2="221.8" y1="400" y2="400"/><!--MD5=[237522a801e7bb9308fa36e58d02c106]
link forward_source to forward_url--><path codeLine="92" d="M285.75,198.28 C285.75,198.28 285.75,220 285.75,220 C285.75,220 441,220 441,220 C441,220 441,279.45 441,279.45 " fill="none" id="forward_source-forward_url" style="stroke:#A80036;stroke-width:1.0;"/><line style="stroke:#A80036;stroke-width:1.0;" x1="445" x2="437" y1="283.45" y2="283.45"/><line style="stroke:#A80036;stroke-width:1.0;" x1="445" x2="437" y1="280.45" y2="280.45"/><line style="stroke:#A80036;stroke-width:1.0;" x1="441" x2="441" y1="279.45" y2="287.45"/><line style="stroke:#A80036;stroke-width:1.0;" x1="285.75" x2="279.75" y1="198.28" y2="190.28"/><line style="stroke:#A80036;stroke-width:1.0;" x1="285.75" x2="291.75" y1="198.28" y2="190.28"/><line style="stroke:#A80036;stroke-width:1.0;" x1="285.75" x2="285.75" y1="198.28" y2="190.28"/><ellipse cx="285.75" cy="204.28" rx="4" ry="4" style="stroke:#A80036;stroke-width:1.0;fill:none;"/><!--MD5=[d49f4a8229bc31f1f5d61244df6e6e3c]
link forward_source to source--><path codeLine="93" d="M190.46,168 C190.46,168 175,168 175,168 C175,168 175,249.44 175,249.44 " fill="none" id="forward_source-source" style="stroke:#A80036;stroke-width:1.0;stroke-dasharray:7.0,7.0;"/><line style="stroke:#A80036;stroke-width:1.0;" x1="179" x2="171" y1="253.44" y2="253.44"/><line style="stroke:#A80036;stroke-width:1.0;" x1="179" x2="171" y1="250.44" y2="250.44"/><line style="stroke:#A80036;stroke-width:1.0;" x1="175" x2="175" y1="249.44" y2="257.44"/><line style="stroke:#A80036;stroke-width:1.0;" x1="190.46" x2="198.46" y1="168" y2="162"/><line style="stroke:#A80036;stroke-width:1.0;" x1="190.46" x2="198.46" y1="168" y2="174"/><line style="stroke:#A80036;stroke-width:1.0;" x1="190.46" x2="198.46" y1="168" y2="168"/><ellipse cx="184.46" cy="168" rx="4" ry="4" style="stroke:#A80036;stroke-width:1.0;fill:none;"/><!--MD5=[04d9ecdcc61a774a98679dad38ac2f3f]
link forward_aggregate to forward_url--><path codeLine="94" d="M479,198.25 C479,198.25 479,279.23 479,279.23 " fill="none" id="forward_aggregate-forward_url" style="stroke:#A80036;stroke-width:1.0;"/><line style="stroke:#A80036;stroke-width:1.0;" x1="483" x2="475" y1="283.23" y2="283.23"/><line style="stroke:#A80036;stroke-width:1.0;" x1="483" x2="475" y1="280.23" y2="280.23"/><line style="stroke:#A80036;stroke-width:1.0;" x1="479" x2="479" y1="279.23" y2="287.23"/><line style="stroke:#A80036;stroke-width:1.0;" x1="479" x2="473" y1="198.25" y2="190.25"/><line style="stroke:#A80036;stroke-width:1.0;" x1="479" x2="485" y1="198.25" y2="190.25"/><line style="stroke:#A80036;stroke-width:1.0;" x1="479" x2="479" y1="198.25" y2="190.25"/><ellipse cx="479" cy="204.25" rx="4" ry="4" style="stroke:#A80036;stroke-width:1.0;fill:none;"/><!--MD5=[0ac3d8377118ba1284c6e32a49f23729]
link forward_aggregate to aggregate--><path codeLine="95" d="M393.75,198.24 C393.75,198.24 393.75,269 393.75,269 C393.75,269 376.06,269 376.06,269 " fill="none" id="forward_aggregate-aggregate" style="stroke:#A80036;stroke-width:1.0;"/><line style="stroke:#A80036;stroke-width:1.0;" x1="372.06" x2="372.06" y1="273" y2="265"/><line style="stroke:#A80036;stroke-width:1.0;" x1="375.06" x2="375.06" y1="273" y2="265"/><line style="stroke:#A80036;stroke-width:1.0;" x1="376.06" x2="368.06" y1="269" y2="269"/><line style="stroke:#A80036;stroke-width:1.0;" x1="393.75" x2="387.75" y1="198.24" y2="190.24"/><line style="stroke:#A80036;stroke-width:1.0;" x1="393.75" x2="399.75" y1="198.24" y2="190.24"/><line style="stroke:#A80036;stroke-width:1.0;" x1="393.75" x2="393.75" y1="198.24" y2="190.24"/><ellipse cx="393.75" cy="204.24" rx="4" ry="4" style="stroke:#A80036;stroke-width:1.0;fill:none;"/><!--MD5=[a639a815ab2928fb60bc21dc6fa79c9d]
@startuml

' avoid problems with angled crows feet
skinparam linetype ortho

entity feed {
  *id : bigint
  - -
  *feed_name : varchar(255)
  *type_name : varchar(255)
}

entity source {
  *id : bigint
  - -
  *path : varchar(255) - unique
  *fk_feed_id : bigint
  *examined : boolean
  *forwarded : boolean
  *new_position : bigint
}

entity source_item {
  *id : bigint
  - -
  *name : varchar(255)
  *fk_feed_id : bigint
  *byte_size : bigint
  *fk_source_id : bigint
  *fk_aggregate_id : bigint
  *new_position : bigint
}

entity source_entry {
  *id : bigint
  - -
  *extension : varchar(255)
  *extension_type : int
  *byte_size : bigint
  *fk_source_item_id : bigint
}

entity aggregate {
  *id : bigint
  - -
  *create_time_ms : bigint
  *fk_feed_id : bigint
  *byte_size : bigint
  *items : int
  *complete : boolean
  *new_position : bigint
}

entity forward_url {
  *id : int
  - -
  *url : varchar(255)
}

entity forward_source {
  *id : bigint
  - -
  *update_time_ms : bigint
  *fk_forward_url_id : int
  *fk_source_id : bigint
  *success : boolean
  *error : varchar(255)
  *tries : bigint
  *new_position : bigint
  *retry_position : bigint
}

entity forward_aggregate {
  *id : bigint
  - -
  *update_time_ms : bigint
  *fk_forward_url_id : int
  *fk_aggregate_id : bigint
  *success : boolean
  *error : varchar(255)
  *tries : bigint
  *new_position : bigint
  *retry_position : bigint
}

feed ||- -|{ source
feed ||- -|{ source_item
feed ||- -|{ aggregate

source ||..o{ source_item
source_item ||- -|{ source_entry
aggregate ||- -|{ source_item
forward_source }o- -|| forward_url
forward_source }o..|| source
forward_aggregate }o- -|| forward_url
forward_aggregate }o- -|| aggregate

@enduml

@startuml

skinparam linetype ortho

entity feed {
  *id : bigint
  - -
  *feed_name : varchar(255)
  *type_name : varchar(255)
}

entity source {
  *id : bigint
  - -
  *path : varchar(255) - unique
  *fk_feed_id : bigint
  *examined : boolean
  *forwarded : boolean
  *new_position : bigint
}

entity source_item {
  *id : bigint
  - -
  *name : varchar(255)
  *fk_feed_id : bigint
  *byte_size : bigint
  *fk_source_id : bigint
  *fk_aggregate_id : bigint
  *new_position : bigint
}

entity source_entry {
  *id : bigint
  - -
  *extension : varchar(255)
  *extension_type : int
  *byte_size : bigint
  *fk_source_item_id : bigint
}

entity aggregate {
  *id : bigint
  - -
  *create_time_ms : bigint
  *fk_feed_id : bigint
  *byte_size : bigint
  *items : int
  *complete : boolean
  *new_position : bigint
}

entity forward_url {
  *id : int
  - -
  *url : varchar(255)
}

entity forward_source {
  *id : bigint
  - -
  *update_time_ms : bigint
  *fk_forward_url_id : int
  *fk_source_id : bigint
  *success : boolean
  *error : varchar(255)
  *tries : bigint
  *new_position : bigint
  *retry_position : bigint
}

entity forward_aggregate {
  *id : bigint
  - -
  *update_time_ms : bigint
  *fk_forward_url_id : int
  *fk_aggregate_id : bigint
  *success : boolean
  *error : varchar(255)
  *tries : bigint
  *new_position : bigint
  *retry_position : bigint
}

feed ||- -|{ source
feed ||- -|{ source_item
feed ||- -|{ aggregate

source ||..o{ source_item
source_item ||- -|{ source_entry
aggregate ||- -|{ source_item
forward_source }o- -|| forward_url
forward_source }o..|| source
forward_aggregate }o- -|| forward_url
forward_aggregate }o- -|| aggregate

@enduml

PlantUML version 1.2021.16(Wed Dec 08 17:25:22 GMT 2021)
(GPL source distribution)
Java Runtime: OpenJDK Runtime Environment
JVM: OpenJDK 64-Bit Server VM
Default Encoding: UTF-8
Language: en
Country: GB
--></g></svg>