<?xml version="1.0" encoding="us-ascii" standalone="no"?><svg xmlns="http://www.w3.org/2000/svg" xmlns:xlink="http://www.w3.org/1999/xlink" contentStyleType="text/css" height="842px" preserveAspectRatio="none" style="width:669px;height:842px;background:#FFFFFF;" version="1.1" viewBox="0 0 669 842" width="669px" zoomAndPan="magnify"><defs/><g><!--class feed--><g id="elem_feed"><rect codeLine="5" fill="#F1F1F1" height="96.8906" id="feed" rx="2.5" ry="2.5" style="stroke:#181818;stroke-width:0.5;" width="203" x="7" y="55.89"/><ellipse cx="88.75" cy="71.89" fill="#ADD1B2" rx="11" ry="11" style="stroke:#181818;stroke-width:1.0;"/><path d="M92.8594,77.89 L85.1406,77.89 L85.1406,65.4994 L92.8594,65.4994 L92.8594,67.6556 L87.5938,67.6556 L87.5938,70.3275 L92.3594,70.3275 L92.3594,72.4837 L87.5938,72.4837 L87.5938,75.7337 L92.8594,75.7337 L92.8594,77.89 Z " fill="#000000"/><text fill="#000000" font-family="sans-serif" font-size="14" lengthAdjust="spacing" textLength="31" x="109.25" y="76.7367">feed</text><line style="stroke:#181818;stroke-width:0.5;" x1="8" x2="209" y1="87.89" y2="87.89"/><ellipse cx="18" cy="101.5384" fill="#000000" rx="3" ry="3" style="stroke:#000000;stroke-width:1.0;"/><text fill="#000000" font-family="sans-serif" font-size="14" lengthAdjust="spacing" textLength="63" x="27" y="104.8851">id : bigint</text><line style="stroke:#181818;stroke-width:1.0;" x1="8" x2="209" y1="112.1869" y2="112.1869"/><ellipse cx="18" cy="125.8353" fill="#000000" rx="3" ry="3" style="stroke:#000000;stroke-width:1.0;"/><text fill="#000000" font-family="sans-serif" font-size="14" lengthAdjust="spacing" textLength="177" x="27" y="129.182">feed_name : varchar(255)</text><ellipse cx="18" cy="142.1322" fill="#000000" rx="3" ry="3" style="stroke:#000000;stroke-width:1.0;"/><text fill="#000000" font-family="sans-serif" font-size="14" lengthAdjust="spacing" textLength="176" x="27" y="145.4789">type_name : varchar(255)</text></g><!--class source--><g id="elem_source"><rect codeLine="12" fill="#F1F1F1" height="145.7813" id="source" rx="2.5" ry="2.5" style="stroke:#181818;stroke-width:0.5;" width="218" x="9.5" y="269.82"/><ellipse cx="90.25" cy="285.82" fill="#ADD1B2" rx="11" ry="11" style="stroke:#181818;stroke-width:1.0;"/><path d="M94.3594,291.82 L86.6406,291.82 L86.6406,279.4294 L94.3594,279.4294 L94.3594,281.5856 L89.0938,281.5856 L89.0938,284.2575 L93.8594,284.2575 L93.8594,286.4137 L89.0938,286.4137 L89.0938,289.6637 L94.3594,289.6637 L94.3594,291.82 Z " fill="#000000"/><text fill="#000000" font-family="sans-serif" font-size="14" lengthAdjust="spacing" textLength="48" x="110.75" y="290.6667">source</text><line style="stroke:#181818;stroke-width:0.5;" x1="10.5" x2="226.5" y1="301.82" y2="301.82"/><ellipse cx="20.5" cy="315.4684" fill="#000000" rx="3" ry="3" style="stroke:#000000;stroke-width:1.0;"/><text fill="#000000" font-family="sans-serif" font-size="14" lengthAdjust="spacing" textLength="63" x="29.5" y="318.8151">id : bigint</text><line style="stroke:#181818;stroke-width:1.0;" x1="10.5" x2="226.5" y1="326.1169" y2="326.1169"/><ellipse cx="20.5" cy="339.7653" fill="#000000" rx="3" ry="3" style="stroke:#000000;stroke-width:1.0;"/><text fill="#000000" font-family="sans-serif" font-size="14" lengthAdjust="spacing" textLength="192" x="29.5" y="343.112">path : varchar(255) - unique</text><ellipse cx="20.5" cy="356.0622" fill="#000000" rx="3" ry="3" style="stroke:#000000;stroke-width:1.0;"/><text fill="#000000" font-family="sans-serif" font-size="14" lengthAdjust="spacing" textLength="120" x="29.5" y="359.4089">fk_feed_id : bigint</text><ellipse cx="20.5" cy="372.3591" fill="#000000" rx="3" ry="3" style="stroke:#000000;stroke-width:1.0;"/><text fill="#000000" font-family="sans-serif" font-size="14" lengthAdjust="spacing" textLength="136" x="29.5" y="375.7057">examined : boolean</text><ellipse cx="20.5" cy="388.6559" fill="#000000" rx="3" ry="3" style="stroke:#000000;stroke-width:1.0;"/><text fill="#000000" font-family="sans-serif" font-size="14" lengthAdjust="spacing" textLength="139" x="29.5" y="392.0026">item_count : integer</text><ellipse cx="20.5" cy="404.9528" fill="#000000" rx="3" ry="3" style="stroke:#000000;stroke-width:1.0;"/><text fill="#000000" font-family="sans-serif" font-size="14" lengthAdjust="spacing" textLength="142" x="29.5" y="408.2995">new_position : bigint</text></g><!--class source_item--><g id="elem_source_item"><rect codeLine="22" fill="#F1F1F1" height="162.0781" id="source_item" rx="2.5" ry="2.5" style="stroke:#181818;stroke-width:0.5;" width="186" x="25.5" y="483.75"/><ellipse cx="71.75" cy="499.75" fill="#ADD1B2" rx="11" ry="11" style="stroke:#181818;stroke-width:1.0;"/><path d="M75.8594,505.75 L68.1406,505.75 L68.1406,493.3594 L75.8594,493.3594 L75.8594,495.5156 L70.5938,495.5156 L70.5938,498.1875 L75.3594,498.1875 L75.3594,500.3437 L70.5938,500.3437 L70.5938,503.5937 L75.8594,503.5937 L75.8594,505.75 Z " fill="#000000"/><text fill="#000000" font-family="sans-serif" font-size="14" lengthAdjust="spacing" textLength="85" x="92.25" y="504.5967">source_item</text><line style="stroke:#181818;stroke-width:0.5;" x1="26.5" x2="210.5" y1="515.75" y2="515.75"/><ellipse cx="36.5" cy="529.3984" fill="#000000" rx="3" ry="3" style="stroke:#000000;stroke-width:1.0;"/><text fill="#000000" font-family="sans-serif" font-size="14" lengthAdjust="spacing" textLength="63" x="45.5" y="532.7451">id : bigint</text><line style="stroke:#181818;stroke-width:1.0;" x1="26.5" x2="210.5" y1="540.0469" y2="540.0469"/><ellipse cx="36.5" cy="553.6953" fill="#000000" rx="3" ry="3" style="stroke:#000000;stroke-width:1.0;"/><text fill="#000000" font-family="sans-serif" font-size="14" lengthAdjust="spacing" textLength="139" x="45.5" y="557.042">name : varchar(255)</text><ellipse cx="36.5" cy="569.9922" fill="#000000" rx="3" ry="3" style="stroke:#000000;stroke-width:1.0;"/><text fill="#000000" font-family="sans-serif" font-size="14" lengthAdjust="spacing" textLength="120" x="45.5" y="573.3389">fk_feed_id : bigint</text><ellipse cx="36.5" cy="586.2891" fill="#000000" rx="3" ry="3" style="stroke:#000000;stroke-width:1.0;"/><text fill="#000000" font-family="sans-serif" font-size="14" lengthAdjust="spacing" textLength="116" x="45.5" y="589.6357">byte_size : bigint</text><ellipse cx="36.5" cy="602.5859" fill="#000000" rx="3" ry="3" style="stroke:#000000;stroke-width:1.0;"/><text fill="#000000" font-family="sans-serif" font-size="14" lengthAdjust="spacing" textLength="137" x="45.5" y="605.9326">fk_source_id : bigint</text><ellipse cx="36.5" cy="618.8828" fill="#000000" rx="3" ry="3" style="stroke:#000000;stroke-width:1.0;"/><text fill="#000000" font-family="sans-serif" font-size="14" lengthAdjust="spacing" textLength="160" x="45.5" y="622.2295">fk_aggregate_id : bigint</text><ellipse cx="36.5" cy="635.1797" fill="#000000" rx="3" ry="3" style="stroke:#000000;stroke-width:1.0;"/><text fill="#000000" font-family="sans-serif" font-size="14" lengthAdjust="spacing" textLength="142" x="45.5" y="638.5264">new_position : bigint</text></g><!--class source_entry--><g id="elem_source_entry"><rect codeLine="33" fill="#F1F1F1" height="129.4844" id="source_entry" rx="2.5" ry="2.5" style="stroke:#181818;stroke-width:0.5;" width="200" x="18.5" y="705.83"/><ellipse cx="69.25" cy="721.83" fill="#ADD1B2" rx="11" ry="11" style="stroke:#181818;stroke-width:1.0;"/><path d="M73.3594,727.83 L65.6406,727.83 L65.6406,715.4394 L73.3594,715.4394 L73.3594,717.5956 L68.0938,717.5956 L68.0938,720.2675 L72.8594,720.2675 L72.8594,722.4237 L68.0938,722.4237 L68.0938,725.6737 L73.3594,725.6737 L73.3594,727.83 Z " fill="#000000"/><text fill="#000000" font-family="sans-serif" font-size="14" lengthAdjust="spacing" textLength="90" x="89.75" y="726.6767">source_entry</text><line style="stroke:#181818;stroke-width:0.5;" x1="19.5" x2="217.5" y1="737.83" y2="737.83"/><ellipse cx="29.5" cy="751.4784" fill="#000000" rx="3" ry="3" style="stroke:#000000;stroke-width:1.0;"/><text fill="#000000" font-family="sans-serif" font-size="14" lengthAdjust="spacing" textLength="63" x="38.5" y="754.8251">id : bigint</text><line style="stroke:#181818;stroke-width:1.0;" x1="19.5" x2="217.5" y1="762.1269" y2="762.1269"/><ellipse cx="29.5" cy="775.7753" fill="#000000" rx="3" ry="3" style="stroke:#000000;stroke-width:1.0;"/><text fill="#000000" font-family="sans-serif" font-size="14" lengthAdjust="spacing" textLength="168" x="38.5" y="779.122">extension : varchar(255)</text><ellipse cx="29.5" cy="792.0722" fill="#000000" rx="3" ry="3" style="stroke:#000000;stroke-width:1.0;"/><text fill="#000000" font-family="sans-serif" font-size="14" lengthAdjust="spacing" textLength="135" x="38.5" y="795.4189">extension_type : int</text><ellipse cx="29.5" cy="808.3691" fill="#000000" rx="3" ry="3" style="stroke:#000000;stroke-width:1.0;"/><text fill="#000000" font-family="sans-serif" font-size="14" lengthAdjust="spacing" textLength="116" x="38.5" y="811.7157">byte_size : bigint</text><ellipse cx="29.5" cy="824.6659" fill="#000000" rx="3" ry="3" style="stroke:#000000;stroke-width:1.0;"/><text fill="#000000" font-family="sans-serif" font-size="14" lengthAdjust="spacing" textLength="174" x="38.5" y="828.0126">fk_source_item_id : bigint</text></g><!--class aggregate--><g id="elem_aggregate"><rect codeLine="42" fill="#F1F1F1" height="162.0781" id="aggregate" rx="2.5" ry="2.5" style="stroke:#181818;stroke-width:0.5;" width="186" x="262.5" y="261.67"/><ellipse cx="315.75" cy="277.67" fill="#ADD1B2" rx="11" ry="11" style="stroke:#181818;stroke-width:1.0;"/><path d="M319.8594,283.67 L312.1406,283.67 L312.1406,271.2794 L319.8594,271.2794 L319.8594,273.4356 L314.5938,273.4356 L314.5938,276.1075 L319.3594,276.1075 L319.3594,278.2637 L314.5938,278.2637 L314.5938,281.5137 L319.8594,281.5137 L319.8594,283.67 Z " fill="#000000"/><text fill="#000000" font-family="sans-serif" font-size="14" lengthAdjust="spacing" textLength="71" x="336.25" y="282.5167">aggregate</text><line style="stroke:#181818;stroke-width:0.5;" x1="263.5" x2="447.5" y1="293.67" y2="293.67"/><ellipse cx="273.5" cy="307.3184" fill="#000000" rx="3" ry="3" style="stroke:#000000;stroke-width:1.0;"/><text fill="#000000" font-family="sans-serif" font-size="14" lengthAdjust="spacing" textLength="63" x="282.5" y="310.6651">id : bigint</text><line style="stroke:#181818;stroke-width:1.0;" x1="263.5" x2="447.5" y1="317.9669" y2="317.9669"/><ellipse cx="273.5" cy="331.6153" fill="#000000" rx="3" ry="3" style="stroke:#000000;stroke-width:1.0;"/><text fill="#000000" font-family="sans-serif" font-size="14" lengthAdjust="spacing" textLength="160" x="282.5" y="334.962">create_time_ms : bigint</text><ellipse cx="273.5" cy="347.9122" fill="#000000" rx="3" ry="3" style="stroke:#000000;stroke-width:1.0;"/><text fill="#000000" font-family="sans-serif" font-size="14" lengthAdjust="spacing" textLength="120" x="282.5" y="351.2589">fk_feed_id : bigint</text><ellipse cx="273.5" cy="364.2091" fill="#000000" rx="3" ry="3" style="stroke:#000000;stroke-width:1.0;"/><text fill="#000000" font-family="sans-serif" font-size="14" lengthAdjust="spacing" textLength="116" x="282.5" y="367.5557">byte_size : bigint</text><ellipse cx="273.5" cy="380.5059" fill="#000000" rx="3" ry="3" style="stroke:#000000;stroke-width:1.0;"/><text fill="#000000" font-family="sans-serif" font-size="14" lengthAdjust="spacing" textLength="68" x="282.5" y="383.8526">items : int</text><ellipse cx="273.5" cy="396.8028" fill="#000000" rx="3" ry="3" style="stroke:#000000;stroke-width:1.0;"/><text fill="#000000" font-family="sans-serif" font-size="14" lengthAdjust="spacing" textLength="134" x="282.5" y="400.1495">complete : boolean</text><ellipse cx="273.5" cy="413.0997" fill="#000000" rx="3" ry="3" style="stroke:#000000;stroke-width:1.0;"/><text fill="#000000" font-family="sans-serif" font-size="14" lengthAdjust="spacing" textLength="142" x="282.5" y="416.4464">new_position : bigint</text></g><!--class forward_dest--><g id="elem_forward_dest"><rect codeLine="53" fill="#F1F1F1" height="80.5938" id="forward_dest" rx="2.5" ry="2.5" style="stroke:#181818;stroke-width:0.5;" width="165" x="484" y="302.41"/><ellipse cx="518.8" cy="318.41" fill="#ADD1B2" rx="11" ry="11" style="stroke:#181818;stroke-width:1.0;"/><path d="M522.9094,324.41 L515.1906,324.41 L515.1906,312.0194 L522.9094,312.0194 L522.9094,314.1756 L517.6438,314.1756 L517.6438,316.8475 L522.4094,316.8475 L522.4094,319.0037 L517.6438,319.0037 L517.6438,322.2537 L522.9094,322.2537 L522.9094,324.41 Z " fill="#000000"/><text fill="#000000" font-family="sans-serif" font-size="14" lengthAdjust="spacing" textLength="89" x="537.2" y="323.2567">forward_dest</text><line style="stroke:#181818;stroke-width:0.5;" x1="485" x2="648" y1="334.41" y2="334.41"/><ellipse cx="495" cy="348.0584" fill="#000000" rx="3" ry="3" style="stroke:#000000;stroke-width:1.0;"/><text fill="#000000" font-family="sans-serif" font-size="14" lengthAdjust="spacing" textLength="42" x="504" y="351.4051">id : int</text><line style="stroke:#181818;stroke-width:1.0;" x1="485" x2="648" y1="358.7069" y2="358.7069"/><ellipse cx="495" cy="372.3553" fill="#000000" rx="3" ry="3" style="stroke:#000000;stroke-width:1.0;"/><text fill="#000000" font-family="sans-serif" font-size="14" lengthAdjust="spacing" textLength="139" x="504" y="375.702">name : varchar(255)</text></g><!--class forward_source--><g id="elem_forward_source"><rect codeLine="59" fill="#F1F1F1" height="194.6719" id="forward_source" rx="2.5" ry="2.5" style="stroke:#181818;stroke-width:0.5;" width="191" x="245" y="7"/><ellipse cx="283.85" cy="23" fill="#ADD1B2" rx="11" ry="11" style="stroke:#181818;stroke-width:1.0;"/><path d="M287.9594,29 L280.2406,29 L280.2406,16.6094 L287.9594,16.6094 L287.9594,18.7656 L282.6938,18.7656 L282.6938,21.4375 L287.4594,21.4375 L287.4594,23.5938 L282.6938,23.5938 L282.6938,26.8438 L287.9594,26.8438 L287.9594,29 Z " fill="#000000"/><text fill="#000000" font-family="sans-serif" font-size="14" lengthAdjust="spacing" textLength="106" x="303.15" y="27.8467">forward_source</text><line style="stroke:#181818;stroke-width:0.5;" x1="246" x2="435" y1="39" y2="39"/><ellipse cx="256" cy="52.6484" fill="#000000" rx="3" ry="3" style="stroke:#000000;stroke-width:1.0;"/><text fill="#000000" font-family="sans-serif" font-size="14" lengthAdjust="spacing" textLength="63" x="265" y="55.9951">id : bigint</text><line style="stroke:#181818;stroke-width:1.0;" x1="246" x2="435" y1="63.2969" y2="63.2969"/><ellipse cx="256" cy="76.9453" fill="#000000" rx="3" ry="3" style="stroke:#000000;stroke-width:1.0;"/><text fill="#000000" font-family="sans-serif" font-size="14" lengthAdjust="spacing" textLength="165" x="265" y="80.292">update_time_ms : bigint</text><ellipse cx="256" cy="93.2422" fill="#000000" rx="3" ry="3" style="stroke:#000000;stroke-width:1.0;"/><text fill="#000000" font-family="sans-serif" font-size="14" lengthAdjust="spacing" textLength="157" x="265" y="96.5889">fk_forward_dest_id : int</text><ellipse cx="256" cy="109.5391" fill="#000000" rx="3" ry="3" style="stroke:#000000;stroke-width:1.0;"/><text fill="#000000" font-family="sans-serif" font-size="14" lengthAdjust="spacing" textLength="137" x="265" y="112.8857">fk_source_id : bigint</text><ellipse cx="256" cy="125.8359" fill="#000000" rx="3" ry="3" style="stroke:#000000;stroke-width:1.0;"/><text fill="#000000" font-family="sans-serif" font-size="14" lengthAdjust="spacing" textLength="127" x="265" y="129.1826">success : boolean</text><ellipse cx="256" cy="142.1328" fill="#000000" rx="3" ry="3" style="stroke:#000000;stroke-width:1.0;"/><text fill="#000000" font-family="sans-serif" font-size="14" lengthAdjust="spacing" textLength="133" x="265" y="145.4795">error : varchar(255)</text><ellipse cx="256" cy="158.4297" fill="#000000" rx="3" ry="3" style="stroke:#000000;stroke-width:1.0;"/><text fill="#000000" font-family="sans-serif" font-size="14" lengthAdjust="spacing" textLength="81" x="265" y="161.7764">tries : bigint</text><ellipse cx="256" cy="174.7266" fill="#000000" rx="3" ry="3" style="stroke:#000000;stroke-width:1.0;"/><text fill="#000000" font-family="sans-serif" font-size="14" lengthAdjust="spacing" textLength="142" x="265" y="178.0732">new_position : bigint</text><ellipse cx="256" cy="191.0234" fill="#000000" rx="3" ry="3" style="stroke:#000000;stroke-width:1.0;"/><text fill="#000000" font-family="sans-serif" font-size="14" lengthAdjust="spacing" textLength="144" x="265" y="194.3701">retry_position : bigint</text></g><!--class forward_aggregate--><g id="elem_forward_aggregate"><rect codeLine="72" fill="#F1F1F1" height="194.6719" id="forward_aggregate" rx="2.5" ry="2.5" style="stroke:#181818;stroke-width:0.5;" width="191" x="471" y="7"/><ellipse cx="499.5" cy="23" fill="#ADD1B2" rx="11" ry="11" style="stroke:#181818;stroke-width:1.0;"/><path d="M503.6094,29 L495.8906,29 L495.8906,16.6094 L503.6094,16.6094 L503.6094,18.7656 L498.3438,18.7656 L498.3438,21.4375 L503.1094,21.4375 L503.1094,23.5938 L498.3438,23.5938 L498.3438,26.8438 L503.6094,26.8438 L503.6094,29 Z " fill="#000000"/><text fill="#000000" font-family="sans-serif" font-size="14" lengthAdjust="spacing" textLength="129" x="516.5" y="27.8467">forward_aggregate</text><line style="stroke:#181818;stroke-width:0.5;" x1="472" x2="661" y1="39" y2="39"/><ellipse cx="482" cy="52.6484" fill="#000000" rx="3" ry="3" style="stroke:#000000;stroke-width:1.0;"/><text fill="#000000" font-family="sans-serif" font-size="14" lengthAdjust="spacing" textLength="63" x="491" y="55.9951">id : bigint</text><line style="stroke:#181818;stroke-width:1.0;" x1="472" x2="661" y1="63.2969" y2="63.2969"/><ellipse cx="482" cy="76.9453" fill="#000000" rx="3" ry="3" style="stroke:#000000;stroke-width:1.0;"/><text fill="#000000" font-family="sans-serif" font-size="14" lengthAdjust="spacing" textLength="165" x="491" y="80.292">update_time_ms : bigint</text><ellipse cx="482" cy="93.2422" fill="#000000" rx="3" ry="3" style="stroke:#000000;stroke-width:1.0;"/><text fill="#000000" font-family="sans-serif" font-size="14" lengthAdjust="spacing" textLength="157" x="491" y="96.5889">fk_forward_dest_id : int</text><ellipse cx="482" cy="109.5391" fill="#000000" rx="3" ry="3" style="stroke:#000000;stroke-width:1.0;"/><text fill="#000000" font-family="sans-serif" font-size="14" lengthAdjust="spacing" textLength="160" x="491" y="112.8857">fk_aggregate_id : bigint</text><ellipse cx="482" cy="125.8359" fill="#000000" rx="3" ry="3" style="stroke:#000000;stroke-width:1.0;"/><text fill="#000000" font-family="sans-serif" font-size="14" lengthAdjust="spacing" textLength="127" x="491" y="129.1826">success : boolean</text><ellipse cx="482" cy="142.1328" fill="#000000" rx="3" ry="3" style="stroke:#000000;stroke-width:1.0;"/><text fill="#000000" font-family="sans-serif" font-size="14" lengthAdjust="spacing" textLength="133" x="491" y="145.4795">error : varchar(255)</text><ellipse cx="482" cy="158.4297" fill="#000000" rx="3" ry="3" style="stroke:#000000;stroke-width:1.0;"/><text fill="#000000" font-family="sans-serif" font-size="14" lengthAdjust="spacing" textLength="81" x="491" y="161.7764">tries : bigint</text><ellipse cx="482" cy="174.7266" fill="#000000" rx="3" ry="3" style="stroke:#000000;stroke-width:1.0;"/><text fill="#000000" font-family="sans-serif" font-size="14" lengthAdjust="spacing" textLength="142" x="491" y="178.0732">new_position : bigint</text><ellipse cx="482" cy="191.0234" fill="#000000" rx="3" ry="3" style="stroke:#000000;stroke-width:1.0;"/><text fill="#000000" font-family="sans-serif" font-size="14" lengthAdjust="spacing" textLength="144" x="491" y="194.3701">retry_position : bigint</text></g><!--link feed to source--><g id="link_feed_source"><path codeLine="85" d="M76.33,162.66 C76.33,162.66 76.33,260 76.33,260 " fill="none" id="feed-source" style="stroke:#181818;stroke-width:1.0;"/><line style="stroke:#181818;stroke-width:1.0;" x1="72.33" x2="80.33" y1="158.66" y2="158.66"/><line style="stroke:#181818;stroke-width:1.0;" x1="72.33" x2="80.33" y1="161.66" y2="161.66"/><line style="stroke:#181818;stroke-width:1.0;" x1="76.33" x2="76.33" y1="162.66" y2="154.66"/><line style="stroke:#181818;stroke-width:1.0;" x1="76.33" x2="82.33" y1="260" y2="268"/><line style="stroke:#181818;stroke-width:1.0;" x1="76.33" x2="70.33" y1="260" y2="268"/><line style="stroke:#181818;stroke-width:1.0;" x1="76.33" x2="76.33" y1="260" y2="268"/><line style="stroke:#181818;stroke-width:1.0;" x1="80.33" x2="72.33" y1="258" y2="258"/></g><!--link feed to source_item--><g id="link_feed_source_item"><path codeLine="86" d="M219.91,105.31 C219.91,105.31 236.25,105.31 236.25,105.31 C236.25,105.31 236.25,565.31 236.25,565.31 C236.25,565.31 221.37,565.31 221.37,565.31 " fill="none" id="feed-source_item" style="stroke:#181818;stroke-width:1.0;"/><line style="stroke:#181818;stroke-width:1.0;" x1="215.91" x2="215.91" y1="109.31" y2="101.31"/><line style="stroke:#181818;stroke-width:1.0;" x1="218.91" x2="218.91" y1="109.31" y2="101.31"/><line style="stroke:#181818;stroke-width:1.0;" x1="219.91" x2="211.91" y1="105.31" y2="105.31"/><line style="stroke:#181818;stroke-width:1.0;" x1="221.37" x2="213.37" y1="565.31" y2="571.31"/><line style="stroke:#181818;stroke-width:1.0;" x1="221.37" x2="213.37" y1="565.31" y2="559.31"/><line style="stroke:#181818;stroke-width:1.0;" x1="221.37" x2="213.37" y1="565.31" y2="565.31"/><line style="stroke:#181818;stroke-width:1.0;" x1="223.37" x2="223.37" y1="569.31" y2="561.31"/></g><!--link feed to aggregate--><g id="link_feed_aggregate"><path codeLine="87" d="M143.17,162.45 C143.17,162.45 143.17,266.31 143.17,266.31 C143.17,266.31 252.54,266.31 252.54,266.31 " fill="none" id="feed-aggregate" style="stroke:#181818;stroke-width:1.0;"/><line style="stroke:#181818;stroke-width:1.0;" x1="139.17" x2="147.17" y1="158.45" y2="158.45"/><line style="stroke:#181818;stroke-width:1.0;" x1="139.17" x2="147.17" y1="161.45" y2="161.45"/><line style="stroke:#181818;stroke-width:1.0;" x1="143.17" x2="143.17" y1="162.45" y2="154.45"/><line style="stroke:#181818;stroke-width:1.0;" x1="252.54" x2="260.54" y1="266.31" y2="260.31"/><line style="stroke:#181818;stroke-width:1.0;" x1="252.54" x2="260.54" y1="266.31" y2="272.31"/><line style="stroke:#181818;stroke-width:1.0;" x1="252.54" x2="260.54" y1="266.31" y2="266.31"/><line style="stroke:#181818;stroke-width:1.0;" x1="250.54" x2="250.54" y1="262.31" y2="270.31"/></g><!--link source to source_item--><g id="link_source_source_item"><path codeLine="89" d="M87.5,425.55 C87.5,425.55 87.5,473.97 87.5,473.97 " fill="none" id="source-source_item" style="stroke:#181818;stroke-width:1.0;stroke-dasharray:7.0,7.0;"/><line style="stroke:#181818;stroke-width:1.0;" x1="83.5" x2="91.5" y1="421.55" y2="421.55"/><line style="stroke:#181818;stroke-width:1.0;" x1="83.5" x2="91.5" y1="424.55" y2="424.55"/><line style="stroke:#181818;stroke-width:1.0;" x1="87.5" x2="87.5" y1="425.55" y2="417.55"/><line style="stroke:#181818;stroke-width:1.0;" x1="87.5" x2="93.5" y1="473.97" y2="481.97"/><line style="stroke:#181818;stroke-width:1.0;" x1="87.5" x2="81.5" y1="473.97" y2="481.97"/><line style="stroke:#181818;stroke-width:1.0;" x1="87.5" x2="87.5" y1="473.97" y2="481.97"/><ellipse cx="87.5" cy="467.97" fill="none" rx="4" ry="4" style="stroke:#181818;stroke-width:1.0;"/></g><!--link source_item to source_entry--><g id="link_source_item_source_entry"><path codeLine="90" d="M118.5,655.63 C118.5,655.63 118.5,695.83 118.5,695.83 " fill="none" id="source_item-source_entry" style="stroke:#181818;stroke-width:1.0;"/><line style="stroke:#181818;stroke-width:1.0;" x1="114.5" x2="122.5" y1="651.63" y2="651.63"/><line style="stroke:#181818;stroke-width:1.0;" x1="114.5" x2="122.5" y1="654.63" y2="654.63"/><line style="stroke:#181818;stroke-width:1.0;" x1="118.5" x2="118.5" y1="655.63" y2="647.63"/><line style="stroke:#181818;stroke-width:1.0;" x1="118.5" x2="124.5" y1="695.83" y2="703.83"/><line style="stroke:#181818;stroke-width:1.0;" x1="118.5" x2="112.5" y1="695.83" y2="703.83"/><line style="stroke:#181818;stroke-width:1.0;" x1="118.5" x2="118.5" y1="695.83" y2="703.83"/><line style="stroke:#181818;stroke-width:1.0;" x1="122.5" x2="114.5" y1="693.83" y2="693.83"/></g><!--link aggregate to source_item--><g id="link_aggregate_source_item"><path codeLine="91" d="M252.63,420.31 C252.63,420.31 149.5,420.31 149.5,420.31 C149.5,420.31 149.5,473.75 149.5,473.75 " fill="none" id="aggregate-source_item" style="stroke:#181818;stroke-width:1.0;"/><line style="stroke:#181818;stroke-width:1.0;" x1="256.63" x2="256.63" y1="416.31" y2="424.31"/><line style="stroke:#181818;stroke-width:1.0;" x1="253.63" x2="253.63" y1="416.31" y2="424.31"/><line style="stroke:#181818;stroke-width:1.0;" x1="252.63" x2="260.63" y1="420.31" y2="420.31"/><line style="stroke:#181818;stroke-width:1.0;" x1="149.5" x2="155.5" y1="473.75" y2="481.75"/><line style="stroke:#181818;stroke-width:1.0;" x1="149.5" x2="143.5" y1="473.75" y2="481.75"/><line style="stroke:#181818;stroke-width:1.0;" x1="149.5" x2="149.5" y1="473.75" y2="481.75"/><line style="stroke:#181818;stroke-width:1.0;" x1="153.5" x2="145.5" y1="471.75" y2="471.75"/></g><!--link forward_source to forward_dest--><g id="link_forward_source_forward_dest"><path codeLine="92" d="M445.99,105.31 C445.99,105.31 459.75,105.31 459.75,105.31 C459.75,105.31 459.75,343.31 459.75,343.31 C459.75,343.31 474.19,343.31 474.19,343.31 " fill="none" id="forward_source-forward_dest" style="stroke:#181818;stroke-width:1.0;"/><line style="stroke:#181818;stroke-width:1.0;" x1="445.99" x2="437.99" y1="105.31" y2="111.31"/><line style="stroke:#181818;stroke-width:1.0;" x1="445.99" x2="437.99" y1="105.31" y2="99.31"/><line style="stroke:#181818;stroke-width:1.0;" x1="445.99" x2="437.99" y1="105.31" y2="105.31"/><ellipse cx="451.99" cy="105.31" fill="none" rx="4" ry="4" style="stroke:#181818;stroke-width:1.0;"/><line style="stroke:#181818;stroke-width:1.0;" x1="478.19" x2="478.19" y1="339.31" y2="347.31"/><line style="stroke:#181818;stroke-width:1.0;" x1="475.19" x2="475.19" y1="339.31" y2="347.31"/><line style="stroke:#181818;stroke-width:1.0;" x1="474.19" x2="482.19" y1="343.31" y2="343.31"/></g><!--link forward_source to source--><g id="link_forward_source_source"><path codeLine="93" d="M235.06,177.31 C235.06,177.31 218.75,177.31 218.75,177.31 C218.75,177.31 218.75,260.17 218.75,260.17 " fill="none" id="forward_source-source" style="stroke:#181818;stroke-width:1.0;stroke-dasharray:7.0,7.0;"/><line style="stroke:#181818;stroke-width:1.0;" x1="235.06" x2="243.06" y1="177.31" y2="171.31"/><line style="stroke:#181818;stroke-width:1.0;" x1="235.06" x2="243.06" y1="177.31" y2="183.31"/><line style="stroke:#181818;stroke-width:1.0;" x1="235.06" x2="243.06" y1="177.31" y2="177.31"/><ellipse cx="229.06" cy="177.31" fill="none" rx="4" ry="4" style="stroke:#181818;stroke-width:1.0;"/><line style="stroke:#181818;stroke-width:1.0;" x1="222.75" x2="214.75" y1="264.17" y2="264.17"/><line style="stroke:#181818;stroke-width:1.0;" x1="222.75" x2="214.75" y1="261.17" y2="261.17"/><line style="stroke:#181818;stroke-width:1.0;" x1="218.75" x2="218.75" y1="260.17" y2="268.17"/></g><!--link forward_aggregate to forward_dest--><g id="link_forward_aggregate_forward_dest"><path codeLine="94" d="M566.5,211.49 C566.5,211.49 566.5,292.47 566.5,292.47 " fill="none" id="forward_aggregate-forward_dest" style="stroke:#181818;stroke-width:1.0;"/><line style="stroke:#181818;stroke-width:1.0;" x1="566.5" x2="560.5" y1="211.49" y2="203.49"/><line style="stroke:#181818;stroke-width:1.0;" x1="566.5" x2="572.5" y1="211.49" y2="203.49"/><line style="stroke:#181818;stroke-width:1.0;" x1="566.5" x2="566.5" y1="211.49" y2="203.49"/><ellipse cx="566.5" cy="217.49" fill="none" rx="4" ry="4" style="stroke:#181818;stroke-width:1.0;"/><line style="stroke:#181818;stroke-width:1.0;" x1="570.5" x2="562.5" y1="296.47" y2="296.47"/><line style="stroke:#181818;stroke-width:1.0;" x1="570.5" x2="562.5" y1="293.47" y2="293.47"/><line style="stroke:#181818;stroke-width:1.0;" x1="566.5" x2="566.5" y1="292.47" y2="300.47"/></g><!--link forward_aggregate to aggregate--><g id="link_forward_aggregate_aggregate"><path codeLine="95" d="M477.5,211.43 C477.5,211.43 477.5,282.31 477.5,282.31 C477.5,282.31 458.41,282.31 458.41,282.31 " fill="none" id="forward_aggregate-aggregate" style="stroke:#181818;stroke-width:1.0;"/><line style="stroke:#181818;stroke-width:1.0;" x1="477.5" x2="471.5" y1="211.43" y2="203.43"/><line style="stroke:#181818;stroke-width:1.0;" x1="477.5" x2="483.5" y1="211.43" y2="203.43"/><line style="stroke:#181818;stroke-width:1.0;" x1="477.5" x2="477.5" y1="211.43" y2="203.43"/><ellipse cx="477.5" cy="217.43" fill="none" rx="4" ry="4" style="stroke:#181818;stroke-width:1.0;"/><line style="stroke:#181818;stroke-width:1.0;" x1="454.41" x2="454.41" y1="286.31" y2="278.31"/><line style="stroke:#181818;stroke-width:1.0;" x1="457.41" x2="457.41" y1="286.31" y2="278.31"/><line style="stroke:#181818;stroke-width:1.0;" x1="458.41" x2="450.41" y1="282.31" y2="282.31"/></g><!--SRC=[nLJ1SeCW4Btx5TpQPaOFdScbFyCGt1Wc2dR161lpxmMQg6Xed5vwP7Tv-zxobXV2Jahaf4QrAw7If1NcG9WiIiW9HzLgiWSmYJuAMJDa5Ic51DFLG1IQWqeIa4QOpbNbv98Gih5e7sGd2Y6DFQQfYxaibQm2cpenv0U6h-_RxPlBER27kUi0hbM37EBmDREamzia9OqKdmtuzaVg6OHtDt1cbLNZWqgLmAHlOA2YN3NIsBYjX0BGnIMqj5PQ6A7a23CdITtrEDF83284Tvq1giKN155RVE-LpnEiA10APXQvbUpj2RiuVJWRaFe7OgvXo55l3p-xLIBSlAVDHbA3cZWZZk3K6b41jVQTjLW_LCT2ZwIvgkeI38JMU3R4lSAMOKvpq6P2-Pa1bW3F3D_K-M-g9pJeX47SERhX7BGErGAYmaSBYmBq2dFP18ArqwgHhNZglukERiK_wFOVPT-dQN-vBTs3a5-A83v8I9AREVe-orHuOVe5XNX-hvDno8-wXTwxAblH1vPUbcIPBRchMBpaRn2Bgb7WDm00]--></g></svg>