<?xml version="1.0" encoding="UTF-8" standalone="no"?><svg xmlns="http://www.w3.org/2000/svg" xmlns:xlink="http://www.w3.org/1999/xlink" contentScriptType="application/ecmascript" contentStyleType="text/css" height="368px" preserveAspectRatio="none" style="width:351px;height:368px;" version="1.1" viewBox="0 0 351 368" width="351px" zoomAndPan="magnify"><defs><filter height="300%" id="f1rcx7ir4g94ow" width="300%" x="-1" y="-1"><feGaussianBlur result="blurOut" stdDeviation="2.0"/><feColorMatrix in="blurOut" result="blurOut2" type="matrix" values="0 0 0 0 0 0 0 0 0 0 0 0 0 0 0 0 0 0 .4 0"/><feOffset dx="4.0" dy="4.0" in="blurOut2" result="blurOut3"/><feBlend in="SourceGraphic" in2="blurOut3" mode="normal"/></filter></defs><g><!--MD5=[a89e013394a4179b87aacb584f03bea5]
class feed--><rect codeLine="5" fill="#FEFECE" filter="url(#f1rcx7ir4g94ow)" height="86.4141" id="feed" style="stroke:#A80036;stroke-width:1.5;" width="151" x="8.5" y="45.5"/><ellipse cx="67.75" cy="61.5" fill="#ADD1B2" rx="11" ry="11" style="stroke:#A80036;stroke-width:1.0;"/><path d="M70.7656,67.5 L63.7813,67.5 L63.7813,55.3594 L70.7656,55.3594 L70.7656,57.4688 L66.3438,57.4688 L66.3438,60.1406 L70.4531,60.1406 L70.4531,62.25 L66.3438,62.25 L66.3438,65.375 L70.7656,65.375 L70.7656,67.5 Z " fill="#000000"/><text fill="#000000" font-family="sans-serif" font-size="12" lengthAdjust="spacing" textLength="24" x="88.25" y="65.6543">feed</text><line style="stroke:#A80036;stroke-width:1.5;" x1="9.5" x2="158.5" y1="77.5" y2="77.5"/><ellipse cx="19.5" cy="88.5" fill="#000000" rx="3" ry="3" style="stroke:#000000;stroke-width:1.0;"/><text fill="#000000" font-family="sans-serif" font-size="11" lengthAdjust="spacing" textLength="43" x="28.5" y="91.7104">id : bigint</text><line style="stroke:#A80036;stroke-width:1.0;" x1="9.5" x2="158.5" y1="98.3047" y2="98.3047"/><ellipse cx="19.5" cy="109.3047" fill="#000000" rx="3" ry="3" style="stroke:#000000;stroke-width:1.0;"/><text fill="#000000" font-family="sans-serif" font-size="11" lengthAdjust="spacing" textLength="125" x="28.5" y="112.5151">feed_name : varchar(255)</text><ellipse cx="19.5" cy="122.1094" fill="#000000" rx="3" ry="3" style="stroke:#000000;stroke-width:1.0;"/><text fill="#000000" font-family="sans-serif" font-size="11" lengthAdjust="spacing" textLength="125" x="28.5" y="125.3198">type_name : varchar(255)</text><!--MD5=[fb94403e3d3521d383fd6507b67b3642]
class source--><rect codeLine="12" fill="#FEFECE" filter="url(#f1rcx7ir4g94ow)" height="124.8281" id="source" style="stroke:#A80036;stroke-width:1.5;" width="160" x="7" y="230"/><ellipse cx="64.25" cy="246" fill="#ADD1B2" rx="11" ry="11" style="stroke:#A80036;stroke-width:1.0;"/><path d="M67.2656,252 L60.2813,252 L60.2813,239.8594 L67.2656,239.8594 L67.2656,241.9688 L62.8438,241.9688 L62.8438,244.6406 L66.9531,244.6406 L66.9531,246.75 L62.8438,246.75 L62.8438,249.875 L67.2656,249.875 L67.2656,252 Z " fill="#000000"/><text fill="#000000" font-family="sans-serif" font-size="12" lengthAdjust="spacing" textLength="37" x="84.75" y="250.1543">source</text><line style="stroke:#A80036;stroke-width:1.5;" x1="8" x2="166" y1="262" y2="262"/><ellipse cx="18" cy="273" fill="#000000" rx="3" ry="3" style="stroke:#000000;stroke-width:1.0;"/><text fill="#000000" font-family="sans-serif" font-size="11" lengthAdjust="spacing" textLength="43" x="27" y="276.2104">id : bigint</text><line style="stroke:#A80036;stroke-width:1.0;" x1="8" x2="166" y1="282.8047" y2="282.8047"/><ellipse cx="18" cy="293.8047" fill="#000000" rx="3" ry="3" style="stroke:#000000;stroke-width:1.0;"/><text fill="#000000" font-family="sans-serif" font-size="11" lengthAdjust="spacing" textLength="134" x="27" y="297.0151">path : varchar(255) - unique</text><ellipse cx="18" cy="306.6094" fill="#000000" rx="3" ry="3" style="stroke:#000000;stroke-width:1.0;"/><text fill="#000000" font-family="sans-serif" font-size="11" lengthAdjust="spacing" textLength="84" x="27" y="309.8198">fk_feed_id : bigint</text><text fill="#000000" font-family="sans-serif" font-size="11" lengthAdjust="spacing" textLength="95" x="27" y="322.6245">examined : boolean</text><ellipse cx="18" cy="332.2188" fill="#000000" rx="3" ry="3" style="stroke:#000000;stroke-width:1.0;"/><text fill="#000000" font-family="sans-serif" font-size="11" lengthAdjust="spacing" textLength="97" x="27" y="335.4292">item_count : integer</text><ellipse cx="18" cy="345.0234" fill="#000000" rx="3" ry="3" style="stroke:#000000;stroke-width:1.0;"/><text fill="#000000" font-family="sans-serif" font-size="11" lengthAdjust="spacing" textLength="97" x="27" y="348.2339">new_position : bigint</text><!--MD5=[9ec5b5fc933be4ccfb94bd357655b06c]
class forward_dest--><rect codeLine="22" fill="#FEFECE" filter="url(#f1rcx7ir4g94ow)" height="73.6094" id="forward_dest" style="stroke:#A80036;stroke-width:1.5;" width="124" x="204" y="255.5"/><ellipse cx="228.9" cy="271.5" fill="#ADD1B2" rx="11" ry="11" style="stroke:#A80036;stroke-width:1.0;"/><path d="M231.9156,277.5 L224.9313,277.5 L224.9313,265.3594 L231.9156,265.3594 L231.9156,267.4688 L227.4938,267.4688 L227.4938,270.1406 L231.6031,270.1406 L231.6031,272.25 L227.4938,272.25 L227.4938,275.375 L231.9156,275.375 L231.9156,277.5 Z " fill="#000000"/><text fill="#000000" font-family="sans-serif" font-size="12" lengthAdjust="spacing" textLength="70" x="245.1" y="275.6543">forward_dest</text><line style="stroke:#A80036;stroke-width:1.5;" x1="205" x2="327" y1="287.5" y2="287.5"/><ellipse cx="215" cy="298.5" fill="#000000" rx="3" ry="3" style="stroke:#000000;stroke-width:1.0;"/><text fill="#000000" font-family="sans-serif" font-size="11" lengthAdjust="spacing" textLength="29" x="224" y="301.7104">id : int</text><line style="stroke:#A80036;stroke-width:1.0;" x1="205" x2="327" y1="308.3047" y2="308.3047"/><ellipse cx="215" cy="319.3047" fill="#000000" rx="3" ry="3" style="stroke:#000000;stroke-width:1.0;"/><text fill="#000000" font-family="sans-serif" font-size="11" lengthAdjust="spacing" textLength="98" x="224" y="322.5151">name : varchar(255)</text><!--MD5=[cbb12bc3eee1de79b3f2e300a168c511]
class forward_source--><rect codeLine="28" fill="#FEFECE" filter="url(#f1rcx7ir4g94ow)" height="163.2422" id="forward_source" style="stroke:#A80036;stroke-width:1.5;" width="142" x="195" y="7"/><ellipse cx="222.15" cy="23" fill="#ADD1B2" rx="11" ry="11" style="stroke:#A80036;stroke-width:1.0;"/><path d="M225.1656,29 L218.1813,29 L218.1813,16.8594 L225.1656,16.8594 L225.1656,18.9688 L220.7438,18.9688 L220.7438,21.6406 L224.8531,21.6406 L224.8531,23.75 L220.7438,23.75 L220.7438,26.875 L225.1656,26.875 L225.1656,29 Z " fill="#000000"/><text fill="#000000" font-family="sans-serif" font-size="12" lengthAdjust="spacing" textLength="83" x="238.85" y="27.1543">forward_source</text><line style="stroke:#A80036;stroke-width:1.5;" x1="196" x2="336" y1="39" y2="39"/><ellipse cx="206" cy="50" fill="#000000" rx="3" ry="3" style="stroke:#000000;stroke-width:1.0;"/><text fill="#000000" font-family="sans-serif" font-size="11" lengthAdjust="spacing" textLength="43" x="215" y="53.2104">id : bigint</text><line style="stroke:#A80036;stroke-width:1.0;" x1="196" x2="336" y1="59.8047" y2="59.8047"/><ellipse cx="206" cy="70.8047" fill="#000000" rx="3" ry="3" style="stroke:#000000;stroke-width:1.0;"/><text fill="#000000" font-family="sans-serif" font-size="11" lengthAdjust="spacing" textLength="116" x="215" y="74.0151">update_time_ms : bigint</text><ellipse cx="206" cy="83.6094" fill="#000000" rx="3" ry="3" style="stroke:#000000;stroke-width:1.0;"/><text fill="#000000" font-family="sans-serif" font-size="11" lengthAdjust="spacing" textLength="112" x="215" y="86.8198">fk_forward_dest_id : int</text><ellipse cx="206" cy="96.4141" fill="#000000" rx="3" ry="3" style="stroke:#000000;stroke-width:1.0;"/><text fill="#000000" font-family="sans-serif" font-size="11" lengthAdjust="spacing" textLength="94" x="215" y="99.6245">fk_source_id : bigint</text><ellipse cx="206" cy="109.2188" fill="#000000" rx="3" ry="3" style="stroke:#000000;stroke-width:1.0;"/><text fill="#000000" font-family="sans-serif" font-size="11" lengthAdjust="spacing" textLength="84" x="215" y="112.4292">success : boolean</text><ellipse cx="206" cy="122.0234" fill="#000000" rx="3" ry="3" style="stroke:#000000;stroke-width:1.0;"/><text fill="#000000" font-family="sans-serif" font-size="11" lengthAdjust="spacing" textLength="94" x="215" y="125.2339">error : varchar(255)</text><ellipse cx="206" cy="134.8281" fill="#000000" rx="3" ry="3" style="stroke:#000000;stroke-width:1.0;"/><text fill="#000000" font-family="sans-serif" font-size="11" lengthAdjust="spacing" textLength="56" x="215" y="138.0386">tries : bigint</text><ellipse cx="206" cy="147.6328" fill="#000000" rx="3" ry="3" style="stroke:#000000;stroke-width:1.0;"/><text fill="#000000" font-family="sans-serif" font-size="11" lengthAdjust="spacing" textLength="97" x="215" y="150.8433">new_position : bigint</text><ellipse cx="206" cy="160.4375" fill="#000000" rx="3" ry="3" style="stroke:#000000;stroke-width:1.0;"/><text fill="#000000" font-family="sans-serif" font-size="11" lengthAdjust="spacing" textLength="101" x="215" y="163.6479">retry_position : bigint</text><!--MD5=[8fc0b909dc2d6f9332fdd45de385bd9e]
link feed to source--><path codeLine="41" d="M84,139.76 C84,139.76 84,221.94 84,221.94 " fill="none" id="feed-source" style="stroke:#A80036;stroke-width:1.0;"/><line style="stroke:#A80036;stroke-width:1.0;" x1="84" x2="90" y1="221.94" y2="229.94"/><line style="stroke:#A80036;stroke-width:1.0;" x1="84" x2="78" y1="221.94" y2="229.94"/><line style="stroke:#A80036;stroke-width:1.0;" x1="84" x2="84" y1="221.94" y2="229.94"/><line style="stroke:#A80036;stroke-width:1.0;" x1="88" x2="80" y1="219.94" y2="219.94"/><line style="stroke:#A80036;stroke-width:1.0;" x1="80" x2="88" y1="135.76" y2="135.76"/><line style="stroke:#A80036;stroke-width:1.0;" x1="80" x2="88" y1="138.76" y2="138.76"/><line style="stroke:#A80036;stroke-width:1.0;" x1="84" x2="84" y1="139.76" y2="131.76"/><!--MD5=[54c1b24e6057a99c9e198a549ce0fbbe]
link forward_source to forward_dest--><path codeLine="43" d="M266,178.01 C266,178.01 266,247.28 266,247.28 " fill="none" id="forward_source-forward_dest" style="stroke:#A80036;stroke-width:1.0;"/><line style="stroke:#A80036;stroke-width:1.0;" x1="270" x2="262" y1="251.28" y2="251.28"/><line style="stroke:#A80036;stroke-width:1.0;" x1="270" x2="262" y1="248.28" y2="248.28"/><line style="stroke:#A80036;stroke-width:1.0;" x1="266" x2="266" y1="247.28" y2="255.28"/><line style="stroke:#A80036;stroke-width:1.0;" x1="266" x2="260" y1="178.01" y2="170.01"/><line style="stroke:#A80036;stroke-width:1.0;" x1="266" x2="272" y1="178.01" y2="170.01"/><line style="stroke:#A80036;stroke-width:1.0;" x1="266" x2="266" y1="178.01" y2="170.01"/><ellipse cx="266" cy="184.01" rx="4" ry="4" style="stroke:#A80036;stroke-width:1.0;fill:none;"/><!--MD5=[d49f4a8229bc31f1f5d61244df6e6e3c]
link forward_source to source--><path codeLine="44" d="M199.5,178.27 C199.5,178.27 199.5,243 199.5,243 C199.5,243 175.26,243 175.26,243 " fill="none" id="forward_source-source" style="stroke:#A80036;stroke-width:1.0;stroke-dasharray:7.0,7.0;"/><line style="stroke:#A80036;stroke-width:1.0;" x1="171.26" x2="171.26" y1="247" y2="239"/><line style="stroke:#A80036;stroke-width:1.0;" x1="174.26" x2="174.26" y1="247" y2="239"/><line style="stroke:#A80036;stroke-width:1.0;" x1="175.26" x2="167.26" y1="243" y2="243"/><line style="stroke:#A80036;stroke-width:1.0;" x1="199.5" x2="193.5" y1="178.27" y2="170.27"/><line style="stroke:#A80036;stroke-width:1.0;" x1="199.5" x2="205.5" y1="178.27" y2="170.27"/><line style="stroke:#A80036;stroke-width:1.0;" x1="199.5" x2="199.5" y1="178.27" y2="170.27"/><ellipse cx="199.5" cy="184.27" rx="4" ry="4" style="stroke:#A80036;stroke-width:1.0;fill:none;"/><!--MD5=[29b8a956be7e9de8ae08e739c1ad0084]
@startuml

' avoid problems with angled crows feet
skinparam linetype ortho

entity feed {
  *id : bigint
  - -
  *feed_name : varchar(255)
  *type_name : varchar(255)
}

entity source {
  *id : bigint
  - -
  *path : varchar(255) - unique
  *fk_feed_id : bigint
  examined : boolean
  *item_count : integer
  *new_position : bigint
}

entity forward_dest {
  *id : int
  - -
  *name : varchar(255)
}

entity forward_source {
  *id : bigint
  - -
  *update_time_ms : bigint
  *fk_forward_dest_id : int
  *fk_source_id : bigint
  *success : boolean
  *error : varchar(255)
  *tries : bigint
  *new_position : bigint
  *retry_position : bigint
}

feed ||- -|{ source

forward_source }o- -|| forward_dest
forward_source }o..|| source

@enduml

@startuml

skinparam linetype ortho

entity feed {
  *id : bigint
  - -
  *feed_name : varchar(255)
  *type_name : varchar(255)
}

entity source {
  *id : bigint
  - -
  *path : varchar(255) - unique
  *fk_feed_id : bigint
  examined : boolean
  *item_count : integer
  *new_position : bigint
}

entity forward_dest {
  *id : int
  - -
  *name : varchar(255)
}

entity forward_source {
  *id : bigint
  - -
  *update_time_ms : bigint
  *fk_forward_dest_id : int
  *fk_source_id : bigint
  *success : boolean
  *error : varchar(255)
  *tries : bigint
  *new_position : bigint
  *retry_position : bigint
}

feed ||- -|{ source

forward_source }o- -|| forward_dest
forward_source }o..|| source

@enduml

PlantUML version 1.2021.5(Sun Apr 25 11:20:28 GMT 2021)
(GPL source distribution)
Java Runtime: OpenJDK Runtime Environment
JVM: OpenJDK 64-Bit Server VM
Default Encoding: UTF-8
Language: en
Country: US
--></g></svg>