<?xml version="1.0" encoding="us-ascii" standalone="no"?><svg xmlns="http://www.w3.org/2000/svg" xmlns:xlink="http://www.w3.org/1999/xlink" contentStyleType="text/css" height="335px" preserveAspectRatio="none" style="width:491px;height:335px;background:#FFFFFF;" version="1.1" viewBox="0 0 491 335" width="491px" zoomAndPan="magnify"><defs/><g><text fill="#000000" font-family="sans-serif" font-size="14" font-weight="bold" lengthAdjust="spacing" textLength="93" x="200.5" y="27.9951">Forward Only</text><line style="stroke:#181818;stroke-width:0.5;stroke-dasharray:5.0,5.0;" x1="34" x2="34" y1="118.5938" y2="255.125"/><line style="stroke:#181818;stroke-width:0.5;stroke-dasharray:5.0,5.0;" x1="148" x2="148" y1="118.5938" y2="255.125"/><line style="stroke:#181818;stroke-width:0.5;stroke-dasharray:5.0,5.0;" x1="317" x2="317" y1="118.5938" y2="255.125"/><line style="stroke:#181818;stroke-width:0.5;stroke-dasharray:5.0,5.0;" x1="450" x2="450" y1="118.5938" y2="255.125"/><text fill="#000000" font-family="sans-serif" font-size="14" lengthAdjust="spacing" textLength="52" x="5" y="115.292">Supplier</text><ellipse cx="34" cy="50.7969" fill="#E2E2F0" rx="8" ry="8" style="stroke:#181818;stroke-width:0.5;"/><path d="M34,58.7969 L34,85.7969 M21,66.7969 L47,66.7969 M34,85.7969 L21,100.7969 M34,85.7969 L47,100.7969 " fill="none" style="stroke:#181818;stroke-width:0.5;"/><text fill="#000000" font-family="sans-serif" font-size="14" lengthAdjust="spacing" textLength="52" x="5" y="267.1201">Supplier</text><ellipse cx="34" cy="278.9219" fill="#E2E2F0" rx="8" ry="8" style="stroke:#181818;stroke-width:0.5;"/><path d="M34,286.9219 L34,313.9219 M21,294.9219 L47,294.9219 M34,313.9219 L21,328.9219 M34,313.9219 L47,328.9219 " fill="none" style="stroke:#181818;stroke-width:0.5;"/><rect fill="#E2E2F0" height="30.2969" rx="2.5" ry="2.5" style="stroke:#181818;stroke-width:0.5;" width="151" x="73" y="87.2969"/><text fill="#000000" font-family="sans-serif" font-size="14" lengthAdjust="spacing" textLength="137" x="80" y="107.292">ProxyRequestHandler</text><rect fill="#E2E2F0" height="30.2969" rx="2.5" ry="2.5" style="stroke:#181818;stroke-width:0.5;" width="151" x="73" y="254.125"/><text fill="#000000" font-family="sans-serif" font-size="14" lengthAdjust="spacing" textLength="137" x="80" y="274.1201">ProxyRequestHandler</text><rect fill="#E2E2F0" height="30.2969" rx="2.5" ry="2.5" style="stroke:#181818;stroke-width:0.5;" width="166" x="234" y="87.2969"/><text fill="#000000" font-family="sans-serif" font-size="14" lengthAdjust="spacing" textLength="152" x="241" y="107.292">ForwardStreamHandlers</text><rect fill="#E2E2F0" height="30.2969" rx="2.5" ry="2.5" style="stroke:#181818;stroke-width:0.5;" width="166" x="234" y="254.125"/><text fill="#000000" font-family="sans-serif" font-size="14" lengthAdjust="spacing" textLength="152" x="241" y="274.1201">ForwardStreamHandlers</text><text fill="#000000" font-family="sans-serif" font-size="14" lengthAdjust="spacing" textLength="74" x="410" y="115.292">Destination</text><ellipse cx="450" cy="50.7969" fill="#E2E2F0" rx="8" ry="8" style="stroke:#181818;stroke-width:0.5;"/><path d="M450,58.7969 L450,85.7969 M437,66.7969 L463,66.7969 M450,85.7969 L437,100.7969 M450,85.7969 L463,100.7969 " fill="none" style="stroke:#181818;stroke-width:0.5;"/><text fill="#000000" font-family="sans-serif" font-size="14" lengthAdjust="spacing" textLength="74" x="410" y="267.1201">Destination</text><ellipse cx="450" cy="278.9219" fill="#E2E2F0" rx="8" ry="8" style="stroke:#181818;stroke-width:0.5;"/><path d="M450,286.9219 L450,313.9219 M437,294.9219 L463,294.9219 M450,313.9219 L437,328.9219 M450,313.9219 L463,328.9219 " fill="none" style="stroke:#181818;stroke-width:0.5;"/><polygon fill="#181818" points="136.5,145.7266,146.5,149.7266,136.5,153.7266,140.5,149.7266" style="stroke:#181818;stroke-width:1.0;"/><line style="stroke:#181818;stroke-width:1.0;stroke-dasharray:2.0,2.0;" x1="34" x2="142.5" y1="149.7266" y2="149.7266"/><text fill="#000000" font-family="sans-serif" font-size="13" lengthAdjust="spacing" textLength="64" x="41" y="144.6606">HTTP POST</text><polygon fill="#181818" points="305,174.8594,315,178.8594,305,182.8594,309,178.8594" style="stroke:#181818;stroke-width:1.0;"/><line style="stroke:#181818;stroke-width:1.0;" x1="148.5" x2="311" y1="178.8594" y2="178.8594"/><text fill="#000000" font-family="sans-serif" font-size="13" lengthAdjust="spacing" textLength="41" x="155.5" y="173.7935">handle</text><polygon fill="#181818" points="438,203.9922,448,207.9922,438,211.9922,442,207.9922" style="stroke:#181818;stroke-width:1.0;"/><line style="stroke:#181818;stroke-width:1.0;stroke-dasharray:2.0,2.0;" x1="317" x2="444" y1="207.9922" y2="207.9922"/><text fill="#000000" font-family="sans-serif" font-size="13" lengthAdjust="spacing" textLength="41" x="324" y="202.9263">handle</text><polygon fill="#181818" points="45,233.125,35,237.125,45,241.125,41,237.125" style="stroke:#181818;stroke-width:1.0;"/><line style="stroke:#181818;stroke-width:1.0;stroke-dasharray:2.0,2.0;" x1="39" x2="147.5" y1="237.125" y2="237.125"/><text fill="#000000" font-family="sans-serif" font-size="13" lengthAdjust="spacing" textLength="82" x="51" y="232.0591">200 Response</text><!--SRC=[ROx12eCm44Jl-nNx0uBqc4DFfNXJr1zOTA61D4atAzQ_Rn0jfUGsC3DlHgqwndkGbMJ6rhiDW2ODWiCIexCi44dKJZQIL-malBUUNmidRSZFxiy_G8CAq_C8f0DuonthIMtm02STg-fQeXfinh73hXr6ADYOMyKjWuzTGT7Trtv-VDF5YPmzRngyr3Nsd6BmYG4-]--></g></svg>