<?xml version="1.0" encoding="UTF-8" standalone="no"?><svg xmlns="http://www.w3.org/2000/svg" xmlns:xlink="http://www.w3.org/1999/xlink" contentStyleType="text/css" height="456px" preserveAspectRatio="none" style="width:438px;height:456px;background:#FFFFFF;" version="1.1" viewBox="0 0 438 456" width="438px" zoomAndPan="magnify"><defs/><g><!--MD5=[a89e013394a4179b87aacb584f03bea5]
class feed--><g id="elem_feed"><rect codeLine="5" fill="#F1F1F1" height="105.2038" id="feed" rx="2.5" ry="2.5" style="stroke:#181818;stroke-width:0.5;" width="195" x="13" y="64.5"/><ellipse cx="91.25" cy="80.5" fill="#ADD1B2" rx="11" ry="11" style="stroke:#181818;stroke-width:1.0;"/><path d="M87.6094,87 L87.6094,74.8594 L95.2656,74.8594 L95.2656,76.9844 L89.9844,76.9844 L89.9844,79.6406 L95,79.6406 L95,81.7656 L89.9844,81.7656 L89.9844,84.875 L95.2656,84.875 L95.2656,87 L87.6094,87 Z " fill="#000000"/><text fill="#000000" font-family="sans-serif" font-size="14" lengthAdjust="spacing" textLength="30" x="111.75" y="85.932">feed</text><line style="stroke:#181818;stroke-width:0.5;" x1="14" x2="207" y1="96.5" y2="96.5"/><ellipse cx="24" cy="107.5" fill="#000000" rx="3" ry="3" style="stroke:#000000;stroke-width:1.0;"/><text fill="#000000" font-family="sans-serif" font-size="14" lengthAdjust="spacing" textLength="65" x="33" y="115.4659">id : bigint</text><line style="stroke:#181818;stroke-width:1.0;" x1="14" x2="207" y1="123.5679" y2="123.5679"/><ellipse cx="24" cy="134.5679" fill="#000000" rx="3" ry="3" style="stroke:#000000;stroke-width:1.0;"/><text fill="#000000" font-family="sans-serif" font-size="14" lengthAdjust="spacing" textLength="169" x="33" y="142.5339">feed_name : varchar(255)</text><ellipse cx="24" cy="153.6358" fill="#000000" rx="3" ry="3" style="stroke:#000000;stroke-width:1.0;"/><text fill="#000000" font-family="sans-serif" font-size="14" lengthAdjust="spacing" textLength="168" x="33" y="161.6018">type_name : varchar(255)</text></g><!--MD5=[fb94403e3d3521d383fd6507b67b3642]
class source--><g id="elem_source"><rect codeLine="12" fill="#F1F1F1" height="162.4075" id="source" rx="2.5" ry="2.5" style="stroke:#181818;stroke-width:0.5;" width="213" x="7" y="287"/><ellipse cx="86.75" cy="303" fill="#ADD1B2" rx="11" ry="11" style="stroke:#181818;stroke-width:1.0;"/><path d="M83.1094,309.5 L83.1094,297.3594 L90.7656,297.3594 L90.7656,299.4844 L85.4844,299.4844 L85.4844,302.1406 L90.5,302.1406 L90.5,304.2656 L85.4844,304.2656 L85.4844,307.375 L90.7656,307.375 L90.7656,309.5 L83.1094,309.5 Z " fill="#000000"/><text fill="#000000" font-family="sans-serif" font-size="14" lengthAdjust="spacing" textLength="45" x="107.25" y="308.432">source</text><line style="stroke:#181818;stroke-width:0.5;" x1="8" x2="219" y1="319" y2="319"/><ellipse cx="18" cy="330" fill="#000000" rx="3" ry="3" style="stroke:#000000;stroke-width:1.0;"/><text fill="#000000" font-family="sans-serif" font-size="14" lengthAdjust="spacing" textLength="65" x="27" y="337.9659">id : bigint</text><line style="stroke:#181818;stroke-width:1.0;" x1="8" x2="219" y1="346.0679" y2="346.0679"/><ellipse cx="18" cy="357.0679" fill="#000000" rx="3" ry="3" style="stroke:#000000;stroke-width:1.0;"/><text fill="#000000" font-family="sans-serif" font-size="14" lengthAdjust="spacing" textLength="187" x="27" y="365.0339">path : varchar(255) - unique</text><ellipse cx="18" cy="376.1358" fill="#000000" rx="3" ry="3" style="stroke:#000000;stroke-width:1.0;"/><text fill="#000000" font-family="sans-serif" font-size="14" lengthAdjust="spacing" textLength="119" x="27" y="384.1018">fk_feed_id : bigint</text><text fill="#000000" font-family="sans-serif" font-size="14" lengthAdjust="spacing" textLength="132" x="27" y="403.1697">examined : boolean</text><ellipse cx="18" cy="414.2717" fill="#000000" rx="3" ry="3" style="stroke:#000000;stroke-width:1.0;"/><text fill="#000000" font-family="sans-serif" font-size="14" lengthAdjust="spacing" textLength="135" x="27" y="422.2376">item_count : integer</text><ellipse cx="18" cy="433.3396" fill="#000000" rx="3" ry="3" style="stroke:#000000;stroke-width:1.0;"/><text fill="#000000" font-family="sans-serif" font-size="14" lengthAdjust="spacing" textLength="140" x="27" y="441.3055">new_position : bigint</text></g><!--MD5=[9ec5b5fc933be4ccfb94bd357655b06c]
class forward_dest--><g id="elem_forward_dest"><rect codeLine="22" fill="#F1F1F1" height="86.1358" id="forward_dest" rx="2.5" ry="2.5" style="stroke:#181818;stroke-width:0.5;" width="159" x="258" y="325"/><ellipse cx="290.55" cy="341" fill="#ADD1B2" rx="11" ry="11" style="stroke:#181818;stroke-width:1.0;"/><path d="M286.9094,347.5 L286.9094,335.3594 L294.5656,335.3594 L294.5656,337.4844 L289.2844,337.4844 L289.2844,340.1406 L294.3,340.1406 L294.3,342.2656 L289.2844,342.2656 L289.2844,345.375 L294.5656,345.375 L294.5656,347.5 L286.9094,347.5 Z " fill="#000000"/><text fill="#000000" font-family="sans-serif" font-size="14" lengthAdjust="spacing" textLength="88" x="308.45" y="346.432">forward_dest</text><line style="stroke:#181818;stroke-width:0.5;" x1="259" x2="416" y1="357" y2="357"/><ellipse cx="269" cy="368" fill="#000000" rx="3" ry="3" style="stroke:#000000;stroke-width:1.0;"/><text fill="#000000" font-family="sans-serif" font-size="14" lengthAdjust="spacing" textLength="43" x="278" y="375.9659">id : int</text><line style="stroke:#181818;stroke-width:1.0;" x1="259" x2="416" y1="384.0679" y2="384.0679"/><ellipse cx="269" cy="395.0679" fill="#000000" rx="3" ry="3" style="stroke:#000000;stroke-width:1.0;"/><text fill="#000000" font-family="sans-serif" font-size="14" lengthAdjust="spacing" textLength="133" x="278" y="403.0339">name : varchar(255)</text></g><!--MD5=[cbb12bc3eee1de79b3f2e300a168c511]
class forward_source--><g id="elem_forward_source"><rect codeLine="28" fill="#F1F1F1" height="219.6113" id="forward_source" rx="2.5" ry="2.5" style="stroke:#181818;stroke-width:0.5;" width="188" x="243.5" y="7"/><ellipse cx="281.9" cy="23" fill="#ADD1B2" rx="11" ry="11" style="stroke:#181818;stroke-width:1.0;"/><path d="M278.2594,29.5 L278.2594,17.3594 L285.9156,17.3594 L285.9156,19.4844 L280.6344,19.4844 L280.6344,22.1406 L285.65,22.1406 L285.65,24.2656 L280.6344,24.2656 L280.6344,27.375 L285.9156,27.375 L285.9156,29.5 L278.2594,29.5 Z " fill="#000000"/><text fill="#000000" font-family="sans-serif" font-size="14" lengthAdjust="spacing" textLength="104" x="301.1" y="28.432">forward_source</text><line style="stroke:#181818;stroke-width:0.5;" x1="244.5" x2="430.5" y1="39" y2="39"/><ellipse cx="254.5" cy="50" fill="#000000" rx="3" ry="3" style="stroke:#000000;stroke-width:1.0;"/><text fill="#000000" font-family="sans-serif" font-size="14" lengthAdjust="spacing" textLength="65" x="263.5" y="57.9659">id : bigint</text><line style="stroke:#181818;stroke-width:1.0;" x1="244.5" x2="430.5" y1="66.0679" y2="66.0679"/><ellipse cx="254.5" cy="77.0679" fill="#000000" rx="3" ry="3" style="stroke:#000000;stroke-width:1.0;"/><text fill="#000000" font-family="sans-serif" font-size="14" lengthAdjust="spacing" textLength="162" x="263.5" y="85.0339">update_time_ms : bigint</text><ellipse cx="254.5" cy="96.1358" fill="#000000" rx="3" ry="3" style="stroke:#000000;stroke-width:1.0;"/><text fill="#000000" font-family="sans-serif" font-size="14" lengthAdjust="spacing" textLength="155" x="263.5" y="104.1018">fk_forward_dest_id : int</text><ellipse cx="254.5" cy="115.2038" fill="#000000" rx="3" ry="3" style="stroke:#000000;stroke-width:1.0;"/><text fill="#000000" font-family="sans-serif" font-size="14" lengthAdjust="spacing" textLength="134" x="263.5" y="123.1697">fk_source_id : bigint</text><ellipse cx="254.5" cy="134.2717" fill="#000000" rx="3" ry="3" style="stroke:#000000;stroke-width:1.0;"/><text fill="#000000" font-family="sans-serif" font-size="14" lengthAdjust="spacing" textLength="118" x="263.5" y="142.2376">success : boolean</text><ellipse cx="254.5" cy="153.3396" fill="#000000" rx="3" ry="3" style="stroke:#000000;stroke-width:1.0;"/><text fill="#000000" font-family="sans-serif" font-size="14" lengthAdjust="spacing" textLength="129" x="263.5" y="161.3055">error : varchar(255)</text><ellipse cx="254.5" cy="172.4075" fill="#000000" rx="3" ry="3" style="stroke:#000000;stroke-width:1.0;"/><text fill="#000000" font-family="sans-serif" font-size="14" lengthAdjust="spacing" textLength="82" x="263.5" y="180.3734">tries : bigint</text><ellipse cx="254.5" cy="191.4754" fill="#000000" rx="3" ry="3" style="stroke:#000000;stroke-width:1.0;"/><text fill="#000000" font-family="sans-serif" font-size="14" lengthAdjust="spacing" textLength="140" x="263.5" y="199.4414">new_position : bigint</text><ellipse cx="254.5" cy="210.5433" fill="#000000" rx="3" ry="3" style="stroke:#000000;stroke-width:1.0;"/><text fill="#000000" font-family="sans-serif" font-size="14" lengthAdjust="spacing" textLength="144" x="263.5" y="218.5093">retry_position : bigint</text></g><!--MD5=[8fc0b909dc2d6f9332fdd45de385bd9e]
link feed to source--><g id="link_feed_source"><path codeLine="41" d="M110.5,177.62 C110.5,177.62 110.5,278.78 110.5,278.78 " fill="none" id="feed-source" style="stroke:#181818;stroke-width:1.0;"/><line style="stroke:#181818;stroke-width:1.0;" x1="110.5" x2="116.5" y1="278.78" y2="286.78"/><line style="stroke:#181818;stroke-width:1.0;" x1="110.5" x2="104.5" y1="278.78" y2="286.78"/><line style="stroke:#181818;stroke-width:1.0;" x1="110.5" x2="110.5" y1="278.78" y2="286.78"/><line style="stroke:#181818;stroke-width:1.0;" x1="114.5" x2="106.5" y1="276.78" y2="276.78"/><line style="stroke:#181818;stroke-width:1.0;" x1="106.5" x2="114.5" y1="173.62" y2="173.62"/><line style="stroke:#181818;stroke-width:1.0;" x1="106.5" x2="114.5" y1="176.62" y2="176.62"/><line style="stroke:#181818;stroke-width:1.0;" x1="110.5" x2="110.5" y1="177.62" y2="169.62"/></g><!--MD5=[54c1b24e6057a99c9e198a549ce0fbbe]
link forward_source to forward_dest--><g id="link_forward_source_forward_dest"><path codeLine="43" d="M337.5,235.09 C337.5,235.09 337.5,316.71 337.5,316.71 " fill="none" id="forward_source-forward_dest" style="stroke:#181818;stroke-width:1.0;"/><line style="stroke:#181818;stroke-width:1.0;" x1="341.5" x2="333.5" y1="320.71" y2="320.71"/><line style="stroke:#181818;stroke-width:1.0;" x1="341.5" x2="333.5" y1="317.71" y2="317.71"/><line style="stroke:#181818;stroke-width:1.0;" x1="337.5" x2="337.5" y1="316.71" y2="324.71"/><line style="stroke:#181818;stroke-width:1.0;" x1="337.5" x2="331.5" y1="235.09" y2="227.09"/><line style="stroke:#181818;stroke-width:1.0;" x1="337.5" x2="343.5" y1="235.09" y2="227.09"/><line style="stroke:#181818;stroke-width:1.0;" x1="337.5" x2="337.5" y1="235.09" y2="227.09"/><ellipse cx="337.5" cy="241.09" fill="none" rx="4" ry="4" style="stroke:#181818;stroke-width:1.0;"/></g><!--MD5=[d49f4a8229bc31f1f5d61244df6e6e3c]
link forward_source to source--><g id="link_forward_source_source"><path codeLine="44" d="M250.75,235.22 C250.75,235.22 250.75,306 250.75,306 C250.75,306 228.29,306 228.29,306 " fill="none" id="forward_source-source" style="stroke:#181818;stroke-width:1.0;stroke-dasharray:7.0,7.0;"/><line style="stroke:#181818;stroke-width:1.0;" x1="224.29" x2="224.29" y1="310" y2="302"/><line style="stroke:#181818;stroke-width:1.0;" x1="227.29" x2="227.29" y1="310" y2="302"/><line style="stroke:#181818;stroke-width:1.0;" x1="228.29" x2="220.29" y1="306" y2="306"/><line style="stroke:#181818;stroke-width:1.0;" x1="250.75" x2="244.75" y1="235.22" y2="227.22"/><line style="stroke:#181818;stroke-width:1.0;" x1="250.75" x2="256.75" y1="235.22" y2="227.22"/><line style="stroke:#181818;stroke-width:1.0;" x1="250.75" x2="250.75" y1="235.22" y2="227.22"/><ellipse cx="250.75" cy="241.22" fill="none" rx="4" ry="4" style="stroke:#181818;stroke-width:1.0;"/></g><!--MD5=[a80a26350d7c37f0add8c3ad030844fc]
@startuml

' avoid problems with angled crows feet
skinparam linetype ortho

entity feed {
  *id : bigint
  - -
  *feed_name : varchar(255)
  *type_name : varchar(255)
}

entity source {
  *id : bigint
  - -
  *path : varchar(255) - unique
  *fk_feed_id : bigint
  examined : boolean
  *item_count : integer
  *new_position : bigint
}

entity forward_dest {
  *id : int
  - -
  *name : varchar(255)
}

entity forward_source {
  *id : bigint
  - -
  *update_time_ms : bigint
  *fk_forward_dest_id : int
  *fk_source_id : bigint
  *success : boolean
  *error : varchar(255)
  *tries : bigint
  *new_position : bigint
  *retry_position : bigint
}

feed ||- -|{ source

forward_source }o- -|| forward_dest
forward_source }o..|| source

@enduml

@startuml

skinparam linetype ortho

entity feed {
  *id : bigint
  - -
  *feed_name : varchar(255)
  *type_name : varchar(255)
}

entity source {
  *id : bigint
  - -
  *path : varchar(255) - unique
  *fk_feed_id : bigint
  examined : boolean
  *item_count : integer
  *new_position : bigint
}

entity forward_dest {
  *id : int
  - -
  *name : varchar(255)
}

entity forward_source {
  *id : bigint
  - -
  *update_time_ms : bigint
  *fk_forward_dest_id : int
  *fk_source_id : bigint
  *success : boolean
  *error : varchar(255)
  *tries : bigint
  *new_position : bigint
  *retry_position : bigint
}

feed ||- -|{ source

forward_source }o- -|| forward_dest
forward_source }o..|| source

@enduml

PlantUML version 1.2022.4(Sat Apr 09 14:29:17 BST 2022)
(GPL source distribution)
Java Runtime: OpenJDK Runtime Environment
JVM: OpenJDK 64-Bit Server VM
Default Encoding: UTF-8
Language: en
Country: GB
--></g></svg>