<?xml version="1.0" encoding="us-ascii" standalone="no"?><!--
  - Copyright 2016-2025 Crown Copyright
  -
  - Licensed under the Apache License, Version 2.0 (the "License");
  - you may not use this file except in compliance with the License.
  - You may obtain a copy of the License at
  -
  -     http://www.apache.org/licenses/LICENSE-2.0
  -
  - Unless required by applicable law or agreed to in writing, software
  - distributed under the License is distributed on an "AS IS" BASIS,
  - WITHOUT WARRANTIES OR CONDITIONS OF ANY KIND, either express or implied.
  - See the License for the specific language governing permissions and
  - limitations under the License.
  -->

<svg xmlns="http://www.w3.org/2000/svg" xmlns:xlink="http://www.w3.org/1999/xlink" contentStyleType="text/css" height="842px" preserveAspectRatio="none" style="width:724px;height:842px;background:#FFFFFF;" version="1.1" viewBox="0 0 724 842" width="724px" zoomAndPan="magnify"><defs/><g><!--class feed--><g id="elem_feed"><rect codeLine="5" fill="#F1F1F1" height="96.8906" id="feed" rx="2.5" ry="2.5" style="stroke:#181818;stroke-width:0.5;" width="203" x="176.5" y="55.89"/><ellipse cx="258.25" cy="71.89" fill="#ADD1B2" rx="11" ry="11" style="stroke:#181818;stroke-width:1.0;"/><path d="M262.3594,77.89 L254.6406,77.89 L254.6406,65.4994 L262.3594,65.4994 L262.3594,67.6556 L257.0938,67.6556 L257.0938,70.3275 L261.8594,70.3275 L261.8594,72.4837 L257.0938,72.4837 L257.0938,75.7337 L262.3594,75.7337 L262.3594,77.89 Z " fill="#000000"/><text fill="#000000" font-family="sans-serif" font-size="14" lengthAdjust="spacing" textLength="31" x="278.75" y="76.7367">feed</text><line style="stroke:#181818;stroke-width:0.5;" x1="177.5" x2="378.5" y1="87.89" y2="87.89"/><ellipse cx="187.5" cy="101.5384" fill="#000000" rx="3" ry="3" style="stroke:#000000;stroke-width:1.0;"/><text fill="#000000" font-family="sans-serif" font-size="14" lengthAdjust="spacing" textLength="63" x="196.5" y="104.8851">id : bigint</text><line style="stroke:#181818;stroke-width:1.0;" x1="177.5" x2="378.5" y1="112.1869" y2="112.1869"/><ellipse cx="187.5" cy="125.8353" fill="#000000" rx="3" ry="3" style="stroke:#000000;stroke-width:1.0;"/><text fill="#000000" font-family="sans-serif" font-size="14" lengthAdjust="spacing" textLength="177" x="196.5" y="129.182">feed_name : varchar(255)</text><ellipse cx="187.5" cy="142.1322" fill="#000000" rx="3" ry="3" style="stroke:#000000;stroke-width:1.0;"/><text fill="#000000" font-family="sans-serif" font-size="14" lengthAdjust="spacing" textLength="176" x="196.5" y="145.4789">type_name : varchar(255)</text></g><!--class source--><g id="elem_source"><rect codeLine="12" fill="#F1F1F1" height="145.7813" id="source" rx="2.5" ry="2.5" style="stroke:#181818;stroke-width:0.5;" width="218" x="7" y="269.82"/><ellipse cx="87.75" cy="285.82" fill="#ADD1B2" rx="11" ry="11" style="stroke:#181818;stroke-width:1.0;"/><path d="M91.8594,291.82 L84.1406,291.82 L84.1406,279.4294 L91.8594,279.4294 L91.8594,281.5856 L86.5938,281.5856 L86.5938,284.2575 L91.3594,284.2575 L91.3594,286.4137 L86.5938,286.4137 L86.5938,289.6637 L91.8594,289.6637 L91.8594,291.82 Z " fill="#000000"/><text fill="#000000" font-family="sans-serif" font-size="14" lengthAdjust="spacing" textLength="48" x="108.25" y="290.6667">source</text><line style="stroke:#181818;stroke-width:0.5;" x1="8" x2="224" y1="301.82" y2="301.82"/><ellipse cx="18" cy="315.4684" fill="#000000" rx="3" ry="3" style="stroke:#000000;stroke-width:1.0;"/><text fill="#000000" font-family="sans-serif" font-size="14" lengthAdjust="spacing" textLength="63" x="27" y="318.8151">id : bigint</text><line style="stroke:#181818;stroke-width:1.0;" x1="8" x2="224" y1="326.1169" y2="326.1169"/><ellipse cx="18" cy="339.7653" fill="#000000" rx="3" ry="3" style="stroke:#000000;stroke-width:1.0;"/><text fill="#000000" font-family="sans-serif" font-size="14" lengthAdjust="spacing" textLength="192" x="27" y="343.112">path : varchar(255) - unique</text><ellipse cx="18" cy="356.0622" fill="#000000" rx="3" ry="3" style="stroke:#000000;stroke-width:1.0;"/><text fill="#000000" font-family="sans-serif" font-size="14" lengthAdjust="spacing" textLength="120" x="27" y="359.4089">fk_feed_id : bigint</text><ellipse cx="18" cy="372.3591" fill="#000000" rx="3" ry="3" style="stroke:#000000;stroke-width:1.0;"/><text fill="#000000" font-family="sans-serif" font-size="14" lengthAdjust="spacing" textLength="136" x="27" y="375.7057">examined : boolean</text><ellipse cx="18" cy="388.6559" fill="#000000" rx="3" ry="3" style="stroke:#000000;stroke-width:1.0;"/><text fill="#000000" font-family="sans-serif" font-size="14" lengthAdjust="spacing" textLength="139" x="27" y="392.0026">item_count : integer</text><ellipse cx="18" cy="404.9528" fill="#000000" rx="3" ry="3" style="stroke:#000000;stroke-width:1.0;"/><text fill="#000000" font-family="sans-serif" font-size="14" lengthAdjust="spacing" textLength="142" x="27" y="408.2995">new_position : bigint</text></g><!--class source_item--><g id="elem_source_item"><rect codeLine="22" fill="#F1F1F1" height="162.0781" id="source_item" rx="2.5" ry="2.5" style="stroke:#181818;stroke-width:0.5;" width="186" x="185" y="483.75"/><ellipse cx="231.25" cy="499.75" fill="#ADD1B2" rx="11" ry="11" style="stroke:#181818;stroke-width:1.0;"/><path d="M235.3594,505.75 L227.6406,505.75 L227.6406,493.3594 L235.3594,493.3594 L235.3594,495.5156 L230.0938,495.5156 L230.0938,498.1875 L234.8594,498.1875 L234.8594,500.3437 L230.0938,500.3437 L230.0938,503.5937 L235.3594,503.5937 L235.3594,505.75 Z " fill="#000000"/><text fill="#000000" font-family="sans-serif" font-size="14" lengthAdjust="spacing" textLength="85" x="251.75" y="504.5967">source_item</text><line style="stroke:#181818;stroke-width:0.5;" x1="186" x2="370" y1="515.75" y2="515.75"/><ellipse cx="196" cy="529.3984" fill="#000000" rx="3" ry="3" style="stroke:#000000;stroke-width:1.0;"/><text fill="#000000" font-family="sans-serif" font-size="14" lengthAdjust="spacing" textLength="63" x="205" y="532.7451">id : bigint</text><line style="stroke:#181818;stroke-width:1.0;" x1="186" x2="370" y1="540.0469" y2="540.0469"/><ellipse cx="196" cy="553.6953" fill="#000000" rx="3" ry="3" style="stroke:#000000;stroke-width:1.0;"/><text fill="#000000" font-family="sans-serif" font-size="14" lengthAdjust="spacing" textLength="139" x="205" y="557.042">name : varchar(255)</text><ellipse cx="196" cy="569.9922" fill="#000000" rx="3" ry="3" style="stroke:#000000;stroke-width:1.0;"/><text fill="#000000" font-family="sans-serif" font-size="14" lengthAdjust="spacing" textLength="120" x="205" y="573.3389">fk_feed_id : bigint</text><ellipse cx="196" cy="586.2891" fill="#000000" rx="3" ry="3" style="stroke:#000000;stroke-width:1.0;"/><text fill="#000000" font-family="sans-serif" font-size="14" lengthAdjust="spacing" textLength="116" x="205" y="589.6357">byte_size : bigint</text><ellipse cx="196" cy="602.5859" fill="#000000" rx="3" ry="3" style="stroke:#000000;stroke-width:1.0;"/><text fill="#000000" font-family="sans-serif" font-size="14" lengthAdjust="spacing" textLength="137" x="205" y="605.9326">fk_source_id : bigint</text><ellipse cx="196" cy="618.8828" fill="#000000" rx="3" ry="3" style="stroke:#000000;stroke-width:1.0;"/><text fill="#000000" font-family="sans-serif" font-size="14" lengthAdjust="spacing" textLength="160" x="205" y="622.2295">fk_aggregate_id : bigint</text><ellipse cx="196" cy="635.1797" fill="#000000" rx="3" ry="3" style="stroke:#000000;stroke-width:1.0;"/><text fill="#000000" font-family="sans-serif" font-size="14" lengthAdjust="spacing" textLength="142" x="205" y="638.5264">new_position : bigint</text></g><!--class source_entry--><g id="elem_source_entry"><rect codeLine="33" fill="#F1F1F1" height="129.4844" id="source_entry" rx="2.5" ry="2.5" style="stroke:#181818;stroke-width:0.5;" width="200" x="178" y="705.83"/><ellipse cx="228.75" cy="721.83" fill="#ADD1B2" rx="11" ry="11" style="stroke:#181818;stroke-width:1.0;"/><path d="M232.8594,727.83 L225.1406,727.83 L225.1406,715.4394 L232.8594,715.4394 L232.8594,717.5956 L227.5938,717.5956 L227.5938,720.2675 L232.3594,720.2675 L232.3594,722.4237 L227.5938,722.4237 L227.5938,725.6737 L232.8594,725.6737 L232.8594,727.83 Z " fill="#000000"/><text fill="#000000" font-family="sans-serif" font-size="14" lengthAdjust="spacing" textLength="90" x="249.25" y="726.6767">source_entry</text><line style="stroke:#181818;stroke-width:0.5;" x1="179" x2="377" y1="737.83" y2="737.83"/><ellipse cx="189" cy="751.4784" fill="#000000" rx="3" ry="3" style="stroke:#000000;stroke-width:1.0;"/><text fill="#000000" font-family="sans-serif" font-size="14" lengthAdjust="spacing" textLength="63" x="198" y="754.8251">id : bigint</text><line style="stroke:#181818;stroke-width:1.0;" x1="179" x2="377" y1="762.1269" y2="762.1269"/><ellipse cx="189" cy="775.7753" fill="#000000" rx="3" ry="3" style="stroke:#000000;stroke-width:1.0;"/><text fill="#000000" font-family="sans-serif" font-size="14" lengthAdjust="spacing" textLength="168" x="198" y="779.122">extension : varchar(255)</text><ellipse cx="189" cy="792.0722" fill="#000000" rx="3" ry="3" style="stroke:#000000;stroke-width:1.0;"/><text fill="#000000" font-family="sans-serif" font-size="14" lengthAdjust="spacing" textLength="135" x="198" y="795.4189">extension_type : int</text><ellipse cx="189" cy="808.3691" fill="#000000" rx="3" ry="3" style="stroke:#000000;stroke-width:1.0;"/><text fill="#000000" font-family="sans-serif" font-size="14" lengthAdjust="spacing" textLength="116" x="198" y="811.7157">byte_size : bigint</text><ellipse cx="189" cy="824.6659" fill="#000000" rx="3" ry="3" style="stroke:#000000;stroke-width:1.0;"/><text fill="#000000" font-family="sans-serif" font-size="14" lengthAdjust="spacing" textLength="174" x="198" y="828.0126">fk_source_item_id : bigint</text></g><!--class aggregate--><g id="elem_aggregate"><rect codeLine="42" fill="#F1F1F1" height="162.0781" id="aggregate" rx="2.5" ry="2.5" style="stroke:#181818;stroke-width:0.5;" width="186" x="331" y="261.67"/><ellipse cx="384.25" cy="277.67" fill="#ADD1B2" rx="11" ry="11" style="stroke:#181818;stroke-width:1.0;"/><path d="M388.3594,283.67 L380.6406,283.67 L380.6406,271.2794 L388.3594,271.2794 L388.3594,273.4356 L383.0938,273.4356 L383.0938,276.1075 L387.8594,276.1075 L387.8594,278.2637 L383.0938,278.2637 L383.0938,281.5137 L388.3594,281.5137 L388.3594,283.67 Z " fill="#000000"/><text fill="#000000" font-family="sans-serif" font-size="14" lengthAdjust="spacing" textLength="71" x="404.75" y="282.5167">aggregate</text><line style="stroke:#181818;stroke-width:0.5;" x1="332" x2="516" y1="293.67" y2="293.67"/><ellipse cx="342" cy="307.3184" fill="#000000" rx="3" ry="3" style="stroke:#000000;stroke-width:1.0;"/><text fill="#000000" font-family="sans-serif" font-size="14" lengthAdjust="spacing" textLength="63" x="351" y="310.6651">id : bigint</text><line style="stroke:#181818;stroke-width:1.0;" x1="332" x2="516" y1="317.9669" y2="317.9669"/><ellipse cx="342" cy="331.6153" fill="#000000" rx="3" ry="3" style="stroke:#000000;stroke-width:1.0;"/><text fill="#000000" font-family="sans-serif" font-size="14" lengthAdjust="spacing" textLength="160" x="351" y="334.962">create_time_ms : bigint</text><ellipse cx="342" cy="347.9122" fill="#000000" rx="3" ry="3" style="stroke:#000000;stroke-width:1.0;"/><text fill="#000000" font-family="sans-serif" font-size="14" lengthAdjust="spacing" textLength="120" x="351" y="351.2589">fk_feed_id : bigint</text><ellipse cx="342" cy="364.2091" fill="#000000" rx="3" ry="3" style="stroke:#000000;stroke-width:1.0;"/><text fill="#000000" font-family="sans-serif" font-size="14" lengthAdjust="spacing" textLength="116" x="351" y="367.5557">byte_size : bigint</text><ellipse cx="342" cy="380.5059" fill="#000000" rx="3" ry="3" style="stroke:#000000;stroke-width:1.0;"/><text fill="#000000" font-family="sans-serif" font-size="14" lengthAdjust="spacing" textLength="68" x="351" y="383.8526">items : int</text><ellipse cx="342" cy="396.8028" fill="#000000" rx="3" ry="3" style="stroke:#000000;stroke-width:1.0;"/><text fill="#000000" font-family="sans-serif" font-size="14" lengthAdjust="spacing" textLength="134" x="351" y="400.1495">complete : boolean</text><ellipse cx="342" cy="413.0997" fill="#000000" rx="3" ry="3" style="stroke:#000000;stroke-width:1.0;"/><text fill="#000000" font-family="sans-serif" font-size="14" lengthAdjust="spacing" textLength="142" x="351" y="416.4464">new_position : bigint</text></g><!--class forward_dest--><g id="elem_forward_dest"><rect codeLine="53" fill="#F1F1F1" height="80.5938" id="forward_dest" rx="2.5" ry="2.5" style="stroke:#181818;stroke-width:0.5;" width="165" x="552.5" y="302.41"/><ellipse cx="587.3" cy="318.41" fill="#ADD1B2" rx="11" ry="11" style="stroke:#181818;stroke-width:1.0;"/><path d="M591.4094,324.41 L583.6906,324.41 L583.6906,312.0194 L591.4094,312.0194 L591.4094,314.1756 L586.1438,314.1756 L586.1438,316.8475 L590.9094,316.8475 L590.9094,319.0037 L586.1438,319.0037 L586.1438,322.2537 L591.4094,322.2537 L591.4094,324.41 Z " fill="#000000"/><text fill="#000000" font-family="sans-serif" font-size="14" lengthAdjust="spacing" textLength="89" x="605.7" y="323.2567">forward_dest</text><line style="stroke:#181818;stroke-width:0.5;" x1="553.5" x2="716.5" y1="334.41" y2="334.41"/><ellipse cx="563.5" cy="348.0584" fill="#000000" rx="3" ry="3" style="stroke:#000000;stroke-width:1.0;"/><text fill="#000000" font-family="sans-serif" font-size="14" lengthAdjust="spacing" textLength="42" x="572.5" y="351.4051">id : int</text><line style="stroke:#181818;stroke-width:1.0;" x1="553.5" x2="716.5" y1="358.7069" y2="358.7069"/><ellipse cx="563.5" cy="372.3553" fill="#000000" rx="3" ry="3" style="stroke:#000000;stroke-width:1.0;"/><text fill="#000000" font-family="sans-serif" font-size="14" lengthAdjust="spacing" textLength="139" x="572.5" y="375.702">name : varchar(255)</text></g><!--class forward_aggregate--><g id="elem_forward_aggregate"><rect codeLine="59" fill="#F1F1F1" height="194.6719" id="forward_aggregate" rx="2.5" ry="2.5" style="stroke:#181818;stroke-width:0.5;" width="191" x="476.5" y="7"/><ellipse cx="505" cy="23" fill="#ADD1B2" rx="11" ry="11" style="stroke:#181818;stroke-width:1.0;"/><path d="M509.1094,29 L501.3906,29 L501.3906,16.6094 L509.1094,16.6094 L509.1094,18.7656 L503.8438,18.7656 L503.8438,21.4375 L508.6094,21.4375 L508.6094,23.5938 L503.8438,23.5938 L503.8438,26.8438 L509.1094,26.8438 L509.1094,29 Z " fill="#000000"/><text fill="#000000" font-family="sans-serif" font-size="14" lengthAdjust="spacing" textLength="129" x="522" y="27.8467">forward_aggregate</text><line style="stroke:#181818;stroke-width:0.5;" x1="477.5" x2="666.5" y1="39" y2="39"/><ellipse cx="487.5" cy="52.6484" fill="#000000" rx="3" ry="3" style="stroke:#000000;stroke-width:1.0;"/><text fill="#000000" font-family="sans-serif" font-size="14" lengthAdjust="spacing" textLength="63" x="496.5" y="55.9951">id : bigint</text><line style="stroke:#181818;stroke-width:1.0;" x1="477.5" x2="666.5" y1="63.2969" y2="63.2969"/><ellipse cx="487.5" cy="76.9453" fill="#000000" rx="3" ry="3" style="stroke:#000000;stroke-width:1.0;"/><text fill="#000000" font-family="sans-serif" font-size="14" lengthAdjust="spacing" textLength="165" x="496.5" y="80.292">update_time_ms : bigint</text><ellipse cx="487.5" cy="93.2422" fill="#000000" rx="3" ry="3" style="stroke:#000000;stroke-width:1.0;"/><text fill="#000000" font-family="sans-serif" font-size="14" lengthAdjust="spacing" textLength="157" x="496.5" y="96.5889">fk_forward_dest_id : int</text><ellipse cx="487.5" cy="109.5391" fill="#000000" rx="3" ry="3" style="stroke:#000000;stroke-width:1.0;"/><text fill="#000000" font-family="sans-serif" font-size="14" lengthAdjust="spacing" textLength="160" x="496.5" y="112.8857">fk_aggregate_id : bigint</text><ellipse cx="487.5" cy="125.8359" fill="#000000" rx="3" ry="3" style="stroke:#000000;stroke-width:1.0;"/><text fill="#000000" font-family="sans-serif" font-size="14" lengthAdjust="spacing" textLength="127" x="496.5" y="129.1826">success : boolean</text><ellipse cx="487.5" cy="142.1328" fill="#000000" rx="3" ry="3" style="stroke:#000000;stroke-width:1.0;"/><text fill="#000000" font-family="sans-serif" font-size="14" lengthAdjust="spacing" textLength="133" x="496.5" y="145.4795">error : varchar(255)</text><ellipse cx="487.5" cy="158.4297" fill="#000000" rx="3" ry="3" style="stroke:#000000;stroke-width:1.0;"/><text fill="#000000" font-family="sans-serif" font-size="14" lengthAdjust="spacing" textLength="81" x="496.5" y="161.7764">tries : bigint</text><ellipse cx="487.5" cy="174.7266" fill="#000000" rx="3" ry="3" style="stroke:#000000;stroke-width:1.0;"/><text fill="#000000" font-family="sans-serif" font-size="14" lengthAdjust="spacing" textLength="142" x="496.5" y="178.0732">new_position : bigint</text><ellipse cx="487.5" cy="191.0234" fill="#000000" rx="3" ry="3" style="stroke:#000000;stroke-width:1.0;"/><text fill="#000000" font-family="sans-serif" font-size="14" lengthAdjust="spacing" textLength="144" x="496.5" y="194.3701">retry_position : bigint</text></g><!--link feed to source--><g id="link_feed_source"><path codeLine="72" d="M200.75,162.66 C200.75,162.66 200.75,260 200.75,260 " fill="none" id="feed-source" style="stroke:#181818;stroke-width:1.0;"/><line style="stroke:#181818;stroke-width:1.0;" x1="196.75" x2="204.75" y1="158.66" y2="158.66"/><line style="stroke:#181818;stroke-width:1.0;" x1="196.75" x2="204.75" y1="161.66" y2="161.66"/><line style="stroke:#181818;stroke-width:1.0;" x1="200.75" x2="200.75" y1="162.66" y2="154.66"/><line style="stroke:#181818;stroke-width:1.0;" x1="200.75" x2="206.75" y1="260" y2="268"/><line style="stroke:#181818;stroke-width:1.0;" x1="200.75" x2="194.75" y1="260" y2="268"/><line style="stroke:#181818;stroke-width:1.0;" x1="200.75" x2="200.75" y1="260" y2="268"/><line style="stroke:#181818;stroke-width:1.0;" x1="204.75" x2="196.75" y1="258" y2="258"/></g><!--link feed to source_item--><g id="link_feed_source_item"><path codeLine="73" d="M278,162.69 C278,162.69 278,473.77 278,473.77 " fill="none" id="feed-source_item" style="stroke:#181818;stroke-width:1.0;"/><line style="stroke:#181818;stroke-width:1.0;" x1="274" x2="282" y1="158.69" y2="158.69"/><line style="stroke:#181818;stroke-width:1.0;" x1="274" x2="282" y1="161.69" y2="161.69"/><line style="stroke:#181818;stroke-width:1.0;" x1="278" x2="278" y1="162.69" y2="154.69"/><line style="stroke:#181818;stroke-width:1.0;" x1="278" x2="284" y1="473.77" y2="481.77"/><line style="stroke:#181818;stroke-width:1.0;" x1="278" x2="272" y1="473.77" y2="481.77"/><line style="stroke:#181818;stroke-width:1.0;" x1="278" x2="278" y1="473.77" y2="481.77"/><line style="stroke:#181818;stroke-width:1.0;" x1="282" x2="274" y1="471.77" y2="471.77"/></g><!--link feed to aggregate--><g id="link_feed_aggregate"><path codeLine="74" d="M355.25,162.66 C355.25,162.66 355.25,252.06 355.25,252.06 " fill="none" id="feed-aggregate" style="stroke:#181818;stroke-width:1.0;"/><line style="stroke:#181818;stroke-width:1.0;" x1="351.25" x2="359.25" y1="158.66" y2="158.66"/><line style="stroke:#181818;stroke-width:1.0;" x1="351.25" x2="359.25" y1="161.66" y2="161.66"/><line style="stroke:#181818;stroke-width:1.0;" x1="355.25" x2="355.25" y1="162.66" y2="154.66"/><line style="stroke:#181818;stroke-width:1.0;" x1="355.25" x2="361.25" y1="252.06" y2="260.06"/><line style="stroke:#181818;stroke-width:1.0;" x1="355.25" x2="349.25" y1="252.06" y2="260.06"/><line style="stroke:#181818;stroke-width:1.0;" x1="355.25" x2="355.25" y1="252.06" y2="260.06"/><line style="stroke:#181818;stroke-width:1.0;" x1="359.25" x2="351.25" y1="250.06" y2="250.06"/></g><!--link source to source_item--><g id="link_source_source_item"><path codeLine="76" d="M205,425.55 C205,425.55 205,473.97 205,473.97 " fill="none" id="source-source_item" style="stroke:#181818;stroke-width:1.0;stroke-dasharray:7.0,7.0;"/><line style="stroke:#181818;stroke-width:1.0;" x1="201" x2="209" y1="421.55" y2="421.55"/><line style="stroke:#181818;stroke-width:1.0;" x1="201" x2="209" y1="424.55" y2="424.55"/><line style="stroke:#181818;stroke-width:1.0;" x1="205" x2="205" y1="425.55" y2="417.55"/><line style="stroke:#181818;stroke-width:1.0;" x1="205" x2="211" y1="473.97" y2="481.97"/><line style="stroke:#181818;stroke-width:1.0;" x1="205" x2="199" y1="473.97" y2="481.97"/><line style="stroke:#181818;stroke-width:1.0;" x1="205" x2="205" y1="473.97" y2="481.97"/><ellipse cx="205" cy="467.97" fill="none" rx="4" ry="4" style="stroke:#181818;stroke-width:1.0;"/></g><!--link source_item to source_entry--><g id="link_source_item_source_entry"><path codeLine="77" d="M278,655.63 C278,655.63 278,695.83 278,695.83 " fill="none" id="source_item-source_entry" style="stroke:#181818;stroke-width:1.0;"/><line style="stroke:#181818;stroke-width:1.0;" x1="274" x2="282" y1="651.63" y2="651.63"/><line style="stroke:#181818;stroke-width:1.0;" x1="274" x2="282" y1="654.63" y2="654.63"/><line style="stroke:#181818;stroke-width:1.0;" x1="278" x2="278" y1="655.63" y2="647.63"/><line style="stroke:#181818;stroke-width:1.0;" x1="278" x2="284" y1="695.83" y2="703.83"/><line style="stroke:#181818;stroke-width:1.0;" x1="278" x2="272" y1="695.83" y2="703.83"/><line style="stroke:#181818;stroke-width:1.0;" x1="278" x2="278" y1="695.83" y2="703.83"/><line style="stroke:#181818;stroke-width:1.0;" x1="282" x2="274" y1="693.83" y2="693.83"/></g><!--link aggregate to source_item--><g id="link_aggregate_source_item"><path codeLine="78" d="M351,433.65 C351,433.65 351,473.85 351,473.85 " fill="none" id="aggregate-source_item" style="stroke:#181818;stroke-width:1.0;"/><line style="stroke:#181818;stroke-width:1.0;" x1="347" x2="355" y1="429.65" y2="429.65"/><line style="stroke:#181818;stroke-width:1.0;" x1="347" x2="355" y1="432.65" y2="432.65"/><line style="stroke:#181818;stroke-width:1.0;" x1="351" x2="351" y1="433.65" y2="425.65"/><line style="stroke:#181818;stroke-width:1.0;" x1="351" x2="357" y1="473.85" y2="481.85"/><line style="stroke:#181818;stroke-width:1.0;" x1="351" x2="345" y1="473.85" y2="481.85"/><line style="stroke:#181818;stroke-width:1.0;" x1="351" x2="351" y1="473.85" y2="481.85"/><line style="stroke:#181818;stroke-width:1.0;" x1="355" x2="347" y1="471.85" y2="471.85"/></g><!--link forward_aggregate to forward_dest--><g id="link_forward_aggregate_forward_dest"><path codeLine="79" d="M610,211.49 C610,211.49 610,292.47 610,292.47 " fill="none" id="forward_aggregate-forward_dest" style="stroke:#181818;stroke-width:1.0;"/><line style="stroke:#181818;stroke-width:1.0;" x1="610" x2="604" y1="211.49" y2="203.49"/><line style="stroke:#181818;stroke-width:1.0;" x1="610" x2="616" y1="211.49" y2="203.49"/><line style="stroke:#181818;stroke-width:1.0;" x1="610" x2="610" y1="211.49" y2="203.49"/><ellipse cx="610" cy="217.49" fill="none" rx="4" ry="4" style="stroke:#181818;stroke-width:1.0;"/><line style="stroke:#181818;stroke-width:1.0;" x1="614" x2="606" y1="296.47" y2="296.47"/><line style="stroke:#181818;stroke-width:1.0;" x1="614" x2="606" y1="293.47" y2="293.47"/><line style="stroke:#181818;stroke-width:1.0;" x1="610" x2="610" y1="292.47" y2="300.47"/></g><!--link forward_aggregate to aggregate--><g id="link_forward_aggregate_aggregate"><path codeLine="80" d="M496.75,211.49 C496.75,211.49 496.75,251.67 496.75,251.67 " fill="none" id="forward_aggregate-aggregate" style="stroke:#181818;stroke-width:1.0;"/><line style="stroke:#181818;stroke-width:1.0;" x1="496.75" x2="490.75" y1="211.49" y2="203.49"/><line style="stroke:#181818;stroke-width:1.0;" x1="496.75" x2="502.75" y1="211.49" y2="203.49"/><line style="stroke:#181818;stroke-width:1.0;" x1="496.75" x2="496.75" y1="211.49" y2="203.49"/><ellipse cx="496.75" cy="217.49" fill="none" rx="4" ry="4" style="stroke:#181818;stroke-width:1.0;"/><line style="stroke:#181818;stroke-width:1.0;" x1="500.75" x2="492.75" y1="255.67" y2="255.67"/><line style="stroke:#181818;stroke-width:1.0;" x1="500.75" x2="492.75" y1="252.67" y2="252.67"/><line style="stroke:#181818;stroke-width:1.0;" x1="496.75" x2="496.75" y1="251.67" y2="259.67"/></g><!--SRC=[ZLHDSuCW4BtxAxYrpOmvT2QN_Xc6uCOmKTOk66DZ_dk1fYf64u_inzltbWTlJ9nHPQmYt1TG6jOeUsH2vmLaJ18sXXq0R69EIbU2HCaAfS6s5J0aUyGa0MsLRNrLngu9Onk7ziNsAbVQkcEQ-fZFSYrASAcp87aKzFwvsttud0URpTrwS8CrILY6huGZ7NUpbDLQVTSGnfzuO13tRk0YIgSc114B43eCi51oYRMsBkug8GVoSGqDhz0egr0FC5EItBSlCrtOmGB1VMk16_K3KTGL_y_AfWcHvmIvi0-vbUpTYTfb-d2neCqVn5H3d-F17c5tgqJuVO-73QHwDSkC985NQrK9tDbtCcBzKZqBCv2MM5O5M8YjyMg91wH6KCOpC7P4-PK17W5M2A-hx9dm4HC-8l7K8wQM4eo9DGCHqjop9GLcXSLSWi2PQdvnuTlekZJjhdSBpeI2HQ9uBo59xdz3rsst63UC7sIC5roU34kUc_Pm4pTqHLrqnyjL0y5V]--></g></svg>
