<?xml version="1.0" encoding="us-ascii" standalone="no"?><svg xmlns="http://www.w3.org/2000/svg" xmlns:xlink="http://www.w3.org/1999/xlink" contentStyleType="text/css" height="590px" preserveAspectRatio="none" style="width:799px;height:590px;background:#FFFFFF;" version="1.1" viewBox="0 0 799 590" width="799px" zoomAndPan="magnify"><defs/><g><text fill="#000000" font-family="sans-serif" font-size="14" font-weight="bold" lengthAdjust="spacing" textLength="144" x="329" y="27.9951">Forward Stored Data</text><rect fill="#FFFFFF" height="239.7969" style="stroke:#181818;stroke-width:1.0;" width="10" x="201" y="215.9922"/><rect fill="#FFFFFF" height="170.6641" style="stroke:#181818;stroke-width:1.0;" width="10" x="206" y="258.125"/><line style="stroke:#181818;stroke-width:0.5;stroke-dasharray:5.0,5.0;" x1="70" x2="70" y1="118.5938" y2="509.9219"/><line style="stroke:#181818;stroke-width:0.5;stroke-dasharray:5.0,5.0;" x1="206" x2="206" y1="118.5938" y2="509.9219"/><line style="stroke:#181818;stroke-width:0.5;stroke-dasharray:5.0,5.0;" x1="393" x2="393" y1="118.5938" y2="509.9219"/><line style="stroke:#181818;stroke-width:0.5;stroke-dasharray:5.0,5.0;" x1="439" x2="439" y1="118.5938" y2="509.9219"/><line style="stroke:#181818;stroke-width:0.5;stroke-dasharray:5.0,5.0;" x1="550" x2="550" y1="118.5938" y2="509.9219"/><line style="stroke:#181818;stroke-width:0.5;stroke-dasharray:5.0,5.0;" x1="675" x2="675" y1="118.5938" y2="509.9219"/><line style="stroke:#181818;stroke-width:0.5;stroke-dasharray:5.0,5.0;" x1="758" x2="758" y1="118.5938" y2="509.9219"/><rect fill="#E2E2F0" height="30.2969" rx="2.5" ry="2.5" style="stroke:#181818;stroke-width:0.5;" width="131" x="5" y="87.2969"/><text fill="#000000" font-family="sans-serif" font-size="14" lengthAdjust="spacing" textLength="117" x="12" y="107.292">ProxyRepoSources</text><rect fill="#E2E2F0" height="30.2969" rx="2.5" ry="2.5" style="stroke:#181818;stroke-width:0.5;" width="131" x="5" y="508.9219"/><text fill="#000000" font-family="sans-serif" font-size="14" lengthAdjust="spacing" textLength="117" x="12" y="528.917">ProxyRepoSources</text><rect fill="#E2E2F0" height="30.2969" rx="2.5" ry="2.5" style="stroke:#181818;stroke-width:0.5;" width="120" x="146" y="87.2969"/><text fill="#000000" font-family="sans-serif" font-size="14" lengthAdjust="spacing" textLength="106" x="153" y="107.292">SourceForwarder</text><rect fill="#E2E2F0" height="30.2969" rx="2.5" ry="2.5" style="stroke:#181818;stroke-width:0.5;" width="120" x="146" y="508.9219"/><text fill="#000000" font-family="sans-serif" font-size="14" lengthAdjust="spacing" textLength="106" x="153" y="528.917">SourceForwarder</text><text fill="#000000" font-family="sans-serif" font-size="14" lengthAdjust="spacing" textLength="16" x="382" y="115.292">db</text><path d="M375,66.2969 C375,56.2969 393,56.2969 393,56.2969 C393,56.2969 411,56.2969 411,66.2969 L411,92.2969 C411,102.2969 393,102.2969 393,102.2969 C393,102.2969 375,102.2969 375,92.2969 L375,66.2969 " fill="#E2E2F0" style="stroke:#181818;stroke-width:1.5;"/><path d="M375,66.2969 C375,76.2969 393,76.2969 393,76.2969 C393,76.2969 411,76.2969 411,66.2969 " fill="none" style="stroke:#181818;stroke-width:1.5;"/><text fill="#000000" font-family="sans-serif" font-size="14" lengthAdjust="spacing" textLength="16" x="382" y="521.917">db</text><path d="M375,535.2188 C375,525.2188 393,525.2188 393,525.2188 C393,525.2188 411,525.2188 411,535.2188 L411,561.2188 C411,571.2188 393,571.2188 393,571.2188 C393,571.2188 375,571.2188 375,561.2188 L375,535.2188 " fill="#E2E2F0" style="stroke:#181818;stroke-width:1.5;"/><path d="M375,535.2188 C375,545.2188 393,545.2188 393,545.2188 C393,545.2188 411,545.2188 411,535.2188 " fill="none" style="stroke:#181818;stroke-width:1.5;"/><text fill="#000000" font-family="sans-serif" font-size="14" lengthAdjust="spacing" textLength="29" x="421.5" y="115.292">repo</text><path d="M421,66.2969 C421,56.2969 439,56.2969 439,56.2969 C439,56.2969 457,56.2969 457,66.2969 L457,92.2969 C457,102.2969 439,102.2969 439,102.2969 C439,102.2969 421,102.2969 421,92.2969 L421,66.2969 " fill="#E2E2F0" style="stroke:#181818;stroke-width:1.5;"/><path d="M421,66.2969 C421,76.2969 439,76.2969 439,76.2969 C439,76.2969 457,76.2969 457,66.2969 " fill="none" style="stroke:#181818;stroke-width:1.5;"/><text fill="#000000" font-family="sans-serif" font-size="14" lengthAdjust="spacing" textLength="29" x="421.5" y="521.917">repo</text><path d="M421,535.2188 C421,525.2188 439,525.2188 439,525.2188 C439,525.2188 457,525.2188 457,535.2188 L457,561.2188 C457,571.2188 439,571.2188 439,571.2188 C439,571.2188 421,571.2188 421,561.2188 L421,535.2188 " fill="#E2E2F0" style="stroke:#181818;stroke-width:1.5;"/><path d="M421,535.2188 C421,545.2188 439,545.2188 439,545.2188 C439,545.2188 457,545.2188 457,535.2188 " fill="none" style="stroke:#181818;stroke-width:1.5;"/><rect fill="#E2E2F0" height="30.2969" rx="2.5" ry="2.5" style="stroke:#181818;stroke-width:0.5;" width="166" x="467" y="87.2969"/><text fill="#000000" font-family="sans-serif" font-size="14" lengthAdjust="spacing" textLength="152" x="474" y="107.292">ForwardStreamHandlers</text><rect fill="#E2E2F0" height="30.2969" rx="2.5" ry="2.5" style="stroke:#181818;stroke-width:0.5;" width="166" x="467" y="508.9219"/><text fill="#000000" font-family="sans-serif" font-size="14" lengthAdjust="spacing" textLength="152" x="474" y="528.917">ForwardStreamHandlers</text><rect fill="#E2E2F0" height="30.2969" rx="2.5" ry="2.5" style="stroke:#181818;stroke-width:0.5;" width="65" x="643" y="87.2969"/><text fill="#000000" font-family="sans-serif" font-size="14" lengthAdjust="spacing" textLength="51" x="650" y="107.292">Cleanup</text><rect fill="#E2E2F0" height="30.2969" rx="2.5" ry="2.5" style="stroke:#181818;stroke-width:0.5;" width="65" x="643" y="508.9219"/><text fill="#000000" font-family="sans-serif" font-size="14" lengthAdjust="spacing" textLength="51" x="650" y="528.917">Cleanup</text><text fill="#000000" font-family="sans-serif" font-size="14" lengthAdjust="spacing" textLength="74" x="718" y="115.292">Destination</text><ellipse cx="758" cy="50.7969" fill="#E2E2F0" rx="8" ry="8" style="stroke:#181818;stroke-width:0.5;"/><path d="M758,58.7969 L758,85.7969 M745,66.7969 L771,66.7969 M758,85.7969 L745,100.7969 M758,85.7969 L771,100.7969 " fill="none" style="stroke:#181818;stroke-width:0.5;"/><text fill="#000000" font-family="sans-serif" font-size="14" lengthAdjust="spacing" textLength="74" x="718" y="521.917">Destination</text><ellipse cx="758" cy="533.7188" fill="#E2E2F0" rx="8" ry="8" style="stroke:#181818;stroke-width:0.5;"/><path d="M758,541.7188 L758,568.7188 M745,549.7188 L771,549.7188 M758,568.7188 L745,583.7188 M758,568.7188 L771,583.7188 " fill="none" style="stroke:#181818;stroke-width:0.5;"/><rect fill="#FFFFFF" height="239.7969" style="stroke:#181818;stroke-width:1.0;" width="10" x="201" y="215.9922"/><rect fill="#FFFFFF" height="170.6641" style="stroke:#181818;stroke-width:1.0;" width="10" x="206" y="258.125"/><line style="stroke:#181818;stroke-width:1.0;" x1="204" x2="194" y1="149.7266" y2="153.7266"/><line style="stroke:#181818;stroke-width:1.0;stroke-dasharray:2.0,2.0;" x1="70.5" x2="205" y1="149.7266" y2="149.7266"/><text fill="#000000" font-family="sans-serif" font-size="13" lengthAdjust="spacing" textLength="61" x="77.5" y="144.6606">onChange</text><polygon fill="#181818" points="381,174.8594,391,178.8594,381,182.8594,385,178.8594" style="stroke:#181818;stroke-width:1.0;"/><line style="stroke:#181818;stroke-width:1.0;" x1="206" x2="387" y1="178.8594" y2="178.8594"/><text fill="#000000" font-family="sans-serif" font-size="13" lengthAdjust="spacing" textLength="102" x="213" y="173.7935">Find new sources</text><line style="stroke:#181818;stroke-width:1.0;" x1="206" x2="253" y1="202.9922" y2="202.9922"/><line style="stroke:#181818;stroke-width:1.0;" x1="253" x2="253" y1="202.9922" y2="215.9922"/><line style="stroke:#181818;stroke-width:1.0;" x1="212" x2="253" y1="215.9922" y2="215.9922"/><line style="stroke:#181818;stroke-width:1.0;" x1="212" x2="222" y1="215.9922" y2="219.9922"/><text fill="#000000" font-family="sans-serif" font-size="13" lengthAdjust="spacing" textLength="99" x="218" y="197.9263">Forward Sources</text><line style="stroke:#181818;stroke-width:1.0;" x1="211" x2="258" y1="245.125" y2="245.125"/><line style="stroke:#181818;stroke-width:1.0;" x1="258" x2="258" y1="245.125" y2="258.125"/><line style="stroke:#181818;stroke-width:1.0;" x1="217" x2="258" y1="258.125" y2="258.125"/><line style="stroke:#181818;stroke-width:1.0;" x1="217" x2="227" y1="258.125" y2="262.125"/><text fill="#000000" font-family="sans-serif" font-size="13" lengthAdjust="spacing" textLength="93" x="223" y="240.0591">Forward Source</text><polygon fill="#181818" points="427,288.2578,437,292.2578,427,296.2578,431,292.2578" style="stroke:#181818;stroke-width:1.0;"/><line style="stroke:#181818;stroke-width:1.0;" x1="216" x2="433" y1="292.2578" y2="292.2578"/><text fill="#000000" font-family="sans-serif" font-size="13" lengthAdjust="spacing" textLength="27" x="223" y="287.1919">read</text><polygon fill="#181818" points="538,317.3906,548,321.3906,538,325.3906,542,321.3906" style="stroke:#181818;stroke-width:1.0;"/><line style="stroke:#181818;stroke-width:1.0;" x1="216" x2="544" y1="321.3906" y2="321.3906"/><text fill="#000000" font-family="sans-serif" font-size="13" lengthAdjust="spacing" textLength="29" x="223" y="316.3247">write</text><polygon fill="#181818" points="746,346.5234,756,350.5234,746,354.5234,750,350.5234" style="stroke:#181818;stroke-width:1.0;"/><line style="stroke:#181818;stroke-width:1.0;stroke-dasharray:2.0,2.0;" x1="550" x2="752" y1="350.5234" y2="350.5234"/><text fill="#000000" font-family="sans-serif" font-size="13" lengthAdjust="spacing" textLength="41" x="557" y="345.4575">handle</text><polygon fill="#181818" points="381,375.6563,391,379.6563,381,383.6563,385,379.6563" style="stroke:#181818;stroke-width:1.0;"/><line style="stroke:#181818;stroke-width:1.0;" x1="216" x2="387" y1="379.6563" y2="379.6563"/><text fill="#000000" font-family="sans-serif" font-size="13" lengthAdjust="spacing" textLength="140" x="223" y="374.5903">record 'forward_source'</text><polygon fill="#181818" points="381,404.7891,391,408.7891,381,412.7891,385,408.7891" style="stroke:#181818;stroke-width:1.0;"/><line style="stroke:#181818;stroke-width:1.0;" x1="216" x2="387" y1="408.7891" y2="408.7891"/><text fill="#000000" font-family="sans-serif" font-size="13" lengthAdjust="spacing" textLength="153" x="223" y="403.7231">record 'source' forwarded</text><line style="stroke:#181818;stroke-width:1.0;stroke-dasharray:2.0,2.0;" x1="216" x2="258" y1="427.7891" y2="427.7891"/><line style="stroke:#181818;stroke-width:1.0;stroke-dasharray:2.0,2.0;" x1="258" x2="258" y1="427.7891" y2="440.7891"/><line style="stroke:#181818;stroke-width:1.0;stroke-dasharray:2.0,2.0;" x1="211" x2="258" y1="440.7891" y2="440.7891"/><line style="stroke:#181818;stroke-width:1.0;" x1="211" x2="221" y1="440.7891" y2="444.7891"/><line style="stroke:#181818;stroke-width:1.0;stroke-dasharray:2.0,2.0;" x1="211" x2="253" y1="454.7891" y2="454.7891"/><line style="stroke:#181818;stroke-width:1.0;stroke-dasharray:2.0,2.0;" x1="253" x2="253" y1="454.7891" y2="467.7891"/><line style="stroke:#181818;stroke-width:1.0;stroke-dasharray:2.0,2.0;" x1="206" x2="253" y1="467.7891" y2="467.7891"/><line style="stroke:#181818;stroke-width:1.0;" x1="206" x2="216" y1="467.7891" y2="471.7891"/><line style="stroke:#181818;stroke-width:1.0;" x1="673.5" x2="663.5" y1="491.9219" y2="495.9219"/><line style="stroke:#181818;stroke-width:1.0;stroke-dasharray:2.0,2.0;" x1="206" x2="674.5" y1="491.9219" y2="491.9219"/><text fill="#000000" font-family="sans-serif" font-size="13" lengthAdjust="spacing" textLength="61" x="213" y="486.856">onChange</text><!--SRC=[fP6zRiCm38HtFWMt386HNKEM147787w0WB7OHe136JGDjszVfLQH-AVea4KIT7V4wPC5gnaFKNjIZwL5POzxCW9eI2rKeI4nF6hy_3fn4ylOQSNjI1pkyWnMy2b-ePRHNnvdJU5HAljBKwRR6uclMSTpTpMJT0rGbMhXdbiBGXQY04pxO55iDjCY3gFihYGV31C5Ysqgv_0GnADmZsr-rimtdxfUkmUlLs9BfUwKN5h9BwcBo1ps6enXKKnSji_a75v_bB-0A5Sn5Loz3y9vuBA2__pPXpd77fIjK_dTvlaxelp1J__q3G00]--></g></svg>