<?xml version="1.0" encoding="UTF-8" standalone="no"?><svg xmlns="http://www.w3.org/2000/svg" xmlns:xlink="http://www.w3.org/1999/xlink" contentStyleType="text/css" height="354px" preserveAspectRatio="none" style="width:519px;height:354px;background:#FFFFFF;" version="1.1" viewBox="0 0 519 354" width="519px" zoomAndPan="magnify"><defs/><g><rect height="29.0679" style="stroke:#00000000;stroke-width:1.0;fill:none;" width="104" x="209" y="10"/><text fill="#000000" font-family="sans-serif" font-size="14" font-weight="bold" lengthAdjust="spacing" textLength="94" x="214" y="29.9659">Forward Only</text><line style="stroke:#181818;stroke-width:0.5;stroke-dasharray:5.0,5.0;" x1="36" x2="36" y1="124.1358" y2="270.9599"/><line style="stroke:#181818;stroke-width:0.5;stroke-dasharray:5.0,5.0;" x1="157" x2="157" y1="124.1358" y2="270.9599"/><line style="stroke:#181818;stroke-width:0.5;stroke-dasharray:5.0,5.0;" x1="336" x2="336" y1="124.1358" y2="270.9599"/><line style="stroke:#181818;stroke-width:0.5;stroke-dasharray:5.0,5.0;" x1="476" x2="476" y1="124.1358" y2="270.9599"/><text fill="#000000" font-family="sans-serif" font-size="14" lengthAdjust="spacing" textLength="57" x="5" y="120.0339">Supplier</text><ellipse cx="36.5" cy="53.5679" fill="#E2E2F0" rx="8" ry="8" style="stroke:#181818;stroke-width:0.5;"/><path d="M36.5,61.5679 L36.5,88.5679 M23.5,69.5679 L49.5,69.5679 M36.5,88.5679 L23.5,103.5679 M36.5,88.5679 L49.5,103.5679 " fill="none" style="stroke:#181818;stroke-width:0.5;"/><text fill="#000000" font-family="sans-serif" font-size="14" lengthAdjust="spacing" textLength="57" x="5" y="284.9258">Supplier</text><ellipse cx="36.5" cy="297.5278" fill="#E2E2F0" rx="8" ry="8" style="stroke:#181818;stroke-width:0.5;"/><path d="M36.5,305.5278 L36.5,332.5278 M23.5,313.5278 L49.5,313.5278 M36.5,332.5278 L23.5,347.5278 M36.5,332.5278 L49.5,347.5278 " fill="none" style="stroke:#181818;stroke-width:0.5;"/><rect fill="#E2E2F0" height="33.0679" rx="2.5" ry="2.5" style="stroke:#181818;stroke-width:0.5;" width="159" x="78" y="90.0679"/><text fill="#000000" font-family="sans-serif" font-size="14" lengthAdjust="spacing" textLength="145" x="85" y="112.0339">ProxyRequestHandler</text><rect fill="#E2E2F0" height="33.0679" rx="2.5" ry="2.5" style="stroke:#181818;stroke-width:0.5;" width="159" x="78" y="269.9599"/><text fill="#000000" font-family="sans-serif" font-size="14" lengthAdjust="spacing" textLength="145" x="85" y="291.9258">ProxyRequestHandler</text><rect fill="#E2E2F0" height="33.0679" rx="2.5" ry="2.5" style="stroke:#181818;stroke-width:0.5;" width="178" x="247" y="90.0679"/><text fill="#000000" font-family="sans-serif" font-size="14" lengthAdjust="spacing" textLength="164" x="254" y="112.0339">ForwardStreamHandlers</text><rect fill="#E2E2F0" height="33.0679" rx="2.5" ry="2.5" style="stroke:#181818;stroke-width:0.5;" width="178" x="247" y="269.9599"/><text fill="#000000" font-family="sans-serif" font-size="14" lengthAdjust="spacing" textLength="164" x="254" y="291.9258">ForwardStreamHandlers</text><text fill="#000000" font-family="sans-serif" font-size="14" lengthAdjust="spacing" textLength="77" x="435" y="120.0339">Destination</text><ellipse cx="476.5" cy="53.5679" fill="#E2E2F0" rx="8" ry="8" style="stroke:#181818;stroke-width:0.5;"/><path d="M476.5,61.5679 L476.5,88.5679 M463.5,69.5679 L489.5,69.5679 M476.5,88.5679 L463.5,103.5679 M476.5,88.5679 L489.5,103.5679 " fill="none" style="stroke:#181818;stroke-width:0.5;"/><text fill="#000000" font-family="sans-serif" font-size="14" lengthAdjust="spacing" textLength="77" x="435" y="284.9258">Destination</text><ellipse cx="476.5" cy="297.5278" fill="#E2E2F0" rx="8" ry="8" style="stroke:#181818;stroke-width:0.5;"/><path d="M476.5,305.5278 L476.5,332.5278 M463.5,313.5278 L489.5,313.5278 M476.5,332.5278 L463.5,347.5278 M476.5,332.5278 L489.5,347.5278 " fill="none" style="stroke:#181818;stroke-width:0.5;"/><polygon fill="#181818" points="145.5,153.8419,155.5,157.8419,145.5,161.8419,149.5,157.8419" style="stroke:#181818;stroke-width:1.0;"/><line style="stroke:#181818;stroke-width:1.0;stroke-dasharray:2.0,2.0;" x1="36.5" x2="151.5" y1="157.8419" y2="157.8419"/><text fill="#000000" font-family="sans-serif" font-size="13" lengthAdjust="spacing" textLength="67" x="43.5" y="152.0328">HTTP POST</text><polygon fill="#181818" points="324,185.5479,334,189.5479,324,193.5479,328,189.5479" style="stroke:#181818;stroke-width:1.0;"/><line style="stroke:#181818;stroke-width:1.0;" x1="157.5" x2="330" y1="189.5479" y2="189.5479"/><text fill="#000000" font-family="sans-serif" font-size="13" lengthAdjust="spacing" textLength="41" x="164.5" y="183.7389">handle</text><polygon fill="#181818" points="464.5,217.2539,474.5,221.2539,464.5,225.2539,468.5,221.2539" style="stroke:#181818;stroke-width:1.0;"/><line style="stroke:#181818;stroke-width:1.0;stroke-dasharray:2.0,2.0;" x1="336" x2="470.5" y1="221.2539" y2="221.2539"/><text fill="#000000" font-family="sans-serif" font-size="13" lengthAdjust="spacing" textLength="41" x="343" y="215.4449">handle</text><polygon fill="#181818" points="47.5,248.9599,37.5,252.9599,47.5,256.9599,43.5,252.9599" style="stroke:#181818;stroke-width:1.0;"/><line style="stroke:#181818;stroke-width:1.0;stroke-dasharray:2.0,2.0;" x1="41.5" x2="156.5" y1="252.9599" y2="252.9599"/><text fill="#000000" font-family="sans-serif" font-size="13" lengthAdjust="spacing" textLength="82" x="53.5" y="247.1509">200 Response</text><!--MD5=[183f79ea13c15433b46a15eac5caaed4]
@startuml

title Forward Only

actor Supplier
participant ProxyRequestHandler
participant ForwardStreamHandlers
actor Destination

Supplier - -> ProxyRequestHandler: HTTP POST
ProxyRequestHandler -> ForwardStreamHandlers: handle
ForwardStreamHandlers - -> Destination: handle
ProxyRequestHandler - -> Supplier: 200 Response


@enduml

PlantUML version 1.2022.4(Sat Apr 09 14:29:17 BST 2022)
(GPL source distribution)
Java Runtime: OpenJDK Runtime Environment
JVM: OpenJDK 64-Bit Server VM
Default Encoding: UTF-8
Language: en
Country: GB
--></g></svg>