<?xml version="1.0" encoding="UTF-8" standalone="no"?><svg xmlns="http://www.w3.org/2000/svg" xmlns:xlink="http://www.w3.org/1999/xlink" contentScriptType="application/ecmascript" contentStyleType="text/css" height="633px" preserveAspectRatio="none" style="width:844px;height:633px;background:#FFFFFF;" version="1.1" viewBox="0 0 844 633" width="844px" zoomAndPan="magnify"><defs><filter height="300%" id="f152zdz374ol7v" width="300%" x="-1" y="-1"><feGaussianBlur result="blurOut" stdDeviation="2.0"/><feColorMatrix in="blurOut" result="blurOut2" type="matrix" values="0 0 0 0 0 0 0 0 0 0 0 0 0 0 0 0 0 0 .4 0"/><feOffset dx="4.0" dy="4.0" in="blurOut2" result="blurOut3"/><feBlend in="SourceGraphic" in2="blurOut3" mode="normal"/></filter></defs><g><text fill="#000000" font-family="sans-serif" font-size="18" lengthAdjust="spacing" textLength="175" x="336.75" y="31.2419">Forward Stored Data</text><rect fill="#FFFFFF" filter="url(#f152zdz374ol7v)" height="255.2361" style="stroke:#A80036;stroke-width:1.0;" width="10" x="217.5" y="234.7018"/><rect fill="#FFFFFF" filter="url(#f152zdz374ol7v)" height="183.5301" style="stroke:#A80036;stroke-width:1.0;" width="10" x="222.5" y="279.4078"/><line style="stroke:#A80036;stroke-width:1.0;stroke-dasharray:5.0,5.0;" x1="75" x2="75" y1="129.5838" y2="546.6439"/><line style="stroke:#A80036;stroke-width:1.0;stroke-dasharray:5.0,5.0;" x1="222" x2="222" y1="129.5838" y2="546.6439"/><line style="stroke:#A80036;stroke-width:1.0;stroke-dasharray:5.0,5.0;" x1="409.5" x2="409.5" y1="129.5838" y2="546.6439"/><line style="stroke:#A80036;stroke-width:1.0;stroke-dasharray:5.0,5.0;" x1="455.5" x2="455.5" y1="129.5838" y2="546.6439"/><line style="stroke:#A80036;stroke-width:1.0;stroke-dasharray:5.0,5.0;" x1="575.5" x2="575.5" y1="129.5838" y2="546.6439"/><line style="stroke:#A80036;stroke-width:1.0;stroke-dasharray:5.0,5.0;" x1="713.5" x2="713.5" y1="129.5838" y2="546.6439"/><line style="stroke:#A80036;stroke-width:1.0;stroke-dasharray:5.0,5.0;" x1="801.5" x2="801.5" y1="129.5838" y2="546.6439"/><rect fill="#FEFECE" filter="url(#f152zdz374ol7v)" height="33.0679" style="stroke:#A80036;stroke-width:1.5;" width="137" x="5" y="91.5158"/><text fill="#000000" font-family="sans-serif" font-size="14" lengthAdjust="spacing" textLength="123" x="12" y="113.4818">ProxyRepoSources</text><rect fill="#FEFECE" filter="url(#f152zdz374ol7v)" height="33.0679" style="stroke:#A80036;stroke-width:1.5;" width="137" x="5" y="545.6439"/><text fill="#000000" font-family="sans-serif" font-size="14" lengthAdjust="spacing" textLength="123" x="12" y="567.6099">ProxyRepoSources</text><rect fill="#FEFECE" filter="url(#f152zdz374ol7v)" height="33.0679" style="stroke:#A80036;stroke-width:1.5;" width="129" x="156" y="91.5158"/><text fill="#000000" font-family="sans-serif" font-size="14" lengthAdjust="spacing" textLength="115" x="163" y="113.4818">SourceForwarder</text><rect fill="#FEFECE" filter="url(#f152zdz374ol7v)" height="33.0679" style="stroke:#A80036;stroke-width:1.5;" width="129" x="156" y="545.6439"/><text fill="#000000" font-family="sans-serif" font-size="14" lengthAdjust="spacing" textLength="115" x="163" y="567.6099">SourceForwarder</text><text fill="#000000" font-family="sans-serif" font-size="14" lengthAdjust="spacing" textLength="18" x="397.5" y="125.4818">db</text><path d="M391.5,74.5158 C391.5,64.5158 409.5,64.5158 409.5,64.5158 C409.5,64.5158 427.5,64.5158 427.5,74.5158 L427.5,100.5158 C427.5,110.5158 409.5,110.5158 409.5,110.5158 C409.5,110.5158 391.5,110.5158 391.5,100.5158 L391.5,74.5158 " fill="#FEFECE" filter="url(#f152zdz374ol7v)" style="stroke:#000000;stroke-width:1.5;"/><path d="M391.5,74.5158 C391.5,84.5158 409.5,84.5158 409.5,84.5158 C409.5,84.5158 427.5,84.5158 427.5,74.5158 " fill="none" style="stroke:#000000;stroke-width:1.5;"/><text fill="#000000" font-family="sans-serif" font-size="14" lengthAdjust="spacing" textLength="18" x="397.5" y="560.6099">db</text><path d="M391.5,574.7118 C391.5,564.7118 409.5,564.7118 409.5,564.7118 C409.5,564.7118 427.5,564.7118 427.5,574.7118 L427.5,600.7118 C427.5,610.7118 409.5,610.7118 409.5,610.7118 C409.5,610.7118 391.5,610.7118 391.5,600.7118 L391.5,574.7118 " fill="#FEFECE" filter="url(#f152zdz374ol7v)" style="stroke:#000000;stroke-width:1.5;"/><path d="M391.5,574.7118 C391.5,584.7118 409.5,584.7118 409.5,584.7118 C409.5,584.7118 427.5,584.7118 427.5,574.7118 " fill="none" style="stroke:#000000;stroke-width:1.5;"/><text fill="#000000" font-family="sans-serif" font-size="14" lengthAdjust="spacing" textLength="31" x="437.5" y="125.4818">repo</text><path d="M438,74.5158 C438,64.5158 456,64.5158 456,64.5158 C456,64.5158 474,64.5158 474,74.5158 L474,100.5158 C474,110.5158 456,110.5158 456,110.5158 C456,110.5158 438,110.5158 438,100.5158 L438,74.5158 " fill="#FEFECE" filter="url(#f152zdz374ol7v)" style="stroke:#000000;stroke-width:1.5;"/><path d="M438,74.5158 C438,84.5158 456,84.5158 456,84.5158 C456,84.5158 474,84.5158 474,74.5158 " fill="none" style="stroke:#000000;stroke-width:1.5;"/><text fill="#000000" font-family="sans-serif" font-size="14" lengthAdjust="spacing" textLength="31" x="437.5" y="560.6099">repo</text><path d="M438,574.7118 C438,564.7118 456,564.7118 456,564.7118 C456,564.7118 474,564.7118 474,574.7118 L474,600.7118 C474,610.7118 456,610.7118 456,610.7118 C456,610.7118 438,610.7118 438,600.7118 L438,574.7118 " fill="#FEFECE" filter="url(#f152zdz374ol7v)" style="stroke:#000000;stroke-width:1.5;"/><path d="M438,574.7118 C438,584.7118 456,584.7118 456,584.7118 C456,584.7118 474,584.7118 474,574.7118 " fill="none" style="stroke:#000000;stroke-width:1.5;"/><rect fill="#FEFECE" filter="url(#f152zdz374ol7v)" height="33.0679" style="stroke:#A80036;stroke-width:1.5;" width="178" x="484.5" y="91.5158"/><text fill="#000000" font-family="sans-serif" font-size="14" lengthAdjust="spacing" textLength="164" x="491.5" y="113.4818">ForwardStreamHandlers</text><rect fill="#FEFECE" filter="url(#f152zdz374ol7v)" height="33.0679" style="stroke:#A80036;stroke-width:1.5;" width="178" x="484.5" y="545.6439"/><text fill="#000000" font-family="sans-serif" font-size="14" lengthAdjust="spacing" textLength="164" x="491.5" y="567.6099">ForwardStreamHandlers</text><rect fill="#FEFECE" filter="url(#f152zdz374ol7v)" height="33.0679" style="stroke:#A80036;stroke-width:1.5;" width="70" x="676.5" y="91.5158"/><text fill="#000000" font-family="sans-serif" font-size="14" lengthAdjust="spacing" textLength="56" x="683.5" y="113.4818">Cleanup</text><rect fill="#FEFECE" filter="url(#f152zdz374ol7v)" height="33.0679" style="stroke:#A80036;stroke-width:1.5;" width="70" x="676.5" y="545.6439"/><text fill="#000000" font-family="sans-serif" font-size="14" lengthAdjust="spacing" textLength="56" x="683.5" y="567.6099">Cleanup</text><text fill="#000000" font-family="sans-serif" font-size="14" lengthAdjust="spacing" textLength="77" x="760.5" y="125.4818">Destination</text><ellipse cx="802" cy="53.5158" fill="#FEFECE" filter="url(#f152zdz374ol7v)" rx="8" ry="8" style="stroke:#A80036;stroke-width:2.0;"/><path d="M802,61.5158 L802,88.5158 M789,69.5158 L815,69.5158 M802,88.5158 L789,103.5158 M802,88.5158 L815,103.5158 " fill="none" filter="url(#f152zdz374ol7v)" style="stroke:#A80036;stroke-width:2.0;"/><text fill="#000000" font-family="sans-serif" font-size="14" lengthAdjust="spacing" textLength="77" x="760.5" y="560.6099">Destination</text><ellipse cx="802" cy="574.7118" fill="#FEFECE" filter="url(#f152zdz374ol7v)" rx="8" ry="8" style="stroke:#A80036;stroke-width:2.0;"/><path d="M802,582.7118 L802,609.7118 M789,590.7118 L815,590.7118 M802,609.7118 L789,624.7118 M802,609.7118 L815,624.7118 " fill="none" filter="url(#f152zdz374ol7v)" style="stroke:#A80036;stroke-width:2.0;"/><rect fill="#FFFFFF" filter="url(#f152zdz374ol7v)" height="255.2361" style="stroke:#A80036;stroke-width:1.0;" width="10" x="217.5" y="234.7018"/><rect fill="#FFFFFF" filter="url(#f152zdz374ol7v)" height="183.5301" style="stroke:#A80036;stroke-width:1.0;" width="10" x="222.5" y="279.4078"/><line style="stroke:#A80036;stroke-width:1.0;" x1="220.5" x2="210.5" y1="163.2898" y2="167.2898"/><line style="stroke:#A80036;stroke-width:1.0;stroke-dasharray:2.0,2.0;" x1="75.5" x2="221.5" y1="163.2898" y2="163.2898"/><text fill="#000000" font-family="sans-serif" font-size="13" lengthAdjust="spacing" textLength="62" x="82.5" y="157.4808">onChange</text><polygon fill="#A80036" points="397.5,190.9958,407.5,194.9958,397.5,198.9958,401.5,194.9958" style="stroke:#A80036;stroke-width:1.0;"/><line style="stroke:#A80036;stroke-width:1.0;" x1="222.5" x2="403.5" y1="194.9958" y2="194.9958"/><text fill="#000000" font-family="sans-serif" font-size="13" lengthAdjust="spacing" textLength="103" x="229.5" y="189.1868">Find new sources</text><line style="stroke:#A80036;stroke-width:1.0;" x1="222.5" x2="269.5" y1="221.7018" y2="221.7018"/><line style="stroke:#A80036;stroke-width:1.0;" x1="269.5" x2="269.5" y1="221.7018" y2="234.7018"/><line style="stroke:#A80036;stroke-width:1.0;" x1="228.5" x2="269.5" y1="234.7018" y2="234.7018"/><line style="stroke:#A80036;stroke-width:1.0;" x1="228.5" x2="238.5" y1="234.7018" y2="238.7018"/><text fill="#000000" font-family="sans-serif" font-size="13" lengthAdjust="spacing" textLength="100" x="234.5" y="215.8928">Forward Sources</text><line style="stroke:#A80036;stroke-width:1.0;" x1="227.5" x2="274.5" y1="266.4078" y2="266.4078"/><line style="stroke:#A80036;stroke-width:1.0;" x1="274.5" x2="274.5" y1="266.4078" y2="279.4078"/><line style="stroke:#A80036;stroke-width:1.0;" x1="233.5" x2="274.5" y1="279.4078" y2="279.4078"/><line style="stroke:#A80036;stroke-width:1.0;" x1="233.5" x2="243.5" y1="279.4078" y2="283.4078"/><text fill="#000000" font-family="sans-serif" font-size="13" lengthAdjust="spacing" textLength="94" x="239.5" y="260.5988">Forward Source</text><polygon fill="#A80036" points="444,312.1138,454,316.1138,444,320.1138,448,316.1138" style="stroke:#A80036;stroke-width:1.0;"/><line style="stroke:#A80036;stroke-width:1.0;" x1="232.5" x2="450" y1="316.1138" y2="316.1138"/><text fill="#000000" font-family="sans-serif" font-size="13" lengthAdjust="spacing" textLength="27" x="239.5" y="310.3048">read</text><polygon fill="#A80036" points="563.5,343.8199,573.5,347.8199,563.5,351.8199,567.5,347.8199" style="stroke:#A80036;stroke-width:1.0;"/><line style="stroke:#A80036;stroke-width:1.0;" x1="232.5" x2="569.5" y1="347.8199" y2="347.8199"/><text fill="#000000" font-family="sans-serif" font-size="13" lengthAdjust="spacing" textLength="30" x="239.5" y="342.0109">write</text><polygon fill="#A80036" points="790,375.5259,800,379.5259,790,383.5259,794,379.5259" style="stroke:#A80036;stroke-width:1.0;"/><line style="stroke:#A80036;stroke-width:1.0;stroke-dasharray:2.0,2.0;" x1="575.5" x2="796" y1="379.5259" y2="379.5259"/><text fill="#000000" font-family="sans-serif" font-size="13" lengthAdjust="spacing" textLength="41" x="582.5" y="373.7169">handle</text><polygon fill="#A80036" points="397.5,407.2319,407.5,411.2319,397.5,415.2319,401.5,411.2319" style="stroke:#A80036;stroke-width:1.0;"/><line style="stroke:#A80036;stroke-width:1.0;" x1="232.5" x2="403.5" y1="411.2319" y2="411.2319"/><text fill="#000000" font-family="sans-serif" font-size="13" lengthAdjust="spacing" textLength="141" x="239.5" y="405.4229">record 'forward_source'</text><polygon fill="#A80036" points="397.5,438.9379,407.5,442.9379,397.5,446.9379,401.5,442.9379" style="stroke:#A80036;stroke-width:1.0;"/><line style="stroke:#A80036;stroke-width:1.0;" x1="232.5" x2="403.5" y1="442.9379" y2="442.9379"/><text fill="#000000" font-family="sans-serif" font-size="13" lengthAdjust="spacing" textLength="153" x="239.5" y="437.1289">record 'source' forwarded</text><line style="stroke:#A80036;stroke-width:1.0;stroke-dasharray:2.0,2.0;" x1="232.5" x2="274.5" y1="461.9379" y2="461.9379"/><line style="stroke:#A80036;stroke-width:1.0;stroke-dasharray:2.0,2.0;" x1="274.5" x2="274.5" y1="461.9379" y2="474.9379"/><line style="stroke:#A80036;stroke-width:1.0;stroke-dasharray:2.0,2.0;" x1="227.5" x2="274.5" y1="474.9379" y2="474.9379"/><line style="stroke:#A80036;stroke-width:1.0;" x1="227.5" x2="237.5" y1="474.9379" y2="478.9379"/><line style="stroke:#A80036;stroke-width:1.0;stroke-dasharray:2.0,2.0;" x1="227.5" x2="269.5" y1="488.9379" y2="488.9379"/><line style="stroke:#A80036;stroke-width:1.0;stroke-dasharray:2.0,2.0;" x1="269.5" x2="269.5" y1="488.9379" y2="501.9379"/><line style="stroke:#A80036;stroke-width:1.0;stroke-dasharray:2.0,2.0;" x1="222.5" x2="269.5" y1="501.9379" y2="501.9379"/><line style="stroke:#A80036;stroke-width:1.0;" x1="222.5" x2="232.5" y1="501.9379" y2="505.9379"/><line style="stroke:#A80036;stroke-width:1.0;" x1="711.5" x2="701.5" y1="528.6439" y2="532.6439"/><line style="stroke:#A80036;stroke-width:1.0;stroke-dasharray:2.0,2.0;" x1="222.5" x2="712.5" y1="528.6439" y2="528.6439"/><text fill="#000000" font-family="sans-serif" font-size="13" lengthAdjust="spacing" textLength="62" x="229.5" y="522.8349">onChange</text><!--MD5=[618f2635476ecc7928c1731dc3fa259e]
@startuml

title Forward Stored Data

participant ProxyRepoSources
participant SourceForwarder
database db
database repo
participant ForwardStreamHandlers
participant Cleanup
actor Destination

ProxyRepoSources - -// SourceForwarder: onChange
SourceForwarder -> db: Find new sources
SourceForwarder -// SourceForwarder++: Forward Sources
SourceForwarder -// SourceForwarder++: Forward Source
SourceForwarder -> repo: read
SourceForwarder -> ForwardStreamHandlers: write
ForwardStreamHandlers - -> Destination: handle
SourceForwarder -> db: record 'forward_source'

SourceForwarder -> db: record 'source' forwarded
return
return

SourceForwarder - -// Cleanup: onChange

@enduml

PlantUML version 1.2021.16(Wed Dec 08 17:25:22 GMT 2021)
(GPL source distribution)
Java Runtime: OpenJDK Runtime Environment
JVM: OpenJDK 64-Bit Server VM
Default Encoding: UTF-8
Language: en
Country: GB
--></g></svg>