<?xml version="1.0" encoding="UTF-8" standalone="no"?><svg xmlns="http://www.w3.org/2000/svg" xmlns:xlink="http://www.w3.org/1999/xlink" contentScriptType="application/ecmascript" contentStyleType="text/css" height="344px" preserveAspectRatio="none" style="width:533px;height:344px;" version="1.1" viewBox="0 0 533 344" width="533px" zoomAndPan="magnify"><defs><filter height="300%" id="f1s2w9hyfl3gdl" width="300%" x="-1" y="-1"><feGaussianBlur result="blurOut" stdDeviation="2.0"/><feColorMatrix in="blurOut" result="blurOut2" type="matrix" values="0 0 0 0 0 0 0 0 0 0 0 0 0 0 0 0 0 0 .4 0"/><feOffset dx="4.0" dy="4.0" in="blurOut2" result="blurOut3"/><feBlend in="SourceGraphic" in2="blurOut3" mode="normal"/></filter></defs><g><text fill="#000000" font-family="sans-serif" font-size="18" lengthAdjust="spacing" textLength="121" x="208" y="28.708">Forward Only</text><line style="stroke:#A80036;stroke-width:1.0;stroke-dasharray:5.0,5.0;" x1="36" x2="36" y1="123.25" y2="259.7813"/><line style="stroke:#A80036;stroke-width:1.0;stroke-dasharray:5.0,5.0;" x1="160" x2="160" y1="123.25" y2="259.7813"/><line style="stroke:#A80036;stroke-width:1.0;stroke-dasharray:5.0,5.0;" x1="345" x2="345" y1="123.25" y2="259.7813"/><line style="stroke:#A80036;stroke-width:1.0;stroke-dasharray:5.0,5.0;" x1="489" x2="489" y1="123.25" y2="259.7813"/><text fill="#000000" font-family="sans-serif" font-size="14" lengthAdjust="spacing" textLength="56" x="5" y="119.9482">Supplier</text><ellipse cx="36" cy="49.9531" fill="#FEFECE" filter="url(#f1s2w9hyfl3gdl)" rx="8" ry="8" style="stroke:#A80036;stroke-width:2.0;"/><path d="M36,57.9531 L36,84.9531 M23,65.9531 L49,65.9531 M36,84.9531 L23,99.9531 M36,84.9531 L49,99.9531 " fill="none" filter="url(#f1s2w9hyfl3gdl)" style="stroke:#A80036;stroke-width:2.0;"/><text fill="#000000" font-family="sans-serif" font-size="14" lengthAdjust="spacing" textLength="56" x="5" y="271.7764">Supplier</text><ellipse cx="36" cy="285.0781" fill="#FEFECE" filter="url(#f1s2w9hyfl3gdl)" rx="8" ry="8" style="stroke:#A80036;stroke-width:2.0;"/><path d="M36,293.0781 L36,320.0781 M23,301.0781 L49,301.0781 M36,320.0781 L23,335.0781 M36,320.0781 L49,335.0781 " fill="none" filter="url(#f1s2w9hyfl3gdl)" style="stroke:#A80036;stroke-width:2.0;"/><rect fill="#FEFECE" filter="url(#f1s2w9hyfl3gdl)" height="30.2969" style="stroke:#A80036;stroke-width:1.5;" width="163" x="77" y="87.9531"/><text fill="#000000" font-family="sans-serif" font-size="14" lengthAdjust="spacing" textLength="149" x="84" y="107.9482">ProxyRequestHandler</text><rect fill="#FEFECE" filter="url(#f1s2w9hyfl3gdl)" height="30.2969" style="stroke:#A80036;stroke-width:1.5;" width="163" x="77" y="258.7813"/><text fill="#000000" font-family="sans-serif" font-size="14" lengthAdjust="spacing" textLength="149" x="84" y="278.7764">ProxyRequestHandler</text><rect fill="#FEFECE" filter="url(#f1s2w9hyfl3gdl)" height="30.2969" style="stroke:#A80036;stroke-width:1.5;" width="179" x="254" y="87.9531"/><text fill="#000000" font-family="sans-serif" font-size="14" lengthAdjust="spacing" textLength="165" x="261" y="107.9482">ForwardStreamHandlers</text><rect fill="#FEFECE" filter="url(#f1s2w9hyfl3gdl)" height="30.2969" style="stroke:#A80036;stroke-width:1.5;" width="179" x="254" y="258.7813"/><text fill="#000000" font-family="sans-serif" font-size="14" lengthAdjust="spacing" textLength="165" x="261" y="278.7764">ForwardStreamHandlers</text><text fill="#000000" font-family="sans-serif" font-size="14" lengthAdjust="spacing" textLength="79" x="447" y="119.9482">Destination</text><ellipse cx="489.5" cy="49.9531" fill="#FEFECE" filter="url(#f1s2w9hyfl3gdl)" rx="8" ry="8" style="stroke:#A80036;stroke-width:2.0;"/><path d="M489.5,57.9531 L489.5,84.9531 M476.5,65.9531 L502.5,65.9531 M489.5,84.9531 L476.5,99.9531 M489.5,84.9531 L502.5,99.9531 " fill="none" filter="url(#f1s2w9hyfl3gdl)" style="stroke:#A80036;stroke-width:2.0;"/><text fill="#000000" font-family="sans-serif" font-size="14" lengthAdjust="spacing" textLength="79" x="447" y="271.7764">Destination</text><ellipse cx="489.5" cy="285.0781" fill="#FEFECE" filter="url(#f1s2w9hyfl3gdl)" rx="8" ry="8" style="stroke:#A80036;stroke-width:2.0;"/><path d="M489.5,293.0781 L489.5,320.0781 M476.5,301.0781 L502.5,301.0781 M489.5,320.0781 L476.5,335.0781 M489.5,320.0781 L502.5,335.0781 " fill="none" filter="url(#f1s2w9hyfl3gdl)" style="stroke:#A80036;stroke-width:2.0;"/><polygon fill="#A80036" points="148.5,150.3828,158.5,154.3828,148.5,158.3828,152.5,154.3828" style="stroke:#A80036;stroke-width:1.0;"/><line style="stroke:#A80036;stroke-width:1.0;stroke-dasharray:2.0,2.0;" x1="36" x2="154.5" y1="154.3828" y2="154.3828"/><text fill="#000000" font-family="sans-serif" font-size="13" lengthAdjust="spacing" textLength="70" x="43" y="149.3169">HTTP POST</text><polygon fill="#A80036" points="333.5,179.5156,343.5,183.5156,333.5,187.5156,337.5,183.5156" style="stroke:#A80036;stroke-width:1.0;"/><line style="stroke:#A80036;stroke-width:1.0;" x1="160.5" x2="339.5" y1="183.5156" y2="183.5156"/><text fill="#000000" font-family="sans-serif" font-size="13" lengthAdjust="spacing" textLength="43" x="167.5" y="178.4497">handle</text><polygon fill="#A80036" points="477.5,208.6484,487.5,212.6484,477.5,216.6484,481.5,212.6484" style="stroke:#A80036;stroke-width:1.0;"/><line style="stroke:#A80036;stroke-width:1.0;stroke-dasharray:2.0,2.0;" x1="345.5" x2="483.5" y1="212.6484" y2="212.6484"/><text fill="#000000" font-family="sans-serif" font-size="13" lengthAdjust="spacing" textLength="43" x="352.5" y="207.5825">handle</text><polygon fill="#A80036" points="47,237.7813,37,241.7813,47,245.7813,43,241.7813" style="stroke:#A80036;stroke-width:1.0;"/><line style="stroke:#A80036;stroke-width:1.0;stroke-dasharray:2.0,2.0;" x1="41" x2="159.5" y1="241.7813" y2="241.7813"/><text fill="#000000" font-family="sans-serif" font-size="13" lengthAdjust="spacing" textLength="90" x="53" y="236.7153">200 Response</text><!--MD5=[500a0911b1d3960f15331b0987f076d0]
@startuml

title Forward Only

actor Supplier
participant ProxyRequestHandler
participant ForwardStreamHandlers
actor Destination

Supplier - -> ProxyRequestHandler: HTTP POST
ProxyRequestHandler -> ForwardStreamHandlers: handle
ForwardStreamHandlers - -> Destination: handle
ProxyRequestHandler - -> Supplier: 200 Response


@enduml

PlantUML version 1.2021.00(Sun Jan 10 10:25:05 GMT 2021)
(GPL source distribution)
Java Runtime: OpenJDK Runtime Environment
JVM: OpenJDK 64-Bit Server VM
Default Encoding: UTF-8
Language: en
Country: GB
--></g></svg>