<?xml version="1.0" encoding="us-ascii" standalone="no"?><!--
  - Copyright 2016-2025 Crown Copyright
  -
  - Licensed under the Apache License, Version 2.0 (the "License");
  - you may not use this file except in compliance with the License.
  - You may obtain a copy of the License at
  -
  -     http://www.apache.org/licenses/LICENSE-2.0
  -
  - Unless required by applicable law or agreed to in writing, software
  - distributed under the License is distributed on an "AS IS" BASIS,
  - WITHOUT WARRANTIES OR CONDITIONS OF ANY KIND, either express or implied.
  - See the License for the specific language governing permissions and
  - limitations under the License.
  -->

<svg xmlns="http://www.w3.org/2000/svg" xmlns:xlink="http://www.w3.org/1999/xlink" contentStyleType="text/css" height="590px" preserveAspectRatio="none" style="width:853px;height:590px;background:#FFFFFF;" version="1.1" viewBox="0 0 853 590" width="853px" zoomAndPan="magnify"><defs/><g><text fill="#000000" font-family="sans-serif" font-size="14" font-weight="bold" lengthAdjust="spacing" textLength="164" x="346" y="27.9951">Forward Stored Data</text><rect fill="#FFFFFF" height="239.7969" style="stroke:#181818;stroke-width:1.0;" width="10" x="221" y="215.9922"/><rect fill="#FFFFFF" height="170.6641" style="stroke:#181818;stroke-width:1.0;" width="10" x="226" y="258.125"/><line style="stroke:#181818;stroke-width:0.5;stroke-dasharray:5.0,5.0;" x1="77" x2="77" y1="118.5938" y2="509.9219"/><line style="stroke:#181818;stroke-width:0.5;stroke-dasharray:5.0,5.0;" x1="226" x2="226" y1="118.5938" y2="509.9219"/><line style="stroke:#181818;stroke-width:0.5;stroke-dasharray:5.0,5.0;" x1="421" x2="421" y1="118.5938" y2="509.9219"/><line style="stroke:#181818;stroke-width:0.5;stroke-dasharray:5.0,5.0;" x1="468" x2="468" y1="118.5938" y2="509.9219"/><line style="stroke:#181818;stroke-width:0.5;stroke-dasharray:5.0,5.0;" x1="586" x2="586" y1="118.5938" y2="509.9219"/><line style="stroke:#181818;stroke-width:0.5;stroke-dasharray:5.0,5.0;" x1="721" x2="721" y1="118.5938" y2="509.9219"/><line style="stroke:#181818;stroke-width:0.5;stroke-dasharray:5.0,5.0;" x1="809" x2="809" y1="118.5938" y2="509.9219"/><rect fill="#E2E2F0" height="30.2969" rx="2.5" ry="2.5" style="stroke:#181818;stroke-width:0.5;" width="145" x="5" y="87.2969"/><text fill="#000000" font-family="sans-serif" font-size="14" lengthAdjust="spacing" textLength="131" x="12" y="107.292">ProxyRepoSources</text><rect fill="#E2E2F0" height="30.2969" rx="2.5" ry="2.5" style="stroke:#181818;stroke-width:0.5;" width="145" x="5" y="508.9219"/><text fill="#000000" font-family="sans-serif" font-size="14" lengthAdjust="spacing" textLength="131" x="12" y="528.917">ProxyRepoSources</text><rect fill="#E2E2F0" height="30.2969" rx="2.5" ry="2.5" style="stroke:#181818;stroke-width:0.5;" width="132" x="160" y="87.2969"/><text fill="#000000" font-family="sans-serif" font-size="14" lengthAdjust="spacing" textLength="118" x="167" y="107.292">SourceForwarder</text><rect fill="#E2E2F0" height="30.2969" rx="2.5" ry="2.5" style="stroke:#181818;stroke-width:0.5;" width="132" x="160" y="508.9219"/><text fill="#000000" font-family="sans-serif" font-size="14" lengthAdjust="spacing" textLength="118" x="167" y="528.917">SourceForwarder</text><text fill="#000000" font-family="sans-serif" font-size="14" lengthAdjust="spacing" textLength="18" x="409" y="115.292">db</text><path d="M403,66.2969 C403,56.2969 421,56.2969 421,56.2969 C421,56.2969 439,56.2969 439,66.2969 L439,92.2969 C439,102.2969 421,102.2969 421,102.2969 C421,102.2969 403,102.2969 403,92.2969 L403,66.2969 " fill="#E2E2F0" style="stroke:#181818;stroke-width:1.5;"/><path d="M403,66.2969 C403,76.2969 421,76.2969 421,76.2969 C421,76.2969 439,76.2969 439,66.2969 " fill="none" style="stroke:#181818;stroke-width:1.5;"/><text fill="#000000" font-family="sans-serif" font-size="14" lengthAdjust="spacing" textLength="18" x="409" y="521.917">db</text><path d="M403,535.2188 C403,525.2188 421,525.2188 421,525.2188 C421,525.2188 439,525.2188 439,535.2188 L439,561.2188 C439,571.2188 421,571.2188 421,571.2188 C421,571.2188 403,571.2188 403,561.2188 L403,535.2188 " fill="#E2E2F0" style="stroke:#181818;stroke-width:1.5;"/><path d="M403,535.2188 C403,545.2188 421,545.2188 421,545.2188 C421,545.2188 439,545.2188 439,535.2188 " fill="none" style="stroke:#181818;stroke-width:1.5;"/><text fill="#000000" font-family="sans-serif" font-size="14" lengthAdjust="spacing" textLength="32" x="449" y="115.292">repo</text><path d="M450,66.2969 C450,56.2969 468,56.2969 468,56.2969 C468,56.2969 486,56.2969 486,66.2969 L486,92.2969 C486,102.2969 468,102.2969 468,102.2969 C468,102.2969 450,102.2969 450,92.2969 L450,66.2969 " fill="#E2E2F0" style="stroke:#181818;stroke-width:1.5;"/><path d="M450,66.2969 C450,76.2969 468,76.2969 468,76.2969 C468,76.2969 486,76.2969 486,66.2969 " fill="none" style="stroke:#181818;stroke-width:1.5;"/><text fill="#000000" font-family="sans-serif" font-size="14" lengthAdjust="spacing" textLength="32" x="449" y="521.917">repo</text><path d="M450,535.2188 C450,525.2188 468,525.2188 468,525.2188 C468,525.2188 486,525.2188 486,535.2188 L486,561.2188 C486,571.2188 468,571.2188 468,571.2188 C468,571.2188 450,571.2188 450,561.2188 L450,535.2188 " fill="#E2E2F0" style="stroke:#181818;stroke-width:1.5;"/><path d="M450,535.2188 C450,545.2188 468,545.2188 468,545.2188 C468,545.2188 486,545.2188 486,535.2188 " fill="none" style="stroke:#181818;stroke-width:1.5;"/><rect fill="#E2E2F0" height="30.2969" rx="2.5" ry="2.5" style="stroke:#181818;stroke-width:0.5;" width="179" x="497" y="87.2969"/><text fill="#000000" font-family="sans-serif" font-size="14" lengthAdjust="spacing" textLength="165" x="504" y="107.292">ForwardStreamHandlers</text><rect fill="#E2E2F0" height="30.2969" rx="2.5" ry="2.5" style="stroke:#181818;stroke-width:0.5;" width="179" x="497" y="508.9219"/><text fill="#000000" font-family="sans-serif" font-size="14" lengthAdjust="spacing" textLength="165" x="504" y="528.917">ForwardStreamHandlers</text><rect fill="#E2E2F0" height="30.2969" rx="2.5" ry="2.5" style="stroke:#181818;stroke-width:0.5;" width="71" x="686" y="87.2969"/><text fill="#000000" font-family="sans-serif" font-size="14" lengthAdjust="spacing" textLength="57" x="693" y="107.292">Cleanup</text><rect fill="#E2E2F0" height="30.2969" rx="2.5" ry="2.5" style="stroke:#181818;stroke-width:0.5;" width="71" x="686" y="508.9219"/><text fill="#000000" font-family="sans-serif" font-size="14" lengthAdjust="spacing" textLength="57" x="693" y="528.917">Cleanup</text><text fill="#000000" font-family="sans-serif" font-size="14" lengthAdjust="spacing" textLength="79" x="767" y="115.292">Destination</text><ellipse cx="809.5" cy="50.7969" fill="#E2E2F0" rx="8" ry="8" style="stroke:#181818;stroke-width:0.5;"/><path d="M809.5,58.7969 L809.5,85.7969 M796.5,66.7969 L822.5,66.7969 M809.5,85.7969 L796.5,100.7969 M809.5,85.7969 L822.5,100.7969 " fill="none" style="stroke:#181818;stroke-width:0.5;"/><text fill="#000000" font-family="sans-serif" font-size="14" lengthAdjust="spacing" textLength="79" x="767" y="521.917">Destination</text><ellipse cx="809.5" cy="533.7188" fill="#E2E2F0" rx="8" ry="8" style="stroke:#181818;stroke-width:0.5;"/><path d="M809.5,541.7188 L809.5,568.7188 M796.5,549.7188 L822.5,549.7188 M809.5,568.7188 L796.5,583.7188 M809.5,568.7188 L822.5,583.7188 " fill="none" style="stroke:#181818;stroke-width:0.5;"/><rect fill="#FFFFFF" height="239.7969" style="stroke:#181818;stroke-width:1.0;" width="10" x="221" y="215.9922"/><rect fill="#FFFFFF" height="170.6641" style="stroke:#181818;stroke-width:1.0;" width="10" x="226" y="258.125"/><line style="stroke:#181818;stroke-width:1.0;" x1="224" x2="214" y1="149.7266" y2="153.7266"/><line style="stroke:#181818;stroke-width:1.0;stroke-dasharray:2.0,2.0;" x1="77.5" x2="225" y1="149.7266" y2="149.7266"/><text fill="#000000" font-family="sans-serif" font-size="13" lengthAdjust="spacing" textLength="65" x="84.5" y="144.6606">onChange</text><polygon fill="#181818" points="409,174.8594,419,178.8594,409,182.8594,413,178.8594" style="stroke:#181818;stroke-width:1.0;"/><line style="stroke:#181818;stroke-width:1.0;" x1="226" x2="415" y1="178.8594" y2="178.8594"/><text fill="#000000" font-family="sans-serif" font-size="13" lengthAdjust="spacing" textLength="109" x="233" y="173.7935">Find new sources</text><line style="stroke:#181818;stroke-width:1.0;" x1="226" x2="273" y1="202.9922" y2="202.9922"/><line style="stroke:#181818;stroke-width:1.0;" x1="273" x2="273" y1="202.9922" y2="215.9922"/><line style="stroke:#181818;stroke-width:1.0;" x1="232" x2="273" y1="215.9922" y2="215.9922"/><line style="stroke:#181818;stroke-width:1.0;" x1="232" x2="242" y1="215.9922" y2="219.9922"/><text fill="#000000" font-family="sans-serif" font-size="13" lengthAdjust="spacing" textLength="106" x="238" y="197.9263">Forward Sources</text><line style="stroke:#181818;stroke-width:1.0;" x1="231" x2="278" y1="245.125" y2="245.125"/><line style="stroke:#181818;stroke-width:1.0;" x1="278" x2="278" y1="245.125" y2="258.125"/><line style="stroke:#181818;stroke-width:1.0;" x1="237" x2="278" y1="258.125" y2="258.125"/><line style="stroke:#181818;stroke-width:1.0;" x1="237" x2="247" y1="258.125" y2="262.125"/><text fill="#000000" font-family="sans-serif" font-size="13" lengthAdjust="spacing" textLength="99" x="243" y="240.0591">Forward Source</text><polygon fill="#181818" points="456,288.2578,466,292.2578,456,296.2578,460,292.2578" style="stroke:#181818;stroke-width:1.0;"/><line style="stroke:#181818;stroke-width:1.0;" x1="236" x2="462" y1="292.2578" y2="292.2578"/><text fill="#000000" font-family="sans-serif" font-size="13" lengthAdjust="spacing" textLength="29" x="243" y="287.1919">read</text><polygon fill="#181818" points="574.5,317.3906,584.5,321.3906,574.5,325.3906,578.5,321.3906" style="stroke:#181818;stroke-width:1.0;"/><line style="stroke:#181818;stroke-width:1.0;" x1="236" x2="580.5" y1="321.3906" y2="321.3906"/><text fill="#000000" font-family="sans-serif" font-size="13" lengthAdjust="spacing" textLength="30" x="243" y="316.3247">write</text><polygon fill="#181818" points="797.5,346.5234,807.5,350.5234,797.5,354.5234,801.5,350.5234" style="stroke:#181818;stroke-width:1.0;"/><line style="stroke:#181818;stroke-width:1.0;stroke-dasharray:2.0,2.0;" x1="586.5" x2="803.5" y1="350.5234" y2="350.5234"/><text fill="#000000" font-family="sans-serif" font-size="13" lengthAdjust="spacing" textLength="43" x="593.5" y="345.4575">handle</text><polygon fill="#181818" points="409,375.6563,419,379.6563,409,383.6563,413,379.6563" style="stroke:#181818;stroke-width:1.0;"/><line style="stroke:#181818;stroke-width:1.0;" x1="236" x2="415" y1="379.6563" y2="379.6563"/><text fill="#000000" font-family="sans-serif" font-size="13" lengthAdjust="spacing" textLength="148" x="243" y="374.5903">record 'forward_source'</text><polygon fill="#181818" points="409,404.7891,419,408.7891,409,412.7891,413,408.7891" style="stroke:#181818;stroke-width:1.0;"/><line style="stroke:#181818;stroke-width:1.0;" x1="236" x2="415" y1="408.7891" y2="408.7891"/><text fill="#000000" font-family="sans-serif" font-size="13" lengthAdjust="spacing" textLength="161" x="243" y="403.7231">record 'source' forwarded</text><line style="stroke:#181818;stroke-width:1.0;stroke-dasharray:2.0,2.0;" x1="236" x2="278" y1="427.7891" y2="427.7891"/><line style="stroke:#181818;stroke-width:1.0;stroke-dasharray:2.0,2.0;" x1="278" x2="278" y1="427.7891" y2="440.7891"/><line style="stroke:#181818;stroke-width:1.0;stroke-dasharray:2.0,2.0;" x1="231" x2="278" y1="440.7891" y2="440.7891"/><line style="stroke:#181818;stroke-width:1.0;" x1="231" x2="241" y1="440.7891" y2="444.7891"/><line style="stroke:#181818;stroke-width:1.0;stroke-dasharray:2.0,2.0;" x1="231" x2="273" y1="454.7891" y2="454.7891"/><line style="stroke:#181818;stroke-width:1.0;stroke-dasharray:2.0,2.0;" x1="273" x2="273" y1="454.7891" y2="467.7891"/><line style="stroke:#181818;stroke-width:1.0;stroke-dasharray:2.0,2.0;" x1="226" x2="273" y1="467.7891" y2="467.7891"/><line style="stroke:#181818;stroke-width:1.0;" x1="226" x2="236" y1="467.7891" y2="471.7891"/><line style="stroke:#181818;stroke-width:1.0;" x1="719.5" x2="709.5" y1="491.9219" y2="495.9219"/><line style="stroke:#181818;stroke-width:1.0;stroke-dasharray:2.0,2.0;" x1="226" x2="720.5" y1="491.9219" y2="491.9219"/><text fill="#000000" font-family="sans-serif" font-size="13" lengthAdjust="spacing" textLength="65" x="233" y="486.856">onChange</text><!--SRC=[fP6zRiCm38HtFWMt386HNKEM147787w0WB7OHe136JGDjszVfLQH-AVea4KIT7V4wPC5gnaFKNjIZwL5POzxCW9eI2rKeI4nF6hy_3fn4ylOQSNjI1pkyWnMy2b-ePRHNnvdJU5HAljBKwRR6uclMSTpTpMJT0rGbMhXdbiBGXQY04pxO55iDjCY3gFihYGV31C5Ysqgv_0GnADmZsr-rimtdxfUkmUlLs9BfUwKN5h9BwcBo1ps6enXKKnSji_a75v_bB-0A5Sn5Loz3y9vuBA2__pPXpd77fIjK_dTvlaxelp1J__q3G00]--></g></svg>
