<?xml version="1.0" encoding="us-ascii" standalone="no"?><svg xmlns="http://www.w3.org/2000/svg" xmlns:xlink="http://www.w3.org/1999/xlink" contentStyleType="text/css" height="1184px" preserveAspectRatio="none" style="width:1363px;height:1184px;background:#FFFFFF;" version="1.1" viewBox="0 0 1363 1184" width="1363px" zoomAndPan="magnify"><defs/><g><text fill="#000000" font-family="sans-serif" font-size="14" font-weight="bold" lengthAdjust="spacing" textLength="228" x="569.25" y="27.9951">Aggregate and Forward Data</text><rect fill="#FFFFFF" height="210.6641" style="stroke:#181818;stroke-width:1.0;" width="10" x="247.5" y="186.8594"/><rect fill="#FFFFFF" height="141.5313" style="stroke:#181818;stroke-width:1.0;" width="10" x="252.5" y="228.9922"/><rect fill="#FFFFFF" height="194.5313" style="stroke:#181818;stroke-width:1.0;" width="10" x="395.5" y="441.6563"/><rect fill="#FFFFFF" height="125.3984" style="stroke:#181818;stroke-width:1.0;" width="10" x="400.5" y="483.7891"/><rect fill="#FFFFFF" height="414.4609" style="stroke:#181818;stroke-width:1.0;" width="10" x="552.5" y="680.3203"/><rect fill="#FFFFFF" height="170.6641" style="stroke:#181818;stroke-width:1.0;" width="10" x="557.5" y="722.4531"/><rect fill="#FFFFFF" height="141.5313" style="stroke:#181818;stroke-width:1.0;" width="10" x="557.5" y="937.25"/><line style="stroke:#181818;stroke-width:0.5;stroke-dasharray:5.0,5.0;" x1="77" x2="77" y1="118.5938" y2="1103.7813"/><line style="stroke:#181818;stroke-width:0.5;stroke-dasharray:5.0,5.0;" x1="252" x2="252" y1="118.5938" y2="1103.7813"/><line style="stroke:#181818;stroke-width:0.5;stroke-dasharray:5.0,5.0;" x1="400" x2="400" y1="118.5938" y2="1103.7813"/><line style="stroke:#181818;stroke-width:0.5;stroke-dasharray:5.0,5.0;" x1="557" x2="557" y1="118.5938" y2="1103.7813"/><line style="stroke:#181818;stroke-width:0.5;stroke-dasharray:5.0,5.0;" x1="931.5" x2="931.5" y1="118.5938" y2="1103.7813"/><line style="stroke:#181818;stroke-width:0.5;stroke-dasharray:5.0,5.0;" x1="978.5" x2="978.5" y1="118.5938" y2="1103.7813"/><line style="stroke:#181818;stroke-width:0.5;stroke-dasharray:5.0,5.0;" x1="1096.5" x2="1096.5" y1="118.5938" y2="1103.7813"/><line style="stroke:#181818;stroke-width:0.5;stroke-dasharray:5.0,5.0;" x1="1231.5" x2="1231.5" y1="118.5938" y2="1103.7813"/><line style="stroke:#181818;stroke-width:0.5;stroke-dasharray:5.0,5.0;" x1="1319.5" x2="1319.5" y1="118.5938" y2="1103.7813"/><rect fill="#E2E2F0" height="30.2969" rx="2.5" ry="2.5" style="stroke:#181818;stroke-width:0.5;" width="145" x="5" y="87.2969"/><text fill="#000000" font-family="sans-serif" font-size="14" lengthAdjust="spacing" textLength="131" x="12" y="107.292">ProxyRepoSources</text><rect fill="#E2E2F0" height="30.2969" rx="2.5" ry="2.5" style="stroke:#181818;stroke-width:0.5;" width="145" x="5" y="1102.7813"/><text fill="#000000" font-family="sans-serif" font-size="14" lengthAdjust="spacing" textLength="131" x="12" y="1122.7764">ProxyRepoSources</text><rect fill="#E2E2F0" height="30.2969" rx="2.5" ry="2.5" style="stroke:#181818;stroke-width:0.5;" width="185" x="160" y="87.2969"/><text fill="#000000" font-family="sans-serif" font-size="14" lengthAdjust="spacing" textLength="171" x="167" y="107.292">ProxyRepoSourceEntries</text><rect fill="#E2E2F0" height="30.2969" rx="2.5" ry="2.5" style="stroke:#181818;stroke-width:0.5;" width="185" x="160" y="1102.7813"/><text fill="#000000" font-family="sans-serif" font-size="14" lengthAdjust="spacing" textLength="171" x="167" y="1122.7764">ProxyRepoSourceEntries</text><rect fill="#E2E2F0" height="30.2969" rx="2.5" ry="2.5" style="stroke:#181818;stroke-width:0.5;" width="91" x="355" y="87.2969"/><text fill="#000000" font-family="sans-serif" font-size="14" lengthAdjust="spacing" textLength="77" x="362" y="107.292">Aggregator</text><rect fill="#E2E2F0" height="30.2969" rx="2.5" ry="2.5" style="stroke:#181818;stroke-width:0.5;" width="91" x="355" y="1102.7813"/><text fill="#000000" font-family="sans-serif" font-size="14" lengthAdjust="spacing" textLength="77" x="362" y="1122.7764">Aggregator</text><rect fill="#E2E2F0" height="30.2969" rx="2.5" ry="2.5" style="stroke:#181818;stroke-width:0.5;" width="155" x="480" y="87.2969"/><text fill="#000000" font-family="sans-serif" font-size="14" lengthAdjust="spacing" textLength="141" x="487" y="107.292">AggregateForwarder</text><rect fill="#E2E2F0" height="30.2969" rx="2.5" ry="2.5" style="stroke:#181818;stroke-width:0.5;" width="155" x="480" y="1102.7813"/><text fill="#000000" font-family="sans-serif" font-size="14" lengthAdjust="spacing" textLength="141" x="487" y="1122.7764">AggregateForwarder</text><text fill="#000000" font-family="sans-serif" font-size="14" lengthAdjust="spacing" textLength="18" x="919.5" y="115.292">db</text><path d="M913.5,66.2969 C913.5,56.2969 931.5,56.2969 931.5,56.2969 C931.5,56.2969 949.5,56.2969 949.5,66.2969 L949.5,92.2969 C949.5,102.2969 931.5,102.2969 931.5,102.2969 C931.5,102.2969 913.5,102.2969 913.5,92.2969 L913.5,66.2969 " fill="#E2E2F0" style="stroke:#181818;stroke-width:1.5;"/><path d="M913.5,66.2969 C913.5,76.2969 931.5,76.2969 931.5,76.2969 C931.5,76.2969 949.5,76.2969 949.5,66.2969 " fill="none" style="stroke:#181818;stroke-width:1.5;"/><text fill="#000000" font-family="sans-serif" font-size="14" lengthAdjust="spacing" textLength="18" x="919.5" y="1115.7764">db</text><path d="M913.5,1129.0781 C913.5,1119.0781 931.5,1119.0781 931.5,1119.0781 C931.5,1119.0781 949.5,1119.0781 949.5,1129.0781 L949.5,1155.0781 C949.5,1165.0781 931.5,1165.0781 931.5,1165.0781 C931.5,1165.0781 913.5,1165.0781 913.5,1155.0781 L913.5,1129.0781 " fill="#E2E2F0" style="stroke:#181818;stroke-width:1.5;"/><path d="M913.5,1129.0781 C913.5,1139.0781 931.5,1139.0781 931.5,1139.0781 C931.5,1139.0781 949.5,1139.0781 949.5,1129.0781 " fill="none" style="stroke:#181818;stroke-width:1.5;"/><text fill="#000000" font-family="sans-serif" font-size="14" lengthAdjust="spacing" textLength="32" x="959.5" y="115.292">repo</text><path d="M960.5,66.2969 C960.5,56.2969 978.5,56.2969 978.5,56.2969 C978.5,56.2969 996.5,56.2969 996.5,66.2969 L996.5,92.2969 C996.5,102.2969 978.5,102.2969 978.5,102.2969 C978.5,102.2969 960.5,102.2969 960.5,92.2969 L960.5,66.2969 " fill="#E2E2F0" style="stroke:#181818;stroke-width:1.5;"/><path d="M960.5,66.2969 C960.5,76.2969 978.5,76.2969 978.5,76.2969 C978.5,76.2969 996.5,76.2969 996.5,66.2969 " fill="none" style="stroke:#181818;stroke-width:1.5;"/><text fill="#000000" font-family="sans-serif" font-size="14" lengthAdjust="spacing" textLength="32" x="959.5" y="1115.7764">repo</text><path d="M960.5,1129.0781 C960.5,1119.0781 978.5,1119.0781 978.5,1119.0781 C978.5,1119.0781 996.5,1119.0781 996.5,1129.0781 L996.5,1155.0781 C996.5,1165.0781 978.5,1165.0781 978.5,1165.0781 C978.5,1165.0781 960.5,1165.0781 960.5,1155.0781 L960.5,1129.0781 " fill="#E2E2F0" style="stroke:#181818;stroke-width:1.5;"/><path d="M960.5,1129.0781 C960.5,1139.0781 978.5,1139.0781 978.5,1139.0781 C978.5,1139.0781 996.5,1139.0781 996.5,1129.0781 " fill="none" style="stroke:#181818;stroke-width:1.5;"/><rect fill="#E2E2F0" height="30.2969" rx="2.5" ry="2.5" style="stroke:#181818;stroke-width:0.5;" width="179" x="1007.5" y="87.2969"/><text fill="#000000" font-family="sans-serif" font-size="14" lengthAdjust="spacing" textLength="165" x="1014.5" y="107.292">ForwardStreamHandlers</text><rect fill="#E2E2F0" height="30.2969" rx="2.5" ry="2.5" style="stroke:#181818;stroke-width:0.5;" width="179" x="1007.5" y="1102.7813"/><text fill="#000000" font-family="sans-serif" font-size="14" lengthAdjust="spacing" textLength="165" x="1014.5" y="1122.7764">ForwardStreamHandlers</text><rect fill="#E2E2F0" height="30.2969" rx="2.5" ry="2.5" style="stroke:#181818;stroke-width:0.5;" width="71" x="1196.5" y="87.2969"/><text fill="#000000" font-family="sans-serif" font-size="14" lengthAdjust="spacing" textLength="57" x="1203.5" y="107.292">Cleanup</text><rect fill="#E2E2F0" height="30.2969" rx="2.5" ry="2.5" style="stroke:#181818;stroke-width:0.5;" width="71" x="1196.5" y="1102.7813"/><text fill="#000000" font-family="sans-serif" font-size="14" lengthAdjust="spacing" textLength="57" x="1203.5" y="1122.7764">Cleanup</text><text fill="#000000" font-family="sans-serif" font-size="14" lengthAdjust="spacing" textLength="79" x="1277.5" y="115.292">Destination</text><ellipse cx="1320" cy="50.7969" fill="#E2E2F0" rx="8" ry="8" style="stroke:#181818;stroke-width:0.5;"/><path d="M1320,58.7969 L1320,85.7969 M1307,66.7969 L1333,66.7969 M1320,85.7969 L1307,100.7969 M1320,85.7969 L1333,100.7969 " fill="none" style="stroke:#181818;stroke-width:0.5;"/><text fill="#000000" font-family="sans-serif" font-size="14" lengthAdjust="spacing" textLength="79" x="1277.5" y="1115.7764">Destination</text><ellipse cx="1320" cy="1127.5781" fill="#E2E2F0" rx="8" ry="8" style="stroke:#181818;stroke-width:0.5;"/><path d="M1320,1135.5781 L1320,1162.5781 M1307,1143.5781 L1333,1143.5781 M1320,1162.5781 L1307,1177.5781 M1320,1162.5781 L1333,1177.5781 " fill="none" style="stroke:#181818;stroke-width:0.5;"/><rect fill="#FFFFFF" height="210.6641" style="stroke:#181818;stroke-width:1.0;" width="10" x="247.5" y="186.8594"/><rect fill="#FFFFFF" height="141.5313" style="stroke:#181818;stroke-width:1.0;" width="10" x="252.5" y="228.9922"/><rect fill="#FFFFFF" height="194.5313" style="stroke:#181818;stroke-width:1.0;" width="10" x="395.5" y="441.6563"/><rect fill="#FFFFFF" height="125.3984" style="stroke:#181818;stroke-width:1.0;" width="10" x="400.5" y="483.7891"/><rect fill="#FFFFFF" height="414.4609" style="stroke:#181818;stroke-width:1.0;" width="10" x="552.5" y="680.3203"/><rect fill="#FFFFFF" height="170.6641" style="stroke:#181818;stroke-width:1.0;" width="10" x="557.5" y="722.4531"/><rect fill="#FFFFFF" height="141.5313" style="stroke:#181818;stroke-width:1.0;" width="10" x="557.5" y="937.25"/><line style="stroke:#181818;stroke-width:1.0;" x1="250.5" x2="240.5" y1="149.7266" y2="153.7266"/><line style="stroke:#181818;stroke-width:1.0;stroke-dasharray:2.0,2.0;" x1="77.5" x2="251.5" y1="149.7266" y2="149.7266"/><text fill="#000000" font-family="sans-serif" font-size="13" lengthAdjust="spacing" textLength="65" x="84.5" y="144.6606">onChange</text><line style="stroke:#181818;stroke-width:1.0;" x1="252.5" x2="299.5" y1="173.8594" y2="173.8594"/><line style="stroke:#181818;stroke-width:1.0;" x1="299.5" x2="299.5" y1="173.8594" y2="186.8594"/><line style="stroke:#181818;stroke-width:1.0;" x1="258.5" x2="299.5" y1="186.8594" y2="186.8594"/><polygon fill="#181818" points="268.5,182.8594,258.5,186.8594,268.5,190.8594,264.5,186.8594" style="stroke:#181818;stroke-width:1.0;"/><text fill="#000000" font-family="sans-serif" font-size="13" lengthAdjust="spacing" textLength="55" x="264.5" y="168.7935">examine</text><line style="stroke:#181818;stroke-width:1.0;stroke-dasharray:2.0,2.0;" x1="257.5" x2="304.5" y1="215.9922" y2="215.9922"/><line style="stroke:#181818;stroke-width:1.0;stroke-dasharray:2.0,2.0;" x1="304.5" x2="304.5" y1="215.9922" y2="228.9922"/><line style="stroke:#181818;stroke-width:1.0;stroke-dasharray:2.0,2.0;" x1="263.5" x2="304.5" y1="228.9922" y2="228.9922"/><line style="stroke:#181818;stroke-width:1.0;" x1="263.5" x2="273.5" y1="228.9922" y2="232.9922"/><text fill="#000000" font-family="sans-serif" font-size="13" lengthAdjust="spacing" textLength="100" x="269.5" y="210.9263">examineSource</text><polygon fill="#181818" points="919.5,259.125,929.5,263.125,919.5,267.125,923.5,263.125" style="stroke:#181818;stroke-width:1.0;"/><line style="stroke:#181818;stroke-width:1.0;" x1="262.5" x2="925.5" y1="263.125" y2="263.125"/><text fill="#000000" font-family="sans-serif" font-size="13" lengthAdjust="spacing" textLength="111" x="269.5" y="258.0591">add source items</text><polygon fill="#181818" points="919.5,288.2578,929.5,292.2578,919.5,296.2578,923.5,292.2578" style="stroke:#181818;stroke-width:1.0;"/><line style="stroke:#181818;stroke-width:1.0;" x1="262.5" x2="925.5" y1="292.2578" y2="292.2578"/><text fill="#000000" font-family="sans-serif" font-size="13" lengthAdjust="spacing" textLength="119" x="269.5" y="287.1919">add source entries</text><polygon fill="#181818" points="919.5,317.3906,929.5,321.3906,919.5,325.3906,923.5,321.3906" style="stroke:#181818;stroke-width:1.0;"/><line style="stroke:#181818;stroke-width:1.0;" x1="262.5" x2="925.5" y1="321.3906" y2="321.3906"/><text fill="#000000" font-family="sans-serif" font-size="13" lengthAdjust="spacing" textLength="166" x="269.5" y="316.3247">mark source as examined</text><line style="stroke:#181818;stroke-width:1.0;" x1="398.5" x2="388.5" y1="350.5234" y2="354.5234"/><line style="stroke:#181818;stroke-width:1.0;stroke-dasharray:2.0,2.0;" x1="262.5" x2="399.5" y1="350.5234" y2="350.5234"/><text fill="#000000" font-family="sans-serif" font-size="13" lengthAdjust="spacing" textLength="65" x="269.5" y="345.4575">onChange</text><line style="stroke:#181818;stroke-width:1.0;stroke-dasharray:2.0,2.0;" x1="262.5" x2="304.5" y1="369.5234" y2="369.5234"/><line style="stroke:#181818;stroke-width:1.0;stroke-dasharray:2.0,2.0;" x1="304.5" x2="304.5" y1="369.5234" y2="382.5234"/><line style="stroke:#181818;stroke-width:1.0;stroke-dasharray:2.0,2.0;" x1="257.5" x2="304.5" y1="382.5234" y2="382.5234"/><line style="stroke:#181818;stroke-width:1.0;" x1="257.5" x2="267.5" y1="382.5234" y2="386.5234"/><line style="stroke:#181818;stroke-width:1.0;stroke-dasharray:2.0,2.0;" x1="257.5" x2="299.5" y1="396.5234" y2="396.5234"/><line style="stroke:#181818;stroke-width:1.0;stroke-dasharray:2.0,2.0;" x1="299.5" x2="299.5" y1="396.5234" y2="409.5234"/><line style="stroke:#181818;stroke-width:1.0;stroke-dasharray:2.0,2.0;" x1="252.5" x2="299.5" y1="409.5234" y2="409.5234"/><polygon fill="#181818" points="262.5,405.5234,252.5,409.5234,262.5,413.5234,258.5,409.5234" style="stroke:#181818;stroke-width:1.0;"/><line style="stroke:#181818;stroke-width:1.0;" x1="400.5" x2="447.5" y1="428.6563" y2="428.6563"/><line style="stroke:#181818;stroke-width:1.0;" x1="447.5" x2="447.5" y1="428.6563" y2="441.6563"/><line style="stroke:#181818;stroke-width:1.0;" x1="406.5" x2="447.5" y1="441.6563" y2="441.6563"/><polygon fill="#181818" points="416.5,437.6563,406.5,441.6563,416.5,445.6563,412.5,441.6563" style="stroke:#181818;stroke-width:1.0;"/><text fill="#000000" font-family="sans-serif" font-size="13" lengthAdjust="spacing" textLength="66" x="412.5" y="423.5903">aggregate</text><line style="stroke:#181818;stroke-width:1.0;" x1="405.5" x2="452.5" y1="470.7891" y2="470.7891"/><line style="stroke:#181818;stroke-width:1.0;" x1="452.5" x2="452.5" y1="470.7891" y2="483.7891"/><line style="stroke:#181818;stroke-width:1.0;" x1="411.5" x2="452.5" y1="483.7891" y2="483.7891"/><polygon fill="#181818" points="421.5,479.7891,411.5,483.7891,421.5,487.7891,417.5,483.7891" style="stroke:#181818;stroke-width:1.0;"/><text fill="#000000" font-family="sans-serif" font-size="13" lengthAdjust="spacing" textLength="104" x="417.5" y="465.7231">add source item</text><polygon fill="#181818" points="919.5,513.9219,929.5,517.9219,919.5,521.9219,923.5,517.9219" style="stroke:#181818;stroke-width:1.0;"/><line style="stroke:#181818;stroke-width:1.0;" x1="410.5" x2="925.5" y1="517.9219" y2="517.9219"/><text fill="#000000" font-family="sans-serif" font-size="13" lengthAdjust="spacing" textLength="213" x="417.5" y="512.856">mark source_item as aggregated</text><line style="stroke:#181818;stroke-width:1.0;" x1="410.5" x2="452.5" y1="547.0547" y2="547.0547"/><line style="stroke:#181818;stroke-width:1.0;" x1="452.5" x2="452.5" y1="547.0547" y2="560.0547"/><line style="stroke:#181818;stroke-width:1.0;" x1="411.5" x2="452.5" y1="560.0547" y2="560.0547"/><polygon fill="#181818" points="421.5,556.0547,411.5,560.0547,421.5,564.0547,417.5,560.0547" style="stroke:#181818;stroke-width:1.0;"/><text fill="#000000" font-family="sans-serif" font-size="13" lengthAdjust="spacing" textLength="128" x="417.5" y="541.9888">closeOldAggregates</text><line style="stroke:#181818;stroke-width:1.0;" x1="555.5" x2="545.5" y1="589.1875" y2="593.1875"/><line style="stroke:#181818;stroke-width:1.0;stroke-dasharray:2.0,2.0;" x1="410.5" x2="556.5" y1="589.1875" y2="589.1875"/><text fill="#000000" font-family="sans-serif" font-size="13" lengthAdjust="spacing" textLength="65" x="417.5" y="584.1216">onChange</text><line style="stroke:#181818;stroke-width:1.0;stroke-dasharray:2.0,2.0;" x1="410.5" x2="452.5" y1="608.1875" y2="608.1875"/><line style="stroke:#181818;stroke-width:1.0;stroke-dasharray:2.0,2.0;" x1="452.5" x2="452.5" y1="608.1875" y2="621.1875"/><line style="stroke:#181818;stroke-width:1.0;stroke-dasharray:2.0,2.0;" x1="405.5" x2="452.5" y1="621.1875" y2="621.1875"/><polygon fill="#181818" points="415.5,617.1875,405.5,621.1875,415.5,625.1875,411.5,621.1875" style="stroke:#181818;stroke-width:1.0;"/><line style="stroke:#181818;stroke-width:1.0;stroke-dasharray:2.0,2.0;" x1="405.5" x2="447.5" y1="635.1875" y2="635.1875"/><line style="stroke:#181818;stroke-width:1.0;stroke-dasharray:2.0,2.0;" x1="447.5" x2="447.5" y1="635.1875" y2="648.1875"/><line style="stroke:#181818;stroke-width:1.0;stroke-dasharray:2.0,2.0;" x1="400.5" x2="447.5" y1="648.1875" y2="648.1875"/><polygon fill="#181818" points="410.5,644.1875,400.5,648.1875,410.5,652.1875,406.5,648.1875" style="stroke:#181818;stroke-width:1.0;"/><line style="stroke:#181818;stroke-width:1.0;" x1="557.5" x2="604.5" y1="667.3203" y2="667.3203"/><line style="stroke:#181818;stroke-width:1.0;" x1="604.5" x2="604.5" y1="667.3203" y2="680.3203"/><line style="stroke:#181818;stroke-width:1.0;" x1="563.5" x2="604.5" y1="680.3203" y2="680.3203"/><line style="stroke:#181818;stroke-width:1.0;" x1="563.5" x2="573.5" y1="680.3203" y2="684.3203"/><text fill="#000000" font-family="sans-serif" font-size="13" lengthAdjust="spacing" textLength="47" x="569.5" y="662.2544">forward</text><line style="stroke:#181818;stroke-width:1.0;" x1="562.5" x2="609.5" y1="709.4531" y2="709.4531"/><line style="stroke:#181818;stroke-width:1.0;" x1="609.5" x2="609.5" y1="709.4531" y2="722.4531"/><line style="stroke:#181818;stroke-width:1.0;" x1="568.5" x2="609.5" y1="722.4531" y2="722.4531"/><line style="stroke:#181818;stroke-width:1.0;" x1="568.5" x2="578.5" y1="722.4531" y2="726.4531"/><text fill="#000000" font-family="sans-serif" font-size="13" lengthAdjust="spacing" textLength="114" x="574.5" y="704.3872">forwardAggregate</text><polygon fill="#181818" points="966.5,752.5859,976.5,756.5859,966.5,760.5859,970.5,756.5859" style="stroke:#181818;stroke-width:1.0;"/><line style="stroke:#181818;stroke-width:1.0;" x1="567.5" x2="972.5" y1="756.5859" y2="756.5859"/><text fill="#000000" font-family="sans-serif" font-size="13" lengthAdjust="spacing" textLength="29" x="574.5" y="751.52">read</text><polygon fill="#181818" points="1085,781.7188,1095,785.7188,1085,789.7188,1089,785.7188" style="stroke:#181818;stroke-width:1.0;"/><line style="stroke:#181818;stroke-width:1.0;" x1="567.5" x2="1091" y1="785.7188" y2="785.7188"/><text fill="#000000" font-family="sans-serif" font-size="13" lengthAdjust="spacing" textLength="30" x="574.5" y="780.6528">write</text><polygon fill="#181818" points="1308,810.8516,1318,814.8516,1308,818.8516,1312,814.8516" style="stroke:#181818;stroke-width:1.0;"/><line style="stroke:#181818;stroke-width:1.0;stroke-dasharray:2.0,2.0;" x1="1097" x2="1314" y1="814.8516" y2="814.8516"/><text fill="#000000" font-family="sans-serif" font-size="13" lengthAdjust="spacing" textLength="43" x="1104" y="809.7856">handle</text><polygon fill="#181818" points="919.5,839.9844,929.5,843.9844,919.5,847.9844,923.5,843.9844" style="stroke:#181818;stroke-width:1.0;"/><line style="stroke:#181818;stroke-width:1.0;" x1="567.5" x2="925.5" y1="843.9844" y2="843.9844"/><text fill="#000000" font-family="sans-serif" font-size="13" lengthAdjust="spacing" textLength="171" x="574.5" y="838.9185">record 'forward_aggregate'</text><polygon fill="#181818" points="919.5,869.1172,929.5,873.1172,919.5,877.1172,923.5,873.1172" style="stroke:#181818;stroke-width:1.0;"/><line style="stroke:#181818;stroke-width:1.0;" x1="567.5" x2="925.5" y1="873.1172" y2="873.1172"/><text fill="#000000" font-family="sans-serif" font-size="13" lengthAdjust="spacing" textLength="184" x="574.5" y="868.0513">record 'aggregate' forwarded</text><line style="stroke:#181818;stroke-width:1.0;stroke-dasharray:2.0,2.0;" x1="567.5" x2="609.5" y1="892.1172" y2="892.1172"/><line style="stroke:#181818;stroke-width:1.0;stroke-dasharray:2.0,2.0;" x1="609.5" x2="609.5" y1="892.1172" y2="905.1172"/><line style="stroke:#181818;stroke-width:1.0;stroke-dasharray:2.0,2.0;" x1="562.5" x2="609.5" y1="905.1172" y2="905.1172"/><line style="stroke:#181818;stroke-width:1.0;" x1="562.5" x2="572.5" y1="905.1172" y2="909.1172"/><line style="stroke:#181818;stroke-width:1.0;" x1="562.5" x2="609.5" y1="924.25" y2="924.25"/><line style="stroke:#181818;stroke-width:1.0;" x1="609.5" x2="609.5" y1="924.25" y2="937.25"/><line style="stroke:#181818;stroke-width:1.0;" x1="568.5" x2="609.5" y1="937.25" y2="937.25"/><polygon fill="#181818" points="578.5,933.25,568.5,937.25,578.5,941.25,574.5,937.25" style="stroke:#181818;stroke-width:1.0;"/><text fill="#000000" font-family="sans-serif" font-size="13" lengthAdjust="spacing" textLength="107" x="574.5" y="919.1841">deleteAggregate</text><polygon fill="#181818" points="919.5,967.3828,929.5,971.3828,919.5,975.3828,923.5,971.3828" style="stroke:#181818;stroke-width:1.0;"/><line style="stroke:#181818;stroke-width:1.0;" x1="567.5" x2="925.5" y1="971.3828" y2="971.3828"/><text fill="#000000" font-family="sans-serif" font-size="13" lengthAdjust="spacing" textLength="340" x="574.5" y="966.3169">delete 'forward_aggregate' for complete aggregate id</text><polygon fill="#181818" points="919.5,996.5156,929.5,1000.5156,919.5,1004.5156,923.5,1000.5156" style="stroke:#181818;stroke-width:1.0;"/><line style="stroke:#181818;stroke-width:1.0;" x1="567.5" x2="925.5" y1="1000.5156" y2="1000.5156"/><text fill="#000000" font-family="sans-serif" font-size="13" lengthAdjust="spacing" textLength="322" x="574.5" y="995.4497">delete 'aggregate_item' for complete aggregate id</text><polygon fill="#181818" points="919.5,1025.6484,929.5,1029.6484,919.5,1033.6484,923.5,1029.6484" style="stroke:#181818;stroke-width:1.0;"/><line style="stroke:#181818;stroke-width:1.0;" x1="567.5" x2="925.5" y1="1029.6484" y2="1029.6484"/><text fill="#000000" font-family="sans-serif" font-size="13" lengthAdjust="spacing" textLength="286" x="574.5" y="1024.5825">delete 'aggregate' for complete aggregate id</text><line style="stroke:#181818;stroke-width:1.0;" x1="1230" x2="1220" y1="1058.7813" y2="1062.7813"/><line style="stroke:#181818;stroke-width:1.0;stroke-dasharray:2.0,2.0;" x1="567.5" x2="1231" y1="1058.7813" y2="1058.7813"/><text fill="#000000" font-family="sans-serif" font-size="13" lengthAdjust="spacing" textLength="65" x="574.5" y="1053.7153">onChange</text><line style="stroke:#181818;stroke-width:1.0;stroke-dasharray:2.0,2.0;" x1="567.5" x2="609.5" y1="1077.7813" y2="1077.7813"/><line style="stroke:#181818;stroke-width:1.0;stroke-dasharray:2.0,2.0;" x1="609.5" x2="609.5" y1="1077.7813" y2="1090.7813"/><line style="stroke:#181818;stroke-width:1.0;stroke-dasharray:2.0,2.0;" x1="562.5" x2="609.5" y1="1090.7813" y2="1090.7813"/><polygon fill="#181818" points="572.5,1086.7813,562.5,1090.7813,572.5,1094.7813,568.5,1090.7813" style="stroke:#181818;stroke-width:1.0;"/><!--SRC=[hLIxRiCm3Dpr5Tmw145s3mQ2f4Mt5iq718p5Ea9joQ0K9FtxIexVjLstwEA7TCSZZvISSXd1DasPKdG4g2Ky6RuYIzYZGo4APASILQ1syChczlb6XJcO2oTavpOVjMCrWDGwXaUNgL8c5j9hdz0Io5FxpJvuZrZX3uu9ysUVUqRSLznbXFfI24oyAEp9EgNHAQE561O3w_LcCr5514RlpgXJ4kC0MCSJrDKg0hfXhlGqTrgumxwlp-ZBKmGe9TXo0vIZt2w7KzMlUKAE_54pqDQfIJ5RMjlsZe-2oLrOro_HWe9M-nSSm7f0vb7zsWVOGVR700abDB7bPF08ainOUibaCwcs1-uMsGxnWc9RC8p727Mztt_-HDf-SwxBZiiZ5VadoWd0w16BuChUFp6wwUs8koSjWdEvCo4G-iAK67_XF5H97vkUF8W5h1PTL-rxEUTqFE6Pf8mS_MHPaBuZnn8EAK1Yyg84DEkWv89m3RoSpd-AzTimOQQgQxCpmPMVNm00]--></g></svg>