<?xml version="1.0" encoding="us-ascii" standalone="no"?><svg xmlns="http://www.w3.org/2000/svg" xmlns:xlink="http://www.w3.org/1999/xlink" contentStyleType="text/css" height="335px" preserveAspectRatio="none" style="width:525px;height:335px;background:#FFFFFF;" version="1.1" viewBox="0 0 525 335" width="525px" zoomAndPan="magnify"><defs/><g><text fill="#000000" font-family="sans-serif" font-size="14" font-weight="bold" lengthAdjust="spacing" textLength="106" x="211" y="27.9951">Forward Only</text><line style="stroke:#181818;stroke-width:0.5;stroke-dasharray:5.0,5.0;" x1="36" x2="36" y1="118.5938" y2="255.125"/><line style="stroke:#181818;stroke-width:0.5;stroke-dasharray:5.0,5.0;" x1="158" x2="158" y1="118.5938" y2="255.125"/><line style="stroke:#181818;stroke-width:0.5;stroke-dasharray:5.0,5.0;" x1="339" x2="339" y1="118.5938" y2="255.125"/><line style="stroke:#181818;stroke-width:0.5;stroke-dasharray:5.0,5.0;" x1="481" x2="481" y1="118.5938" y2="255.125"/><text fill="#000000" font-family="sans-serif" font-size="14" lengthAdjust="spacing" textLength="56" x="5" y="115.292">Supplier</text><ellipse cx="36" cy="50.7969" fill="#E2E2F0" rx="8" ry="8" style="stroke:#181818;stroke-width:0.5;"/><path d="M36,58.7969 L36,85.7969 M23,66.7969 L49,66.7969 M36,85.7969 L23,100.7969 M36,85.7969 L49,100.7969 " fill="none" style="stroke:#181818;stroke-width:0.5;"/><text fill="#000000" font-family="sans-serif" font-size="14" lengthAdjust="spacing" textLength="56" x="5" y="267.1201">Supplier</text><ellipse cx="36" cy="278.9219" fill="#E2E2F0" rx="8" ry="8" style="stroke:#181818;stroke-width:0.5;"/><path d="M36,286.9219 L36,313.9219 M23,294.9219 L49,294.9219 M36,313.9219 L23,328.9219 M36,313.9219 L49,328.9219 " fill="none" style="stroke:#181818;stroke-width:0.5;"/><rect fill="#E2E2F0" height="30.2969" rx="2.5" ry="2.5" style="stroke:#181818;stroke-width:0.5;" width="163" x="77" y="87.2969"/><text fill="#000000" font-family="sans-serif" font-size="14" lengthAdjust="spacing" textLength="149" x="84" y="107.292">ProxyRequestHandler</text><rect fill="#E2E2F0" height="30.2969" rx="2.5" ry="2.5" style="stroke:#181818;stroke-width:0.5;" width="163" x="77" y="254.125"/><text fill="#000000" font-family="sans-serif" font-size="14" lengthAdjust="spacing" textLength="149" x="84" y="274.1201">ProxyRequestHandler</text><rect fill="#E2E2F0" height="30.2969" rx="2.5" ry="2.5" style="stroke:#181818;stroke-width:0.5;" width="179" x="250" y="87.2969"/><text fill="#000000" font-family="sans-serif" font-size="14" lengthAdjust="spacing" textLength="165" x="257" y="107.292">ForwardStreamHandlers</text><rect fill="#E2E2F0" height="30.2969" rx="2.5" ry="2.5" style="stroke:#181818;stroke-width:0.5;" width="179" x="250" y="254.125"/><text fill="#000000" font-family="sans-serif" font-size="14" lengthAdjust="spacing" textLength="165" x="257" y="274.1201">ForwardStreamHandlers</text><text fill="#000000" font-family="sans-serif" font-size="14" lengthAdjust="spacing" textLength="79" x="439" y="115.292">Destination</text><ellipse cx="481.5" cy="50.7969" fill="#E2E2F0" rx="8" ry="8" style="stroke:#181818;stroke-width:0.5;"/><path d="M481.5,58.7969 L481.5,85.7969 M468.5,66.7969 L494.5,66.7969 M481.5,85.7969 L468.5,100.7969 M481.5,85.7969 L494.5,100.7969 " fill="none" style="stroke:#181818;stroke-width:0.5;"/><text fill="#000000" font-family="sans-serif" font-size="14" lengthAdjust="spacing" textLength="79" x="439" y="267.1201">Destination</text><ellipse cx="481.5" cy="278.9219" fill="#E2E2F0" rx="8" ry="8" style="stroke:#181818;stroke-width:0.5;"/><path d="M481.5,286.9219 L481.5,313.9219 M468.5,294.9219 L494.5,294.9219 M481.5,313.9219 L468.5,328.9219 M481.5,313.9219 L494.5,328.9219 " fill="none" style="stroke:#181818;stroke-width:0.5;"/><polygon fill="#181818" points="146.5,145.7266,156.5,149.7266,146.5,153.7266,150.5,149.7266" style="stroke:#181818;stroke-width:1.0;"/><line style="stroke:#181818;stroke-width:1.0;stroke-dasharray:2.0,2.0;" x1="36" x2="152.5" y1="149.7266" y2="149.7266"/><text fill="#000000" font-family="sans-serif" font-size="13" lengthAdjust="spacing" textLength="70" x="43" y="144.6606">HTTP POST</text><polygon fill="#181818" points="327.5,174.8594,337.5,178.8594,327.5,182.8594,331.5,178.8594" style="stroke:#181818;stroke-width:1.0;"/><line style="stroke:#181818;stroke-width:1.0;" x1="158.5" x2="333.5" y1="178.8594" y2="178.8594"/><text fill="#000000" font-family="sans-serif" font-size="13" lengthAdjust="spacing" textLength="43" x="165.5" y="173.7935">handle</text><polygon fill="#181818" points="469.5,203.9922,479.5,207.9922,469.5,211.9922,473.5,207.9922" style="stroke:#181818;stroke-width:1.0;"/><line style="stroke:#181818;stroke-width:1.0;stroke-dasharray:2.0,2.0;" x1="339.5" x2="475.5" y1="207.9922" y2="207.9922"/><text fill="#000000" font-family="sans-serif" font-size="13" lengthAdjust="spacing" textLength="43" x="346.5" y="202.9263">handle</text><polygon fill="#181818" points="47,233.125,37,237.125,47,241.125,43,237.125" style="stroke:#181818;stroke-width:1.0;"/><line style="stroke:#181818;stroke-width:1.0;stroke-dasharray:2.0,2.0;" x1="41" x2="157.5" y1="237.125" y2="237.125"/><text fill="#000000" font-family="sans-serif" font-size="13" lengthAdjust="spacing" textLength="90" x="53" y="232.0591">200 Response</text><!--SRC=[ROx12eCm44Jl-nNx0uBqc4DFfNXJr1zOTA61D4atAzQ_Rn0jfUGsC3DlHgqwndkGbMJ6rhiDW2ODWiCIexCi44dKJZQIL-malBUUNmidRSZFxiy_G8CAq_C8f0DuonthIMtm02STg-fQeXfinh73hXr6ADYOMyKjWuzTGT7Trtv-VDF5YPmzRngyr3Nsd6BmYG4-]--></g></svg>