<?xml version="1.0" encoding="UTF-8" standalone="no"?><svg xmlns="http://www.w3.org/2000/svg" xmlns:xlink="http://www.w3.org/1999/xlink" contentStyleType="text/css" height="624px" preserveAspectRatio="none" style="width:830px;height:624px;background:#FFFFFF;" version="1.1" viewBox="0 0 830 624" width="830px" zoomAndPan="magnify"><defs/><g><rect height="29.0679" style="stroke:#00000000;stroke-width:1.0;fill:none;" width="154" x="339.75" y="10"/><text fill="#000000" font-family="sans-serif" font-size="14" font-weight="bold" lengthAdjust="spacing" textLength="144" x="344.75" y="29.9659">Forward Stored Data</text><rect fill="#FFFFFF" height="255.2361" style="stroke:#181818;stroke-width:1.0;" width="10" x="211.5" y="229.2539"/><rect fill="#FFFFFF" height="183.5301" style="stroke:#181818;stroke-width:1.0;" width="10" x="216.5" y="273.9599"/><line style="stroke:#181818;stroke-width:0.5;stroke-dasharray:5.0,5.0;" x1="73" x2="73" y1="124.1358" y2="541.196"/><line style="stroke:#181818;stroke-width:0.5;stroke-dasharray:5.0,5.0;" x1="216" x2="216" y1="124.1358" y2="541.196"/><line style="stroke:#181818;stroke-width:0.5;stroke-dasharray:5.0,5.0;" x1="403.5" x2="403.5" y1="124.1358" y2="541.196"/><line style="stroke:#181818;stroke-width:0.5;stroke-dasharray:5.0,5.0;" x1="449.5" x2="449.5" y1="124.1358" y2="541.196"/><line style="stroke:#181818;stroke-width:0.5;stroke-dasharray:5.0,5.0;" x1="567.5" x2="567.5" y1="124.1358" y2="541.196"/><line style="stroke:#181818;stroke-width:0.5;stroke-dasharray:5.0,5.0;" x1="701.5" x2="701.5" y1="124.1358" y2="541.196"/><line style="stroke:#181818;stroke-width:0.5;stroke-dasharray:5.0,5.0;" x1="787.5" x2="787.5" y1="124.1358" y2="541.196"/><rect fill="#E2E2F0" height="33.0679" rx="2.5" ry="2.5" style="stroke:#181818;stroke-width:0.5;" width="137" x="5" y="90.0679"/><text fill="#000000" font-family="sans-serif" font-size="14" lengthAdjust="spacing" textLength="123" x="12" y="112.0339">ProxyRepoSources</text><rect fill="#E2E2F0" height="33.0679" rx="2.5" ry="2.5" style="stroke:#181818;stroke-width:0.5;" width="137" x="5" y="540.196"/><text fill="#000000" font-family="sans-serif" font-size="14" lengthAdjust="spacing" textLength="123" x="12" y="562.1619">ProxyRepoSources</text><rect fill="#E2E2F0" height="33.0679" rx="2.5" ry="2.5" style="stroke:#181818;stroke-width:0.5;" width="129" x="152" y="90.0679"/><text fill="#000000" font-family="sans-serif" font-size="14" lengthAdjust="spacing" textLength="115" x="159" y="112.0339">SourceForwarder</text><rect fill="#E2E2F0" height="33.0679" rx="2.5" ry="2.5" style="stroke:#181818;stroke-width:0.5;" width="129" x="152" y="540.196"/><text fill="#000000" font-family="sans-serif" font-size="14" lengthAdjust="spacing" textLength="115" x="159" y="562.1619">SourceForwarder</text><text fill="#000000" font-family="sans-serif" font-size="14" lengthAdjust="spacing" textLength="18" x="391.5" y="120.0339">db</text><path d="M385.5,69.0679 C385.5,59.0679 403.5,59.0679 403.5,59.0679 C403.5,59.0679 421.5,59.0679 421.5,69.0679 L421.5,95.0679 C421.5,105.0679 403.5,105.0679 403.5,105.0679 C403.5,105.0679 385.5,105.0679 385.5,95.0679 L385.5,69.0679 " fill="#E2E2F0" style="stroke:#181818;stroke-width:1.5;"/><path d="M385.5,69.0679 C385.5,79.0679 403.5,79.0679 403.5,79.0679 C403.5,79.0679 421.5,79.0679 421.5,69.0679 " fill="none" style="stroke:#181818;stroke-width:1.5;"/><text fill="#000000" font-family="sans-serif" font-size="14" lengthAdjust="spacing" textLength="18" x="391.5" y="555.1619">db</text><path d="M385.5,569.2639 C385.5,559.2639 403.5,559.2639 403.5,559.2639 C403.5,559.2639 421.5,559.2639 421.5,569.2639 L421.5,595.2639 C421.5,605.2639 403.5,605.2639 403.5,605.2639 C403.5,605.2639 385.5,605.2639 385.5,595.2639 L385.5,569.2639 " fill="#E2E2F0" style="stroke:#181818;stroke-width:1.5;"/><path d="M385.5,569.2639 C385.5,579.2639 403.5,579.2639 403.5,579.2639 C403.5,579.2639 421.5,579.2639 421.5,569.2639 " fill="none" style="stroke:#181818;stroke-width:1.5;"/><text fill="#000000" font-family="sans-serif" font-size="14" lengthAdjust="spacing" textLength="31" x="431.5" y="120.0339">repo</text><path d="M432,69.0679 C432,59.0679 450,59.0679 450,59.0679 C450,59.0679 468,59.0679 468,69.0679 L468,95.0679 C468,105.0679 450,105.0679 450,105.0679 C450,105.0679 432,105.0679 432,95.0679 L432,69.0679 " fill="#E2E2F0" style="stroke:#181818;stroke-width:1.5;"/><path d="M432,69.0679 C432,79.0679 450,79.0679 450,79.0679 C450,79.0679 468,79.0679 468,69.0679 " fill="none" style="stroke:#181818;stroke-width:1.5;"/><text fill="#000000" font-family="sans-serif" font-size="14" lengthAdjust="spacing" textLength="31" x="431.5" y="555.1619">repo</text><path d="M432,569.2639 C432,559.2639 450,559.2639 450,559.2639 C450,559.2639 468,559.2639 468,569.2639 L468,595.2639 C468,605.2639 450,605.2639 450,605.2639 C450,605.2639 432,605.2639 432,595.2639 L432,569.2639 " fill="#E2E2F0" style="stroke:#181818;stroke-width:1.5;"/><path d="M432,569.2639 C432,579.2639 450,579.2639 450,579.2639 C450,579.2639 468,579.2639 468,569.2639 " fill="none" style="stroke:#181818;stroke-width:1.5;"/><rect fill="#E2E2F0" height="33.0679" rx="2.5" ry="2.5" style="stroke:#181818;stroke-width:0.5;" width="178" x="478.5" y="90.0679"/><text fill="#000000" font-family="sans-serif" font-size="14" lengthAdjust="spacing" textLength="164" x="485.5" y="112.0339">ForwardStreamHandlers</text><rect fill="#E2E2F0" height="33.0679" rx="2.5" ry="2.5" style="stroke:#181818;stroke-width:0.5;" width="178" x="478.5" y="540.196"/><text fill="#000000" font-family="sans-serif" font-size="14" lengthAdjust="spacing" textLength="164" x="485.5" y="562.1619">ForwardStreamHandlers</text><rect fill="#E2E2F0" height="33.0679" rx="2.5" ry="2.5" style="stroke:#181818;stroke-width:0.5;" width="70" x="666.5" y="90.0679"/><text fill="#000000" font-family="sans-serif" font-size="14" lengthAdjust="spacing" textLength="56" x="673.5" y="112.0339">Cleanup</text><rect fill="#E2E2F0" height="33.0679" rx="2.5" ry="2.5" style="stroke:#181818;stroke-width:0.5;" width="70" x="666.5" y="540.196"/><text fill="#000000" font-family="sans-serif" font-size="14" lengthAdjust="spacing" textLength="56" x="673.5" y="562.1619">Cleanup</text><text fill="#000000" font-family="sans-serif" font-size="14" lengthAdjust="spacing" textLength="77" x="746.5" y="120.0339">Destination</text><ellipse cx="788" cy="53.5679" fill="#E2E2F0" rx="8" ry="8" style="stroke:#181818;stroke-width:0.5;"/><path d="M788,61.5679 L788,88.5679 M775,69.5679 L801,69.5679 M788,88.5679 L775,103.5679 M788,88.5679 L801,103.5679 " fill="none" style="stroke:#181818;stroke-width:0.5;"/><text fill="#000000" font-family="sans-serif" font-size="14" lengthAdjust="spacing" textLength="77" x="746.5" y="555.1619">Destination</text><ellipse cx="788" cy="567.7639" fill="#E2E2F0" rx="8" ry="8" style="stroke:#181818;stroke-width:0.5;"/><path d="M788,575.7639 L788,602.7639 M775,583.7639 L801,583.7639 M788,602.7639 L775,617.7639 M788,602.7639 L801,617.7639 " fill="none" style="stroke:#181818;stroke-width:0.5;"/><rect fill="#FFFFFF" height="255.2361" style="stroke:#181818;stroke-width:1.0;" width="10" x="211.5" y="229.2539"/><rect fill="#FFFFFF" height="183.5301" style="stroke:#181818;stroke-width:1.0;" width="10" x="216.5" y="273.9599"/><line style="stroke:#181818;stroke-width:1.0;" x1="214.5" x2="204.5" y1="157.8419" y2="161.8419"/><line style="stroke:#181818;stroke-width:1.0;stroke-dasharray:2.0,2.0;" x1="73.5" x2="215.5" y1="157.8419" y2="157.8419"/><text fill="#000000" font-family="sans-serif" font-size="13" lengthAdjust="spacing" textLength="62" x="80.5" y="152.0328">onChange</text><polygon fill="#181818" points="391.5,185.5479,401.5,189.5479,391.5,193.5479,395.5,189.5479" style="stroke:#181818;stroke-width:1.0;"/><line style="stroke:#181818;stroke-width:1.0;" x1="216.5" x2="397.5" y1="189.5479" y2="189.5479"/><text fill="#000000" font-family="sans-serif" font-size="13" lengthAdjust="spacing" textLength="103" x="223.5" y="183.7389">Find new sources</text><line style="stroke:#181818;stroke-width:1.0;" x1="216.5" x2="263.5" y1="216.2539" y2="216.2539"/><line style="stroke:#181818;stroke-width:1.0;" x1="263.5" x2="263.5" y1="216.2539" y2="229.2539"/><line style="stroke:#181818;stroke-width:1.0;" x1="222.5" x2="263.5" y1="229.2539" y2="229.2539"/><line style="stroke:#181818;stroke-width:1.0;" x1="222.5" x2="232.5" y1="229.2539" y2="233.2539"/><text fill="#000000" font-family="sans-serif" font-size="13" lengthAdjust="spacing" textLength="100" x="228.5" y="210.4449">Forward Sources</text><line style="stroke:#181818;stroke-width:1.0;" x1="221.5" x2="268.5" y1="260.9599" y2="260.9599"/><line style="stroke:#181818;stroke-width:1.0;" x1="268.5" x2="268.5" y1="260.9599" y2="273.9599"/><line style="stroke:#181818;stroke-width:1.0;" x1="227.5" x2="268.5" y1="273.9599" y2="273.9599"/><line style="stroke:#181818;stroke-width:1.0;" x1="227.5" x2="237.5" y1="273.9599" y2="277.9599"/><text fill="#000000" font-family="sans-serif" font-size="13" lengthAdjust="spacing" textLength="94" x="233.5" y="255.1509">Forward Source</text><polygon fill="#181818" points="438,306.6659,448,310.6659,438,314.6659,442,310.6659" style="stroke:#181818;stroke-width:1.0;"/><line style="stroke:#181818;stroke-width:1.0;" x1="226.5" x2="444" y1="310.6659" y2="310.6659"/><text fill="#000000" font-family="sans-serif" font-size="13" lengthAdjust="spacing" textLength="27" x="233.5" y="304.8569">read</text><polygon fill="#181818" points="555.5,338.3719,565.5,342.3719,555.5,346.3719,559.5,342.3719" style="stroke:#181818;stroke-width:1.0;"/><line style="stroke:#181818;stroke-width:1.0;" x1="226.5" x2="561.5" y1="342.3719" y2="342.3719"/><text fill="#000000" font-family="sans-serif" font-size="13" lengthAdjust="spacing" textLength="30" x="233.5" y="336.5629">write</text><polygon fill="#181818" points="776,370.0779,786,374.0779,776,378.0779,780,374.0779" style="stroke:#181818;stroke-width:1.0;"/><line style="stroke:#181818;stroke-width:1.0;stroke-dasharray:2.0,2.0;" x1="567.5" x2="782" y1="374.0779" y2="374.0779"/><text fill="#000000" font-family="sans-serif" font-size="13" lengthAdjust="spacing" textLength="41" x="574.5" y="368.2689">handle</text><polygon fill="#181818" points="391.5,401.784,401.5,405.784,391.5,409.784,395.5,405.784" style="stroke:#181818;stroke-width:1.0;"/><line style="stroke:#181818;stroke-width:1.0;" x1="226.5" x2="397.5" y1="405.784" y2="405.784"/><text fill="#000000" font-family="sans-serif" font-size="13" lengthAdjust="spacing" textLength="141" x="233.5" y="399.975">record 'forward_source'</text><polygon fill="#181818" points="391.5,433.49,401.5,437.49,391.5,441.49,395.5,437.49" style="stroke:#181818;stroke-width:1.0;"/><line style="stroke:#181818;stroke-width:1.0;" x1="226.5" x2="397.5" y1="437.49" y2="437.49"/><text fill="#000000" font-family="sans-serif" font-size="13" lengthAdjust="spacing" textLength="153" x="233.5" y="431.681">record 'source' forwarded</text><line style="stroke:#181818;stroke-width:1.0;stroke-dasharray:2.0,2.0;" x1="226.5" x2="268.5" y1="456.49" y2="456.49"/><line style="stroke:#181818;stroke-width:1.0;stroke-dasharray:2.0,2.0;" x1="268.5" x2="268.5" y1="456.49" y2="469.49"/><line style="stroke:#181818;stroke-width:1.0;stroke-dasharray:2.0,2.0;" x1="221.5" x2="268.5" y1="469.49" y2="469.49"/><line style="stroke:#181818;stroke-width:1.0;" x1="221.5" x2="231.5" y1="469.49" y2="473.49"/><line style="stroke:#181818;stroke-width:1.0;stroke-dasharray:2.0,2.0;" x1="221.5" x2="263.5" y1="483.49" y2="483.49"/><line style="stroke:#181818;stroke-width:1.0;stroke-dasharray:2.0,2.0;" x1="263.5" x2="263.5" y1="483.49" y2="496.49"/><line style="stroke:#181818;stroke-width:1.0;stroke-dasharray:2.0,2.0;" x1="216.5" x2="263.5" y1="496.49" y2="496.49"/><line style="stroke:#181818;stroke-width:1.0;" x1="216.5" x2="226.5" y1="496.49" y2="500.49"/><line style="stroke:#181818;stroke-width:1.0;" x1="699.5" x2="689.5" y1="523.196" y2="527.196"/><line style="stroke:#181818;stroke-width:1.0;stroke-dasharray:2.0,2.0;" x1="216.5" x2="700.5" y1="523.196" y2="523.196"/><text fill="#000000" font-family="sans-serif" font-size="13" lengthAdjust="spacing" textLength="62" x="223.5" y="517.387">onChange</text><!--MD5=[d119149c6b3a3a7127084fadf05a624b]
@startuml

title Forward Stored Data

participant ProxyRepoSources
participant SourceForwarder
database db
database repo
participant ForwardStreamHandlers
participant Cleanup
actor Destination

ProxyRepoSources - -// SourceForwarder: onChange
SourceForwarder -> db: Find new sources
SourceForwarder -// SourceForwarder++: Forward Sources
SourceForwarder -// SourceForwarder++: Forward Source
SourceForwarder -> repo: read
SourceForwarder -> ForwardStreamHandlers: write
ForwardStreamHandlers - -> Destination: handle
SourceForwarder -> db: record 'forward_source'

SourceForwarder -> db: record 'source' forwarded
return
return

SourceForwarder - -// Cleanup: onChange

@enduml

PlantUML version 1.2022.4(Sat Apr 09 14:29:17 BST 2022)
(GPL source distribution)
Java Runtime: OpenJDK Runtime Environment
JVM: OpenJDK 64-Bit Server VM
Default Encoding: UTF-8
Language: en
Country: GB
--></g></svg>