<?xml version="1.0" encoding="us-ascii" standalone="no"?><svg xmlns="http://www.w3.org/2000/svg" xmlns:xlink="http://www.w3.org/1999/xlink" contentStyleType="text/css" height="842px" preserveAspectRatio="none" style="width:684px;height:842px;background:#FFFFFF;" version="1.1" viewBox="0 0 684 842" width="684px" zoomAndPan="magnify"><defs/><g><!--class feed--><g id="elem_feed"><rect codeLine="5" fill="#F1F1F1" height="96.8906" id="feed" rx="2.5" ry="2.5" style="stroke:#181818;stroke-width:0.5;" width="186" x="168.5" y="56"/><ellipse cx="243.25" cy="72" fill="#ADD1B2" rx="11" ry="11" style="stroke:#181818;stroke-width:1.0;"/><path d="M246.2656,78 L239.2813,78 L239.2813,65.8594 L246.2656,65.8594 L246.2656,67.9688 L241.8438,67.9688 L241.8438,70.6406 L245.9531,70.6406 L245.9531,72.75 L241.8438,72.75 L241.8438,75.875 L246.2656,75.875 L246.2656,78 Z " fill="#000000"/><text fill="#000000" font-family="sans-serif" font-size="14" lengthAdjust="spacing" textLength="28" x="263.75" y="76.8467">feed</text><line style="stroke:#181818;stroke-width:0.5;" x1="169.5" x2="353.5" y1="88" y2="88"/><ellipse cx="179.5" cy="101.6484" fill="#000000" rx="3" ry="3" style="stroke:#000000;stroke-width:1.0;"/><text fill="#000000" font-family="sans-serif" font-size="14" lengthAdjust="spacing" textLength="60" x="188.5" y="104.9951">id : bigint</text><line style="stroke:#181818;stroke-width:1.0;" x1="169.5" x2="353.5" y1="112.2969" y2="112.2969"/><ellipse cx="179.5" cy="125.9453" fill="#000000" rx="3" ry="3" style="stroke:#000000;stroke-width:1.0;"/><text fill="#000000" font-family="sans-serif" font-size="14" lengthAdjust="spacing" textLength="160" x="188.5" y="129.292">feed_name : varchar(255)</text><ellipse cx="179.5" cy="142.2422" fill="#000000" rx="3" ry="3" style="stroke:#000000;stroke-width:1.0;"/><text fill="#000000" font-family="sans-serif" font-size="14" lengthAdjust="spacing" textLength="160" x="188.5" y="145.5889">type_name : varchar(255)</text></g><!--class source--><g id="elem_source"><rect codeLine="12" fill="#F1F1F1" height="145.7813" id="source" rx="2.5" ry="2.5" style="stroke:#181818;stroke-width:0.5;" width="201" x="7" y="270"/><ellipse cx="81.75" cy="286" fill="#ADD1B2" rx="11" ry="11" style="stroke:#181818;stroke-width:1.0;"/><path d="M84.7656,292 L77.7813,292 L77.7813,279.8594 L84.7656,279.8594 L84.7656,281.9688 L80.3438,281.9688 L80.3438,284.6406 L84.4531,284.6406 L84.4531,286.75 L80.3438,286.75 L80.3438,289.875 L84.7656,289.875 L84.7656,292 Z " fill="#000000"/><text fill="#000000" font-family="sans-serif" font-size="14" lengthAdjust="spacing" textLength="43" x="102.25" y="290.8467">source</text><line style="stroke:#181818;stroke-width:0.5;" x1="8" x2="207" y1="302" y2="302"/><ellipse cx="18" cy="315.6484" fill="#000000" rx="3" ry="3" style="stroke:#000000;stroke-width:1.0;"/><text fill="#000000" font-family="sans-serif" font-size="14" lengthAdjust="spacing" textLength="60" x="27" y="318.9951">id : bigint</text><line style="stroke:#181818;stroke-width:1.0;" x1="8" x2="207" y1="326.2969" y2="326.2969"/><ellipse cx="18" cy="339.9453" fill="#000000" rx="3" ry="3" style="stroke:#000000;stroke-width:1.0;"/><text fill="#000000" font-family="sans-serif" font-size="14" lengthAdjust="spacing" textLength="175" x="27" y="343.292">path : varchar(255) - unique</text><ellipse cx="18" cy="356.2422" fill="#000000" rx="3" ry="3" style="stroke:#000000;stroke-width:1.0;"/><text fill="#000000" font-family="sans-serif" font-size="14" lengthAdjust="spacing" textLength="111" x="27" y="359.5889">fk_feed_id : bigint</text><ellipse cx="18" cy="372.5391" fill="#000000" rx="3" ry="3" style="stroke:#000000;stroke-width:1.0;"/><text fill="#000000" font-family="sans-serif" font-size="14" lengthAdjust="spacing" textLength="126" x="27" y="375.8857">examined : boolean</text><ellipse cx="18" cy="388.8359" fill="#000000" rx="3" ry="3" style="stroke:#000000;stroke-width:1.0;"/><text fill="#000000" font-family="sans-serif" font-size="14" lengthAdjust="spacing" textLength="129" x="27" y="392.1826">item_count : integer</text><ellipse cx="18" cy="405.1328" fill="#000000" rx="3" ry="3" style="stroke:#000000;stroke-width:1.0;"/><text fill="#000000" font-family="sans-serif" font-size="14" lengthAdjust="spacing" textLength="132" x="27" y="408.4795">new_position : bigint</text></g><!--class source_item--><g id="elem_source_item"><rect codeLine="22" fill="#F1F1F1" height="162.0781" id="source_item" rx="2.5" ry="2.5" style="stroke:#181818;stroke-width:0.5;" width="170" x="176.5" y="484"/><ellipse cx="218.05" cy="500" fill="#ADD1B2" rx="11" ry="11" style="stroke:#181818;stroke-width:1.0;"/><path d="M221.0656,506 L214.0813,506 L214.0813,493.8594 L221.0656,493.8594 L221.0656,495.9688 L216.6438,495.9688 L216.6438,498.6406 L220.7531,498.6406 L220.7531,500.75 L216.6438,500.75 L216.6438,503.875 L221.0656,503.875 L221.0656,506 Z " fill="#000000"/><text fill="#000000" font-family="sans-serif" font-size="14" lengthAdjust="spacing" textLength="79" x="237.95" y="504.8467">source_item</text><line style="stroke:#181818;stroke-width:0.5;" x1="177.5" x2="345.5" y1="516" y2="516"/><ellipse cx="187.5" cy="529.6484" fill="#000000" rx="3" ry="3" style="stroke:#000000;stroke-width:1.0;"/><text fill="#000000" font-family="sans-serif" font-size="14" lengthAdjust="spacing" textLength="60" x="196.5" y="532.9951">id : bigint</text><line style="stroke:#181818;stroke-width:1.0;" x1="177.5" x2="345.5" y1="540.2969" y2="540.2969"/><ellipse cx="187.5" cy="553.9453" fill="#000000" rx="3" ry="3" style="stroke:#000000;stroke-width:1.0;"/><text fill="#000000" font-family="sans-serif" font-size="14" lengthAdjust="spacing" textLength="126" x="196.5" y="557.292">name : varchar(255)</text><ellipse cx="187.5" cy="570.2422" fill="#000000" rx="3" ry="3" style="stroke:#000000;stroke-width:1.0;"/><text fill="#000000" font-family="sans-serif" font-size="14" lengthAdjust="spacing" textLength="111" x="196.5" y="573.5889">fk_feed_id : bigint</text><ellipse cx="187.5" cy="586.5391" fill="#000000" rx="3" ry="3" style="stroke:#000000;stroke-width:1.0;"/><text fill="#000000" font-family="sans-serif" font-size="14" lengthAdjust="spacing" textLength="108" x="196.5" y="589.8857">byte_size : bigint</text><ellipse cx="187.5" cy="602.8359" fill="#000000" rx="3" ry="3" style="stroke:#000000;stroke-width:1.0;"/><text fill="#000000" font-family="sans-serif" font-size="14" lengthAdjust="spacing" textLength="126" x="196.5" y="606.1826">fk_source_id : bigint</text><ellipse cx="187.5" cy="619.1328" fill="#000000" rx="3" ry="3" style="stroke:#000000;stroke-width:1.0;"/><text fill="#000000" font-family="sans-serif" font-size="14" lengthAdjust="spacing" textLength="144" x="196.5" y="622.4795">fk_aggregate_id : bigint</text><ellipse cx="187.5" cy="635.4297" fill="#000000" rx="3" ry="3" style="stroke:#000000;stroke-width:1.0;"/><text fill="#000000" font-family="sans-serif" font-size="14" lengthAdjust="spacing" textLength="132" x="196.5" y="638.7764">new_position : bigint</text></g><!--class source_entry--><g id="elem_source_entry"><rect codeLine="33" fill="#F1F1F1" height="129.4844" id="source_entry" rx="2.5" ry="2.5" style="stroke:#181818;stroke-width:0.5;" width="188" x="167.5" y="706"/><ellipse cx="216.25" cy="722" fill="#ADD1B2" rx="11" ry="11" style="stroke:#181818;stroke-width:1.0;"/><path d="M219.2656,728 L212.2813,728 L212.2813,715.8594 L219.2656,715.8594 L219.2656,717.9688 L214.8438,717.9688 L214.8438,720.6406 L218.9531,720.6406 L218.9531,722.75 L214.8438,722.75 L214.8438,725.875 L219.2656,725.875 L219.2656,728 Z " fill="#000000"/><text fill="#000000" font-family="sans-serif" font-size="14" lengthAdjust="spacing" textLength="82" x="236.75" y="726.8467">source_entry</text><line style="stroke:#181818;stroke-width:0.5;" x1="168.5" x2="354.5" y1="738" y2="738"/><ellipse cx="178.5" cy="751.6484" fill="#000000" rx="3" ry="3" style="stroke:#000000;stroke-width:1.0;"/><text fill="#000000" font-family="sans-serif" font-size="14" lengthAdjust="spacing" textLength="60" x="187.5" y="754.9951">id : bigint</text><line style="stroke:#181818;stroke-width:1.0;" x1="168.5" x2="354.5" y1="762.2969" y2="762.2969"/><ellipse cx="178.5" cy="775.9453" fill="#000000" rx="3" ry="3" style="stroke:#000000;stroke-width:1.0;"/><text fill="#000000" font-family="sans-serif" font-size="14" lengthAdjust="spacing" textLength="153" x="187.5" y="779.292">extension : varchar(255)</text><ellipse cx="178.5" cy="792.2422" fill="#000000" rx="3" ry="3" style="stroke:#000000;stroke-width:1.0;"/><text fill="#000000" font-family="sans-serif" font-size="14" lengthAdjust="spacing" textLength="126" x="187.5" y="795.5889">extension_type : int</text><ellipse cx="178.5" cy="808.5391" fill="#000000" rx="3" ry="3" style="stroke:#000000;stroke-width:1.0;"/><text fill="#000000" font-family="sans-serif" font-size="14" lengthAdjust="spacing" textLength="108" x="187.5" y="811.8857">byte_size : bigint</text><ellipse cx="178.5" cy="824.8359" fill="#000000" rx="3" ry="3" style="stroke:#000000;stroke-width:1.0;"/><text fill="#000000" font-family="sans-serif" font-size="14" lengthAdjust="spacing" textLength="162" x="187.5" y="828.1826">fk_source_item_id : bigint</text></g><!--class aggregate--><g id="elem_aggregate"><rect codeLine="42" fill="#F1F1F1" height="162.0781" id="aggregate" rx="2.5" ry="2.5" style="stroke:#181818;stroke-width:0.5;" width="176" x="314.5" y="262"/><ellipse cx="367.75" cy="278" fill="#ADD1B2" rx="11" ry="11" style="stroke:#181818;stroke-width:1.0;"/><path d="M370.7656,284 L363.7813,284 L363.7813,271.8594 L370.7656,271.8594 L370.7656,273.9688 L366.3438,273.9688 L366.3438,276.6406 L370.4531,276.6406 L370.4531,278.75 L366.3438,278.75 L366.3438,281.875 L370.7656,281.875 L370.7656,284 Z " fill="#000000"/><text fill="#000000" font-family="sans-serif" font-size="14" lengthAdjust="spacing" textLength="61" x="388.25" y="282.8467">aggregate</text><line style="stroke:#181818;stroke-width:0.5;" x1="315.5" x2="489.5" y1="294" y2="294"/><ellipse cx="325.5" cy="307.6484" fill="#000000" rx="3" ry="3" style="stroke:#000000;stroke-width:1.0;"/><text fill="#000000" font-family="sans-serif" font-size="14" lengthAdjust="spacing" textLength="60" x="334.5" y="310.9951">id : bigint</text><line style="stroke:#181818;stroke-width:1.0;" x1="315.5" x2="489.5" y1="318.2969" y2="318.2969"/><ellipse cx="325.5" cy="331.9453" fill="#000000" rx="3" ry="3" style="stroke:#000000;stroke-width:1.0;"/><text fill="#000000" font-family="sans-serif" font-size="14" lengthAdjust="spacing" textLength="150" x="334.5" y="335.292">create_time_ms : bigint</text><ellipse cx="325.5" cy="348.2422" fill="#000000" rx="3" ry="3" style="stroke:#000000;stroke-width:1.0;"/><text fill="#000000" font-family="sans-serif" font-size="14" lengthAdjust="spacing" textLength="111" x="334.5" y="351.5889">fk_feed_id : bigint</text><ellipse cx="325.5" cy="364.5391" fill="#000000" rx="3" ry="3" style="stroke:#000000;stroke-width:1.0;"/><text fill="#000000" font-family="sans-serif" font-size="14" lengthAdjust="spacing" textLength="108" x="334.5" y="367.8857">byte_size : bigint</text><ellipse cx="325.5" cy="380.8359" fill="#000000" rx="3" ry="3" style="stroke:#000000;stroke-width:1.0;"/><text fill="#000000" font-family="sans-serif" font-size="14" lengthAdjust="spacing" textLength="66" x="334.5" y="384.1826">items : int</text><ellipse cx="325.5" cy="397.1328" fill="#000000" rx="3" ry="3" style="stroke:#000000;stroke-width:1.0;"/><text fill="#000000" font-family="sans-serif" font-size="14" lengthAdjust="spacing" textLength="124" x="334.5" y="400.4795">complete : boolean</text><ellipse cx="325.5" cy="413.4297" fill="#000000" rx="3" ry="3" style="stroke:#000000;stroke-width:1.0;"/><text fill="#000000" font-family="sans-serif" font-size="14" lengthAdjust="spacing" textLength="132" x="334.5" y="416.7764">new_position : bigint</text></g><!--class forward_dest--><g id="elem_forward_dest"><rect codeLine="53" fill="#F1F1F1" height="80.5938" id="forward_dest" rx="2.5" ry="2.5" style="stroke:#181818;stroke-width:0.5;" width="152" x="525.5" y="302.5"/><ellipse cx="558.05" cy="318.5" fill="#ADD1B2" rx="11" ry="11" style="stroke:#181818;stroke-width:1.0;"/><path d="M561.0656,324.5 L554.0813,324.5 L554.0813,312.3594 L561.0656,312.3594 L561.0656,314.4688 L556.6438,314.4688 L556.6438,317.1406 L560.7531,317.1406 L560.7531,319.25 L556.6438,319.25 L556.6438,322.375 L561.0656,322.375 L561.0656,324.5 Z " fill="#000000"/><text fill="#000000" font-family="sans-serif" font-size="14" lengthAdjust="spacing" textLength="81" x="575.95" y="323.3467">forward_dest</text><line style="stroke:#181818;stroke-width:0.5;" x1="526.5" x2="676.5" y1="334.5" y2="334.5"/><ellipse cx="536.5" cy="348.1484" fill="#000000" rx="3" ry="3" style="stroke:#000000;stroke-width:1.0;"/><text fill="#000000" font-family="sans-serif" font-size="14" lengthAdjust="spacing" textLength="41" x="545.5" y="351.4951">id : int</text><line style="stroke:#181818;stroke-width:1.0;" x1="526.5" x2="676.5" y1="358.7969" y2="358.7969"/><ellipse cx="536.5" cy="372.4453" fill="#000000" rx="3" ry="3" style="stroke:#000000;stroke-width:1.0;"/><text fill="#000000" font-family="sans-serif" font-size="14" lengthAdjust="spacing" textLength="126" x="545.5" y="375.792">name : varchar(255)</text></g><!--class forward_aggregate--><g id="elem_forward_aggregate"><rect codeLine="59" fill="#F1F1F1" height="194.6719" id="forward_aggregate" rx="2.5" ry="2.5" style="stroke:#181818;stroke-width:0.5;" width="180" x="450.5" y="7"/><ellipse cx="480.8" cy="23" fill="#ADD1B2" rx="11" ry="11" style="stroke:#181818;stroke-width:1.0;"/><path d="M483.8156,29 L476.8313,29 L476.8313,16.8594 L483.8156,16.8594 L483.8156,18.9688 L479.3938,18.9688 L479.3938,21.6406 L483.5031,21.6406 L483.5031,23.75 L479.3938,23.75 L479.3938,26.875 L483.8156,26.875 L483.8156,29 Z " fill="#000000"/><text fill="#000000" font-family="sans-serif" font-size="14" lengthAdjust="spacing" textLength="114" x="498.2" y="27.8467">forward_aggregate</text><line style="stroke:#181818;stroke-width:0.5;" x1="451.5" x2="629.5" y1="39" y2="39"/><ellipse cx="461.5" cy="52.6484" fill="#000000" rx="3" ry="3" style="stroke:#000000;stroke-width:1.0;"/><text fill="#000000" font-family="sans-serif" font-size="14" lengthAdjust="spacing" textLength="60" x="470.5" y="55.9951">id : bigint</text><line style="stroke:#181818;stroke-width:1.0;" x1="451.5" x2="629.5" y1="63.2969" y2="63.2969"/><ellipse cx="461.5" cy="76.9453" fill="#000000" rx="3" ry="3" style="stroke:#000000;stroke-width:1.0;"/><text fill="#000000" font-family="sans-serif" font-size="14" lengthAdjust="spacing" textLength="154" x="470.5" y="80.292">update_time_ms : bigint</text><ellipse cx="461.5" cy="93.2422" fill="#000000" rx="3" ry="3" style="stroke:#000000;stroke-width:1.0;"/><text fill="#000000" font-family="sans-serif" font-size="14" lengthAdjust="spacing" textLength="145" x="470.5" y="96.5889">fk_forward_dest_id : int</text><ellipse cx="461.5" cy="109.5391" fill="#000000" rx="3" ry="3" style="stroke:#000000;stroke-width:1.0;"/><text fill="#000000" font-family="sans-serif" font-size="14" lengthAdjust="spacing" textLength="144" x="470.5" y="112.8857">fk_aggregate_id : bigint</text><ellipse cx="461.5" cy="125.8359" fill="#000000" rx="3" ry="3" style="stroke:#000000;stroke-width:1.0;"/><text fill="#000000" font-family="sans-serif" font-size="14" lengthAdjust="spacing" textLength="114" x="470.5" y="129.1826">success : boolean</text><ellipse cx="461.5" cy="142.1328" fill="#000000" rx="3" ry="3" style="stroke:#000000;stroke-width:1.0;"/><text fill="#000000" font-family="sans-serif" font-size="14" lengthAdjust="spacing" textLength="121" x="470.5" y="145.4795">error : varchar(255)</text><ellipse cx="461.5" cy="158.4297" fill="#000000" rx="3" ry="3" style="stroke:#000000;stroke-width:1.0;"/><text fill="#000000" font-family="sans-serif" font-size="14" lengthAdjust="spacing" textLength="77" x="470.5" y="161.7764">tries : bigint</text><ellipse cx="461.5" cy="174.7266" fill="#000000" rx="3" ry="3" style="stroke:#000000;stroke-width:1.0;"/><text fill="#000000" font-family="sans-serif" font-size="14" lengthAdjust="spacing" textLength="132" x="470.5" y="178.0732">new_position : bigint</text><ellipse cx="461.5" cy="191.0234" fill="#000000" rx="3" ry="3" style="stroke:#000000;stroke-width:1.0;"/><text fill="#000000" font-family="sans-serif" font-size="14" lengthAdjust="spacing" textLength="136" x="470.5" y="194.3701">retry_position : bigint</text></g><!--link feed to source--><g id="link_feed_source"><path codeLine="72" d="M188.25,161.05 C188.25,161.05 188.25,261.59 188.25,261.59 " fill="none" id="feed-source" style="stroke:#181818;stroke-width:1.0;"/><line style="stroke:#181818;stroke-width:1.0;" x1="184.25" x2="192.25" y1="157.05" y2="157.05"/><line style="stroke:#181818;stroke-width:1.0;" x1="184.25" x2="192.25" y1="160.05" y2="160.05"/><line style="stroke:#181818;stroke-width:1.0;" x1="188.25" x2="188.25" y1="161.05" y2="153.05"/><line style="stroke:#181818;stroke-width:1.0;" x1="188.25" x2="194.25" y1="261.59" y2="269.59"/><line style="stroke:#181818;stroke-width:1.0;" x1="188.25" x2="182.25" y1="261.59" y2="269.59"/><line style="stroke:#181818;stroke-width:1.0;" x1="188.25" x2="188.25" y1="261.59" y2="269.59"/><line style="stroke:#181818;stroke-width:1.0;" x1="192.25" x2="184.25" y1="259.59" y2="259.59"/></g><!--link feed to source_item--><g id="link_feed_source_item"><path codeLine="73" d="M261.25,161.35 C261.25,161.35 261.25,475.91 261.25,475.91 " fill="none" id="feed-source_item" style="stroke:#181818;stroke-width:1.0;"/><line style="stroke:#181818;stroke-width:1.0;" x1="257.25" x2="265.25" y1="157.35" y2="157.35"/><line style="stroke:#181818;stroke-width:1.0;" x1="257.25" x2="265.25" y1="160.35" y2="160.35"/><line style="stroke:#181818;stroke-width:1.0;" x1="261.25" x2="261.25" y1="161.35" y2="153.35"/><line style="stroke:#181818;stroke-width:1.0;" x1="261.25" x2="267.25" y1="475.91" y2="483.91"/><line style="stroke:#181818;stroke-width:1.0;" x1="261.25" x2="255.25" y1="475.91" y2="483.91"/><line style="stroke:#181818;stroke-width:1.0;" x1="261.25" x2="261.25" y1="475.91" y2="483.91"/><line style="stroke:#181818;stroke-width:1.0;" x1="265.25" x2="257.25" y1="473.91" y2="473.91"/></g><!--link feed to aggregate--><g id="link_feed_aggregate"><path codeLine="74" d="M334.5,161.05 C334.5,161.05 334.5,253.64 334.5,253.64 " fill="none" id="feed-aggregate" style="stroke:#181818;stroke-width:1.0;"/><line style="stroke:#181818;stroke-width:1.0;" x1="330.5" x2="338.5" y1="157.05" y2="157.05"/><line style="stroke:#181818;stroke-width:1.0;" x1="330.5" x2="338.5" y1="160.05" y2="160.05"/><line style="stroke:#181818;stroke-width:1.0;" x1="334.5" x2="334.5" y1="161.05" y2="153.05"/><line style="stroke:#181818;stroke-width:1.0;" x1="334.5" x2="340.5" y1="253.64" y2="261.64"/><line style="stroke:#181818;stroke-width:1.0;" x1="334.5" x2="328.5" y1="253.64" y2="261.64"/><line style="stroke:#181818;stroke-width:1.0;" x1="334.5" x2="334.5" y1="253.64" y2="261.64"/><line style="stroke:#181818;stroke-width:1.0;" x1="338.5" x2="330.5" y1="251.64" y2="251.64"/></g><!--link source to source_item--><g id="link_source_source_item"><path codeLine="76" d="M192.25,424.31 C192.25,424.31 192.25,475.73 192.25,475.73 " fill="none" id="source-source_item" style="stroke:#181818;stroke-width:1.0;stroke-dasharray:7.0,7.0;"/><line style="stroke:#181818;stroke-width:1.0;" x1="188.25" x2="196.25" y1="420.31" y2="420.31"/><line style="stroke:#181818;stroke-width:1.0;" x1="188.25" x2="196.25" y1="423.31" y2="423.31"/><line style="stroke:#181818;stroke-width:1.0;" x1="192.25" x2="192.25" y1="424.31" y2="416.31"/><line style="stroke:#181818;stroke-width:1.0;" x1="192.25" x2="198.25" y1="475.73" y2="483.73"/><line style="stroke:#181818;stroke-width:1.0;" x1="192.25" x2="186.25" y1="475.73" y2="483.73"/><line style="stroke:#181818;stroke-width:1.0;" x1="192.25" x2="192.25" y1="475.73" y2="483.73"/><ellipse cx="192.25" cy="469.73" fill="none" rx="4" ry="4" style="stroke:#181818;stroke-width:1.0;"/></g><!--link source_item to source_entry--><g id="link_source_item_source_entry"><path codeLine="77" d="M261.5,654.22 C261.5,654.22 261.5,697.69 261.5,697.69 " fill="none" id="source_item-source_entry" style="stroke:#181818;stroke-width:1.0;"/><line style="stroke:#181818;stroke-width:1.0;" x1="257.5" x2="265.5" y1="650.22" y2="650.22"/><line style="stroke:#181818;stroke-width:1.0;" x1="257.5" x2="265.5" y1="653.22" y2="653.22"/><line style="stroke:#181818;stroke-width:1.0;" x1="261.5" x2="261.5" y1="654.22" y2="646.22"/><line style="stroke:#181818;stroke-width:1.0;" x1="261.5" x2="267.5" y1="697.69" y2="705.69"/><line style="stroke:#181818;stroke-width:1.0;" x1="261.5" x2="255.5" y1="697.69" y2="705.69"/><line style="stroke:#181818;stroke-width:1.0;" x1="261.5" x2="261.5" y1="697.69" y2="705.69"/><line style="stroke:#181818;stroke-width:1.0;" x1="265.5" x2="257.5" y1="695.69" y2="695.69"/></g><!--link aggregate to source_item--><g id="link_aggregate_source_item"><path codeLine="78" d="M330.5,432.09 C330.5,432.09 330.5,475.76 330.5,475.76 " fill="none" id="aggregate-source_item" style="stroke:#181818;stroke-width:1.0;"/><line style="stroke:#181818;stroke-width:1.0;" x1="326.5" x2="334.5" y1="428.09" y2="428.09"/><line style="stroke:#181818;stroke-width:1.0;" x1="326.5" x2="334.5" y1="431.09" y2="431.09"/><line style="stroke:#181818;stroke-width:1.0;" x1="330.5" x2="330.5" y1="432.09" y2="424.09"/><line style="stroke:#181818;stroke-width:1.0;" x1="330.5" x2="336.5" y1="475.76" y2="483.76"/><line style="stroke:#181818;stroke-width:1.0;" x1="330.5" x2="324.5" y1="475.76" y2="483.76"/><line style="stroke:#181818;stroke-width:1.0;" x1="330.5" x2="330.5" y1="475.76" y2="483.76"/><line style="stroke:#181818;stroke-width:1.0;" x1="334.5" x2="326.5" y1="473.76" y2="473.76"/></g><!--link forward_aggregate to forward_dest--><g id="link_forward_aggregate_forward_dest"><path codeLine="79" d="M578,210.2 C578,210.2 578,294.25 578,294.25 " fill="none" id="forward_aggregate-forward_dest" style="stroke:#181818;stroke-width:1.0;"/><line style="stroke:#181818;stroke-width:1.0;" x1="578" x2="572" y1="210.2" y2="202.2"/><line style="stroke:#181818;stroke-width:1.0;" x1="578" x2="584" y1="210.2" y2="202.2"/><line style="stroke:#181818;stroke-width:1.0;" x1="578" x2="578" y1="210.2" y2="202.2"/><ellipse cx="578" cy="216.2" fill="none" rx="4" ry="4" style="stroke:#181818;stroke-width:1.0;"/><line style="stroke:#181818;stroke-width:1.0;" x1="582" x2="574" y1="298.25" y2="298.25"/><line style="stroke:#181818;stroke-width:1.0;" x1="582" x2="574" y1="295.25" y2="295.25"/><line style="stroke:#181818;stroke-width:1.0;" x1="578" x2="578" y1="294.25" y2="302.25"/></g><!--link forward_aggregate to aggregate--><g id="link_forward_aggregate_aggregate"><path codeLine="80" d="M470.5,210.2 C470.5,210.2 470.5,253.8 470.5,253.8 " fill="none" id="forward_aggregate-aggregate" style="stroke:#181818;stroke-width:1.0;"/><line style="stroke:#181818;stroke-width:1.0;" x1="470.5" x2="464.5" y1="210.2" y2="202.2"/><line style="stroke:#181818;stroke-width:1.0;" x1="470.5" x2="476.5" y1="210.2" y2="202.2"/><line style="stroke:#181818;stroke-width:1.0;" x1="470.5" x2="470.5" y1="210.2" y2="202.2"/><ellipse cx="470.5" cy="216.2" fill="none" rx="4" ry="4" style="stroke:#181818;stroke-width:1.0;"/><line style="stroke:#181818;stroke-width:1.0;" x1="474.5" x2="466.5" y1="257.8" y2="257.8"/><line style="stroke:#181818;stroke-width:1.0;" x1="474.5" x2="466.5" y1="254.8" y2="254.8"/><line style="stroke:#181818;stroke-width:1.0;" x1="470.5" x2="470.5" y1="253.8" y2="261.8"/></g><!--SRC=[ZLHDSuCW4BtxAxYrpOmvT2QN_Xc6uCOmKTOk66DZ_dk1fYf64u_inzltbWTlJ9nHPQmYt1TG6jOeUsH2vmLaJ18sXXq0R69EIbU2HCaAfS6s5J0aUyGa0MsLRNrLngu9Onk7ziNsAbVQkcEQ-fZFSYrASAcp87aKzFwvsttud0URpTrwS8CrILY6huGZ7NUpbDLQVTSGnfzuO13tRk0YIgSc114B43eCi51oYRMsBkug8GVoSGqDhz0egr0FC5EItBSlCrtOmGB1VMk16_K3KTGL_y_AfWcHvmIvi0-vbUpTYTfb-d2neCqVn5H3d-F17c5tgqJuVO-73QHwDSkC985NQrK9tDbtCcBzKZqBCv2MM5O5M8YjyMg91wH6KCOpC7P4-PK17W5M2A-hx9dm4HC-8l7K8wQM4eo9DGCHqjop9GLcXSLSWi2PQdvnuTlekZJjhdSBpeI2HQ9uBo59xdz3rsst63UC7sIC5roU34kUc_Pm4pTqHLrqnyjL0y5V]--></g></svg>