<?xml version="1.0" encoding="UTF-8" standalone="no"?><svg xmlns="http://www.w3.org/2000/svg" xmlns:xlink="http://www.w3.org/1999/xlink" contentScriptType="application/ecmascript" contentStyleType="text/css" height="363px" preserveAspectRatio="none" style="width:527px;height:363px;background:#FFFFFF;" version="1.1" viewBox="0 0 527 363" width="527px" zoomAndPan="magnify"><defs><filter height="300%" id="f1s2w9hyfl3gdl" width="300%" x="-1" y="-1"><feGaussianBlur result="blurOut" stdDeviation="2.0"/><feColorMatrix in="blurOut" result="blurOut2" type="matrix" values="0 0 0 0 0 0 0 0 0 0 0 0 0 0 0 0 0 0 .4 0"/><feOffset dx="4.0" dy="4.0" in="blurOut2" result="blurOut3"/><feBlend in="SourceGraphic" in2="blurOut3" mode="normal"/></filter></defs><g><text fill="#000000" font-family="sans-serif" font-size="18" lengthAdjust="spacing" textLength="113" x="209" y="31.2419">Forward Only</text><line style="stroke:#A80036;stroke-width:1.0;stroke-dasharray:5.0,5.0;" x1="36" x2="36" y1="129.5838" y2="276.4078"/><line style="stroke:#A80036;stroke-width:1.0;stroke-dasharray:5.0,5.0;" x1="159" x2="159" y1="129.5838" y2="276.4078"/><line style="stroke:#A80036;stroke-width:1.0;stroke-dasharray:5.0,5.0;" x1="342" x2="342" y1="129.5838" y2="276.4078"/><line style="stroke:#A80036;stroke-width:1.0;stroke-dasharray:5.0,5.0;" x1="484" x2="484" y1="129.5838" y2="276.4078"/><text fill="#000000" font-family="sans-serif" font-size="14" lengthAdjust="spacing" textLength="57" x="5" y="125.4818">Supplier</text><ellipse cx="36.5" cy="53.5158" fill="#FEFECE" filter="url(#f1s2w9hyfl3gdl)" rx="8" ry="8" style="stroke:#A80036;stroke-width:2.0;"/><path d="M36.5,61.5158 L36.5,88.5158 M23.5,69.5158 L49.5,69.5158 M36.5,88.5158 L23.5,103.5158 M36.5,88.5158 L49.5,103.5158 " fill="none" filter="url(#f1s2w9hyfl3gdl)" style="stroke:#A80036;stroke-width:2.0;"/><text fill="#000000" font-family="sans-serif" font-size="14" lengthAdjust="spacing" textLength="57" x="5" y="290.3738">Supplier</text><ellipse cx="36.5" cy="304.4757" fill="#FEFECE" filter="url(#f1s2w9hyfl3gdl)" rx="8" ry="8" style="stroke:#A80036;stroke-width:2.0;"/><path d="M36.5,312.4757 L36.5,339.4757 M23.5,320.4757 L49.5,320.4757 M36.5,339.4757 L23.5,354.4757 M36.5,339.4757 L49.5,354.4757 " fill="none" filter="url(#f1s2w9hyfl3gdl)" style="stroke:#A80036;stroke-width:2.0;"/><rect fill="#FEFECE" filter="url(#f1s2w9hyfl3gdl)" height="33.0679" style="stroke:#A80036;stroke-width:1.5;" width="159" x="78" y="91.5158"/><text fill="#000000" font-family="sans-serif" font-size="14" lengthAdjust="spacing" textLength="145" x="85" y="113.4818">ProxyRequestHandler</text><rect fill="#FEFECE" filter="url(#f1s2w9hyfl3gdl)" height="33.0679" style="stroke:#A80036;stroke-width:1.5;" width="159" x="78" y="275.4078"/><text fill="#000000" font-family="sans-serif" font-size="14" lengthAdjust="spacing" textLength="145" x="85" y="297.3738">ProxyRequestHandler</text><rect fill="#FEFECE" filter="url(#f1s2w9hyfl3gdl)" height="33.0679" style="stroke:#A80036;stroke-width:1.5;" width="178" x="251" y="91.5158"/><text fill="#000000" font-family="sans-serif" font-size="14" lengthAdjust="spacing" textLength="164" x="258" y="113.4818">ForwardStreamHandlers</text><rect fill="#FEFECE" filter="url(#f1s2w9hyfl3gdl)" height="33.0679" style="stroke:#A80036;stroke-width:1.5;" width="178" x="251" y="275.4078"/><text fill="#000000" font-family="sans-serif" font-size="14" lengthAdjust="spacing" textLength="164" x="258" y="297.3738">ForwardStreamHandlers</text><text fill="#000000" font-family="sans-serif" font-size="14" lengthAdjust="spacing" textLength="77" x="443" y="125.4818">Destination</text><ellipse cx="484.5" cy="53.5158" fill="#FEFECE" filter="url(#f1s2w9hyfl3gdl)" rx="8" ry="8" style="stroke:#A80036;stroke-width:2.0;"/><path d="M484.5,61.5158 L484.5,88.5158 M471.5,69.5158 L497.5,69.5158 M484.5,88.5158 L471.5,103.5158 M484.5,88.5158 L497.5,103.5158 " fill="none" filter="url(#f1s2w9hyfl3gdl)" style="stroke:#A80036;stroke-width:2.0;"/><text fill="#000000" font-family="sans-serif" font-size="14" lengthAdjust="spacing" textLength="77" x="443" y="290.3738">Destination</text><ellipse cx="484.5" cy="304.4757" fill="#FEFECE" filter="url(#f1s2w9hyfl3gdl)" rx="8" ry="8" style="stroke:#A80036;stroke-width:2.0;"/><path d="M484.5,312.4757 L484.5,339.4757 M471.5,320.4757 L497.5,320.4757 M484.5,339.4757 L471.5,354.4757 M484.5,339.4757 L497.5,354.4757 " fill="none" filter="url(#f1s2w9hyfl3gdl)" style="stroke:#A80036;stroke-width:2.0;"/><polygon fill="#A80036" points="147.5,159.2898,157.5,163.2898,147.5,167.2898,151.5,163.2898" style="stroke:#A80036;stroke-width:1.0;"/><line style="stroke:#A80036;stroke-width:1.0;stroke-dasharray:2.0,2.0;" x1="36.5" x2="153.5" y1="163.2898" y2="163.2898"/><text fill="#000000" font-family="sans-serif" font-size="13" lengthAdjust="spacing" textLength="67" x="43.5" y="157.4808">HTTP POST</text><polygon fill="#A80036" points="330,190.9958,340,194.9958,330,198.9958,334,194.9958" style="stroke:#A80036;stroke-width:1.0;"/><line style="stroke:#A80036;stroke-width:1.0;" x1="159.5" x2="336" y1="194.9958" y2="194.9958"/><text fill="#000000" font-family="sans-serif" font-size="13" lengthAdjust="spacing" textLength="41" x="166.5" y="189.1868">handle</text><polygon fill="#A80036" points="472.5,222.7018,482.5,226.7018,472.5,230.7018,476.5,226.7018" style="stroke:#A80036;stroke-width:1.0;"/><line style="stroke:#A80036;stroke-width:1.0;stroke-dasharray:2.0,2.0;" x1="342" x2="478.5" y1="226.7018" y2="226.7018"/><text fill="#000000" font-family="sans-serif" font-size="13" lengthAdjust="spacing" textLength="41" x="349" y="220.8928">handle</text><polygon fill="#A80036" points="47.5,254.4078,37.5,258.4078,47.5,262.4078,43.5,258.4078" style="stroke:#A80036;stroke-width:1.0;"/><line style="stroke:#A80036;stroke-width:1.0;stroke-dasharray:2.0,2.0;" x1="41.5" x2="158.5" y1="258.4078" y2="258.4078"/><text fill="#000000" font-family="sans-serif" font-size="13" lengthAdjust="spacing" textLength="82" x="53.5" y="252.5988">200 Response</text><!--MD5=[36a76252df2c1335793ff2fa19e4f83b]
@startuml

title Forward Only

actor Supplier
participant ProxyRequestHandler
participant ForwardStreamHandlers
actor Destination

Supplier - -> ProxyRequestHandler: HTTP POST
ProxyRequestHandler -> ForwardStreamHandlers: handle
ForwardStreamHandlers - -> Destination: handle
ProxyRequestHandler - -> Supplier: 200 Response


@enduml

PlantUML version 1.2021.16(Wed Dec 08 17:25:22 GMT 2021)
(GPL source distribution)
Java Runtime: OpenJDK Runtime Environment
JVM: OpenJDK 64-Bit Server VM
Default Encoding: UTF-8
Language: en
Country: GB
--></g></svg>