<?xml version="1.0" encoding="UTF-8" standalone="no"?><svg xmlns="http://www.w3.org/2000/svg" xmlns:xlink="http://www.w3.org/1999/xlink" contentScriptType="application/ecmascript" contentStyleType="text/css" height="431px" preserveAspectRatio="none" style="width:354px;height:431px;background:#FFFFFF;" version="1.1" viewBox="0 0 354 431" width="354px" zoomAndPan="magnify"><defs><filter height="300%" id="f1abnp16vlfik5" width="300%" x="-1" y="-1"><feGaussianBlur result="blurOut" stdDeviation="2.0"/><feColorMatrix in="blurOut" result="blurOut2" type="matrix" values="0 0 0 0 0 0 0 0 0 0 0 0 0 0 0 0 0 0 .4 0"/><feOffset dx="4.0" dy="4.0" in="blurOut2" result="blurOut3"/><feBlend in="SourceGraphic" in2="blurOut3" mode="normal"/></filter></defs><g><!--MD5=[fb94403e3d3521d383fd6507b67b3642]
class source--><rect codeLine="5" fill="#FEFECE" filter="url(#f1abnp16vlfik5)" height="167.8551" id="source" style="stroke:#A80036;stroke-width:1.5;" width="184" x="7" y="250"/><ellipse cx="75.75" cy="266" fill="#ADD1B2" rx="11" ry="11" style="stroke:#A80036;stroke-width:1.0;"/><path d="M72.1094,272.5 L72.1094,260.3594 L79.7656,260.3594 L79.7656,262.4844 L74.4844,262.4844 L74.4844,265.1406 L79.5,265.1406 L79.5,267.2656 L74.4844,267.2656 L74.4844,270.375 L79.7656,270.375 L79.7656,272.5 L72.1094,272.5 Z " fill="#000000"/><text fill="#000000" font-family="sans-serif" font-size="12" lengthAdjust="spacing" textLength="38" x="96.25" y="270.656">source</text><line style="stroke:#A80036;stroke-width:1.5;" x1="8" x2="190" y1="282" y2="282"/><ellipse cx="18" cy="293" fill="#000000" rx="3" ry="3" style="stroke:#000000;stroke-width:1.0;"/><text fill="#000000" font-family="sans-serif" font-size="11" lengthAdjust="spacing" textLength="50" x="27" y="297.7589">id : bigint</text><line style="stroke:#A80036;stroke-width:1.0;" x1="8" x2="190" y1="304.9819" y2="304.9819"/><ellipse cx="18" cy="315.9819" fill="#000000" rx="3" ry="3" style="stroke:#000000;stroke-width:1.0;"/><text fill="#000000" font-family="sans-serif" font-size="11" lengthAdjust="spacing" textLength="144" x="27" y="320.7408">path : varchar(255) - unique</text><ellipse cx="18" cy="330.9638" fill="#000000" rx="3" ry="3" style="stroke:#000000;stroke-width:1.0;"/><text fill="#000000" font-family="sans-serif" font-size="11" lengthAdjust="spacing" textLength="130" x="27" y="335.7227">feed_name : varchar(255)</text><ellipse cx="18" cy="345.9457" fill="#000000" rx="3" ry="3" style="stroke:#000000;stroke-width:1.0;"/><text fill="#000000" font-family="sans-serif" font-size="11" lengthAdjust="spacing" textLength="130" x="27" y="350.7046">type_name : varchar(255)</text><ellipse cx="18" cy="360.9276" fill="#000000" rx="3" ry="3" style="stroke:#000000;stroke-width:1.0;"/><text fill="#000000" font-family="sans-serif" font-size="11" lengthAdjust="spacing" textLength="158" x="27" y="365.6865">last_modified_time_ms : bigint</text><text fill="#000000" font-family="sans-serif" font-size="11" lengthAdjust="spacing" textLength="103" x="27" y="380.6684">examined : boolean</text><ellipse cx="18" cy="390.8913" fill="#000000" rx="3" ry="3" style="stroke:#000000;stroke-width:1.0;"/><text fill="#000000" font-family="sans-serif" font-size="11" lengthAdjust="spacing" textLength="108" x="27" y="395.6502">forwarded : boolean</text><ellipse cx="18" cy="405.8732" fill="#000000" rx="3" ry="3" style="stroke:#000000;stroke-width:1.0;"/><text fill="#000000" font-family="sans-serif" font-size="11" lengthAdjust="spacing" textLength="110" x="27" y="410.6321">new_position : bigint</text><!--MD5=[3cc1e4effaee23fb9097a8bf1d8fa0d4]
class forward_url--><rect codeLine="17" fill="#FEFECE" filter="url(#f1abnp16vlfik5)" height="77.9638" id="forward_url" style="stroke:#A80036;stroke-width:1.5;" width="114" x="226" y="295"/><ellipse cx="249.1" cy="311" fill="#ADD1B2" rx="11" ry="11" style="stroke:#A80036;stroke-width:1.0;"/><path d="M245.4594,317.5 L245.4594,305.3594 L253.1156,305.3594 L253.1156,307.4844 L247.8344,307.4844 L247.8344,310.1406 L252.85,310.1406 L252.85,312.2656 L247.8344,312.2656 L247.8344,315.375 L253.1156,315.375 L253.1156,317.5 L245.4594,317.5 Z " fill="#000000"/><text fill="#000000" font-family="sans-serif" font-size="12" lengthAdjust="spacing" textLength="64" x="264.9" y="315.656">forward_url</text><line style="stroke:#A80036;stroke-width:1.5;" x1="227" x2="339" y1="327" y2="327"/><ellipse cx="237" cy="338" fill="#000000" rx="3" ry="3" style="stroke:#000000;stroke-width:1.0;"/><text fill="#000000" font-family="sans-serif" font-size="11" lengthAdjust="spacing" textLength="33" x="246" y="342.7589">id : int</text><line style="stroke:#A80036;stroke-width:1.0;" x1="227" x2="339" y1="349.9819" y2="349.9819"/><ellipse cx="237" cy="360.9819" fill="#000000" rx="3" ry="3" style="stroke:#000000;stroke-width:1.0;"/><text fill="#000000" font-family="sans-serif" font-size="11" lengthAdjust="spacing" textLength="88" x="246" y="365.7408">url : varchar(255)</text><!--MD5=[cbb12bc3eee1de79b3f2e300a168c511]
class forward_source--><rect codeLine="23" fill="#FEFECE" filter="url(#f1abnp16vlfik5)" height="182.837" id="forward_source" style="stroke:#A80036;stroke-width:1.5;" width="151" x="115.5" y="7"/><ellipse cx="144.9" cy="23" fill="#ADD1B2" rx="11" ry="11" style="stroke:#A80036;stroke-width:1.0;"/><path d="M141.2594,29.5 L141.2594,17.3594 L148.9156,17.3594 L148.9156,19.4844 L143.6344,19.4844 L143.6344,22.1406 L148.65,22.1406 L148.65,24.2656 L143.6344,24.2656 L143.6344,27.375 L148.9156,27.375 L148.9156,29.5 L141.2594,29.5 Z " fill="#000000"/><text fill="#000000" font-family="sans-serif" font-size="12" lengthAdjust="spacing" textLength="87" x="162.1" y="27.656">forward_source</text><line style="stroke:#A80036;stroke-width:1.5;" x1="116.5" x2="265.5" y1="39" y2="39"/><ellipse cx="126.5" cy="50" fill="#000000" rx="3" ry="3" style="stroke:#000000;stroke-width:1.0;"/><text fill="#000000" font-family="sans-serif" font-size="11" lengthAdjust="spacing" textLength="50" x="135.5" y="54.7589">id : bigint</text><line style="stroke:#A80036;stroke-width:1.0;" x1="116.5" x2="265.5" y1="61.9819" y2="61.9819"/><ellipse cx="126.5" cy="72.9819" fill="#000000" rx="3" ry="3" style="stroke:#000000;stroke-width:1.0;"/><text fill="#000000" font-family="sans-serif" font-size="11" lengthAdjust="spacing" textLength="125" x="135.5" y="77.7408">update_time_ms : bigint</text><ellipse cx="126.5" cy="87.9638" fill="#000000" rx="3" ry="3" style="stroke:#000000;stroke-width:1.0;"/><text fill="#000000" font-family="sans-serif" font-size="11" lengthAdjust="spacing" textLength="116" x="135.5" y="92.7227">fk_forward_url_id : int</text><ellipse cx="126.5" cy="102.9457" fill="#000000" rx="3" ry="3" style="stroke:#000000;stroke-width:1.0;"/><text fill="#000000" font-family="sans-serif" font-size="11" lengthAdjust="spacing" textLength="105" x="135.5" y="107.7046">fk_source_id : bigint</text><ellipse cx="126.5" cy="117.9276" fill="#000000" rx="3" ry="3" style="stroke:#000000;stroke-width:1.0;"/><text fill="#000000" font-family="sans-serif" font-size="11" lengthAdjust="spacing" textLength="90" x="135.5" y="122.6865">success : boolean</text><ellipse cx="126.5" cy="132.9094" fill="#000000" rx="3" ry="3" style="stroke:#000000;stroke-width:1.0;"/><text fill="#000000" font-family="sans-serif" font-size="11" lengthAdjust="spacing" textLength="101" x="135.5" y="137.6684">error : varchar(255)</text><ellipse cx="126.5" cy="147.8913" fill="#000000" rx="3" ry="3" style="stroke:#000000;stroke-width:1.0;"/><text fill="#000000" font-family="sans-serif" font-size="11" lengthAdjust="spacing" textLength="63" x="135.5" y="152.6502">tries : bigint</text><ellipse cx="126.5" cy="162.8732" fill="#000000" rx="3" ry="3" style="stroke:#000000;stroke-width:1.0;"/><text fill="#000000" font-family="sans-serif" font-size="11" lengthAdjust="spacing" textLength="110" x="135.5" y="167.6321">new_position : bigint</text><ellipse cx="126.5" cy="177.8551" fill="#000000" rx="3" ry="3" style="stroke:#000000;stroke-width:1.0;"/><text fill="#000000" font-family="sans-serif" font-size="11" lengthAdjust="spacing" textLength="114" x="135.5" y="182.614">retry_position : bigint</text><!--MD5=[237522a801e7bb9308fa36e58d02c106]
link forward_source to forward_url--><path codeLine="36" d="M246.25,198.22 C246.25,198.22 246.25,286.77 246.25,286.77 " fill="none" id="forward_source-forward_url" style="stroke:#A80036;stroke-width:1.0;"/><line style="stroke:#A80036;stroke-width:1.0;" x1="250.25" x2="242.25" y1="290.77" y2="290.77"/><line style="stroke:#A80036;stroke-width:1.0;" x1="250.25" x2="242.25" y1="287.77" y2="287.77"/><line style="stroke:#A80036;stroke-width:1.0;" x1="246.25" x2="246.25" y1="286.77" y2="294.77"/><line style="stroke:#A80036;stroke-width:1.0;" x1="246.25" x2="240.25" y1="198.22" y2="190.22"/><line style="stroke:#A80036;stroke-width:1.0;" x1="246.25" x2="252.25" y1="198.22" y2="190.22"/><line style="stroke:#A80036;stroke-width:1.0;" x1="246.25" x2="246.25" y1="198.22" y2="190.22"/><ellipse cx="246.25" cy="204.22" rx="4" ry="4" style="stroke:#A80036;stroke-width:1.0;fill:none;"/><!--MD5=[d49f4a8229bc31f1f5d61244df6e6e3c]
link forward_source to source--><path codeLine="37" d="M153.25,198.22 C153.25,198.22 153.25,241.83 153.25,241.83 " fill="none" id="forward_source-source" style="stroke:#A80036;stroke-width:1.0;stroke-dasharray:7.0,7.0;"/><line style="stroke:#A80036;stroke-width:1.0;" x1="157.25" x2="149.25" y1="245.83" y2="245.83"/><line style="stroke:#A80036;stroke-width:1.0;" x1="157.25" x2="149.25" y1="242.83" y2="242.83"/><line style="stroke:#A80036;stroke-width:1.0;" x1="153.25" x2="153.25" y1="241.83" y2="249.83"/><line style="stroke:#A80036;stroke-width:1.0;" x1="153.25" x2="147.25" y1="198.22" y2="190.22"/><line style="stroke:#A80036;stroke-width:1.0;" x1="153.25" x2="159.25" y1="198.22" y2="190.22"/><line style="stroke:#A80036;stroke-width:1.0;" x1="153.25" x2="153.25" y1="198.22" y2="190.22"/><ellipse cx="153.25" cy="204.22" rx="4" ry="4" style="stroke:#A80036;stroke-width:1.0;fill:none;"/><!--MD5=[e115989d394f00dc396264114619615d]
@startuml

' avoid problems with angled crows feet
skinparam linetype ortho

entity source {
  *id : bigint
  - -
  *path : varchar(255) - unique
  *feed_name : varchar(255)
  *type_name : varchar(255)
  *last_modified_time_ms : bigint
  examined : boolean
  *forwarded : boolean
  *new_position : bigint
}

entity forward_url {
  *id : int
  - -
  *url : varchar(255)
}

entity forward_source {
  *id : bigint
  - -
  *update_time_ms : bigint
  *fk_forward_url_id : int
  *fk_source_id : bigint
  *success : boolean
  *error : varchar(255)
  *tries : bigint
  *new_position : bigint
  *retry_position : bigint
}

forward_source }o- -|| forward_url
forward_source }o..|| source

@enduml

@startuml

skinparam linetype ortho

entity source {
  *id : bigint
  - -
  *path : varchar(255) - unique
  *feed_name : varchar(255)
  *type_name : varchar(255)
  *last_modified_time_ms : bigint
  examined : boolean
  *forwarded : boolean
  *new_position : bigint
}

entity forward_url {
  *id : int
  - -
  *url : varchar(255)
}

entity forward_source {
  *id : bigint
  - -
  *update_time_ms : bigint
  *fk_forward_url_id : int
  *fk_source_id : bigint
  *success : boolean
  *error : varchar(255)
  *tries : bigint
  *new_position : bigint
  *retry_position : bigint
}

forward_source }o- -|| forward_url
forward_source }o..|| source

@enduml

PlantUML version 1.2021.16(Wed Dec 08 17:25:22 GMT 2021)
(GPL source distribution)
Java Runtime: OpenJDK Runtime Environment
JVM: OpenJDK 64-Bit Server VM
Default Encoding: UTF-8
Language: en
Country: GB
--></g></svg>