<?xml version="1.0" encoding="us-ascii" standalone="no"?><svg xmlns="http://www.w3.org/2000/svg" xmlns:xlink="http://www.w3.org/1999/xlink" contentStyleType="text/css" height="1184px" preserveAspectRatio="none" style="width:1257px;height:1184px;background:#FFFFFF;" version="1.1" viewBox="0 0 1257 1184" width="1257px" zoomAndPan="magnify"><defs/><g><text fill="#000000" font-family="sans-serif" font-size="14" font-weight="bold" lengthAdjust="spacing" textLength="198" x="531" y="27.9951">Aggregate and Forward Data</text><rect fill="#FFFFFF" height="210.6641" style="stroke:#181818;stroke-width:1.0;" width="10" x="225" y="186.8594"/><rect fill="#FFFFFF" height="141.5313" style="stroke:#181818;stroke-width:1.0;" width="10" x="230" y="228.9922"/><rect fill="#FFFFFF" height="194.5313" style="stroke:#181818;stroke-width:1.0;" width="10" x="360" y="441.6563"/><rect fill="#FFFFFF" height="125.3984" style="stroke:#181818;stroke-width:1.0;" width="10" x="365" y="483.7891"/><rect fill="#FFFFFF" height="414.4609" style="stroke:#181818;stroke-width:1.0;" width="10" x="505" y="680.3203"/><rect fill="#FFFFFF" height="170.6641" style="stroke:#181818;stroke-width:1.0;" width="10" x="510" y="722.4531"/><rect fill="#FFFFFF" height="141.5313" style="stroke:#181818;stroke-width:1.0;" width="10" x="510" y="937.25"/><line style="stroke:#181818;stroke-width:0.5;stroke-dasharray:5.0,5.0;" x1="70" x2="70" y1="118.5938" y2="1103.7813"/><line style="stroke:#181818;stroke-width:0.5;stroke-dasharray:5.0,5.0;" x1="230" x2="230" y1="118.5938" y2="1103.7813"/><line style="stroke:#181818;stroke-width:0.5;stroke-dasharray:5.0,5.0;" x1="365" x2="365" y1="118.5938" y2="1103.7813"/><line style="stroke:#181818;stroke-width:0.5;stroke-dasharray:5.0,5.0;" x1="510" x2="510" y1="118.5938" y2="1103.7813"/><line style="stroke:#181818;stroke-width:0.5;stroke-dasharray:5.0,5.0;" x1="851" x2="851" y1="118.5938" y2="1103.7813"/><line style="stroke:#181818;stroke-width:0.5;stroke-dasharray:5.0,5.0;" x1="897" x2="897" y1="118.5938" y2="1103.7813"/><line style="stroke:#181818;stroke-width:0.5;stroke-dasharray:5.0,5.0;" x1="1008" x2="1008" y1="118.5938" y2="1103.7813"/><line style="stroke:#181818;stroke-width:0.5;stroke-dasharray:5.0,5.0;" x1="1133" x2="1133" y1="118.5938" y2="1103.7813"/><line style="stroke:#181818;stroke-width:0.5;stroke-dasharray:5.0,5.0;" x1="1216" x2="1216" y1="118.5938" y2="1103.7813"/><rect fill="#E2E2F0" height="30.2969" rx="2.5" ry="2.5" style="stroke:#181818;stroke-width:0.5;" width="131" x="5" y="87.2969"/><text fill="#000000" font-family="sans-serif" font-size="14" lengthAdjust="spacing" textLength="117" x="12" y="107.292">ProxyRepoSources</text><rect fill="#E2E2F0" height="30.2969" rx="2.5" ry="2.5" style="stroke:#181818;stroke-width:0.5;" width="131" x="5" y="1102.7813"/><text fill="#000000" font-family="sans-serif" font-size="14" lengthAdjust="spacing" textLength="117" x="12" y="1122.7764">ProxyRepoSources</text><rect fill="#E2E2F0" height="30.2969" rx="2.5" ry="2.5" style="stroke:#181818;stroke-width:0.5;" width="168" x="146" y="87.2969"/><text fill="#000000" font-family="sans-serif" font-size="14" lengthAdjust="spacing" textLength="154" x="153" y="107.292">ProxyRepoSourceEntries</text><rect fill="#E2E2F0" height="30.2969" rx="2.5" ry="2.5" style="stroke:#181818;stroke-width:0.5;" width="168" x="146" y="1102.7813"/><text fill="#000000" font-family="sans-serif" font-size="14" lengthAdjust="spacing" textLength="154" x="153" y="1122.7764">ProxyRepoSourceEntries</text><rect fill="#E2E2F0" height="30.2969" rx="2.5" ry="2.5" style="stroke:#181818;stroke-width:0.5;" width="82" x="324" y="87.2969"/><text fill="#000000" font-family="sans-serif" font-size="14" lengthAdjust="spacing" textLength="68" x="331" y="107.292">Aggregator</text><rect fill="#E2E2F0" height="30.2969" rx="2.5" ry="2.5" style="stroke:#181818;stroke-width:0.5;" width="82" x="324" y="1102.7813"/><text fill="#000000" font-family="sans-serif" font-size="14" lengthAdjust="spacing" textLength="68" x="331" y="1122.7764">Aggregator</text><rect fill="#E2E2F0" height="30.2969" rx="2.5" ry="2.5" style="stroke:#181818;stroke-width:0.5;" width="140" x="440" y="87.2969"/><text fill="#000000" font-family="sans-serif" font-size="14" lengthAdjust="spacing" textLength="126" x="447" y="107.292">AggregateForwarder</text><rect fill="#E2E2F0" height="30.2969" rx="2.5" ry="2.5" style="stroke:#181818;stroke-width:0.5;" width="140" x="440" y="1102.7813"/><text fill="#000000" font-family="sans-serif" font-size="14" lengthAdjust="spacing" textLength="126" x="447" y="1122.7764">AggregateForwarder</text><text fill="#000000" font-family="sans-serif" font-size="14" lengthAdjust="spacing" textLength="16" x="840" y="115.292">db</text><path d="M833,66.2969 C833,56.2969 851,56.2969 851,56.2969 C851,56.2969 869,56.2969 869,66.2969 L869,92.2969 C869,102.2969 851,102.2969 851,102.2969 C851,102.2969 833,102.2969 833,92.2969 L833,66.2969 " fill="#E2E2F0" style="stroke:#181818;stroke-width:1.5;"/><path d="M833,66.2969 C833,76.2969 851,76.2969 851,76.2969 C851,76.2969 869,76.2969 869,66.2969 " fill="none" style="stroke:#181818;stroke-width:1.5;"/><text fill="#000000" font-family="sans-serif" font-size="14" lengthAdjust="spacing" textLength="16" x="840" y="1115.7764">db</text><path d="M833,1129.0781 C833,1119.0781 851,1119.0781 851,1119.0781 C851,1119.0781 869,1119.0781 869,1129.0781 L869,1155.0781 C869,1165.0781 851,1165.0781 851,1165.0781 C851,1165.0781 833,1165.0781 833,1155.0781 L833,1129.0781 " fill="#E2E2F0" style="stroke:#181818;stroke-width:1.5;"/><path d="M833,1129.0781 C833,1139.0781 851,1139.0781 851,1139.0781 C851,1139.0781 869,1139.0781 869,1129.0781 " fill="none" style="stroke:#181818;stroke-width:1.5;"/><text fill="#000000" font-family="sans-serif" font-size="14" lengthAdjust="spacing" textLength="29" x="879.5" y="115.292">repo</text><path d="M879,66.2969 C879,56.2969 897,56.2969 897,56.2969 C897,56.2969 915,56.2969 915,66.2969 L915,92.2969 C915,102.2969 897,102.2969 897,102.2969 C897,102.2969 879,102.2969 879,92.2969 L879,66.2969 " fill="#E2E2F0" style="stroke:#181818;stroke-width:1.5;"/><path d="M879,66.2969 C879,76.2969 897,76.2969 897,76.2969 C897,76.2969 915,76.2969 915,66.2969 " fill="none" style="stroke:#181818;stroke-width:1.5;"/><text fill="#000000" font-family="sans-serif" font-size="14" lengthAdjust="spacing" textLength="29" x="879.5" y="1115.7764">repo</text><path d="M879,1129.0781 C879,1119.0781 897,1119.0781 897,1119.0781 C897,1119.0781 915,1119.0781 915,1129.0781 L915,1155.0781 C915,1165.0781 897,1165.0781 897,1165.0781 C897,1165.0781 879,1165.0781 879,1155.0781 L879,1129.0781 " fill="#E2E2F0" style="stroke:#181818;stroke-width:1.5;"/><path d="M879,1129.0781 C879,1139.0781 897,1139.0781 897,1139.0781 C897,1139.0781 915,1139.0781 915,1129.0781 " fill="none" style="stroke:#181818;stroke-width:1.5;"/><rect fill="#E2E2F0" height="30.2969" rx="2.5" ry="2.5" style="stroke:#181818;stroke-width:0.5;" width="166" x="925" y="87.2969"/><text fill="#000000" font-family="sans-serif" font-size="14" lengthAdjust="spacing" textLength="152" x="932" y="107.292">ForwardStreamHandlers</text><rect fill="#E2E2F0" height="30.2969" rx="2.5" ry="2.5" style="stroke:#181818;stroke-width:0.5;" width="166" x="925" y="1102.7813"/><text fill="#000000" font-family="sans-serif" font-size="14" lengthAdjust="spacing" textLength="152" x="932" y="1122.7764">ForwardStreamHandlers</text><rect fill="#E2E2F0" height="30.2969" rx="2.5" ry="2.5" style="stroke:#181818;stroke-width:0.5;" width="65" x="1101" y="87.2969"/><text fill="#000000" font-family="sans-serif" font-size="14" lengthAdjust="spacing" textLength="51" x="1108" y="107.292">Cleanup</text><rect fill="#E2E2F0" height="30.2969" rx="2.5" ry="2.5" style="stroke:#181818;stroke-width:0.5;" width="65" x="1101" y="1102.7813"/><text fill="#000000" font-family="sans-serif" font-size="14" lengthAdjust="spacing" textLength="51" x="1108" y="1122.7764">Cleanup</text><text fill="#000000" font-family="sans-serif" font-size="14" lengthAdjust="spacing" textLength="74" x="1176" y="115.292">Destination</text><ellipse cx="1216" cy="50.7969" fill="#E2E2F0" rx="8" ry="8" style="stroke:#181818;stroke-width:0.5;"/><path d="M1216,58.7969 L1216,85.7969 M1203,66.7969 L1229,66.7969 M1216,85.7969 L1203,100.7969 M1216,85.7969 L1229,100.7969 " fill="none" style="stroke:#181818;stroke-width:0.5;"/><text fill="#000000" font-family="sans-serif" font-size="14" lengthAdjust="spacing" textLength="74" x="1176" y="1115.7764">Destination</text><ellipse cx="1216" cy="1127.5781" fill="#E2E2F0" rx="8" ry="8" style="stroke:#181818;stroke-width:0.5;"/><path d="M1216,1135.5781 L1216,1162.5781 M1203,1143.5781 L1229,1143.5781 M1216,1162.5781 L1203,1177.5781 M1216,1162.5781 L1229,1177.5781 " fill="none" style="stroke:#181818;stroke-width:0.5;"/><rect fill="#FFFFFF" height="210.6641" style="stroke:#181818;stroke-width:1.0;" width="10" x="225" y="186.8594"/><rect fill="#FFFFFF" height="141.5313" style="stroke:#181818;stroke-width:1.0;" width="10" x="230" y="228.9922"/><rect fill="#FFFFFF" height="194.5313" style="stroke:#181818;stroke-width:1.0;" width="10" x="360" y="441.6563"/><rect fill="#FFFFFF" height="125.3984" style="stroke:#181818;stroke-width:1.0;" width="10" x="365" y="483.7891"/><rect fill="#FFFFFF" height="414.4609" style="stroke:#181818;stroke-width:1.0;" width="10" x="505" y="680.3203"/><rect fill="#FFFFFF" height="170.6641" style="stroke:#181818;stroke-width:1.0;" width="10" x="510" y="722.4531"/><rect fill="#FFFFFF" height="141.5313" style="stroke:#181818;stroke-width:1.0;" width="10" x="510" y="937.25"/><line style="stroke:#181818;stroke-width:1.0;" x1="228" x2="218" y1="149.7266" y2="153.7266"/><line style="stroke:#181818;stroke-width:1.0;stroke-dasharray:2.0,2.0;" x1="70.5" x2="229" y1="149.7266" y2="149.7266"/><text fill="#000000" font-family="sans-serif" font-size="13" lengthAdjust="spacing" textLength="61" x="77.5" y="144.6606">onChange</text><line style="stroke:#181818;stroke-width:1.0;" x1="230" x2="277" y1="173.8594" y2="173.8594"/><line style="stroke:#181818;stroke-width:1.0;" x1="277" x2="277" y1="173.8594" y2="186.8594"/><line style="stroke:#181818;stroke-width:1.0;" x1="236" x2="277" y1="186.8594" y2="186.8594"/><polygon fill="#181818" points="246,182.8594,236,186.8594,246,190.8594,242,186.8594" style="stroke:#181818;stroke-width:1.0;"/><text fill="#000000" font-family="sans-serif" font-size="13" lengthAdjust="spacing" textLength="50" x="242" y="168.7935">examine</text><line style="stroke:#181818;stroke-width:1.0;stroke-dasharray:2.0,2.0;" x1="235" x2="282" y1="215.9922" y2="215.9922"/><line style="stroke:#181818;stroke-width:1.0;stroke-dasharray:2.0,2.0;" x1="282" x2="282" y1="215.9922" y2="228.9922"/><line style="stroke:#181818;stroke-width:1.0;stroke-dasharray:2.0,2.0;" x1="241" x2="282" y1="228.9922" y2="228.9922"/><line style="stroke:#181818;stroke-width:1.0;" x1="241" x2="251" y1="228.9922" y2="232.9922"/><text fill="#000000" font-family="sans-serif" font-size="13" lengthAdjust="spacing" textLength="91" x="247" y="210.9263">examineSource</text><polygon fill="#181818" points="839,259.125,849,263.125,839,267.125,843,263.125" style="stroke:#181818;stroke-width:1.0;"/><line style="stroke:#181818;stroke-width:1.0;" x1="240" x2="845" y1="263.125" y2="263.125"/><text fill="#000000" font-family="sans-serif" font-size="13" lengthAdjust="spacing" textLength="100" x="247" y="258.0591">add source items</text><polygon fill="#181818" points="839,288.2578,849,292.2578,839,296.2578,843,292.2578" style="stroke:#181818;stroke-width:1.0;"/><line style="stroke:#181818;stroke-width:1.0;" x1="240" x2="845" y1="292.2578" y2="292.2578"/><text fill="#000000" font-family="sans-serif" font-size="13" lengthAdjust="spacing" textLength="109" x="247" y="287.1919">add source entries</text><polygon fill="#181818" points="839,317.3906,849,321.3906,839,325.3906,843,321.3906" style="stroke:#181818;stroke-width:1.0;"/><line style="stroke:#181818;stroke-width:1.0;" x1="240" x2="845" y1="321.3906" y2="321.3906"/><text fill="#000000" font-family="sans-serif" font-size="13" lengthAdjust="spacing" textLength="149" x="247" y="316.3247">mark source as examined</text><line style="stroke:#181818;stroke-width:1.0;" x1="363" x2="353" y1="350.5234" y2="354.5234"/><line style="stroke:#181818;stroke-width:1.0;stroke-dasharray:2.0,2.0;" x1="240" x2="364" y1="350.5234" y2="350.5234"/><text fill="#000000" font-family="sans-serif" font-size="13" lengthAdjust="spacing" textLength="61" x="247" y="345.4575">onChange</text><line style="stroke:#181818;stroke-width:1.0;stroke-dasharray:2.0,2.0;" x1="240" x2="282" y1="369.5234" y2="369.5234"/><line style="stroke:#181818;stroke-width:1.0;stroke-dasharray:2.0,2.0;" x1="282" x2="282" y1="369.5234" y2="382.5234"/><line style="stroke:#181818;stroke-width:1.0;stroke-dasharray:2.0,2.0;" x1="235" x2="282" y1="382.5234" y2="382.5234"/><line style="stroke:#181818;stroke-width:1.0;" x1="235" x2="245" y1="382.5234" y2="386.5234"/><line style="stroke:#181818;stroke-width:1.0;stroke-dasharray:2.0,2.0;" x1="235" x2="277" y1="396.5234" y2="396.5234"/><line style="stroke:#181818;stroke-width:1.0;stroke-dasharray:2.0,2.0;" x1="277" x2="277" y1="396.5234" y2="409.5234"/><line style="stroke:#181818;stroke-width:1.0;stroke-dasharray:2.0,2.0;" x1="230" x2="277" y1="409.5234" y2="409.5234"/><polygon fill="#181818" points="240,405.5234,230,409.5234,240,413.5234,236,409.5234" style="stroke:#181818;stroke-width:1.0;"/><line style="stroke:#181818;stroke-width:1.0;" x1="365" x2="412" y1="428.6563" y2="428.6563"/><line style="stroke:#181818;stroke-width:1.0;" x1="412" x2="412" y1="428.6563" y2="441.6563"/><line style="stroke:#181818;stroke-width:1.0;" x1="371" x2="412" y1="441.6563" y2="441.6563"/><polygon fill="#181818" points="381,437.6563,371,441.6563,381,445.6563,377,441.6563" style="stroke:#181818;stroke-width:1.0;"/><text fill="#000000" font-family="sans-serif" font-size="13" lengthAdjust="spacing" textLength="58" x="377" y="423.5903">aggregate</text><line style="stroke:#181818;stroke-width:1.0;" x1="370" x2="417" y1="470.7891" y2="470.7891"/><line style="stroke:#181818;stroke-width:1.0;" x1="417" x2="417" y1="470.7891" y2="483.7891"/><line style="stroke:#181818;stroke-width:1.0;" x1="376" x2="417" y1="483.7891" y2="483.7891"/><polygon fill="#181818" points="386,479.7891,376,483.7891,386,487.7891,382,483.7891" style="stroke:#181818;stroke-width:1.0;"/><text fill="#000000" font-family="sans-serif" font-size="13" lengthAdjust="spacing" textLength="94" x="382" y="465.7231">add source item</text><polygon fill="#181818" points="839,513.9219,849,517.9219,839,521.9219,843,517.9219" style="stroke:#181818;stroke-width:1.0;"/><line style="stroke:#181818;stroke-width:1.0;" x1="375" x2="845" y1="517.9219" y2="517.9219"/><text fill="#000000" font-family="sans-serif" font-size="13" lengthAdjust="spacing" textLength="187" x="382" y="512.856">mark source_item as aggregated</text><line style="stroke:#181818;stroke-width:1.0;" x1="375" x2="417" y1="547.0547" y2="547.0547"/><line style="stroke:#181818;stroke-width:1.0;" x1="417" x2="417" y1="547.0547" y2="560.0547"/><line style="stroke:#181818;stroke-width:1.0;" x1="376" x2="417" y1="560.0547" y2="560.0547"/><polygon fill="#181818" points="386,556.0547,376,560.0547,386,564.0547,382,560.0547" style="stroke:#181818;stroke-width:1.0;"/><text fill="#000000" font-family="sans-serif" font-size="13" lengthAdjust="spacing" textLength="116" x="382" y="541.9888">closeOldAggregates</text><line style="stroke:#181818;stroke-width:1.0;" x1="508" x2="498" y1="589.1875" y2="593.1875"/><line style="stroke:#181818;stroke-width:1.0;stroke-dasharray:2.0,2.0;" x1="375" x2="509" y1="589.1875" y2="589.1875"/><text fill="#000000" font-family="sans-serif" font-size="13" lengthAdjust="spacing" textLength="61" x="382" y="584.1216">onChange</text><line style="stroke:#181818;stroke-width:1.0;stroke-dasharray:2.0,2.0;" x1="375" x2="417" y1="608.1875" y2="608.1875"/><line style="stroke:#181818;stroke-width:1.0;stroke-dasharray:2.0,2.0;" x1="417" x2="417" y1="608.1875" y2="621.1875"/><line style="stroke:#181818;stroke-width:1.0;stroke-dasharray:2.0,2.0;" x1="370" x2="417" y1="621.1875" y2="621.1875"/><polygon fill="#181818" points="380,617.1875,370,621.1875,380,625.1875,376,621.1875" style="stroke:#181818;stroke-width:1.0;"/><line style="stroke:#181818;stroke-width:1.0;stroke-dasharray:2.0,2.0;" x1="370" x2="412" y1="635.1875" y2="635.1875"/><line style="stroke:#181818;stroke-width:1.0;stroke-dasharray:2.0,2.0;" x1="412" x2="412" y1="635.1875" y2="648.1875"/><line style="stroke:#181818;stroke-width:1.0;stroke-dasharray:2.0,2.0;" x1="365" x2="412" y1="648.1875" y2="648.1875"/><polygon fill="#181818" points="375,644.1875,365,648.1875,375,652.1875,371,648.1875" style="stroke:#181818;stroke-width:1.0;"/><line style="stroke:#181818;stroke-width:1.0;" x1="510" x2="557" y1="667.3203" y2="667.3203"/><line style="stroke:#181818;stroke-width:1.0;" x1="557" x2="557" y1="667.3203" y2="680.3203"/><line style="stroke:#181818;stroke-width:1.0;" x1="516" x2="557" y1="680.3203" y2="680.3203"/><line style="stroke:#181818;stroke-width:1.0;" x1="516" x2="526" y1="680.3203" y2="684.3203"/><text fill="#000000" font-family="sans-serif" font-size="13" lengthAdjust="spacing" textLength="47" x="522" y="662.2544">forward</text><line style="stroke:#181818;stroke-width:1.0;" x1="515" x2="562" y1="709.4531" y2="709.4531"/><line style="stroke:#181818;stroke-width:1.0;" x1="562" x2="562" y1="709.4531" y2="722.4531"/><line style="stroke:#181818;stroke-width:1.0;" x1="521" x2="562" y1="722.4531" y2="722.4531"/><line style="stroke:#181818;stroke-width:1.0;" x1="521" x2="531" y1="722.4531" y2="726.4531"/><text fill="#000000" font-family="sans-serif" font-size="13" lengthAdjust="spacing" textLength="106" x="527" y="704.3872">forwardAggregate</text><polygon fill="#181818" points="885,752.5859,895,756.5859,885,760.5859,889,756.5859" style="stroke:#181818;stroke-width:1.0;"/><line style="stroke:#181818;stroke-width:1.0;" x1="520" x2="891" y1="756.5859" y2="756.5859"/><text fill="#000000" font-family="sans-serif" font-size="13" lengthAdjust="spacing" textLength="27" x="527" y="751.52">read</text><polygon fill="#181818" points="996,781.7188,1006,785.7188,996,789.7188,1000,785.7188" style="stroke:#181818;stroke-width:1.0;"/><line style="stroke:#181818;stroke-width:1.0;" x1="520" x2="1002" y1="785.7188" y2="785.7188"/><text fill="#000000" font-family="sans-serif" font-size="13" lengthAdjust="spacing" textLength="29" x="527" y="780.6528">write</text><polygon fill="#181818" points="1204,810.8516,1214,814.8516,1204,818.8516,1208,814.8516" style="stroke:#181818;stroke-width:1.0;"/><line style="stroke:#181818;stroke-width:1.0;stroke-dasharray:2.0,2.0;" x1="1008" x2="1210" y1="814.8516" y2="814.8516"/><text fill="#000000" font-family="sans-serif" font-size="13" lengthAdjust="spacing" textLength="41" x="1015" y="809.7856">handle</text><polygon fill="#181818" points="839,839.9844,849,843.9844,839,847.9844,843,843.9844" style="stroke:#181818;stroke-width:1.0;"/><line style="stroke:#181818;stroke-width:1.0;" x1="520" x2="845" y1="843.9844" y2="843.9844"/><text fill="#000000" font-family="sans-serif" font-size="13" lengthAdjust="spacing" textLength="158" x="527" y="838.9185">record 'forward_aggregate'</text><polygon fill="#181818" points="839,869.1172,849,873.1172,839,877.1172,843,873.1172" style="stroke:#181818;stroke-width:1.0;"/><line style="stroke:#181818;stroke-width:1.0;" x1="520" x2="845" y1="873.1172" y2="873.1172"/><text fill="#000000" font-family="sans-serif" font-size="13" lengthAdjust="spacing" textLength="171" x="527" y="868.0513">record 'aggregate' forwarded</text><line style="stroke:#181818;stroke-width:1.0;stroke-dasharray:2.0,2.0;" x1="520" x2="562" y1="892.1172" y2="892.1172"/><line style="stroke:#181818;stroke-width:1.0;stroke-dasharray:2.0,2.0;" x1="562" x2="562" y1="892.1172" y2="905.1172"/><line style="stroke:#181818;stroke-width:1.0;stroke-dasharray:2.0,2.0;" x1="515" x2="562" y1="905.1172" y2="905.1172"/><line style="stroke:#181818;stroke-width:1.0;" x1="515" x2="525" y1="905.1172" y2="909.1172"/><line style="stroke:#181818;stroke-width:1.0;" x1="515" x2="562" y1="924.25" y2="924.25"/><line style="stroke:#181818;stroke-width:1.0;" x1="562" x2="562" y1="924.25" y2="937.25"/><line style="stroke:#181818;stroke-width:1.0;" x1="521" x2="562" y1="937.25" y2="937.25"/><polygon fill="#181818" points="531,933.25,521,937.25,531,941.25,527,937.25" style="stroke:#181818;stroke-width:1.0;"/><text fill="#000000" font-family="sans-serif" font-size="13" lengthAdjust="spacing" textLength="95" x="527" y="919.1841">deleteAggregate</text><polygon fill="#181818" points="839,967.3828,849,971.3828,839,975.3828,843,971.3828" style="stroke:#181818;stroke-width:1.0;"/><line style="stroke:#181818;stroke-width:1.0;" x1="520" x2="845" y1="971.3828" y2="971.3828"/><text fill="#000000" font-family="sans-serif" font-size="13" lengthAdjust="spacing" textLength="307" x="527" y="966.3169">delete 'forward_aggregate' for complete aggregate id</text><polygon fill="#181818" points="839,996.5156,849,1000.5156,839,1004.5156,843,1000.5156" style="stroke:#181818;stroke-width:1.0;"/><line style="stroke:#181818;stroke-width:1.0;" x1="520" x2="845" y1="1000.5156" y2="1000.5156"/><text fill="#000000" font-family="sans-serif" font-size="13" lengthAdjust="spacing" textLength="285" x="527" y="995.4497">delete 'aggregate_item' for complete aggregate id</text><polygon fill="#181818" points="839,1025.6484,849,1029.6484,839,1033.6484,843,1029.6484" style="stroke:#181818;stroke-width:1.0;"/><line style="stroke:#181818;stroke-width:1.0;" x1="520" x2="845" y1="1029.6484" y2="1029.6484"/><text fill="#000000" font-family="sans-serif" font-size="13" lengthAdjust="spacing" textLength="255" x="527" y="1024.5825">delete 'aggregate' for complete aggregate id</text><line style="stroke:#181818;stroke-width:1.0;" x1="1131.5" x2="1121.5" y1="1058.7813" y2="1062.7813"/><line style="stroke:#181818;stroke-width:1.0;stroke-dasharray:2.0,2.0;" x1="520" x2="1132.5" y1="1058.7813" y2="1058.7813"/><text fill="#000000" font-family="sans-serif" font-size="13" lengthAdjust="spacing" textLength="61" x="527" y="1053.7153">onChange</text><line style="stroke:#181818;stroke-width:1.0;stroke-dasharray:2.0,2.0;" x1="520" x2="562" y1="1077.7813" y2="1077.7813"/><line style="stroke:#181818;stroke-width:1.0;stroke-dasharray:2.0,2.0;" x1="562" x2="562" y1="1077.7813" y2="1090.7813"/><line style="stroke:#181818;stroke-width:1.0;stroke-dasharray:2.0,2.0;" x1="515" x2="562" y1="1090.7813" y2="1090.7813"/><polygon fill="#181818" points="525,1086.7813,515,1090.7813,525,1094.7813,521,1090.7813" style="stroke:#181818;stroke-width:1.0;"/><!--SRC=[hLIxRiCm3Dpr5Tmw145s3mQ2f4Mt5iq718p5Ea9joQ0K9FtxIexVjLstwEA7TCSZZvISSXd1DasPKdG4g2Ky6RuYIzYZGo4APASILQ1syChczlb6XJcO2oTavpOVjMCrWDGwXaUNgL8c5j9hdz0Io5FxpJvuZrZX3uu9ysUVUqRSLznbXFfI24oyAEp9EgNHAQE561O3w_LcCr5514RlpgXJ4kC0MCSJrDKg0hfXhlGqTrgumxwlp-ZBKmGe9TXo0vIZt2w7KzMlUKAE_54pqDQfIJ5RMjlsZe-2oLrOro_HWe9M-nSSm7f0vb7zsWVOGVR700abDB7bPF08ainOUibaCwcs1-uMsGxnWc9RC8p727Mztt_-HDf-SwxBZiiZ5VadoWd0w16BuChUFp6wwUs8koSjWdEvCo4G-iAK67_XF5H97vkUF8W5h1PTL-rxEUTqFE6Pf8mS_MHPaBuZnn8EAK1Yyg84DEkWv89m3RoSpd-AzTimOQQgQxCpmPMVNm00]--></g></svg>