<?xml version="1.0" encoding="UTF-8" standalone="no"?><svg xmlns="http://www.w3.org/2000/svg" xmlns:xlink="http://www.w3.org/1999/xlink" contentScriptType="application/ecmascript" contentStyleType="text/css" height="598px" preserveAspectRatio="none" style="width:813px;height:598px;" version="1.1" viewBox="0 0 813 598" width="813px" zoomAndPan="magnify"><defs><filter height="300%" id="f152zdz374ol7v" width="300%" x="-1" y="-1"><feGaussianBlur result="blurOut" stdDeviation="2.0"/><feColorMatrix in="blurOut" result="blurOut2" type="matrix" values="0 0 0 0 0 0 0 0 0 0 0 0 0 0 0 0 0 0 .4 0"/><feOffset dx="4.0" dy="4.0" in="blurOut2" result="blurOut3"/><feBlend in="SourceGraphic" in2="blurOut3" mode="normal"/></filter></defs><g><text fill="#000000" font-family="sans-serif" font-size="18" lengthAdjust="spacing" textLength="168" x="324.5" y="28.708">Forward Stored Data</text><rect fill="#FFFFFF" filter="url(#f152zdz374ol7v)" height="239.7969" style="stroke:#A80036;stroke-width:1.0;" width="10" x="207" y="220.6484"/><rect fill="#FFFFFF" filter="url(#f152zdz374ol7v)" height="170.6641" style="stroke:#A80036;stroke-width:1.0;" width="10" x="212" y="262.7813"/><line style="stroke:#A80036;stroke-width:1.0;stroke-dasharray:5.0,5.0;" x1="72" x2="72" y1="123.25" y2="514.5781"/><line style="stroke:#A80036;stroke-width:1.0;stroke-dasharray:5.0,5.0;" x1="212" x2="212" y1="123.25" y2="514.5781"/><line style="stroke:#A80036;stroke-width:1.0;stroke-dasharray:5.0,5.0;" x1="399" x2="399" y1="123.25" y2="514.5781"/><line style="stroke:#A80036;stroke-width:1.0;stroke-dasharray:5.0,5.0;" x1="445" x2="445" y1="123.25" y2="514.5781"/><line style="stroke:#A80036;stroke-width:1.0;stroke-dasharray:5.0,5.0;" x1="558" x2="558" y1="123.25" y2="514.5781"/><line style="stroke:#A80036;stroke-width:1.0;stroke-dasharray:5.0,5.0;" x1="687" x2="687" y1="123.25" y2="514.5781"/><line style="stroke:#A80036;stroke-width:1.0;stroke-dasharray:5.0,5.0;" x1="772" x2="772" y1="123.25" y2="514.5781"/><rect fill="#FEFECE" filter="url(#f152zdz374ol7v)" height="30.2969" style="stroke:#A80036;stroke-width:1.5;" width="131" x="5" y="87.9531"/><text fill="#000000" font-family="sans-serif" font-size="14" lengthAdjust="spacing" textLength="117" x="12" y="107.9482">ProxyRepoSources</text><rect fill="#FEFECE" filter="url(#f152zdz374ol7v)" height="30.2969" style="stroke:#A80036;stroke-width:1.5;" width="131" x="5" y="513.5781"/><text fill="#000000" font-family="sans-serif" font-size="14" lengthAdjust="spacing" textLength="117" x="12" y="533.5732">ProxyRepoSources</text><rect fill="#FEFECE" filter="url(#f152zdz374ol7v)" height="30.2969" style="stroke:#A80036;stroke-width:1.5;" width="120" x="150" y="87.9531"/><text fill="#000000" font-family="sans-serif" font-size="14" lengthAdjust="spacing" textLength="106" x="157" y="107.9482">SourceForwarder</text><rect fill="#FEFECE" filter="url(#f152zdz374ol7v)" height="30.2969" style="stroke:#A80036;stroke-width:1.5;" width="120" x="150" y="513.5781"/><text fill="#000000" font-family="sans-serif" font-size="14" lengthAdjust="spacing" textLength="106" x="157" y="533.5732">SourceForwarder</text><text fill="#000000" font-family="sans-serif" font-size="14" lengthAdjust="spacing" textLength="16" x="388" y="119.9482">db</text><path d="M381,70.9531 C381,60.9531 399,60.9531 399,60.9531 C399,60.9531 417,60.9531 417,70.9531 L417,96.9531 C417,106.9531 399,106.9531 399,106.9531 C399,106.9531 381,106.9531 381,96.9531 L381,70.9531 " fill="#FEFECE" filter="url(#f152zdz374ol7v)" style="stroke:#000000;stroke-width:1.5;"/><path d="M381,70.9531 C381,80.9531 399,80.9531 399,80.9531 C399,80.9531 417,80.9531 417,70.9531 " fill="none" style="stroke:#000000;stroke-width:1.5;"/><text fill="#000000" font-family="sans-serif" font-size="14" lengthAdjust="spacing" textLength="16" x="388" y="526.5732">db</text><path d="M381,539.875 C381,529.875 399,529.875 399,529.875 C399,529.875 417,529.875 417,539.875 L417,565.875 C417,575.875 399,575.875 399,575.875 C399,575.875 381,575.875 381,565.875 L381,539.875 " fill="#FEFECE" filter="url(#f152zdz374ol7v)" style="stroke:#000000;stroke-width:1.5;"/><path d="M381,539.875 C381,549.875 399,549.875 399,549.875 C399,549.875 417,549.875 417,539.875 " fill="none" style="stroke:#000000;stroke-width:1.5;"/><text fill="#000000" font-family="sans-serif" font-size="14" lengthAdjust="spacing" textLength="29" x="427.5" y="119.9482">repo</text><path d="M427,70.9531 C427,60.9531 445,60.9531 445,60.9531 C445,60.9531 463,60.9531 463,70.9531 L463,96.9531 C463,106.9531 445,106.9531 445,106.9531 C445,106.9531 427,106.9531 427,96.9531 L427,70.9531 " fill="#FEFECE" filter="url(#f152zdz374ol7v)" style="stroke:#000000;stroke-width:1.5;"/><path d="M427,70.9531 C427,80.9531 445,80.9531 445,80.9531 C445,80.9531 463,80.9531 463,70.9531 " fill="none" style="stroke:#000000;stroke-width:1.5;"/><text fill="#000000" font-family="sans-serif" font-size="14" lengthAdjust="spacing" textLength="29" x="427.5" y="526.5732">repo</text><path d="M427,539.875 C427,529.875 445,529.875 445,529.875 C445,529.875 463,529.875 463,539.875 L463,565.875 C463,575.875 445,575.875 445,575.875 C445,575.875 427,575.875 427,565.875 L427,539.875 " fill="#FEFECE" filter="url(#f152zdz374ol7v)" style="stroke:#000000;stroke-width:1.5;"/><path d="M427,539.875 C427,549.875 445,549.875 445,549.875 C445,549.875 463,549.875 463,539.875 " fill="none" style="stroke:#000000;stroke-width:1.5;"/><rect fill="#FEFECE" filter="url(#f152zdz374ol7v)" height="30.2969" style="stroke:#A80036;stroke-width:1.5;" width="166" x="473" y="87.9531"/><text fill="#000000" font-family="sans-serif" font-size="14" lengthAdjust="spacing" textLength="152" x="480" y="107.9482">ForwardStreamHandlers</text><rect fill="#FEFECE" filter="url(#f152zdz374ol7v)" height="30.2969" style="stroke:#A80036;stroke-width:1.5;" width="166" x="473" y="513.5781"/><text fill="#000000" font-family="sans-serif" font-size="14" lengthAdjust="spacing" textLength="152" x="480" y="533.5732">ForwardStreamHandlers</text><rect fill="#FEFECE" filter="url(#f152zdz374ol7v)" height="30.2969" style="stroke:#A80036;stroke-width:1.5;" width="65" x="653" y="87.9531"/><text fill="#000000" font-family="sans-serif" font-size="14" lengthAdjust="spacing" textLength="51" x="660" y="107.9482">Cleanup</text><rect fill="#FEFECE" filter="url(#f152zdz374ol7v)" height="30.2969" style="stroke:#A80036;stroke-width:1.5;" width="65" x="653" y="513.5781"/><text fill="#000000" font-family="sans-serif" font-size="14" lengthAdjust="spacing" textLength="51" x="660" y="533.5732">Cleanup</text><text fill="#000000" font-family="sans-serif" font-size="14" lengthAdjust="spacing" textLength="74" x="732" y="119.9482">Destination</text><ellipse cx="772" cy="49.9531" fill="#FEFECE" filter="url(#f152zdz374ol7v)" rx="8" ry="8" style="stroke:#A80036;stroke-width:2.0;"/><path d="M772,57.9531 L772,84.9531 M759,65.9531 L785,65.9531 M772,84.9531 L759,99.9531 M772,84.9531 L785,99.9531 " fill="none" filter="url(#f152zdz374ol7v)" style="stroke:#A80036;stroke-width:2.0;"/><text fill="#000000" font-family="sans-serif" font-size="14" lengthAdjust="spacing" textLength="74" x="732" y="526.5732">Destination</text><ellipse cx="772" cy="539.875" fill="#FEFECE" filter="url(#f152zdz374ol7v)" rx="8" ry="8" style="stroke:#A80036;stroke-width:2.0;"/><path d="M772,547.875 L772,574.875 M759,555.875 L785,555.875 M772,574.875 L759,589.875 M772,574.875 L785,589.875 " fill="none" filter="url(#f152zdz374ol7v)" style="stroke:#A80036;stroke-width:2.0;"/><rect fill="#FFFFFF" filter="url(#f152zdz374ol7v)" height="239.7969" style="stroke:#A80036;stroke-width:1.0;" width="10" x="207" y="220.6484"/><rect fill="#FFFFFF" filter="url(#f152zdz374ol7v)" height="170.6641" style="stroke:#A80036;stroke-width:1.0;" width="10" x="212" y="262.7813"/><line style="stroke:#A80036;stroke-width:1.0;" x1="210" x2="200" y1="154.3828" y2="158.3828"/><line style="stroke:#A80036;stroke-width:1.0;stroke-dasharray:2.0,2.0;" x1="72.5" x2="211" y1="154.3828" y2="154.3828"/><text fill="#000000" font-family="sans-serif" font-size="13" lengthAdjust="spacing" textLength="61" x="79.5" y="149.3169">onChange</text><polygon fill="#A80036" points="387,179.5156,397,183.5156,387,187.5156,391,183.5156" style="stroke:#A80036;stroke-width:1.0;"/><line style="stroke:#A80036;stroke-width:1.0;" x1="212" x2="393" y1="183.5156" y2="183.5156"/><text fill="#000000" font-family="sans-serif" font-size="13" lengthAdjust="spacing" textLength="102" x="219" y="178.4497">Find new sources</text><line style="stroke:#A80036;stroke-width:1.0;" x1="212" x2="259" y1="207.6484" y2="207.6484"/><line style="stroke:#A80036;stroke-width:1.0;" x1="259" x2="259" y1="207.6484" y2="220.6484"/><line style="stroke:#A80036;stroke-width:1.0;" x1="218" x2="259" y1="220.6484" y2="220.6484"/><line style="stroke:#A80036;stroke-width:1.0;" x1="218" x2="228" y1="220.6484" y2="224.6484"/><text fill="#000000" font-family="sans-serif" font-size="13" lengthAdjust="spacing" textLength="99" x="224" y="202.5825">Forward Sources</text><line style="stroke:#A80036;stroke-width:1.0;" x1="217" x2="264" y1="249.7813" y2="249.7813"/><line style="stroke:#A80036;stroke-width:1.0;" x1="264" x2="264" y1="249.7813" y2="262.7813"/><line style="stroke:#A80036;stroke-width:1.0;" x1="223" x2="264" y1="262.7813" y2="262.7813"/><line style="stroke:#A80036;stroke-width:1.0;" x1="223" x2="233" y1="262.7813" y2="266.7813"/><text fill="#000000" font-family="sans-serif" font-size="13" lengthAdjust="spacing" textLength="93" x="229" y="244.7153">Forward Source</text><polygon fill="#A80036" points="433,292.9141,443,296.9141,433,300.9141,437,296.9141" style="stroke:#A80036;stroke-width:1.0;"/><line style="stroke:#A80036;stroke-width:1.0;" x1="222" x2="439" y1="296.9141" y2="296.9141"/><text fill="#000000" font-family="sans-serif" font-size="13" lengthAdjust="spacing" textLength="27" x="229" y="291.8481">read</text><polygon fill="#A80036" points="546,322.0469,556,326.0469,546,330.0469,550,326.0469" style="stroke:#A80036;stroke-width:1.0;"/><line style="stroke:#A80036;stroke-width:1.0;" x1="222" x2="552" y1="326.0469" y2="326.0469"/><text fill="#000000" font-family="sans-serif" font-size="13" lengthAdjust="spacing" textLength="29" x="229" y="320.981">write</text><polygon fill="#A80036" points="760,351.1797,770,355.1797,760,359.1797,764,355.1797" style="stroke:#A80036;stroke-width:1.0;"/><line style="stroke:#A80036;stroke-width:1.0;stroke-dasharray:2.0,2.0;" x1="558" x2="766" y1="355.1797" y2="355.1797"/><text fill="#000000" font-family="sans-serif" font-size="13" lengthAdjust="spacing" textLength="41" x="565" y="350.1138">handle</text><polygon fill="#A80036" points="387,380.3125,397,384.3125,387,388.3125,391,384.3125" style="stroke:#A80036;stroke-width:1.0;"/><line style="stroke:#A80036;stroke-width:1.0;" x1="222" x2="393" y1="384.3125" y2="384.3125"/><text fill="#000000" font-family="sans-serif" font-size="13" lengthAdjust="spacing" textLength="140" x="229" y="379.2466">record 'forward_source'</text><polygon fill="#A80036" points="387,409.4453,397,413.4453,387,417.4453,391,413.4453" style="stroke:#A80036;stroke-width:1.0;"/><line style="stroke:#A80036;stroke-width:1.0;" x1="222" x2="393" y1="413.4453" y2="413.4453"/><text fill="#000000" font-family="sans-serif" font-size="13" lengthAdjust="spacing" textLength="153" x="229" y="408.3794">record 'source' forwarded</text><line style="stroke:#A80036;stroke-width:1.0;stroke-dasharray:2.0,2.0;" x1="222" x2="264" y1="432.4453" y2="432.4453"/><line style="stroke:#A80036;stroke-width:1.0;stroke-dasharray:2.0,2.0;" x1="264" x2="264" y1="432.4453" y2="445.4453"/><line style="stroke:#A80036;stroke-width:1.0;stroke-dasharray:2.0,2.0;" x1="217" x2="264" y1="445.4453" y2="445.4453"/><line style="stroke:#A80036;stroke-width:1.0;" x1="217" x2="227" y1="445.4453" y2="449.4453"/><line style="stroke:#A80036;stroke-width:1.0;stroke-dasharray:2.0,2.0;" x1="217" x2="259" y1="459.4453" y2="459.4453"/><line style="stroke:#A80036;stroke-width:1.0;stroke-dasharray:2.0,2.0;" x1="259" x2="259" y1="459.4453" y2="472.4453"/><line style="stroke:#A80036;stroke-width:1.0;stroke-dasharray:2.0,2.0;" x1="212" x2="259" y1="472.4453" y2="472.4453"/><line style="stroke:#A80036;stroke-width:1.0;" x1="212" x2="222" y1="472.4453" y2="476.4453"/><line style="stroke:#A80036;stroke-width:1.0;" x1="685.5" x2="675.5" y1="496.5781" y2="500.5781"/><line style="stroke:#A80036;stroke-width:1.0;stroke-dasharray:2.0,2.0;" x1="212" x2="686.5" y1="496.5781" y2="496.5781"/><text fill="#000000" font-family="sans-serif" font-size="13" lengthAdjust="spacing" textLength="61" x="219" y="491.5122">onChange</text><!--MD5=[1597628c2e1971f5614e5c09d44fc77c]
@startuml

title Forward Stored Data

participant ProxyRepoSources
participant SourceForwarder
database db
database repo
participant ForwardStreamHandlers
participant Cleanup
actor Destination

ProxyRepoSources - -// SourceForwarder: onChange
SourceForwarder -> db: Find new sources
SourceForwarder -// SourceForwarder++: Forward Sources
SourceForwarder -// SourceForwarder++: Forward Source
SourceForwarder -> repo: read
SourceForwarder -> ForwardStreamHandlers: write
ForwardStreamHandlers - -> Destination: handle
SourceForwarder -> db: record 'forward_source'

SourceForwarder -> db: record 'source' forwarded
return
return

SourceForwarder - -// Cleanup: onChange

@enduml

PlantUML version 1.2021.5(Sun Apr 25 11:20:28 GMT 2021)
(GPL source distribution)
Java Runtime: OpenJDK Runtime Environment
JVM: OpenJDK 64-Bit Server VM
Default Encoding: UTF-8
Language: en
Country: US
--></g></svg>