<?xml version="1.0" encoding="UTF-8" standalone="no"?><svg xmlns="http://www.w3.org/2000/svg" xmlns:xlink="http://www.w3.org/1999/xlink" contentScriptType="application/ecmascript" contentStyleType="text/css" height="812px" preserveAspectRatio="none" style="width:592px;height:812px;background:#FFFFFF;" version="1.1" viewBox="0 0 592 812" width="592px" zoomAndPan="magnify"><defs><filter height="300%" id="f1lra3g6xe3gvm" width="300%" x="-1" y="-1"><feGaussianBlur result="blurOut" stdDeviation="2.0"/><feColorMatrix in="blurOut" result="blurOut2" type="matrix" values="0 0 0 0 0 0 0 0 0 0 0 0 0 0 0 0 0 0 .4 0"/><feOffset dx="4.0" dy="4.0" in="blurOut2" result="blurOut3"/><feBlend in="SourceGraphic" in2="blurOut3" mode="normal"/></filter></defs><g><!--MD5=[a89e013394a4179b87aacb584f03bea5]
class feed--><rect codeLine="5" fill="#FEFECE" filter="url(#f1lra3g6xe3gvm)" height="92.9457" id="feed" style="stroke:#A80036;stroke-width:1.5;" width="156" x="152" y="52"/><ellipse cx="213.25" cy="68" fill="#ADD1B2" rx="11" ry="11" style="stroke:#A80036;stroke-width:1.0;"/><path d="M209.6094,74.5 L209.6094,62.3594 L217.2656,62.3594 L217.2656,64.4844 L211.9844,64.4844 L211.9844,67.1406 L217,67.1406 L217,69.2656 L211.9844,69.2656 L211.9844,72.375 L217.2656,72.375 L217.2656,74.5 L209.6094,74.5 Z " fill="#000000"/><text fill="#000000" font-family="sans-serif" font-size="12" lengthAdjust="spacing" textLength="25" x="233.75" y="72.656">feed</text><line style="stroke:#A80036;stroke-width:1.5;" x1="153" x2="307" y1="84" y2="84"/><ellipse cx="163" cy="95" fill="#000000" rx="3" ry="3" style="stroke:#000000;stroke-width:1.0;"/><text fill="#000000" font-family="sans-serif" font-size="11" lengthAdjust="spacing" textLength="50" x="172" y="99.7589">id : bigint</text><line style="stroke:#A80036;stroke-width:1.0;" x1="153" x2="307" y1="106.9819" y2="106.9819"/><ellipse cx="163" cy="117.9819" fill="#000000" rx="3" ry="3" style="stroke:#000000;stroke-width:1.0;"/><text fill="#000000" font-family="sans-serif" font-size="11" lengthAdjust="spacing" textLength="130" x="172" y="122.7408">feed_name : varchar(255)</text><ellipse cx="163" cy="132.9638" fill="#000000" rx="3" ry="3" style="stroke:#000000;stroke-width:1.0;"/><text fill="#000000" font-family="sans-serif" font-size="11" lengthAdjust="spacing" textLength="130" x="172" y="137.7227">type_name : varchar(255)</text><!--MD5=[fb94403e3d3521d383fd6507b67b3642]
class source--><rect codeLine="12" fill="#FEFECE" filter="url(#f1lra3g6xe3gvm)" height="137.8913" id="source" style="stroke:#A80036;stroke-width:1.5;" width="170" x="7" y="257.5"/><ellipse cx="68.75" cy="273.5" fill="#ADD1B2" rx="11" ry="11" style="stroke:#A80036;stroke-width:1.0;"/><path d="M65.1094,280 L65.1094,267.8594 L72.7656,267.8594 L72.7656,269.9844 L67.4844,269.9844 L67.4844,272.6406 L72.5,272.6406 L72.5,274.7656 L67.4844,274.7656 L67.4844,277.875 L72.7656,277.875 L72.7656,280 L65.1094,280 Z " fill="#000000"/><text fill="#000000" font-family="sans-serif" font-size="12" lengthAdjust="spacing" textLength="38" x="89.25" y="278.156">source</text><line style="stroke:#A80036;stroke-width:1.5;" x1="8" x2="176" y1="289.5" y2="289.5"/><ellipse cx="18" cy="300.5" fill="#000000" rx="3" ry="3" style="stroke:#000000;stroke-width:1.0;"/><text fill="#000000" font-family="sans-serif" font-size="11" lengthAdjust="spacing" textLength="50" x="27" y="305.2589">id : bigint</text><line style="stroke:#A80036;stroke-width:1.0;" x1="8" x2="176" y1="312.4819" y2="312.4819"/><ellipse cx="18" cy="323.4819" fill="#000000" rx="3" ry="3" style="stroke:#000000;stroke-width:1.0;"/><text fill="#000000" font-family="sans-serif" font-size="11" lengthAdjust="spacing" textLength="144" x="27" y="328.2408">path : varchar(255) - unique</text><ellipse cx="18" cy="338.4638" fill="#000000" rx="3" ry="3" style="stroke:#000000;stroke-width:1.0;"/><text fill="#000000" font-family="sans-serif" font-size="11" lengthAdjust="spacing" textLength="93" x="27" y="343.2227">fk_feed_id : bigint</text><ellipse cx="18" cy="353.4457" fill="#000000" rx="3" ry="3" style="stroke:#000000;stroke-width:1.0;"/><text fill="#000000" font-family="sans-serif" font-size="11" lengthAdjust="spacing" textLength="103" x="27" y="358.2046">examined : boolean</text><ellipse cx="18" cy="368.4276" fill="#000000" rx="3" ry="3" style="stroke:#000000;stroke-width:1.0;"/><text fill="#000000" font-family="sans-serif" font-size="11" lengthAdjust="spacing" textLength="108" x="27" y="373.1865">forwarded : boolean</text><ellipse cx="18" cy="383.4094" fill="#000000" rx="3" ry="3" style="stroke:#000000;stroke-width:1.0;"/><text fill="#000000" font-family="sans-serif" font-size="11" lengthAdjust="spacing" textLength="110" x="27" y="388.1684">new_position : bigint</text><!--MD5=[23693ca385c1414b1e74e8b4c3b37cb4]
class source_item--><rect codeLine="22" fill="#FEFECE" filter="url(#f1lra3g6xe3gvm)" height="152.8732" id="source_item" style="stroke:#A80036;stroke-width:1.5;" width="150" x="155" y="463"/><ellipse cx="192.5" cy="479" fill="#ADD1B2" rx="11" ry="11" style="stroke:#A80036;stroke-width:1.0;"/><path d="M188.8594,485.5 L188.8594,473.3594 L196.5156,473.3594 L196.5156,475.4844 L191.2344,475.4844 L191.2344,478.1406 L196.25,478.1406 L196.25,480.2656 L191.2344,480.2656 L191.2344,483.375 L196.5156,483.375 L196.5156,485.5 L188.8594,485.5 Z " fill="#000000"/><text fill="#000000" font-family="sans-serif" font-size="12" lengthAdjust="spacing" textLength="68" x="211.5" y="483.656">source_item</text><line style="stroke:#A80036;stroke-width:1.5;" x1="156" x2="304" y1="495" y2="495"/><ellipse cx="166" cy="506" fill="#000000" rx="3" ry="3" style="stroke:#000000;stroke-width:1.0;"/><text fill="#000000" font-family="sans-serif" font-size="11" lengthAdjust="spacing" textLength="50" x="175" y="510.7589">id : bigint</text><line style="stroke:#A80036;stroke-width:1.0;" x1="156" x2="304" y1="517.9819" y2="517.9819"/><ellipse cx="166" cy="528.9819" fill="#000000" rx="3" ry="3" style="stroke:#000000;stroke-width:1.0;"/><text fill="#000000" font-family="sans-serif" font-size="11" lengthAdjust="spacing" textLength="102" x="175" y="533.7408">name : varchar(255)</text><ellipse cx="166" cy="543.9638" fill="#000000" rx="3" ry="3" style="stroke:#000000;stroke-width:1.0;"/><text fill="#000000" font-family="sans-serif" font-size="11" lengthAdjust="spacing" textLength="93" x="175" y="548.7227">fk_feed_id : bigint</text><ellipse cx="166" cy="558.9457" fill="#000000" rx="3" ry="3" style="stroke:#000000;stroke-width:1.0;"/><text fill="#000000" font-family="sans-serif" font-size="11" lengthAdjust="spacing" textLength="87" x="175" y="563.7046">byte_size : bigint</text><ellipse cx="166" cy="573.9276" fill="#000000" rx="3" ry="3" style="stroke:#000000;stroke-width:1.0;"/><text fill="#000000" font-family="sans-serif" font-size="11" lengthAdjust="spacing" textLength="105" x="175" y="578.6865">fk_source_id : bigint</text><ellipse cx="166" cy="588.9094" fill="#000000" rx="3" ry="3" style="stroke:#000000;stroke-width:1.0;"/><text fill="#000000" font-family="sans-serif" font-size="11" lengthAdjust="spacing" textLength="124" x="175" y="593.6684">fk_aggregate_id : bigint</text><ellipse cx="166" cy="603.8913" fill="#000000" rx="3" ry="3" style="stroke:#000000;stroke-width:1.0;"/><text fill="#000000" font-family="sans-serif" font-size="11" lengthAdjust="spacing" textLength="110" x="175" y="608.6502">new_position : bigint</text><!--MD5=[920d5660a06730163c0204a2780a33ae]
class source_entry--><rect codeLine="33" fill="#FEFECE" filter="url(#f1lra3g6xe3gvm)" height="122.9094" id="source_entry" style="stroke:#A80036;stroke-width:1.5;" width="159" x="150.5" y="676"/><ellipse cx="190.25" cy="692" fill="#ADD1B2" rx="11" ry="11" style="stroke:#A80036;stroke-width:1.0;"/><path d="M186.6094,698.5 L186.6094,686.3594 L194.2656,686.3594 L194.2656,688.4844 L188.9844,688.4844 L188.9844,691.1406 L194,691.1406 L194,693.2656 L188.9844,693.2656 L188.9844,696.375 L194.2656,696.375 L194.2656,698.5 L186.6094,698.5 Z " fill="#000000"/><text fill="#000000" font-family="sans-serif" font-size="12" lengthAdjust="spacing" textLength="72" x="209.75" y="696.656">source_entry</text><line style="stroke:#A80036;stroke-width:1.5;" x1="151.5" x2="308.5" y1="708" y2="708"/><ellipse cx="161.5" cy="719" fill="#000000" rx="3" ry="3" style="stroke:#000000;stroke-width:1.0;"/><text fill="#000000" font-family="sans-serif" font-size="11" lengthAdjust="spacing" textLength="50" x="170.5" y="723.7589">id : bigint</text><line style="stroke:#A80036;stroke-width:1.0;" x1="151.5" x2="308.5" y1="730.9819" y2="730.9819"/><ellipse cx="161.5" cy="741.9819" fill="#000000" rx="3" ry="3" style="stroke:#000000;stroke-width:1.0;"/><text fill="#000000" font-family="sans-serif" font-size="11" lengthAdjust="spacing" textLength="124" x="170.5" y="746.7408">extension : varchar(255)</text><ellipse cx="161.5" cy="756.9638" fill="#000000" rx="3" ry="3" style="stroke:#000000;stroke-width:1.0;"/><text fill="#000000" font-family="sans-serif" font-size="11" lengthAdjust="spacing" textLength="102" x="170.5" y="761.7227">extension_type : int</text><ellipse cx="161.5" cy="771.9457" fill="#000000" rx="3" ry="3" style="stroke:#000000;stroke-width:1.0;"/><text fill="#000000" font-family="sans-serif" font-size="11" lengthAdjust="spacing" textLength="87" x="170.5" y="776.7046">byte_size : bigint</text><ellipse cx="161.5" cy="786.9276" fill="#000000" rx="3" ry="3" style="stroke:#000000;stroke-width:1.0;"/><text fill="#000000" font-family="sans-serif" font-size="11" lengthAdjust="spacing" textLength="133" x="170.5" y="791.6865">fk_source_item_id : bigint</text><!--MD5=[1ef907470190a52481b72bc04299235e]
class aggregate--><rect codeLine="42" fill="#FEFECE" filter="url(#f1lra3g6xe3gvm)" height="152.8732" id="aggregate" style="stroke:#A80036;stroke-width:1.5;" width="146" x="283" y="250"/><ellipse cx="323.2" cy="266" fill="#ADD1B2" rx="11" ry="11" style="stroke:#A80036;stroke-width:1.0;"/><path d="M319.5594,272.5 L319.5594,260.3594 L327.2156,260.3594 L327.2156,262.4844 L321.9344,262.4844 L321.9344,265.1406 L326.95,265.1406 L326.95,267.2656 L321.9344,267.2656 L321.9344,270.375 L327.2156,270.375 L327.2156,272.5 L319.5594,272.5 Z " fill="#000000"/><text fill="#000000" font-family="sans-serif" font-size="12" lengthAdjust="spacing" textLength="58" x="342.8" y="270.656">aggregate</text><line style="stroke:#A80036;stroke-width:1.5;" x1="284" x2="428" y1="282" y2="282"/><ellipse cx="294" cy="293" fill="#000000" rx="3" ry="3" style="stroke:#000000;stroke-width:1.0;"/><text fill="#000000" font-family="sans-serif" font-size="11" lengthAdjust="spacing" textLength="50" x="303" y="297.7589">id : bigint</text><line style="stroke:#A80036;stroke-width:1.0;" x1="284" x2="428" y1="304.9819" y2="304.9819"/><ellipse cx="294" cy="315.9819" fill="#000000" rx="3" ry="3" style="stroke:#000000;stroke-width:1.0;"/><text fill="#000000" font-family="sans-serif" font-size="11" lengthAdjust="spacing" textLength="120" x="303" y="320.7408">create_time_ms : bigint</text><ellipse cx="294" cy="330.9638" fill="#000000" rx="3" ry="3" style="stroke:#000000;stroke-width:1.0;"/><text fill="#000000" font-family="sans-serif" font-size="11" lengthAdjust="spacing" textLength="93" x="303" y="335.7227">fk_feed_id : bigint</text><ellipse cx="294" cy="345.9457" fill="#000000" rx="3" ry="3" style="stroke:#000000;stroke-width:1.0;"/><text fill="#000000" font-family="sans-serif" font-size="11" lengthAdjust="spacing" textLength="87" x="303" y="350.7046">byte_size : bigint</text><ellipse cx="294" cy="360.9276" fill="#000000" rx="3" ry="3" style="stroke:#000000;stroke-width:1.0;"/><text fill="#000000" font-family="sans-serif" font-size="11" lengthAdjust="spacing" textLength="51" x="303" y="365.6865">items : int</text><ellipse cx="294" cy="375.9094" fill="#000000" rx="3" ry="3" style="stroke:#000000;stroke-width:1.0;"/><text fill="#000000" font-family="sans-serif" font-size="11" lengthAdjust="spacing" textLength="100" x="303" y="380.6684">complete : boolean</text><ellipse cx="294" cy="390.8913" fill="#000000" rx="3" ry="3" style="stroke:#000000;stroke-width:1.0;"/><text fill="#000000" font-family="sans-serif" font-size="11" lengthAdjust="spacing" textLength="110" x="303" y="395.6502">new_position : bigint</text><!--MD5=[3cc1e4effaee23fb9097a8bf1d8fa0d4]
class forward_url--><rect codeLine="53" fill="#FEFECE" filter="url(#f1lra3g6xe3gvm)" height="77.9638" id="forward_url" style="stroke:#A80036;stroke-width:1.5;" width="114" x="464" y="287.5"/><ellipse cx="487.1" cy="303.5" fill="#ADD1B2" rx="11" ry="11" style="stroke:#A80036;stroke-width:1.0;"/><path d="M483.4594,310 L483.4594,297.8594 L491.1156,297.8594 L491.1156,299.9844 L485.8344,299.9844 L485.8344,302.6406 L490.85,302.6406 L490.85,304.7656 L485.8344,304.7656 L485.8344,307.875 L491.1156,307.875 L491.1156,310 L483.4594,310 Z " fill="#000000"/><text fill="#000000" font-family="sans-serif" font-size="12" lengthAdjust="spacing" textLength="64" x="502.9" y="308.156">forward_url</text><line style="stroke:#A80036;stroke-width:1.5;" x1="465" x2="577" y1="319.5" y2="319.5"/><ellipse cx="475" cy="330.5" fill="#000000" rx="3" ry="3" style="stroke:#000000;stroke-width:1.0;"/><text fill="#000000" font-family="sans-serif" font-size="11" lengthAdjust="spacing" textLength="33" x="484" y="335.2589">id : int</text><line style="stroke:#A80036;stroke-width:1.0;" x1="465" x2="577" y1="342.4819" y2="342.4819"/><ellipse cx="475" cy="353.4819" fill="#000000" rx="3" ry="3" style="stroke:#000000;stroke-width:1.0;"/><text fill="#000000" font-family="sans-serif" font-size="11" lengthAdjust="spacing" textLength="88" x="484" y="358.2408">url : varchar(255)</text><!--MD5=[d4f398bbc1193deb68c8428dcb929078]
class forward_aggregate--><rect codeLine="59" fill="#FEFECE" filter="url(#f1lra3g6xe3gvm)" height="182.837" id="forward_aggregate" style="stroke:#A80036;stroke-width:1.5;" width="151" x="394.5" y="7"/><ellipse cx="414.9" cy="23" fill="#ADD1B2" rx="11" ry="11" style="stroke:#A80036;stroke-width:1.0;"/><path d="M411.2594,29.5 L411.2594,17.3594 L418.9156,17.3594 L418.9156,19.4844 L413.6344,19.4844 L413.6344,22.1406 L418.65,22.1406 L418.65,24.2656 L413.6344,24.2656 L413.6344,27.375 L418.9156,27.375 L418.9156,29.5 L411.2594,29.5 Z " fill="#000000"/><text fill="#000000" font-family="sans-serif" font-size="12" lengthAdjust="spacing" textLength="107" x="430.1" y="27.656">forward_aggregate</text><line style="stroke:#A80036;stroke-width:1.5;" x1="395.5" x2="544.5" y1="39" y2="39"/><ellipse cx="405.5" cy="50" fill="#000000" rx="3" ry="3" style="stroke:#000000;stroke-width:1.0;"/><text fill="#000000" font-family="sans-serif" font-size="11" lengthAdjust="spacing" textLength="50" x="414.5" y="54.7589">id : bigint</text><line style="stroke:#A80036;stroke-width:1.0;" x1="395.5" x2="544.5" y1="61.9819" y2="61.9819"/><ellipse cx="405.5" cy="72.9819" fill="#000000" rx="3" ry="3" style="stroke:#000000;stroke-width:1.0;"/><text fill="#000000" font-family="sans-serif" font-size="11" lengthAdjust="spacing" textLength="125" x="414.5" y="77.7408">update_time_ms : bigint</text><ellipse cx="405.5" cy="87.9638" fill="#000000" rx="3" ry="3" style="stroke:#000000;stroke-width:1.0;"/><text fill="#000000" font-family="sans-serif" font-size="11" lengthAdjust="spacing" textLength="116" x="414.5" y="92.7227">fk_forward_url_id : int</text><ellipse cx="405.5" cy="102.9457" fill="#000000" rx="3" ry="3" style="stroke:#000000;stroke-width:1.0;"/><text fill="#000000" font-family="sans-serif" font-size="11" lengthAdjust="spacing" textLength="124" x="414.5" y="107.7046">fk_aggregate_id : bigint</text><ellipse cx="405.5" cy="117.9276" fill="#000000" rx="3" ry="3" style="stroke:#000000;stroke-width:1.0;"/><text fill="#000000" font-family="sans-serif" font-size="11" lengthAdjust="spacing" textLength="90" x="414.5" y="122.6865">success : boolean</text><ellipse cx="405.5" cy="132.9094" fill="#000000" rx="3" ry="3" style="stroke:#000000;stroke-width:1.0;"/><text fill="#000000" font-family="sans-serif" font-size="11" lengthAdjust="spacing" textLength="101" x="414.5" y="137.6684">error : varchar(255)</text><ellipse cx="405.5" cy="147.8913" fill="#000000" rx="3" ry="3" style="stroke:#000000;stroke-width:1.0;"/><text fill="#000000" font-family="sans-serif" font-size="11" lengthAdjust="spacing" textLength="63" x="414.5" y="152.6502">tries : bigint</text><ellipse cx="405.5" cy="162.8732" fill="#000000" rx="3" ry="3" style="stroke:#000000;stroke-width:1.0;"/><text fill="#000000" font-family="sans-serif" font-size="11" lengthAdjust="spacing" textLength="110" x="414.5" y="167.6321">new_position : bigint</text><ellipse cx="405.5" cy="177.8551" fill="#000000" rx="3" ry="3" style="stroke:#000000;stroke-width:1.0;"/><text fill="#000000" font-family="sans-serif" font-size="11" lengthAdjust="spacing" textLength="114" x="414.5" y="182.614">retry_position : bigint</text><!--MD5=[8fc0b909dc2d6f9332fdd45de385bd9e]
link feed to source--><path codeLine="72" d="M164.5,153.19 C164.5,153.19 164.5,249.37 164.5,249.37 " fill="none" id="feed-source" style="stroke:#A80036;stroke-width:1.0;"/><line style="stroke:#A80036;stroke-width:1.0;" x1="164.5" x2="170.5" y1="249.37" y2="257.37"/><line style="stroke:#A80036;stroke-width:1.0;" x1="164.5" x2="158.5" y1="249.37" y2="257.37"/><line style="stroke:#A80036;stroke-width:1.0;" x1="164.5" x2="164.5" y1="249.37" y2="257.37"/><line style="stroke:#A80036;stroke-width:1.0;" x1="168.5" x2="160.5" y1="247.37" y2="247.37"/><line style="stroke:#A80036;stroke-width:1.0;" x1="160.5" x2="168.5" y1="149.19" y2="149.19"/><line style="stroke:#A80036;stroke-width:1.0;" x1="160.5" x2="168.5" y1="152.19" y2="152.19"/><line style="stroke:#A80036;stroke-width:1.0;" x1="164.5" x2="164.5" y1="153.19" y2="145.19"/><!--MD5=[11c2e13f815eb43a8199e329e64e3864]
link feed to source_item--><path codeLine="73" d="M230,153.28 C230,153.28 230,454.65 230,454.65 " fill="none" id="feed-source_item" style="stroke:#A80036;stroke-width:1.0;"/><line style="stroke:#A80036;stroke-width:1.0;" x1="230" x2="236" y1="454.65" y2="462.65"/><line style="stroke:#A80036;stroke-width:1.0;" x1="230" x2="224" y1="454.65" y2="462.65"/><line style="stroke:#A80036;stroke-width:1.0;" x1="230" x2="230" y1="454.65" y2="462.65"/><line style="stroke:#A80036;stroke-width:1.0;" x1="234" x2="226" y1="452.65" y2="452.65"/><line style="stroke:#A80036;stroke-width:1.0;" x1="226" x2="234" y1="149.28" y2="149.28"/><line style="stroke:#A80036;stroke-width:1.0;" x1="226" x2="234" y1="152.28" y2="152.28"/><line style="stroke:#A80036;stroke-width:1.0;" x1="230" x2="230" y1="153.28" y2="145.28"/><!--MD5=[2216fa80f18d20d599bb2d67b2e757c8]
link feed to aggregate--><path codeLine="74" d="M295.5,153.19 C295.5,153.19 295.5,241.8 295.5,241.8 " fill="none" id="feed-aggregate" style="stroke:#A80036;stroke-width:1.0;"/><line style="stroke:#A80036;stroke-width:1.0;" x1="295.5" x2="301.5" y1="241.8" y2="249.8"/><line style="stroke:#A80036;stroke-width:1.0;" x1="295.5" x2="289.5" y1="241.8" y2="249.8"/><line style="stroke:#A80036;stroke-width:1.0;" x1="295.5" x2="295.5" y1="241.8" y2="249.8"/><line style="stroke:#A80036;stroke-width:1.0;" x1="299.5" x2="291.5" y1="239.8" y2="239.8"/><line style="stroke:#A80036;stroke-width:1.0;" x1="291.5" x2="299.5" y1="149.19" y2="149.19"/><line style="stroke:#A80036;stroke-width:1.0;" x1="291.5" x2="299.5" y1="152.19" y2="152.19"/><line style="stroke:#A80036;stroke-width:1.0;" x1="295.5" x2="295.5" y1="153.19" y2="145.19"/><!--MD5=[bde66a182555eb887059de8293221a83]
link source to source_item--><path codeLine="76" d="M166,403.65 C166,403.65 166,454.96 166,454.96 " fill="none" id="source-source_item" style="stroke:#A80036;stroke-width:1.0;stroke-dasharray:7.0,7.0;"/><line style="stroke:#A80036;stroke-width:1.0;" x1="166" x2="172" y1="454.96" y2="462.96"/><line style="stroke:#A80036;stroke-width:1.0;" x1="166" x2="160" y1="454.96" y2="462.96"/><line style="stroke:#A80036;stroke-width:1.0;" x1="166" x2="166" y1="454.96" y2="462.96"/><ellipse cx="166" cy="448.96" rx="4" ry="4" style="stroke:#A80036;stroke-width:1.0;fill:none;"/><line style="stroke:#A80036;stroke-width:1.0;fill:none;" x1="162.0071" x2="170.0071" y1="399.6571" y2="399.6429"/><line style="stroke:#A80036;stroke-width:1.0;fill:none;" x1="162.0125" x2="170.0125" y1="402.6571" y2="402.6428"/><line style="stroke:#A80036;stroke-width:1.0;fill:none;" x1="166.0143" x2="166" y1="403.65" y2="395.65"/><!--MD5=[6610028f0c7a0554f2085ee3824405a3]
link source_item to source_entry--><path codeLine="77" d="M230,624.05 C230,624.05 230,667.86 230,667.86 " fill="none" id="source_item-source_entry" style="stroke:#A80036;stroke-width:1.0;"/><line style="stroke:#A80036;stroke-width:1.0;" x1="230" x2="236" y1="667.86" y2="675.86"/><line style="stroke:#A80036;stroke-width:1.0;" x1="230" x2="224" y1="667.86" y2="675.86"/><line style="stroke:#A80036;stroke-width:1.0;" x1="230" x2="230" y1="667.86" y2="675.86"/><line style="stroke:#A80036;stroke-width:1.0;" x1="234" x2="226" y1="665.86" y2="665.86"/><line style="stroke:#A80036;stroke-width:1.0;" x1="226" x2="234" y1="620.05" y2="620.05"/><line style="stroke:#A80036;stroke-width:1.0;" x1="226" x2="234" y1="623.05" y2="623.05"/><line style="stroke:#A80036;stroke-width:1.0;" x1="230" x2="230" y1="624.05" y2="616.05"/><!--MD5=[c19e3c6eb4e2962e1f79b15e01c56d18]
link aggregate to source_item--><path codeLine="78" d="M294,411.1 C294,411.1 294,454.87 294,454.87 " fill="none" id="aggregate-source_item" style="stroke:#A80036;stroke-width:1.0;"/><line style="stroke:#A80036;stroke-width:1.0;" x1="294" x2="300" y1="454.87" y2="462.87"/><line style="stroke:#A80036;stroke-width:1.0;" x1="294" x2="288" y1="454.87" y2="462.87"/><line style="stroke:#A80036;stroke-width:1.0;" x1="294" x2="294" y1="454.87" y2="462.87"/><line style="stroke:#A80036;stroke-width:1.0;" x1="298" x2="290" y1="452.87" y2="452.87"/><line style="stroke:#A80036;stroke-width:1.0;" x1="290" x2="298" y1="407.1" y2="407.1"/><line style="stroke:#A80036;stroke-width:1.0;" x1="290" x2="298" y1="410.1" y2="410.1"/><line style="stroke:#A80036;stroke-width:1.0;" x1="294" x2="294" y1="411.1" y2="403.1"/><!--MD5=[04d9ecdcc61a774a98679dad38ac2f3f]
link forward_aggregate to forward_url--><path codeLine="79" d="M504.75,198.25 C504.75,198.25 504.75,279.23 504.75,279.23 " fill="none" id="forward_aggregate-forward_url" style="stroke:#A80036;stroke-width:1.0;"/><line style="stroke:#A80036;stroke-width:1.0;" x1="508.75" x2="500.75" y1="283.23" y2="283.23"/><line style="stroke:#A80036;stroke-width:1.0;" x1="508.75" x2="500.75" y1="280.23" y2="280.23"/><line style="stroke:#A80036;stroke-width:1.0;" x1="504.75" x2="504.75" y1="279.23" y2="287.23"/><line style="stroke:#A80036;stroke-width:1.0;" x1="504.75" x2="498.75" y1="198.25" y2="190.25"/><line style="stroke:#A80036;stroke-width:1.0;" x1="504.75" x2="510.75" y1="198.25" y2="190.25"/><line style="stroke:#A80036;stroke-width:1.0;" x1="504.75" x2="504.75" y1="198.25" y2="190.25"/><ellipse cx="504.75" cy="204.25" rx="4" ry="4" style="stroke:#A80036;stroke-width:1.0;fill:none;"/><!--MD5=[0ac3d8377118ba1284c6e32a49f23729]
link forward_aggregate to aggregate--><path codeLine="80" d="M411.75,198.25 C411.75,198.25 411.75,241.93 411.75,241.93 " fill="none" id="forward_aggregate-aggregate" style="stroke:#A80036;stroke-width:1.0;"/><line style="stroke:#A80036;stroke-width:1.0;" x1="415.75" x2="407.75" y1="245.93" y2="245.93"/><line style="stroke:#A80036;stroke-width:1.0;" x1="415.75" x2="407.75" y1="242.93" y2="242.93"/><line style="stroke:#A80036;stroke-width:1.0;" x1="411.75" x2="411.75" y1="241.93" y2="249.93"/><line style="stroke:#A80036;stroke-width:1.0;" x1="411.75" x2="405.75" y1="198.25" y2="190.25"/><line style="stroke:#A80036;stroke-width:1.0;" x1="411.75" x2="417.75" y1="198.25" y2="190.25"/><line style="stroke:#A80036;stroke-width:1.0;" x1="411.75" x2="411.75" y1="198.25" y2="190.25"/><ellipse cx="411.75" cy="204.25" rx="4" ry="4" style="stroke:#A80036;stroke-width:1.0;fill:none;"/><!--MD5=[5189355da322554c47f77f6cffd92ab0]
@startuml

' avoid problems with angled crows feet
skinparam linetype ortho

entity feed {
  *id : bigint
  - -
  *feed_name : varchar(255)
  *type_name : varchar(255)
}

entity source {
  *id : bigint
  - -
  *path : varchar(255) - unique
  *fk_feed_id : bigint
  *examined : boolean
  *forwarded : boolean
  *new_position : bigint
}

entity source_item {
  *id : bigint
  - -
  *name : varchar(255)
  *fk_feed_id : bigint
  *byte_size : bigint
  *fk_source_id : bigint
  *fk_aggregate_id : bigint
  *new_position : bigint
}

entity source_entry {
  *id : bigint
  - -
  *extension : varchar(255)
  *extension_type : int
  *byte_size : bigint
  *fk_source_item_id : bigint
}

entity aggregate {
  *id : bigint
  - -
  *create_time_ms : bigint
  *fk_feed_id : bigint
  *byte_size : bigint
  *items : int
  *complete : boolean
  *new_position : bigint
}

entity forward_url {
  *id : int
  - -
  *url : varchar(255)
}

entity forward_aggregate {
  *id : bigint
  - -
  *update_time_ms : bigint
  *fk_forward_url_id : int
  *fk_aggregate_id : bigint
  *success : boolean
  *error : varchar(255)
  *tries : bigint
  *new_position : bigint
  *retry_position : bigint
}

feed ||- -|{ source
feed ||- -|{ source_item
feed ||- -|{ aggregate

source ||..o{ source_item
source_item ||- -|{ source_entry
aggregate ||- -|{ source_item
forward_aggregate }o- -|| forward_url
forward_aggregate }o- -|| aggregate

@enduml

@startuml

skinparam linetype ortho

entity feed {
  *id : bigint
  - -
  *feed_name : varchar(255)
  *type_name : varchar(255)
}

entity source {
  *id : bigint
  - -
  *path : varchar(255) - unique
  *fk_feed_id : bigint
  *examined : boolean
  *forwarded : boolean
  *new_position : bigint
}

entity source_item {
  *id : bigint
  - -
  *name : varchar(255)
  *fk_feed_id : bigint
  *byte_size : bigint
  *fk_source_id : bigint
  *fk_aggregate_id : bigint
  *new_position : bigint
}

entity source_entry {
  *id : bigint
  - -
  *extension : varchar(255)
  *extension_type : int
  *byte_size : bigint
  *fk_source_item_id : bigint
}

entity aggregate {
  *id : bigint
  - -
  *create_time_ms : bigint
  *fk_feed_id : bigint
  *byte_size : bigint
  *items : int
  *complete : boolean
  *new_position : bigint
}

entity forward_url {
  *id : int
  - -
  *url : varchar(255)
}

entity forward_aggregate {
  *id : bigint
  - -
  *update_time_ms : bigint
  *fk_forward_url_id : int
  *fk_aggregate_id : bigint
  *success : boolean
  *error : varchar(255)
  *tries : bigint
  *new_position : bigint
  *retry_position : bigint
}

feed ||- -|{ source
feed ||- -|{ source_item
feed ||- -|{ aggregate

source ||..o{ source_item
source_item ||- -|{ source_entry
aggregate ||- -|{ source_item
forward_aggregate }o- -|| forward_url
forward_aggregate }o- -|| aggregate

@enduml

PlantUML version 1.2021.16(Wed Dec 08 17:25:22 GMT 2021)
(GPL source distribution)
Java Runtime: OpenJDK Runtime Environment
JVM: OpenJDK 64-Bit Server VM
Default Encoding: UTF-8
Language: en
Country: GB
--></g></svg>