<?xml version="1.0" encoding="UTF-8" standalone="no"?><svg xmlns="http://www.w3.org/2000/svg" xmlns:xlink="http://www.w3.org/1999/xlink" contentScriptType="application/ecmascript" contentStyleType="text/css" height="842px" preserveAspectRatio="none" style="width:545px;height:842px;background:#FFFFFF;" version="1.1" viewBox="0 0 545 842" width="545px" zoomAndPan="magnify"><defs><filter height="300%" id="f1kvjl0d2bm2up" width="300%" x="-1" y="-1"><feGaussianBlur result="blurOut" stdDeviation="2.0"/><feColorMatrix in="blurOut" result="blurOut2" type="matrix" values="0 0 0 0 0 0 0 0 0 0 0 0 0 0 0 0 0 0 .4 0"/><feOffset dx="4.0" dy="4.0" in="blurOut2" result="blurOut3"/><feBlend in="SourceGraphic" in2="blurOut3" mode="normal"/></filter></defs><g><!--MD5=[fb94403e3d3521d383fd6507b67b3642]
class source--><rect codeLine="5" fill="#FEFECE" filter="url(#f1kvjl0d2bm2up)" height="167.8551" id="source" style="stroke:#A80036;stroke-width:1.5;" width="184" x="7" y="250"/><ellipse cx="75.75" cy="266" fill="#ADD1B2" rx="11" ry="11" style="stroke:#A80036;stroke-width:1.0;"/><path d="M72.1094,272.5 L72.1094,260.3594 L79.7656,260.3594 L79.7656,262.4844 L74.4844,262.4844 L74.4844,265.1406 L79.5,265.1406 L79.5,267.2656 L74.4844,267.2656 L74.4844,270.375 L79.7656,270.375 L79.7656,272.5 L72.1094,272.5 Z " fill="#000000"/><text fill="#000000" font-family="sans-serif" font-size="12" lengthAdjust="spacing" textLength="38" x="96.25" y="270.656">source</text><line style="stroke:#A80036;stroke-width:1.5;" x1="8" x2="190" y1="282" y2="282"/><ellipse cx="18" cy="293" fill="#000000" rx="3" ry="3" style="stroke:#000000;stroke-width:1.0;"/><text fill="#000000" font-family="sans-serif" font-size="11" lengthAdjust="spacing" textLength="50" x="27" y="297.7589">id : bigint</text><line style="stroke:#A80036;stroke-width:1.0;" x1="8" x2="190" y1="304.9819" y2="304.9819"/><ellipse cx="18" cy="315.9819" fill="#000000" rx="3" ry="3" style="stroke:#000000;stroke-width:1.0;"/><text fill="#000000" font-family="sans-serif" font-size="11" lengthAdjust="spacing" textLength="144" x="27" y="320.7408">path : varchar(255) - unique</text><ellipse cx="18" cy="330.9638" fill="#000000" rx="3" ry="3" style="stroke:#000000;stroke-width:1.0;"/><text fill="#000000" font-family="sans-serif" font-size="11" lengthAdjust="spacing" textLength="130" x="27" y="335.7227">feed_name : varchar(255)</text><ellipse cx="18" cy="345.9457" fill="#000000" rx="3" ry="3" style="stroke:#000000;stroke-width:1.0;"/><text fill="#000000" font-family="sans-serif" font-size="11" lengthAdjust="spacing" textLength="130" x="27" y="350.7046">type_name : varchar(255)</text><ellipse cx="18" cy="360.9276" fill="#000000" rx="3" ry="3" style="stroke:#000000;stroke-width:1.0;"/><text fill="#000000" font-family="sans-serif" font-size="11" lengthAdjust="spacing" textLength="158" x="27" y="365.6865">last_modified_time_ms : bigint</text><ellipse cx="18" cy="375.9094" fill="#000000" rx="3" ry="3" style="stroke:#000000;stroke-width:1.0;"/><text fill="#000000" font-family="sans-serif" font-size="11" lengthAdjust="spacing" textLength="103" x="27" y="380.6684">examined : boolean</text><ellipse cx="18" cy="390.8913" fill="#000000" rx="3" ry="3" style="stroke:#000000;stroke-width:1.0;"/><text fill="#000000" font-family="sans-serif" font-size="11" lengthAdjust="spacing" textLength="108" x="27" y="395.6502">forwarded : boolean</text><ellipse cx="18" cy="405.8732" fill="#000000" rx="3" ry="3" style="stroke:#000000;stroke-width:1.0;"/><text fill="#000000" font-family="sans-serif" font-size="11" lengthAdjust="spacing" textLength="110" x="27" y="410.6321">new_position : bigint</text><!--MD5=[23693ca385c1414b1e74e8b4c3b37cb4]
class source_item--><rect codeLine="17" fill="#FEFECE" filter="url(#f1kvjl0d2bm2up)" height="167.8551" id="source_item" style="stroke:#A80036;stroke-width:1.5;" width="156" x="123" y="478"/><ellipse cx="163.2" cy="494" fill="#ADD1B2" rx="11" ry="11" style="stroke:#A80036;stroke-width:1.0;"/><path d="M159.5594,500.5 L159.5594,488.3594 L167.2156,488.3594 L167.2156,490.4844 L161.9344,490.4844 L161.9344,493.1406 L166.95,493.1406 L166.95,495.2656 L161.9344,495.2656 L161.9344,498.375 L167.2156,498.375 L167.2156,500.5 L159.5594,500.5 Z " fill="#000000"/><text fill="#000000" font-family="sans-serif" font-size="12" lengthAdjust="spacing" textLength="68" x="182.8" y="498.656">source_item</text><line style="stroke:#A80036;stroke-width:1.5;" x1="124" x2="278" y1="510" y2="510"/><ellipse cx="134" cy="521" fill="#000000" rx="3" ry="3" style="stroke:#000000;stroke-width:1.0;"/><text fill="#000000" font-family="sans-serif" font-size="11" lengthAdjust="spacing" textLength="50" x="143" y="525.7589">id : bigint</text><line style="stroke:#A80036;stroke-width:1.0;" x1="124" x2="278" y1="532.9819" y2="532.9819"/><ellipse cx="134" cy="543.9819" fill="#000000" rx="3" ry="3" style="stroke:#000000;stroke-width:1.0;"/><text fill="#000000" font-family="sans-serif" font-size="11" lengthAdjust="spacing" textLength="102" x="143" y="548.7408">name : varchar(255)</text><ellipse cx="134" cy="558.9638" fill="#000000" rx="3" ry="3" style="stroke:#000000;stroke-width:1.0;"/><text fill="#000000" font-family="sans-serif" font-size="11" lengthAdjust="spacing" textLength="130" x="143" y="563.7227">feed_name : varchar(255)</text><ellipse cx="134" cy="573.9457" fill="#000000" rx="3" ry="3" style="stroke:#000000;stroke-width:1.0;"/><text fill="#000000" font-family="sans-serif" font-size="11" lengthAdjust="spacing" textLength="130" x="143" y="578.7046">type_name : varchar(255)</text><ellipse cx="134" cy="588.9276" fill="#000000" rx="3" ry="3" style="stroke:#000000;stroke-width:1.0;"/><text fill="#000000" font-family="sans-serif" font-size="11" lengthAdjust="spacing" textLength="87" x="143" y="593.6865">byte_size : bigint</text><ellipse cx="134" cy="603.9094" fill="#000000" rx="3" ry="3" style="stroke:#000000;stroke-width:1.0;"/><text fill="#000000" font-family="sans-serif" font-size="11" lengthAdjust="spacing" textLength="105" x="143" y="608.6684">fk_source_id : bigint</text><ellipse cx="134" cy="618.8913" fill="#000000" rx="3" ry="3" style="stroke:#000000;stroke-width:1.0;"/><text fill="#000000" font-family="sans-serif" font-size="11" lengthAdjust="spacing" textLength="124" x="143" y="623.6502">fk_aggregate_id : bigint</text><ellipse cx="134" cy="633.8732" fill="#000000" rx="3" ry="3" style="stroke:#000000;stroke-width:1.0;"/><text fill="#000000" font-family="sans-serif" font-size="11" lengthAdjust="spacing" textLength="110" x="143" y="638.6321">new_position : bigint</text><!--MD5=[920d5660a06730163c0204a2780a33ae]
class source_entry--><rect codeLine="29" fill="#FEFECE" filter="url(#f1kvjl0d2bm2up)" height="122.9094" id="source_entry" style="stroke:#A80036;stroke-width:1.5;" width="159" x="121.5" y="706"/><ellipse cx="161.25" cy="722" fill="#ADD1B2" rx="11" ry="11" style="stroke:#A80036;stroke-width:1.0;"/><path d="M157.6094,728.5 L157.6094,716.3594 L165.2656,716.3594 L165.2656,718.4844 L159.9844,718.4844 L159.9844,721.1406 L165,721.1406 L165,723.2656 L159.9844,723.2656 L159.9844,726.375 L165.2656,726.375 L165.2656,728.5 L157.6094,728.5 Z " fill="#000000"/><text fill="#000000" font-family="sans-serif" font-size="12" lengthAdjust="spacing" textLength="72" x="180.75" y="726.656">source_entry</text><line style="stroke:#A80036;stroke-width:1.5;" x1="122.5" x2="279.5" y1="738" y2="738"/><ellipse cx="132.5" cy="749" fill="#000000" rx="3" ry="3" style="stroke:#000000;stroke-width:1.0;"/><text fill="#000000" font-family="sans-serif" font-size="11" lengthAdjust="spacing" textLength="50" x="141.5" y="753.7589">id : bigint</text><line style="stroke:#A80036;stroke-width:1.0;" x1="122.5" x2="279.5" y1="760.9819" y2="760.9819"/><ellipse cx="132.5" cy="771.9819" fill="#000000" rx="3" ry="3" style="stroke:#000000;stroke-width:1.0;"/><text fill="#000000" font-family="sans-serif" font-size="11" lengthAdjust="spacing" textLength="124" x="141.5" y="776.7408">extension : varchar(255)</text><ellipse cx="132.5" cy="786.9638" fill="#000000" rx="3" ry="3" style="stroke:#000000;stroke-width:1.0;"/><text fill="#000000" font-family="sans-serif" font-size="11" lengthAdjust="spacing" textLength="102" x="141.5" y="791.7227">extension_type : int</text><ellipse cx="132.5" cy="801.9457" fill="#000000" rx="3" ry="3" style="stroke:#000000;stroke-width:1.0;"/><text fill="#000000" font-family="sans-serif" font-size="11" lengthAdjust="spacing" textLength="87" x="141.5" y="806.7046">byte_size : bigint</text><ellipse cx="132.5" cy="816.9276" fill="#000000" rx="3" ry="3" style="stroke:#000000;stroke-width:1.0;"/><text fill="#000000" font-family="sans-serif" font-size="11" lengthAdjust="spacing" textLength="133" x="141.5" y="821.6865">fk_source_item_id : bigint</text><!--MD5=[1ef907470190a52481b72bc04299235e]
class aggregate--><rect codeLine="38" fill="#FEFECE" filter="url(#f1kvjl0d2bm2up)" height="167.8551" id="aggregate" style="stroke:#A80036;stroke-width:1.5;" width="156" x="226" y="250"/><ellipse cx="270.75" cy="266" fill="#ADD1B2" rx="11" ry="11" style="stroke:#A80036;stroke-width:1.0;"/><path d="M267.1094,272.5 L267.1094,260.3594 L274.7656,260.3594 L274.7656,262.4844 L269.4844,262.4844 L269.4844,265.1406 L274.5,265.1406 L274.5,267.2656 L269.4844,267.2656 L269.4844,270.375 L274.7656,270.375 L274.7656,272.5 L267.1094,272.5 Z " fill="#000000"/><text fill="#000000" font-family="sans-serif" font-size="12" lengthAdjust="spacing" textLength="58" x="291.25" y="270.656">aggregate</text><line style="stroke:#A80036;stroke-width:1.5;" x1="227" x2="381" y1="282" y2="282"/><ellipse cx="237" cy="293" fill="#000000" rx="3" ry="3" style="stroke:#000000;stroke-width:1.0;"/><text fill="#000000" font-family="sans-serif" font-size="11" lengthAdjust="spacing" textLength="50" x="246" y="297.7589">id : bigint</text><line style="stroke:#A80036;stroke-width:1.0;" x1="227" x2="381" y1="304.9819" y2="304.9819"/><ellipse cx="237" cy="315.9819" fill="#000000" rx="3" ry="3" style="stroke:#000000;stroke-width:1.0;"/><text fill="#000000" font-family="sans-serif" font-size="11" lengthAdjust="spacing" textLength="120" x="246" y="320.7408">create_time_ms : bigint</text><ellipse cx="237" cy="330.9638" fill="#000000" rx="3" ry="3" style="stroke:#000000;stroke-width:1.0;"/><text fill="#000000" font-family="sans-serif" font-size="11" lengthAdjust="spacing" textLength="130" x="246" y="335.7227">feed_name : varchar(255)</text><ellipse cx="237" cy="345.9457" fill="#000000" rx="3" ry="3" style="stroke:#000000;stroke-width:1.0;"/><text fill="#000000" font-family="sans-serif" font-size="11" lengthAdjust="spacing" textLength="130" x="246" y="350.7046">type_name : varchar(255)</text><ellipse cx="237" cy="360.9276" fill="#000000" rx="3" ry="3" style="stroke:#000000;stroke-width:1.0;"/><text fill="#000000" font-family="sans-serif" font-size="11" lengthAdjust="spacing" textLength="87" x="246" y="365.6865">byte_size : bigint</text><ellipse cx="237" cy="375.9094" fill="#000000" rx="3" ry="3" style="stroke:#000000;stroke-width:1.0;"/><text fill="#000000" font-family="sans-serif" font-size="11" lengthAdjust="spacing" textLength="51" x="246" y="380.6684">items : int</text><ellipse cx="237" cy="390.8913" fill="#000000" rx="3" ry="3" style="stroke:#000000;stroke-width:1.0;"/><text fill="#000000" font-family="sans-serif" font-size="11" lengthAdjust="spacing" textLength="100" x="246" y="395.6502">complete : boolean</text><ellipse cx="237" cy="405.8732" fill="#000000" rx="3" ry="3" style="stroke:#000000;stroke-width:1.0;"/><text fill="#000000" font-family="sans-serif" font-size="11" lengthAdjust="spacing" textLength="110" x="246" y="410.6321">new_position : bigint</text><!--MD5=[3cc1e4effaee23fb9097a8bf1d8fa0d4]
class forward_url--><rect codeLine="50" fill="#FEFECE" filter="url(#f1kvjl0d2bm2up)" height="77.9638" id="forward_url" style="stroke:#A80036;stroke-width:1.5;" width="114" x="417" y="295"/><ellipse cx="440.1" cy="311" fill="#ADD1B2" rx="11" ry="11" style="stroke:#A80036;stroke-width:1.0;"/><path d="M436.4594,317.5 L436.4594,305.3594 L444.1156,305.3594 L444.1156,307.4844 L438.8344,307.4844 L438.8344,310.1406 L443.85,310.1406 L443.85,312.2656 L438.8344,312.2656 L438.8344,315.375 L444.1156,315.375 L444.1156,317.5 L436.4594,317.5 Z " fill="#000000"/><text fill="#000000" font-family="sans-serif" font-size="12" lengthAdjust="spacing" textLength="64" x="455.9" y="315.656">forward_url</text><line style="stroke:#A80036;stroke-width:1.5;" x1="418" x2="530" y1="327" y2="327"/><ellipse cx="428" cy="338" fill="#000000" rx="3" ry="3" style="stroke:#000000;stroke-width:1.0;"/><text fill="#000000" font-family="sans-serif" font-size="11" lengthAdjust="spacing" textLength="33" x="437" y="342.7589">id : int</text><line style="stroke:#A80036;stroke-width:1.0;" x1="418" x2="530" y1="349.9819" y2="349.9819"/><ellipse cx="428" cy="360.9819" fill="#000000" rx="3" ry="3" style="stroke:#000000;stroke-width:1.0;"/><text fill="#000000" font-family="sans-serif" font-size="11" lengthAdjust="spacing" textLength="88" x="437" y="365.7408">url : varchar(255)</text><!--MD5=[d4f398bbc1193deb68c8428dcb929078]
class forward_aggregate--><rect codeLine="56" fill="#FEFECE" filter="url(#f1kvjl0d2bm2up)" height="182.837" id="forward_aggregate" style="stroke:#A80036;stroke-width:1.5;" width="151" x="313.5" y="7"/><ellipse cx="333.9" cy="23" fill="#ADD1B2" rx="11" ry="11" style="stroke:#A80036;stroke-width:1.0;"/><path d="M330.2594,29.5 L330.2594,17.3594 L337.9156,17.3594 L337.9156,19.4844 L332.6344,19.4844 L332.6344,22.1406 L337.65,22.1406 L337.65,24.2656 L332.6344,24.2656 L332.6344,27.375 L337.9156,27.375 L337.9156,29.5 L330.2594,29.5 Z " fill="#000000"/><text fill="#000000" font-family="sans-serif" font-size="12" lengthAdjust="spacing" textLength="107" x="349.1" y="27.656">forward_aggregate</text><line style="stroke:#A80036;stroke-width:1.5;" x1="314.5" x2="463.5" y1="39" y2="39"/><ellipse cx="324.5" cy="50" fill="#000000" rx="3" ry="3" style="stroke:#000000;stroke-width:1.0;"/><text fill="#000000" font-family="sans-serif" font-size="11" lengthAdjust="spacing" textLength="50" x="333.5" y="54.7589">id : bigint</text><line style="stroke:#A80036;stroke-width:1.0;" x1="314.5" x2="463.5" y1="61.9819" y2="61.9819"/><ellipse cx="324.5" cy="72.9819" fill="#000000" rx="3" ry="3" style="stroke:#000000;stroke-width:1.0;"/><text fill="#000000" font-family="sans-serif" font-size="11" lengthAdjust="spacing" textLength="125" x="333.5" y="77.7408">update_time_ms : bigint</text><ellipse cx="324.5" cy="87.9638" fill="#000000" rx="3" ry="3" style="stroke:#000000;stroke-width:1.0;"/><text fill="#000000" font-family="sans-serif" font-size="11" lengthAdjust="spacing" textLength="116" x="333.5" y="92.7227">fk_forward_url_id : int</text><ellipse cx="324.5" cy="102.9457" fill="#000000" rx="3" ry="3" style="stroke:#000000;stroke-width:1.0;"/><text fill="#000000" font-family="sans-serif" font-size="11" lengthAdjust="spacing" textLength="124" x="333.5" y="107.7046">fk_aggregate_id : bigint</text><ellipse cx="324.5" cy="117.9276" fill="#000000" rx="3" ry="3" style="stroke:#000000;stroke-width:1.0;"/><text fill="#000000" font-family="sans-serif" font-size="11" lengthAdjust="spacing" textLength="90" x="333.5" y="122.6865">success : boolean</text><ellipse cx="324.5" cy="132.9094" fill="#000000" rx="3" ry="3" style="stroke:#000000;stroke-width:1.0;"/><text fill="#000000" font-family="sans-serif" font-size="11" lengthAdjust="spacing" textLength="101" x="333.5" y="137.6684">error : varchar(255)</text><ellipse cx="324.5" cy="147.8913" fill="#000000" rx="3" ry="3" style="stroke:#000000;stroke-width:1.0;"/><text fill="#000000" font-family="sans-serif" font-size="11" lengthAdjust="spacing" textLength="63" x="333.5" y="152.6502">tries : bigint</text><ellipse cx="324.5" cy="162.8732" fill="#000000" rx="3" ry="3" style="stroke:#000000;stroke-width:1.0;"/><text fill="#000000" font-family="sans-serif" font-size="11" lengthAdjust="spacing" textLength="110" x="333.5" y="167.6321">new_position : bigint</text><ellipse cx="324.5" cy="177.8551" fill="#000000" rx="3" ry="3" style="stroke:#000000;stroke-width:1.0;"/><text fill="#000000" font-family="sans-serif" font-size="11" lengthAdjust="spacing" textLength="114" x="333.5" y="182.614">retry_position : bigint</text><!--MD5=[bde66a182555eb887059de8293221a83]
link source to source_item--><path codeLine="69" d="M157,426.25 C157,426.25 157,469.71 157,469.71 " fill="none" id="source-source_item" style="stroke:#A80036;stroke-width:1.0;stroke-dasharray:7.0,7.0;"/><line style="stroke:#A80036;stroke-width:1.0;" x1="157" x2="163" y1="469.71" y2="477.71"/><line style="stroke:#A80036;stroke-width:1.0;" x1="157" x2="151" y1="469.71" y2="477.71"/><line style="stroke:#A80036;stroke-width:1.0;" x1="157" x2="157" y1="469.71" y2="477.71"/><ellipse cx="157" cy="463.71" rx="4" ry="4" style="stroke:#A80036;stroke-width:1.0;fill:none;"/><line style="stroke:#A80036;stroke-width:1.0;fill:none;" x1="153" x2="161" y1="422.25" y2="422.25"/><line style="stroke:#A80036;stroke-width:1.0;fill:none;" x1="153" x2="161" y1="425.25" y2="425.25"/><line style="stroke:#A80036;stroke-width:1.0;fill:none;" x1="157" x2="157" y1="426.25" y2="418.25"/><!--MD5=[6610028f0c7a0554f2085ee3824405a3]
link source_item to source_entry--><path codeLine="70" d="M201,654.18 C201,654.18 201,697.79 201,697.79 " fill="none" id="source_item-source_entry" style="stroke:#A80036;stroke-width:1.0;"/><line style="stroke:#A80036;stroke-width:1.0;" x1="201" x2="207" y1="697.79" y2="705.79"/><line style="stroke:#A80036;stroke-width:1.0;" x1="201" x2="195" y1="697.79" y2="705.79"/><line style="stroke:#A80036;stroke-width:1.0;" x1="201" x2="201" y1="697.79" y2="705.79"/><line style="stroke:#A80036;stroke-width:1.0;" x1="205" x2="197" y1="695.79" y2="695.79"/><line style="stroke:#A80036;stroke-width:1.0;" x1="197" x2="205" y1="650.18" y2="650.18"/><line style="stroke:#A80036;stroke-width:1.0;" x1="197" x2="205" y1="653.18" y2="653.18"/><line style="stroke:#A80036;stroke-width:1.0;" x1="201" x2="201" y1="654.18" y2="646.18"/><!--MD5=[c19e3c6eb4e2962e1f79b15e01c56d18]
link aggregate to source_item--><path codeLine="71" d="M252.5,426.25 C252.5,426.25 252.5,469.71 252.5,469.71 " fill="none" id="aggregate-source_item" style="stroke:#A80036;stroke-width:1.0;"/><line style="stroke:#A80036;stroke-width:1.0;" x1="252.5" x2="258.5" y1="469.71" y2="477.71"/><line style="stroke:#A80036;stroke-width:1.0;" x1="252.5" x2="246.5" y1="469.71" y2="477.71"/><line style="stroke:#A80036;stroke-width:1.0;" x1="252.5" x2="252.5" y1="469.71" y2="477.71"/><line style="stroke:#A80036;stroke-width:1.0;" x1="256.5" x2="248.5" y1="467.71" y2="467.71"/><line style="stroke:#A80036;stroke-width:1.0;" x1="248.5" x2="256.5" y1="422.25" y2="422.25"/><line style="stroke:#A80036;stroke-width:1.0;" x1="248.5" x2="256.5" y1="425.25" y2="425.25"/><line style="stroke:#A80036;stroke-width:1.0;" x1="252.5" x2="252.5" y1="426.25" y2="418.25"/><!--MD5=[04d9ecdcc61a774a98679dad38ac2f3f]
link forward_aggregate to forward_url--><path codeLine="72" d="M440.75,198.22 C440.75,198.22 440.75,286.77 440.75,286.77 " fill="none" id="forward_aggregate-forward_url" style="stroke:#A80036;stroke-width:1.0;"/><line style="stroke:#A80036;stroke-width:1.0;" x1="444.75" x2="436.75" y1="290.77" y2="290.77"/><line style="stroke:#A80036;stroke-width:1.0;" x1="444.75" x2="436.75" y1="287.77" y2="287.77"/><line style="stroke:#A80036;stroke-width:1.0;" x1="440.75" x2="440.75" y1="286.77" y2="294.77"/><line style="stroke:#A80036;stroke-width:1.0;" x1="440.75" x2="434.75" y1="198.22" y2="190.22"/><line style="stroke:#A80036;stroke-width:1.0;" x1="440.75" x2="446.75" y1="198.22" y2="190.22"/><line style="stroke:#A80036;stroke-width:1.0;" x1="440.75" x2="440.75" y1="198.22" y2="190.22"/><ellipse cx="440.75" cy="204.22" rx="4" ry="4" style="stroke:#A80036;stroke-width:1.0;fill:none;"/><!--MD5=[0ac3d8377118ba1284c6e32a49f23729]
link forward_aggregate to aggregate--><path codeLine="73" d="M347.75,198.22 C347.75,198.22 347.75,241.83 347.75,241.83 " fill="none" id="forward_aggregate-aggregate" style="stroke:#A80036;stroke-width:1.0;"/><line style="stroke:#A80036;stroke-width:1.0;" x1="351.75" x2="343.75" y1="245.83" y2="245.83"/><line style="stroke:#A80036;stroke-width:1.0;" x1="351.75" x2="343.75" y1="242.83" y2="242.83"/><line style="stroke:#A80036;stroke-width:1.0;" x1="347.75" x2="347.75" y1="241.83" y2="249.83"/><line style="stroke:#A80036;stroke-width:1.0;" x1="347.75" x2="341.75" y1="198.22" y2="190.22"/><line style="stroke:#A80036;stroke-width:1.0;" x1="347.75" x2="353.75" y1="198.22" y2="190.22"/><line style="stroke:#A80036;stroke-width:1.0;" x1="347.75" x2="347.75" y1="198.22" y2="190.22"/><ellipse cx="347.75" cy="204.22" rx="4" ry="4" style="stroke:#A80036;stroke-width:1.0;fill:none;"/><!--MD5=[2790f5fff9511018258708dec9febe51]
@startuml

' avoid problems with angled crows feet
skinparam linetype ortho

entity source {
  *id : bigint
  - -
  *path : varchar(255) - unique
  *feed_name : varchar(255)
  *type_name : varchar(255)
  *last_modified_time_ms : bigint
  *examined : boolean
  *forwarded : boolean
  *new_position : bigint
}

entity source_item {
  *id : bigint
  - -
  *name : varchar(255)
  *feed_name : varchar(255)
  *type_name : varchar(255)
  *byte_size : bigint
  *fk_source_id : bigint
  *fk_aggregate_id : bigint
  *new_position : bigint
}

entity source_entry {
  *id : bigint
  - -
  *extension : varchar(255)
  *extension_type : int
  *byte_size : bigint
  *fk_source_item_id : bigint
}

entity aggregate {
  *id : bigint
  - -
  *create_time_ms : bigint
  *feed_name : varchar(255)
  *type_name : varchar(255)
  *byte_size : bigint
  *items : int
  *complete : boolean
  *new_position : bigint
}

entity forward_url {
  *id : int
  - -
  *url : varchar(255)
}

entity forward_aggregate {
  *id : bigint
  - -
  *update_time_ms : bigint
  *fk_forward_url_id : int
  *fk_aggregate_id : bigint
  *success : boolean
  *error : varchar(255)
  *tries : bigint
  *new_position : bigint
  *retry_position : bigint
}

source ||..o{ source_item
source_item ||- -|{ source_entry
aggregate ||- -|{ source_item
forward_aggregate }o- -|| forward_url
forward_aggregate }o- -|| aggregate

@enduml

@startuml

skinparam linetype ortho

entity source {
  *id : bigint
  - -
  *path : varchar(255) - unique
  *feed_name : varchar(255)
  *type_name : varchar(255)
  *last_modified_time_ms : bigint
  *examined : boolean
  *forwarded : boolean
  *new_position : bigint
}

entity source_item {
  *id : bigint
  - -
  *name : varchar(255)
  *feed_name : varchar(255)
  *type_name : varchar(255)
  *byte_size : bigint
  *fk_source_id : bigint
  *fk_aggregate_id : bigint
  *new_position : bigint
}

entity source_entry {
  *id : bigint
  - -
  *extension : varchar(255)
  *extension_type : int
  *byte_size : bigint
  *fk_source_item_id : bigint
}

entity aggregate {
  *id : bigint
  - -
  *create_time_ms : bigint
  *feed_name : varchar(255)
  *type_name : varchar(255)
  *byte_size : bigint
  *items : int
  *complete : boolean
  *new_position : bigint
}

entity forward_url {
  *id : int
  - -
  *url : varchar(255)
}

entity forward_aggregate {
  *id : bigint
  - -
  *update_time_ms : bigint
  *fk_forward_url_id : int
  *fk_aggregate_id : bigint
  *success : boolean
  *error : varchar(255)
  *tries : bigint
  *new_position : bigint
  *retry_position : bigint
}

source ||..o{ source_item
source_item ||- -|{ source_entry
aggregate ||- -|{ source_item
forward_aggregate }o- -|| forward_url
forward_aggregate }o- -|| aggregate

@enduml

PlantUML version 1.2021.16(Wed Dec 08 17:25:22 GMT 2021)
(GPL source distribution)
Java Runtime: OpenJDK Runtime Environment
JVM: OpenJDK 64-Bit Server VM
Default Encoding: UTF-8
Language: en
Country: GB
--></g></svg>