<?xml version="1.0" encoding="UTF-8" standalone="no"?><svg xmlns="http://www.w3.org/2000/svg" xmlns:xlink="http://www.w3.org/1999/xlink" contentScriptType="application/ecmascript" contentStyleType="text/css" height="343px" preserveAspectRatio="none" style="width:336px;height:343px;" version="1.1" viewBox="0 0 336 343" width="336px" zoomAndPan="magnify"><defs><filter height="300%" id="fmyl8r3v15snx" width="300%" x="-1" y="-1"><feGaussianBlur result="blurOut" stdDeviation="2.0"/><feColorMatrix in="blurOut" result="blurOut2" type="matrix" values="0 0 0 0 0 0 0 0 0 0 0 0 0 0 0 0 0 0 .4 0"/><feOffset dx="4.0" dy="4.0" in="blurOut2" result="blurOut3"/><feBlend in="SourceGraphic" in2="blurOut3" mode="normal"/></filter></defs><g><!--MD5=[fb94403e3d3521d383fd6507b67b3642]
class source--><rect codeLine="5" fill="#FEFECE" filter="url(#fmyl8r3v15snx)" height="150.4375" id="source" style="stroke:#A80036;stroke-width:1.5;" width="172" x="7" y="179"/><ellipse cx="70.25" cy="195" fill="#ADD1B2" rx="11" ry="11" style="stroke:#A80036;stroke-width:1.0;"/><path d="M73.2656,201 L66.2813,201 L66.2813,188.8594 L73.2656,188.8594 L73.2656,190.9688 L68.8438,190.9688 L68.8438,193.6406 L72.9531,193.6406 L72.9531,195.75 L68.8438,195.75 L68.8438,198.875 L73.2656,198.875 L73.2656,201 Z " fill="#000000"/><text fill="#000000" font-family="sans-serif" font-size="12" lengthAdjust="spacing" textLength="37" x="90.75" y="199.1543">source</text><line style="stroke:#A80036;stroke-width:1.5;" x1="8" x2="178" y1="211" y2="211"/><ellipse cx="18" cy="222" fill="#000000" rx="3" ry="3" style="stroke:#000000;stroke-width:1.0;"/><text fill="#000000" font-family="sans-serif" font-size="11" lengthAdjust="spacing" textLength="43" x="27" y="225.2104">id : bigint</text><line style="stroke:#A80036;stroke-width:1.0;" x1="8" x2="178" y1="231.8047" y2="231.8047"/><ellipse cx="18" cy="242.8047" fill="#000000" rx="3" ry="3" style="stroke:#000000;stroke-width:1.0;"/><text fill="#000000" font-family="sans-serif" font-size="11" lengthAdjust="spacing" textLength="134" x="27" y="246.0151">path : varchar(255) - unique</text><ellipse cx="18" cy="255.6094" fill="#000000" rx="3" ry="3" style="stroke:#000000;stroke-width:1.0;"/><text fill="#000000" font-family="sans-serif" font-size="11" lengthAdjust="spacing" textLength="125" x="27" y="258.8198">feed_name : varchar(255)</text><ellipse cx="18" cy="268.4141" fill="#000000" rx="3" ry="3" style="stroke:#000000;stroke-width:1.0;"/><text fill="#000000" font-family="sans-serif" font-size="11" lengthAdjust="spacing" textLength="125" x="27" y="271.6245">type_name : varchar(255)</text><ellipse cx="18" cy="281.2188" fill="#000000" rx="3" ry="3" style="stroke:#000000;stroke-width:1.0;"/><text fill="#000000" font-family="sans-serif" font-size="11" lengthAdjust="spacing" textLength="146" x="27" y="284.4292">last_modified_time_ms : bigint</text><text fill="#000000" font-family="sans-serif" font-size="11" lengthAdjust="spacing" textLength="95" x="27" y="297.2339">examined : boolean</text><ellipse cx="18" cy="306.8281" fill="#000000" rx="3" ry="3" style="stroke:#000000;stroke-width:1.0;"/><text fill="#000000" font-family="sans-serif" font-size="11" lengthAdjust="spacing" textLength="97" x="27" y="310.0386">forwarded : boolean</text><ellipse cx="18" cy="319.6328" fill="#000000" rx="3" ry="3" style="stroke:#000000;stroke-width:1.0;"/><text fill="#000000" font-family="sans-serif" font-size="11" lengthAdjust="spacing" textLength="114" x="27" y="322.8433">forward_error : boolean</text><!--MD5=[3cc1e4effaee23fb9097a8bf1d8fa0d4]
class forward_url--><rect codeLine="17" fill="#FEFECE" filter="url(#fmyl8r3v15snx)" height="73.6094" id="forward_url" style="stroke:#A80036;stroke-width:1.5;" width="108" x="214" y="217"/><ellipse cx="236.2" cy="233" fill="#ADD1B2" rx="11" ry="11" style="stroke:#A80036;stroke-width:1.0;"/><path d="M239.2156,239 L232.2313,239 L232.2313,226.8594 L239.2156,226.8594 L239.2156,228.9688 L234.7938,228.9688 L234.7938,231.6406 L238.9031,231.6406 L238.9031,233.75 L234.7938,233.75 L234.7938,236.875 L239.2156,236.875 L239.2156,239 Z " fill="#000000"/><text fill="#000000" font-family="sans-serif" font-size="12" lengthAdjust="spacing" textLength="60" x="251.8" y="237.1543">forward_url</text><line style="stroke:#A80036;stroke-width:1.5;" x1="215" x2="321" y1="249" y2="249"/><ellipse cx="225" cy="260" fill="#000000" rx="3" ry="3" style="stroke:#000000;stroke-width:1.0;"/><text fill="#000000" font-family="sans-serif" font-size="11" lengthAdjust="spacing" textLength="29" x="234" y="263.2104">id : int</text><line style="stroke:#A80036;stroke-width:1.0;" x1="215" x2="321" y1="269.8047" y2="269.8047"/><ellipse cx="225" cy="280.8047" fill="#000000" rx="3" ry="3" style="stroke:#000000;stroke-width:1.0;"/><text fill="#000000" font-family="sans-serif" font-size="11" lengthAdjust="spacing" textLength="82" x="234" y="284.0151">url : varchar(255)</text><!--MD5=[cbb12bc3eee1de79b3f2e300a168c511]
class forward_source--><rect codeLine="23" fill="#FEFECE" filter="url(#fmyl8r3v15snx)" height="112.0234" id="forward_source" style="stroke:#A80036;stroke-width:1.5;" width="129" x="115.5" y="7"/><ellipse cx="136.8" cy="23" fill="#ADD1B2" rx="11" ry="11" style="stroke:#A80036;stroke-width:1.0;"/><path d="M139.8156,29 L132.8313,29 L132.8313,16.8594 L139.8156,16.8594 L139.8156,18.9688 L135.3938,18.9688 L135.3938,21.6406 L139.5031,21.6406 L139.5031,23.75 L135.3938,23.75 L135.3938,26.875 L139.8156,26.875 L139.8156,29 Z " fill="#000000"/><text fill="#000000" font-family="sans-serif" font-size="12" lengthAdjust="spacing" textLength="83" x="152.2" y="27.1543">forward_source</text><line style="stroke:#A80036;stroke-width:1.5;" x1="116.5" x2="243.5" y1="39" y2="39"/><ellipse cx="126.5" cy="50" fill="#000000" rx="3" ry="3" style="stroke:#000000;stroke-width:1.0;"/><text fill="#000000" font-family="sans-serif" font-size="11" lengthAdjust="spacing" textLength="43" x="135.5" y="53.2104">id : bigint</text><line style="stroke:#A80036;stroke-width:1.0;" x1="116.5" x2="243.5" y1="59.8047" y2="59.8047"/><ellipse cx="126.5" cy="70.8047" fill="#000000" rx="3" ry="3" style="stroke:#000000;stroke-width:1.0;"/><text fill="#000000" font-family="sans-serif" font-size="11" lengthAdjust="spacing" textLength="103" x="135.5" y="74.0151">fk_forward_url_id : int</text><ellipse cx="126.5" cy="83.6094" fill="#000000" rx="3" ry="3" style="stroke:#000000;stroke-width:1.0;"/><text fill="#000000" font-family="sans-serif" font-size="11" lengthAdjust="spacing" textLength="94" x="135.5" y="86.8198">fk_source_id : bigint</text><ellipse cx="126.5" cy="96.4141" fill="#000000" rx="3" ry="3" style="stroke:#000000;stroke-width:1.0;"/><text fill="#000000" font-family="sans-serif" font-size="11" lengthAdjust="spacing" textLength="84" x="135.5" y="99.6245">success : boolean</text><ellipse cx="126.5" cy="109.2188" fill="#000000" rx="3" ry="3" style="stroke:#000000;stroke-width:1.0;"/><text fill="#000000" font-family="sans-serif" font-size="11" lengthAdjust="spacing" textLength="94" x="135.5" y="112.4292">error : varchar(255)</text><!--MD5=[237522a801e7bb9308fa36e58d02c106]
link forward_source to forward_url--><path codeLine="32" d="M229.25,127.02 C229.25,127.02 229.25,208.72 229.25,208.72 " fill="none" id="forward_source-forward_url" style="stroke:#A80036;stroke-width:1.0;"/><line style="stroke:#A80036;stroke-width:1.0;" x1="233.25" x2="225.25" y1="212.72" y2="212.72"/><line style="stroke:#A80036;stroke-width:1.0;" x1="233.25" x2="225.25" y1="209.72" y2="209.72"/><line style="stroke:#A80036;stroke-width:1.0;" x1="229.25" x2="229.25" y1="208.72" y2="216.72"/><line style="stroke:#A80036;stroke-width:1.0;" x1="229.25" x2="223.25" y1="127.02" y2="119.02"/><line style="stroke:#A80036;stroke-width:1.0;" x1="229.25" x2="235.25" y1="127.02" y2="119.02"/><line style="stroke:#A80036;stroke-width:1.0;" x1="229.25" x2="229.25" y1="127.02" y2="119.02"/><ellipse cx="229.25" cy="133.02" rx="4" ry="4" style="stroke:#A80036;stroke-width:1.0;fill:none;"/><!--MD5=[d49f4a8229bc31f1f5d61244df6e6e3c]
link forward_source to source--><path codeLine="33" d="M147.25,127.02 C147.25,127.02 147.25,170.83 147.25,170.83 " fill="none" id="forward_source-source" style="stroke:#A80036;stroke-width:1.0;stroke-dasharray:7.0,7.0;"/><line style="stroke:#A80036;stroke-width:1.0;" x1="151.25" x2="143.25" y1="174.83" y2="174.83"/><line style="stroke:#A80036;stroke-width:1.0;" x1="151.25" x2="143.25" y1="171.83" y2="171.83"/><line style="stroke:#A80036;stroke-width:1.0;" x1="147.25" x2="147.25" y1="170.83" y2="178.83"/><line style="stroke:#A80036;stroke-width:1.0;" x1="147.25" x2="141.25" y1="127.02" y2="119.02"/><line style="stroke:#A80036;stroke-width:1.0;" x1="147.25" x2="153.25" y1="127.02" y2="119.02"/><line style="stroke:#A80036;stroke-width:1.0;" x1="147.25" x2="147.25" y1="127.02" y2="119.02"/><ellipse cx="147.25" cy="133.02" rx="4" ry="4" style="stroke:#A80036;stroke-width:1.0;fill:none;"/><!--MD5=[4475ee4bfab05667dc03b5acbb28d691]
@startuml

' avoid problems with angled crows feet
skinparam linetype ortho

entity source {
  *id : bigint
  - -
  *path : varchar(255) - unique
  *feed_name : varchar(255)
  *type_name : varchar(255)
  *last_modified_time_ms : bigint
  examined : boolean
  *forwarded : boolean
  *forward_error : boolean
}

entity forward_url {
  *id : int
  - -
  *url : varchar(255)
}

entity forward_source {
  *id : bigint
  - -
  *fk_forward_url_id : int
  *fk_source_id : bigint
  *success : boolean
  *error : varchar(255)
}

forward_source }o- -|| forward_url
forward_source }o..|| source

@enduml

@startuml

skinparam linetype ortho

entity source {
  *id : bigint
  - -
  *path : varchar(255) - unique
  *feed_name : varchar(255)
  *type_name : varchar(255)
  *last_modified_time_ms : bigint
  examined : boolean
  *forwarded : boolean
  *forward_error : boolean
}

entity forward_url {
  *id : int
  - -
  *url : varchar(255)
}

entity forward_source {
  *id : bigint
  - -
  *fk_forward_url_id : int
  *fk_source_id : bigint
  *success : boolean
  *error : varchar(255)
}

forward_source }o- -|| forward_url
forward_source }o..|| source

@enduml

PlantUML version 1.2021.5(Sun Apr 25 11:20:28 GMT 2021)
(GPL source distribution)
Java Runtime: OpenJDK Runtime Environment
JVM: OpenJDK 64-Bit Server VM
Default Encoding: UTF-8
Language: en
Country: GB
--></g></svg>