<?xml version="1.0" encoding="us-ascii" standalone="no"?><svg xmlns="http://www.w3.org/2000/svg" xmlns:xlink="http://www.w3.org/1999/xlink" contentStyleType="text/css" height="414px" preserveAspectRatio="none" style="width:419px;height:414px;background:#FFFFFF;" version="1.1" viewBox="0 0 419 414" width="419px" zoomAndPan="magnify"><defs/><g><!--class feed--><g id="elem_feed"><rect codeLine="5" fill="#F1F1F1" height="96.8906" id="feed" rx="2.5" ry="2.5" style="stroke:#181818;stroke-width:0.5;" width="186" x="11.5" y="56"/><ellipse cx="86.25" cy="72" fill="#ADD1B2" rx="11" ry="11" style="stroke:#181818;stroke-width:1.0;"/><path d="M89.2656,78 L82.2813,78 L82.2813,65.8594 L89.2656,65.8594 L89.2656,67.9688 L84.8438,67.9688 L84.8438,70.6406 L88.9531,70.6406 L88.9531,72.75 L84.8438,72.75 L84.8438,75.875 L89.2656,75.875 L89.2656,78 Z " fill="#000000"/><text fill="#000000" font-family="sans-serif" font-size="14" lengthAdjust="spacing" textLength="28" x="106.75" y="76.8467">feed</text><line style="stroke:#181818;stroke-width:0.5;" x1="12.5" x2="196.5" y1="88" y2="88"/><ellipse cx="22.5" cy="101.6484" fill="#000000" rx="3" ry="3" style="stroke:#000000;stroke-width:1.0;"/><text fill="#000000" font-family="sans-serif" font-size="14" lengthAdjust="spacing" textLength="60" x="31.5" y="104.9951">id : bigint</text><line style="stroke:#181818;stroke-width:1.0;" x1="12.5" x2="196.5" y1="112.2969" y2="112.2969"/><ellipse cx="22.5" cy="125.9453" fill="#000000" rx="3" ry="3" style="stroke:#000000;stroke-width:1.0;"/><text fill="#000000" font-family="sans-serif" font-size="14" lengthAdjust="spacing" textLength="160" x="31.5" y="129.292">feed_name : varchar(255)</text><ellipse cx="22.5" cy="142.2422" fill="#000000" rx="3" ry="3" style="stroke:#000000;stroke-width:1.0;"/><text fill="#000000" font-family="sans-serif" font-size="14" lengthAdjust="spacing" textLength="160" x="31.5" y="145.5889">type_name : varchar(255)</text></g><!--class source--><g id="elem_source"><rect codeLine="12" fill="#F1F1F1" height="145.7813" id="source" rx="2.5" ry="2.5" style="stroke:#181818;stroke-width:0.5;" width="201" x="7" y="262"/><ellipse cx="81.75" cy="278" fill="#ADD1B2" rx="11" ry="11" style="stroke:#181818;stroke-width:1.0;"/><path d="M84.7656,284 L77.7813,284 L77.7813,271.8594 L84.7656,271.8594 L84.7656,273.9688 L80.3438,273.9688 L80.3438,276.6406 L84.4531,276.6406 L84.4531,278.75 L80.3438,278.75 L80.3438,281.875 L84.7656,281.875 L84.7656,284 Z " fill="#000000"/><text fill="#000000" font-family="sans-serif" font-size="14" lengthAdjust="spacing" textLength="43" x="102.25" y="282.8467">source</text><line style="stroke:#181818;stroke-width:0.5;" x1="8" x2="207" y1="294" y2="294"/><ellipse cx="18" cy="307.6484" fill="#000000" rx="3" ry="3" style="stroke:#000000;stroke-width:1.0;"/><text fill="#000000" font-family="sans-serif" font-size="14" lengthAdjust="spacing" textLength="60" x="27" y="310.9951">id : bigint</text><line style="stroke:#181818;stroke-width:1.0;" x1="8" x2="207" y1="318.2969" y2="318.2969"/><ellipse cx="18" cy="331.9453" fill="#000000" rx="3" ry="3" style="stroke:#000000;stroke-width:1.0;"/><text fill="#000000" font-family="sans-serif" font-size="14" lengthAdjust="spacing" textLength="175" x="27" y="335.292">path : varchar(255) - unique</text><ellipse cx="18" cy="348.2422" fill="#000000" rx="3" ry="3" style="stroke:#000000;stroke-width:1.0;"/><text fill="#000000" font-family="sans-serif" font-size="14" lengthAdjust="spacing" textLength="111" x="27" y="351.5889">fk_feed_id : bigint</text><text fill="#000000" font-family="sans-serif" font-size="14" lengthAdjust="spacing" textLength="126" x="27" y="367.8857">examined : boolean</text><ellipse cx="18" cy="380.8359" fill="#000000" rx="3" ry="3" style="stroke:#000000;stroke-width:1.0;"/><text fill="#000000" font-family="sans-serif" font-size="14" lengthAdjust="spacing" textLength="129" x="27" y="384.1826">item_count : integer</text><ellipse cx="18" cy="397.1328" fill="#000000" rx="3" ry="3" style="stroke:#000000;stroke-width:1.0;"/><text fill="#000000" font-family="sans-serif" font-size="14" lengthAdjust="spacing" textLength="132" x="27" y="400.4795">new_position : bigint</text></g><!--class forward_dest--><g id="elem_forward_dest"><rect codeLine="22" fill="#F1F1F1" height="80.5938" id="forward_dest" rx="2.5" ry="2.5" style="stroke:#181818;stroke-width:0.5;" width="152" x="246.5" y="294.5"/><ellipse cx="279.05" cy="310.5" fill="#ADD1B2" rx="11" ry="11" style="stroke:#181818;stroke-width:1.0;"/><path d="M282.0656,316.5 L275.0813,316.5 L275.0813,304.3594 L282.0656,304.3594 L282.0656,306.4688 L277.6438,306.4688 L277.6438,309.1406 L281.7531,309.1406 L281.7531,311.25 L277.6438,311.25 L277.6438,314.375 L282.0656,314.375 L282.0656,316.5 Z " fill="#000000"/><text fill="#000000" font-family="sans-serif" font-size="14" lengthAdjust="spacing" textLength="81" x="296.95" y="315.3467">forward_dest</text><line style="stroke:#181818;stroke-width:0.5;" x1="247.5" x2="397.5" y1="326.5" y2="326.5"/><ellipse cx="257.5" cy="340.1484" fill="#000000" rx="3" ry="3" style="stroke:#000000;stroke-width:1.0;"/><text fill="#000000" font-family="sans-serif" font-size="14" lengthAdjust="spacing" textLength="41" x="266.5" y="343.4951">id : int</text><line style="stroke:#181818;stroke-width:1.0;" x1="247.5" x2="397.5" y1="350.7969" y2="350.7969"/><ellipse cx="257.5" cy="364.4453" fill="#000000" rx="3" ry="3" style="stroke:#000000;stroke-width:1.0;"/><text fill="#000000" font-family="sans-serif" font-size="14" lengthAdjust="spacing" textLength="126" x="266.5" y="367.792">name : varchar(255)</text></g><!--class forward_source--><g id="elem_forward_source"><rect codeLine="28" fill="#F1F1F1" height="194.6719" id="forward_source" rx="2.5" ry="2.5" style="stroke:#181818;stroke-width:0.5;" width="180" x="232.5" y="7"/><ellipse cx="270.9" cy="23" fill="#ADD1B2" rx="11" ry="11" style="stroke:#181818;stroke-width:1.0;"/><path d="M273.9156,29 L266.9313,29 L266.9313,16.8594 L273.9156,16.8594 L273.9156,18.9688 L269.4938,18.9688 L269.4938,21.6406 L273.6031,21.6406 L273.6031,23.75 L269.4938,23.75 L269.4938,26.875 L273.9156,26.875 L273.9156,29 Z " fill="#000000"/><text fill="#000000" font-family="sans-serif" font-size="14" lengthAdjust="spacing" textLength="96" x="290.1" y="27.8467">forward_source</text><line style="stroke:#181818;stroke-width:0.5;" x1="233.5" x2="411.5" y1="39" y2="39"/><ellipse cx="243.5" cy="52.6484" fill="#000000" rx="3" ry="3" style="stroke:#000000;stroke-width:1.0;"/><text fill="#000000" font-family="sans-serif" font-size="14" lengthAdjust="spacing" textLength="60" x="252.5" y="55.9951">id : bigint</text><line style="stroke:#181818;stroke-width:1.0;" x1="233.5" x2="411.5" y1="63.2969" y2="63.2969"/><ellipse cx="243.5" cy="76.9453" fill="#000000" rx="3" ry="3" style="stroke:#000000;stroke-width:1.0;"/><text fill="#000000" font-family="sans-serif" font-size="14" lengthAdjust="spacing" textLength="154" x="252.5" y="80.292">update_time_ms : bigint</text><ellipse cx="243.5" cy="93.2422" fill="#000000" rx="3" ry="3" style="stroke:#000000;stroke-width:1.0;"/><text fill="#000000" font-family="sans-serif" font-size="14" lengthAdjust="spacing" textLength="145" x="252.5" y="96.5889">fk_forward_dest_id : int</text><ellipse cx="243.5" cy="109.5391" fill="#000000" rx="3" ry="3" style="stroke:#000000;stroke-width:1.0;"/><text fill="#000000" font-family="sans-serif" font-size="14" lengthAdjust="spacing" textLength="126" x="252.5" y="112.8857">fk_source_id : bigint</text><ellipse cx="243.5" cy="125.8359" fill="#000000" rx="3" ry="3" style="stroke:#000000;stroke-width:1.0;"/><text fill="#000000" font-family="sans-serif" font-size="14" lengthAdjust="spacing" textLength="114" x="252.5" y="129.1826">success : boolean</text><ellipse cx="243.5" cy="142.1328" fill="#000000" rx="3" ry="3" style="stroke:#000000;stroke-width:1.0;"/><text fill="#000000" font-family="sans-serif" font-size="14" lengthAdjust="spacing" textLength="121" x="252.5" y="145.4795">error : varchar(255)</text><ellipse cx="243.5" cy="158.4297" fill="#000000" rx="3" ry="3" style="stroke:#000000;stroke-width:1.0;"/><text fill="#000000" font-family="sans-serif" font-size="14" lengthAdjust="spacing" textLength="77" x="252.5" y="161.7764">tries : bigint</text><ellipse cx="243.5" cy="174.7266" fill="#000000" rx="3" ry="3" style="stroke:#000000;stroke-width:1.0;"/><text fill="#000000" font-family="sans-serif" font-size="14" lengthAdjust="spacing" textLength="132" x="252.5" y="178.0732">new_position : bigint</text><ellipse cx="243.5" cy="191.0234" fill="#000000" rx="3" ry="3" style="stroke:#000000;stroke-width:1.0;"/><text fill="#000000" font-family="sans-serif" font-size="14" lengthAdjust="spacing" textLength="136" x="252.5" y="194.3701">retry_position : bigint</text></g><!--link feed to source--><g id="link_feed_source"><path codeLine="41" d="M104.5,161.1 C104.5,161.1 104.5,253.93 104.5,253.93 " fill="none" id="feed-source" style="stroke:#181818;stroke-width:1.0;"/><line style="stroke:#181818;stroke-width:1.0;" x1="100.5" x2="108.5" y1="157.1" y2="157.1"/><line style="stroke:#181818;stroke-width:1.0;" x1="100.5" x2="108.5" y1="160.1" y2="160.1"/><line style="stroke:#181818;stroke-width:1.0;" x1="104.5" x2="104.5" y1="161.1" y2="153.1"/><line style="stroke:#181818;stroke-width:1.0;" x1="104.5" x2="110.5" y1="253.93" y2="261.93"/><line style="stroke:#181818;stroke-width:1.0;" x1="104.5" x2="98.5" y1="253.93" y2="261.93"/><line style="stroke:#181818;stroke-width:1.0;" x1="104.5" x2="104.5" y1="253.93" y2="261.93"/><line style="stroke:#181818;stroke-width:1.0;" x1="108.5" x2="100.5" y1="251.93" y2="251.93"/></g><!--link forward_source to forward_dest--><g id="link_forward_source_forward_dest"><path codeLine="43" d="M322.5,210.25 C322.5,210.25 322.5,286.25 322.5,286.25 " fill="none" id="forward_source-forward_dest" style="stroke:#181818;stroke-width:1.0;"/><line style="stroke:#181818;stroke-width:1.0;" x1="322.5" x2="316.5" y1="210.25" y2="202.25"/><line style="stroke:#181818;stroke-width:1.0;" x1="322.5" x2="328.5" y1="210.25" y2="202.25"/><line style="stroke:#181818;stroke-width:1.0;" x1="322.5" x2="322.5" y1="210.25" y2="202.25"/><ellipse cx="322.5" cy="216.25" fill="none" rx="4" ry="4" style="stroke:#181818;stroke-width:1.0;"/><line style="stroke:#181818;stroke-width:1.0;" x1="326.5" x2="318.5" y1="290.25" y2="290.25"/><line style="stroke:#181818;stroke-width:1.0;" x1="326.5" x2="318.5" y1="287.25" y2="287.25"/><line style="stroke:#181818;stroke-width:1.0;" x1="322.5" x2="322.5" y1="286.25" y2="294.25"/></g><!--link forward_source to source--><g id="link_forward_source_source"><path codeLine="44" d="M239.5,210.21 C239.5,210.21 239.5,279 239.5,279 C239.5,279 216.22,279 216.22,279 " fill="none" id="forward_source-source" style="stroke:#181818;stroke-width:1.0;stroke-dasharray:7.0,7.0;"/><line style="stroke:#181818;stroke-width:1.0;" x1="239.5" x2="233.5" y1="210.21" y2="202.21"/><line style="stroke:#181818;stroke-width:1.0;" x1="239.5" x2="245.5" y1="210.21" y2="202.21"/><line style="stroke:#181818;stroke-width:1.0;" x1="239.5" x2="239.5" y1="210.21" y2="202.21"/><ellipse cx="239.5" cy="216.21" fill="none" rx="4" ry="4" style="stroke:#181818;stroke-width:1.0;"/><line style="stroke:#181818;stroke-width:1.0;" x1="212.22" x2="212.22" y1="283" y2="275"/><line style="stroke:#181818;stroke-width:1.0;" x1="215.22" x2="215.22" y1="283" y2="275"/><line style="stroke:#181818;stroke-width:1.0;" x1="216.22" x2="208.22" y1="279" y2="279"/></g><!--SRC=[XL91KiCm3Bpd5Re1dKaFpFJ2PpnghAQU9bQGvOPCqxzZXq8J273qhhpUNVa1yCpEGYUyRwWDq3iz0lgw8GkLS1_WGAH5E3dVeM0BZVEaGqV0eaSk2lBgTCXJ5Yu5m2QflS3UrSvhEfPbnZ9hFBQKg3DATKHvVDxjdZANnLQvwvTuu2WL_IxVOJAzl0qbHEzU8qtFdypaO7cNth1DOIQCkI7qaxvIQogENXEU1gacoRYdtdGSd3hsTvMxnmDBZsADfQ0pftERVuVy5FWlREmiAXbrBPcqi1a_vPpPC3C7cVjG_jR29iIgeX2MBP08ozgonD7opVLU4Y6aCgnNDdsMSIpByNBRRSAMyQ-Ss77Hwi-HxJQDt0JU0G00]--></g></svg>