<?xml version="1.0" encoding="UTF-8" standalone="no"?><svg xmlns="http://www.w3.org/2000/svg" xmlns:xlink="http://www.w3.org/1999/xlink" contentScriptType="application/ecmascript" contentStyleType="text/css" height="344px" preserveAspectRatio="none" style="width:499px;height:344px;" version="1.1" viewBox="0 0 499 344" width="499px" zoomAndPan="magnify"><defs><filter height="300%" id="f1s2w9hyfl3gdl" width="300%" x="-1" y="-1"><feGaussianBlur result="blurOut" stdDeviation="2.0"/><feColorMatrix in="blurOut" result="blurOut2" type="matrix" values="0 0 0 0 0 0 0 0 0 0 0 0 0 0 0 0 0 0 .4 0"/><feOffset dx="4.0" dy="4.0" in="blurOut2" result="blurOut3"/><feBlend in="SourceGraphic" in2="blurOut3" mode="normal"/></filter></defs><g><text fill="#000000" font-family="sans-serif" font-size="18" lengthAdjust="spacing" textLength="111" x="196" y="28.708">Forward Only</text><line style="stroke:#A80036;stroke-width:1.0;stroke-dasharray:5.0,5.0;" x1="34" x2="34" y1="123.25" y2="259.7813"/><line style="stroke:#A80036;stroke-width:1.0;stroke-dasharray:5.0,5.0;" x1="150" x2="150" y1="123.25" y2="259.7813"/><line style="stroke:#A80036;stroke-width:1.0;stroke-dasharray:5.0,5.0;" x1="323" x2="323" y1="123.25" y2="259.7813"/><line style="stroke:#A80036;stroke-width:1.0;stroke-dasharray:5.0,5.0;" x1="458" x2="458" y1="123.25" y2="259.7813"/><text fill="#000000" font-family="sans-serif" font-size="14" lengthAdjust="spacing" textLength="52" x="5" y="119.9482">Supplier</text><ellipse cx="34" cy="49.9531" fill="#FEFECE" filter="url(#f1s2w9hyfl3gdl)" rx="8" ry="8" style="stroke:#A80036;stroke-width:2.0;"/><path d="M34,57.9531 L34,84.9531 M21,65.9531 L47,65.9531 M34,84.9531 L21,99.9531 M34,84.9531 L47,99.9531 " fill="none" filter="url(#f1s2w9hyfl3gdl)" style="stroke:#A80036;stroke-width:2.0;"/><text fill="#000000" font-family="sans-serif" font-size="14" lengthAdjust="spacing" textLength="52" x="5" y="271.7764">Supplier</text><ellipse cx="34" cy="285.0781" fill="#FEFECE" filter="url(#f1s2w9hyfl3gdl)" rx="8" ry="8" style="stroke:#A80036;stroke-width:2.0;"/><path d="M34,293.0781 L34,320.0781 M21,301.0781 L47,301.0781 M34,320.0781 L21,335.0781 M34,320.0781 L47,335.0781 " fill="none" filter="url(#f1s2w9hyfl3gdl)" style="stroke:#A80036;stroke-width:2.0;"/><rect fill="#FEFECE" filter="url(#f1s2w9hyfl3gdl)" height="30.2969" style="stroke:#A80036;stroke-width:1.5;" width="151" x="73" y="87.9531"/><text fill="#000000" font-family="sans-serif" font-size="14" lengthAdjust="spacing" textLength="137" x="80" y="107.9482">ProxyRequestHandler</text><rect fill="#FEFECE" filter="url(#f1s2w9hyfl3gdl)" height="30.2969" style="stroke:#A80036;stroke-width:1.5;" width="151" x="73" y="258.7813"/><text fill="#000000" font-family="sans-serif" font-size="14" lengthAdjust="spacing" textLength="137" x="80" y="278.7764">ProxyRequestHandler</text><rect fill="#FEFECE" filter="url(#f1s2w9hyfl3gdl)" height="30.2969" style="stroke:#A80036;stroke-width:1.5;" width="166" x="238" y="87.9531"/><text fill="#000000" font-family="sans-serif" font-size="14" lengthAdjust="spacing" textLength="152" x="245" y="107.9482">ForwardStreamHandlers</text><rect fill="#FEFECE" filter="url(#f1s2w9hyfl3gdl)" height="30.2969" style="stroke:#A80036;stroke-width:1.5;" width="166" x="238" y="258.7813"/><text fill="#000000" font-family="sans-serif" font-size="14" lengthAdjust="spacing" textLength="152" x="245" y="278.7764">ForwardStreamHandlers</text><text fill="#000000" font-family="sans-serif" font-size="14" lengthAdjust="spacing" textLength="74" x="418" y="119.9482">Destination</text><ellipse cx="458" cy="49.9531" fill="#FEFECE" filter="url(#f1s2w9hyfl3gdl)" rx="8" ry="8" style="stroke:#A80036;stroke-width:2.0;"/><path d="M458,57.9531 L458,84.9531 M445,65.9531 L471,65.9531 M458,84.9531 L445,99.9531 M458,84.9531 L471,99.9531 " fill="none" filter="url(#f1s2w9hyfl3gdl)" style="stroke:#A80036;stroke-width:2.0;"/><text fill="#000000" font-family="sans-serif" font-size="14" lengthAdjust="spacing" textLength="74" x="418" y="271.7764">Destination</text><ellipse cx="458" cy="285.0781" fill="#FEFECE" filter="url(#f1s2w9hyfl3gdl)" rx="8" ry="8" style="stroke:#A80036;stroke-width:2.0;"/><path d="M458,293.0781 L458,320.0781 M445,301.0781 L471,301.0781 M458,320.0781 L445,335.0781 M458,320.0781 L471,335.0781 " fill="none" filter="url(#f1s2w9hyfl3gdl)" style="stroke:#A80036;stroke-width:2.0;"/><polygon fill="#A80036" points="138.5,150.3828,148.5,154.3828,138.5,158.3828,142.5,154.3828" style="stroke:#A80036;stroke-width:1.0;"/><line style="stroke:#A80036;stroke-width:1.0;stroke-dasharray:2.0,2.0;" x1="34" x2="144.5" y1="154.3828" y2="154.3828"/><text fill="#000000" font-family="sans-serif" font-size="13" lengthAdjust="spacing" textLength="64" x="41" y="149.3169">HTTP POST</text><polygon fill="#A80036" points="311,179.5156,321,183.5156,311,187.5156,315,183.5156" style="stroke:#A80036;stroke-width:1.0;"/><line style="stroke:#A80036;stroke-width:1.0;" x1="150.5" x2="317" y1="183.5156" y2="183.5156"/><text fill="#000000" font-family="sans-serif" font-size="13" lengthAdjust="spacing" textLength="41" x="157.5" y="178.4497">handle</text><polygon fill="#A80036" points="446,208.6484,456,212.6484,446,216.6484,450,212.6484" style="stroke:#A80036;stroke-width:1.0;"/><line style="stroke:#A80036;stroke-width:1.0;stroke-dasharray:2.0,2.0;" x1="323" x2="452" y1="212.6484" y2="212.6484"/><text fill="#000000" font-family="sans-serif" font-size="13" lengthAdjust="spacing" textLength="41" x="330" y="207.5825">handle</text><polygon fill="#A80036" points="45,237.7813,35,241.7813,45,245.7813,41,241.7813" style="stroke:#A80036;stroke-width:1.0;"/><line style="stroke:#A80036;stroke-width:1.0;stroke-dasharray:2.0,2.0;" x1="39" x2="149.5" y1="241.7813" y2="241.7813"/><text fill="#000000" font-family="sans-serif" font-size="13" lengthAdjust="spacing" textLength="82" x="51" y="236.7153">200 Response</text><!--MD5=[ba79531b472558e5631f30a33306944e]
@startuml

title Forward Only

actor Supplier
participant ProxyRequestHandler
participant ForwardStreamHandlers
actor Destination

Supplier - -> ProxyRequestHandler: HTTP POST
ProxyRequestHandler -> ForwardStreamHandlers: handle
ForwardStreamHandlers - -> Destination: handle
ProxyRequestHandler - -> Supplier: 200 Response


@enduml

PlantUML version 1.2021.5(Sun Apr 25 11:20:28 GMT 2021)
(GPL source distribution)
Java Runtime: OpenJDK Runtime Environment
JVM: OpenJDK 64-Bit Server VM
Default Encoding: UTF-8
Language: en
Country: GB
--></g></svg>