<?xml version="1.0" encoding="UTF-8" standalone="no"?><svg xmlns="http://www.w3.org/2000/svg" xmlns:xlink="http://www.w3.org/1999/xlink" contentScriptType="application/ecmascript" contentStyleType="text/css" height="752px" preserveAspectRatio="none" style="width:586px;height:752px;" version="1.1" viewBox="0 0 586 752" width="586px" zoomAndPan="magnify"><defs><filter height="300%" id="f3ogtbe2k9k6o" width="300%" x="-1" y="-1"><feGaussianBlur result="blurOut" stdDeviation="2.0"/><feColorMatrix in="blurOut" result="blurOut2" type="matrix" values="0 0 0 0 0 0 0 0 0 0 0 0 0 0 0 0 0 0 .4 0"/><feOffset dx="4.0" dy="4.0" in="blurOut2" result="blurOut3"/><feBlend in="SourceGraphic" in2="blurOut3" mode="normal"/></filter></defs><g><!--MD5=[a89e013394a4179b87aacb584f03bea5]
class feed--><rect codeLine="5" fill="#FEFECE" filter="url(#f3ogtbe2k9k6o)" height="86.4141" id="feed" style="stroke:#A80036;stroke-width:1.5;" width="151" x="144.5" y="45.5"/><ellipse cx="203.75" cy="61.5" fill="#ADD1B2" rx="11" ry="11" style="stroke:#A80036;stroke-width:1.0;"/><path d="M206.7656,67.5 L199.7813,67.5 L199.7813,55.3594 L206.7656,55.3594 L206.7656,57.4688 L202.3438,57.4688 L202.3438,60.1406 L206.4531,60.1406 L206.4531,62.25 L202.3438,62.25 L202.3438,65.375 L206.7656,65.375 L206.7656,67.5 Z " fill="#000000"/><text fill="#000000" font-family="sans-serif" font-size="12" lengthAdjust="spacing" textLength="24" x="224.25" y="65.6543">feed</text><line style="stroke:#A80036;stroke-width:1.5;" x1="145.5" x2="294.5" y1="77.5" y2="77.5"/><ellipse cx="155.5" cy="88.5" fill="#000000" rx="3" ry="3" style="stroke:#000000;stroke-width:1.0;"/><text fill="#000000" font-family="sans-serif" font-size="11" lengthAdjust="spacing" textLength="43" x="164.5" y="91.7104">id : bigint</text><line style="stroke:#A80036;stroke-width:1.0;" x1="145.5" x2="294.5" y1="98.3047" y2="98.3047"/><ellipse cx="155.5" cy="109.3047" fill="#000000" rx="3" ry="3" style="stroke:#000000;stroke-width:1.0;"/><text fill="#000000" font-family="sans-serif" font-size="11" lengthAdjust="spacing" textLength="125" x="164.5" y="112.5151">feed_name : varchar(255)</text><ellipse cx="155.5" cy="122.1094" fill="#000000" rx="3" ry="3" style="stroke:#000000;stroke-width:1.0;"/><text fill="#000000" font-family="sans-serif" font-size="11" lengthAdjust="spacing" textLength="125" x="164.5" y="125.3198">type_name : varchar(255)</text><!--MD5=[fb94403e3d3521d383fd6507b67b3642]
class source--><rect codeLine="12" fill="#FEFECE" filter="url(#f3ogtbe2k9k6o)" height="124.8281" id="source" style="stroke:#A80036;stroke-width:1.5;" width="160" x="7" y="236.5"/><ellipse cx="64.25" cy="252.5" fill="#ADD1B2" rx="11" ry="11" style="stroke:#A80036;stroke-width:1.0;"/><path d="M67.2656,258.5 L60.2813,258.5 L60.2813,246.3594 L67.2656,246.3594 L67.2656,248.4688 L62.8438,248.4688 L62.8438,251.1406 L66.9531,251.1406 L66.9531,253.25 L62.8438,253.25 L62.8438,256.375 L67.2656,256.375 L67.2656,258.5 Z " fill="#000000"/><text fill="#000000" font-family="sans-serif" font-size="12" lengthAdjust="spacing" textLength="37" x="84.75" y="256.6543">source</text><line style="stroke:#A80036;stroke-width:1.5;" x1="8" x2="166" y1="268.5" y2="268.5"/><ellipse cx="18" cy="279.5" fill="#000000" rx="3" ry="3" style="stroke:#000000;stroke-width:1.0;"/><text fill="#000000" font-family="sans-serif" font-size="11" lengthAdjust="spacing" textLength="43" x="27" y="282.7104">id : bigint</text><line style="stroke:#A80036;stroke-width:1.0;" x1="8" x2="166" y1="289.3047" y2="289.3047"/><ellipse cx="18" cy="300.3047" fill="#000000" rx="3" ry="3" style="stroke:#000000;stroke-width:1.0;"/><text fill="#000000" font-family="sans-serif" font-size="11" lengthAdjust="spacing" textLength="134" x="27" y="303.5151">path : varchar(255) - unique</text><ellipse cx="18" cy="313.1094" fill="#000000" rx="3" ry="3" style="stroke:#000000;stroke-width:1.0;"/><text fill="#000000" font-family="sans-serif" font-size="11" lengthAdjust="spacing" textLength="84" x="27" y="316.3198">fk_feed_id : bigint</text><ellipse cx="18" cy="325.9141" fill="#000000" rx="3" ry="3" style="stroke:#000000;stroke-width:1.0;"/><text fill="#000000" font-family="sans-serif" font-size="11" lengthAdjust="spacing" textLength="95" x="27" y="329.1245">examined : boolean</text><ellipse cx="18" cy="338.7188" fill="#000000" rx="3" ry="3" style="stroke:#000000;stroke-width:1.0;"/><text fill="#000000" font-family="sans-serif" font-size="11" lengthAdjust="spacing" textLength="97" x="27" y="341.9292">item_count : integer</text><ellipse cx="18" cy="351.5234" fill="#000000" rx="3" ry="3" style="stroke:#000000;stroke-width:1.0;"/><text fill="#000000" font-family="sans-serif" font-size="11" lengthAdjust="spacing" textLength="97" x="27" y="354.7339">new_position : bigint</text><!--MD5=[23693ca385c1414b1e74e8b4c3b37cb4]
class source_item--><rect codeLine="22" fill="#FEFECE" filter="url(#f3ogtbe2k9k6o)" height="137.6328" id="source_item" style="stroke:#A80036;stroke-width:1.5;" width="138" x="151" y="428"/><ellipse cx="183.55" cy="444" fill="#ADD1B2" rx="11" ry="11" style="stroke:#A80036;stroke-width:1.0;"/><path d="M186.5656,450 L179.5813,450 L179.5813,437.8594 L186.5656,437.8594 L186.5656,439.9688 L182.1438,439.9688 L182.1438,442.6406 L186.2531,442.6406 L186.2531,444.75 L182.1438,444.75 L182.1438,447.875 L186.5656,447.875 L186.5656,450 Z " fill="#000000"/><text fill="#000000" font-family="sans-serif" font-size="12" lengthAdjust="spacing" textLength="67" x="201.45" y="448.1543">source_item</text><line style="stroke:#A80036;stroke-width:1.5;" x1="152" x2="288" y1="460" y2="460"/><ellipse cx="162" cy="471" fill="#000000" rx="3" ry="3" style="stroke:#000000;stroke-width:1.0;"/><text fill="#000000" font-family="sans-serif" font-size="11" lengthAdjust="spacing" textLength="43" x="171" y="474.2104">id : bigint</text><line style="stroke:#A80036;stroke-width:1.0;" x1="152" x2="288" y1="480.8047" y2="480.8047"/><ellipse cx="162" cy="491.8047" fill="#000000" rx="3" ry="3" style="stroke:#000000;stroke-width:1.0;"/><text fill="#000000" font-family="sans-serif" font-size="11" lengthAdjust="spacing" textLength="98" x="171" y="495.0151">name : varchar(255)</text><ellipse cx="162" cy="504.6094" fill="#000000" rx="3" ry="3" style="stroke:#000000;stroke-width:1.0;"/><text fill="#000000" font-family="sans-serif" font-size="11" lengthAdjust="spacing" textLength="84" x="171" y="507.8198">fk_feed_id : bigint</text><ellipse cx="162" cy="517.4141" fill="#000000" rx="3" ry="3" style="stroke:#000000;stroke-width:1.0;"/><text fill="#000000" font-family="sans-serif" font-size="11" lengthAdjust="spacing" textLength="80" x="171" y="520.6245">byte_size : bigint</text><ellipse cx="162" cy="530.2188" fill="#000000" rx="3" ry="3" style="stroke:#000000;stroke-width:1.0;"/><text fill="#000000" font-family="sans-serif" font-size="11" lengthAdjust="spacing" textLength="94" x="171" y="533.4292">fk_source_id : bigint</text><ellipse cx="162" cy="543.0234" fill="#000000" rx="3" ry="3" style="stroke:#000000;stroke-width:1.0;"/><text fill="#000000" font-family="sans-serif" font-size="11" lengthAdjust="spacing" textLength="112" x="171" y="546.2339">fk_aggregate_id : bigint</text><ellipse cx="162" cy="555.8281" fill="#000000" rx="3" ry="3" style="stroke:#000000;stroke-width:1.0;"/><text fill="#000000" font-family="sans-serif" font-size="11" lengthAdjust="spacing" textLength="97" x="171" y="559.0386">new_position : bigint</text><!--MD5=[920d5660a06730163c0204a2780a33ae]
class source_entry--><rect codeLine="33" fill="#FEFECE" filter="url(#f3ogtbe2k9k6o)" height="112.0234" id="source_entry" style="stroke:#A80036;stroke-width:1.5;" width="147" x="146.5" y="626"/><ellipse cx="182.2" cy="642" fill="#ADD1B2" rx="11" ry="11" style="stroke:#A80036;stroke-width:1.0;"/><path d="M185.2156,648 L178.2313,648 L178.2313,635.8594 L185.2156,635.8594 L185.2156,637.9688 L180.7938,637.9688 L180.7938,640.6406 L184.9031,640.6406 L184.9031,642.75 L180.7938,642.75 L180.7938,645.875 L185.2156,645.875 L185.2156,648 Z " fill="#000000"/><text fill="#000000" font-family="sans-serif" font-size="12" lengthAdjust="spacing" textLength="69" x="200.8" y="646.1543">source_entry</text><line style="stroke:#A80036;stroke-width:1.5;" x1="147.5" x2="292.5" y1="658" y2="658"/><ellipse cx="157.5" cy="669" fill="#000000" rx="3" ry="3" style="stroke:#000000;stroke-width:1.0;"/><text fill="#000000" font-family="sans-serif" font-size="11" lengthAdjust="spacing" textLength="43" x="166.5" y="672.2104">id : bigint</text><line style="stroke:#A80036;stroke-width:1.0;" x1="147.5" x2="292.5" y1="678.8047" y2="678.8047"/><ellipse cx="157.5" cy="689.8047" fill="#000000" rx="3" ry="3" style="stroke:#000000;stroke-width:1.0;"/><text fill="#000000" font-family="sans-serif" font-size="11" lengthAdjust="spacing" textLength="117" x="166.5" y="693.0151">extension : varchar(255)</text><ellipse cx="157.5" cy="702.6094" fill="#000000" rx="3" ry="3" style="stroke:#000000;stroke-width:1.0;"/><text fill="#000000" font-family="sans-serif" font-size="11" lengthAdjust="spacing" textLength="95" x="166.5" y="705.8198">extension_type : int</text><ellipse cx="157.5" cy="715.4141" fill="#000000" rx="3" ry="3" style="stroke:#000000;stroke-width:1.0;"/><text fill="#000000" font-family="sans-serif" font-size="11" lengthAdjust="spacing" textLength="80" x="166.5" y="718.6245">byte_size : bigint</text><ellipse cx="157.5" cy="728.2188" fill="#000000" rx="3" ry="3" style="stroke:#000000;stroke-width:1.0;"/><text fill="#000000" font-family="sans-serif" font-size="11" lengthAdjust="spacing" textLength="121" x="166.5" y="731.4292">fk_source_item_id : bigint</text><!--MD5=[1ef907470190a52481b72bc04299235e]
class aggregate--><rect codeLine="42" fill="#FEFECE" filter="url(#f3ogtbe2k9k6o)" height="137.6328" id="aggregate" style="stroke:#A80036;stroke-width:1.5;" width="139" x="273.5" y="230"/><ellipse cx="312.35" cy="246" fill="#ADD1B2" rx="11" ry="11" style="stroke:#A80036;stroke-width:1.0;"/><path d="M315.3656,252 L308.3813,252 L308.3813,239.8594 L315.3656,239.8594 L315.3656,241.9688 L310.9438,241.9688 L310.9438,244.6406 L315.0531,244.6406 L315.0531,246.75 L310.9438,246.75 L310.9438,249.875 L315.3656,249.875 L315.3656,252 Z " fill="#000000"/><text fill="#000000" font-family="sans-serif" font-size="12" lengthAdjust="spacing" textLength="54" x="331.65" y="250.1543">aggregate</text><line style="stroke:#A80036;stroke-width:1.5;" x1="274.5" x2="411.5" y1="262" y2="262"/><ellipse cx="284.5" cy="273" fill="#000000" rx="3" ry="3" style="stroke:#000000;stroke-width:1.0;"/><text fill="#000000" font-family="sans-serif" font-size="11" lengthAdjust="spacing" textLength="43" x="293.5" y="276.2104">id : bigint</text><line style="stroke:#A80036;stroke-width:1.0;" x1="274.5" x2="411.5" y1="282.8047" y2="282.8047"/><ellipse cx="284.5" cy="293.8047" fill="#000000" rx="3" ry="3" style="stroke:#000000;stroke-width:1.0;"/><text fill="#000000" font-family="sans-serif" font-size="11" lengthAdjust="spacing" textLength="113" x="293.5" y="297.0151">create_time_ms : bigint</text><ellipse cx="284.5" cy="306.6094" fill="#000000" rx="3" ry="3" style="stroke:#000000;stroke-width:1.0;"/><text fill="#000000" font-family="sans-serif" font-size="11" lengthAdjust="spacing" textLength="84" x="293.5" y="309.8198">fk_feed_id : bigint</text><ellipse cx="284.5" cy="319.4141" fill="#000000" rx="3" ry="3" style="stroke:#000000;stroke-width:1.0;"/><text fill="#000000" font-family="sans-serif" font-size="11" lengthAdjust="spacing" textLength="80" x="293.5" y="322.6245">byte_size : bigint</text><ellipse cx="284.5" cy="332.2188" fill="#000000" rx="3" ry="3" style="stroke:#000000;stroke-width:1.0;"/><text fill="#000000" font-family="sans-serif" font-size="11" lengthAdjust="spacing" textLength="48" x="293.5" y="335.4292">items : int</text><ellipse cx="284.5" cy="345.0234" fill="#000000" rx="3" ry="3" style="stroke:#000000;stroke-width:1.0;"/><text fill="#000000" font-family="sans-serif" font-size="11" lengthAdjust="spacing" textLength="92" x="293.5" y="348.2339">complete : boolean</text><ellipse cx="284.5" cy="357.8281" fill="#000000" rx="3" ry="3" style="stroke:#000000;stroke-width:1.0;"/><text fill="#000000" font-family="sans-serif" font-size="11" lengthAdjust="spacing" textLength="97" x="293.5" y="361.0386">new_position : bigint</text><!--MD5=[9ec5b5fc933be4ccfb94bd357655b06c]
class forward_dest--><rect codeLine="53" fill="#FEFECE" filter="url(#f3ogtbe2k9k6o)" height="73.6094" id="forward_dest" style="stroke:#A80036;stroke-width:1.5;" width="124" x="448" y="262"/><ellipse cx="472.9" cy="278" fill="#ADD1B2" rx="11" ry="11" style="stroke:#A80036;stroke-width:1.0;"/><path d="M475.9156,284 L468.9313,284 L468.9313,271.8594 L475.9156,271.8594 L475.9156,273.9688 L471.4938,273.9688 L471.4938,276.6406 L475.6031,276.6406 L475.6031,278.75 L471.4938,278.75 L471.4938,281.875 L475.9156,281.875 L475.9156,284 Z " fill="#000000"/><text fill="#000000" font-family="sans-serif" font-size="12" lengthAdjust="spacing" textLength="70" x="489.1" y="282.1543">forward_dest</text><line style="stroke:#A80036;stroke-width:1.5;" x1="449" x2="571" y1="294" y2="294"/><ellipse cx="459" cy="305" fill="#000000" rx="3" ry="3" style="stroke:#000000;stroke-width:1.0;"/><text fill="#000000" font-family="sans-serif" font-size="11" lengthAdjust="spacing" textLength="29" x="468" y="308.2104">id : int</text><line style="stroke:#A80036;stroke-width:1.0;" x1="449" x2="571" y1="314.8047" y2="314.8047"/><ellipse cx="459" cy="325.8047" fill="#000000" rx="3" ry="3" style="stroke:#000000;stroke-width:1.0;"/><text fill="#000000" font-family="sans-serif" font-size="11" lengthAdjust="spacing" textLength="98" x="468" y="329.0151">name : varchar(255)</text><!--MD5=[d4f398bbc1193deb68c8428dcb929078]
class forward_aggregate--><rect codeLine="59" fill="#FEFECE" filter="url(#f3ogtbe2k9k6o)" height="163.2422" id="forward_aggregate" style="stroke:#A80036;stroke-width:1.5;" width="142" x="385" y="7"/><ellipse cx="404.5" cy="23" fill="#ADD1B2" rx="11" ry="11" style="stroke:#A80036;stroke-width:1.0;"/><path d="M407.5156,29 L400.5313,29 L400.5313,16.8594 L407.5156,16.8594 L407.5156,18.9688 L403.0938,18.9688 L403.0938,21.6406 L407.2031,21.6406 L407.2031,23.75 L403.0938,23.75 L403.0938,26.875 L407.5156,26.875 L407.5156,29 Z " fill="#000000"/><text fill="#000000" font-family="sans-serif" font-size="12" lengthAdjust="spacing" textLength="100" x="419.5" y="27.1543">forward_aggregate</text><line style="stroke:#A80036;stroke-width:1.5;" x1="386" x2="526" y1="39" y2="39"/><ellipse cx="396" cy="50" fill="#000000" rx="3" ry="3" style="stroke:#000000;stroke-width:1.0;"/><text fill="#000000" font-family="sans-serif" font-size="11" lengthAdjust="spacing" textLength="43" x="405" y="53.2104">id : bigint</text><line style="stroke:#A80036;stroke-width:1.0;" x1="386" x2="526" y1="59.8047" y2="59.8047"/><ellipse cx="396" cy="70.8047" fill="#000000" rx="3" ry="3" style="stroke:#000000;stroke-width:1.0;"/><text fill="#000000" font-family="sans-serif" font-size="11" lengthAdjust="spacing" textLength="116" x="405" y="74.0151">update_time_ms : bigint</text><ellipse cx="396" cy="83.6094" fill="#000000" rx="3" ry="3" style="stroke:#000000;stroke-width:1.0;"/><text fill="#000000" font-family="sans-serif" font-size="11" lengthAdjust="spacing" textLength="112" x="405" y="86.8198">fk_forward_dest_id : int</text><ellipse cx="396" cy="96.4141" fill="#000000" rx="3" ry="3" style="stroke:#000000;stroke-width:1.0;"/><text fill="#000000" font-family="sans-serif" font-size="11" lengthAdjust="spacing" textLength="112" x="405" y="99.6245">fk_aggregate_id : bigint</text><ellipse cx="396" cy="109.2188" fill="#000000" rx="3" ry="3" style="stroke:#000000;stroke-width:1.0;"/><text fill="#000000" font-family="sans-serif" font-size="11" lengthAdjust="spacing" textLength="84" x="405" y="112.4292">success : boolean</text><ellipse cx="396" cy="122.0234" fill="#000000" rx="3" ry="3" style="stroke:#000000;stroke-width:1.0;"/><text fill="#000000" font-family="sans-serif" font-size="11" lengthAdjust="spacing" textLength="94" x="405" y="125.2339">error : varchar(255)</text><ellipse cx="396" cy="134.8281" fill="#000000" rx="3" ry="3" style="stroke:#000000;stroke-width:1.0;"/><text fill="#000000" font-family="sans-serif" font-size="11" lengthAdjust="spacing" textLength="56" x="405" y="138.0386">tries : bigint</text><ellipse cx="396" cy="147.6328" fill="#000000" rx="3" ry="3" style="stroke:#000000;stroke-width:1.0;"/><text fill="#000000" font-family="sans-serif" font-size="11" lengthAdjust="spacing" textLength="97" x="405" y="150.8433">new_position : bigint</text><ellipse cx="396" cy="160.4375" fill="#000000" rx="3" ry="3" style="stroke:#000000;stroke-width:1.0;"/><text fill="#000000" font-family="sans-serif" font-size="11" lengthAdjust="spacing" textLength="101" x="405" y="163.6479">retry_position : bigint</text><!--MD5=[8fc0b909dc2d6f9332fdd45de385bd9e]
link feed to source--><path codeLine="72" d="M155.75,139.61 C155.75,139.61 155.75,228.39 155.75,228.39 " fill="none" id="feed-source" style="stroke:#A80036;stroke-width:1.0;"/><line style="stroke:#A80036;stroke-width:1.0;" x1="155.75" x2="161.75" y1="228.39" y2="236.39"/><line style="stroke:#A80036;stroke-width:1.0;" x1="155.75" x2="149.75" y1="228.39" y2="236.39"/><line style="stroke:#A80036;stroke-width:1.0;" x1="155.75" x2="155.75" y1="228.39" y2="236.39"/><line style="stroke:#A80036;stroke-width:1.0;" x1="159.75" x2="151.75" y1="226.39" y2="226.39"/><line style="stroke:#A80036;stroke-width:1.0;" x1="151.75" x2="159.75" y1="135.61" y2="135.61"/><line style="stroke:#A80036;stroke-width:1.0;" x1="151.75" x2="159.75" y1="138.61" y2="138.61"/><line style="stroke:#A80036;stroke-width:1.0;" x1="155.75" x2="155.75" y1="139.61" y2="131.61"/><!--MD5=[11c2e13f815eb43a8199e329e64e3864]
link feed to source_item--><path codeLine="73" d="M220.25,139.83 C220.25,139.83 220.25,419.67 220.25,419.67 " fill="none" id="feed-source_item" style="stroke:#A80036;stroke-width:1.0;"/><line style="stroke:#A80036;stroke-width:1.0;" x1="220.25" x2="226.25" y1="419.67" y2="427.67"/><line style="stroke:#A80036;stroke-width:1.0;" x1="220.25" x2="214.25" y1="419.67" y2="427.67"/><line style="stroke:#A80036;stroke-width:1.0;" x1="220.25" x2="220.25" y1="419.67" y2="427.67"/><line style="stroke:#A80036;stroke-width:1.0;" x1="224.25" x2="216.25" y1="417.67" y2="417.67"/><line style="stroke:#A80036;stroke-width:1.0;" x1="216.25" x2="224.25" y1="135.83" y2="135.83"/><line style="stroke:#A80036;stroke-width:1.0;" x1="216.25" x2="224.25" y1="138.83" y2="138.83"/><line style="stroke:#A80036;stroke-width:1.0;" x1="220.25" x2="220.25" y1="139.83" y2="131.83"/><!--MD5=[2216fa80f18d20d599bb2d67b2e757c8]
link feed to aggregate--><path codeLine="74" d="M284.5,139.61 C284.5,139.61 284.5,221.85 284.5,221.85 " fill="none" id="feed-aggregate" style="stroke:#A80036;stroke-width:1.0;"/><line style="stroke:#A80036;stroke-width:1.0;" x1="284.5" x2="290.5" y1="221.85" y2="229.85"/><line style="stroke:#A80036;stroke-width:1.0;" x1="284.5" x2="278.5" y1="221.85" y2="229.85"/><line style="stroke:#A80036;stroke-width:1.0;" x1="284.5" x2="284.5" y1="221.85" y2="229.85"/><line style="stroke:#A80036;stroke-width:1.0;" x1="288.5" x2="280.5" y1="219.85" y2="219.85"/><line style="stroke:#A80036;stroke-width:1.0;" x1="280.5" x2="288.5" y1="135.61" y2="135.61"/><line style="stroke:#A80036;stroke-width:1.0;" x1="280.5" x2="288.5" y1="138.61" y2="138.61"/><line style="stroke:#A80036;stroke-width:1.0;" x1="284.5" x2="284.5" y1="139.61" y2="131.61"/><!--MD5=[bde66a182555eb887059de8293221a83]
link source to source_item--><path codeLine="76" d="M159,369.65 C159,369.65 159,419.89 159,419.89 " fill="none" id="source-source_item" style="stroke:#A80036;stroke-width:1.0;stroke-dasharray:7.0,7.0;"/><line style="stroke:#A80036;stroke-width:1.0;" x1="159" x2="165" y1="419.89" y2="427.89"/><line style="stroke:#A80036;stroke-width:1.0;" x1="159" x2="153" y1="419.89" y2="427.89"/><line style="stroke:#A80036;stroke-width:1.0;" x1="159" x2="159" y1="419.89" y2="427.89"/><ellipse cx="159" cy="413.89" rx="4" ry="4" style="stroke:#A80036;stroke-width:1.0;fill:none;"/><line style="stroke:#A80036;stroke-width:1.0;fill:none;" x1="155" x2="163" y1="365.65" y2="365.65"/><line style="stroke:#A80036;stroke-width:1.0;fill:none;" x1="155" x2="163" y1="368.65" y2="368.65"/><line style="stroke:#A80036;stroke-width:1.0;fill:none;" x1="159" x2="159" y1="369.65" y2="361.65"/><!--MD5=[6610028f0c7a0554f2085ee3824405a3]
link source_item to source_entry--><path codeLine="77" d="M220,574.15 C220,574.15 220,617.9 220,617.9 " fill="none" id="source_item-source_entry" style="stroke:#A80036;stroke-width:1.0;"/><line style="stroke:#A80036;stroke-width:1.0;" x1="220" x2="226" y1="617.9" y2="625.9"/><line style="stroke:#A80036;stroke-width:1.0;" x1="220" x2="214" y1="617.9" y2="625.9"/><line style="stroke:#A80036;stroke-width:1.0;" x1="220" x2="220" y1="617.9" y2="625.9"/><line style="stroke:#A80036;stroke-width:1.0;" x1="224" x2="216" y1="615.9" y2="615.9"/><line style="stroke:#A80036;stroke-width:1.0;" x1="216" x2="224" y1="570.15" y2="570.15"/><line style="stroke:#A80036;stroke-width:1.0;" x1="216" x2="224" y1="573.15" y2="573.15"/><line style="stroke:#A80036;stroke-width:1.0;" x1="220" x2="220" y1="574.15" y2="566.15"/><!--MD5=[c19e3c6eb4e2962e1f79b15e01c56d18]
link aggregate to source_item--><path codeLine="78" d="M281.25,376.25 C281.25,376.25 281.25,419.79 281.25,419.79 " fill="none" id="aggregate-source_item" style="stroke:#A80036;stroke-width:1.0;"/><line style="stroke:#A80036;stroke-width:1.0;" x1="281.25" x2="287.25" y1="419.79" y2="427.79"/><line style="stroke:#A80036;stroke-width:1.0;" x1="281.25" x2="275.25" y1="419.79" y2="427.79"/><line style="stroke:#A80036;stroke-width:1.0;" x1="281.25" x2="281.25" y1="419.79" y2="427.79"/><line style="stroke:#A80036;stroke-width:1.0;" x1="285.25" x2="277.25" y1="417.79" y2="417.79"/><line style="stroke:#A80036;stroke-width:1.0;" x1="277.25" x2="285.25" y1="372.25" y2="372.25"/><line style="stroke:#A80036;stroke-width:1.0;" x1="277.25" x2="285.25" y1="375.25" y2="375.25"/><line style="stroke:#A80036;stroke-width:1.0;" x1="281.25" x2="281.25" y1="376.25" y2="368.25"/><!--MD5=[899709fd871b185fa39e21df274ef805]
link forward_aggregate to forward_dest--><path codeLine="79" d="M487.5,178.19 C487.5,178.19 487.5,253.9 487.5,253.9 " fill="none" id="forward_aggregate-forward_dest" style="stroke:#A80036;stroke-width:1.0;"/><line style="stroke:#A80036;stroke-width:1.0;" x1="491.5" x2="483.5" y1="257.9" y2="257.9"/><line style="stroke:#A80036;stroke-width:1.0;" x1="491.5" x2="483.5" y1="254.9" y2="254.9"/><line style="stroke:#A80036;stroke-width:1.0;" x1="487.5" x2="487.5" y1="253.9" y2="261.9"/><line style="stroke:#A80036;stroke-width:1.0;" x1="487.5" x2="481.5" y1="178.19" y2="170.19"/><line style="stroke:#A80036;stroke-width:1.0;" x1="487.5" x2="493.5" y1="178.19" y2="170.19"/><line style="stroke:#A80036;stroke-width:1.0;" x1="487.5" x2="487.5" y1="178.19" y2="170.19"/><ellipse cx="487.5" cy="184.19" rx="4" ry="4" style="stroke:#A80036;stroke-width:1.0;fill:none;"/><!--MD5=[0ac3d8377118ba1284c6e32a49f23729]
link forward_aggregate to aggregate--><path codeLine="80" d="M398.75,178.19 C398.75,178.19 398.75,221.99 398.75,221.99 " fill="none" id="forward_aggregate-aggregate" style="stroke:#A80036;stroke-width:1.0;"/><line style="stroke:#A80036;stroke-width:1.0;" x1="402.75" x2="394.75" y1="225.99" y2="225.99"/><line style="stroke:#A80036;stroke-width:1.0;" x1="402.75" x2="394.75" y1="222.99" y2="222.99"/><line style="stroke:#A80036;stroke-width:1.0;" x1="398.75" x2="398.75" y1="221.99" y2="229.99"/><line style="stroke:#A80036;stroke-width:1.0;" x1="398.75" x2="392.75" y1="178.19" y2="170.19"/><line style="stroke:#A80036;stroke-width:1.0;" x1="398.75" x2="404.75" y1="178.19" y2="170.19"/><line style="stroke:#A80036;stroke-width:1.0;" x1="398.75" x2="398.75" y1="178.19" y2="170.19"/><ellipse cx="398.75" cy="184.19" rx="4" ry="4" style="stroke:#A80036;stroke-width:1.0;fill:none;"/><!--MD5=[52444615039612825e67692ff4733718]
@startuml

' avoid problems with angled crows feet
skinparam linetype ortho

entity feed {
  *id : bigint
  - -
  *feed_name : varchar(255)
  *type_name : varchar(255)
}

entity source {
  *id : bigint
  - -
  *path : varchar(255) - unique
  *fk_feed_id : bigint
  *examined : boolean
  *item_count : integer
  *new_position : bigint
}

entity source_item {
  *id : bigint
  - -
  *name : varchar(255)
  *fk_feed_id : bigint
  *byte_size : bigint
  *fk_source_id : bigint
  *fk_aggregate_id : bigint
  *new_position : bigint
}

entity source_entry {
  *id : bigint
  - -
  *extension : varchar(255)
  *extension_type : int
  *byte_size : bigint
  *fk_source_item_id : bigint
}

entity aggregate {
  *id : bigint
  - -
  *create_time_ms : bigint
  *fk_feed_id : bigint
  *byte_size : bigint
  *items : int
  *complete : boolean
  *new_position : bigint
}

entity forward_dest {
  *id : int
  - -
  *name : varchar(255)
}

entity forward_aggregate {
  *id : bigint
  - -
  *update_time_ms : bigint
  *fk_forward_dest_id : int
  *fk_aggregate_id : bigint
  *success : boolean
  *error : varchar(255)
  *tries : bigint
  *new_position : bigint
  *retry_position : bigint
}

feed ||- -|{ source
feed ||- -|{ source_item
feed ||- -|{ aggregate

source ||..o{ source_item
source_item ||- -|{ source_entry
aggregate ||- -|{ source_item
forward_aggregate }o- -|| forward_dest
forward_aggregate }o- -|| aggregate

@enduml

@startuml

skinparam linetype ortho

entity feed {
  *id : bigint
  - -
  *feed_name : varchar(255)
  *type_name : varchar(255)
}

entity source {
  *id : bigint
  - -
  *path : varchar(255) - unique
  *fk_feed_id : bigint
  *examined : boolean
  *item_count : integer
  *new_position : bigint
}

entity source_item {
  *id : bigint
  - -
  *name : varchar(255)
  *fk_feed_id : bigint
  *byte_size : bigint
  *fk_source_id : bigint
  *fk_aggregate_id : bigint
  *new_position : bigint
}

entity source_entry {
  *id : bigint
  - -
  *extension : varchar(255)
  *extension_type : int
  *byte_size : bigint
  *fk_source_item_id : bigint
}

entity aggregate {
  *id : bigint
  - -
  *create_time_ms : bigint
  *fk_feed_id : bigint
  *byte_size : bigint
  *items : int
  *complete : boolean
  *new_position : bigint
}

entity forward_dest {
  *id : int
  - -
  *name : varchar(255)
}

entity forward_aggregate {
  *id : bigint
  - -
  *update_time_ms : bigint
  *fk_forward_dest_id : int
  *fk_aggregate_id : bigint
  *success : boolean
  *error : varchar(255)
  *tries : bigint
  *new_position : bigint
  *retry_position : bigint
}

feed ||- -|{ source
feed ||- -|{ source_item
feed ||- -|{ aggregate

source ||..o{ source_item
source_item ||- -|{ source_entry
aggregate ||- -|{ source_item
forward_aggregate }o- -|| forward_dest
forward_aggregate }o- -|| aggregate

@enduml

PlantUML version 1.2021.5(Sun Apr 25 11:20:28 GMT 2021)
(GPL source distribution)
Java Runtime: OpenJDK Runtime Environment
JVM: OpenJDK 64-Bit Server VM
Default Encoding: UTF-8
Language: en
Country: US
--></g></svg>