<?xml version="1.0" encoding="UTF-8" standalone="no"?><svg xmlns="http://www.w3.org/2000/svg" xmlns:xlink="http://www.w3.org/1999/xlink" contentScriptType="application/ecmascript" contentStyleType="text/css" height="401px" preserveAspectRatio="none" style="width:364px;height:401px;background:#FFFFFF;" version="1.1" viewBox="0 0 364 401" width="364px" zoomAndPan="magnify"><defs><filter height="300%" id="f13nze620oujz6" width="300%" x="-1" y="-1"><feGaussianBlur result="blurOut" stdDeviation="2.0"/><feColorMatrix in="blurOut" result="blurOut2" type="matrix" values="0 0 0 0 0 0 0 0 0 0 0 0 0 0 0 0 0 0 .4 0"/><feOffset dx="4.0" dy="4.0" in="blurOut2" result="blurOut3"/><feBlend in="SourceGraphic" in2="blurOut3" mode="normal"/></filter></defs><g><!--MD5=[a89e013394a4179b87aacb584f03bea5]
class feed--><rect codeLine="5" fill="#FEFECE" filter="url(#f13nze620oujz6)" height="92.9457" id="feed" style="stroke:#A80036;stroke-width:1.5;" width="156" x="8" y="52"/><ellipse cx="69.25" cy="68" fill="#ADD1B2" rx="11" ry="11" style="stroke:#A80036;stroke-width:1.0;"/><path d="M65.6094,74.5 L65.6094,62.3594 L73.2656,62.3594 L73.2656,64.4844 L67.9844,64.4844 L67.9844,67.1406 L73,67.1406 L73,69.2656 L67.9844,69.2656 L67.9844,72.375 L73.2656,72.375 L73.2656,74.5 L65.6094,74.5 Z " fill="#000000"/><text fill="#000000" font-family="sans-serif" font-size="12" lengthAdjust="spacing" textLength="25" x="89.75" y="72.656">feed</text><line style="stroke:#A80036;stroke-width:1.5;" x1="9" x2="163" y1="84" y2="84"/><ellipse cx="19" cy="95" fill="#000000" rx="3" ry="3" style="stroke:#000000;stroke-width:1.0;"/><text fill="#000000" font-family="sans-serif" font-size="11" lengthAdjust="spacing" textLength="50" x="28" y="99.7589">id : bigint</text><line style="stroke:#A80036;stroke-width:1.0;" x1="9" x2="163" y1="106.9819" y2="106.9819"/><ellipse cx="19" cy="117.9819" fill="#000000" rx="3" ry="3" style="stroke:#000000;stroke-width:1.0;"/><text fill="#000000" font-family="sans-serif" font-size="11" lengthAdjust="spacing" textLength="130" x="28" y="122.7408">feed_name : varchar(255)</text><ellipse cx="19" cy="132.9638" fill="#000000" rx="3" ry="3" style="stroke:#000000;stroke-width:1.0;"/><text fill="#000000" font-family="sans-serif" font-size="11" lengthAdjust="spacing" textLength="130" x="28" y="137.7227">type_name : varchar(255)</text><!--MD5=[fb94403e3d3521d383fd6507b67b3642]
class source--><rect codeLine="12" fill="#FEFECE" filter="url(#f13nze620oujz6)" height="137.8913" id="source" style="stroke:#A80036;stroke-width:1.5;" width="170" x="7" y="250"/><ellipse cx="68.75" cy="266" fill="#ADD1B2" rx="11" ry="11" style="stroke:#A80036;stroke-width:1.0;"/><path d="M65.1094,272.5 L65.1094,260.3594 L72.7656,260.3594 L72.7656,262.4844 L67.4844,262.4844 L67.4844,265.1406 L72.5,265.1406 L72.5,267.2656 L67.4844,267.2656 L67.4844,270.375 L72.7656,270.375 L72.7656,272.5 L65.1094,272.5 Z " fill="#000000"/><text fill="#000000" font-family="sans-serif" font-size="12" lengthAdjust="spacing" textLength="38" x="89.25" y="270.656">source</text><line style="stroke:#A80036;stroke-width:1.5;" x1="8" x2="176" y1="282" y2="282"/><ellipse cx="18" cy="293" fill="#000000" rx="3" ry="3" style="stroke:#000000;stroke-width:1.0;"/><text fill="#000000" font-family="sans-serif" font-size="11" lengthAdjust="spacing" textLength="50" x="27" y="297.7589">id : bigint</text><line style="stroke:#A80036;stroke-width:1.0;" x1="8" x2="176" y1="304.9819" y2="304.9819"/><ellipse cx="18" cy="315.9819" fill="#000000" rx="3" ry="3" style="stroke:#000000;stroke-width:1.0;"/><text fill="#000000" font-family="sans-serif" font-size="11" lengthAdjust="spacing" textLength="144" x="27" y="320.7408">path : varchar(255) - unique</text><ellipse cx="18" cy="330.9638" fill="#000000" rx="3" ry="3" style="stroke:#000000;stroke-width:1.0;"/><text fill="#000000" font-family="sans-serif" font-size="11" lengthAdjust="spacing" textLength="93" x="27" y="335.7227">fk_feed_id : bigint</text><text fill="#000000" font-family="sans-serif" font-size="11" lengthAdjust="spacing" textLength="103" x="27" y="350.7046">examined : boolean</text><ellipse cx="18" cy="360.9276" fill="#000000" rx="3" ry="3" style="stroke:#000000;stroke-width:1.0;"/><text fill="#000000" font-family="sans-serif" font-size="11" lengthAdjust="spacing" textLength="108" x="27" y="365.6865">forwarded : boolean</text><ellipse cx="18" cy="375.9094" fill="#000000" rx="3" ry="3" style="stroke:#000000;stroke-width:1.0;"/><text fill="#000000" font-family="sans-serif" font-size="11" lengthAdjust="spacing" textLength="110" x="27" y="380.6684">new_position : bigint</text><!--MD5=[3cc1e4effaee23fb9097a8bf1d8fa0d4]
class forward_url--><rect codeLine="22" fill="#FEFECE" filter="url(#f13nze620oujz6)" height="77.9638" id="forward_url" style="stroke:#A80036;stroke-width:1.5;" width="114" x="218" y="280"/><ellipse cx="241.1" cy="296" fill="#ADD1B2" rx="11" ry="11" style="stroke:#A80036;stroke-width:1.0;"/><path d="M237.4594,302.5 L237.4594,290.3594 L245.1156,290.3594 L245.1156,292.4844 L239.8344,292.4844 L239.8344,295.1406 L244.85,295.1406 L244.85,297.2656 L239.8344,297.2656 L239.8344,300.375 L245.1156,300.375 L245.1156,302.5 L237.4594,302.5 Z " fill="#000000"/><text fill="#000000" font-family="sans-serif" font-size="12" lengthAdjust="spacing" textLength="64" x="256.9" y="300.656">forward_url</text><line style="stroke:#A80036;stroke-width:1.5;" x1="219" x2="331" y1="312" y2="312"/><ellipse cx="229" cy="323" fill="#000000" rx="3" ry="3" style="stroke:#000000;stroke-width:1.0;"/><text fill="#000000" font-family="sans-serif" font-size="11" lengthAdjust="spacing" textLength="33" x="238" y="327.7589">id : int</text><line style="stroke:#A80036;stroke-width:1.0;" x1="219" x2="331" y1="334.9819" y2="334.9819"/><ellipse cx="229" cy="345.9819" fill="#000000" rx="3" ry="3" style="stroke:#000000;stroke-width:1.0;"/><text fill="#000000" font-family="sans-serif" font-size="11" lengthAdjust="spacing" textLength="88" x="238" y="350.7408">url : varchar(255)</text><!--MD5=[cbb12bc3eee1de79b3f2e300a168c511]
class forward_source--><rect codeLine="28" fill="#FEFECE" filter="url(#f13nze620oujz6)" height="182.837" id="forward_source" style="stroke:#A80036;stroke-width:1.5;" width="151" x="199.5" y="7"/><ellipse cx="228.9" cy="23" fill="#ADD1B2" rx="11" ry="11" style="stroke:#A80036;stroke-width:1.0;"/><path d="M225.2594,29.5 L225.2594,17.3594 L232.9156,17.3594 L232.9156,19.4844 L227.6344,19.4844 L227.6344,22.1406 L232.65,22.1406 L232.65,24.2656 L227.6344,24.2656 L227.6344,27.375 L232.9156,27.375 L232.9156,29.5 L225.2594,29.5 Z " fill="#000000"/><text fill="#000000" font-family="sans-serif" font-size="12" lengthAdjust="spacing" textLength="87" x="246.1" y="27.656">forward_source</text><line style="stroke:#A80036;stroke-width:1.5;" x1="200.5" x2="349.5" y1="39" y2="39"/><ellipse cx="210.5" cy="50" fill="#000000" rx="3" ry="3" style="stroke:#000000;stroke-width:1.0;"/><text fill="#000000" font-family="sans-serif" font-size="11" lengthAdjust="spacing" textLength="50" x="219.5" y="54.7589">id : bigint</text><line style="stroke:#A80036;stroke-width:1.0;" x1="200.5" x2="349.5" y1="61.9819" y2="61.9819"/><ellipse cx="210.5" cy="72.9819" fill="#000000" rx="3" ry="3" style="stroke:#000000;stroke-width:1.0;"/><text fill="#000000" font-family="sans-serif" font-size="11" lengthAdjust="spacing" textLength="125" x="219.5" y="77.7408">update_time_ms : bigint</text><ellipse cx="210.5" cy="87.9638" fill="#000000" rx="3" ry="3" style="stroke:#000000;stroke-width:1.0;"/><text fill="#000000" font-family="sans-serif" font-size="11" lengthAdjust="spacing" textLength="116" x="219.5" y="92.7227">fk_forward_url_id : int</text><ellipse cx="210.5" cy="102.9457" fill="#000000" rx="3" ry="3" style="stroke:#000000;stroke-width:1.0;"/><text fill="#000000" font-family="sans-serif" font-size="11" lengthAdjust="spacing" textLength="105" x="219.5" y="107.7046">fk_source_id : bigint</text><ellipse cx="210.5" cy="117.9276" fill="#000000" rx="3" ry="3" style="stroke:#000000;stroke-width:1.0;"/><text fill="#000000" font-family="sans-serif" font-size="11" lengthAdjust="spacing" textLength="90" x="219.5" y="122.6865">success : boolean</text><ellipse cx="210.5" cy="132.9094" fill="#000000" rx="3" ry="3" style="stroke:#000000;stroke-width:1.0;"/><text fill="#000000" font-family="sans-serif" font-size="11" lengthAdjust="spacing" textLength="101" x="219.5" y="137.6684">error : varchar(255)</text><ellipse cx="210.5" cy="147.8913" fill="#000000" rx="3" ry="3" style="stroke:#000000;stroke-width:1.0;"/><text fill="#000000" font-family="sans-serif" font-size="11" lengthAdjust="spacing" textLength="63" x="219.5" y="152.6502">tries : bigint</text><ellipse cx="210.5" cy="162.8732" fill="#000000" rx="3" ry="3" style="stroke:#000000;stroke-width:1.0;"/><text fill="#000000" font-family="sans-serif" font-size="11" lengthAdjust="spacing" textLength="110" x="219.5" y="167.6321">new_position : bigint</text><ellipse cx="210.5" cy="177.8551" fill="#000000" rx="3" ry="3" style="stroke:#000000;stroke-width:1.0;"/><text fill="#000000" font-family="sans-serif" font-size="11" lengthAdjust="spacing" textLength="114" x="219.5" y="182.614">retry_position : bigint</text><!--MD5=[8fc0b909dc2d6f9332fdd45de385bd9e]
link feed to source--><path codeLine="41" d="M86,153.26 C86,153.26 86,241.69 86,241.69 " fill="none" id="feed-source" style="stroke:#A80036;stroke-width:1.0;"/><line style="stroke:#A80036;stroke-width:1.0;" x1="86" x2="92" y1="241.69" y2="249.69"/><line style="stroke:#A80036;stroke-width:1.0;" x1="86" x2="80" y1="241.69" y2="249.69"/><line style="stroke:#A80036;stroke-width:1.0;" x1="86" x2="86" y1="241.69" y2="249.69"/><line style="stroke:#A80036;stroke-width:1.0;" x1="90" x2="82" y1="239.69" y2="239.69"/><line style="stroke:#A80036;stroke-width:1.0;" x1="82" x2="90" y1="149.26" y2="149.26"/><line style="stroke:#A80036;stroke-width:1.0;" x1="82" x2="90" y1="152.26" y2="152.26"/><line style="stroke:#A80036;stroke-width:1.0;" x1="86" x2="86" y1="153.26" y2="145.26"/><!--MD5=[237522a801e7bb9308fa36e58d02c106]
link forward_source to forward_url--><path codeLine="43" d="M275,198.1 C275,198.1 275,271.84 275,271.84 " fill="none" id="forward_source-forward_url" style="stroke:#A80036;stroke-width:1.0;"/><line style="stroke:#A80036;stroke-width:1.0;" x1="279" x2="271" y1="275.84" y2="275.84"/><line style="stroke:#A80036;stroke-width:1.0;" x1="279" x2="271" y1="272.84" y2="272.84"/><line style="stroke:#A80036;stroke-width:1.0;" x1="275" x2="275" y1="271.84" y2="279.84"/><line style="stroke:#A80036;stroke-width:1.0;" x1="275" x2="269" y1="198.1" y2="190.1"/><line style="stroke:#A80036;stroke-width:1.0;" x1="275" x2="281" y1="198.1" y2="190.1"/><line style="stroke:#A80036;stroke-width:1.0;" x1="275" x2="275" y1="198.1" y2="190.1"/><ellipse cx="275" cy="204.1" rx="4" ry="4" style="stroke:#A80036;stroke-width:1.0;fill:none;"/><!--MD5=[d49f4a8229bc31f1f5d61244df6e6e3c]
link forward_source to source--><path codeLine="44" d="M208.75,198.03 C208.75,198.03 208.75,265 208.75,265 C208.75,265 185.16,265 185.16,265 " fill="none" id="forward_source-source" style="stroke:#A80036;stroke-width:1.0;stroke-dasharray:7.0,7.0;"/><line style="stroke:#A80036;stroke-width:1.0;" x1="181.16" x2="181.16" y1="269" y2="261"/><line style="stroke:#A80036;stroke-width:1.0;" x1="184.16" x2="184.16" y1="269" y2="261"/><line style="stroke:#A80036;stroke-width:1.0;" x1="185.16" x2="177.16" y1="265" y2="265"/><line style="stroke:#A80036;stroke-width:1.0;" x1="208.75" x2="202.75" y1="198.03" y2="190.03"/><line style="stroke:#A80036;stroke-width:1.0;" x1="208.75" x2="214.75" y1="198.03" y2="190.03"/><line style="stroke:#A80036;stroke-width:1.0;" x1="208.75" x2="208.75" y1="198.03" y2="190.03"/><ellipse cx="208.75" cy="204.03" rx="4" ry="4" style="stroke:#A80036;stroke-width:1.0;fill:none;"/><!--MD5=[3120dc6678bc57e1d3c297786643e3bd]
@startuml

' avoid problems with angled crows feet
skinparam linetype ortho

entity feed {
  *id : bigint
  - -
  *feed_name : varchar(255)
  *type_name : varchar(255)
}

entity source {
  *id : bigint
  - -
  *path : varchar(255) - unique
  *fk_feed_id : bigint
  examined : boolean
  *forwarded : boolean
  *new_position : bigint
}

entity forward_url {
  *id : int
  - -
  *url : varchar(255)
}

entity forward_source {
  *id : bigint
  - -
  *update_time_ms : bigint
  *fk_forward_url_id : int
  *fk_source_id : bigint
  *success : boolean
  *error : varchar(255)
  *tries : bigint
  *new_position : bigint
  *retry_position : bigint
}

feed ||- -|{ source

forward_source }o- -|| forward_url
forward_source }o..|| source

@enduml

@startuml

skinparam linetype ortho

entity feed {
  *id : bigint
  - -
  *feed_name : varchar(255)
  *type_name : varchar(255)
}

entity source {
  *id : bigint
  - -
  *path : varchar(255) - unique
  *fk_feed_id : bigint
  examined : boolean
  *forwarded : boolean
  *new_position : bigint
}

entity forward_url {
  *id : int
  - -
  *url : varchar(255)
}

entity forward_source {
  *id : bigint
  - -
  *update_time_ms : bigint
  *fk_forward_url_id : int
  *fk_source_id : bigint
  *success : boolean
  *error : varchar(255)
  *tries : bigint
  *new_position : bigint
  *retry_position : bigint
}

feed ||- -|{ source

forward_source }o- -|| forward_url
forward_source }o..|| source

@enduml

PlantUML version 1.2021.16(Wed Dec 08 17:25:22 GMT 2021)
(GPL source distribution)
Java Runtime: OpenJDK Runtime Environment
JVM: OpenJDK 64-Bit Server VM
Default Encoding: UTF-8
Language: en
Country: GB
--></g></svg>