<?xml version="1.0" encoding="us-ascii" standalone="no"?><!--
  - Copyright 2016-2025 Crown Copyright
  -
  - Licensed under the Apache License, Version 2.0 (the "License");
  - you may not use this file except in compliance with the License.
  - You may obtain a copy of the License at
  -
  -     http://www.apache.org/licenses/LICENSE-2.0
  -
  - Unless required by applicable law or agreed to in writing, software
  - distributed under the License is distributed on an "AS IS" BASIS,
  - WITHOUT WARRANTIES OR CONDITIONS OF ANY KIND, either express or implied.
  - See the License for the specific language governing permissions and
  - limitations under the License.
  -->

<svg xmlns="http://www.w3.org/2000/svg" xmlns:xlink="http://www.w3.org/1999/xlink" contentStyleType="text/css" height="414px" preserveAspectRatio="none" style="width:447px;height:414px;background:#FFFFFF;" version="1.1" viewBox="0 0 447 414" width="447px" zoomAndPan="magnify"><defs/><g><!--class feed--><g id="elem_feed"><rect codeLine="5" fill="#F1F1F1" height="96.8906" id="feed" rx="2.5" ry="2.5" style="stroke:#181818;stroke-width:0.5;" width="203" x="11.5" y="55.89"/><ellipse cx="93.25" cy="71.89" fill="#ADD1B2" rx="11" ry="11" style="stroke:#181818;stroke-width:1.0;"/><path d="M97.3594,77.89 L89.6406,77.89 L89.6406,65.4994 L97.3594,65.4994 L97.3594,67.6556 L92.0938,67.6556 L92.0938,70.3275 L96.8594,70.3275 L96.8594,72.4837 L92.0938,72.4837 L92.0938,75.7337 L97.3594,75.7337 L97.3594,77.89 Z " fill="#000000"/><text fill="#000000" font-family="sans-serif" font-size="14" lengthAdjust="spacing" textLength="31" x="113.75" y="76.7367">feed</text><line style="stroke:#181818;stroke-width:0.5;" x1="12.5" x2="213.5" y1="87.89" y2="87.89"/><ellipse cx="22.5" cy="101.5384" fill="#000000" rx="3" ry="3" style="stroke:#000000;stroke-width:1.0;"/><text fill="#000000" font-family="sans-serif" font-size="14" lengthAdjust="spacing" textLength="63" x="31.5" y="104.8851">id : bigint</text><line style="stroke:#181818;stroke-width:1.0;" x1="12.5" x2="213.5" y1="112.1869" y2="112.1869"/><ellipse cx="22.5" cy="125.8353" fill="#000000" rx="3" ry="3" style="stroke:#000000;stroke-width:1.0;"/><text fill="#000000" font-family="sans-serif" font-size="14" lengthAdjust="spacing" textLength="177" x="31.5" y="129.182">feed_name : varchar(255)</text><ellipse cx="22.5" cy="142.1322" fill="#000000" rx="3" ry="3" style="stroke:#000000;stroke-width:1.0;"/><text fill="#000000" font-family="sans-serif" font-size="14" lengthAdjust="spacing" textLength="176" x="31.5" y="145.4789">type_name : varchar(255)</text></g><!--class source--><g id="elem_source"><rect codeLine="12" fill="#F1F1F1" height="145.7813" id="source" rx="2.5" ry="2.5" style="stroke:#181818;stroke-width:0.5;" width="218" x="7" y="261.67"/><ellipse cx="87.75" cy="277.67" fill="#ADD1B2" rx="11" ry="11" style="stroke:#181818;stroke-width:1.0;"/><path d="M91.8594,283.67 L84.1406,283.67 L84.1406,271.2794 L91.8594,271.2794 L91.8594,273.4356 L86.5938,273.4356 L86.5938,276.1075 L91.3594,276.1075 L91.3594,278.2638 L86.5938,278.2638 L86.5938,281.5138 L91.8594,281.5138 L91.8594,283.67 Z " fill="#000000"/><text fill="#000000" font-family="sans-serif" font-size="14" lengthAdjust="spacing" textLength="48" x="108.25" y="282.5167">source</text><line style="stroke:#181818;stroke-width:0.5;" x1="8" x2="224" y1="293.67" y2="293.67"/><ellipse cx="18" cy="307.3184" fill="#000000" rx="3" ry="3" style="stroke:#000000;stroke-width:1.0;"/><text fill="#000000" font-family="sans-serif" font-size="14" lengthAdjust="spacing" textLength="63" x="27" y="310.6651">id : bigint</text><line style="stroke:#181818;stroke-width:1.0;" x1="8" x2="224" y1="317.9669" y2="317.9669"/><ellipse cx="18" cy="331.6153" fill="#000000" rx="3" ry="3" style="stroke:#000000;stroke-width:1.0;"/><text fill="#000000" font-family="sans-serif" font-size="14" lengthAdjust="spacing" textLength="192" x="27" y="334.962">path : varchar(255) - unique</text><ellipse cx="18" cy="347.9122" fill="#000000" rx="3" ry="3" style="stroke:#000000;stroke-width:1.0;"/><text fill="#000000" font-family="sans-serif" font-size="14" lengthAdjust="spacing" textLength="120" x="27" y="351.2589">fk_feed_id : bigint</text><text fill="#000000" font-family="sans-serif" font-size="14" lengthAdjust="spacing" textLength="136" x="27" y="367.5557">examined : boolean</text><ellipse cx="18" cy="380.5059" fill="#000000" rx="3" ry="3" style="stroke:#000000;stroke-width:1.0;"/><text fill="#000000" font-family="sans-serif" font-size="14" lengthAdjust="spacing" textLength="139" x="27" y="383.8526">item_count : integer</text><ellipse cx="18" cy="396.8028" fill="#000000" rx="3" ry="3" style="stroke:#000000;stroke-width:1.0;"/><text fill="#000000" font-family="sans-serif" font-size="14" lengthAdjust="spacing" textLength="142" x="27" y="400.1495">new_position : bigint</text></g><!--class forward_dest--><g id="elem_forward_dest"><rect codeLine="22" fill="#F1F1F1" height="80.5938" id="forward_dest" rx="2.5" ry="2.5" style="stroke:#181818;stroke-width:0.5;" width="165" x="262.5" y="294.26"/><ellipse cx="297.3" cy="310.26" fill="#ADD1B2" rx="11" ry="11" style="stroke:#181818;stroke-width:1.0;"/><path d="M301.4094,316.26 L293.6906,316.26 L293.6906,303.8694 L301.4094,303.8694 L301.4094,306.0256 L296.1438,306.0256 L296.1438,308.6975 L300.9094,308.6975 L300.9094,310.8538 L296.1438,310.8538 L296.1438,314.1038 L301.4094,314.1038 L301.4094,316.26 Z " fill="#000000"/><text fill="#000000" font-family="sans-serif" font-size="14" lengthAdjust="spacing" textLength="89" x="315.7" y="315.1067">forward_dest</text><line style="stroke:#181818;stroke-width:0.5;" x1="263.5" x2="426.5" y1="326.26" y2="326.26"/><ellipse cx="273.5" cy="339.9084" fill="#000000" rx="3" ry="3" style="stroke:#000000;stroke-width:1.0;"/><text fill="#000000" font-family="sans-serif" font-size="14" lengthAdjust="spacing" textLength="42" x="282.5" y="343.2551">id : int</text><line style="stroke:#181818;stroke-width:1.0;" x1="263.5" x2="426.5" y1="350.5569" y2="350.5569"/><ellipse cx="273.5" cy="364.2053" fill="#000000" rx="3" ry="3" style="stroke:#000000;stroke-width:1.0;"/><text fill="#000000" font-family="sans-serif" font-size="14" lengthAdjust="spacing" textLength="139" x="282.5" y="367.552">name : varchar(255)</text></g><!--class forward_source--><g id="elem_forward_source"><rect codeLine="28" fill="#F1F1F1" height="194.6719" id="forward_source" rx="2.5" ry="2.5" style="stroke:#181818;stroke-width:0.5;" width="191" x="249.5" y="7"/><ellipse cx="288.35" cy="23" fill="#ADD1B2" rx="11" ry="11" style="stroke:#181818;stroke-width:1.0;"/><path d="M292.4594,29 L284.7406,29 L284.7406,16.6094 L292.4594,16.6094 L292.4594,18.7656 L287.1938,18.7656 L287.1938,21.4375 L291.9594,21.4375 L291.9594,23.5938 L287.1938,23.5938 L287.1938,26.8438 L292.4594,26.8438 L292.4594,29 Z " fill="#000000"/><text fill="#000000" font-family="sans-serif" font-size="14" lengthAdjust="spacing" textLength="106" x="307.65" y="27.8467">forward_source</text><line style="stroke:#181818;stroke-width:0.5;" x1="250.5" x2="439.5" y1="39" y2="39"/><ellipse cx="260.5" cy="52.6484" fill="#000000" rx="3" ry="3" style="stroke:#000000;stroke-width:1.0;"/><text fill="#000000" font-family="sans-serif" font-size="14" lengthAdjust="spacing" textLength="63" x="269.5" y="55.9951">id : bigint</text><line style="stroke:#181818;stroke-width:1.0;" x1="250.5" x2="439.5" y1="63.2969" y2="63.2969"/><ellipse cx="260.5" cy="76.9453" fill="#000000" rx="3" ry="3" style="stroke:#000000;stroke-width:1.0;"/><text fill="#000000" font-family="sans-serif" font-size="14" lengthAdjust="spacing" textLength="165" x="269.5" y="80.292">update_time_ms : bigint</text><ellipse cx="260.5" cy="93.2422" fill="#000000" rx="3" ry="3" style="stroke:#000000;stroke-width:1.0;"/><text fill="#000000" font-family="sans-serif" font-size="14" lengthAdjust="spacing" textLength="157" x="269.5" y="96.5889">fk_forward_dest_id : int</text><ellipse cx="260.5" cy="109.5391" fill="#000000" rx="3" ry="3" style="stroke:#000000;stroke-width:1.0;"/><text fill="#000000" font-family="sans-serif" font-size="14" lengthAdjust="spacing" textLength="137" x="269.5" y="112.8857">fk_source_id : bigint</text><ellipse cx="260.5" cy="125.8359" fill="#000000" rx="3" ry="3" style="stroke:#000000;stroke-width:1.0;"/><text fill="#000000" font-family="sans-serif" font-size="14" lengthAdjust="spacing" textLength="127" x="269.5" y="129.1826">success : boolean</text><ellipse cx="260.5" cy="142.1328" fill="#000000" rx="3" ry="3" style="stroke:#000000;stroke-width:1.0;"/><text fill="#000000" font-family="sans-serif" font-size="14" lengthAdjust="spacing" textLength="133" x="269.5" y="145.4795">error : varchar(255)</text><ellipse cx="260.5" cy="158.4297" fill="#000000" rx="3" ry="3" style="stroke:#000000;stroke-width:1.0;"/><text fill="#000000" font-family="sans-serif" font-size="14" lengthAdjust="spacing" textLength="81" x="269.5" y="161.7764">tries : bigint</text><ellipse cx="260.5" cy="174.7266" fill="#000000" rx="3" ry="3" style="stroke:#000000;stroke-width:1.0;"/><text fill="#000000" font-family="sans-serif" font-size="14" lengthAdjust="spacing" textLength="142" x="269.5" y="178.0732">new_position : bigint</text><ellipse cx="260.5" cy="191.0234" fill="#000000" rx="3" ry="3" style="stroke:#000000;stroke-width:1.0;"/><text fill="#000000" font-family="sans-serif" font-size="14" lengthAdjust="spacing" textLength="144" x="269.5" y="194.3701">retry_position : bigint</text></g><!--link feed to source--><g id="link_feed_source"><path codeLine="41" d="M113,162.67 C113,162.67 113,251.79 113,251.79 " fill="none" id="feed-source" style="stroke:#181818;stroke-width:1.0;"/><line style="stroke:#181818;stroke-width:1.0;" x1="109" x2="117" y1="158.67" y2="158.67"/><line style="stroke:#181818;stroke-width:1.0;" x1="109" x2="117" y1="161.67" y2="161.67"/><line style="stroke:#181818;stroke-width:1.0;" x1="113" x2="113" y1="162.67" y2="154.67"/><line style="stroke:#181818;stroke-width:1.0;" x1="113" x2="119" y1="251.79" y2="259.79"/><line style="stroke:#181818;stroke-width:1.0;" x1="113" x2="107" y1="251.79" y2="259.79"/><line style="stroke:#181818;stroke-width:1.0;" x1="113" x2="113" y1="251.79" y2="259.79"/><line style="stroke:#181818;stroke-width:1.0;" x1="117" x2="109" y1="249.79" y2="249.79"/></g><!--link forward_source to forward_dest--><g id="link_forward_source_forward_dest"><path codeLine="43" d="M345,211.48 C345,211.48 345,284.34 345,284.34 " fill="none" id="forward_source-forward_dest" style="stroke:#181818;stroke-width:1.0;"/><line style="stroke:#181818;stroke-width:1.0;" x1="345" x2="339" y1="211.48" y2="203.48"/><line style="stroke:#181818;stroke-width:1.0;" x1="345" x2="351" y1="211.48" y2="203.48"/><line style="stroke:#181818;stroke-width:1.0;" x1="345" x2="345" y1="211.48" y2="203.48"/><ellipse cx="345" cy="217.48" fill="none" rx="4" ry="4" style="stroke:#181818;stroke-width:1.0;"/><line style="stroke:#181818;stroke-width:1.0;" x1="349" x2="341" y1="288.34" y2="288.34"/><line style="stroke:#181818;stroke-width:1.0;" x1="349" x2="341" y1="285.34" y2="285.34"/><line style="stroke:#181818;stroke-width:1.0;" x1="345" x2="345" y1="284.34" y2="292.34"/></g><!--link forward_source to source--><g id="link_forward_source_source"><path codeLine="44" d="M256,211.59 C256,211.59 256,278.45 256,278.45 C256,278.45 234.79,278.45 234.79,278.45 " fill="none" id="forward_source-source" style="stroke:#181818;stroke-width:1.0;stroke-dasharray:7.0,7.0;"/><line style="stroke:#181818;stroke-width:1.0;" x1="256" x2="250" y1="211.59" y2="203.59"/><line style="stroke:#181818;stroke-width:1.0;" x1="256" x2="262" y1="211.59" y2="203.59"/><line style="stroke:#181818;stroke-width:1.0;" x1="256" x2="256" y1="211.59" y2="203.59"/><ellipse cx="256" cy="217.59" fill="none" rx="4" ry="4" style="stroke:#181818;stroke-width:1.0;"/><line style="stroke:#181818;stroke-width:1.0;" x1="230.79" x2="230.79" y1="282.45" y2="274.45"/><line style="stroke:#181818;stroke-width:1.0;" x1="233.79" x2="233.79" y1="282.45" y2="274.45"/><line style="stroke:#181818;stroke-width:1.0;" x1="234.79" x2="226.79" y1="278.45" y2="278.45"/></g><!--SRC=[XL91KiCm3Bpd5Re1dKaFpFJ2PpnghAQU9bQGvOPCqxzZXq8J273qhhpUNVa1yCpEGYUyRwWDq3iz0lgw8GkLS1_WGAH5E3dVeM0BZVEaGqV0eaSk2lBgTCXJ5Yu5m2QflS3UrSvhEfPbnZ9hFBQKg3DATKHvVDxjdZANnLQvwvTuu2WL_IxVOJAzl0qbHEzU8qtFdypaO7cNth1DOIQCkI7qaxvIQogENXEU1gacoRYdtdGSd3hsTvMxnmDBZsADfQ0pftERVuVy5FWlREmiAXbrBPcqi1a_vPpPC3C7cVjG_jR29iIgeX2MBP08ozgonD7opVLU4Y6aCgnNDdsMSIpByNBRRSAMyQ-Ss77Hwi-HxJQDt0JU0G00]--></g></svg>
