<?xml version="1.0" encoding="UTF-8" standalone="no"?><svg xmlns="http://www.w3.org/2000/svg" xmlns:xlink="http://www.w3.org/1999/xlink" contentStyleType="text/css" height="919px" preserveAspectRatio="none" style="width:710px;height:919px;background:#FFFFFF;" version="1.1" viewBox="0 0 710 919" width="710px" zoomAndPan="magnify"><defs/><g><!--MD5=[a89e013394a4179b87aacb584f03bea5]
class feed--><g id="elem_feed"><rect codeLine="5" fill="#F1F1F1" height="105.2038" id="feed" rx="2.5" ry="2.5" style="stroke:#181818;stroke-width:0.5;" width="195" x="176" y="64.5"/><ellipse cx="254.25" cy="80.5" fill="#ADD1B2" rx="11" ry="11" style="stroke:#181818;stroke-width:1.0;"/><path d="M250.6094,87 L250.6094,74.8594 L258.2656,74.8594 L258.2656,76.9844 L252.9844,76.9844 L252.9844,79.6406 L258,79.6406 L258,81.7656 L252.9844,81.7656 L252.9844,84.875 L258.2656,84.875 L258.2656,87 L250.6094,87 Z " fill="#000000"/><text fill="#000000" font-family="sans-serif" font-size="14" lengthAdjust="spacing" textLength="30" x="274.75" y="85.932">feed</text><line style="stroke:#181818;stroke-width:0.5;" x1="177" x2="370" y1="96.5" y2="96.5"/><ellipse cx="187" cy="107.5" fill="#000000" rx="3" ry="3" style="stroke:#000000;stroke-width:1.0;"/><text fill="#000000" font-family="sans-serif" font-size="14" lengthAdjust="spacing" textLength="65" x="196" y="115.4659">id : bigint</text><line style="stroke:#181818;stroke-width:1.0;" x1="177" x2="370" y1="123.5679" y2="123.5679"/><ellipse cx="187" cy="134.5679" fill="#000000" rx="3" ry="3" style="stroke:#000000;stroke-width:1.0;"/><text fill="#000000" font-family="sans-serif" font-size="14" lengthAdjust="spacing" textLength="169" x="196" y="142.5339">feed_name : varchar(255)</text><ellipse cx="187" cy="153.6358" fill="#000000" rx="3" ry="3" style="stroke:#000000;stroke-width:1.0;"/><text fill="#000000" font-family="sans-serif" font-size="14" lengthAdjust="spacing" textLength="168" x="196" y="161.6018">type_name : varchar(255)</text></g><!--MD5=[fb94403e3d3521d383fd6507b67b3642]
class source--><g id="elem_source"><rect codeLine="12" fill="#F1F1F1" height="162.4075" id="source" rx="2.5" ry="2.5" style="stroke:#181818;stroke-width:0.5;" width="213" x="7" y="296.5"/><ellipse cx="86.75" cy="312.5" fill="#ADD1B2" rx="11" ry="11" style="stroke:#181818;stroke-width:1.0;"/><path d="M83.1094,319 L83.1094,306.8594 L90.7656,306.8594 L90.7656,308.9844 L85.4844,308.9844 L85.4844,311.6406 L90.5,311.6406 L90.5,313.7656 L85.4844,313.7656 L85.4844,316.875 L90.7656,316.875 L90.7656,319 L83.1094,319 Z " fill="#000000"/><text fill="#000000" font-family="sans-serif" font-size="14" lengthAdjust="spacing" textLength="45" x="107.25" y="317.932">source</text><line style="stroke:#181818;stroke-width:0.5;" x1="8" x2="219" y1="328.5" y2="328.5"/><ellipse cx="18" cy="339.5" fill="#000000" rx="3" ry="3" style="stroke:#000000;stroke-width:1.0;"/><text fill="#000000" font-family="sans-serif" font-size="14" lengthAdjust="spacing" textLength="65" x="27" y="347.4659">id : bigint</text><line style="stroke:#181818;stroke-width:1.0;" x1="8" x2="219" y1="355.5679" y2="355.5679"/><ellipse cx="18" cy="366.5679" fill="#000000" rx="3" ry="3" style="stroke:#000000;stroke-width:1.0;"/><text fill="#000000" font-family="sans-serif" font-size="14" lengthAdjust="spacing" textLength="187" x="27" y="374.5339">path : varchar(255) - unique</text><ellipse cx="18" cy="385.6358" fill="#000000" rx="3" ry="3" style="stroke:#000000;stroke-width:1.0;"/><text fill="#000000" font-family="sans-serif" font-size="14" lengthAdjust="spacing" textLength="119" x="27" y="393.6018">fk_feed_id : bigint</text><ellipse cx="18" cy="404.7038" fill="#000000" rx="3" ry="3" style="stroke:#000000;stroke-width:1.0;"/><text fill="#000000" font-family="sans-serif" font-size="14" lengthAdjust="spacing" textLength="132" x="27" y="412.6697">examined : boolean</text><ellipse cx="18" cy="423.7717" fill="#000000" rx="3" ry="3" style="stroke:#000000;stroke-width:1.0;"/><text fill="#000000" font-family="sans-serif" font-size="14" lengthAdjust="spacing" textLength="135" x="27" y="431.7376">item_count : integer</text><ellipse cx="18" cy="442.8396" fill="#000000" rx="3" ry="3" style="stroke:#000000;stroke-width:1.0;"/><text fill="#000000" font-family="sans-serif" font-size="14" lengthAdjust="spacing" textLength="140" x="27" y="450.8055">new_position : bigint</text></g><!--MD5=[23693ca385c1414b1e74e8b4c3b37cb4]
class source_item--><g id="elem_source_item"><rect codeLine="22" fill="#F1F1F1" height="181.4754" id="source_item" rx="2.5" ry="2.5" style="stroke:#181818;stroke-width:0.5;" width="185" x="181" y="528"/><ellipse cx="228.75" cy="544" fill="#ADD1B2" rx="11" ry="11" style="stroke:#181818;stroke-width:1.0;"/><path d="M225.1094,550.5 L225.1094,538.3594 L232.7656,538.3594 L232.7656,540.4844 L227.4844,540.4844 L227.4844,543.1406 L232.5,543.1406 L232.5,545.2656 L227.4844,545.2656 L227.4844,548.375 L232.7656,548.375 L232.7656,550.5 L225.1094,550.5 Z " fill="#000000"/><text fill="#000000" font-family="sans-serif" font-size="14" lengthAdjust="spacing" textLength="81" x="249.25" y="549.432">source_item</text><line style="stroke:#181818;stroke-width:0.5;" x1="182" x2="365" y1="560" y2="560"/><ellipse cx="192" cy="571" fill="#000000" rx="3" ry="3" style="stroke:#000000;stroke-width:1.0;"/><text fill="#000000" font-family="sans-serif" font-size="14" lengthAdjust="spacing" textLength="65" x="201" y="578.9659">id : bigint</text><line style="stroke:#181818;stroke-width:1.0;" x1="182" x2="365" y1="587.0679" y2="587.0679"/><ellipse cx="192" cy="598.0679" fill="#000000" rx="3" ry="3" style="stroke:#000000;stroke-width:1.0;"/><text fill="#000000" font-family="sans-serif" font-size="14" lengthAdjust="spacing" textLength="133" x="201" y="606.0339">name : varchar(255)</text><ellipse cx="192" cy="617.1358" fill="#000000" rx="3" ry="3" style="stroke:#000000;stroke-width:1.0;"/><text fill="#000000" font-family="sans-serif" font-size="14" lengthAdjust="spacing" textLength="119" x="201" y="625.1018">fk_feed_id : bigint</text><ellipse cx="192" cy="636.2038" fill="#000000" rx="3" ry="3" style="stroke:#000000;stroke-width:1.0;"/><text fill="#000000" font-family="sans-serif" font-size="14" lengthAdjust="spacing" textLength="113" x="201" y="644.1697">byte_size : bigint</text><ellipse cx="192" cy="655.2717" fill="#000000" rx="3" ry="3" style="stroke:#000000;stroke-width:1.0;"/><text fill="#000000" font-family="sans-serif" font-size="14" lengthAdjust="spacing" textLength="134" x="201" y="663.2376">fk_source_id : bigint</text><ellipse cx="192" cy="674.3396" fill="#000000" rx="3" ry="3" style="stroke:#000000;stroke-width:1.0;"/><text fill="#000000" font-family="sans-serif" font-size="14" lengthAdjust="spacing" textLength="159" x="201" y="682.3055">fk_aggregate_id : bigint</text><ellipse cx="192" cy="693.4075" fill="#000000" rx="3" ry="3" style="stroke:#000000;stroke-width:1.0;"/><text fill="#000000" font-family="sans-serif" font-size="14" lengthAdjust="spacing" textLength="140" x="201" y="701.3734">new_position : bigint</text></g><!--MD5=[920d5660a06730163c0204a2780a33ae]
class source_entry--><g id="elem_source_entry"><rect codeLine="33" fill="#F1F1F1" height="143.3396" id="source_entry" rx="2.5" ry="2.5" style="stroke:#181818;stroke-width:0.5;" width="196" x="175.5" y="769"/><ellipse cx="226.25" cy="785" fill="#ADD1B2" rx="11" ry="11" style="stroke:#181818;stroke-width:1.0;"/><path d="M222.6094,791.5 L222.6094,779.3594 L230.2656,779.3594 L230.2656,781.4844 L224.9844,781.4844 L224.9844,784.1406 L230,784.1406 L230,786.2656 L224.9844,786.2656 L224.9844,789.375 L230.2656,789.375 L230.2656,791.5 L222.6094,791.5 Z " fill="#000000"/><text fill="#000000" font-family="sans-serif" font-size="14" lengthAdjust="spacing" textLength="86" x="246.75" y="790.432">source_entry</text><line style="stroke:#181818;stroke-width:0.5;" x1="176.5" x2="370.5" y1="801" y2="801"/><ellipse cx="186.5" cy="812" fill="#000000" rx="3" ry="3" style="stroke:#000000;stroke-width:1.0;"/><text fill="#000000" font-family="sans-serif" font-size="14" lengthAdjust="spacing" textLength="65" x="195.5" y="819.9659">id : bigint</text><line style="stroke:#181818;stroke-width:1.0;" x1="176.5" x2="370.5" y1="828.0679" y2="828.0679"/><ellipse cx="186.5" cy="839.0679" fill="#000000" rx="3" ry="3" style="stroke:#000000;stroke-width:1.0;"/><text fill="#000000" font-family="sans-serif" font-size="14" lengthAdjust="spacing" textLength="160" x="195.5" y="847.0339">extension : varchar(255)</text><ellipse cx="186.5" cy="858.1358" fill="#000000" rx="3" ry="3" style="stroke:#000000;stroke-width:1.0;"/><text fill="#000000" font-family="sans-serif" font-size="14" lengthAdjust="spacing" textLength="130" x="195.5" y="866.1018">extension_type : int</text><ellipse cx="186.5" cy="877.2038" fill="#000000" rx="3" ry="3" style="stroke:#000000;stroke-width:1.0;"/><text fill="#000000" font-family="sans-serif" font-size="14" lengthAdjust="spacing" textLength="113" x="195.5" y="885.1697">byte_size : bigint</text><ellipse cx="186.5" cy="896.2717" fill="#000000" rx="3" ry="3" style="stroke:#000000;stroke-width:1.0;"/><text fill="#000000" font-family="sans-serif" font-size="14" lengthAdjust="spacing" textLength="170" x="195.5" y="904.2376">fk_source_item_id : bigint</text></g><!--MD5=[1ef907470190a52481b72bc04299235e]
class aggregate--><g id="elem_aggregate"><rect codeLine="42" fill="#F1F1F1" height="181.4754" id="aggregate" rx="2.5" ry="2.5" style="stroke:#181818;stroke-width:0.5;" width="182" x="326.5" y="287"/><ellipse cx="378.25" cy="303" fill="#ADD1B2" rx="11" ry="11" style="stroke:#181818;stroke-width:1.0;"/><path d="M374.6094,309.5 L374.6094,297.3594 L382.2656,297.3594 L382.2656,299.4844 L376.9844,299.4844 L376.9844,302.1406 L382,302.1406 L382,304.2656 L376.9844,304.2656 L376.9844,307.375 L382.2656,307.375 L382.2656,309.5 L374.6094,309.5 Z " fill="#000000"/><text fill="#000000" font-family="sans-serif" font-size="14" lengthAdjust="spacing" textLength="70" x="398.75" y="308.432">aggregate</text><line style="stroke:#181818;stroke-width:0.5;" x1="327.5" x2="507.5" y1="319" y2="319"/><ellipse cx="337.5" cy="330" fill="#000000" rx="3" ry="3" style="stroke:#000000;stroke-width:1.0;"/><text fill="#000000" font-family="sans-serif" font-size="14" lengthAdjust="spacing" textLength="65" x="346.5" y="337.9659">id : bigint</text><line style="stroke:#181818;stroke-width:1.0;" x1="327.5" x2="507.5" y1="346.0679" y2="346.0679"/><ellipse cx="337.5" cy="357.0679" fill="#000000" rx="3" ry="3" style="stroke:#000000;stroke-width:1.0;"/><text fill="#000000" font-family="sans-serif" font-size="14" lengthAdjust="spacing" textLength="156" x="346.5" y="365.0339">create_time_ms : bigint</text><ellipse cx="337.5" cy="376.1358" fill="#000000" rx="3" ry="3" style="stroke:#000000;stroke-width:1.0;"/><text fill="#000000" font-family="sans-serif" font-size="14" lengthAdjust="spacing" textLength="119" x="346.5" y="384.1018">fk_feed_id : bigint</text><ellipse cx="337.5" cy="395.2038" fill="#000000" rx="3" ry="3" style="stroke:#000000;stroke-width:1.0;"/><text fill="#000000" font-family="sans-serif" font-size="14" lengthAdjust="spacing" textLength="113" x="346.5" y="403.1697">byte_size : bigint</text><ellipse cx="337.5" cy="414.2717" fill="#000000" rx="3" ry="3" style="stroke:#000000;stroke-width:1.0;"/><text fill="#000000" font-family="sans-serif" font-size="14" lengthAdjust="spacing" textLength="67" x="346.5" y="422.2376">items : int</text><ellipse cx="337.5" cy="433.3396" fill="#000000" rx="3" ry="3" style="stroke:#000000;stroke-width:1.0;"/><text fill="#000000" font-family="sans-serif" font-size="14" lengthAdjust="spacing" textLength="128" x="346.5" y="441.3055">complete : boolean</text><ellipse cx="337.5" cy="452.4075" fill="#000000" rx="3" ry="3" style="stroke:#000000;stroke-width:1.0;"/><text fill="#000000" font-family="sans-serif" font-size="14" lengthAdjust="spacing" textLength="140" x="346.5" y="460.3734">new_position : bigint</text></g><!--MD5=[9ec5b5fc933be4ccfb94bd357655b06c]
class forward_dest--><g id="elem_forward_dest"><rect codeLine="53" fill="#F1F1F1" height="86.1358" id="forward_dest" rx="2.5" ry="2.5" style="stroke:#181818;stroke-width:0.5;" width="159" x="544" y="334.5"/><ellipse cx="576.55" cy="350.5" fill="#ADD1B2" rx="11" ry="11" style="stroke:#181818;stroke-width:1.0;"/><path d="M572.9094,357 L572.9094,344.8594 L580.5656,344.8594 L580.5656,346.9844 L575.2844,346.9844 L575.2844,349.6406 L580.3,349.6406 L580.3,351.7656 L575.2844,351.7656 L575.2844,354.875 L580.5656,354.875 L580.5656,357 L572.9094,357 Z " fill="#000000"/><text fill="#000000" font-family="sans-serif" font-size="14" lengthAdjust="spacing" textLength="88" x="594.45" y="355.932">forward_dest</text><line style="stroke:#181818;stroke-width:0.5;" x1="545" x2="702" y1="366.5" y2="366.5"/><ellipse cx="555" cy="377.5" fill="#000000" rx="3" ry="3" style="stroke:#000000;stroke-width:1.0;"/><text fill="#000000" font-family="sans-serif" font-size="14" lengthAdjust="spacing" textLength="43" x="564" y="385.4659">id : int</text><line style="stroke:#181818;stroke-width:1.0;" x1="545" x2="702" y1="393.5679" y2="393.5679"/><ellipse cx="555" cy="404.5679" fill="#000000" rx="3" ry="3" style="stroke:#000000;stroke-width:1.0;"/><text fill="#000000" font-family="sans-serif" font-size="14" lengthAdjust="spacing" textLength="133" x="564" y="412.5339">name : varchar(255)</text></g><!--MD5=[d4f398bbc1193deb68c8428dcb929078]
class forward_aggregate--><g id="elem_forward_aggregate"><rect codeLine="59" fill="#F1F1F1" height="219.6113" id="forward_aggregate" rx="2.5" ry="2.5" style="stroke:#181818;stroke-width:0.5;" width="188" x="467.5" y="7"/><ellipse cx="494.65" cy="23" fill="#ADD1B2" rx="11" ry="11" style="stroke:#181818;stroke-width:1.0;"/><path d="M491.0094,29.5 L491.0094,17.3594 L498.6656,17.3594 L498.6656,19.4844 L493.3844,19.4844 L493.3844,22.1406 L498.4,22.1406 L498.4,24.2656 L493.3844,24.2656 L493.3844,27.375 L498.6656,27.375 L498.6656,29.5 L491.0094,29.5 Z " fill="#000000"/><text fill="#000000" font-family="sans-serif" font-size="14" lengthAdjust="spacing" textLength="129" x="511.35" y="28.432">forward_aggregate</text><line style="stroke:#181818;stroke-width:0.5;" x1="468.5" x2="654.5" y1="39" y2="39"/><ellipse cx="478.5" cy="50" fill="#000000" rx="3" ry="3" style="stroke:#000000;stroke-width:1.0;"/><text fill="#000000" font-family="sans-serif" font-size="14" lengthAdjust="spacing" textLength="65" x="487.5" y="57.9659">id : bigint</text><line style="stroke:#181818;stroke-width:1.0;" x1="468.5" x2="654.5" y1="66.0679" y2="66.0679"/><ellipse cx="478.5" cy="77.0679" fill="#000000" rx="3" ry="3" style="stroke:#000000;stroke-width:1.0;"/><text fill="#000000" font-family="sans-serif" font-size="14" lengthAdjust="spacing" textLength="162" x="487.5" y="85.0339">update_time_ms : bigint</text><ellipse cx="478.5" cy="96.1358" fill="#000000" rx="3" ry="3" style="stroke:#000000;stroke-width:1.0;"/><text fill="#000000" font-family="sans-serif" font-size="14" lengthAdjust="spacing" textLength="155" x="487.5" y="104.1018">fk_forward_dest_id : int</text><ellipse cx="478.5" cy="115.2038" fill="#000000" rx="3" ry="3" style="stroke:#000000;stroke-width:1.0;"/><text fill="#000000" font-family="sans-serif" font-size="14" lengthAdjust="spacing" textLength="159" x="487.5" y="123.1697">fk_aggregate_id : bigint</text><ellipse cx="478.5" cy="134.2717" fill="#000000" rx="3" ry="3" style="stroke:#000000;stroke-width:1.0;"/><text fill="#000000" font-family="sans-serif" font-size="14" lengthAdjust="spacing" textLength="118" x="487.5" y="142.2376">success : boolean</text><ellipse cx="478.5" cy="153.3396" fill="#000000" rx="3" ry="3" style="stroke:#000000;stroke-width:1.0;"/><text fill="#000000" font-family="sans-serif" font-size="14" lengthAdjust="spacing" textLength="129" x="487.5" y="161.3055">error : varchar(255)</text><ellipse cx="478.5" cy="172.4075" fill="#000000" rx="3" ry="3" style="stroke:#000000;stroke-width:1.0;"/><text fill="#000000" font-family="sans-serif" font-size="14" lengthAdjust="spacing" textLength="82" x="487.5" y="180.3734">tries : bigint</text><ellipse cx="478.5" cy="191.4754" fill="#000000" rx="3" ry="3" style="stroke:#000000;stroke-width:1.0;"/><text fill="#000000" font-family="sans-serif" font-size="14" lengthAdjust="spacing" textLength="140" x="487.5" y="199.4414">new_position : bigint</text><ellipse cx="478.5" cy="210.5433" fill="#000000" rx="3" ry="3" style="stroke:#000000;stroke-width:1.0;"/><text fill="#000000" font-family="sans-serif" font-size="14" lengthAdjust="spacing" textLength="144" x="487.5" y="218.5093">retry_position : bigint</text></g><!--MD5=[8fc0b909dc2d6f9332fdd45de385bd9e]
link feed to source--><g id="link_feed_source"><path codeLine="72" d="M198,177.72 C198,177.72 198,288.38 198,288.38 " fill="none" id="feed-source" style="stroke:#181818;stroke-width:1.0;"/><line style="stroke:#181818;stroke-width:1.0;" x1="198" x2="204" y1="288.38" y2="296.38"/><line style="stroke:#181818;stroke-width:1.0;" x1="198" x2="192" y1="288.38" y2="296.38"/><line style="stroke:#181818;stroke-width:1.0;" x1="198" x2="198" y1="288.38" y2="296.38"/><line style="stroke:#181818;stroke-width:1.0;" x1="202" x2="194" y1="286.38" y2="286.38"/><line style="stroke:#181818;stroke-width:1.0;" x1="194" x2="202" y1="173.72" y2="173.72"/><line style="stroke:#181818;stroke-width:1.0;" x1="194" x2="202" y1="176.72" y2="176.72"/><line style="stroke:#181818;stroke-width:1.0;" x1="198" x2="198" y1="177.72" y2="169.72"/></g><!--MD5=[11c2e13f815eb43a8199e329e64e3864]
link feed to source_item--><g id="link_feed_source_item"><path codeLine="73" d="M273.25,177.72 C273.25,177.72 273.25,519.69 273.25,519.69 " fill="none" id="feed-source_item" style="stroke:#181818;stroke-width:1.0;"/><line style="stroke:#181818;stroke-width:1.0;" x1="273.25" x2="279.25" y1="519.69" y2="527.69"/><line style="stroke:#181818;stroke-width:1.0;" x1="273.25" x2="267.25" y1="519.69" y2="527.69"/><line style="stroke:#181818;stroke-width:1.0;" x1="273.25" x2="273.25" y1="519.69" y2="527.69"/><line style="stroke:#181818;stroke-width:1.0;" x1="277.25" x2="269.25" y1="517.69" y2="517.69"/><line style="stroke:#181818;stroke-width:1.0;" x1="269.25" x2="277.25" y1="173.72" y2="173.72"/><line style="stroke:#181818;stroke-width:1.0;" x1="269.25" x2="277.25" y1="176.72" y2="176.72"/><line style="stroke:#181818;stroke-width:1.0;" x1="273.25" x2="273.25" y1="177.72" y2="169.72"/></g><!--MD5=[2216fa80f18d20d599bb2d67b2e757c8]
link feed to aggregate--><g id="link_feed_aggregate"><path codeLine="74" d="M348.75,177.72 C348.75,177.72 348.75,278.88 348.75,278.88 " fill="none" id="feed-aggregate" style="stroke:#181818;stroke-width:1.0;"/><line style="stroke:#181818;stroke-width:1.0;" x1="348.75" x2="354.75" y1="278.88" y2="286.88"/><line style="stroke:#181818;stroke-width:1.0;" x1="348.75" x2="342.75" y1="278.88" y2="286.88"/><line style="stroke:#181818;stroke-width:1.0;" x1="348.75" x2="348.75" y1="278.88" y2="286.88"/><line style="stroke:#181818;stroke-width:1.0;" x1="352.75" x2="344.75" y1="276.88" y2="276.88"/><line style="stroke:#181818;stroke-width:1.0;" x1="344.75" x2="352.75" y1="173.72" y2="173.72"/><line style="stroke:#181818;stroke-width:1.0;" x1="344.75" x2="352.75" y1="176.72" y2="176.72"/><line style="stroke:#181818;stroke-width:1.0;" x1="348.75" x2="348.75" y1="177.72" y2="169.72"/></g><!--MD5=[bde66a182555eb887059de8293221a83]
link source to source_item--><g id="link_source_source_item"><path codeLine="76" d="M200.5,466.76 C200.5,466.76 200.5,519.65 200.5,519.65 " fill="none" id="source-source_item" style="stroke:#181818;stroke-width:1.0;stroke-dasharray:7.0,7.0;"/><line style="stroke:#181818;stroke-width:1.0;" x1="200.5" x2="206.5" y1="519.65" y2="527.65"/><line style="stroke:#181818;stroke-width:1.0;" x1="200.5" x2="194.5" y1="519.65" y2="527.65"/><line style="stroke:#181818;stroke-width:1.0;" x1="200.5" x2="200.5" y1="519.65" y2="527.65"/><ellipse cx="200.5" cy="513.65" fill="none" rx="4" ry="4" style="stroke:#181818;stroke-width:1.0;"/><line style="stroke:#181818;stroke-width:1.0;" x1="196.5" x2="204.5" y1="462.76" y2="462.76"/><line style="stroke:#181818;stroke-width:1.0;" x1="196.5" x2="204.5" y1="465.76" y2="465.76"/><line style="stroke:#181818;stroke-width:1.0;" x1="200.5" x2="200.5" y1="466.76" y2="458.76"/></g><!--MD5=[6610028f0c7a0554f2085ee3824405a3]
link source_item to source_entry--><g id="link_source_item_source_entry"><path codeLine="77" d="M273.5,717.12 C273.5,717.12 273.5,760.86 273.5,760.86 " fill="none" id="source_item-source_entry" style="stroke:#181818;stroke-width:1.0;"/><line style="stroke:#181818;stroke-width:1.0;" x1="273.5" x2="279.5" y1="760.86" y2="768.86"/><line style="stroke:#181818;stroke-width:1.0;" x1="273.5" x2="267.5" y1="760.86" y2="768.86"/><line style="stroke:#181818;stroke-width:1.0;" x1="273.5" x2="273.5" y1="760.86" y2="768.86"/><line style="stroke:#181818;stroke-width:1.0;" x1="277.5" x2="269.5" y1="758.86" y2="758.86"/><line style="stroke:#181818;stroke-width:1.0;" x1="269.5" x2="277.5" y1="713.12" y2="713.12"/><line style="stroke:#181818;stroke-width:1.0;" x1="269.5" x2="277.5" y1="716.12" y2="716.12"/><line style="stroke:#181818;stroke-width:1.0;" x1="273.5" x2="273.5" y1="717.12" y2="709.12"/></g><!--MD5=[c19e3c6eb4e2962e1f79b15e01c56d18]
link aggregate to source_item--><g id="link_aggregate_source_item"><path codeLine="78" d="M346.25,476.27 C346.25,476.27 346.25,519.81 346.25,519.81 " fill="none" id="aggregate-source_item" style="stroke:#181818;stroke-width:1.0;"/><line style="stroke:#181818;stroke-width:1.0;" x1="346.25" x2="352.25" y1="519.81" y2="527.81"/><line style="stroke:#181818;stroke-width:1.0;" x1="346.25" x2="340.25" y1="519.81" y2="527.81"/><line style="stroke:#181818;stroke-width:1.0;" x1="346.25" x2="346.25" y1="519.81" y2="527.81"/><line style="stroke:#181818;stroke-width:1.0;" x1="350.25" x2="342.25" y1="517.81" y2="517.81"/><line style="stroke:#181818;stroke-width:1.0;" x1="342.25" x2="350.25" y1="472.27" y2="472.27"/><line style="stroke:#181818;stroke-width:1.0;" x1="342.25" x2="350.25" y1="475.27" y2="475.27"/><line style="stroke:#181818;stroke-width:1.0;" x1="346.25" x2="346.25" y1="476.27" y2="468.27"/></g><!--MD5=[899709fd871b185fa39e21df274ef805]
link forward_aggregate to forward_dest--><g id="link_forward_aggregate_forward_dest"><path codeLine="79" d="M599.75,235.1 C599.75,235.1 599.75,326.24 599.75,326.24 " fill="none" id="forward_aggregate-forward_dest" style="stroke:#181818;stroke-width:1.0;"/><line style="stroke:#181818;stroke-width:1.0;" x1="603.75" x2="595.75" y1="330.24" y2="330.24"/><line style="stroke:#181818;stroke-width:1.0;" x1="603.75" x2="595.75" y1="327.24" y2="327.24"/><line style="stroke:#181818;stroke-width:1.0;" x1="599.75" x2="599.75" y1="326.24" y2="334.24"/><line style="stroke:#181818;stroke-width:1.0;" x1="599.75" x2="593.75" y1="235.1" y2="227.1"/><line style="stroke:#181818;stroke-width:1.0;" x1="599.75" x2="605.75" y1="235.1" y2="227.1"/><line style="stroke:#181818;stroke-width:1.0;" x1="599.75" x2="599.75" y1="235.1" y2="227.1"/><ellipse cx="599.75" cy="241.1" fill="none" rx="4" ry="4" style="stroke:#181818;stroke-width:1.0;"/></g><!--MD5=[0ac3d8377118ba1284c6e32a49f23729]
link forward_aggregate to aggregate--><g id="link_forward_aggregate_aggregate"><path codeLine="80" d="M488,235.1 C488,235.1 488,278.68 488,278.68 " fill="none" id="forward_aggregate-aggregate" style="stroke:#181818;stroke-width:1.0;"/><line style="stroke:#181818;stroke-width:1.0;" x1="492" x2="484" y1="282.68" y2="282.68"/><line style="stroke:#181818;stroke-width:1.0;" x1="492" x2="484" y1="279.68" y2="279.68"/><line style="stroke:#181818;stroke-width:1.0;" x1="488" x2="488" y1="278.68" y2="286.68"/><line style="stroke:#181818;stroke-width:1.0;" x1="488" x2="482" y1="235.1" y2="227.1"/><line style="stroke:#181818;stroke-width:1.0;" x1="488" x2="494" y1="235.1" y2="227.1"/><line style="stroke:#181818;stroke-width:1.0;" x1="488" x2="488" y1="235.1" y2="227.1"/><ellipse cx="488" cy="241.1" fill="none" rx="4" ry="4" style="stroke:#181818;stroke-width:1.0;"/></g><!--MD5=[97e1bbc80520799486b66111185607f2]
@startuml

' avoid problems with angled crows feet
skinparam linetype ortho

entity feed {
  *id : bigint
  - -
  *feed_name : varchar(255)
  *type_name : varchar(255)
}

entity source {
  *id : bigint
  - -
  *path : varchar(255) - unique
  *fk_feed_id : bigint
  *examined : boolean
  *item_count : integer
  *new_position : bigint
}

entity source_item {
  *id : bigint
  - -
  *name : varchar(255)
  *fk_feed_id : bigint
  *byte_size : bigint
  *fk_source_id : bigint
  *fk_aggregate_id : bigint
  *new_position : bigint
}

entity source_entry {
  *id : bigint
  - -
  *extension : varchar(255)
  *extension_type : int
  *byte_size : bigint
  *fk_source_item_id : bigint
}

entity aggregate {
  *id : bigint
  - -
  *create_time_ms : bigint
  *fk_feed_id : bigint
  *byte_size : bigint
  *items : int
  *complete : boolean
  *new_position : bigint
}

entity forward_dest {
  *id : int
  - -
  *name : varchar(255)
}

entity forward_aggregate {
  *id : bigint
  - -
  *update_time_ms : bigint
  *fk_forward_dest_id : int
  *fk_aggregate_id : bigint
  *success : boolean
  *error : varchar(255)
  *tries : bigint
  *new_position : bigint
  *retry_position : bigint
}

feed ||- -|{ source
feed ||- -|{ source_item
feed ||- -|{ aggregate

source ||..o{ source_item
source_item ||- -|{ source_entry
aggregate ||- -|{ source_item
forward_aggregate }o- -|| forward_dest
forward_aggregate }o- -|| aggregate

@enduml

@startuml

skinparam linetype ortho

entity feed {
  *id : bigint
  - -
  *feed_name : varchar(255)
  *type_name : varchar(255)
}

entity source {
  *id : bigint
  - -
  *path : varchar(255) - unique
  *fk_feed_id : bigint
  *examined : boolean
  *item_count : integer
  *new_position : bigint
}

entity source_item {
  *id : bigint
  - -
  *name : varchar(255)
  *fk_feed_id : bigint
  *byte_size : bigint
  *fk_source_id : bigint
  *fk_aggregate_id : bigint
  *new_position : bigint
}

entity source_entry {
  *id : bigint
  - -
  *extension : varchar(255)
  *extension_type : int
  *byte_size : bigint
  *fk_source_item_id : bigint
}

entity aggregate {
  *id : bigint
  - -
  *create_time_ms : bigint
  *fk_feed_id : bigint
  *byte_size : bigint
  *items : int
  *complete : boolean
  *new_position : bigint
}

entity forward_dest {
  *id : int
  - -
  *name : varchar(255)
}

entity forward_aggregate {
  *id : bigint
  - -
  *update_time_ms : bigint
  *fk_forward_dest_id : int
  *fk_aggregate_id : bigint
  *success : boolean
  *error : varchar(255)
  *tries : bigint
  *new_position : bigint
  *retry_position : bigint
}

feed ||- -|{ source
feed ||- -|{ source_item
feed ||- -|{ aggregate

source ||..o{ source_item
source_item ||- -|{ source_entry
aggregate ||- -|{ source_item
forward_aggregate }o- -|| forward_dest
forward_aggregate }o- -|| aggregate

@enduml

PlantUML version 1.2022.4(Sat Apr 09 14:29:17 BST 2022)
(GPL source distribution)
Java Runtime: OpenJDK Runtime Environment
JVM: OpenJDK 64-Bit Server VM
Default Encoding: UTF-8
Language: en
Country: GB
--></g></svg>