<?xml version="1.0" encoding="us-ascii" standalone="no"?><svg xmlns="http://www.w3.org/2000/svg" xmlns:xlink="http://www.w3.org/1999/xlink" contentStyleType="text/css" height="510px" preserveAspectRatio="none" style="width:924px;height:510px;background:#FFFFFF;" version="1.1" viewBox="0 0 924 510" width="924px" zoomAndPan="magnify"><defs/><g><text fill="#000000" font-family="sans-serif" font-size="14" font-weight="bold" lengthAdjust="spacing" textLength="161" x="383" y="27.9951">Receive And Store Data</text><line style="stroke:#181818;stroke-width:0.5;stroke-dasharray:5.0,5.0;" x1="34" x2="34" y1="118.5938" y2="429.9219"/><line style="stroke:#181818;stroke-width:0.5;stroke-dasharray:5.0,5.0;" x1="148" x2="148" y1="118.5938" y2="429.9219"/><line style="stroke:#181818;stroke-width:0.5;stroke-dasharray:5.0,5.0;" x1="340" x2="340" y1="118.5938" y2="429.9219"/><line style="stroke:#181818;stroke-width:0.5;stroke-dasharray:5.0,5.0;" x1="525.5" x2="525.5" y1="118.5938" y2="429.9219"/><line style="stroke:#181818;stroke-width:0.5;stroke-dasharray:5.0,5.0;" x1="641.5" x2="641.5" y1="118.5938" y2="429.9219"/><line style="stroke:#181818;stroke-width:0.5;stroke-dasharray:5.0,5.0;" x1="735.5" x2="735.5" y1="118.5938" y2="429.9219"/><line style="stroke:#181818;stroke-width:0.5;stroke-dasharray:5.0,5.0;" x1="791" x2="791" y1="118.5938" y2="429.9219"/><line style="stroke:#181818;stroke-width:0.5;stroke-dasharray:5.0,5.0;" x1="871" x2="871" y1="118.5938" y2="429.9219"/><text fill="#000000" font-family="sans-serif" font-size="14" lengthAdjust="spacing" textLength="52" x="5" y="115.292">Supplier</text><ellipse cx="34" cy="50.7969" fill="#E2E2F0" rx="8" ry="8" style="stroke:#181818;stroke-width:0.5;"/><path d="M34,58.7969 L34,85.7969 M21,66.7969 L47,66.7969 M34,85.7969 L21,100.7969 M34,85.7969 L47,100.7969 " fill="none" style="stroke:#181818;stroke-width:0.5;"/><text fill="#000000" font-family="sans-serif" font-size="14" lengthAdjust="spacing" textLength="52" x="5" y="441.917">Supplier</text><ellipse cx="34" cy="453.7188" fill="#E2E2F0" rx="8" ry="8" style="stroke:#181818;stroke-width:0.5;"/><path d="M34,461.7188 L34,488.7188 M21,469.7188 L47,469.7188 M34,488.7188 L21,503.7188 M34,488.7188 L47,503.7188 " fill="none" style="stroke:#181818;stroke-width:0.5;"/><rect fill="#E2E2F0" height="30.2969" rx="2.5" ry="2.5" style="stroke:#181818;stroke-width:0.5;" width="151" x="73" y="87.2969"/><text fill="#000000" font-family="sans-serif" font-size="14" lengthAdjust="spacing" textLength="137" x="80" y="107.292">ProxyRequestHandler</text><rect fill="#E2E2F0" height="30.2969" rx="2.5" ry="2.5" style="stroke:#181818;stroke-width:0.5;" width="151" x="73" y="428.9219"/><text fill="#000000" font-family="sans-serif" font-size="14" lengthAdjust="spacing" textLength="137" x="80" y="448.917">ProxyRequestHandler</text><rect fill="#E2E2F0" height="30.2969" rx="2.5" ry="2.5" style="stroke:#181818;stroke-width:0.5;" width="212" x="234" y="87.2969"/><text fill="#000000" font-family="sans-serif" font-size="14" lengthAdjust="spacing" textLength="198" x="241" y="107.292">ProxyRepositoryStreamHandler</text><rect fill="#E2E2F0" height="30.2969" rx="2.5" ry="2.5" style="stroke:#181818;stroke-width:0.5;" width="212" x="234" y="428.9219"/><text fill="#000000" font-family="sans-serif" font-size="14" lengthAdjust="spacing" textLength="198" x="241" y="448.917">ProxyRepositoryStreamHandler</text><rect fill="#E2E2F0" height="30.2969" rx="2.5" ry="2.5" style="stroke:#181818;stroke-width:0.5;" width="81" x="485.5" y="87.2969"/><text fill="#000000" font-family="sans-serif" font-size="14" lengthAdjust="spacing" textLength="67" x="492.5" y="107.292">ProxyRepo</text><rect fill="#E2E2F0" height="30.2969" rx="2.5" ry="2.5" style="stroke:#181818;stroke-width:0.5;" width="81" x="485.5" y="428.9219"/><text fill="#000000" font-family="sans-serif" font-size="14" lengthAdjust="spacing" textLength="67" x="492.5" y="448.917">ProxyRepo</text><rect fill="#E2E2F0" height="30.2969" rx="2.5" ry="2.5" style="stroke:#181818;stroke-width:0.5;" width="131" x="576.5" y="87.2969"/><text fill="#000000" font-family="sans-serif" font-size="14" lengthAdjust="spacing" textLength="117" x="583.5" y="107.292">ProxyRepoSources</text><rect fill="#E2E2F0" height="30.2969" rx="2.5" ry="2.5" style="stroke:#181818;stroke-width:0.5;" width="131" x="576.5" y="428.9219"/><text fill="#000000" font-family="sans-serif" font-size="14" lengthAdjust="spacing" textLength="117" x="583.5" y="448.917">ProxyRepoSources</text><text fill="#000000" font-family="sans-serif" font-size="14" lengthAdjust="spacing" textLength="29" x="718" y="115.292">repo</text><path d="M717.5,66.2969 C717.5,56.2969 735.5,56.2969 735.5,56.2969 C735.5,56.2969 753.5,56.2969 753.5,66.2969 L753.5,92.2969 C753.5,102.2969 735.5,102.2969 735.5,102.2969 C735.5,102.2969 717.5,102.2969 717.5,92.2969 L717.5,66.2969 " fill="#E2E2F0" style="stroke:#181818;stroke-width:1.5;"/><path d="M717.5,66.2969 C717.5,76.2969 735.5,76.2969 735.5,76.2969 C735.5,76.2969 753.5,76.2969 753.5,66.2969 " fill="none" style="stroke:#181818;stroke-width:1.5;"/><text fill="#000000" font-family="sans-serif" font-size="14" lengthAdjust="spacing" textLength="29" x="718" y="441.917">repo</text><path d="M717.5,455.2188 C717.5,445.2188 735.5,445.2188 735.5,445.2188 C735.5,445.2188 753.5,445.2188 753.5,455.2188 L753.5,481.2188 C753.5,491.2188 735.5,491.2188 735.5,491.2188 C735.5,491.2188 717.5,491.2188 717.5,481.2188 L717.5,455.2188 " fill="#E2E2F0" style="stroke:#181818;stroke-width:1.5;"/><path d="M717.5,455.2188 C717.5,465.2188 735.5,465.2188 735.5,465.2188 C735.5,465.2188 753.5,465.2188 753.5,455.2188 " fill="none" style="stroke:#181818;stroke-width:1.5;"/><text fill="#000000" font-family="sans-serif" font-size="14" lengthAdjust="spacing" textLength="16" x="780" y="115.292">db</text><path d="M773,66.2969 C773,56.2969 791,56.2969 791,56.2969 C791,56.2969 809,56.2969 809,66.2969 L809,92.2969 C809,102.2969 791,102.2969 791,102.2969 C791,102.2969 773,102.2969 773,92.2969 L773,66.2969 " fill="#E2E2F0" style="stroke:#181818;stroke-width:1.5;"/><path d="M773,66.2969 C773,76.2969 791,76.2969 791,76.2969 C791,76.2969 809,76.2969 809,66.2969 " fill="none" style="stroke:#181818;stroke-width:1.5;"/><text fill="#000000" font-family="sans-serif" font-size="14" lengthAdjust="spacing" textLength="16" x="780" y="441.917">db</text><path d="M773,455.2188 C773,445.2188 791,445.2188 791,445.2188 C791,445.2188 809,445.2188 809,455.2188 L809,481.2188 C809,491.2188 791,491.2188 791,491.2188 C791,491.2188 773,491.2188 773,481.2188 L773,455.2188 " fill="#E2E2F0" style="stroke:#181818;stroke-width:1.5;"/><path d="M773,455.2188 C773,465.2188 791,465.2188 791,465.2188 C791,465.2188 809,465.2188 809,455.2188 " fill="none" style="stroke:#181818;stroke-width:1.5;"/><text fill="#000000" font-family="sans-serif" font-size="14" lengthAdjust="spacing" textLength="98" x="819" y="115.292">ChangeListener</text><ellipse cx="871" cy="50.7969" fill="#E2E2F0" rx="8" ry="8" style="stroke:#181818;stroke-width:0.5;"/><path d="M871,58.7969 L871,85.7969 M858,66.7969 L884,66.7969 M871,85.7969 L858,100.7969 M871,85.7969 L884,100.7969 " fill="none" style="stroke:#181818;stroke-width:0.5;"/><text fill="#000000" font-family="sans-serif" font-size="14" lengthAdjust="spacing" textLength="98" x="819" y="441.917">ChangeListener</text><ellipse cx="871" cy="453.7188" fill="#E2E2F0" rx="8" ry="8" style="stroke:#181818;stroke-width:0.5;"/><path d="M871,461.7188 L871,488.7188 M858,469.7188 L884,469.7188 M871,488.7188 L858,503.7188 M871,488.7188 L884,503.7188 " fill="none" style="stroke:#181818;stroke-width:0.5;"/><polygon fill="#181818" points="136.5,145.7266,146.5,149.7266,136.5,153.7266,140.5,149.7266" style="stroke:#181818;stroke-width:1.0;"/><line style="stroke:#181818;stroke-width:1.0;stroke-dasharray:2.0,2.0;" x1="34" x2="142.5" y1="149.7266" y2="149.7266"/><text fill="#000000" font-family="sans-serif" font-size="13" lengthAdjust="spacing" textLength="64" x="41" y="144.6606">HTTP POST</text><polygon fill="#181818" points="328,174.8594,338,178.8594,328,182.8594,332,178.8594" style="stroke:#181818;stroke-width:1.0;"/><line style="stroke:#181818;stroke-width:1.0;" x1="148.5" x2="334" y1="178.8594" y2="178.8594"/><text fill="#000000" font-family="sans-serif" font-size="13" lengthAdjust="spacing" textLength="41" x="155.5" y="173.7935">handle</text><polygon fill="#181818" points="514,203.9922,524,207.9922,514,211.9922,518,207.9922" style="stroke:#181818;stroke-width:1.0;"/><line style="stroke:#181818;stroke-width:1.0;" x1="340" x2="520" y1="207.9922" y2="207.9922"/><text fill="#000000" font-family="sans-serif" font-size="13" lengthAdjust="spacing" textLength="162" x="347" y="202.9263">getStroomZipOutputStream</text><line style="stroke:#181818;stroke-width:1.0;" x1="733.5" x2="723.5" y1="237.125" y2="233.125"/><line style="stroke:#181818;stroke-width:1.0;" x1="733.5" x2="723.5" y1="237.125" y2="241.125"/><line style="stroke:#181818;stroke-width:1.0;" x1="340" x2="734.5" y1="237.125" y2="237.125"/><text fill="#000000" font-family="sans-serif" font-size="13" lengthAdjust="spacing" textLength="59" x="347" y="232.0591">Write data</text><polygon fill="#181818" points="723.5,262.2578,733.5,266.2578,723.5,270.2578,727.5,266.2578" style="stroke:#181818;stroke-width:1.0;"/><line style="stroke:#181818;stroke-width:1.0;" x1="526" x2="729.5" y1="266.2578" y2="266.2578"/><text fill="#000000" font-family="sans-serif" font-size="13" lengthAdjust="spacing" textLength="76" x="533" y="261.1919">Add meta file</text><polygon fill="#181818" points="723.5,291.3906,733.5,295.3906,723.5,299.3906,727.5,295.3906" style="stroke:#181818;stroke-width:1.0;"/><line style="stroke:#181818;stroke-width:1.0;" x1="526" x2="729.5" y1="295.3906" y2="295.3906"/><text fill="#000000" font-family="sans-serif" font-size="13" lengthAdjust="spacing" textLength="80" x="533" y="290.3247">Unlock zip file</text><line style="stroke:#181818;stroke-width:1.0;" x1="640" x2="630" y1="324.5234" y2="320.5234"/><line style="stroke:#181818;stroke-width:1.0;" x1="640" x2="630" y1="324.5234" y2="328.5234"/><line style="stroke:#181818;stroke-width:1.0;" x1="526" x2="641" y1="324.5234" y2="324.5234"/><text fill="#000000" font-family="sans-serif" font-size="13" lengthAdjust="spacing" textLength="64" x="533" y="319.4575">addSource</text><line style="stroke:#181818;stroke-width:1.0;" x1="789" x2="779" y1="353.6563" y2="349.6563"/><line style="stroke:#181818;stroke-width:1.0;" x1="789" x2="779" y1="353.6563" y2="357.6563"/><line style="stroke:#181818;stroke-width:1.0;" x1="642" x2="790" y1="353.6563" y2="353.6563"/><text fill="#000000" font-family="sans-serif" font-size="13" lengthAdjust="spacing" textLength="125" x="649" y="348.5903">Add `source` record</text><line style="stroke:#181818;stroke-width:1.0;" x1="869" x2="859" y1="382.7891" y2="386.7891"/><line style="stroke:#181818;stroke-width:1.0;stroke-dasharray:2.0,2.0;" x1="642" x2="870" y1="382.7891" y2="382.7891"/><text fill="#000000" font-family="sans-serif" font-size="13" lengthAdjust="spacing" textLength="61" x="649" y="377.7231">onChange</text><polygon fill="#181818" points="45,407.9219,35,411.9219,45,415.9219,41,411.9219" style="stroke:#181818;stroke-width:1.0;"/><line style="stroke:#181818;stroke-width:1.0;stroke-dasharray:2.0,2.0;" x1="39" x2="147.5" y1="411.9219" y2="411.9219"/><text fill="#000000" font-family="sans-serif" font-size="13" lengthAdjust="spacing" textLength="82" x="51" y="406.856">200 Response</text><!--SRC=[XLB1JiCm3BtdA_m3rIQEELIQuB03qgQr28dJqiHi5cqI4XSnlfwqPHjiqRZ5Viz-ptQOk4NOe4RwG5XO0nMxWF2WM0cXT0gWwhrl2OFmAZ1fyieoh8FxF6pmlSV8IsLDcyUzYvHw72eEgBgRn7osSdtG68L9XXeL4S90FKMc-J5vlrTsXuyK6MrI44VJK1Hbpgo4PLslORsgQf61uLoL7K72Vdo8MwG_JIJia1FiNFT2VjMpxtbY_zUZ76UMy1o8qyJ3PKuLWyI4Beo13bd1A_ssTIOysTRfD_WYVqqfhnOkGHaplSKbDXQOPjBSnZ6vJIhQ1PCX5xFPnNaaE3jbyhjFde_tat0tdwSF6hsp4ONu1W00]--></g></svg>