<?xml version="1.0" encoding="us-ascii" standalone="no"?><!--
  - Copyright 2016-2025 Crown Copyright
  -
  - Licensed under the Apache License, Version 2.0 (the "License");
  - you may not use this file except in compliance with the License.
  - You may obtain a copy of the License at
  -
  -     http://www.apache.org/licenses/LICENSE-2.0
  -
  - Unless required by applicable law or agreed to in writing, software
  - distributed under the License is distributed on an "AS IS" BASIS,
  - WITHOUT WARRANTIES OR CONDITIONS OF ANY KIND, either express or implied.
  - See the License for the specific language governing permissions and
  - limitations under the License.
  -->

<svg xmlns="http://www.w3.org/2000/svg" xmlns:xlink="http://www.w3.org/1999/xlink" contentStyleType="text/css" height="510px" preserveAspectRatio="none" style="width:995px;height:510px;background:#FFFFFF;" version="1.1" viewBox="0 0 995 510" width="995px" zoomAndPan="magnify"><defs/><g><text fill="#000000" font-family="sans-serif" font-size="14" font-weight="bold" lengthAdjust="spacing" textLength="186" x="406" y="27.9951">Receive And Store Data</text><line style="stroke:#181818;stroke-width:0.5;stroke-dasharray:5.0,5.0;" x1="36" x2="36" y1="118.5938" y2="429.9219"/><line style="stroke:#181818;stroke-width:0.5;stroke-dasharray:5.0,5.0;" x1="158" x2="158" y1="118.5938" y2="429.9219"/><line style="stroke:#181818;stroke-width:0.5;stroke-dasharray:5.0,5.0;" x1="363" x2="363" y1="118.5938" y2="429.9219"/><line style="stroke:#181818;stroke-width:0.5;stroke-dasharray:5.0,5.0;" x1="569.5" x2="569.5" y1="118.5938" y2="429.9219"/><line style="stroke:#181818;stroke-width:0.5;stroke-dasharray:5.0,5.0;" x1="695.5" x2="695.5" y1="118.5938" y2="429.9219"/><line style="stroke:#181818;stroke-width:0.5;stroke-dasharray:5.0,5.0;" x1="797.5" x2="797.5" y1="118.5938" y2="429.9219"/><line style="stroke:#181818;stroke-width:0.5;stroke-dasharray:5.0,5.0;" x1="851" x2="851" y1="118.5938" y2="429.9219"/><line style="stroke:#181818;stroke-width:0.5;stroke-dasharray:5.0,5.0;" x1="936" x2="936" y1="118.5938" y2="429.9219"/><text fill="#000000" font-family="sans-serif" font-size="14" lengthAdjust="spacing" textLength="56" x="5" y="115.292">Supplier</text><ellipse cx="36" cy="50.7969" fill="#E2E2F0" rx="8" ry="8" style="stroke:#181818;stroke-width:0.5;"/><path d="M36,58.7969 L36,85.7969 M23,66.7969 L49,66.7969 M36,85.7969 L23,100.7969 M36,85.7969 L49,100.7969 " fill="none" style="stroke:#181818;stroke-width:0.5;"/><text fill="#000000" font-family="sans-serif" font-size="14" lengthAdjust="spacing" textLength="56" x="5" y="441.917">Supplier</text><ellipse cx="36" cy="453.7188" fill="#E2E2F0" rx="8" ry="8" style="stroke:#181818;stroke-width:0.5;"/><path d="M36,461.7188 L36,488.7188 M23,469.7188 L49,469.7188 M36,488.7188 L23,503.7188 M36,488.7188 L49,503.7188 " fill="none" style="stroke:#181818;stroke-width:0.5;"/><rect fill="#E2E2F0" height="30.2969" rx="2.5" ry="2.5" style="stroke:#181818;stroke-width:0.5;" width="163" x="77" y="87.2969"/><text fill="#000000" font-family="sans-serif" font-size="14" lengthAdjust="spacing" textLength="149" x="84" y="107.292">ProxyRequestHandler</text><rect fill="#E2E2F0" height="30.2969" rx="2.5" ry="2.5" style="stroke:#181818;stroke-width:0.5;" width="163" x="77" y="428.9219"/><text fill="#000000" font-family="sans-serif" font-size="14" lengthAdjust="spacing" textLength="149" x="84" y="448.917">ProxyRequestHandler</text><rect fill="#E2E2F0" height="30.2969" rx="2.5" ry="2.5" style="stroke:#181818;stroke-width:0.5;" width="227" x="250" y="87.2969"/><text fill="#000000" font-family="sans-serif" font-size="14" lengthAdjust="spacing" textLength="213" x="257" y="107.292">ProxyRepositoryStreamHandler</text><rect fill="#E2E2F0" height="30.2969" rx="2.5" ry="2.5" style="stroke:#181818;stroke-width:0.5;" width="227" x="250" y="428.9219"/><text fill="#000000" font-family="sans-serif" font-size="14" lengthAdjust="spacing" textLength="213" x="257" y="448.917">ProxyRepositoryStreamHandler</text><rect fill="#E2E2F0" height="30.2969" rx="2.5" ry="2.5" style="stroke:#181818;stroke-width:0.5;" width="88" x="525.5" y="87.2969"/><text fill="#000000" font-family="sans-serif" font-size="14" lengthAdjust="spacing" textLength="74" x="532.5" y="107.292">ProxyRepo</text><rect fill="#E2E2F0" height="30.2969" rx="2.5" ry="2.5" style="stroke:#181818;stroke-width:0.5;" width="88" x="525.5" y="428.9219"/><text fill="#000000" font-family="sans-serif" font-size="14" lengthAdjust="spacing" textLength="74" x="532.5" y="448.917">ProxyRepo</text><rect fill="#E2E2F0" height="30.2969" rx="2.5" ry="2.5" style="stroke:#181818;stroke-width:0.5;" width="145" x="623.5" y="87.2969"/><text fill="#000000" font-family="sans-serif" font-size="14" lengthAdjust="spacing" textLength="131" x="630.5" y="107.292">ProxyRepoSources</text><rect fill="#E2E2F0" height="30.2969" rx="2.5" ry="2.5" style="stroke:#181818;stroke-width:0.5;" width="145" x="623.5" y="428.9219"/><text fill="#000000" font-family="sans-serif" font-size="14" lengthAdjust="spacing" textLength="131" x="630.5" y="448.917">ProxyRepoSources</text><text fill="#000000" font-family="sans-serif" font-size="14" lengthAdjust="spacing" textLength="32" x="778.5" y="115.292">repo</text><path d="M779.5,66.2969 C779.5,56.2969 797.5,56.2969 797.5,56.2969 C797.5,56.2969 815.5,56.2969 815.5,66.2969 L815.5,92.2969 C815.5,102.2969 797.5,102.2969 797.5,102.2969 C797.5,102.2969 779.5,102.2969 779.5,92.2969 L779.5,66.2969 " fill="#E2E2F0" style="stroke:#181818;stroke-width:1.5;"/><path d="M779.5,66.2969 C779.5,76.2969 797.5,76.2969 797.5,76.2969 C797.5,76.2969 815.5,76.2969 815.5,66.2969 " fill="none" style="stroke:#181818;stroke-width:1.5;"/><text fill="#000000" font-family="sans-serif" font-size="14" lengthAdjust="spacing" textLength="32" x="778.5" y="441.917">repo</text><path d="M779.5,455.2188 C779.5,445.2188 797.5,445.2188 797.5,445.2188 C797.5,445.2188 815.5,445.2188 815.5,455.2188 L815.5,481.2188 C815.5,491.2188 797.5,491.2188 797.5,491.2188 C797.5,491.2188 779.5,491.2188 779.5,481.2188 L779.5,455.2188 " fill="#E2E2F0" style="stroke:#181818;stroke-width:1.5;"/><path d="M779.5,455.2188 C779.5,465.2188 797.5,465.2188 797.5,465.2188 C797.5,465.2188 815.5,465.2188 815.5,455.2188 " fill="none" style="stroke:#181818;stroke-width:1.5;"/><text fill="#000000" font-family="sans-serif" font-size="14" lengthAdjust="spacing" textLength="18" x="839" y="115.292">db</text><path d="M833,66.2969 C833,56.2969 851,56.2969 851,56.2969 C851,56.2969 869,56.2969 869,66.2969 L869,92.2969 C869,102.2969 851,102.2969 851,102.2969 C851,102.2969 833,102.2969 833,92.2969 L833,66.2969 " fill="#E2E2F0" style="stroke:#181818;stroke-width:1.5;"/><path d="M833,66.2969 C833,76.2969 851,76.2969 851,76.2969 C851,76.2969 869,76.2969 869,66.2969 " fill="none" style="stroke:#181818;stroke-width:1.5;"/><text fill="#000000" font-family="sans-serif" font-size="14" lengthAdjust="spacing" textLength="18" x="839" y="441.917">db</text><path d="M833,455.2188 C833,445.2188 851,445.2188 851,445.2188 C851,445.2188 869,445.2188 869,455.2188 L869,481.2188 C869,491.2188 851,491.2188 851,491.2188 C851,491.2188 833,491.2188 833,481.2188 L833,455.2188 " fill="#E2E2F0" style="stroke:#181818;stroke-width:1.5;"/><path d="M833,455.2188 C833,465.2188 851,465.2188 851,465.2188 C851,465.2188 869,465.2188 869,455.2188 " fill="none" style="stroke:#181818;stroke-width:1.5;"/><text fill="#000000" font-family="sans-serif" font-size="14" lengthAdjust="spacing" textLength="109" x="879" y="115.292">ChangeListener</text><ellipse cx="936.5" cy="50.7969" fill="#E2E2F0" rx="8" ry="8" style="stroke:#181818;stroke-width:0.5;"/><path d="M936.5,58.7969 L936.5,85.7969 M923.5,66.7969 L949.5,66.7969 M936.5,85.7969 L923.5,100.7969 M936.5,85.7969 L949.5,100.7969 " fill="none" style="stroke:#181818;stroke-width:0.5;"/><text fill="#000000" font-family="sans-serif" font-size="14" lengthAdjust="spacing" textLength="109" x="879" y="441.917">ChangeListener</text><ellipse cx="936.5" cy="453.7188" fill="#E2E2F0" rx="8" ry="8" style="stroke:#181818;stroke-width:0.5;"/><path d="M936.5,461.7188 L936.5,488.7188 M923.5,469.7188 L949.5,469.7188 M936.5,488.7188 L923.5,503.7188 M936.5,488.7188 L949.5,503.7188 " fill="none" style="stroke:#181818;stroke-width:0.5;"/><polygon fill="#181818" points="146.5,145.7266,156.5,149.7266,146.5,153.7266,150.5,149.7266" style="stroke:#181818;stroke-width:1.0;"/><line style="stroke:#181818;stroke-width:1.0;stroke-dasharray:2.0,2.0;" x1="36" x2="152.5" y1="149.7266" y2="149.7266"/><text fill="#000000" font-family="sans-serif" font-size="13" lengthAdjust="spacing" textLength="70" x="43" y="144.6606">HTTP POST</text><polygon fill="#181818" points="351.5,174.8594,361.5,178.8594,351.5,182.8594,355.5,178.8594" style="stroke:#181818;stroke-width:1.0;"/><line style="stroke:#181818;stroke-width:1.0;" x1="158.5" x2="357.5" y1="178.8594" y2="178.8594"/><text fill="#000000" font-family="sans-serif" font-size="13" lengthAdjust="spacing" textLength="43" x="165.5" y="173.7935">handle</text><polygon fill="#181818" points="557.5,203.9922,567.5,207.9922,557.5,211.9922,561.5,207.9922" style="stroke:#181818;stroke-width:1.0;"/><line style="stroke:#181818;stroke-width:1.0;" x1="363.5" x2="563.5" y1="207.9922" y2="207.9922"/><text fill="#000000" font-family="sans-serif" font-size="13" lengthAdjust="spacing" textLength="182" x="370.5" y="202.9263">getStroomZipOutputStream</text><line style="stroke:#181818;stroke-width:1.0;" x1="795.5" x2="785.5" y1="237.125" y2="233.125"/><line style="stroke:#181818;stroke-width:1.0;" x1="795.5" x2="785.5" y1="237.125" y2="241.125"/><line style="stroke:#181818;stroke-width:1.0;" x1="363.5" x2="796.5" y1="237.125" y2="237.125"/><text fill="#000000" font-family="sans-serif" font-size="13" lengthAdjust="spacing" textLength="65" x="370.5" y="232.0591">Write data</text><polygon fill="#181818" points="785.5,262.2578,795.5,266.2578,785.5,270.2578,789.5,266.2578" style="stroke:#181818;stroke-width:1.0;"/><line style="stroke:#181818;stroke-width:1.0;" x1="569.5" x2="791.5" y1="266.2578" y2="266.2578"/><text fill="#000000" font-family="sans-serif" font-size="13" lengthAdjust="spacing" textLength="85" x="576.5" y="261.1919">Add meta file</text><polygon fill="#181818" points="785.5,291.3906,795.5,295.3906,785.5,299.3906,789.5,295.3906" style="stroke:#181818;stroke-width:1.0;"/><line style="stroke:#181818;stroke-width:1.0;" x1="569.5" x2="791.5" y1="295.3906" y2="295.3906"/><text fill="#000000" font-family="sans-serif" font-size="13" lengthAdjust="spacing" textLength="87" x="576.5" y="290.3247">Unlock zip file</text><line style="stroke:#181818;stroke-width:1.0;" x1="694" x2="684" y1="324.5234" y2="320.5234"/><line style="stroke:#181818;stroke-width:1.0;" x1="694" x2="684" y1="324.5234" y2="328.5234"/><line style="stroke:#181818;stroke-width:1.0;" x1="569.5" x2="695" y1="324.5234" y2="324.5234"/><text fill="#000000" font-family="sans-serif" font-size="13" lengthAdjust="spacing" textLength="69" x="576.5" y="319.4575">addSource</text><line style="stroke:#181818;stroke-width:1.0;" x1="849" x2="839" y1="353.6563" y2="349.6563"/><line style="stroke:#181818;stroke-width:1.0;" x1="849" x2="839" y1="353.6563" y2="357.6563"/><line style="stroke:#181818;stroke-width:1.0;" x1="696" x2="850" y1="353.6563" y2="353.6563"/><text fill="#000000" font-family="sans-serif" font-size="13" lengthAdjust="spacing" textLength="131" x="703" y="348.5903">Add `source` record</text><line style="stroke:#181818;stroke-width:1.0;" x1="934.5" x2="924.5" y1="382.7891" y2="386.7891"/><line style="stroke:#181818;stroke-width:1.0;stroke-dasharray:2.0,2.0;" x1="696" x2="935.5" y1="382.7891" y2="382.7891"/><text fill="#000000" font-family="sans-serif" font-size="13" lengthAdjust="spacing" textLength="65" x="703" y="377.7231">onChange</text><polygon fill="#181818" points="47,407.9219,37,411.9219,47,415.9219,43,411.9219" style="stroke:#181818;stroke-width:1.0;"/><line style="stroke:#181818;stroke-width:1.0;stroke-dasharray:2.0,2.0;" x1="41" x2="157.5" y1="411.9219" y2="411.9219"/><text fill="#000000" font-family="sans-serif" font-size="13" lengthAdjust="spacing" textLength="90" x="53" y="406.856">200 Response</text><!--SRC=[XLB1JiCm3BtdA_m3rIQEELIQuB03qgQr28dJqiHi5cqI4XSnlfwqPHjiqRZ5Viz-ptQOk4NOe4RwG5XO0nMxWF2WM0cXT0gWwhrl2OFmAZ1fyieoh8FxF6pmlSV8IsLDcyUzYvHw72eEgBgRn7osSdtG68L9XXeL4S90FKMc-J5vlrTsXuyK6MrI44VJK1Hbpgo4PLslORsgQf61uLoL7K72Vdo8MwG_JIJia1FiNFT2VjMpxtbY_zUZ76UMy1o8qyJ3PKuLWyI4Beo13bd1A_ssTIOysTRfD_WYVqqfhnOkGHaplSKbDXQOPjBSnZ6vJIhQ1PCX5xFPnNaaE3jbyhjFde_tat0tdwSF6hsp4ONu1W00]--></g></svg>
