<?xml version="1.0" encoding="UTF-8" standalone="no"?><svg xmlns="http://www.w3.org/2000/svg" xmlns:xlink="http://www.w3.org/1999/xlink" contentScriptType="application/ecmascript" contentStyleType="text/css" height="518px" preserveAspectRatio="none" style="width:1005px;height:518px;" version="1.1" viewBox="0 0 1005 518" width="1005px" zoomAndPan="magnify"><defs><filter height="300%" id="f10snqyaanlylh" width="300%" x="-1" y="-1"><feGaussianBlur result="blurOut" stdDeviation="2.0"/><feColorMatrix in="blurOut" result="blurOut2" type="matrix" values="0 0 0 0 0 0 0 0 0 0 0 0 0 0 0 0 0 0 .4 0"/><feOffset dx="4.0" dy="4.0" in="blurOut2" result="blurOut3"/><feBlend in="SourceGraphic" in2="blurOut3" mode="normal"/></filter></defs><g><text fill="#000000" font-family="sans-serif" font-size="18" lengthAdjust="spacing" textLength="212" x="398.5" y="28.708">Receive And Store Data</text><line style="stroke:#A80036;stroke-width:1.0;stroke-dasharray:5.0,5.0;" x1="36" x2="36" y1="123.25" y2="434.5781"/><line style="stroke:#A80036;stroke-width:1.0;stroke-dasharray:5.0,5.0;" x1="160" x2="160" y1="123.25" y2="434.5781"/><line style="stroke:#A80036;stroke-width:1.0;stroke-dasharray:5.0,5.0;" x1="369" x2="369" y1="123.25" y2="434.5781"/><line style="stroke:#A80036;stroke-width:1.0;stroke-dasharray:5.0,5.0;" x1="575.5" x2="575.5" y1="123.25" y2="434.5781"/><line style="stroke:#A80036;stroke-width:1.0;stroke-dasharray:5.0,5.0;" x1="705.5" x2="705.5" y1="123.25" y2="434.5781"/><line style="stroke:#A80036;stroke-width:1.0;stroke-dasharray:5.0,5.0;" x1="809.5" x2="809.5" y1="123.25" y2="434.5781"/><line style="stroke:#A80036;stroke-width:1.0;stroke-dasharray:5.0,5.0;" x1="861" x2="861" y1="123.25" y2="434.5781"/><line style="stroke:#A80036;stroke-width:1.0;stroke-dasharray:5.0,5.0;" x1="946" x2="946" y1="123.25" y2="434.5781"/><text fill="#000000" font-family="sans-serif" font-size="14" lengthAdjust="spacing" textLength="56" x="5" y="119.9482">Supplier</text><ellipse cx="36" cy="49.9531" fill="#FEFECE" filter="url(#f10snqyaanlylh)" rx="8" ry="8" style="stroke:#A80036;stroke-width:2.0;"/><path d="M36,57.9531 L36,84.9531 M23,65.9531 L49,65.9531 M36,84.9531 L23,99.9531 M36,84.9531 L49,99.9531 " fill="none" filter="url(#f10snqyaanlylh)" style="stroke:#A80036;stroke-width:2.0;"/><text fill="#000000" font-family="sans-serif" font-size="14" lengthAdjust="spacing" textLength="56" x="5" y="446.5732">Supplier</text><ellipse cx="36" cy="459.875" fill="#FEFECE" filter="url(#f10snqyaanlylh)" rx="8" ry="8" style="stroke:#A80036;stroke-width:2.0;"/><path d="M36,467.875 L36,494.875 M23,475.875 L49,475.875 M36,494.875 L23,509.875 M36,494.875 L49,509.875 " fill="none" filter="url(#f10snqyaanlylh)" style="stroke:#A80036;stroke-width:2.0;"/><rect fill="#FEFECE" filter="url(#f10snqyaanlylh)" height="30.2969" style="stroke:#A80036;stroke-width:1.5;" width="163" x="77" y="87.9531"/><text fill="#000000" font-family="sans-serif" font-size="14" lengthAdjust="spacing" textLength="149" x="84" y="107.9482">ProxyRequestHandler</text><rect fill="#FEFECE" filter="url(#f10snqyaanlylh)" height="30.2969" style="stroke:#A80036;stroke-width:1.5;" width="163" x="77" y="433.5781"/><text fill="#000000" font-family="sans-serif" font-size="14" lengthAdjust="spacing" textLength="149" x="84" y="453.5732">ProxyRequestHandler</text><rect fill="#FEFECE" filter="url(#f10snqyaanlylh)" height="30.2969" style="stroke:#A80036;stroke-width:1.5;" width="227" x="254" y="87.9531"/><text fill="#000000" font-family="sans-serif" font-size="14" lengthAdjust="spacing" textLength="213" x="261" y="107.9482">ProxyRepositoryStreamHandler</text><rect fill="#FEFECE" filter="url(#f10snqyaanlylh)" height="30.2969" style="stroke:#A80036;stroke-width:1.5;" width="227" x="254" y="433.5781"/><text fill="#000000" font-family="sans-serif" font-size="14" lengthAdjust="spacing" textLength="213" x="261" y="453.5732">ProxyRepositoryStreamHandler</text><rect fill="#FEFECE" filter="url(#f10snqyaanlylh)" height="30.2969" style="stroke:#A80036;stroke-width:1.5;" width="88" x="529.5" y="87.9531"/><text fill="#000000" font-family="sans-serif" font-size="14" lengthAdjust="spacing" textLength="74" x="536.5" y="107.9482">ProxyRepo</text><rect fill="#FEFECE" filter="url(#f10snqyaanlylh)" height="30.2969" style="stroke:#A80036;stroke-width:1.5;" width="88" x="529.5" y="433.5781"/><text fill="#000000" font-family="sans-serif" font-size="14" lengthAdjust="spacing" textLength="74" x="536.5" y="453.5732">ProxyRepo</text><rect fill="#FEFECE" filter="url(#f10snqyaanlylh)" height="30.2969" style="stroke:#A80036;stroke-width:1.5;" width="145" x="631.5" y="87.9531"/><text fill="#000000" font-family="sans-serif" font-size="14" lengthAdjust="spacing" textLength="131" x="638.5" y="107.9482">ProxyRepoSources</text><rect fill="#FEFECE" filter="url(#f10snqyaanlylh)" height="30.2969" style="stroke:#A80036;stroke-width:1.5;" width="145" x="631.5" y="433.5781"/><text fill="#000000" font-family="sans-serif" font-size="14" lengthAdjust="spacing" textLength="131" x="638.5" y="453.5732">ProxyRepoSources</text><text fill="#000000" font-family="sans-serif" font-size="14" lengthAdjust="spacing" textLength="32" x="790.5" y="119.9482">repo</text><path d="M791.5,70.9531 C791.5,60.9531 809.5,60.9531 809.5,60.9531 C809.5,60.9531 827.5,60.9531 827.5,70.9531 L827.5,96.9531 C827.5,106.9531 809.5,106.9531 809.5,106.9531 C809.5,106.9531 791.5,106.9531 791.5,96.9531 L791.5,70.9531 " fill="#FEFECE" filter="url(#f10snqyaanlylh)" style="stroke:#000000;stroke-width:1.5;"/><path d="M791.5,70.9531 C791.5,80.9531 809.5,80.9531 809.5,80.9531 C809.5,80.9531 827.5,80.9531 827.5,70.9531 " fill="none" style="stroke:#000000;stroke-width:1.5;"/><text fill="#000000" font-family="sans-serif" font-size="14" lengthAdjust="spacing" textLength="32" x="790.5" y="446.5732">repo</text><path d="M791.5,459.875 C791.5,449.875 809.5,449.875 809.5,449.875 C809.5,449.875 827.5,449.875 827.5,459.875 L827.5,485.875 C827.5,495.875 809.5,495.875 809.5,495.875 C809.5,495.875 791.5,495.875 791.5,485.875 L791.5,459.875 " fill="#FEFECE" filter="url(#f10snqyaanlylh)" style="stroke:#000000;stroke-width:1.5;"/><path d="M791.5,459.875 C791.5,469.875 809.5,469.875 809.5,469.875 C809.5,469.875 827.5,469.875 827.5,459.875 " fill="none" style="stroke:#000000;stroke-width:1.5;"/><text fill="#000000" font-family="sans-serif" font-size="14" lengthAdjust="spacing" textLength="18" x="849" y="119.9482">db</text><path d="M843,70.9531 C843,60.9531 861,60.9531 861,60.9531 C861,60.9531 879,60.9531 879,70.9531 L879,96.9531 C879,106.9531 861,106.9531 861,106.9531 C861,106.9531 843,106.9531 843,96.9531 L843,70.9531 " fill="#FEFECE" filter="url(#f10snqyaanlylh)" style="stroke:#000000;stroke-width:1.5;"/><path d="M843,70.9531 C843,80.9531 861,80.9531 861,80.9531 C861,80.9531 879,80.9531 879,70.9531 " fill="none" style="stroke:#000000;stroke-width:1.5;"/><text fill="#000000" font-family="sans-serif" font-size="14" lengthAdjust="spacing" textLength="18" x="849" y="446.5732">db</text><path d="M843,459.875 C843,449.875 861,449.875 861,449.875 C861,449.875 879,449.875 879,459.875 L879,485.875 C879,495.875 861,495.875 861,495.875 C861,495.875 843,495.875 843,485.875 L843,459.875 " fill="#FEFECE" filter="url(#f10snqyaanlylh)" style="stroke:#000000;stroke-width:1.5;"/><path d="M843,459.875 C843,469.875 861,469.875 861,469.875 C861,469.875 879,469.875 879,459.875 " fill="none" style="stroke:#000000;stroke-width:1.5;"/><text fill="#000000" font-family="sans-serif" font-size="14" lengthAdjust="spacing" textLength="109" x="889" y="119.9482">ChangeListener</text><ellipse cx="946.5" cy="49.9531" fill="#FEFECE" filter="url(#f10snqyaanlylh)" rx="8" ry="8" style="stroke:#A80036;stroke-width:2.0;"/><path d="M946.5,57.9531 L946.5,84.9531 M933.5,65.9531 L959.5,65.9531 M946.5,84.9531 L933.5,99.9531 M946.5,84.9531 L959.5,99.9531 " fill="none" filter="url(#f10snqyaanlylh)" style="stroke:#A80036;stroke-width:2.0;"/><text fill="#000000" font-family="sans-serif" font-size="14" lengthAdjust="spacing" textLength="109" x="889" y="446.5732">ChangeListener</text><ellipse cx="946.5" cy="459.875" fill="#FEFECE" filter="url(#f10snqyaanlylh)" rx="8" ry="8" style="stroke:#A80036;stroke-width:2.0;"/><path d="M946.5,467.875 L946.5,494.875 M933.5,475.875 L959.5,475.875 M946.5,494.875 L933.5,509.875 M946.5,494.875 L959.5,509.875 " fill="none" filter="url(#f10snqyaanlylh)" style="stroke:#A80036;stroke-width:2.0;"/><polygon fill="#A80036" points="148.5,150.3828,158.5,154.3828,148.5,158.3828,152.5,154.3828" style="stroke:#A80036;stroke-width:1.0;"/><line style="stroke:#A80036;stroke-width:1.0;stroke-dasharray:2.0,2.0;" x1="36" x2="154.5" y1="154.3828" y2="154.3828"/><text fill="#000000" font-family="sans-serif" font-size="13" lengthAdjust="spacing" textLength="70" x="43" y="149.3169">HTTP POST</text><polygon fill="#A80036" points="357.5,179.5156,367.5,183.5156,357.5,187.5156,361.5,183.5156" style="stroke:#A80036;stroke-width:1.0;"/><line style="stroke:#A80036;stroke-width:1.0;" x1="160.5" x2="363.5" y1="183.5156" y2="183.5156"/><text fill="#000000" font-family="sans-serif" font-size="13" lengthAdjust="spacing" textLength="43" x="167.5" y="178.4497">handle</text><polygon fill="#A80036" points="563.5,208.6484,573.5,212.6484,563.5,216.6484,567.5,212.6484" style="stroke:#A80036;stroke-width:1.0;"/><line style="stroke:#A80036;stroke-width:1.0;" x1="369.5" x2="569.5" y1="212.6484" y2="212.6484"/><text fill="#000000" font-family="sans-serif" font-size="13" lengthAdjust="spacing" textLength="182" x="376.5" y="207.5825">getStroomZipOutputStream</text><line style="stroke:#A80036;stroke-width:1.0;" x1="807.5" x2="797.5" y1="241.7813" y2="237.7813"/><line style="stroke:#A80036;stroke-width:1.0;" x1="807.5" x2="797.5" y1="241.7813" y2="245.7813"/><line style="stroke:#A80036;stroke-width:1.0;" x1="369.5" x2="808.5" y1="241.7813" y2="241.7813"/><text fill="#000000" font-family="sans-serif" font-size="13" lengthAdjust="spacing" textLength="65" x="376.5" y="236.7153">Write data</text><polygon fill="#A80036" points="797.5,266.9141,807.5,270.9141,797.5,274.9141,801.5,270.9141" style="stroke:#A80036;stroke-width:1.0;"/><line style="stroke:#A80036;stroke-width:1.0;" x1="575.5" x2="803.5" y1="270.9141" y2="270.9141"/><text fill="#000000" font-family="sans-serif" font-size="13" lengthAdjust="spacing" textLength="85" x="582.5" y="265.8481">Add meta file</text><polygon fill="#A80036" points="797.5,296.0469,807.5,300.0469,797.5,304.0469,801.5,300.0469" style="stroke:#A80036;stroke-width:1.0;"/><line style="stroke:#A80036;stroke-width:1.0;" x1="575.5" x2="803.5" y1="300.0469" y2="300.0469"/><text fill="#000000" font-family="sans-serif" font-size="13" lengthAdjust="spacing" textLength="87" x="582.5" y="294.981">Unlock zip file</text><line style="stroke:#A80036;stroke-width:1.0;" x1="704" x2="694" y1="329.1797" y2="325.1797"/><line style="stroke:#A80036;stroke-width:1.0;" x1="704" x2="694" y1="329.1797" y2="333.1797"/><line style="stroke:#A80036;stroke-width:1.0;" x1="575.5" x2="705" y1="329.1797" y2="329.1797"/><text fill="#000000" font-family="sans-serif" font-size="13" lengthAdjust="spacing" textLength="69" x="582.5" y="324.1138">addSource</text><line style="stroke:#A80036;stroke-width:1.0;" x1="859" x2="849" y1="358.3125" y2="354.3125"/><line style="stroke:#A80036;stroke-width:1.0;" x1="859" x2="849" y1="358.3125" y2="362.3125"/><line style="stroke:#A80036;stroke-width:1.0;" x1="706" x2="860" y1="358.3125" y2="358.3125"/><text fill="#000000" font-family="sans-serif" font-size="13" lengthAdjust="spacing" textLength="131" x="713" y="353.2466">Add `source` record</text><line style="stroke:#A80036;stroke-width:1.0;" x1="944.5" x2="934.5" y1="387.4453" y2="391.4453"/><line style="stroke:#A80036;stroke-width:1.0;stroke-dasharray:2.0,2.0;" x1="706" x2="945.5" y1="387.4453" y2="387.4453"/><text fill="#000000" font-family="sans-serif" font-size="13" lengthAdjust="spacing" textLength="65" x="713" y="382.3794">onChange</text><polygon fill="#A80036" points="47,412.5781,37,416.5781,47,420.5781,43,416.5781" style="stroke:#A80036;stroke-width:1.0;"/><line style="stroke:#A80036;stroke-width:1.0;stroke-dasharray:2.0,2.0;" x1="41" x2="159.5" y1="416.5781" y2="416.5781"/><text fill="#000000" font-family="sans-serif" font-size="13" lengthAdjust="spacing" textLength="90" x="53" y="411.5122">200 Response</text><!--MD5=[5b626e0a8b84dd83350e8cfabefc9979]
@startuml

title Receive And Store Data

actor Supplier
participant ProxyRequestHandler
participant ProxyRepositoryStreamHandler
participant ProxyRepo
participant ProxyRepoSources
database repo
database db
actor ChangeListener

Supplier - -> ProxyRequestHandler: HTTP POST
ProxyRequestHandler -> ProxyRepositoryStreamHandler: handle
ProxyRepositoryStreamHandler -> ProxyRepo: getStroomZipOutputStream
ProxyRepositoryStreamHandler ->> repo: Write data
ProxyRepo -> repo: Add meta file
ProxyRepo -> repo: Unlock zip file
ProxyRepo ->> ProxyRepoSources: addSource
ProxyRepoSources ->> db: Add `source` record
ProxyRepoSources - -// ChangeListener: onChange
ProxyRequestHandler - -> Supplier: 200 Response


@enduml

PlantUML version 1.2021.00(Sun Jan 10 10:25:05 GMT 2021)
(GPL source distribution)
Java Runtime: OpenJDK Runtime Environment
JVM: OpenJDK 64-Bit Server VM
Default Encoding: UTF-8
Language: en
Country: GB
--></g></svg>