<?xml version="1.0" encoding="UTF-8" standalone="no"?><svg xmlns="http://www.w3.org/2000/svg" xmlns:xlink="http://www.w3.org/1999/xlink" contentScriptType="application/ecmascript" contentStyleType="text/css" height="518px" preserveAspectRatio="none" style="width:934px;height:518px;" version="1.1" viewBox="0 0 934 518" width="934px" zoomAndPan="magnify"><defs><filter height="300%" id="f10snqyaanlylh" width="300%" x="-1" y="-1"><feGaussianBlur result="blurOut" stdDeviation="2.0"/><feColorMatrix in="blurOut" result="blurOut2" type="matrix" values="0 0 0 0 0 0 0 0 0 0 0 0 0 0 0 0 0 0 .4 0"/><feOffset dx="4.0" dy="4.0" in="blurOut2" result="blurOut3"/><feBlend in="SourceGraphic" in2="blurOut3" mode="normal"/></filter></defs><g><text fill="#000000" font-family="sans-serif" font-size="18" lengthAdjust="spacing" textLength="192" x="373" y="28.708">Receive And Store Data</text><line style="stroke:#A80036;stroke-width:1.0;stroke-dasharray:5.0,5.0;" x1="34" x2="34" y1="123.25" y2="434.5781"/><line style="stroke:#A80036;stroke-width:1.0;stroke-dasharray:5.0,5.0;" x1="150" x2="150" y1="123.25" y2="434.5781"/><line style="stroke:#A80036;stroke-width:1.0;stroke-dasharray:5.0,5.0;" x1="346" x2="346" y1="123.25" y2="434.5781"/><line style="stroke:#A80036;stroke-width:1.0;stroke-dasharray:5.0,5.0;" x1="531.5" x2="531.5" y1="123.25" y2="434.5781"/><line style="stroke:#A80036;stroke-width:1.0;stroke-dasharray:5.0,5.0;" x1="651.5" x2="651.5" y1="123.25" y2="434.5781"/><line style="stroke:#A80036;stroke-width:1.0;stroke-dasharray:5.0,5.0;" x1="747.5" x2="747.5" y1="123.25" y2="434.5781"/><line style="stroke:#A80036;stroke-width:1.0;stroke-dasharray:5.0,5.0;" x1="801" x2="801" y1="123.25" y2="434.5781"/><line style="stroke:#A80036;stroke-width:1.0;stroke-dasharray:5.0,5.0;" x1="881" x2="881" y1="123.25" y2="434.5781"/><text fill="#000000" font-family="sans-serif" font-size="14" lengthAdjust="spacing" textLength="52" x="5" y="119.9482">Supplier</text><ellipse cx="34" cy="49.9531" fill="#FEFECE" filter="url(#f10snqyaanlylh)" rx="8" ry="8" style="stroke:#A80036;stroke-width:2.0;"/><path d="M34,57.9531 L34,84.9531 M21,65.9531 L47,65.9531 M34,84.9531 L21,99.9531 M34,84.9531 L47,99.9531 " fill="none" filter="url(#f10snqyaanlylh)" style="stroke:#A80036;stroke-width:2.0;"/><text fill="#000000" font-family="sans-serif" font-size="14" lengthAdjust="spacing" textLength="52" x="5" y="446.5732">Supplier</text><ellipse cx="34" cy="459.875" fill="#FEFECE" filter="url(#f10snqyaanlylh)" rx="8" ry="8" style="stroke:#A80036;stroke-width:2.0;"/><path d="M34,467.875 L34,494.875 M21,475.875 L47,475.875 M34,494.875 L21,509.875 M34,494.875 L47,509.875 " fill="none" filter="url(#f10snqyaanlylh)" style="stroke:#A80036;stroke-width:2.0;"/><rect fill="#FEFECE" filter="url(#f10snqyaanlylh)" height="30.2969" style="stroke:#A80036;stroke-width:1.5;" width="151" x="73" y="87.9531"/><text fill="#000000" font-family="sans-serif" font-size="14" lengthAdjust="spacing" textLength="137" x="80" y="107.9482">ProxyRequestHandler</text><rect fill="#FEFECE" filter="url(#f10snqyaanlylh)" height="30.2969" style="stroke:#A80036;stroke-width:1.5;" width="151" x="73" y="433.5781"/><text fill="#000000" font-family="sans-serif" font-size="14" lengthAdjust="spacing" textLength="137" x="80" y="453.5732">ProxyRequestHandler</text><rect fill="#FEFECE" filter="url(#f10snqyaanlylh)" height="30.2969" style="stroke:#A80036;stroke-width:1.5;" width="212" x="238" y="87.9531"/><text fill="#000000" font-family="sans-serif" font-size="14" lengthAdjust="spacing" textLength="198" x="245" y="107.9482">ProxyRepositoryStreamHandler</text><rect fill="#FEFECE" filter="url(#f10snqyaanlylh)" height="30.2969" style="stroke:#A80036;stroke-width:1.5;" width="212" x="238" y="433.5781"/><text fill="#000000" font-family="sans-serif" font-size="14" lengthAdjust="spacing" textLength="198" x="245" y="453.5732">ProxyRepositoryStreamHandler</text><rect fill="#FEFECE" filter="url(#f10snqyaanlylh)" height="30.2969" style="stroke:#A80036;stroke-width:1.5;" width="81" x="489.5" y="87.9531"/><text fill="#000000" font-family="sans-serif" font-size="14" lengthAdjust="spacing" textLength="67" x="496.5" y="107.9482">ProxyRepo</text><rect fill="#FEFECE" filter="url(#f10snqyaanlylh)" height="30.2969" style="stroke:#A80036;stroke-width:1.5;" width="81" x="489.5" y="433.5781"/><text fill="#000000" font-family="sans-serif" font-size="14" lengthAdjust="spacing" textLength="67" x="496.5" y="453.5732">ProxyRepo</text><rect fill="#FEFECE" filter="url(#f10snqyaanlylh)" height="30.2969" style="stroke:#A80036;stroke-width:1.5;" width="131" x="584.5" y="87.9531"/><text fill="#000000" font-family="sans-serif" font-size="14" lengthAdjust="spacing" textLength="117" x="591.5" y="107.9482">ProxyRepoSources</text><rect fill="#FEFECE" filter="url(#f10snqyaanlylh)" height="30.2969" style="stroke:#A80036;stroke-width:1.5;" width="131" x="584.5" y="433.5781"/><text fill="#000000" font-family="sans-serif" font-size="14" lengthAdjust="spacing" textLength="117" x="591.5" y="453.5732">ProxyRepoSources</text><text fill="#000000" font-family="sans-serif" font-size="14" lengthAdjust="spacing" textLength="29" x="730" y="119.9482">repo</text><path d="M729.5,70.9531 C729.5,60.9531 747.5,60.9531 747.5,60.9531 C747.5,60.9531 765.5,60.9531 765.5,70.9531 L765.5,96.9531 C765.5,106.9531 747.5,106.9531 747.5,106.9531 C747.5,106.9531 729.5,106.9531 729.5,96.9531 L729.5,70.9531 " fill="#FEFECE" filter="url(#f10snqyaanlylh)" style="stroke:#000000;stroke-width:1.5;"/><path d="M729.5,70.9531 C729.5,80.9531 747.5,80.9531 747.5,80.9531 C747.5,80.9531 765.5,80.9531 765.5,70.9531 " fill="none" style="stroke:#000000;stroke-width:1.5;"/><text fill="#000000" font-family="sans-serif" font-size="14" lengthAdjust="spacing" textLength="29" x="730" y="446.5732">repo</text><path d="M729.5,459.875 C729.5,449.875 747.5,449.875 747.5,449.875 C747.5,449.875 765.5,449.875 765.5,459.875 L765.5,485.875 C765.5,495.875 747.5,495.875 747.5,495.875 C747.5,495.875 729.5,495.875 729.5,485.875 L729.5,459.875 " fill="#FEFECE" filter="url(#f10snqyaanlylh)" style="stroke:#000000;stroke-width:1.5;"/><path d="M729.5,459.875 C729.5,469.875 747.5,469.875 747.5,469.875 C747.5,469.875 765.5,469.875 765.5,459.875 " fill="none" style="stroke:#000000;stroke-width:1.5;"/><text fill="#000000" font-family="sans-serif" font-size="14" lengthAdjust="spacing" textLength="16" x="790" y="119.9482">db</text><path d="M783,70.9531 C783,60.9531 801,60.9531 801,60.9531 C801,60.9531 819,60.9531 819,70.9531 L819,96.9531 C819,106.9531 801,106.9531 801,106.9531 C801,106.9531 783,106.9531 783,96.9531 L783,70.9531 " fill="#FEFECE" filter="url(#f10snqyaanlylh)" style="stroke:#000000;stroke-width:1.5;"/><path d="M783,70.9531 C783,80.9531 801,80.9531 801,80.9531 C801,80.9531 819,80.9531 819,70.9531 " fill="none" style="stroke:#000000;stroke-width:1.5;"/><text fill="#000000" font-family="sans-serif" font-size="14" lengthAdjust="spacing" textLength="16" x="790" y="446.5732">db</text><path d="M783,459.875 C783,449.875 801,449.875 801,449.875 C801,449.875 819,449.875 819,459.875 L819,485.875 C819,495.875 801,495.875 801,495.875 C801,495.875 783,495.875 783,485.875 L783,459.875 " fill="#FEFECE" filter="url(#f10snqyaanlylh)" style="stroke:#000000;stroke-width:1.5;"/><path d="M783,459.875 C783,469.875 801,469.875 801,469.875 C801,469.875 819,469.875 819,459.875 " fill="none" style="stroke:#000000;stroke-width:1.5;"/><text fill="#000000" font-family="sans-serif" font-size="14" lengthAdjust="spacing" textLength="98" x="829" y="119.9482">ChangeListener</text><ellipse cx="881" cy="49.9531" fill="#FEFECE" filter="url(#f10snqyaanlylh)" rx="8" ry="8" style="stroke:#A80036;stroke-width:2.0;"/><path d="M881,57.9531 L881,84.9531 M868,65.9531 L894,65.9531 M881,84.9531 L868,99.9531 M881,84.9531 L894,99.9531 " fill="none" filter="url(#f10snqyaanlylh)" style="stroke:#A80036;stroke-width:2.0;"/><text fill="#000000" font-family="sans-serif" font-size="14" lengthAdjust="spacing" textLength="98" x="829" y="446.5732">ChangeListener</text><ellipse cx="881" cy="459.875" fill="#FEFECE" filter="url(#f10snqyaanlylh)" rx="8" ry="8" style="stroke:#A80036;stroke-width:2.0;"/><path d="M881,467.875 L881,494.875 M868,475.875 L894,475.875 M881,494.875 L868,509.875 M881,494.875 L894,509.875 " fill="none" filter="url(#f10snqyaanlylh)" style="stroke:#A80036;stroke-width:2.0;"/><polygon fill="#A80036" points="138.5,150.3828,148.5,154.3828,138.5,158.3828,142.5,154.3828" style="stroke:#A80036;stroke-width:1.0;"/><line style="stroke:#A80036;stroke-width:1.0;stroke-dasharray:2.0,2.0;" x1="34" x2="144.5" y1="154.3828" y2="154.3828"/><text fill="#000000" font-family="sans-serif" font-size="13" lengthAdjust="spacing" textLength="64" x="41" y="149.3169">HTTP POST</text><polygon fill="#A80036" points="334,179.5156,344,183.5156,334,187.5156,338,183.5156" style="stroke:#A80036;stroke-width:1.0;"/><line style="stroke:#A80036;stroke-width:1.0;" x1="150.5" x2="340" y1="183.5156" y2="183.5156"/><text fill="#000000" font-family="sans-serif" font-size="13" lengthAdjust="spacing" textLength="41" x="157.5" y="178.4497">handle</text><polygon fill="#A80036" points="520,208.6484,530,212.6484,520,216.6484,524,212.6484" style="stroke:#A80036;stroke-width:1.0;"/><line style="stroke:#A80036;stroke-width:1.0;" x1="346" x2="526" y1="212.6484" y2="212.6484"/><text fill="#000000" font-family="sans-serif" font-size="13" lengthAdjust="spacing" textLength="162" x="353" y="207.5825">getStroomZipOutputStream</text><line style="stroke:#A80036;stroke-width:1.0;" x1="745.5" x2="735.5" y1="241.7813" y2="237.7813"/><line style="stroke:#A80036;stroke-width:1.0;" x1="745.5" x2="735.5" y1="241.7813" y2="245.7813"/><line style="stroke:#A80036;stroke-width:1.0;" x1="346" x2="746.5" y1="241.7813" y2="241.7813"/><text fill="#000000" font-family="sans-serif" font-size="13" lengthAdjust="spacing" textLength="59" x="353" y="236.7153">Write data</text><polygon fill="#A80036" points="735.5,266.9141,745.5,270.9141,735.5,274.9141,739.5,270.9141" style="stroke:#A80036;stroke-width:1.0;"/><line style="stroke:#A80036;stroke-width:1.0;" x1="532" x2="741.5" y1="270.9141" y2="270.9141"/><text fill="#000000" font-family="sans-serif" font-size="13" lengthAdjust="spacing" textLength="76" x="539" y="265.8481">Add meta file</text><polygon fill="#A80036" points="735.5,296.0469,745.5,300.0469,735.5,304.0469,739.5,300.0469" style="stroke:#A80036;stroke-width:1.0;"/><line style="stroke:#A80036;stroke-width:1.0;" x1="532" x2="741.5" y1="300.0469" y2="300.0469"/><text fill="#000000" font-family="sans-serif" font-size="13" lengthAdjust="spacing" textLength="80" x="539" y="294.981">Unlock zip file</text><line style="stroke:#A80036;stroke-width:1.0;" x1="650" x2="640" y1="329.1797" y2="325.1797"/><line style="stroke:#A80036;stroke-width:1.0;" x1="650" x2="640" y1="329.1797" y2="333.1797"/><line style="stroke:#A80036;stroke-width:1.0;" x1="532" x2="651" y1="329.1797" y2="329.1797"/><text fill="#000000" font-family="sans-serif" font-size="13" lengthAdjust="spacing" textLength="64" x="539" y="324.1138">addSource</text><line style="stroke:#A80036;stroke-width:1.0;" x1="799" x2="789" y1="358.3125" y2="354.3125"/><line style="stroke:#A80036;stroke-width:1.0;" x1="799" x2="789" y1="358.3125" y2="362.3125"/><line style="stroke:#A80036;stroke-width:1.0;" x1="652" x2="800" y1="358.3125" y2="358.3125"/><text fill="#000000" font-family="sans-serif" font-size="13" lengthAdjust="spacing" textLength="125" x="659" y="353.2466">Add `source` record</text><line style="stroke:#A80036;stroke-width:1.0;" x1="879" x2="869" y1="387.4453" y2="391.4453"/><line style="stroke:#A80036;stroke-width:1.0;stroke-dasharray:2.0,2.0;" x1="652" x2="880" y1="387.4453" y2="387.4453"/><text fill="#000000" font-family="sans-serif" font-size="13" lengthAdjust="spacing" textLength="61" x="659" y="382.3794">onChange</text><polygon fill="#A80036" points="45,412.5781,35,416.5781,45,420.5781,41,416.5781" style="stroke:#A80036;stroke-width:1.0;"/><line style="stroke:#A80036;stroke-width:1.0;stroke-dasharray:2.0,2.0;" x1="39" x2="149.5" y1="416.5781" y2="416.5781"/><text fill="#000000" font-family="sans-serif" font-size="13" lengthAdjust="spacing" textLength="82" x="51" y="411.5122">200 Response</text><!--MD5=[7886e585a4bfec78652ed1d323447db5]
@startuml

title Receive And Store Data

actor Supplier
participant ProxyRequestHandler
participant ProxyRepositoryStreamHandler
participant ProxyRepo
participant ProxyRepoSources
database repo
database db
actor ChangeListener

Supplier - -> ProxyRequestHandler: HTTP POST
ProxyRequestHandler -> ProxyRepositoryStreamHandler: handle
ProxyRepositoryStreamHandler -> ProxyRepo: getStroomZipOutputStream
ProxyRepositoryStreamHandler ->> repo: Write data
ProxyRepo -> repo: Add meta file
ProxyRepo -> repo: Unlock zip file
ProxyRepo ->> ProxyRepoSources: addSource
ProxyRepoSources ->> db: Add `source` record
ProxyRepoSources - -// ChangeListener: onChange
ProxyRequestHandler - -> Supplier: 200 Response


@enduml

PlantUML version 1.2021.5(Sun Apr 25 11:20:28 GMT 2021)
(GPL source distribution)
Java Runtime: OpenJDK Runtime Environment
JVM: OpenJDK 64-Bit Server VM
Default Encoding: UTF-8
Language: en
Country: GB
--></g></svg>