<?xml version="1.0" encoding="us-ascii" standalone="no"?><svg xmlns="http://www.w3.org/2000/svg" xmlns:xlink="http://www.w3.org/1999/xlink" contentStyleType="text/css" height="335px" preserveAspectRatio="none" style="width:554px;height:335px;background:#FFFFFF;" version="1.1" viewBox="0 0 554 335" width="554px" zoomAndPan="magnify"><defs/><g><text fill="#000000" font-family="sans-serif" font-size="14" font-weight="bold" lengthAdjust="spacing" textLength="133" x="212.25" y="27.9951">Scan Proxy Repo</text><line style="stroke:#181818;stroke-width:0.5;stroke-dasharray:5.0,5.0;" x1="89" x2="89" y1="118.5938" y2="255.125"/><line style="stroke:#181818;stroke-width:0.5;stroke-dasharray:5.0,5.0;" x1="255" x2="255" y1="118.5938" y2="255.125"/><line style="stroke:#181818;stroke-width:0.5;stroke-dasharray:5.0,5.0;" x1="357" x2="357" y1="118.5938" y2="255.125"/><line style="stroke:#181818;stroke-width:0.5;stroke-dasharray:5.0,5.0;" x1="410.5" x2="410.5" y1="118.5938" y2="255.125"/><line style="stroke:#181818;stroke-width:0.5;stroke-dasharray:5.0,5.0;" x1="495.5" x2="495.5" y1="118.5938" y2="255.125"/><rect fill="#E2E2F0" height="30.2969" rx="2.5" ry="2.5" style="stroke:#181818;stroke-width:0.5;" width="168" x="5" y="87.2969"/><text fill="#000000" font-family="sans-serif" font-size="14" lengthAdjust="spacing" textLength="154" x="12" y="107.292">ProxyRepoFileScanner</text><rect fill="#E2E2F0" height="30.2969" rx="2.5" ry="2.5" style="stroke:#181818;stroke-width:0.5;" width="168" x="5" y="254.125"/><text fill="#000000" font-family="sans-serif" font-size="14" lengthAdjust="spacing" textLength="154" x="12" y="274.1201">ProxyRepoFileScanner</text><rect fill="#E2E2F0" height="30.2969" rx="2.5" ry="2.5" style="stroke:#181818;stroke-width:0.5;" width="145" x="183" y="87.2969"/><text fill="#000000" font-family="sans-serif" font-size="14" lengthAdjust="spacing" textLength="131" x="190" y="107.292">ProxyRepoSources</text><rect fill="#E2E2F0" height="30.2969" rx="2.5" ry="2.5" style="stroke:#181818;stroke-width:0.5;" width="145" x="183" y="254.125"/><text fill="#000000" font-family="sans-serif" font-size="14" lengthAdjust="spacing" textLength="131" x="190" y="274.1201">ProxyRepoSources</text><text fill="#000000" font-family="sans-serif" font-size="14" lengthAdjust="spacing" textLength="32" x="338" y="115.292">repo</text><path d="M339,66.2969 C339,56.2969 357,56.2969 357,56.2969 C357,56.2969 375,56.2969 375,66.2969 L375,92.2969 C375,102.2969 357,102.2969 357,102.2969 C357,102.2969 339,102.2969 339,92.2969 L339,66.2969 " fill="#E2E2F0" style="stroke:#181818;stroke-width:1.5;"/><path d="M339,66.2969 C339,76.2969 357,76.2969 357,76.2969 C357,76.2969 375,76.2969 375,66.2969 " fill="none" style="stroke:#181818;stroke-width:1.5;"/><text fill="#000000" font-family="sans-serif" font-size="14" lengthAdjust="spacing" textLength="32" x="338" y="267.1201">repo</text><path d="M339,280.4219 C339,270.4219 357,270.4219 357,270.4219 C357,270.4219 375,270.4219 375,280.4219 L375,306.4219 C375,316.4219 357,316.4219 357,316.4219 C357,316.4219 339,316.4219 339,306.4219 L339,280.4219 " fill="#E2E2F0" style="stroke:#181818;stroke-width:1.5;"/><path d="M339,280.4219 C339,290.4219 357,290.4219 357,290.4219 C357,290.4219 375,290.4219 375,280.4219 " fill="none" style="stroke:#181818;stroke-width:1.5;"/><text fill="#000000" font-family="sans-serif" font-size="14" lengthAdjust="spacing" textLength="18" x="398.5" y="115.292">db</text><path d="M392.5,66.2969 C392.5,56.2969 410.5,56.2969 410.5,56.2969 C410.5,56.2969 428.5,56.2969 428.5,66.2969 L428.5,92.2969 C428.5,102.2969 410.5,102.2969 410.5,102.2969 C410.5,102.2969 392.5,102.2969 392.5,92.2969 L392.5,66.2969 " fill="#E2E2F0" style="stroke:#181818;stroke-width:1.5;"/><path d="M392.5,66.2969 C392.5,76.2969 410.5,76.2969 410.5,76.2969 C410.5,76.2969 428.5,76.2969 428.5,66.2969 " fill="none" style="stroke:#181818;stroke-width:1.5;"/><text fill="#000000" font-family="sans-serif" font-size="14" lengthAdjust="spacing" textLength="18" x="398.5" y="267.1201">db</text><path d="M392.5,280.4219 C392.5,270.4219 410.5,270.4219 410.5,270.4219 C410.5,270.4219 428.5,270.4219 428.5,280.4219 L428.5,306.4219 C428.5,316.4219 410.5,316.4219 410.5,316.4219 C410.5,316.4219 392.5,316.4219 392.5,306.4219 L392.5,280.4219 " fill="#E2E2F0" style="stroke:#181818;stroke-width:1.5;"/><path d="M392.5,280.4219 C392.5,290.4219 410.5,290.4219 410.5,290.4219 C410.5,290.4219 428.5,290.4219 428.5,280.4219 " fill="none" style="stroke:#181818;stroke-width:1.5;"/><text fill="#000000" font-family="sans-serif" font-size="14" lengthAdjust="spacing" textLength="109" x="438.5" y="115.292">ChangeListener</text><ellipse cx="496" cy="50.7969" fill="#E2E2F0" rx="8" ry="8" style="stroke:#181818;stroke-width:0.5;"/><path d="M496,58.7969 L496,85.7969 M483,66.7969 L509,66.7969 M496,85.7969 L483,100.7969 M496,85.7969 L509,100.7969 " fill="none" style="stroke:#181818;stroke-width:0.5;"/><text fill="#000000" font-family="sans-serif" font-size="14" lengthAdjust="spacing" textLength="109" x="438.5" y="267.1201">ChangeListener</text><ellipse cx="496" cy="278.9219" fill="#E2E2F0" rx="8" ry="8" style="stroke:#181818;stroke-width:0.5;"/><path d="M496,286.9219 L496,313.9219 M483,294.9219 L509,294.9219 M496,313.9219 L483,328.9219 M496,313.9219 L509,328.9219 " fill="none" style="stroke:#181818;stroke-width:0.5;"/><line style="stroke:#181818;stroke-width:1.0;" x1="355" x2="345" y1="149.7266" y2="145.7266"/><line style="stroke:#181818;stroke-width:1.0;" x1="355" x2="345" y1="149.7266" y2="153.7266"/><line style="stroke:#181818;stroke-width:1.0;" x1="89" x2="356" y1="149.7266" y2="149.7266"/><text fill="#000000" font-family="sans-serif" font-size="13" lengthAdjust="spacing" textLength="30" x="96" y="144.6606">scan</text><line style="stroke:#181818;stroke-width:1.0;" x1="253.5" x2="243.5" y1="178.8594" y2="174.8594"/><line style="stroke:#181818;stroke-width:1.0;" x1="253.5" x2="243.5" y1="178.8594" y2="182.8594"/><line style="stroke:#181818;stroke-width:1.0;" x1="89" x2="254.5" y1="178.8594" y2="178.8594"/><text fill="#000000" font-family="sans-serif" font-size="13" lengthAdjust="spacing" textLength="69" x="96" y="173.7935">addSource</text><line style="stroke:#181818;stroke-width:1.0;" x1="408.5" x2="398.5" y1="207.9922" y2="203.9922"/><line style="stroke:#181818;stroke-width:1.0;" x1="408.5" x2="398.5" y1="207.9922" y2="211.9922"/><line style="stroke:#181818;stroke-width:1.0;" x1="255.5" x2="409.5" y1="207.9922" y2="207.9922"/><text fill="#000000" font-family="sans-serif" font-size="13" lengthAdjust="spacing" textLength="131" x="262.5" y="202.9263">Add `source` record</text><line style="stroke:#181818;stroke-width:1.0;" x1="494" x2="484" y1="237.125" y2="241.125"/><line style="stroke:#181818;stroke-width:1.0;stroke-dasharray:2.0,2.0;" x1="255.5" x2="495" y1="237.125" y2="237.125"/><text fill="#000000" font-family="sans-serif" font-size="13" lengthAdjust="spacing" textLength="65" x="262.5" y="232.0591">onChange</text><!--SRC=[TOux2iCm38PtdK8N2Daz14gXKuVIN22A9Lf3i8siGdlxnWbqCEacVVeVic2BuEWfuatJ-uDtoGaWarhm8LEqdLTy2OjKPHGz5epffLuAC1dDL0IrXlqsde6y9SNpa-93hg6Or2muQi1k63Q_mxAI_vgstI4nxpEqjyt0iyCJCqvbWzFQufFoWRZh- -PNXodk1E0B]--></g></svg>