<?xml version="1.0" encoding="us-ascii" standalone="no"?><svg xmlns="http://www.w3.org/2000/svg" xmlns:xlink="http://www.w3.org/1999/xlink" contentStyleType="text/css" height="335px" preserveAspectRatio="none" style="width:516px;height:335px;background:#FFFFFF;" version="1.1" viewBox="0 0 516 335" width="516px" zoomAndPan="magnify"><defs/><g><text fill="#000000" font-family="sans-serif" font-size="14" font-weight="bold" lengthAdjust="spacing" textLength="114" x="202.75" y="27.9951">Scan Proxy Repo</text><line style="stroke:#181818;stroke-width:0.5;stroke-dasharray:5.0,5.0;" x1="82" x2="82" y1="118.5938" y2="255.125"/><line style="stroke:#181818;stroke-width:0.5;stroke-dasharray:5.0,5.0;" x1="234" x2="234" y1="118.5938" y2="255.125"/><line style="stroke:#181818;stroke-width:0.5;stroke-dasharray:5.0,5.0;" x1="328" x2="328" y1="118.5938" y2="255.125"/><line style="stroke:#181818;stroke-width:0.5;stroke-dasharray:5.0,5.0;" x1="383.5" x2="383.5" y1="118.5938" y2="255.125"/><line style="stroke:#181818;stroke-width:0.5;stroke-dasharray:5.0,5.0;" x1="463.5" x2="463.5" y1="118.5938" y2="255.125"/><rect fill="#E2E2F0" height="30.2969" rx="2.5" ry="2.5" style="stroke:#181818;stroke-width:0.5;" width="154" x="5" y="87.2969"/><text fill="#000000" font-family="sans-serif" font-size="14" lengthAdjust="spacing" textLength="140" x="12" y="107.292">ProxyRepoFileScanner</text><rect fill="#E2E2F0" height="30.2969" rx="2.5" ry="2.5" style="stroke:#181818;stroke-width:0.5;" width="154" x="5" y="254.125"/><text fill="#000000" font-family="sans-serif" font-size="14" lengthAdjust="spacing" textLength="140" x="12" y="274.1201">ProxyRepoFileScanner</text><rect fill="#E2E2F0" height="30.2969" rx="2.5" ry="2.5" style="stroke:#181818;stroke-width:0.5;" width="131" x="169" y="87.2969"/><text fill="#000000" font-family="sans-serif" font-size="14" lengthAdjust="spacing" textLength="117" x="176" y="107.292">ProxyRepoSources</text><rect fill="#E2E2F0" height="30.2969" rx="2.5" ry="2.5" style="stroke:#181818;stroke-width:0.5;" width="131" x="169" y="254.125"/><text fill="#000000" font-family="sans-serif" font-size="14" lengthAdjust="spacing" textLength="117" x="176" y="274.1201">ProxyRepoSources</text><text fill="#000000" font-family="sans-serif" font-size="14" lengthAdjust="spacing" textLength="29" x="310.5" y="115.292">repo</text><path d="M310,66.2969 C310,56.2969 328,56.2969 328,56.2969 C328,56.2969 346,56.2969 346,66.2969 L346,92.2969 C346,102.2969 328,102.2969 328,102.2969 C328,102.2969 310,102.2969 310,92.2969 L310,66.2969 " fill="#E2E2F0" style="stroke:#181818;stroke-width:1.5;"/><path d="M310,66.2969 C310,76.2969 328,76.2969 328,76.2969 C328,76.2969 346,76.2969 346,66.2969 " fill="none" style="stroke:#181818;stroke-width:1.5;"/><text fill="#000000" font-family="sans-serif" font-size="14" lengthAdjust="spacing" textLength="29" x="310.5" y="267.1201">repo</text><path d="M310,280.4219 C310,270.4219 328,270.4219 328,270.4219 C328,270.4219 346,270.4219 346,280.4219 L346,306.4219 C346,316.4219 328,316.4219 328,316.4219 C328,316.4219 310,316.4219 310,306.4219 L310,280.4219 " fill="#E2E2F0" style="stroke:#181818;stroke-width:1.5;"/><path d="M310,280.4219 C310,290.4219 328,290.4219 328,290.4219 C328,290.4219 346,290.4219 346,280.4219 " fill="none" style="stroke:#181818;stroke-width:1.5;"/><text fill="#000000" font-family="sans-serif" font-size="14" lengthAdjust="spacing" textLength="16" x="372.5" y="115.292">db</text><path d="M365.5,66.2969 C365.5,56.2969 383.5,56.2969 383.5,56.2969 C383.5,56.2969 401.5,56.2969 401.5,66.2969 L401.5,92.2969 C401.5,102.2969 383.5,102.2969 383.5,102.2969 C383.5,102.2969 365.5,102.2969 365.5,92.2969 L365.5,66.2969 " fill="#E2E2F0" style="stroke:#181818;stroke-width:1.5;"/><path d="M365.5,66.2969 C365.5,76.2969 383.5,76.2969 383.5,76.2969 C383.5,76.2969 401.5,76.2969 401.5,66.2969 " fill="none" style="stroke:#181818;stroke-width:1.5;"/><text fill="#000000" font-family="sans-serif" font-size="14" lengthAdjust="spacing" textLength="16" x="372.5" y="267.1201">db</text><path d="M365.5,280.4219 C365.5,270.4219 383.5,270.4219 383.5,270.4219 C383.5,270.4219 401.5,270.4219 401.5,280.4219 L401.5,306.4219 C401.5,316.4219 383.5,316.4219 383.5,316.4219 C383.5,316.4219 365.5,316.4219 365.5,306.4219 L365.5,280.4219 " fill="#E2E2F0" style="stroke:#181818;stroke-width:1.5;"/><path d="M365.5,280.4219 C365.5,290.4219 383.5,290.4219 383.5,290.4219 C383.5,290.4219 401.5,290.4219 401.5,280.4219 " fill="none" style="stroke:#181818;stroke-width:1.5;"/><text fill="#000000" font-family="sans-serif" font-size="14" lengthAdjust="spacing" textLength="98" x="411.5" y="115.292">ChangeListener</text><ellipse cx="463.5" cy="50.7969" fill="#E2E2F0" rx="8" ry="8" style="stroke:#181818;stroke-width:0.5;"/><path d="M463.5,58.7969 L463.5,85.7969 M450.5,66.7969 L476.5,66.7969 M463.5,85.7969 L450.5,100.7969 M463.5,85.7969 L476.5,100.7969 " fill="none" style="stroke:#181818;stroke-width:0.5;"/><text fill="#000000" font-family="sans-serif" font-size="14" lengthAdjust="spacing" textLength="98" x="411.5" y="267.1201">ChangeListener</text><ellipse cx="463.5" cy="278.9219" fill="#E2E2F0" rx="8" ry="8" style="stroke:#181818;stroke-width:0.5;"/><path d="M463.5,286.9219 L463.5,313.9219 M450.5,294.9219 L476.5,294.9219 M463.5,313.9219 L450.5,328.9219 M463.5,313.9219 L476.5,328.9219 " fill="none" style="stroke:#181818;stroke-width:0.5;"/><line style="stroke:#181818;stroke-width:1.0;" x1="326" x2="316" y1="149.7266" y2="145.7266"/><line style="stroke:#181818;stroke-width:1.0;" x1="326" x2="316" y1="149.7266" y2="153.7266"/><line style="stroke:#181818;stroke-width:1.0;" x1="82" x2="327" y1="149.7266" y2="149.7266"/><text fill="#000000" font-family="sans-serif" font-size="13" lengthAdjust="spacing" textLength="27" x="89" y="144.6606">scan</text><line style="stroke:#181818;stroke-width:1.0;" x1="232.5" x2="222.5" y1="178.8594" y2="174.8594"/><line style="stroke:#181818;stroke-width:1.0;" x1="232.5" x2="222.5" y1="178.8594" y2="182.8594"/><line style="stroke:#181818;stroke-width:1.0;" x1="82" x2="233.5" y1="178.8594" y2="178.8594"/><text fill="#000000" font-family="sans-serif" font-size="13" lengthAdjust="spacing" textLength="64" x="89" y="173.7935">addSource</text><line style="stroke:#181818;stroke-width:1.0;" x1="381.5" x2="371.5" y1="207.9922" y2="203.9922"/><line style="stroke:#181818;stroke-width:1.0;" x1="381.5" x2="371.5" y1="207.9922" y2="211.9922"/><line style="stroke:#181818;stroke-width:1.0;" x1="234.5" x2="382.5" y1="207.9922" y2="207.9922"/><text fill="#000000" font-family="sans-serif" font-size="13" lengthAdjust="spacing" textLength="125" x="241.5" y="202.9263">Add `source` record</text><line style="stroke:#181818;stroke-width:1.0;" x1="461.5" x2="451.5" y1="237.125" y2="241.125"/><line style="stroke:#181818;stroke-width:1.0;stroke-dasharray:2.0,2.0;" x1="234.5" x2="462.5" y1="237.125" y2="237.125"/><text fill="#000000" font-family="sans-serif" font-size="13" lengthAdjust="spacing" textLength="61" x="241.5" y="232.0591">onChange</text><!--SRC=[TOux2iCm38PtdK8N2Daz14gXKuVIN22A9Lf3i8siGdlxnWbqCEacVVeVic2BuEWfuatJ-uDtoGaWarhm8LEqdLTy2OjKPHGz5epffLuAC1dDL0IrXlqsde6y9SNpa-93hg6Or2muQi1k63Q_mxAI_vgstI4nxpEqjyt0iyCJCqvbWzFQufFoWRZh- -PNXodk1E0B]--></g></svg>