<?xml version="1.0" encoding="UTF-8" standalone="no"?><svg xmlns="http://www.w3.org/2000/svg" xmlns:xlink="http://www.w3.org/1999/xlink" contentStyleType="text/css" height="354px" preserveAspectRatio="none" style="width:530px;height:354px;background:#FFFFFF;" version="1.1" viewBox="0 0 530 354" width="530px" zoomAndPan="magnify"><defs/><g><rect height="29.0679" style="stroke:#00000000;stroke-width:1.0;fill:none;" width="125" x="204" y="10"/><text fill="#000000" font-family="sans-serif" font-size="14" font-weight="bold" lengthAdjust="spacing" textLength="115" x="209" y="29.9659">Scan Proxy Repo</text><line style="stroke:#181818;stroke-width:0.5;stroke-dasharray:5.0,5.0;" x1="86" x2="86" y1="124.1358" y2="270.9599"/><line style="stroke:#181818;stroke-width:0.5;stroke-dasharray:5.0,5.0;" x1="245" x2="245" y1="124.1358" y2="270.9599"/><line style="stroke:#181818;stroke-width:0.5;stroke-dasharray:5.0,5.0;" x1="342" x2="342" y1="124.1358" y2="270.9599"/><line style="stroke:#181818;stroke-width:0.5;stroke-dasharray:5.0,5.0;" x1="389" x2="389" y1="124.1358" y2="270.9599"/><line style="stroke:#181818;stroke-width:0.5;stroke-dasharray:5.0,5.0;" x1="473" x2="473" y1="124.1358" y2="270.9599"/><rect fill="#E2E2F0" height="33.0679" rx="2.5" ry="2.5" style="stroke:#181818;stroke-width:0.5;" width="162" x="5" y="90.0679"/><text fill="#000000" font-family="sans-serif" font-size="14" lengthAdjust="spacing" textLength="148" x="12" y="112.0339">ProxyRepoFileScanner</text><rect fill="#E2E2F0" height="33.0679" rx="2.5" ry="2.5" style="stroke:#181818;stroke-width:0.5;" width="162" x="5" y="269.9599"/><text fill="#000000" font-family="sans-serif" font-size="14" lengthAdjust="spacing" textLength="148" x="12" y="291.9258">ProxyRepoFileScanner</text><rect fill="#E2E2F0" height="33.0679" rx="2.5" ry="2.5" style="stroke:#181818;stroke-width:0.5;" width="137" x="177" y="90.0679"/><text fill="#000000" font-family="sans-serif" font-size="14" lengthAdjust="spacing" textLength="123" x="184" y="112.0339">ProxyRepoSources</text><rect fill="#E2E2F0" height="33.0679" rx="2.5" ry="2.5" style="stroke:#181818;stroke-width:0.5;" width="137" x="177" y="269.9599"/><text fill="#000000" font-family="sans-serif" font-size="14" lengthAdjust="spacing" textLength="123" x="184" y="291.9258">ProxyRepoSources</text><text fill="#000000" font-family="sans-serif" font-size="14" lengthAdjust="spacing" textLength="31" x="324" y="120.0339">repo</text><path d="M324.5,69.0679 C324.5,59.0679 342.5,59.0679 342.5,59.0679 C342.5,59.0679 360.5,59.0679 360.5,69.0679 L360.5,95.0679 C360.5,105.0679 342.5,105.0679 342.5,105.0679 C342.5,105.0679 324.5,105.0679 324.5,95.0679 L324.5,69.0679 " fill="#E2E2F0" style="stroke:#181818;stroke-width:1.5;"/><path d="M324.5,69.0679 C324.5,79.0679 342.5,79.0679 342.5,79.0679 C342.5,79.0679 360.5,79.0679 360.5,69.0679 " fill="none" style="stroke:#181818;stroke-width:1.5;"/><text fill="#000000" font-family="sans-serif" font-size="14" lengthAdjust="spacing" textLength="31" x="324" y="284.9258">repo</text><path d="M324.5,299.0278 C324.5,289.0278 342.5,289.0278 342.5,289.0278 C342.5,289.0278 360.5,289.0278 360.5,299.0278 L360.5,325.0278 C360.5,335.0278 342.5,335.0278 342.5,335.0278 C342.5,335.0278 324.5,335.0278 324.5,325.0278 L324.5,299.0278 " fill="#E2E2F0" style="stroke:#181818;stroke-width:1.5;"/><path d="M324.5,299.0278 C324.5,309.0278 342.5,309.0278 342.5,309.0278 C342.5,309.0278 360.5,309.0278 360.5,299.0278 " fill="none" style="stroke:#181818;stroke-width:1.5;"/><text fill="#000000" font-family="sans-serif" font-size="14" lengthAdjust="spacing" textLength="18" x="377" y="120.0339">db</text><path d="M371,69.0679 C371,59.0679 389,59.0679 389,59.0679 C389,59.0679 407,59.0679 407,69.0679 L407,95.0679 C407,105.0679 389,105.0679 389,105.0679 C389,105.0679 371,105.0679 371,95.0679 L371,69.0679 " fill="#E2E2F0" style="stroke:#181818;stroke-width:1.5;"/><path d="M371,69.0679 C371,79.0679 389,79.0679 389,79.0679 C389,79.0679 407,79.0679 407,69.0679 " fill="none" style="stroke:#181818;stroke-width:1.5;"/><text fill="#000000" font-family="sans-serif" font-size="14" lengthAdjust="spacing" textLength="18" x="377" y="284.9258">db</text><path d="M371,299.0278 C371,289.0278 389,289.0278 389,289.0278 C389,289.0278 407,289.0278 407,299.0278 L407,325.0278 C407,335.0278 389,335.0278 389,335.0278 C389,335.0278 371,335.0278 371,325.0278 L371,299.0278 " fill="#E2E2F0" style="stroke:#181818;stroke-width:1.5;"/><path d="M371,299.0278 C371,309.0278 389,309.0278 389,309.0278 C389,309.0278 407,309.0278 407,299.0278 " fill="none" style="stroke:#181818;stroke-width:1.5;"/><text fill="#000000" font-family="sans-serif" font-size="14" lengthAdjust="spacing" textLength="106" x="417" y="120.0339">ChangeListener</text><ellipse cx="473" cy="53.5679" fill="#E2E2F0" rx="8" ry="8" style="stroke:#181818;stroke-width:0.5;"/><path d="M473,61.5679 L473,88.5679 M460,69.5679 L486,69.5679 M473,88.5679 L460,103.5679 M473,88.5679 L486,103.5679 " fill="none" style="stroke:#181818;stroke-width:0.5;"/><text fill="#000000" font-family="sans-serif" font-size="14" lengthAdjust="spacing" textLength="106" x="417" y="284.9258">ChangeListener</text><ellipse cx="473" cy="297.5278" fill="#E2E2F0" rx="8" ry="8" style="stroke:#181818;stroke-width:0.5;"/><path d="M473,305.5278 L473,332.5278 M460,313.5278 L486,313.5278 M473,332.5278 L460,347.5278 M473,332.5278 L486,347.5278 " fill="none" style="stroke:#181818;stroke-width:0.5;"/><line style="stroke:#181818;stroke-width:1.0;" x1="340.5" x2="330.5" y1="157.8419" y2="153.8419"/><line style="stroke:#181818;stroke-width:1.0;" x1="340.5" x2="330.5" y1="157.8419" y2="161.8419"/><line style="stroke:#181818;stroke-width:1.0;" x1="86" x2="341.5" y1="157.8419" y2="157.8419"/><text fill="#000000" font-family="sans-serif" font-size="13" lengthAdjust="spacing" textLength="27" x="93" y="152.0328">scan</text><line style="stroke:#181818;stroke-width:1.0;" x1="243.5" x2="233.5" y1="189.5479" y2="185.5479"/><line style="stroke:#181818;stroke-width:1.0;" x1="243.5" x2="233.5" y1="189.5479" y2="193.5479"/><line style="stroke:#181818;stroke-width:1.0;" x1="86" x2="244.5" y1="189.5479" y2="189.5479"/><text fill="#000000" font-family="sans-serif" font-size="13" lengthAdjust="spacing" textLength="64" x="93" y="183.7389">addSource</text><line style="stroke:#181818;stroke-width:1.0;" x1="387" x2="377" y1="221.2539" y2="217.2539"/><line style="stroke:#181818;stroke-width:1.0;" x1="387" x2="377" y1="221.2539" y2="225.2539"/><line style="stroke:#181818;stroke-width:1.0;" x1="245.5" x2="388" y1="221.2539" y2="221.2539"/><text fill="#000000" font-family="sans-serif" font-size="13" lengthAdjust="spacing" textLength="117" x="252.5" y="215.4449">Add `source` record</text><line style="stroke:#181818;stroke-width:1.0;" x1="471" x2="461" y1="252.9599" y2="256.9599"/><line style="stroke:#181818;stroke-width:1.0;stroke-dasharray:2.0,2.0;" x1="245.5" x2="472" y1="252.9599" y2="252.9599"/><text fill="#000000" font-family="sans-serif" font-size="13" lengthAdjust="spacing" textLength="62" x="252.5" y="247.1509">onChange</text><!--MD5=[e7cec9ac32329798a39b2fb336b71709]
@startuml

title Scan Proxy Repo

participant ProxyRepoFileScanner
participant ProxyRepoSources
database repo
database db
actor ChangeListener

ProxyRepoFileScanner ->> repo: scan
ProxyRepoFileScanner ->> ProxyRepoSources: addSource
ProxyRepoSources ->> db: Add `source` record
ProxyRepoSources - -// ChangeListener: onChange


@enduml

PlantUML version 1.2022.4(Sat Apr 09 14:29:17 BST 2022)
(GPL source distribution)
Java Runtime: OpenJDK Runtime Environment
JVM: OpenJDK 64-Bit Server VM
Default Encoding: UTF-8
Language: en
Country: GB
--></g></svg>