<?xml version="1.0" encoding="UTF-8" standalone="no"?><svg xmlns="http://www.w3.org/2000/svg" xmlns:xlink="http://www.w3.org/1999/xlink" contentScriptType="application/ecmascript" contentStyleType="text/css" height="344px" preserveAspectRatio="none" style="width:522px;height:344px;" version="1.1" viewBox="0 0 522 344" width="522px" zoomAndPan="magnify"><defs><filter height="300%" id="f4ufijvalrcjv" width="300%" x="-1" y="-1"><feGaussianBlur result="blurOut" stdDeviation="2.0"/><feColorMatrix in="blurOut" result="blurOut2" type="matrix" values="0 0 0 0 0 0 0 0 0 0 0 0 0 0 0 0 0 0 .4 0"/><feOffset dx="4.0" dy="4.0" in="blurOut2" result="blurOut3"/><feBlend in="SourceGraphic" in2="blurOut3" mode="normal"/></filter></defs><g><text fill="#000000" font-family="sans-serif" font-size="18" lengthAdjust="spacing" textLength="137" x="194.75" y="28.708">Scan Proxy Repo</text><line style="stroke:#A80036;stroke-width:1.0;stroke-dasharray:5.0,5.0;" x1="84" x2="84" y1="123.25" y2="259.7813"/><line style="stroke:#A80036;stroke-width:1.0;stroke-dasharray:5.0,5.0;" x1="240" x2="240" y1="123.25" y2="259.7813"/><line style="stroke:#A80036;stroke-width:1.0;stroke-dasharray:5.0,5.0;" x1="336" x2="336" y1="123.25" y2="259.7813"/><line style="stroke:#A80036;stroke-width:1.0;stroke-dasharray:5.0,5.0;" x1="389.5" x2="389.5" y1="123.25" y2="259.7813"/><line style="stroke:#A80036;stroke-width:1.0;stroke-dasharray:5.0,5.0;" x1="469.5" x2="469.5" y1="123.25" y2="259.7813"/><rect fill="#FEFECE" filter="url(#f4ufijvalrcjv)" height="30.2969" style="stroke:#A80036;stroke-width:1.5;" width="154" x="5" y="87.9531"/><text fill="#000000" font-family="sans-serif" font-size="14" lengthAdjust="spacing" textLength="140" x="12" y="107.9482">ProxyRepoFileScanner</text><rect fill="#FEFECE" filter="url(#f4ufijvalrcjv)" height="30.2969" style="stroke:#A80036;stroke-width:1.5;" width="154" x="5" y="258.7813"/><text fill="#000000" font-family="sans-serif" font-size="14" lengthAdjust="spacing" textLength="140" x="12" y="278.7764">ProxyRepoFileScanner</text><rect fill="#FEFECE" filter="url(#f4ufijvalrcjv)" height="30.2969" style="stroke:#A80036;stroke-width:1.5;" width="131" x="173" y="87.9531"/><text fill="#000000" font-family="sans-serif" font-size="14" lengthAdjust="spacing" textLength="117" x="180" y="107.9482">ProxyRepoSources</text><rect fill="#FEFECE" filter="url(#f4ufijvalrcjv)" height="30.2969" style="stroke:#A80036;stroke-width:1.5;" width="131" x="173" y="258.7813"/><text fill="#000000" font-family="sans-serif" font-size="14" lengthAdjust="spacing" textLength="117" x="180" y="278.7764">ProxyRepoSources</text><text fill="#000000" font-family="sans-serif" font-size="14" lengthAdjust="spacing" textLength="29" x="318.5" y="119.9482">repo</text><path d="M318,70.9531 C318,60.9531 336,60.9531 336,60.9531 C336,60.9531 354,60.9531 354,70.9531 L354,96.9531 C354,106.9531 336,106.9531 336,106.9531 C336,106.9531 318,106.9531 318,96.9531 L318,70.9531 " fill="#FEFECE" filter="url(#f4ufijvalrcjv)" style="stroke:#000000;stroke-width:1.5;"/><path d="M318,70.9531 C318,80.9531 336,80.9531 336,80.9531 C336,80.9531 354,80.9531 354,70.9531 " fill="none" style="stroke:#000000;stroke-width:1.5;"/><text fill="#000000" font-family="sans-serif" font-size="14" lengthAdjust="spacing" textLength="29" x="318.5" y="271.7764">repo</text><path d="M318,285.0781 C318,275.0781 336,275.0781 336,275.0781 C336,275.0781 354,275.0781 354,285.0781 L354,311.0781 C354,321.0781 336,321.0781 336,321.0781 C336,321.0781 318,321.0781 318,311.0781 L318,285.0781 " fill="#FEFECE" filter="url(#f4ufijvalrcjv)" style="stroke:#000000;stroke-width:1.5;"/><path d="M318,285.0781 C318,295.0781 336,295.0781 336,295.0781 C336,295.0781 354,295.0781 354,285.0781 " fill="none" style="stroke:#000000;stroke-width:1.5;"/><text fill="#000000" font-family="sans-serif" font-size="14" lengthAdjust="spacing" textLength="16" x="378.5" y="119.9482">db</text><path d="M371.5,70.9531 C371.5,60.9531 389.5,60.9531 389.5,60.9531 C389.5,60.9531 407.5,60.9531 407.5,70.9531 L407.5,96.9531 C407.5,106.9531 389.5,106.9531 389.5,106.9531 C389.5,106.9531 371.5,106.9531 371.5,96.9531 L371.5,70.9531 " fill="#FEFECE" filter="url(#f4ufijvalrcjv)" style="stroke:#000000;stroke-width:1.5;"/><path d="M371.5,70.9531 C371.5,80.9531 389.5,80.9531 389.5,80.9531 C389.5,80.9531 407.5,80.9531 407.5,70.9531 " fill="none" style="stroke:#000000;stroke-width:1.5;"/><text fill="#000000" font-family="sans-serif" font-size="14" lengthAdjust="spacing" textLength="16" x="378.5" y="271.7764">db</text><path d="M371.5,285.0781 C371.5,275.0781 389.5,275.0781 389.5,275.0781 C389.5,275.0781 407.5,275.0781 407.5,285.0781 L407.5,311.0781 C407.5,321.0781 389.5,321.0781 389.5,321.0781 C389.5,321.0781 371.5,321.0781 371.5,311.0781 L371.5,285.0781 " fill="#FEFECE" filter="url(#f4ufijvalrcjv)" style="stroke:#000000;stroke-width:1.5;"/><path d="M371.5,285.0781 C371.5,295.0781 389.5,295.0781 389.5,295.0781 C389.5,295.0781 407.5,295.0781 407.5,285.0781 " fill="none" style="stroke:#000000;stroke-width:1.5;"/><text fill="#000000" font-family="sans-serif" font-size="14" lengthAdjust="spacing" textLength="98" x="417.5" y="119.9482">ChangeListener</text><ellipse cx="469.5" cy="49.9531" fill="#FEFECE" filter="url(#f4ufijvalrcjv)" rx="8" ry="8" style="stroke:#A80036;stroke-width:2.0;"/><path d="M469.5,57.9531 L469.5,84.9531 M456.5,65.9531 L482.5,65.9531 M469.5,84.9531 L456.5,99.9531 M469.5,84.9531 L482.5,99.9531 " fill="none" filter="url(#f4ufijvalrcjv)" style="stroke:#A80036;stroke-width:2.0;"/><text fill="#000000" font-family="sans-serif" font-size="14" lengthAdjust="spacing" textLength="98" x="417.5" y="271.7764">ChangeListener</text><ellipse cx="469.5" cy="285.0781" fill="#FEFECE" filter="url(#f4ufijvalrcjv)" rx="8" ry="8" style="stroke:#A80036;stroke-width:2.0;"/><path d="M469.5,293.0781 L469.5,320.0781 M456.5,301.0781 L482.5,301.0781 M469.5,320.0781 L456.5,335.0781 M469.5,320.0781 L482.5,335.0781 " fill="none" filter="url(#f4ufijvalrcjv)" style="stroke:#A80036;stroke-width:2.0;"/><line style="stroke:#A80036;stroke-width:1.0;" x1="334" x2="324" y1="154.3828" y2="150.3828"/><line style="stroke:#A80036;stroke-width:1.0;" x1="334" x2="324" y1="154.3828" y2="158.3828"/><line style="stroke:#A80036;stroke-width:1.0;" x1="84" x2="335" y1="154.3828" y2="154.3828"/><text fill="#000000" font-family="sans-serif" font-size="13" lengthAdjust="spacing" textLength="27" x="91" y="149.3169">scan</text><line style="stroke:#A80036;stroke-width:1.0;" x1="238.5" x2="228.5" y1="183.5156" y2="179.5156"/><line style="stroke:#A80036;stroke-width:1.0;" x1="238.5" x2="228.5" y1="183.5156" y2="187.5156"/><line style="stroke:#A80036;stroke-width:1.0;" x1="84" x2="239.5" y1="183.5156" y2="183.5156"/><text fill="#000000" font-family="sans-serif" font-size="13" lengthAdjust="spacing" textLength="64" x="91" y="178.4497">addSource</text><line style="stroke:#A80036;stroke-width:1.0;" x1="387.5" x2="377.5" y1="212.6484" y2="208.6484"/><line style="stroke:#A80036;stroke-width:1.0;" x1="387.5" x2="377.5" y1="212.6484" y2="216.6484"/><line style="stroke:#A80036;stroke-width:1.0;" x1="240.5" x2="388.5" y1="212.6484" y2="212.6484"/><text fill="#000000" font-family="sans-serif" font-size="13" lengthAdjust="spacing" textLength="125" x="247.5" y="207.5825">Add `source` record</text><line style="stroke:#A80036;stroke-width:1.0;" x1="467.5" x2="457.5" y1="241.7813" y2="245.7813"/><line style="stroke:#A80036;stroke-width:1.0;stroke-dasharray:2.0,2.0;" x1="240.5" x2="468.5" y1="241.7813" y2="241.7813"/><text fill="#000000" font-family="sans-serif" font-size="13" lengthAdjust="spacing" textLength="61" x="247.5" y="236.7153">onChange</text><!--MD5=[397e0074547a3e5c20d372cd0419f723]
@startuml

title Scan Proxy Repo

participant ProxyRepoFileScanner
participant ProxyRepoSources
database repo
database db
actor ChangeListener

ProxyRepoFileScanner ->> repo: scan
ProxyRepoFileScanner ->> ProxyRepoSources: addSource
ProxyRepoSources ->> db: Add `source` record
ProxyRepoSources - -// ChangeListener: onChange


@enduml

PlantUML version 1.2021.5(Sun Apr 25 11:20:28 GMT 2021)
(GPL source distribution)
Java Runtime: OpenJDK Runtime Environment
JVM: OpenJDK 64-Bit Server VM
Default Encoding: UTF-8
Language: en
Country: US
--></g></svg>