<?xml version="1.0" encoding="UTF-8" standalone="no"?><svg xmlns="http://www.w3.org/2000/svg" xmlns:xlink="http://www.w3.org/1999/xlink" contentScriptType="application/ecmascript" contentStyleType="text/css" height="363px" preserveAspectRatio="none" style="width:538px;height:363px;background:#FFFFFF;" version="1.1" viewBox="0 0 538 363" width="538px" zoomAndPan="magnify"><defs><filter height="300%" id="f4ufijvalrcjv" width="300%" x="-1" y="-1"><feGaussianBlur result="blurOut" stdDeviation="2.0"/><feColorMatrix in="blurOut" result="blurOut2" type="matrix" values="0 0 0 0 0 0 0 0 0 0 0 0 0 0 0 0 0 0 .4 0"/><feOffset dx="4.0" dy="4.0" in="blurOut2" result="blurOut3"/><feBlend in="SourceGraphic" in2="blurOut3" mode="normal"/></filter></defs><g><text fill="#000000" font-family="sans-serif" font-size="18" lengthAdjust="spacing" textLength="141" x="200.5" y="31.2419">Scan Proxy Repo</text><line style="stroke:#A80036;stroke-width:1.0;stroke-dasharray:5.0,5.0;" x1="88" x2="88" y1="129.5838" y2="276.4078"/><line style="stroke:#A80036;stroke-width:1.0;stroke-dasharray:5.0,5.0;" x1="251" x2="251" y1="129.5838" y2="276.4078"/><line style="stroke:#A80036;stroke-width:1.0;stroke-dasharray:5.0,5.0;" x1="350" x2="350" y1="129.5838" y2="276.4078"/><line style="stroke:#A80036;stroke-width:1.0;stroke-dasharray:5.0,5.0;" x1="397" x2="397" y1="129.5838" y2="276.4078"/><line style="stroke:#A80036;stroke-width:1.0;stroke-dasharray:5.0,5.0;" x1="481" x2="481" y1="129.5838" y2="276.4078"/><rect fill="#FEFECE" filter="url(#f4ufijvalrcjv)" height="33.0679" style="stroke:#A80036;stroke-width:1.5;" width="162" x="5" y="91.5158"/><text fill="#000000" font-family="sans-serif" font-size="14" lengthAdjust="spacing" textLength="148" x="12" y="113.4818">ProxyRepoFileScanner</text><rect fill="#FEFECE" filter="url(#f4ufijvalrcjv)" height="33.0679" style="stroke:#A80036;stroke-width:1.5;" width="162" x="5" y="275.4078"/><text fill="#000000" font-family="sans-serif" font-size="14" lengthAdjust="spacing" textLength="148" x="12" y="297.3738">ProxyRepoFileScanner</text><rect fill="#FEFECE" filter="url(#f4ufijvalrcjv)" height="33.0679" style="stroke:#A80036;stroke-width:1.5;" width="137" x="181" y="91.5158"/><text fill="#000000" font-family="sans-serif" font-size="14" lengthAdjust="spacing" textLength="123" x="188" y="113.4818">ProxyRepoSources</text><rect fill="#FEFECE" filter="url(#f4ufijvalrcjv)" height="33.0679" style="stroke:#A80036;stroke-width:1.5;" width="137" x="181" y="275.4078"/><text fill="#000000" font-family="sans-serif" font-size="14" lengthAdjust="spacing" textLength="123" x="188" y="297.3738">ProxyRepoSources</text><text fill="#000000" font-family="sans-serif" font-size="14" lengthAdjust="spacing" textLength="31" x="332" y="125.4818">repo</text><path d="M332.5,74.5158 C332.5,64.5158 350.5,64.5158 350.5,64.5158 C350.5,64.5158 368.5,64.5158 368.5,74.5158 L368.5,100.5158 C368.5,110.5158 350.5,110.5158 350.5,110.5158 C350.5,110.5158 332.5,110.5158 332.5,100.5158 L332.5,74.5158 " fill="#FEFECE" filter="url(#f4ufijvalrcjv)" style="stroke:#000000;stroke-width:1.5;"/><path d="M332.5,74.5158 C332.5,84.5158 350.5,84.5158 350.5,84.5158 C350.5,84.5158 368.5,84.5158 368.5,74.5158 " fill="none" style="stroke:#000000;stroke-width:1.5;"/><text fill="#000000" font-family="sans-serif" font-size="14" lengthAdjust="spacing" textLength="31" x="332" y="290.3738">repo</text><path d="M332.5,304.4757 C332.5,294.4757 350.5,294.4757 350.5,294.4757 C350.5,294.4757 368.5,294.4757 368.5,304.4757 L368.5,330.4757 C368.5,340.4757 350.5,340.4757 350.5,340.4757 C350.5,340.4757 332.5,340.4757 332.5,330.4757 L332.5,304.4757 " fill="#FEFECE" filter="url(#f4ufijvalrcjv)" style="stroke:#000000;stroke-width:1.5;"/><path d="M332.5,304.4757 C332.5,314.4757 350.5,314.4757 350.5,314.4757 C350.5,314.4757 368.5,314.4757 368.5,304.4757 " fill="none" style="stroke:#000000;stroke-width:1.5;"/><text fill="#000000" font-family="sans-serif" font-size="14" lengthAdjust="spacing" textLength="18" x="385" y="125.4818">db</text><path d="M379,74.5158 C379,64.5158 397,64.5158 397,64.5158 C397,64.5158 415,64.5158 415,74.5158 L415,100.5158 C415,110.5158 397,110.5158 397,110.5158 C397,110.5158 379,110.5158 379,100.5158 L379,74.5158 " fill="#FEFECE" filter="url(#f4ufijvalrcjv)" style="stroke:#000000;stroke-width:1.5;"/><path d="M379,74.5158 C379,84.5158 397,84.5158 397,84.5158 C397,84.5158 415,84.5158 415,74.5158 " fill="none" style="stroke:#000000;stroke-width:1.5;"/><text fill="#000000" font-family="sans-serif" font-size="14" lengthAdjust="spacing" textLength="18" x="385" y="290.3738">db</text><path d="M379,304.4757 C379,294.4757 397,294.4757 397,294.4757 C397,294.4757 415,294.4757 415,304.4757 L415,330.4757 C415,340.4757 397,340.4757 397,340.4757 C397,340.4757 379,340.4757 379,330.4757 L379,304.4757 " fill="#FEFECE" filter="url(#f4ufijvalrcjv)" style="stroke:#000000;stroke-width:1.5;"/><path d="M379,304.4757 C379,314.4757 397,314.4757 397,314.4757 C397,314.4757 415,314.4757 415,304.4757 " fill="none" style="stroke:#000000;stroke-width:1.5;"/><text fill="#000000" font-family="sans-serif" font-size="14" lengthAdjust="spacing" textLength="106" x="425" y="125.4818">ChangeListener</text><ellipse cx="481" cy="53.5158" fill="#FEFECE" filter="url(#f4ufijvalrcjv)" rx="8" ry="8" style="stroke:#A80036;stroke-width:2.0;"/><path d="M481,61.5158 L481,88.5158 M468,69.5158 L494,69.5158 M481,88.5158 L468,103.5158 M481,88.5158 L494,103.5158 " fill="none" filter="url(#f4ufijvalrcjv)" style="stroke:#A80036;stroke-width:2.0;"/><text fill="#000000" font-family="sans-serif" font-size="14" lengthAdjust="spacing" textLength="106" x="425" y="290.3738">ChangeListener</text><ellipse cx="481" cy="304.4757" fill="#FEFECE" filter="url(#f4ufijvalrcjv)" rx="8" ry="8" style="stroke:#A80036;stroke-width:2.0;"/><path d="M481,312.4757 L481,339.4757 M468,320.4757 L494,320.4757 M481,339.4757 L468,354.4757 M481,339.4757 L494,354.4757 " fill="none" filter="url(#f4ufijvalrcjv)" style="stroke:#A80036;stroke-width:2.0;"/><line style="stroke:#A80036;stroke-width:1.0;" x1="348.5" x2="338.5" y1="163.2898" y2="159.2898"/><line style="stroke:#A80036;stroke-width:1.0;" x1="348.5" x2="338.5" y1="163.2898" y2="167.2898"/><line style="stroke:#A80036;stroke-width:1.0;" x1="88" x2="349.5" y1="163.2898" y2="163.2898"/><text fill="#000000" font-family="sans-serif" font-size="13" lengthAdjust="spacing" textLength="27" x="95" y="157.4808">scan</text><line style="stroke:#A80036;stroke-width:1.0;" x1="249.5" x2="239.5" y1="194.9958" y2="190.9958"/><line style="stroke:#A80036;stroke-width:1.0;" x1="249.5" x2="239.5" y1="194.9958" y2="198.9958"/><line style="stroke:#A80036;stroke-width:1.0;" x1="88" x2="250.5" y1="194.9958" y2="194.9958"/><text fill="#000000" font-family="sans-serif" font-size="13" lengthAdjust="spacing" textLength="64" x="95" y="189.1868">addSource</text><line style="stroke:#A80036;stroke-width:1.0;" x1="395" x2="385" y1="226.7018" y2="222.7018"/><line style="stroke:#A80036;stroke-width:1.0;" x1="395" x2="385" y1="226.7018" y2="230.7018"/><line style="stroke:#A80036;stroke-width:1.0;" x1="251.5" x2="396" y1="226.7018" y2="226.7018"/><text fill="#000000" font-family="sans-serif" font-size="13" lengthAdjust="spacing" textLength="117" x="258.5" y="220.8928">Add `source` record</text><line style="stroke:#A80036;stroke-width:1.0;" x1="479" x2="469" y1="258.4078" y2="262.4078"/><line style="stroke:#A80036;stroke-width:1.0;stroke-dasharray:2.0,2.0;" x1="251.5" x2="480" y1="258.4078" y2="258.4078"/><text fill="#000000" font-family="sans-serif" font-size="13" lengthAdjust="spacing" textLength="62" x="258.5" y="252.5988">onChange</text><!--MD5=[0b2a1f53254f44cb206c88ad2d119e4c]
@startuml

title Scan Proxy Repo

participant ProxyRepoFileScanner
participant ProxyRepoSources
database repo
database db
actor ChangeListener

ProxyRepoFileScanner ->> repo: scan
ProxyRepoFileScanner ->> ProxyRepoSources: addSource
ProxyRepoSources ->> db: Add `source` record
ProxyRepoSources - -// ChangeListener: onChange


@enduml

PlantUML version 1.2021.16(Wed Dec 08 17:25:22 GMT 2021)
(GPL source distribution)
Java Runtime: OpenJDK Runtime Environment
JVM: OpenJDK 64-Bit Server VM
Default Encoding: UTF-8
Language: en
Country: GB
--></g></svg>