<?xml version="1.0" encoding="UTF-8" standalone="no"?>
<svg xmlns="http://www.w3.org/2000/svg" contentScriptType="application/ecmascript" contentStyleType="text/css"
     height="291px" preserveAspectRatio="none" style="width:181px;height:291px;" version="1.1" viewBox="0 0 181 291"
     width="181px" zoomAndPan="magnify"><defs><filter height="300%" id="fiux1yksh7ua2" width="300%" x="-1" y="-1"><feGaussianBlur result="blurOut" stdDeviation="2.0"/><feColorMatrix in="blurOut" result="blurOut2" type="matrix" values="0 0 0 0 0 0 0 0 0 0 0 0 0 0 0 0 0 0 .4 0"/><feOffset dx="4.0" dy="4.0" in="blurOut2" result="blurOut3"/><feBlend in="SourceGraphic" in2="blurOut3" mode="normal"/></filter></defs><g><!--MD5=[a89e013394a4179b87aacb584f03bea5]
class feed--><rect codeLine="5" fill="#FEFECE" filter="url(#fiux1yksh7ua2)" height="86.4141" id="feed" style="stroke:#A80036;stroke-width:1.5;" width="151" x="11.5" y="7"/><ellipse cx="70.75" cy="23" fill="#ADD1B2" rx="11" ry="11" style="stroke:#A80036;stroke-width:1.0;"/><path d="M73.7656,29 L66.7813,29 L66.7813,16.8594 L73.7656,16.8594 L73.7656,18.9688 L69.3438,18.9688 L69.3438,21.6406 L73.4531,21.6406 L73.4531,23.75 L69.3438,23.75 L69.3438,26.875 L73.7656,26.875 L73.7656,29 Z " fill="#000000"/><text fill="#000000" font-family="sans-serif" font-size="12" lengthAdjust="spacing" textLength="24" x="91.25" y="27.1543">feed</text><line style="stroke:#A80036;stroke-width:1.5;" x1="12.5" x2="161.5" y1="39" y2="39"/><ellipse cx="22.5" cy="50" fill="#000000" rx="3" ry="3" style="stroke:#000000;stroke-width:1.0;"/><text fill="#000000" font-family="sans-serif" font-size="11" lengthAdjust="spacing" textLength="43" x="31.5" y="53.2104">id : bigint</text><line style="stroke:#A80036;stroke-width:1.0;" x1="12.5" x2="161.5" y1="59.8047" y2="59.8047"/><ellipse cx="22.5" cy="70.8047" fill="#000000" rx="3" ry="3" style="stroke:#000000;stroke-width:1.0;"/><text fill="#000000" font-family="sans-serif" font-size="11" lengthAdjust="spacing" textLength="125" x="31.5" y="74.0151">feed_name : varchar(255)</text><ellipse cx="22.5" cy="83.6094" fill="#000000" rx="3" ry="3" style="stroke:#000000;stroke-width:1.0;"/><text fill="#000000" font-family="sans-serif" font-size="11" lengthAdjust="spacing" textLength="125" x="31.5" y="86.8198">type_name : varchar(255)</text><!--MD5=[fb94403e3d3521d383fd6507b67b3642]
class source--><rect codeLine="12" fill="#FEFECE" filter="url(#fiux1yksh7ua2)" height="124.8281" id="source" style="stroke:#A80036;stroke-width:1.5;" width="160" x="7" y="153"/><ellipse cx="64.25" cy="169" fill="#ADD1B2" rx="11" ry="11" style="stroke:#A80036;stroke-width:1.0;"/><path d="M67.2656,175 L60.2813,175 L60.2813,162.8594 L67.2656,162.8594 L67.2656,164.9688 L62.8438,164.9688 L62.8438,167.6406 L66.9531,167.6406 L66.9531,169.75 L62.8438,169.75 L62.8438,172.875 L67.2656,172.875 L67.2656,175 Z " fill="#000000"/><text fill="#000000" font-family="sans-serif" font-size="12" lengthAdjust="spacing" textLength="37" x="84.75" y="173.1543">source</text><line style="stroke:#A80036;stroke-width:1.5;" x1="8" x2="166" y1="185" y2="185"/><ellipse cx="18" cy="196" fill="#000000" rx="3" ry="3" style="stroke:#000000;stroke-width:1.0;"/><text fill="#000000" font-family="sans-serif" font-size="11" lengthAdjust="spacing" textLength="43" x="27" y="199.2104">id : bigint</text><line style="stroke:#A80036;stroke-width:1.0;" x1="8" x2="166" y1="205.8047" y2="205.8047"/><ellipse cx="18" cy="216.8047" fill="#000000" rx="3" ry="3" style="stroke:#000000;stroke-width:1.0;"/><text fill="#000000" font-family="sans-serif" font-size="11" lengthAdjust="spacing" textLength="134" x="27" y="220.0151">path : varchar(255) - unique</text><ellipse cx="18" cy="229.6094" fill="#000000" rx="3" ry="3" style="stroke:#000000;stroke-width:1.0;"/><text fill="#000000" font-family="sans-serif" font-size="11" lengthAdjust="spacing" textLength="84" x="27" y="232.8198">fk_feed_id : bigint</text><ellipse cx="18" cy="242.4141" fill="#000000" rx="3" ry="3" style="stroke:#000000;stroke-width:1.0;"/><text fill="#000000" font-family="sans-serif" font-size="11" lengthAdjust="spacing" textLength="95" x="27" y="245.6245">examined : boolean</text><ellipse cx="18" cy="255.2188" fill="#000000" rx="3" ry="3" style="stroke:#000000;stroke-width:1.0;"/><text fill="#000000" font-family="sans-serif" font-size="11" lengthAdjust="spacing" textLength="97" x="27" y="258.4292">item_count : integer</text><ellipse cx="18" cy="268.0234" fill="#000000" rx="3" ry="3" style="stroke:#000000;stroke-width:1.0;"/><text fill="#000000" font-family="sans-serif" font-size="11" lengthAdjust="spacing" textLength="97" x="27" y="271.2339">new_position : bigint</text><!--MD5=[8fc0b909dc2d6f9332fdd45de385bd9e]
link feed to source--><path codeLine="22" d="M87,101.05 C87,101.05 87,144.72 87,144.72 " fill="none" id="feed-source" style="stroke:#A80036;stroke-width:1.0;"/><line style="stroke:#A80036;stroke-width:1.0;" x1="87" x2="93" y1="144.72" y2="152.72"/><line style="stroke:#A80036;stroke-width:1.0;" x1="87" x2="81" y1="144.72" y2="152.72"/><line style="stroke:#A80036;stroke-width:1.0;" x1="87" x2="87" y1="144.72" y2="152.72"/><line style="stroke:#A80036;stroke-width:1.0;" x1="91" x2="83" y1="142.72" y2="142.72"/><line style="stroke:#A80036;stroke-width:1.0;" x1="83" x2="91" y1="97.05" y2="97.05"/><line style="stroke:#A80036;stroke-width:1.0;" x1="83" x2="91" y1="100.05" y2="100.05"/><line style="stroke:#A80036;stroke-width:1.0;" x1="87" x2="87" y1="101.05" y2="93.05"/><!--MD5=[7c658c83258a216b2f583852f980f2d3]
@startuml

' avoid problems with angled crows feet
skinparam linetype ortho

entity feed {
  *id : bigint
  - -
  *feed_name : varchar(255)
  *type_name : varchar(255)
}

entity source {
  *id : bigint
  - -
  *path : varchar(255) - unique
  *fk_feed_id : bigint
  *examined : boolean
  *item_count : integer
  *new_position : bigint
}

feed ||- -|{ source

@enduml

@startuml

skinparam linetype ortho

entity feed {
  *id : bigint
  - -
  *feed_name : varchar(255)
  *type_name : varchar(255)
}

entity source {
  *id : bigint
  - -
  *path : varchar(255) - unique
  *fk_feed_id : bigint
  *examined : boolean
  *item_count : integer
  *new_position : bigint
}

feed ||- -|{ source

@enduml

PlantUML version 1.2021.5(Sun Apr 25 11:20:28 GMT 2021)
(GPL source distribution)
Java Runtime: OpenJDK Runtime Environment
JVM: OpenJDK 64-Bit Server VM
Default Encoding: UTF-8
Language: en
Country: US
--></g></svg>