<?xml version="1.0" encoding="UTF-8" standalone="no"?><svg xmlns="http://www.w3.org/2000/svg" xmlns:xlink="http://www.w3.org/1999/xlink" contentStyleType="text/css" height="341px" preserveAspectRatio="none" style="width:227px;height:341px;background:#FFFFFF;" version="1.1" viewBox="0 0 227 341" width="227px" zoomAndPan="magnify"><defs/><g><!--MD5=[a89e013394a4179b87aacb584f03bea5]
class feed--><g id="elem_feed"><rect codeLine="5" fill="#F1F1F1" height="105.2038" id="feed" rx="2.5" ry="2.5" style="stroke:#181818;stroke-width:0.5;" width="195" x="16" y="7"/><ellipse cx="94.25" cy="23" fill="#ADD1B2" rx="11" ry="11" style="stroke:#181818;stroke-width:1.0;"/><path d="M90.6094,29.5 L90.6094,17.3594 L98.2656,17.3594 L98.2656,19.4844 L92.9844,19.4844 L92.9844,22.1406 L98,22.1406 L98,24.2656 L92.9844,24.2656 L92.9844,27.375 L98.2656,27.375 L98.2656,29.5 L90.6094,29.5 Z " fill="#000000"/><text fill="#000000" font-family="sans-serif" font-size="14" lengthAdjust="spacing" textLength="30" x="114.75" y="28.432">feed</text><line style="stroke:#181818;stroke-width:0.5;" x1="17" x2="210" y1="39" y2="39"/><ellipse cx="27" cy="50" fill="#000000" rx="3" ry="3" style="stroke:#000000;stroke-width:1.0;"/><text fill="#000000" font-family="sans-serif" font-size="14" lengthAdjust="spacing" textLength="65" x="36" y="57.9659">id : bigint</text><line style="stroke:#181818;stroke-width:1.0;" x1="17" x2="210" y1="66.0679" y2="66.0679"/><ellipse cx="27" cy="77.0679" fill="#000000" rx="3" ry="3" style="stroke:#000000;stroke-width:1.0;"/><text fill="#000000" font-family="sans-serif" font-size="14" lengthAdjust="spacing" textLength="169" x="36" y="85.0339">feed_name : varchar(255)</text><ellipse cx="27" cy="96.1358" fill="#000000" rx="3" ry="3" style="stroke:#000000;stroke-width:1.0;"/><text fill="#000000" font-family="sans-serif" font-size="14" lengthAdjust="spacing" textLength="168" x="36" y="104.1018">type_name : varchar(255)</text></g><!--MD5=[fb94403e3d3521d383fd6507b67b3642]
class source--><g id="elem_source"><rect codeLine="12" fill="#F1F1F1" height="162.4075" id="source" rx="2.5" ry="2.5" style="stroke:#181818;stroke-width:0.5;" width="213" x="7" y="172"/><ellipse cx="86.75" cy="188" fill="#ADD1B2" rx="11" ry="11" style="stroke:#181818;stroke-width:1.0;"/><path d="M83.1094,194.5 L83.1094,182.3594 L90.7656,182.3594 L90.7656,184.4844 L85.4844,184.4844 L85.4844,187.1406 L90.5,187.1406 L90.5,189.2656 L85.4844,189.2656 L85.4844,192.375 L90.7656,192.375 L90.7656,194.5 L83.1094,194.5 Z " fill="#000000"/><text fill="#000000" font-family="sans-serif" font-size="14" lengthAdjust="spacing" textLength="45" x="107.25" y="193.432">source</text><line style="stroke:#181818;stroke-width:0.5;" x1="8" x2="219" y1="204" y2="204"/><ellipse cx="18" cy="215" fill="#000000" rx="3" ry="3" style="stroke:#000000;stroke-width:1.0;"/><text fill="#000000" font-family="sans-serif" font-size="14" lengthAdjust="spacing" textLength="65" x="27" y="222.9659">id : bigint</text><line style="stroke:#181818;stroke-width:1.0;" x1="8" x2="219" y1="231.0679" y2="231.0679"/><ellipse cx="18" cy="242.0679" fill="#000000" rx="3" ry="3" style="stroke:#000000;stroke-width:1.0;"/><text fill="#000000" font-family="sans-serif" font-size="14" lengthAdjust="spacing" textLength="187" x="27" y="250.0339">path : varchar(255) - unique</text><ellipse cx="18" cy="261.1358" fill="#000000" rx="3" ry="3" style="stroke:#000000;stroke-width:1.0;"/><text fill="#000000" font-family="sans-serif" font-size="14" lengthAdjust="spacing" textLength="119" x="27" y="269.1018">fk_feed_id : bigint</text><ellipse cx="18" cy="280.2038" fill="#000000" rx="3" ry="3" style="stroke:#000000;stroke-width:1.0;"/><text fill="#000000" font-family="sans-serif" font-size="14" lengthAdjust="spacing" textLength="132" x="27" y="288.1697">examined : boolean</text><ellipse cx="18" cy="299.2717" fill="#000000" rx="3" ry="3" style="stroke:#000000;stroke-width:1.0;"/><text fill="#000000" font-family="sans-serif" font-size="14" lengthAdjust="spacing" textLength="135" x="27" y="307.2376">item_count : integer</text><ellipse cx="18" cy="318.3396" fill="#000000" rx="3" ry="3" style="stroke:#000000;stroke-width:1.0;"/><text fill="#000000" font-family="sans-serif" font-size="14" lengthAdjust="spacing" textLength="140" x="27" y="326.3055">new_position : bigint</text></g><!--MD5=[8fc0b909dc2d6f9332fdd45de385bd9e]
link feed to source--><g id="link_feed_source"><path codeLine="22" d="M113.5,120.12 C113.5,120.12 113.5,163.66 113.5,163.66 " fill="none" id="feed-source" style="stroke:#181818;stroke-width:1.0;"/><line style="stroke:#181818;stroke-width:1.0;" x1="113.5" x2="119.5" y1="163.66" y2="171.66"/><line style="stroke:#181818;stroke-width:1.0;" x1="113.5" x2="107.5" y1="163.66" y2="171.66"/><line style="stroke:#181818;stroke-width:1.0;" x1="113.5" x2="113.5" y1="163.66" y2="171.66"/><line style="stroke:#181818;stroke-width:1.0;" x1="117.5" x2="109.5" y1="161.66" y2="161.66"/><line style="stroke:#181818;stroke-width:1.0;" x1="109.5" x2="117.5" y1="116.12" y2="116.12"/><line style="stroke:#181818;stroke-width:1.0;" x1="109.5" x2="117.5" y1="119.12" y2="119.12"/><line style="stroke:#181818;stroke-width:1.0;" x1="113.5" x2="113.5" y1="120.12" y2="112.12"/></g><!--MD5=[e8a9c5331dfac8b6eee62517e2b3b6a3]
@startuml

' avoid problems with angled crows feet
skinparam linetype ortho

entity feed {
  *id : bigint
  - -
  *feed_name : varchar(255)
  *type_name : varchar(255)
}

entity source {
  *id : bigint
  - -
  *path : varchar(255) - unique
  *fk_feed_id : bigint
  *examined : boolean
  *item_count : integer
  *new_position : bigint
}

feed ||- -|{ source

@enduml

@startuml

skinparam linetype ortho

entity feed {
  *id : bigint
  - -
  *feed_name : varchar(255)
  *type_name : varchar(255)
}

entity source {
  *id : bigint
  - -
  *path : varchar(255) - unique
  *fk_feed_id : bigint
  *examined : boolean
  *item_count : integer
  *new_position : bigint
}

feed ||- -|{ source

@enduml

PlantUML version 1.2022.4(Sat Apr 09 14:29:17 BST 2022)
(GPL source distribution)
Java Runtime: OpenJDK Runtime Environment
JVM: OpenJDK 64-Bit Server VM
Default Encoding: UTF-8
Language: en
Country: GB
--></g></svg>