<?xml version="1.0" encoding="us-ascii" standalone="no"?><svg xmlns="http://www.w3.org/2000/svg" xmlns:xlink="http://www.w3.org/1999/xlink" contentStyleType="text/css" height="557px" preserveAspectRatio="none" style="width:481px;height:557px;background:#FFFFFF;" version="1.1" viewBox="0 0 481 557" width="481px" zoomAndPan="magnify"><defs/><g><text fill="#000000" font-family="sans-serif" font-size="14" font-weight="bold" lengthAdjust="spacing" textLength="87" x="190" y="22.9951">Storing Data</text><!--cluster repo--><g id="cluster_repo"><rect fill="none" height="170" rx="35" ry="35" style="stroke:#181818;stroke-width:1.0;" width="232" x="243" y="224.2969"/><text fill="#000000" font-family="sans-serif" font-size="14" font-weight="bold" lengthAdjust="spacing" textLength="32" x="343" y="244.292">repo</text></g><!--cluster folder--><g id="cluster_folder"><path d="M285.5,275.2969 L327.5,275.2969 A3.75,3.75 0 0 1 330,277.7969 L337,297.5938 L440.5,297.5938 A2.5,2.5 0 0 1 443,300.0938 L443,359.7969 A2.5,2.5 0 0 1 440.5,362.2969 L285.5,362.2969 A2.5,2.5 0 0 1 283,359.7969 L283,277.7969 A2.5,2.5 0 0 1 285.5,275.2969 " fill="none" style="stroke:#000000;stroke-width:1.5;"/><line style="stroke:#000000;stroke-width:1.5;" x1="283" x2="337" y1="297.5938" y2="297.5938"/><text fill="#000000" font-family="sans-serif" font-size="14" font-weight="bold" lengthAdjust="spacing" textLength="41" x="287" y="290.292">folder</text></g><!--cluster Database--><g id="cluster_Database"><path d="M157,436.2969 C157,426.2969 210,426.2969 210,426.2969 C210,426.2969 263,426.2969 263,436.2969 L263,530.2969 C263,540.2969 210,540.2969 210,540.2969 C210,540.2969 157,540.2969 157,530.2969 L157,436.2969 " fill="none" style="stroke:#181818;stroke-width:1.0;"/><path d="M157,436.2969 C157,446.2969 210,446.2969 210,446.2969 C210,446.2969 263,446.2969 263,436.2969 " fill="none" style="stroke:#181818;stroke-width:1.0;"/><text fill="#000000" font-family="sans-serif" font-size="14" font-weight="bold" lengthAdjust="spacing" textLength="65" x="177.5" y="461.292">Database</text></g><!--entity zip--><g id="elem_zip"><path d="M387.5,312.7969 L387.5,344.0938 A2.5,2.5 0 0 0 390,346.5938 L424,346.5938 A2.5,2.5 0 0 0 426.5,344.0938 L426.5,320.2969 L416.5,310.2969 L390,310.2969 A2.5,2.5 0 0 0 387.5,312.7969 " fill="#F1F1F1" style="stroke:#181818;stroke-width:0.5;"/><path d="M416.5,310.2969 L416.5,317.7969 A2.5,2.5 0 0 0 419,320.2969 L426.5,320.2969 " fill="#F1F1F1" style="stroke:#181818;stroke-width:0.5;"/><text fill="#000000" font-family="sans-serif" font-size="14" lengthAdjust="spacing" textLength="19" x="397.5" y="333.292">zip</text></g><!--entity meta--><g id="elem_meta"><path d="M299.5,312.7969 L299.5,344.0938 A2.5,2.5 0 0 0 302,346.5938 L350,346.5938 A2.5,2.5 0 0 0 352.5,344.0938 L352.5,320.2969 L342.5,310.2969 L302,310.2969 A2.5,2.5 0 0 0 299.5,312.7969 " fill="#F1F1F1" style="stroke:#181818;stroke-width:0.5;"/><path d="M342.5,310.2969 L342.5,317.7969 A2.5,2.5 0 0 0 345,320.2969 L352.5,320.2969 " fill="#F1F1F1" style="stroke:#181818;stroke-width:0.5;"/><text fill="#000000" font-family="sans-serif" font-size="14" lengthAdjust="spacing" textLength="33" x="309.5" y="333.292">meta</text></g><!--class source--><g id="elem_source"><rect codeLine="25" fill="#F1F1F1" height="48" id="source" rx="2.5" ry="2.5" style="stroke:#181818;stroke-width:0.5;" width="75" x="172.5" y="476.2969"/><ellipse cx="187.5" cy="492.2969" fill="#ADD1B2" rx="11" ry="11" style="stroke:#181818;stroke-width:1.0;"/><path d="M190.5156,498.2969 L183.5313,498.2969 L183.5313,486.1563 L190.5156,486.1563 L190.5156,488.2656 L186.0938,488.2656 L186.0938,490.9375 L190.2031,490.9375 L190.2031,493.0469 L186.0938,493.0469 L186.0938,496.1719 L190.5156,496.1719 L190.5156,498.2969 Z " fill="#000000"/><text fill="#000000" font-family="sans-serif" font-size="14" lengthAdjust="spacing" textLength="43" x="201.5" y="497.1436">source</text><line style="stroke:#181818;stroke-width:0.5;" x1="173.5" x2="246.5" y1="508.2969" y2="508.2969"/><line style="stroke:#181818;stroke-width:0.5;" x1="173.5" x2="246.5" y1="516.2969" y2="516.2969"/></g><!--class ProxyRequestHandler--><g id="elem_ProxyRequestHandler"><rect codeLine="4" fill="#F1F1F1" height="48" id="ProxyRequestHandler" rx="2.5" ry="2.5" style="stroke:#181818;stroke-width:0.5;" width="169" x="111.5" y="44.2969"/><ellipse cx="126.5" cy="60.2969" fill="#ADD1B2" rx="11" ry="11" style="stroke:#181818;stroke-width:1.0;"/><path d="M126.4375,56.125 Q125.6875,56.125 125.125,56.4219 Q124.5625,56.7031 124.1719,57.2344 Q123.7813,57.7656 123.5781,58.5469 Q123.3906,59.3125 123.3906,60.2656 Q123.3906,61.2344 123.5625,62 Q123.75,62.75 124.1094,63.2656 Q124.4844,63.7813 125.0625,64.0625 Q125.6406,64.3281 126.4375,64.3281 Q127.1719,64.3281 127.9063,64.1563 Q128.6563,63.9844 129.5313,63.6875 L129.5313,65.8438 Q129.125,66 128.7344,66.125 Q128.3438,66.2344 127.9375,66.3125 Q127.5313,66.3906 127.1094,66.4219 Q126.6875,66.4688 126.1875,66.4688 Q124.7813,66.4688 123.75,66.0156 Q122.7344,65.5625 122.0625,64.75 Q121.3906,63.9375 121.0625,62.7969 Q120.7344,61.6406 120.7344,60.25 Q120.7344,58.875 121.1094,57.7188 Q121.4844,56.5625 122.2031,55.7344 Q122.9219,54.9063 123.9844,54.4531 Q125.0469,53.9844 126.4375,53.9844 Q127.3438,53.9844 128.25,54.2188 Q129.1563,54.4375 129.9844,54.8438 L129.1563,56.9375 Q128.4688,56.6094 127.7813,56.375 Q127.0938,56.125 126.4375,56.125 Z " fill="#000000"/><text fill="#000000" font-family="sans-serif" font-size="14" lengthAdjust="spacing" textLength="137" x="140.5" y="65.1436">ProxyRequestHandler</text><line style="stroke:#181818;stroke-width:0.5;" x1="112.5" x2="279.5" y1="76.2969" y2="76.2969"/><line style="stroke:#181818;stroke-width:0.5;" x1="112.5" x2="279.5" y1="84.2969" y2="84.2969"/></g><!--class ProxyRepo--><g id="elem_ProxyRepo"><rect codeLine="7" fill="#F1F1F1" height="48" id="ProxyRepo" rx="2.5" ry="2.5" style="stroke:#181818;stroke-width:0.5;" width="99" x="146.5" y="152.2969"/><ellipse cx="161.5" cy="168.2969" fill="#ADD1B2" rx="11" ry="11" style="stroke:#181818;stroke-width:1.0;"/><path d="M161.4375,164.125 Q160.6875,164.125 160.125,164.4219 Q159.5625,164.7031 159.1719,165.2344 Q158.7813,165.7656 158.5781,166.5469 Q158.3906,167.3125 158.3906,168.2656 Q158.3906,169.2344 158.5625,170 Q158.75,170.75 159.1094,171.2656 Q159.4844,171.7813 160.0625,172.0625 Q160.6406,172.3281 161.4375,172.3281 Q162.1719,172.3281 162.9063,172.1563 Q163.6563,171.9844 164.5313,171.6875 L164.5313,173.8438 Q164.125,174 163.7344,174.125 Q163.3438,174.2344 162.9375,174.3125 Q162.5313,174.3906 162.1094,174.4219 Q161.6875,174.4688 161.1875,174.4688 Q159.7813,174.4688 158.75,174.0156 Q157.7344,173.5625 157.0625,172.75 Q156.3906,171.9375 156.0625,170.7969 Q155.7344,169.6406 155.7344,168.25 Q155.7344,166.875 156.1094,165.7188 Q156.4844,164.5625 157.2031,163.7344 Q157.9219,162.9063 158.9844,162.4531 Q160.0469,161.9844 161.4375,161.9844 Q162.3438,161.9844 163.25,162.2188 Q164.1563,162.4375 164.9844,162.8438 L164.1563,164.9375 Q163.4688,164.6094 162.7813,164.375 Q162.0938,164.125 161.4375,164.125 Z " fill="#000000"/><text fill="#000000" font-family="sans-serif" font-size="14" lengthAdjust="spacing" textLength="67" x="175.5" y="173.1436">ProxyRepo</text><line style="stroke:#181818;stroke-width:0.5;" x1="147.5" x2="244.5" y1="184.2969" y2="184.2969"/><line style="stroke:#181818;stroke-width:0.5;" x1="147.5" x2="244.5" y1="192.2969" y2="192.2969"/></g><!--class ProxyRepoSources--><g id="elem_ProxyRepoSources"><rect codeLine="10" fill="#F1F1F1" height="48" id="ProxyRepoSources" rx="2.5" ry="2.5" style="stroke:#181818;stroke-width:0.5;" width="149" x="66.5" y="304.2969"/><ellipse cx="81.5" cy="320.2969" fill="#ADD1B2" rx="11" ry="11" style="stroke:#181818;stroke-width:1.0;"/><path d="M81.4375,316.125 Q80.6875,316.125 80.125,316.4219 Q79.5625,316.7031 79.1719,317.2344 Q78.7813,317.7656 78.5781,318.5469 Q78.3906,319.3125 78.3906,320.2656 Q78.3906,321.2344 78.5625,322 Q78.75,322.75 79.1094,323.2656 Q79.4844,323.7813 80.0625,324.0625 Q80.6406,324.3281 81.4375,324.3281 Q82.1719,324.3281 82.9063,324.1563 Q83.6563,323.9844 84.5313,323.6875 L84.5313,325.8438 Q84.125,326 83.7344,326.125 Q83.3438,326.2344 82.9375,326.3125 Q82.5313,326.3906 82.1094,326.4219 Q81.6875,326.4688 81.1875,326.4688 Q79.7813,326.4688 78.75,326.0156 Q77.7344,325.5625 77.0625,324.75 Q76.3906,323.9375 76.0625,322.7969 Q75.7344,321.6406 75.7344,320.25 Q75.7344,318.875 76.1094,317.7188 Q76.4844,316.5625 77.2031,315.7344 Q77.9219,314.9063 78.9844,314.4531 Q80.0469,313.9844 81.4375,313.9844 Q82.3438,313.9844 83.25,314.2188 Q84.1563,314.4375 84.9844,314.8438 L84.1563,316.9375 Q83.4688,316.6094 82.7813,316.375 Q82.0938,316.125 81.4375,316.125 Z " fill="#000000"/><text fill="#000000" font-family="sans-serif" font-size="14" lengthAdjust="spacing" textLength="117" x="95.5" y="325.1436">ProxyRepoSources</text><line style="stroke:#181818;stroke-width:0.5;" x1="67.5" x2="214.5" y1="336.2969" y2="336.2969"/><line style="stroke:#181818;stroke-width:0.5;" x1="67.5" x2="214.5" y1="344.2969" y2="344.2969"/></g><!--class ChangeListener--><g id="elem_ChangeListener"><rect codeLine="30" fill="#F1F1F1" height="48" id="ChangeListener" rx="2.5" ry="2.5" style="stroke:#181818;stroke-width:0.5;" width="130" x="7" y="476.2969"/><ellipse cx="22" cy="492.2969" fill="#B4A7E5" rx="11" ry="11" style="stroke:#181818;stroke-width:1.0;"/><path d="M24.5625,498.2969 L19.0469,498.2969 L19.0469,496.8281 L20.5313,496.1563 L20.5313,488.2969 L19.0469,487.625 L19.0469,486.1563 L24.5625,486.1563 L24.5625,487.625 L23.0938,488.2969 L23.0938,496.1563 L24.5625,496.8281 L24.5625,498.2969 Z " fill="#000000"/><text fill="#000000" font-family="sans-serif" font-size="14" font-style="italic" lengthAdjust="spacing" textLength="98" x="36" y="497.1436">ChangeListener</text><line style="stroke:#181818;stroke-width:0.5;" x1="8" x2="136" y1="508.2969" y2="508.2969"/><line style="stroke:#181818;stroke-width:0.5;" x1="8" x2="136" y1="516.2969" y2="516.2969"/></g><!--link ProxyRequestHandler to ProxyRepo--><g id="link_ProxyRequestHandler_ProxyRepo"><path codeLine="33" d="M196,92.2969 C196,108.2969 196,129.7469 196,146.8269 " fill="none" id="ProxyRequestHandler-to-ProxyRepo" style="stroke:#181818;stroke-width:1.0;"/><polygon fill="#181818" points="196,151.9769,200,142.9769,196,146.9769,192,142.9769,196,151.9769" style="stroke:#181818;stroke-width:1.0;"/></g><!--link ProxyRepo to repo--><g id="link_ProxyRepo_repo"><path codeLine="34" d="M227.4,200.4069 C229.53,202.8869 231.44,205.5169 233,208.2969 C236.2238,214.0356 238.9267,220.1638 241.1883,226.4986 C241.7536,228.0823 242.2914,229.6789 242.8029,231.2856 C242.8668,231.4864 242.9303,231.6874 242.9935,231.8885 " fill="none" id="ProxyRepo-to-repo" style="stroke:#181818;stroke-width:1.0;"/><polygon fill="#FFFFFF" points="242.9935,231.8885,243.9845,211.6643,230.6265,215.8555,242.9935,231.8885" style="stroke:#181818;stroke-width:1.0;"/></g><!--link ProxyRepo to ProxyRepoSources--><g id="link_ProxyRepo_ProxyRepoSources"><path codeLine="35" d="M187.53,200.4069 C177.78,226.9769 161.79,270.5869 151.33,299.1169 " fill="none" id="ProxyRepo-to-ProxyRepoSources" style="stroke:#181818;stroke-width:1.0;"/><polygon fill="#181818" points="149.57,303.9169,156.4307,296.8507,151.2959,299.2242,148.9224,294.0893,149.57,303.9169" style="stroke:#181818;stroke-width:1.0;"/></g><!--link ProxyRepoSources to source--><g id="link_ProxyRepoSources_source"><path codeLine="36" d="M150.45,352.5769 C161.39,379.5369 179.63,424.4669 193.04,457.5169 " fill="none" id="ProxyRepoSources-to-source" style="stroke:#181818;stroke-width:1.0;"/><polygon fill="none" points="199.63,455.1369,200.66,476.2969,186.66,460.3969,199.63,455.1369" style="stroke:#181818;stroke-width:1.0;"/></g><!--link ProxyRepoSources to ChangeListener--><g id="link_ProxyRepoSources_ChangeListener"><path codeLine="37" d="M131.55,352.5769 C118.96,383.6069 96.7,438.4469 83.25,471.5669 " fill="none" id="ProxyRepoSources-to-ChangeListener" style="stroke:#181818;stroke-width:1.0;stroke-dasharray:7.0,7.0;"/><polygon fill="#181818" points="81.34,476.2969,88.4327,469.4636,83.2215,471.6644,81.0207,466.4532,81.34,476.2969" style="stroke:#181818;stroke-width:1.0;"/></g><!--SRC=[RL194e8m4Bpd5VC1U06LYnuyUB3q1MCOC2Kcc0nLel9tmrR8aajItUcPxcRD1S65hTCcXpqo2g4Az1vEphxgCpqhydn0anRau2EQ1LtQJV1YAwV8zvmFqp4dSFrl22UpHHhc3LUFTRWERjww_8EQEVaWnXNRj6k4A57TsqLjZ2jwWYGPdr864HdMN8FlpFKIRPXSXefWTqEJqr5x9ZD6tUeWYkIKKqmrHD5NTX5dc5nr8bObTSh1r8gCOxcm9du0]--></g></svg>