<?xml version="1.0" encoding="UTF-8" standalone="no"?><svg xmlns="http://www.w3.org/2000/svg" xmlns:xlink="http://www.w3.org/1999/xlink" contentStyleType="text/css" height="572px" preserveAspectRatio="none" style="width:484px;height:572px;background:#FFFFFF;" version="1.1" viewBox="0 0 484 572" width="484px" zoomAndPan="magnify"><defs/><g><rect height="29.0679" style="stroke:#00000000;stroke-width:1.0;fill:none;" width="97" x="186.75" y="5"/><text fill="#000000" font-family="sans-serif" font-size="14" font-weight="bold" lengthAdjust="spacing" textLength="87" x="191.75" y="24.9659">Storing Data</text><!--MD5=[334049d3a1ffeab5811ce8957a01f1ef]
cluster repo--><g id="cluster_repo"><rect height="179" rx="35" ry="35" style="stroke:#181818;stroke-width:1.0;fill:none;" width="233" x="245.5" y="227.0679"/><text fill="#000000" font-family="sans-serif" font-size="14" font-weight="bold" lengthAdjust="spacing" textLength="32" x="346" y="249.0339">repo</text></g><!--MD5=[5dfe1150c87218a9f0b25c58295c84f7]
cluster folder--><g id="cluster_folder"><path d="M288,281.0679 L330,281.0679 A3.75,3.75 0 0 1 332.5,283.5679 L339.5,306.1358 L444,306.1358 A2.5,2.5 0 0 1 446.5,308.6358 L446.5,371.5679 A2.5,2.5 0 0 1 444,374.0679 L288,374.0679 A2.5,2.5 0 0 1 285.5,371.5679 L285.5,283.5679 A2.5,2.5 0 0 1 288,281.0679 " style="stroke:#000000;stroke-width:1.5;fill:none;"/><line style="stroke:#000000;stroke-width:1.5;fill:none;" x1="285.5" x2="339.5" y1="306.1358" y2="306.1358"/><text fill="#000000" font-family="sans-serif" font-size="14" font-weight="bold" lengthAdjust="spacing" textLength="41" x="289.5" y="298.0339">folder</text></g><!--MD5=[815249f79c2c08157ac02b3106e03757]
cluster Database--><g id="cluster_Database"><path d="M154.5,448.0679 C154.5,438.0679 209.5,438.0679 209.5,438.0679 C209.5,438.0679 264.5,438.0679 264.5,448.0679 L264.5,545.0679 C264.5,555.0679 209.5,555.0679 209.5,555.0679 C209.5,555.0679 154.5,555.0679 154.5,545.0679 L154.5,448.0679 " style="stroke:#181818;stroke-width:1.0;fill:none;"/><path d="M154.5,448.0679 C154.5,458.0679 209.5,458.0679 209.5,458.0679 C209.5,458.0679 264.5,458.0679 264.5,448.0679 " fill="none" style="stroke:#181818;stroke-width:1.0;"/><text fill="#000000" font-family="sans-serif" font-size="14" font-weight="bold" lengthAdjust="spacing" textLength="64" x="177.5" y="475.0339">Database</text></g><!--MD5=[bf3ce7a256daaaf5dbab58753aeb22ee]
entity zip--><g id="elem_zip"><path d="M390.5,321.5679 L390.5,355.6358 A2.5,2.5 0 0 0 393,358.1358 L428,358.1358 A2.5,2.5 0 0 0 430.5,355.6358 L430.5,329.0679 L420.5,319.0679 L393,319.0679 A2.5,2.5 0 0 0 390.5,321.5679 " fill="#F1F1F1" style="stroke:#181818;stroke-width:0.5;"/><path d="M420.5,319.0679 L420.5,326.5679 A2.5,2.5 0 0 0 423,329.0679 L430.5,329.0679 " fill="#F1F1F1" style="stroke:#181818;stroke-width:0.5;"/><text fill="#000000" font-family="sans-serif" font-size="14" lengthAdjust="spacing" textLength="20" x="400.5" y="344.0339">zip</text></g><!--MD5=[c12a1600b6b75d8e137ee7341d68ba4c]
entity meta--><g id="elem_meta"><path d="M301.5,321.5679 L301.5,355.6358 A2.5,2.5 0 0 0 304,358.1358 L353,358.1358 A2.5,2.5 0 0 0 355.5,355.6358 L355.5,329.0679 L345.5,319.0679 L304,319.0679 A2.5,2.5 0 0 0 301.5,321.5679 " fill="#F1F1F1" style="stroke:#181818;stroke-width:0.5;"/><path d="M345.5,319.0679 L345.5,326.5679 A2.5,2.5 0 0 0 348,329.0679 L355.5,329.0679 " fill="#F1F1F1" style="stroke:#181818;stroke-width:0.5;"/><text fill="#000000" font-family="sans-serif" font-size="14" lengthAdjust="spacing" textLength="34" x="311.5" y="344.0339">meta</text></g><!--MD5=[fb94403e3d3521d383fd6507b67b3642]
class source--><g id="elem_source"><rect codeLine="25" fill="#F1F1F1" height="48" id="source" rx="2.5" ry="2.5" style="stroke:#181818;stroke-width:0.5;" width="77" x="171" y="491.0679"/><ellipse cx="186" cy="507.0679" fill="#ADD1B2" rx="11" ry="11" style="stroke:#181818;stroke-width:1.0;"/><path d="M182.3594,513.5679 L182.3594,501.4273 L190.0156,501.4273 L190.0156,503.5523 L184.7344,503.5523 L184.7344,506.2085 L189.75,506.2085 L189.75,508.3335 L184.7344,508.3335 L184.7344,511.4429 L190.0156,511.4429 L190.0156,513.5679 L182.3594,513.5679 Z " fill="#000000"/><text fill="#000000" font-family="sans-serif" font-size="14" lengthAdjust="spacing" textLength="45" x="200" y="512.4999">source</text><line style="stroke:#181818;stroke-width:0.5;" x1="172" x2="247" y1="523.0679" y2="523.0679"/><line style="stroke:#181818;stroke-width:0.5;" x1="172" x2="247" y1="531.0679" y2="531.0679"/></g><!--MD5=[43461efb75070d5b99f20b1925d828b0]
class ProxyRequestHandler--><g id="elem_ProxyRequestHandler"><rect codeLine="4" fill="#F1F1F1" height="48" id="ProxyRequestHandler" rx="2.5" ry="2.5" style="stroke:#181818;stroke-width:0.5;" width="177" x="108" y="47.0679"/><ellipse cx="123" cy="63.0679" fill="#ADD1B2" rx="11" ry="11" style="stroke:#181818;stroke-width:1.0;"/><path d="M122.4688,69.9898 Q120.7188,69.9898 119.5781,69.2554 Q118.4531,68.5054 117.8906,67.1617 Q117.3438,65.8023 117.3438,64.0054 Q117.3438,61.9742 118,60.521 Q118.6563,59.0679 119.9375,58.2867 Q121.2188,57.5054 123.0938,57.5054 Q123.9844,57.5054 124.6563,57.6929 Q125.3281,57.8648 126.0156,58.2085 L125.2031,60.2242 Q124.5781,59.9117 124.0313,59.7867 Q123.5,59.6617 123.0156,59.6617 Q121.8438,59.6617 121.1406,60.1929 Q120.4375,60.7242 120.1406,61.6773 Q119.8438,62.6304 119.8438,63.896 Q119.8438,65.9117 120.5625,66.8804 Q121.2813,67.8335 122.875,67.8335 Q123.4688,67.8335 124.0938,67.6773 Q124.7188,67.521 125.5469,67.146 L125.5469,69.3648 Q124.8125,69.6773 124.0156,69.8335 Q123.2344,69.9898 122.4688,69.9898 Z " fill="#000000"/><text fill="#000000" font-family="sans-serif" font-size="14" lengthAdjust="spacing" textLength="145" x="137" y="68.4999">ProxyRequestHandler</text><line style="stroke:#181818;stroke-width:0.5;" x1="109" x2="284" y1="79.0679" y2="79.0679"/><line style="stroke:#181818;stroke-width:0.5;" x1="109" x2="284" y1="87.0679" y2="87.0679"/></g><!--MD5=[30e2d8deda946a11189666f8d4da17df]
class ProxyRepo--><g id="elem_ProxyRepo"><rect codeLine="7" fill="#F1F1F1" height="48" id="ProxyRepo" rx="2.5" ry="2.5" style="stroke:#181818;stroke-width:0.5;" width="102" x="145.5" y="155.0679"/><ellipse cx="160.5" cy="171.0679" fill="#ADD1B2" rx="11" ry="11" style="stroke:#181818;stroke-width:1.0;"/><path d="M159.9688,177.9898 Q158.2188,177.9898 157.0781,177.2554 Q155.9531,176.5054 155.3906,175.1617 Q154.8438,173.8023 154.8438,172.0054 Q154.8438,169.9742 155.5,168.521 Q156.1563,167.0679 157.4375,166.2867 Q158.7188,165.5054 160.5938,165.5054 Q161.4844,165.5054 162.1563,165.6929 Q162.8281,165.8648 163.5156,166.2085 L162.7031,168.2242 Q162.0781,167.9117 161.5313,167.7867 Q161,167.6617 160.5156,167.6617 Q159.3438,167.6617 158.6406,168.1929 Q157.9375,168.7242 157.6406,169.6773 Q157.3438,170.6304 157.3438,171.896 Q157.3438,173.9117 158.0625,174.8804 Q158.7813,175.8335 160.375,175.8335 Q160.9688,175.8335 161.5938,175.6773 Q162.2188,175.521 163.0469,175.146 L163.0469,177.3648 Q162.3125,177.6773 161.5156,177.8335 Q160.7344,177.9898 159.9688,177.9898 Z " fill="#000000"/><text fill="#000000" font-family="sans-serif" font-size="14" lengthAdjust="spacing" textLength="70" x="174.5" y="176.4999">ProxyRepo</text><line style="stroke:#181818;stroke-width:0.5;" x1="146.5" x2="246.5" y1="187.0679" y2="187.0679"/><line style="stroke:#181818;stroke-width:0.5;" x1="146.5" x2="246.5" y1="195.0679" y2="195.0679"/></g><!--MD5=[17c80345ce122db1d9d72f6005235627]
class ProxyRepoSources--><g id="elem_ProxyRepoSources"><rect codeLine="10" fill="#F1F1F1" height="48" id="ProxyRepoSources" rx="2.5" ry="2.5" style="stroke:#181818;stroke-width:0.5;" width="155" x="63" y="314.5679"/><ellipse cx="78" cy="330.5679" fill="#ADD1B2" rx="11" ry="11" style="stroke:#181818;stroke-width:1.0;"/><path d="M77.4688,337.4898 Q75.7188,337.4898 74.5781,336.7554 Q73.4531,336.0054 72.8906,334.6617 Q72.3438,333.3023 72.3438,331.5054 Q72.3438,329.4742 73,328.021 Q73.6563,326.5679 74.9375,325.7867 Q76.2188,325.0054 78.0938,325.0054 Q78.9844,325.0054 79.6563,325.1929 Q80.3281,325.3648 81.0156,325.7085 L80.2031,327.7242 Q79.5781,327.4117 79.0313,327.2867 Q78.5,327.1617 78.0156,327.1617 Q76.8438,327.1617 76.1406,327.6929 Q75.4375,328.2242 75.1406,329.1773 Q74.8438,330.1304 74.8438,331.396 Q74.8438,333.4117 75.5625,334.3804 Q76.2813,335.3335 77.875,335.3335 Q78.4688,335.3335 79.0938,335.1773 Q79.7188,335.021 80.5469,334.646 L80.5469,336.8648 Q79.8125,337.1773 79.0156,337.3335 Q78.2344,337.4898 77.4688,337.4898 Z " fill="#000000"/><text fill="#000000" font-family="sans-serif" font-size="14" lengthAdjust="spacing" textLength="123" x="92" y="335.9999">ProxyRepoSources</text><line style="stroke:#181818;stroke-width:0.5;" x1="64" x2="217" y1="346.5679" y2="346.5679"/><line style="stroke:#181818;stroke-width:0.5;" x1="64" x2="217" y1="354.5679" y2="354.5679"/></g><!--MD5=[a94ef3b8c8e4fd23532822afff4ed5f3]
class ChangeListener--><g id="elem_ChangeListener"><rect codeLine="30" fill="#F1F1F1" height="48" id="ChangeListener" rx="2.5" ry="2.5" style="stroke:#181818;stroke-width:0.5;" width="129" x="7" y="491.0679"/><ellipse cx="22" cy="507.0679" fill="#B4A7E5" rx="11" ry="11" style="stroke:#181818;stroke-width:1.0;"/><path d="M18.0313,513.5679 L18.0313,511.8648 L20.3906,511.5992 L20.3906,503.396 L18.0313,503.1304 L18.0313,501.4273 L25.1719,501.4273 L25.1719,503.1304 L22.75,503.396 L22.75,511.5992 L25.1719,511.8648 L25.1719,513.5679 L18.0313,513.5679 Z " fill="#000000"/><text fill="#000000" font-family="sans-serif" font-size="14" font-style="italic" lengthAdjust="spacing" textLength="97" x="36" y="512.4999">ChangeListener</text><line style="stroke:#181818;stroke-width:0.5;" x1="8" x2="135" y1="523.0679" y2="523.0679"/><line style="stroke:#181818;stroke-width:0.5;" x1="8" x2="135" y1="531.0679" y2="531.0679"/></g><!--MD5=[74dbc2d11b45a085a2d234dd096bbe12]
link ProxyRequestHandler to ProxyRepo--><g id="link_ProxyRequestHandler_ProxyRepo"><path codeLine="33" d="M196.5,95.0679 C196.5,111.0679 196.5,132.5179 196.5,149.5979 " fill="none" id="ProxyRequestHandler-to-ProxyRepo" style="stroke:#181818;stroke-width:1.0;"/><polygon fill="#181818" points="196.5,154.7479,200.5,145.7479,196.5,149.7479,192.5,145.7479,196.5,154.7479" style="stroke:#181818;stroke-width:1.0;"/></g><!--MD5=[48f5647f8b5ba421b8466003118b8251]
link ProxyRepo to repo--><g id="link_ProxyRepo_repo"><path codeLine="34" d="M229.97,203.4179 C232.07,205.8079 233.95,208.3679 235.5,211.0679 C238.9738,217.1304 241.8652,223.6162 244.2649,230.3293 C244.5649,231.1684 244.8572,232.0111 245.142,232.857 C245.2132,233.0685 245.2839,233.2801 245.3542,233.492 " fill="none" id="ProxyRepo-to-repo" style="stroke:#181818;stroke-width:1.0;"/><polygon fill="#FFFFFF" points="245.3542,233.492,246.0173,213.2544,232.7291,217.6614,245.3542,233.492" style="stroke:#181818;stroke-width:1.0;"/></g><!--MD5=[dbd87b12790057922deb2ba961a91844]
link ProxyRepo to ProxyRepoSources--><g id="link_ProxyRepo_ProxyRepoSources"><path codeLine="35" d="M188.24,203.3079 C178.2,231.5379 161.28,279.1279 150.51,309.4179 " fill="none" id="ProxyRepo-to-ProxyRepoSources" style="stroke:#181818;stroke-width:1.0;"/><polygon fill="#181818" points="148.71,314.4879,155.5067,307.3602,150.3935,309.7799,147.9738,304.6666,148.71,314.4879" style="stroke:#181818;stroke-width:1.0;"/></g><!--MD5=[cb090d100bb5cf3b1eeca4e4ff5d28fe]
link ProxyRepoSources to source--><g id="link_ProxyRepoSources_source"><path codeLine="36" d="M149.66,362.7379 C160.64,390.5079 179.26,437.5779 192.81,471.8679 " fill="none" id="ProxyRepoSources-to-source" style="stroke:#181818;stroke-width:1.0;"/><polygon fill="none" points="199.45,469.6279,200.3,490.7979,186.44,474.7779,199.45,469.6279" style="stroke:#181818;stroke-width:1.0;"/></g><!--MD5=[49d74a1de686f523f054ef3a8a8c5fdf]
link ProxyRepoSources to ChangeListener--><g id="link_ProxyRepoSources_ChangeListener"><path codeLine="37" d="M131.34,362.7379 C118.76,394.5479 96.17,451.6879 82.63,485.9179 " fill="none" id="ProxyRepoSources-to-ChangeListener" style="stroke:#181818;stroke-width:1.0;stroke-dasharray:7.0,7.0;"/><polygon fill="#181818" points="80.7,490.7979,87.7309,483.9011,82.5397,486.1487,80.2921,480.9575,80.7,490.7979" style="stroke:#181818;stroke-width:1.0;"/></g><!--MD5=[0fae8d19eb2bd918a37c91db630f70aa]
@startuml

title Storing Data

class ProxyRequestHandler {
}

class ProxyRepo {
}

class ProxyRepoSources {
}

storage repo {
    folder folder {
        file zip {
        }
        file meta {
        }
    }
}



package Database <<Database>> {
entity source
}



interface ChangeListener {
}

ProxyRequestHandler - -> ProxyRepo
ProxyRepo - -|> repo
ProxyRepo - -> ProxyRepoSources
ProxyRepoSources - -|> source
ProxyRepoSources ..> ChangeListener

@enduml

PlantUML version 1.2022.4(Sat Apr 09 14:29:17 BST 2022)
(GPL source distribution)
Java Runtime: OpenJDK Runtime Environment
JVM: OpenJDK 64-Bit Server VM
Default Encoding: UTF-8
Language: en
Country: GB
--></g></svg>