<?xml version="1.0" encoding="us-ascii" standalone="no"?><svg xmlns="http://www.w3.org/2000/svg" xmlns:xlink="http://www.w3.org/1999/xlink" contentStyleType="text/css" height="557px" preserveAspectRatio="none" style="width:499px;height:557px;background:#FFFFFF;" version="1.1" viewBox="0 0 499 557" width="499px" zoomAndPan="magnify"><defs/><g><text fill="#000000" font-family="sans-serif" font-size="14" font-weight="bold" lengthAdjust="spacing" textLength="97" x="194.25" y="22.9951">Storing Data</text><!--cluster repo--><g id="cluster_repo"><rect fill="none" height="170.3" rx="35" ry="35" style="stroke:#181818;stroke-width:1.0;" width="235" x="258.5" y="224.2969"/><text fill="#000000" font-family="sans-serif" font-size="14" font-weight="bold" lengthAdjust="spacing" textLength="37" x="357.5" y="244.292">repo</text></g><!--cluster folder--><g id="cluster_folder"><path d="M301,275.2969 L349,275.2969 A3.75,3.75 0 0 1 351.5,277.7969 L358.5,297.5937 L459,297.5937 A2.5,2.5 0 0 1 461.5,300.0937 L461.5,360.0969 A2.5,2.5 0 0 1 459,362.5969 L301,362.5969 A2.5,2.5 0 0 1 298.5,360.0969 L298.5,277.7969 A2.5,2.5 0 0 1 301,275.2969 " fill="none" style="stroke:#000000;stroke-width:1.5;"/><line style="stroke:#000000;stroke-width:1.5;" x1="298.5" x2="358.5" y1="297.5937" y2="297.5937"/><text fill="#000000" font-family="sans-serif" font-size="14" font-weight="bold" lengthAdjust="spacing" textLength="47" x="302.5" y="290.292">folder</text></g><!--cluster Database--><g id="cluster_Database"><path d="M166.5,436.5969 C166.5,426.5969 222.5,426.5969 222.5,426.5969 C222.5,426.5969 278.5,426.5969 278.5,436.5969 L278.5,530.5969 C278.5,540.5969 222.5,540.5969 222.5,540.5969 C222.5,540.5969 166.5,540.5969 166.5,530.5969 L166.5,436.5969 " fill="none" style="stroke:#181818;stroke-width:1.0;"/><path d="M166.5,436.5969 C166.5,446.5969 222.5,446.5969 222.5,446.5969 C222.5,446.5969 278.5,446.5969 278.5,436.5969 " fill="none" style="stroke:#181818;stroke-width:1.0;"/><text fill="#000000" font-family="sans-serif" font-size="14" font-weight="bold" lengthAdjust="spacing" textLength="73" x="186" y="461.592">Database</text></g><!--entity zip--><g id="elem_zip"><path d="M405.5,312.7969 L405.5,344.0937 A2.5,2.5 0 0 0 408,346.5937 L443,346.5937 A2.5,2.5 0 0 0 445.5,344.0937 L445.5,320.2969 L435.5,310.2969 L408,310.2969 A2.5,2.5 0 0 0 405.5,312.7969 " fill="#F1F1F1" style="stroke:#181818;stroke-width:0.5;"/><path d="M435.5,310.2969 L435.5,317.7969 A2.5,2.5 0 0 0 438,320.2969 L445.5,320.2969 " fill="#F1F1F1" style="stroke:#181818;stroke-width:0.5;"/><text fill="#000000" font-family="sans-serif" font-size="14" lengthAdjust="spacing" textLength="20" x="415.5" y="333.292">zip</text></g><!--entity meta--><g id="elem_meta"><path d="M315,312.7969 L315,344.0937 A2.5,2.5 0 0 0 317.5,346.5937 L367.5,346.5937 A2.5,2.5 0 0 0 370,344.0937 L370,320.2969 L360,310.2969 L317.5,310.2969 A2.5,2.5 0 0 0 315,312.7969 " fill="#F1F1F1" style="stroke:#181818;stroke-width:0.5;"/><path d="M360,310.2969 L360,317.7969 A2.5,2.5 0 0 0 362.5,320.2969 L370,320.2969 " fill="#F1F1F1" style="stroke:#181818;stroke-width:0.5;"/><text fill="#000000" font-family="sans-serif" font-size="14" lengthAdjust="spacing" textLength="35" x="325" y="333.292">meta</text></g><!--class source--><g id="elem_source"><rect codeLine="25" fill="#F1F1F1" height="48" id="source" rx="2.5" ry="2.5" style="stroke:#181818;stroke-width:0.5;" width="80" x="182.5" y="476.5969"/><ellipse cx="197.5" cy="492.5969" fill="#ADD1B2" rx="11" ry="11" style="stroke:#181818;stroke-width:1.0;"/><path d="M201.6094,498.5969 L193.8906,498.5969 L193.8906,486.2062 L201.6094,486.2062 L201.6094,488.3625 L196.3438,488.3625 L196.3438,491.0344 L201.1094,491.0344 L201.1094,493.1906 L196.3438,493.1906 L196.3438,496.4406 L201.6094,496.4406 L201.6094,498.5969 Z " fill="#000000"/><text fill="#000000" font-family="sans-serif" font-size="14" lengthAdjust="spacing" textLength="48" x="211.5" y="497.4436">source</text><line style="stroke:#181818;stroke-width:0.5;" x1="183.5" x2="261.5" y1="508.5969" y2="508.5969"/><line style="stroke:#181818;stroke-width:0.5;" x1="183.5" x2="261.5" y1="516.5969" y2="516.5969"/></g><!--class ProxyRequestHandler--><g id="elem_ProxyRequestHandler"><rect codeLine="4" fill="#F1F1F1" height="48" id="ProxyRequestHandler" rx="2.5" ry="2.5" style="stroke:#181818;stroke-width:0.5;" width="181" x="117" y="44.2969"/><ellipse cx="132" cy="60.2969" fill="#ADD1B2" rx="11" ry="11" style="stroke:#181818;stroke-width:1.0;"/><path d="M134.9688,65.9375 Q134.3906,66.2344 133.75,66.375 Q133.1094,66.5313 132.4063,66.5313 Q129.9063,66.5313 128.5781,64.8906 Q127.2656,63.2344 127.2656,60.1094 Q127.2656,56.9844 128.5781,55.3281 Q129.9063,53.6719 132.4063,53.6719 Q133.1094,53.6719 133.75,53.8281 Q134.4063,53.9844 134.9688,54.2813 L134.9688,57 Q134.3438,56.4219 133.75,56.1563 Q133.1563,55.875 132.5313,55.875 Q131.1875,55.875 130.5,56.9531 Q129.8125,58.0156 129.8125,60.1094 Q129.8125,62.2031 130.5,63.2813 Q131.1875,64.3438 132.5313,64.3438 Q133.1563,64.3438 133.75,64.0781 Q134.3438,63.7969 134.9688,63.2188 L134.9688,65.9375 Z " fill="#000000"/><text fill="#000000" font-family="sans-serif" font-size="14" lengthAdjust="spacing" textLength="149" x="146" y="65.1436">ProxyRequestHandler</text><line style="stroke:#181818;stroke-width:0.5;" x1="118" x2="297" y1="76.2969" y2="76.2969"/><line style="stroke:#181818;stroke-width:0.5;" x1="118" x2="297" y1="84.2969" y2="84.2969"/></g><!--class ProxyRepo--><g id="elem_ProxyRepo"><rect codeLine="7" fill="#F1F1F1" height="48" id="ProxyRepo" rx="2.5" ry="2.5" style="stroke:#181818;stroke-width:0.5;" width="106" x="154.5" y="152.2969"/><ellipse cx="169.5" cy="168.2969" fill="#ADD1B2" rx="11" ry="11" style="stroke:#181818;stroke-width:1.0;"/><path d="M172.4688,173.9375 Q171.8906,174.2344 171.25,174.375 Q170.6094,174.5312 169.9063,174.5312 Q167.4063,174.5312 166.0781,172.8906 Q164.7656,171.2344 164.7656,168.1094 Q164.7656,164.9844 166.0781,163.3281 Q167.4063,161.6719 169.9063,161.6719 Q170.6094,161.6719 171.25,161.8281 Q171.9063,161.9844 172.4688,162.2812 L172.4688,165 Q171.8438,164.4219 171.25,164.1562 Q170.6563,163.875 170.0313,163.875 Q168.6875,163.875 168,164.9531 Q167.3125,166.0156 167.3125,168.1094 Q167.3125,170.2031 168,171.2812 Q168.6875,172.3437 170.0313,172.3437 Q170.6563,172.3437 171.25,172.0781 Q171.8438,171.7969 172.4688,171.2187 L172.4688,173.9375 Z " fill="#000000"/><text fill="#000000" font-family="sans-serif" font-size="14" lengthAdjust="spacing" textLength="74" x="183.5" y="173.1436">ProxyRepo</text><line style="stroke:#181818;stroke-width:0.5;" x1="155.5" x2="259.5" y1="184.2969" y2="184.2969"/><line style="stroke:#181818;stroke-width:0.5;" x1="155.5" x2="259.5" y1="192.2969" y2="192.2969"/></g><!--class ProxyRepoSources--><g id="elem_ProxyRepoSources"><rect codeLine="10" fill="#F1F1F1" height="48" id="ProxyRepoSources" rx="2.5" ry="2.5" style="stroke:#181818;stroke-width:0.5;" width="163" x="68" y="304.4469"/><ellipse cx="83" cy="320.4469" fill="#ADD1B2" rx="11" ry="11" style="stroke:#181818;stroke-width:1.0;"/><path d="M85.9688,326.0875 Q85.3906,326.3844 84.75,326.525 Q84.1094,326.6813 83.4063,326.6813 Q80.9063,326.6813 79.5781,325.0406 Q78.2656,323.3844 78.2656,320.2594 Q78.2656,317.1344 79.5781,315.4781 Q80.9063,313.8219 83.4063,313.8219 Q84.1094,313.8219 84.75,313.9781 Q85.4063,314.1344 85.9688,314.4313 L85.9688,317.15 Q85.3438,316.5719 84.75,316.3063 Q84.1563,316.025 83.5313,316.025 Q82.1875,316.025 81.5,317.1031 Q80.8125,318.1656 80.8125,320.2594 Q80.8125,322.3531 81.5,323.4313 Q82.1875,324.4938 83.5313,324.4938 Q84.1563,324.4938 84.75,324.2281 Q85.3438,323.9469 85.9688,323.3688 L85.9688,326.0875 Z " fill="#000000"/><text fill="#000000" font-family="sans-serif" font-size="14" lengthAdjust="spacing" textLength="131" x="97" y="325.2936">ProxyRepoSources</text><line style="stroke:#181818;stroke-width:0.5;" x1="69" x2="230" y1="336.4469" y2="336.4469"/><line style="stroke:#181818;stroke-width:0.5;" x1="69" x2="230" y1="344.4469" y2="344.4469"/></g><!--class ChangeListener--><g id="elem_ChangeListener"><rect codeLine="30" fill="#F1F1F1" height="48" id="ChangeListener" rx="2.5" ry="2.5" style="stroke:#181818;stroke-width:0.5;" width="141" x="7" y="476.5969"/><ellipse cx="22" cy="492.5969" fill="#B4A7E5" rx="11" ry="11" style="stroke:#181818;stroke-width:1.0;"/><path d="M17.9219,488.3625 L17.9219,486.2062 L25.3125,486.2062 L25.3125,488.3625 L22.8438,488.3625 L22.8438,496.4406 L25.3125,496.4406 L25.3125,498.5969 L17.9219,498.5969 L17.9219,496.4406 L20.3906,496.4406 L20.3906,488.3625 L17.9219,488.3625 Z " fill="#000000"/><text fill="#000000" font-family="sans-serif" font-size="14" font-style="italic" lengthAdjust="spacing" textLength="109" x="36" y="497.4436">ChangeListener</text><line style="stroke:#181818;stroke-width:0.5;" x1="8" x2="147" y1="508.5969" y2="508.5969"/><line style="stroke:#181818;stroke-width:0.5;" x1="8" x2="147" y1="516.5969" y2="516.5969"/></g><!--link ProxyRequestHandler to ProxyRepo--><g id="link_ProxyRequestHandler_ProxyRepo"><path codeLine="33" d="M207.5,92.5669 C207.5,108.1669 207.5,128.8469 207.5,145.6369 " fill="none" id="ProxyRequestHandler-to-ProxyRepo" style="stroke:#181818;stroke-width:1.0;"/><polygon fill="#181818" points="207.5,150.5769,211.5,141.5769,207.5,145.5769,203.5,141.5769,207.5,150.5769" style="stroke:#181818;stroke-width:1.0;"/></g><!--link ProxyRepo to repo--><g id="link_ProxyRepo_repo"><path codeLine="34" d="M242.66,200.5169 C244.87,202.9369 246.86,205.5369 248.5,208.2969 C251.8688,213.9606 254.6809,220.0345 257.0225,226.3319 C257.3152,227.1191 257.6006,227.9098 257.8787,228.7035 C258.0178,229.1004 258.1551,229.4981 258.2906,229.8965 C258.3584,230.0957 258.4257,230.2951 258.4926,230.4947 " fill="none" id="ProxyRepo-to-repo" style="stroke:#181818;stroke-width:1.0;"/><polygon fill="#FFFFFF" points="258.4926,230.4947,259.0934,210.2552,245.8188,214.7031,258.4926,230.4947" style="stroke:#181818;stroke-width:1.0;"/></g><!--link ProxyRepo to ProxyRepoSources--><g id="link_ProxyRepo_ProxyRepoSources"><path codeLine="35" d="M198.44,200.7569 C188.26,227.0969 171.75,269.8569 160.76,298.3069 " fill="none" id="ProxyRepo-to-ProxyRepoSources" style="stroke:#181818;stroke-width:1.0;"/><polygon fill="#181818" points="159.04,302.7369,166.0085,295.777,160.8378,298.0713,158.5435,292.9005,159.04,302.7369" style="stroke:#181818;stroke-width:1.0;"/></g><!--link ProxyRepoSources to source--><g id="link_ProxyRepoSources_source"><path codeLine="36" d="M159.5,352.7469 C170.93,379.4069 189.9,423.6069 204.04,456.5669 " fill="none" id="ProxyRepoSources-to-source" style="stroke:#181818;stroke-width:1.0;"/><polygon fill="none" points="210.46,453.7769,211.91,474.9169,197.59,459.2969,210.46,453.7769" style="stroke:#181818;stroke-width:1.0;"/></g><!--link ProxyRepoSources to ChangeListener--><g id="link_ProxyRepoSources_ChangeListener"><path codeLine="37" d="M139.64,352.7469 C126.7,383.3369 103.97,437.0469 89.88,470.3369 " fill="none" id="ProxyRepoSources-to-ChangeListener" style="stroke:#181818;stroke-width:1.0;stroke-dasharray:7.0,7.0;"/><polygon fill="#181818" points="87.95,474.9069,95.1291,468.1644,89.8903,470.2987,87.756,465.0599,87.95,474.9069" style="stroke:#181818;stroke-width:1.0;"/></g><!--SRC=[RL194e8m4Bpd5VC1U06LYnuyUB3q1MCOC2Kcc0nLel9tmrR8aajItUcPxcRD1S65hTCcXpqo2g4Az1vEphxgCpqhydn0anRau2EQ1LtQJV1YAwV8zvmFqp4dSFrl22UpHHhc3LUFTRWERjww_8EQEVaWnXNRj6k4A57TsqLjZ2jwWYGPdr864HdMN8FlpFKIRPXSXefWTqEJqr5x9ZD6tUeWYkIKKqmrHD5NTX5dc5nr8bObTSh1r8gCOxcm9du0]--></g></svg>