<?xml version="1.0" encoding="UTF-8" standalone="no"?><svg xmlns="http://www.w3.org/2000/svg" xmlns:xlink="http://www.w3.org/1999/xlink" contentScriptType="application/ecmascript" contentStyleType="text/css" height="546px" preserveAspectRatio="none" style="width:468px;height:546px;background:#FFFFFF;" version="1.1" viewBox="0 0 468 546" width="468px" zoomAndPan="magnify"><defs><filter height="300%" id="f1xf81gv9rf2rd" width="300%" x="-1" y="-1"><feGaussianBlur result="blurOut" stdDeviation="2.0"/><feColorMatrix in="blurOut" result="blurOut2" type="matrix" values="0 0 0 0 0 0 0 0 0 0 0 0 0 0 0 0 0 0 .4 0"/><feOffset dx="4.0" dy="4.0" in="blurOut2" result="blurOut3"/><feBlend in="SourceGraphic" in2="blurOut3" mode="normal"/></filter></defs><g><text fill="#000000" font-family="sans-serif" font-size="18" lengthAdjust="spacing" textLength="107" x="174.25" y="19.2419">Storing Data</text><!--MD5=[334049d3a1ffeab5811ce8957a01f1ef]
cluster repo--><rect fill="#FFFFFF" filter="url(#f1xf81gv9rf2rd)" height="179" rx="35" ry="35" style="stroke:#000000;stroke-width:1.5;" width="233" x="223.5" y="211.5158"/><text fill="#000000" font-family="sans-serif" font-size="14" font-weight="bold" lengthAdjust="spacing" textLength="32" x="324" y="233.4818">repo</text><!--MD5=[5dfe1150c87218a9f0b25c58295c84f7]
cluster folder--><polygon fill="#FFFFFF" filter="url(#f1xf81gv9rf2rd)" points="263.5,265.5158,310.5,265.5158,317.5,290.5838,424.5,290.5838,424.5,358.5158,263.5,358.5158,263.5,265.5158" style="stroke:#000000;stroke-width:1.5;"/><line style="stroke:#000000;stroke-width:1.5;" x1="263.5" x2="317.5" y1="290.5838" y2="290.5838"/><text fill="#000000" font-family="sans-serif" font-size="14" font-weight="bold" lengthAdjust="spacing" textLength="41" x="267.5" y="282.4818">folder</text><!--MD5=[815249f79c2c08157ac02b3106e03757]
cluster Database--><path d="M141.5,432.5158 C141.5,422.5158 192.5,422.5158 192.5,422.5158 C192.5,422.5158 243.5,422.5158 243.5,432.5158 L243.5,529.5158 C243.5,539.5158 192.5,539.5158 192.5,539.5158 C192.5,539.5158 141.5,539.5158 141.5,529.5158 L141.5,432.5158 " fill="#FFFFFF" filter="url(#f1xf81gv9rf2rd)" style="stroke:#000000;stroke-width:1.5;"/><path d="M141.5,432.5158 C141.5,442.5158 192.5,442.5158 192.5,442.5158 C192.5,442.5158 243.5,442.5158 243.5,432.5158 " fill="none" style="stroke:#000000;stroke-width:1.5;"/><text fill="#000000" font-family="sans-serif" font-size="14" font-weight="bold" lengthAdjust="spacing" textLength="64" x="160.5" y="459.4818">Database</text><!--MD5=[bf3ce7a256daaaf5dbab58753aeb22ee]
entity zip--><polygon fill="#FFFFFF" filter="url(#f1xf81gv9rf2rd)" points="368.5,303.5158,368.5,342.5838,408.5,342.5838,408.5,313.5158,398.5,303.5158,368.5,303.5158" style="stroke:#000000;stroke-width:1.5;"/><path d="M398.5,303.5158 L398.5,313.5158 L408.5,313.5158 " fill="#FFFFFF" style="stroke:#000000;stroke-width:1.5;"/><text fill="#000000" font-family="sans-serif" font-size="14" lengthAdjust="spacing" textLength="20" x="378.5" y="328.4818">zip</text><!--MD5=[c12a1600b6b75d8e137ee7341d68ba4c]
entity meta--><polygon fill="#FFFFFF" filter="url(#f1xf81gv9rf2rd)" points="279.5,303.5158,279.5,342.5838,333.5,342.5838,333.5,313.5158,323.5,303.5158,279.5,303.5158" style="stroke:#000000;stroke-width:1.5;"/><path d="M323.5,303.5158 L323.5,313.5158 L333.5,313.5158 " fill="#FFFFFF" style="stroke:#000000;stroke-width:1.5;"/><text fill="#000000" font-family="sans-serif" font-size="14" lengthAdjust="spacing" textLength="34" x="289.5" y="328.4818">meta</text><!--MD5=[fb94403e3d3521d383fd6507b67b3642]
class source--><rect codeLine="25" fill="#FEFECE" filter="url(#f1xf81gv9rf2rd)" height="48" id="source" style="stroke:#A80036;stroke-width:1.5;" width="70" x="157.5" y="475.5158"/><ellipse cx="172.5" cy="491.5158" fill="#ADD1B2" rx="11" ry="11" style="stroke:#A80036;stroke-width:1.0;"/><path d="M168.8594,498.0158 L168.8594,485.8752 L176.5156,485.8752 L176.5156,488.0002 L171.2344,488.0002 L171.2344,490.6565 L176.25,490.6565 L176.25,492.7815 L171.2344,492.7815 L171.2344,495.8908 L176.5156,495.8908 L176.5156,498.0158 L168.8594,498.0158 Z " fill="#000000"/><text fill="#000000" font-family="sans-serif" font-size="12" lengthAdjust="spacing" textLength="38" x="186.5" y="496.1719">source</text><line style="stroke:#A80036;stroke-width:1.5;" x1="158.5" x2="226.5" y1="507.5158" y2="507.5158"/><line style="stroke:#A80036;stroke-width:1.5;" x1="158.5" x2="226.5" y1="515.5158" y2="515.5158"/><!--MD5=[43461efb75070d5b99f20b1925d828b0]
class ProxyRequestHandler--><rect codeLine="4" fill="#FEFECE" filter="url(#f1xf81gv9rf2rd)" height="48" id="ProxyRequestHandler" style="stroke:#A80036;stroke-width:1.5;" width="153" x="103" y="31.5158"/><ellipse cx="118" cy="47.5158" fill="#ADD1B2" rx="11" ry="11" style="stroke:#A80036;stroke-width:1.0;"/><path d="M117.4688,54.4377 Q115.7188,54.4377 114.5781,53.7033 Q113.4531,52.9533 112.8906,51.6096 Q112.3438,50.2502 112.3438,48.4533 Q112.3438,46.4221 113,44.969 Q113.6563,43.5158 114.9375,42.7346 Q116.2188,41.9533 118.0938,41.9533 Q118.9844,41.9533 119.6563,42.1408 Q120.3281,42.3127 121.0156,42.6565 L120.2031,44.6721 Q119.5781,44.3596 119.0313,44.2346 Q118.5,44.1096 118.0156,44.1096 Q116.8438,44.1096 116.1406,44.6408 Q115.4375,45.1721 115.1406,46.1252 Q114.8438,47.0783 114.8438,48.344 Q114.8438,50.3596 115.5625,51.3283 Q116.2813,52.2815 117.875,52.2815 Q118.4688,52.2815 119.0938,52.1252 Q119.7188,51.969 120.5469,51.594 L120.5469,53.8127 Q119.8125,54.1252 119.0156,54.2815 Q118.2344,54.4377 117.4688,54.4377 Z " fill="#000000"/><text fill="#000000" font-family="sans-serif" font-size="12" lengthAdjust="spacing" textLength="121" x="132" y="52.1719">ProxyRequestHandler</text><line style="stroke:#A80036;stroke-width:1.5;" x1="104" x2="255" y1="63.5158" y2="63.5158"/><line style="stroke:#A80036;stroke-width:1.5;" x1="104" x2="255" y1="71.5158" y2="71.5158"/><!--MD5=[30e2d8deda946a11189666f8d4da17df]
class ProxyRepo--><rect codeLine="7" fill="#FEFECE" filter="url(#f1xf81gv9rf2rd)" height="48" id="ProxyRepo" style="stroke:#A80036;stroke-width:1.5;" width="91" x="134" y="139.5158"/><ellipse cx="149" cy="155.5158" fill="#ADD1B2" rx="11" ry="11" style="stroke:#A80036;stroke-width:1.0;"/><path d="M148.4688,162.4377 Q146.7188,162.4377 145.5781,161.7033 Q144.4531,160.9533 143.8906,159.6096 Q143.3438,158.2502 143.3438,156.4533 Q143.3438,154.4221 144,152.969 Q144.6563,151.5158 145.9375,150.7346 Q147.2188,149.9533 149.0938,149.9533 Q149.9844,149.9533 150.6563,150.1408 Q151.3281,150.3127 152.0156,150.6565 L151.2031,152.6721 Q150.5781,152.3596 150.0313,152.2346 Q149.5,152.1096 149.0156,152.1096 Q147.8438,152.1096 147.1406,152.6408 Q146.4375,153.1721 146.1406,154.1252 Q145.8438,155.0783 145.8438,156.344 Q145.8438,158.3596 146.5625,159.3283 Q147.2813,160.2815 148.875,160.2815 Q149.4688,160.2815 150.0938,160.1252 Q150.7188,159.969 151.5469,159.594 L151.5469,161.8127 Q150.8125,162.1252 150.0156,162.2815 Q149.2344,162.4377 148.4688,162.4377 Z " fill="#000000"/><text fill="#000000" font-family="sans-serif" font-size="12" lengthAdjust="spacing" textLength="59" x="163" y="160.1719">ProxyRepo</text><line style="stroke:#A80036;stroke-width:1.5;" x1="135" x2="224" y1="171.5158" y2="171.5158"/><line style="stroke:#A80036;stroke-width:1.5;" x1="135" x2="224" y1="179.5158" y2="179.5158"/><!--MD5=[17c80345ce122db1d9d72f6005235627]
class ProxyRepoSources--><rect codeLine="10" fill="#FEFECE" filter="url(#f1xf81gv9rf2rd)" height="48" id="ProxyRepoSources" style="stroke:#A80036;stroke-width:1.5;" width="136" x="60.5" y="299.0158"/><ellipse cx="75.5" cy="315.0158" fill="#ADD1B2" rx="11" ry="11" style="stroke:#A80036;stroke-width:1.0;"/><path d="M74.9688,321.9377 Q73.2188,321.9377 72.0781,321.2033 Q70.9531,320.4533 70.3906,319.1096 Q69.8438,317.7502 69.8438,315.9533 Q69.8438,313.9221 70.5,312.469 Q71.1563,311.0158 72.4375,310.2346 Q73.7188,309.4533 75.5938,309.4533 Q76.4844,309.4533 77.1563,309.6408 Q77.8281,309.8127 78.5156,310.1565 L77.7031,312.1721 Q77.0781,311.8596 76.5313,311.7346 Q76,311.6096 75.5156,311.6096 Q74.3438,311.6096 73.6406,312.1408 Q72.9375,312.6721 72.6406,313.6252 Q72.3438,314.5783 72.3438,315.844 Q72.3438,317.8596 73.0625,318.8283 Q73.7813,319.7815 75.375,319.7815 Q75.9688,319.7815 76.5938,319.6252 Q77.2188,319.469 78.0469,319.094 L78.0469,321.3127 Q77.3125,321.6252 76.5156,321.7815 Q75.7344,321.9377 74.9688,321.9377 Z " fill="#000000"/><text fill="#000000" font-family="sans-serif" font-size="12" lengthAdjust="spacing" textLength="104" x="89.5" y="319.6719">ProxyRepoSources</text><line style="stroke:#A80036;stroke-width:1.5;" x1="61.5" x2="195.5" y1="331.0158" y2="331.0158"/><line style="stroke:#A80036;stroke-width:1.5;" x1="61.5" x2="195.5" y1="339.0158" y2="339.0158"/><!--MD5=[a94ef3b8c8e4fd23532822afff4ed5f3]
class ChangeListener--><rect codeLine="30" fill="#FEFECE" filter="url(#f1xf81gv9rf2rd)" height="48" id="ChangeListener" style="stroke:#A80036;stroke-width:1.5;" width="115" x="7" y="475.5158"/><ellipse cx="22" cy="491.5158" fill="#B4A7E5" rx="11" ry="11" style="stroke:#A80036;stroke-width:1.0;"/><path d="M18.0313,498.0158 L18.0313,496.3127 L20.3906,496.0471 L20.3906,487.844 L18.0313,487.5783 L18.0313,485.8752 L25.1719,485.8752 L25.1719,487.5783 L22.75,487.844 L22.75,496.0471 L25.1719,496.3127 L25.1719,498.0158 L18.0313,498.0158 Z " fill="#000000"/><text fill="#000000" font-family="sans-serif" font-size="12" font-style="italic" lengthAdjust="spacing" textLength="83" x="36" y="496.1719">ChangeListener</text><line style="stroke:#A80036;stroke-width:1.5;" x1="8" x2="121" y1="507.5158" y2="507.5158"/><line style="stroke:#A80036;stroke-width:1.5;" x1="8" x2="121" y1="515.5158" y2="515.5158"/><!--MD5=[74dbc2d11b45a085a2d234dd096bbe12]
link ProxyRequestHandler to ProxyRepo--><path codeLine="33" d="M179.5,79.5158 C179.5,95.5158 179.5,116.9658 179.5,134.0458 " fill="none" id="ProxyRequestHandler-to-ProxyRepo" style="stroke:#A80036;stroke-width:1.0;"/><polygon fill="#A80036" points="179.5,139.1958,183.5,130.1958,179.5,134.1958,175.5,130.1958,179.5,139.1958" style="stroke:#A80036;stroke-width:1.0;"/><!--MD5=[48f5647f8b5ba421b8466003118b8251]
link ProxyRepo to repo--><path codeLine="34" d="M209.26,187.7458 C211.26,190.1958 213.05,192.7958 214.5,195.5158 C217.7838,201.6758 220.5167,208.2352 222.7847,215.0024 C222.9265,215.4254 223.0664,215.8491 223.2046,216.2736 C223.2736,216.4859 223.3423,216.6984 223.4104,216.911 " fill="none" id="ProxyRepo-to-repo" style="stroke:#A80036;stroke-width:1.0;"/><polygon fill="#FFFFFF" points="223.4104,216.911,224.2754,196.681,210.9439,200.9553,223.4104,216.911" style="stroke:#A80036;stroke-width:1.0;"/><!--MD5=[dbd87b12790057922deb2ba961a91844]
link ProxyRepo to ProxyRepoSources--><path codeLine="35" d="M171.97,187.7558 C162.83,215.9858 147.42,263.5758 137.62,293.8658 " fill="none" id="ProxyRepo-to-ProxyRepoSources" style="stroke:#A80036;stroke-width:1.0;"/><polygon fill="#A80036" points="135.97,298.9358,142.5315,291.591,137.4996,294.1756,134.915,289.1437,135.97,298.9358" style="stroke:#A80036;stroke-width:1.0;"/><!--MD5=[cb090d100bb5cf3b1eeca4e4ff5d28fe]
link ProxyRepoSources to source--><path codeLine="36" d="M137,347.1858 C147.18,374.9558 164.45,422.0258 177.02,456.3158 " fill="none" id="ProxyRepoSources-to-source" style="stroke:#A80036;stroke-width:1.0;"/><polygon fill="none" points="183.65,454.0558,183.97,475.2458,170.51,458.8858,183.65,454.0558" style="stroke:#A80036;stroke-width:1.0;"/><!--MD5=[49d74a1de686f523f054ef3a8a8c5fdf]
link ProxyRepoSources to ChangeListener--><path codeLine="37" d="M120,347.1858 C108.33,378.9958 87.38,436.1358 74.82,470.3658 " fill="none" id="ProxyRepoSources-to-ChangeListener" style="stroke:#A80036;stroke-width:1.0;stroke-dasharray:7.0,7.0;"/><polygon fill="#A80036" points="73.03,475.2458,79.8718,468.1614,74.7433,470.5485,72.3561,465.4201,73.03,475.2458" style="stroke:#A80036;stroke-width:1.0;"/><!--MD5=[02de55e5c9fbd5f63dd29803ae5de21e]
@startuml

title Storing Data

class ProxyRequestHandler {
}

class ProxyRepo {
}

class ProxyRepoSources {
}

storage repo {
    folder folder {
        file zip {
        }
        file meta {
        }
    }
}



package Database <<Database>> {
entity source
}



interface ChangeListener {
}

ProxyRequestHandler - -> ProxyRepo
ProxyRepo - -|> repo
ProxyRepo - -> ProxyRepoSources
ProxyRepoSources - -|> source
ProxyRepoSources ..> ChangeListener

@enduml

PlantUML version 1.2021.16(Wed Dec 08 17:25:22 GMT 2021)
(GPL source distribution)
Java Runtime: OpenJDK Runtime Environment
JVM: OpenJDK 64-Bit Server VM
Default Encoding: UTF-8
Language: en
Country: GB
--></g></svg>