<svg xmlns="http://www.w3.org/2000/svg" xmlns:xlink="http://www.w3.org/1999/xlink" version="1.1" data-diagram-type="CLASS" style="width:503px;height:565px;background:#FFFFFF;" width="503px" height="565px" viewBox="0 0 503 565" zoomAndPan="magnify" preserveAspectRatio="none" contentStyleType="text/css"><?plantuml 1.2026.8?><defs/><g font-family="sans-serif" lengthAdjust="spacing"><g class="title" data-source-line="2"><text x="198.397" y="22.995" fill="#000" font-size="14" textLength="100.167" font-weight="700">Storing Data</text></g><!--cluster repo--><g class="cluster" data-qualified-name="repo" id="ent0004" data-source-line="13"><rect x="254.96" y="224.297" width="235" height="170.3" fill="none" style="stroke:#181818;stroke-width:1;" rx="35" ry="35"/><text x="354.44" y="244.292" fill="#000" font-size="14" textLength="36.039" font-weight="700">repo</text></g><!--cluster folder--><g class="cluster" data-qualified-name="repo.folder" id="ent0005" data-source-line="14"><path d="M289.46,275.297 L337.389,275.297 A3.75,3.75 0 0 1 339.889,277.797 L346.889,297.594 L447.46,297.594 A2.5,2.5 0 0 1 449.96,300.094 L449.96,360.097 A2.5,2.5 0 0 1 447.46,362.597 L289.46,362.597 A2.5,2.5 0 0 1 286.96,360.097 L286.96,277.797 A2.5,2.5 0 0 1 289.46,275.297" style="stroke:#000;stroke-width:1.5;" fill="none"/><line x1="286.96" y1="297.594" x2="346.889" y2="297.594" style="stroke:#000;stroke-width:1.5;"/><text x="290.96" y="290.292" fill="#000" font-size="14" textLength="46.929" font-weight="700">folder</text></g><!--cluster Database--><g class="cluster" data-qualified-name="Database" id="ent0008" data-source-line="24"><path d="M167.96,436.597 C167.96,426.597 222.96,426.597 222.96,426.597 C222.96,426.597 277.96,426.597 277.96,436.597 L277.96,530.597 C277.96,540.597 222.96,540.597 222.96,540.597 C222.96,540.597 167.96,540.597 167.96,530.597 L167.96,436.597" style="stroke:#181818;stroke-width:1;" fill="none"/><path d="M167.96,436.597 C167.96,446.597 222.96,446.597 222.96,446.597 C222.96,446.597 277.96,446.597 277.96,436.597" style="stroke:#181818;stroke-width:1;" fill="none"/><text x="185.708" y="461.592" fill="#000" font-size="14" textLength="74.505" font-weight="700">Database</text></g><!--entity zip--><g class="entity" data-qualified-name="repo.folder.zip" id="ent0006" data-source-line="15"><path d="M302.9,312.797 L302.9,344.094 A2.5,2.5 0 0 0 305.4,346.594 L340.525,346.594 A2.5,2.5 0 0 0 343.025,344.094 L343.025,320.297 L333.025,310.297 L305.4,310.297 A2.5,2.5 0 0 0 302.9,312.797" style="stroke:#181818;stroke-width:0.5;" fill="#F1F1F1"/><path d="M333.025,310.297 L333.025,317.797 A2.5,2.5 0 0 0 335.525,320.297 L343.025,320.297" style="stroke:#181818;stroke-width:0.5;" fill="#F1F1F1"/><text x="312.9" y="333.292" fill="#000" font-size="14" textLength="20.125">zip</text></g><!--entity meta--><g class="entity" data-qualified-name="repo.folder.meta" id="ent0007" data-source-line="17"><path d="M377.8,312.797 L377.8,344.094 A2.5,2.5 0 0 0 380.3,346.594 L431.619,346.594 A2.5,2.5 0 0 0 434.119,344.094 L434.119,320.297 L424.119,310.297 L380.3,310.297 A2.5,2.5 0 0 0 377.8,312.797" style="stroke:#181818;stroke-width:0.5;" fill="#F1F1F1"/><path d="M424.119,310.297 L424.119,317.797 A2.5,2.5 0 0 0 426.619,320.297 L434.119,320.297" style="stroke:#181818;stroke-width:0.5;" fill="#F1F1F1"/><text x="387.8" y="333.292" fill="#000" font-size="14" textLength="36.319">meta</text></g><!--class source--><g class="entity" data-qualified-name="Database.source" id="ent0009" data-source-line="25"><rect x="183.56" y="476.597" width="78.799" height="48" fill="#F1F1F1" style="stroke:#181818;stroke-width:0.5;" rx="2.5" ry="2.5"/><ellipse cx="198.56" cy="492.597" rx="11" ry="11" fill="#ADD1B2" style="stroke:#181818;stroke-width:1;"/><path d="M202.669,498.597 L194.951,498.597 L194.951,486.206 L202.669,486.206 L202.669,488.362 L197.404,488.362 L197.404,491.034 L202.169,491.034 L202.169,493.191 L197.404,493.191 L197.404,496.441 L202.669,496.441 L202.669,498.597 Z " fill="#000"/><text x="212.56" y="497.444" fill="#000" font-size="14" textLength="46.799">source</text><line x1="184.56" y1="508.597" x2="261.359" y2="508.597" style="stroke:#181818;stroke-width:0.5;"/><line x1="184.56" y1="516.597" x2="261.359" y2="516.597" style="stroke:#181818;stroke-width:0.5;"/></g><!--class ProxyRequestHandler--><g class="entity" data-qualified-name="ProxyRequestHandler" id="ent0001" data-source-line="4"><rect x="223.99" y="44.297" width="183.956" height="48" fill="#F1F1F1" style="stroke:#181818;stroke-width:0.5;" rx="2.5" ry="2.5"/><ellipse cx="238.99" cy="60.297" rx="11" ry="11" fill="#ADD1B2" style="stroke:#181818;stroke-width:1;"/><path d="M241.959,65.938 Q241.381,66.234 240.74,66.375 Q240.099,66.531 239.396,66.531 Q236.896,66.531 235.568,64.891 Q234.256,63.234 234.256,60.109 Q234.256,56.984 235.568,55.328 Q236.896,53.672 239.396,53.672 Q240.099,53.672 240.74,53.828 Q241.396,53.984 241.959,54.281 L241.959,57 Q241.334,56.422 240.74,56.156 Q240.146,55.875 239.521,55.875 Q238.178,55.875 237.49,56.953 Q236.803,58.016 236.803,60.109 Q236.803,62.203 237.49,63.281 Q238.178,64.344 239.521,64.344 Q240.146,64.344 240.74,64.078 Q241.334,63.797 241.959,63.219 L241.959,65.938 Z " fill="#000"/><text x="252.99" y="65.144" fill="#000" font-size="14" textLength="151.956">ProxyRequestHandler</text><line x1="224.99" y1="76.297" x2="406.946" y2="76.297" style="stroke:#181818;stroke-width:0.5;"/><line x1="224.99" y1="84.297" x2="406.946" y2="84.297" style="stroke:#181818;stroke-width:0.5;"/></g><!--class ProxyRepo--><g class="entity" data-qualified-name="ProxyRepo" id="ent0002" data-source-line="7"><rect x="262.4" y="152.297" width="107.127" height="48" fill="#F1F1F1" style="stroke:#181818;stroke-width:0.5;" rx="2.5" ry="2.5"/><ellipse cx="277.4" cy="168.297" rx="11" ry="11" fill="#ADD1B2" style="stroke:#181818;stroke-width:1;"/><path d="M280.369,173.937 Q279.791,174.234 279.15,174.375 Q278.509,174.531 277.806,174.531 Q275.306,174.531 273.978,172.891 Q272.666,171.234 272.666,168.109 Q272.666,164.984 273.978,163.328 Q275.306,161.672 277.806,161.672 Q278.509,161.672 279.15,161.828 Q279.806,161.984 280.369,162.281 L280.369,165 Q279.744,164.422 279.15,164.156 Q278.556,163.875 277.931,163.875 Q276.588,163.875 275.9,164.953 Q275.213,166.016 275.213,168.109 Q275.213,170.203 275.9,171.281 Q276.588,172.344 277.931,172.344 Q278.556,172.344 279.15,172.078 Q279.744,171.797 280.369,171.219 L280.369,173.937 Z " fill="#000"/><text x="291.4" y="173.144" fill="#000" font-size="14" textLength="75.127">ProxyRepo</text><line x1="263.4" y1="184.297" x2="368.527" y2="184.297" style="stroke:#181818;stroke-width:0.5;"/><line x1="263.4" y1="192.297" x2="368.527" y2="192.297" style="stroke:#181818;stroke-width:0.5;"/></g><!--class ProxyRepoSources--><g class="entity" data-qualified-name="ProxyRepoSources" id="ent0003" data-source-line="10"><rect x="68.56" y="304.447" width="162.813" height="48" fill="#F1F1F1" style="stroke:#181818;stroke-width:0.5;" rx="2.5" ry="2.5"/><ellipse cx="83.56" cy="320.447" rx="11" ry="11" fill="#ADD1B2" style="stroke:#181818;stroke-width:1;"/><path d="M86.529,326.088 Q85.951,326.384 85.31,326.525 Q84.669,326.681 83.966,326.681 Q81.466,326.681 80.138,325.041 Q78.826,323.384 78.826,320.259 Q78.826,317.134 80.138,315.478 Q81.466,313.822 83.966,313.822 Q84.669,313.822 85.31,313.978 Q85.966,314.134 86.529,314.431 L86.529,317.15 Q85.904,316.572 85.31,316.306 Q84.716,316.025 84.091,316.025 Q82.748,316.025 82.06,317.103 Q81.373,318.166 81.373,320.259 Q81.373,322.353 82.06,323.431 Q82.748,324.494 84.091,324.494 Q84.716,324.494 85.31,324.228 Q85.904,323.947 86.529,323.369 L86.529,326.088 Z " fill="#000"/><text x="97.56" y="325.294" fill="#000" font-size="14" textLength="130.813">ProxyRepoSources</text><line x1="69.56" y1="336.447" x2="230.373" y2="336.447" style="stroke:#181818;stroke-width:0.5;"/><line x1="69.56" y1="344.447" x2="230.373" y2="344.447" style="stroke:#181818;stroke-width:0.5;"/></g><!--class ChangeListener--><g class="entity" data-qualified-name="ChangeListener" id="ent0010" data-source-line="30"><rect x="7" y="476.597" width="141.929" height="48" fill="#F1F1F1" style="stroke:#181818;stroke-width:0.5;" rx="2.5" ry="2.5"/><ellipse cx="22" cy="492.597" rx="11" ry="11" fill="#B4A7E5" style="stroke:#181818;stroke-width:1;"/><path d="M17.922,488.362 L17.922,486.206 L25.313,486.206 L25.313,488.362 L22.844,488.362 L22.844,496.441 L25.313,496.441 L25.313,498.597 L17.922,498.597 L17.922,496.441 L20.391,496.441 L20.391,488.362 L17.922,488.362 Z " fill="#000"/><text x="36" y="497.444" fill="#000" font-size="14" textLength="109.929" font-style="italic">ChangeListener</text><line x1="8" y1="508.597" x2="147.929" y2="508.597" style="stroke:#181818;stroke-width:0.5;"/><line x1="8" y1="516.597" x2="147.929" y2="516.597" style="stroke:#181818;stroke-width:0.5;"/></g><!--link ProxyRequestHandler to ProxyRepo--><g class="link" data-entity-1="ent0001" data-entity-2="ent0002" id="lnk11" data-source-line="33" data-link-type="dependency"><path d="M315.96,92.567 C315.96,110.237 315.96,129.437 315.96,147.097" style="stroke:#181818;stroke-width:1;" fill="none" id="ProxyRequestHandler-to-ProxyRepo" codeLine="33"/><polygon points="315.96,152.097,319.96,143.097,315.96,147.097,311.96,143.097,315.96,152.097" fill="#181818" style="stroke:#181818;stroke-width:1;stroke-linejoin:miter;stroke-miterlimit:10;"/></g><!--link ProxyRepo to repo--><g class="link" data-entity-1="ent0002" data-entity-2="ent0004" id="lnk12" data-source-line="34" data-link-type="extension"><path d="M369.7,184.027 C401.74,189.097 438.37,197.107 449.96,208.297 C454.814,212.983 449.538,202.982 453.073,208.738" style="stroke:#181818;stroke-width:1;" fill="none" id="ProxyRepo-to-repo" codeLine="34"/><polygon points="462.493,224.077,458.186,205.598,447.96,211.878,462.493,224.077" fill="none" style="stroke:#181818;stroke-width:1;stroke-linejoin:miter;stroke-miterlimit:10;"/></g><!--link ProxyRepo to ProxyRepoSources--><g class="link" data-entity-1="ent0002" data-entity-2="ent0003" id="lnk13" data-source-line="35" data-link-type="dependency"><path d="M290.03,200.757 C258.84,228.967 210.528,272.662 179.428,300.802" style="stroke:#181818;stroke-width:1;" fill="none" id="ProxyRepo-to-ProxyRepoSources" codeLine="35"/><polygon points="175.72,304.157,185.077,301.084,179.428,300.802,179.71,295.152,175.72,304.157" fill="#181818" style="stroke:#181818;stroke-width:1;stroke-linejoin:miter;stroke-miterlimit:10;"/></g><!--link ProxyRepoSources to source--><g class="link" data-entity-1="ent0003" data-entity-2="ent0009" id="lnk14" data-source-line="36" data-link-type="extension"><path d="M159.96,352.747 C173.9,385.247 191.933,427.275 205.873,459.765" style="stroke:#181818;stroke-width:1;" fill="none" id="ProxyRepoSources-to-source" codeLine="36"/><polygon points="212.97,476.307,211.387,457.399,200.359,462.131,212.97,476.307" fill="none" style="stroke:#181818;stroke-width:1;stroke-linejoin:miter;stroke-miterlimit:10;"/></g><!--link ProxyRepoSources to ChangeListener--><g class="link" data-entity-1="ent0003" data-entity-2="ent0010" id="lnk15" data-source-line="37" data-link-type="dependency"><path d="M140.1,352.747 C126.35,385.247 103.519,439.212 89.769,471.702" style="stroke:#181818;stroke-width:1;stroke-dasharray:7,7;" fill="none" id="ProxyRepoSources-to-ChangeListener" codeLine="37"/><polygon points="87.82,476.307,95.011,469.578,89.769,471.702,87.644,466.46,87.82,476.307" fill="#181818" style="stroke:#181818;stroke-width:1;stroke-linejoin:miter;stroke-miterlimit:10;"/></g><?plantuml-src RL194e8m4Bpd5VC1U06LYnuyUB3q1MCOC2Kcc0nLel9tmrR8aajItUcPxcRD1S65hTCcXpqo2g4Az1vEphxgCpqhydn0anRau2EQ1LtQJV1YAwV8zvmFqp4dSFrl22UpHHhc3LUFTRWERjww_8EQEVaWnXNRj6k4A57TsqLjZ2jwWYGPdr864HdMN8FlpFKIRPXSXefWTqEJqr5x9ZD6tUeWYkIKKqmrHD5NTX5dc5nr8bObTSh1r8gCOxcm9du0?></g></svg>