<?xml version="1.0" encoding="UTF-8" standalone="no"?><svg xmlns="http://www.w3.org/2000/svg" xmlns:xlink="http://www.w3.org/1999/xlink" contentScriptType="application/ecmascript" contentStyleType="text/css" height="530px" preserveAspectRatio="none" style="width:467px;height:530px;" version="1.1" viewBox="0 0 467 530" width="467px" zoomAndPan="magnify"><defs><filter height="300%" id="f1xf81gv9rf2rd" width="300%" x="-1" y="-1"><feGaussianBlur result="blurOut" stdDeviation="2.0"/><feColorMatrix in="blurOut" result="blurOut2" type="matrix" values="0 0 0 0 0 0 0 0 0 0 0 0 0 0 0 0 0 0 .4 0"/><feOffset dx="4.0" dy="4.0" in="blurOut2" result="blurOut3"/><feBlend in="SourceGraphic" in2="blurOut3" mode="normal"/></filter></defs><g><text fill="#000000" font-family="sans-serif" font-size="18" lengthAdjust="spacing" textLength="101" x="176.75" y="16.708">Storing Data</text><!--MD5=[334049d3a1ffeab5811ce8957a01f1ef]
cluster repo--><rect fill="#FFFFFF" filter="url(#f1xf81gv9rf2rd)" height="170" rx="35" ry="35" style="stroke:#000000;stroke-width:1.5;" width="232" x="223.5" y="207.9531"/><text fill="#000000" font-family="sans-serif" font-size="14" font-weight="bold" lengthAdjust="spacing" textLength="32" x="323.5" y="227.9482">repo</text><!--MD5=[5dfe1150c87218a9f0b25c58295c84f7]
cluster folder--><polygon fill="#FFFFFF" filter="url(#f1xf81gv9rf2rd)" points="263.5,258.9531,310.5,258.9531,317.5,281.25,423.5,281.25,423.5,345.9531,263.5,345.9531,263.5,258.9531" style="stroke:#000000;stroke-width:1.5;"/><line style="stroke:#000000;stroke-width:1.5;" x1="263.5" x2="317.5" y1="281.25" y2="281.25"/><text fill="#000000" font-family="sans-serif" font-size="14" font-weight="bold" lengthAdjust="spacing" textLength="41" x="267.5" y="273.9482">folder</text><!--MD5=[815249f79c2c08157ac02b3106e03757]
cluster Database--><path d="M142.5,419.9531 C142.5,409.9531 193.5,409.9531 193.5,409.9531 C193.5,409.9531 244.5,409.9531 244.5,419.9531 L244.5,513.9531 C244.5,523.9531 193.5,523.9531 193.5,523.9531 C193.5,523.9531 142.5,523.9531 142.5,513.9531 L142.5,419.9531 " fill="#FFFFFF" filter="url(#f1xf81gv9rf2rd)" style="stroke:#000000;stroke-width:1.5;"/><path d="M142.5,419.9531 C142.5,429.9531 193.5,429.9531 193.5,429.9531 C193.5,429.9531 244.5,429.9531 244.5,419.9531 " fill="none" style="stroke:#000000;stroke-width:1.5;"/><text fill="#000000" font-family="sans-serif" font-size="14" font-weight="bold" lengthAdjust="spacing" textLength="65" x="161" y="444.9482">Database</text><!--MD5=[bf3ce7a256daaaf5dbab58753aeb22ee]
entity zip--><polygon fill="#FFFFFF" filter="url(#f1xf81gv9rf2rd)" points="368,293.9531,368,330.25,407,330.25,407,303.9531,397,293.9531,368,293.9531" style="stroke:#000000;stroke-width:1.5;"/><path d="M397,293.9531 L397,303.9531 L407,303.9531 " fill="#FFFFFF" style="stroke:#000000;stroke-width:1.5;"/><text fill="#000000" font-family="sans-serif" font-size="14" lengthAdjust="spacing" textLength="19" x="378" y="316.9482">zip</text><!--MD5=[c12a1600b6b75d8e137ee7341d68ba4c]
entity meta--><polygon fill="#FFFFFF" filter="url(#f1xf81gv9rf2rd)" points="280,293.9531,280,330.25,333,330.25,333,303.9531,323,293.9531,280,293.9531" style="stroke:#000000;stroke-width:1.5;"/><path d="M323,293.9531 L323,303.9531 L333,303.9531 " fill="#FFFFFF" style="stroke:#000000;stroke-width:1.5;"/><text fill="#000000" font-family="sans-serif" font-size="14" lengthAdjust="spacing" textLength="33" x="290" y="316.9482">meta</text><!--MD5=[fb94403e3d3521d383fd6507b67b3642]
class source--><rect codeLine="25" fill="#FEFECE" filter="url(#f1xf81gv9rf2rd)" height="48" id="source" style="stroke:#A80036;stroke-width:1.5;" width="69" x="159" y="459.9531"/><ellipse cx="174" cy="475.9531" fill="#ADD1B2" rx="11" ry="11" style="stroke:#A80036;stroke-width:1.0;"/><path d="M177.0156,481.9531 L170.0313,481.9531 L170.0313,469.8125 L177.0156,469.8125 L177.0156,471.9219 L172.5938,471.9219 L172.5938,474.5938 L176.7031,474.5938 L176.7031,476.7031 L172.5938,476.7031 L172.5938,479.8281 L177.0156,479.8281 L177.0156,481.9531 Z " fill="#000000"/><text fill="#000000" font-family="sans-serif" font-size="12" lengthAdjust="spacing" textLength="37" x="188" y="480.1074">source</text><line style="stroke:#A80036;stroke-width:1.5;" x1="160" x2="227" y1="491.9531" y2="491.9531"/><line style="stroke:#A80036;stroke-width:1.5;" x1="160" x2="227" y1="499.9531" y2="499.9531"/><!--MD5=[43461efb75070d5b99f20b1925d828b0]
class ProxyRequestHandler--><rect codeLine="4" fill="#FEFECE" filter="url(#f1xf81gv9rf2rd)" height="48" id="ProxyRequestHandler" style="stroke:#A80036;stroke-width:1.5;" width="149" x="106" y="27.9531"/><ellipse cx="121" cy="43.9531" fill="#ADD1B2" rx="11" ry="11" style="stroke:#A80036;stroke-width:1.0;"/><path d="M120.9375,39.7813 Q120.1875,39.7813 119.625,40.0781 Q119.0625,40.3594 118.6719,40.8906 Q118.2813,41.4219 118.0781,42.2031 Q117.8906,42.9688 117.8906,43.9219 Q117.8906,44.8906 118.0625,45.6563 Q118.25,46.4063 118.6094,46.9219 Q118.9844,47.4375 119.5625,47.7188 Q120.1406,47.9844 120.9375,47.9844 Q121.6719,47.9844 122.4063,47.8125 Q123.1563,47.6406 124.0313,47.3438 L124.0313,49.5 Q123.625,49.6563 123.2344,49.7813 Q122.8438,49.8906 122.4375,49.9688 Q122.0313,50.0469 121.6094,50.0781 Q121.1875,50.125 120.6875,50.125 Q119.2813,50.125 118.25,49.6719 Q117.2344,49.2188 116.5625,48.4063 Q115.8906,47.5938 115.5625,46.4531 Q115.2344,45.2969 115.2344,43.9063 Q115.2344,42.5313 115.6094,41.375 Q115.9844,40.2188 116.7031,39.3906 Q117.4219,38.5625 118.4844,38.1094 Q119.5469,37.6406 120.9375,37.6406 Q121.8438,37.6406 122.75,37.875 Q123.6563,38.0938 124.4844,38.5 L123.6563,40.5938 Q122.9688,40.2656 122.2813,40.0313 Q121.5938,39.7813 120.9375,39.7813 Z " fill="#000000"/><text fill="#000000" font-family="sans-serif" font-size="12" lengthAdjust="spacing" textLength="117" x="135" y="48.1074">ProxyRequestHandler</text><line style="stroke:#A80036;stroke-width:1.5;" x1="107" x2="254" y1="59.9531" y2="59.9531"/><line style="stroke:#A80036;stroke-width:1.5;" x1="107" x2="254" y1="67.9531" y2="67.9531"/><!--MD5=[30e2d8deda946a11189666f8d4da17df]
class ProxyRepo--><rect codeLine="7" fill="#FEFECE" filter="url(#f1xf81gv9rf2rd)" height="48" id="ProxyRepo" style="stroke:#A80036;stroke-width:1.5;" width="89" x="136" y="135.9531"/><ellipse cx="151" cy="151.9531" fill="#ADD1B2" rx="11" ry="11" style="stroke:#A80036;stroke-width:1.0;"/><path d="M150.9375,147.7813 Q150.1875,147.7813 149.625,148.0781 Q149.0625,148.3594 148.6719,148.8906 Q148.2813,149.4219 148.0781,150.2031 Q147.8906,150.9688 147.8906,151.9219 Q147.8906,152.8906 148.0625,153.6563 Q148.25,154.4063 148.6094,154.9219 Q148.9844,155.4375 149.5625,155.7188 Q150.1406,155.9844 150.9375,155.9844 Q151.6719,155.9844 152.4063,155.8125 Q153.1563,155.6406 154.0313,155.3438 L154.0313,157.5 Q153.625,157.6563 153.2344,157.7813 Q152.8438,157.8906 152.4375,157.9688 Q152.0313,158.0469 151.6094,158.0781 Q151.1875,158.125 150.6875,158.125 Q149.2813,158.125 148.25,157.6719 Q147.2344,157.2188 146.5625,156.4063 Q145.8906,155.5938 145.5625,154.4531 Q145.2344,153.2969 145.2344,151.9063 Q145.2344,150.5313 145.6094,149.375 Q145.9844,148.2188 146.7031,147.3906 Q147.4219,146.5625 148.4844,146.1094 Q149.5469,145.6406 150.9375,145.6406 Q151.8438,145.6406 152.75,145.875 Q153.6563,146.0938 154.4844,146.5 L153.6563,148.5938 Q152.9688,148.2656 152.2813,148.0313 Q151.5938,147.7813 150.9375,147.7813 Z " fill="#000000"/><text fill="#000000" font-family="sans-serif" font-size="12" lengthAdjust="spacing" textLength="57" x="165" y="156.1074">ProxyRepo</text><line style="stroke:#A80036;stroke-width:1.5;" x1="137" x2="224" y1="167.9531" y2="167.9531"/><line style="stroke:#A80036;stroke-width:1.5;" x1="137" x2="224" y1="175.9531" y2="175.9531"/><!--MD5=[17c80345ce122db1d9d72f6005235627]
class ProxyRepoSources--><rect codeLine="10" fill="#FEFECE" filter="url(#f1xf81gv9rf2rd)" height="48" id="ProxyRepoSources" style="stroke:#A80036;stroke-width:1.5;" width="133" x="63" y="287.9531"/><ellipse cx="78" cy="303.9531" fill="#ADD1B2" rx="11" ry="11" style="stroke:#A80036;stroke-width:1.0;"/><path d="M77.9375,299.7813 Q77.1875,299.7813 76.625,300.0781 Q76.0625,300.3594 75.6719,300.8906 Q75.2813,301.4219 75.0781,302.2031 Q74.8906,302.9688 74.8906,303.9219 Q74.8906,304.8906 75.0625,305.6563 Q75.25,306.4063 75.6094,306.9219 Q75.9844,307.4375 76.5625,307.7188 Q77.1406,307.9844 77.9375,307.9844 Q78.6719,307.9844 79.4063,307.8125 Q80.1563,307.6406 81.0313,307.3438 L81.0313,309.5 Q80.625,309.6563 80.2344,309.7813 Q79.8438,309.8906 79.4375,309.9688 Q79.0313,310.0469 78.6094,310.0781 Q78.1875,310.125 77.6875,310.125 Q76.2813,310.125 75.25,309.6719 Q74.2344,309.2188 73.5625,308.4063 Q72.8906,307.5938 72.5625,306.4531 Q72.2344,305.2969 72.2344,303.9063 Q72.2344,302.5313 72.6094,301.375 Q72.9844,300.2188 73.7031,299.3906 Q74.4219,298.5625 75.4844,298.1094 Q76.5469,297.6406 77.9375,297.6406 Q78.8438,297.6406 79.75,297.875 Q80.6563,298.0938 81.4844,298.5 L80.6563,300.5938 Q79.9688,300.2656 79.2813,300.0313 Q78.5938,299.7813 77.9375,299.7813 Z " fill="#000000"/><text fill="#000000" font-family="sans-serif" font-size="12" lengthAdjust="spacing" textLength="101" x="92" y="308.1074">ProxyRepoSources</text><line style="stroke:#A80036;stroke-width:1.5;" x1="64" x2="195" y1="319.9531" y2="319.9531"/><line style="stroke:#A80036;stroke-width:1.5;" x1="64" x2="195" y1="327.9531" y2="327.9531"/><!--MD5=[a94ef3b8c8e4fd23532822afff4ed5f3]
class ChangeListener--><rect codeLine="30" fill="#FEFECE" filter="url(#f1xf81gv9rf2rd)" height="48" id="ChangeListener" style="stroke:#A80036;stroke-width:1.5;" width="117" x="7" y="459.9531"/><ellipse cx="22" cy="475.9531" fill="#B4A7E5" rx="11" ry="11" style="stroke:#A80036;stroke-width:1.0;"/><path d="M24.5625,481.9531 L19.0469,481.9531 L19.0469,480.4844 L20.5313,479.8125 L20.5313,471.9531 L19.0469,471.2813 L19.0469,469.8125 L24.5625,469.8125 L24.5625,471.2813 L23.0938,471.9531 L23.0938,479.8125 L24.5625,480.4844 L24.5625,481.9531 Z " fill="#000000"/><text fill="#000000" font-family="sans-serif" font-size="12" font-style="italic" lengthAdjust="spacing" textLength="85" x="36" y="480.1074">ChangeListener</text><line style="stroke:#A80036;stroke-width:1.5;" x1="8" x2="123" y1="491.9531" y2="491.9531"/><line style="stroke:#A80036;stroke-width:1.5;" x1="8" x2="123" y1="499.9531" y2="499.9531"/><!--MD5=[74dbc2d11b45a085a2d234dd096bbe12]
link ProxyRequestHandler to ProxyRepo--><path codeLine="33" d="M180.5,75.9531 C180.5,91.9531 180.5,113.4031 180.5,130.4831 " fill="none" id="ProxyRequestHandler-to-ProxyRepo" style="stroke:#A80036;stroke-width:1.0;"/><polygon fill="#A80036" points="180.5,135.6331,184.5,126.6331,180.5,130.6331,176.5,126.6331,180.5,135.6331" style="stroke:#A80036;stroke-width:1.0;"/><!--MD5=[48f5647f8b5ba421b8466003118b8251]
link ProxyRepo to repo--><path codeLine="34" d="M208.21,183.9731 C210.23,186.5031 212.04,189.1731 213.5,191.9531 C216.5588,197.7806 219.1373,203.9758 221.3076,210.3599 C221.8502,211.9559 222.3672,213.5637 222.8599,215.1806 C222.983,215.5848 223.1047,215.9896 223.2248,216.3949 C223.2849,216.5975 223.3446,216.8003 223.4039,217.0032 " fill="none" id="ProxyRepo-to-repo" style="stroke:#A80036;stroke-width:1.0;"/><polygon fill="#FFFFFF" points="223.4039,217.0032,224.7916,196.8024,211.354,200.7305,223.4039,217.0032" style="stroke:#A80036;stroke-width:1.0;"/><!--MD5=[dbd87b12790057922deb2ba961a91844]
link ProxyRepo to ProxyRepoSources--><path codeLine="35" d="M172.64,184.0631 C163.61,210.6331 148.78,254.2431 139.08,282.7731 " fill="none" id="ProxyRepo-to-ProxyRepoSources" style="stroke:#A80036;stroke-width:1.0;"/><polygon fill="#A80036" points="137.45,287.5731,144.1366,280.3419,139.061,282.8398,136.5632,277.7643,137.45,287.5731" style="stroke:#A80036;stroke-width:1.0;"/><!--MD5=[cb090d100bb5cf3b1eeca4e4ff5d28fe]
link ProxyRepoSources to source--><path codeLine="36" d="M138.26,336.2331 C148.41,363.1931 165.33,408.1231 177.77,441.1731 " fill="none" id="ProxyRepoSources-to-source" style="stroke:#A80036;stroke-width:1.0;"/><polygon fill="none" points="184.35,438.7731,184.84,459.9531,171.24,443.7031,184.35,438.7731" style="stroke:#A80036;stroke-width:1.0;"/><!--MD5=[49d74a1de686f523f054ef3a8a8c5fdf]
link ProxyRepoSources to ChangeListener--><path codeLine="37" d="M120.74,336.2331 C109.05,367.2631 88.41,422.1031 75.94,455.2231 " fill="none" id="ProxyRepoSources-to-ChangeListener" style="stroke:#A80036;stroke-width:1.0;stroke-dasharray:7.0,7.0;"/><polygon fill="#A80036" points="74.16,459.9531,81.0842,452.9491,75.9281,455.2762,73.601,450.1201,74.16,459.9531" style="stroke:#A80036;stroke-width:1.0;"/><!--MD5=[b43f56f5d5d84812a0d6dc787f391441]
@startuml

title Storing Data

class ProxyRequestHandler {
}

class ProxyRepo {
}

class ProxyRepoSources {
}

storage repo {
    folder folder {
        file zip {
        }
        file meta {
        }
    }
}



package Database <<Database>> {
entity source
}



interface ChangeListener {
}

ProxyRequestHandler - -> ProxyRepo
ProxyRepo - -|> repo
ProxyRepo - -> ProxyRepoSources
ProxyRepoSources - -|> source
ProxyRepoSources ..> ChangeListener

@enduml

PlantUML version 1.2021.5(Sun Apr 25 11:20:28 GMT 2021)
(GPL source distribution)
Java Runtime: OpenJDK Runtime Environment
JVM: OpenJDK 64-Bit Server VM
Default Encoding: UTF-8
Language: en
Country: GB
--></g></svg>