<!--
  - Copyright 2016-2025 Crown Copyright
  -
  - Licensed under the Apache License, Version 2.0 (the "License");
  - you may not use this file except in compliance with the License.
  - You may obtain a copy of the License at
  -
  -     http://www.apache.org/licenses/LICENSE-2.0
  -
  - Unless required by applicable law or agreed to in writing, software
  - distributed under the License is distributed on an "AS IS" BASIS,
  - WITHOUT WARRANTIES OR CONDITIONS OF ANY KIND, either express or implied.
  - See the License for the specific language governing permissions and
  - limitations under the License.
  -->

<svg width="1792" height="1792" viewBox="0 0 1792 1792" xmlns="http://www.w3.org/2000/svg"><path style="fill:var(--icon-colour__blue)" d="M1696 384q40 0 68 28t28 68v1216q0 40-28 68t-68 28h-960q-40 0-68-28t-28-68v-288h-544q-40 0-68-28t-28-68v-672q0-40 20-88t48-76l408-408q28-28 76-48t88-20h416q40 0 68 28t28 68v328q68-40 128-40h416zm-544 213l-299 299h299v-299zm-640-384l-299 299h299v-299zm196 647l316-316v-416h-384v416q0 40-28 68t-68 28h-416v640h512v-256q0-40 20-88t48-76zm956 804v-1152h-384v416q0 40-28 68t-68 28h-416v640h896z"/></svg>
