<!--
  - Copyright 2016-2025 Crown Copyright
  -
  - Licensed under the Apache License, Version 2.0 (the "License");
  - you may not use this file except in compliance with the License.
  - You may obtain a copy of the License at
  -
  -     http://www.apache.org/licenses/LICENSE-2.0
  -
  - Unless required by applicable law or agreed to in writing, software
  - distributed under the License is distributed on an "AS IS" BASIS,
  - WITHOUT WARRANTIES OR CONDITIONS OF ANY KIND, either express or implied.
  - See the License for the specific language governing permissions and
  - limitations under the License.
  -->

<svg width="1792" height="1792" viewBox="0 0 1792 1792" xmlns="http://www.w3.org/2000/svg"><path style="fill:var(--icon-colour__blue)" d="m 0.2734375,320.94922 v 256 H 640 c 32,0 61,5 87,15 26,10 49,25 69,45 20,20 37,40.5 51,61.5 3.15347,4.73021 6.36419,9.74223 9.61914,14.96289 -0.19474,0.20244 -0.37693,0.3845 -0.57226,0.58789 10.19215,18.25463 20.17358,35.10433 29.94921,50.58203 1.98554,3.71287 3.98658,7.50064 6.00391,11.36719 0.59864,0.21967 1.11853,0.41386 1.71484,0.63281 8.95551,13.65994 17.73413,26.14203 26.33204,37.41797 19.77848,25.93902 43.66979,52.82684 71.64843,80.6582 -27.97864,27.83136 -51.86994,54.71919 -71.64843,80.65821 -20.33335,26.66679 -41.66667,59.99999 -64,99.99999 -1.54141,3.7638 -3.00771,7.477 -4.41407,11.1484 -1.55452,2.4115 -3.1022,4.7901 -4.63281,7.086 -14,21 -31,41.5 -51,61.5 -20,20 -43,35 -69,45 -26,10 -55,15 -87,15 H 1.1054688 v 256 H 640 c 45.3333,0 88,-5.5 128,-16.5 40,-11 75.5,-25 106.5,-42 31,-17 61,-39.8333 90,-68.5 29,-28.6667 53.6667,-56.3333 74,-83 20.3333,-26.6667 41.6667,-60 64,-100 4.8533,-8.6925 9.4622,-17.1039 13.9062,-25.3242 13.0207,-18.53 28.3977,-36.6672 46.1407,-54.4102 20,-20 43,-35 69,-45 17.1467,-6.5948 35.607,-11.0005 55.3633,-13.2461 10.3989,0.6123 20.9408,0.9297 31.6367,0.9297 h 89.0586 v 192 c 0,8.6666 3.1667,16.1666 9.5,22.5 6.3333,6.3333 13.8333,9.5 22.5,9.5 9.3333,0 17,-3 23,-9 l 320,-320 c 6,-6 9,-13.6667 9,-23 0,-9.3334 -3,-17 -9,-23 l -319,-319 c -8,-6.6667 -16,-10 -24,-10 -9.3333,0 -17,3 -23,9 -6,6 -9,13.6666 -9,23 v 189.31641 h -89.0586 c -10.6959,0 -21.2378,0.31735 -31.6367,0.92968 -19.7563,-2.24563 -38.2166,-6.65119 -55.3633,-13.24609 -26,-10 -49,-25 -69,-45 -20,-20 -37,-40.5 -51,-61.5 -0.948,-1.42195 -1.912,-2.9224 -2.8692,-4.38867 -2.033,-3.69049 -4.0673,-7.38232 -6.1777,-11.16211 -10.1922,-18.25463 -20.1736,-35.10433 -29.9492,-50.58203 -1.9855,-3.71288 -3.9866,-7.50064 -6.0039,-11.36719 -0.305,0.21233 -0.5911,0.40089 -0.8946,0.61133 -9.2405,-14.15268 -18.2915,-27.04143 -27.1523,-38.66211 -20.3333,-26.66667 -45,-54.33333 -74,-83 -29,-28.66667 -59,-51.5 -90,-68.5 -31,-17 -66.5,-31 -106.5,-42 -40,-11 -82.6667,-16.5 -128,-16.5 z"/></svg>
