<?xml version="1.0" encoding="UTF-8" standalone="no"?>
<!--!Font Awesome Free 6.7.2 by @fontawesome - https://fontawesome.com License - https://fontawesome.com/license/free Copyright 2025 Fonticons, Inc.-->
<svg xmlns="http://www.w3.org/2000/svg" viewBox="0 0 512 512">
    <path style="fill:#2196f3"
          d="m 302.83409,210.6713 c 0,-14.55202 7.69416,-27.76592 16.64281,-39.30718 10.53767,-13.63206 16.81009,-30.69304 16.81009,-49.17578 0,-44.325112 -35.96188,-80.286995 -80.287,-80.286995 -44.32511,0 -80.28699,35.961883 -80.28699,80.286995 0,18.48274 6.27242,35.54372 16.81009,49.17578 8.94865,11.54126 16.64282,24.75516 16.64282,39.30718 0,25.00605 -20.32264,45.32869 -45.3287,45.32869 h -28.2677 c -51.768389,0 -93.668165,41.89978 -93.668165,93.66818 0,17.47914 11.206726,32.36569 26.762332,37.88541 v 42.40157 c 0,22.16256 17.980942,40.1435 40.143503,40.1435 h 294.38564 c 22.16256,0 40.1435,-17.98093 40.1435,-40.1435 v -42.40157 c 15.55561,-5.51972 26.76233,-20.40627 26.76233,-37.88541 C 470.09865,297.89977 428.19887,256 376.43049,256 h -28.26772 c -25.00605,0 -45.32868,-20.32265 -45.32868,-45.3287 z m 86.97757,179.14035 v 26.76234 H 122.18834 v -26.76234 z"/>
</svg>
