<?xml version="1.0" encoding="UTF-8" standalone="no"?>
<svg xmlns="http://www.w3.org/2000/svg"
     width="1792"
     height="1792"
     viewBox="0 0 1792 1792">
  <!--! Font Awesome Free 6.4.2 by @fontawesome - https://fontawesome.com License - https://fontawesome.com/license (Commercial License) Copyright 2023 Fonticons, Inc. -->
  <path
     style="fill:#2196f3"
     d="m 311.60754,227.97375 c -92.11457,0 -167.00657,74.892 -167.00657,167.00656 V 1397.0197 c 0,92.1146 74.892,167.0065 167.00657,167.0065 h 668.02617 c 92.11459,0 167.00659,-74.8919 167.00659,-167.0065 v -50.3629 c -7.0457,2.8703 -14.0912,5.2189 -21.3977,7.0456 l -156.82959,39.1421 c -7.8284,1.8267 -15.6569,3.1313 -23.4853,3.6533 -2.3485,0.261 -4.6971,0.5218 -7.0456,0.5218 H 770.87557 c -15.91782,0 -30.26994,-8.8723 -37.31554,-22.9633 l -22.9634,-46.1877 c -4.43611,-8.8723 -13.30833,-14.3523 -22.9634,-14.3523 -9.65506,0 -18.78824,5.48 -22.9634,14.3523 l -22.9634,46.1877 c -7.56748,15.3959 -24.00719,24.5292 -40.96879,22.9633 -16.96161,-1.5656 -31.57469,-13.3082 -36.27174,-29.4872 l -44.10017,-145.3478 -25.57288,85.5908 c -15.91781,52.9724 -64.71504,89.2442 -120.03596,89.2442 h -21.39772 c -22.9634,0 -41.75163,-18.7882 -41.75163,-41.7516 0,-22.9635 18.78823,-41.7517 41.75163,-41.7517 h 21.39772 c 18.52729,0 34.70604,-12.0037 39.925,-29.7481 l 38.88122,-129.1691 c 8.87222,-29.4871 36.01079,-49.841 66.80262,-49.841 30.79184,0 57.9304,20.3539 66.80262,49.841 l 30.26994,100.7258 c 19.31013,-16.1788 43.83922,-25.3119 69.93399,-25.3119 41.4907,0 79.32812,23.4853 97.85541,60.5399 l 11.4817,22.9634 h 23.22435 c -8.08938,-22.9634 -9.65507,-48.0144 -3.65327,-72.5435 l 39.14217,-156.8296 c 7.30653,-29.4871 22.4415,-56.1036 43.83917,-77.5014 L 1146.6403,759.26336 V 645.49014 H 812.62721 c -46.18775,0 -83.50329,-37.31553 -83.50329,-83.50328 V 227.97375 Z m 501.01967,0 v 334.01311 h 334.01309 z m 766.66449,364.544 c -40.7079,-40.70785 -106.7277,-40.70785 -147.6965,0 l -76.7186,76.71863 185.2729,185.27291 76.7186,-76.71864 c 40.7079,-40.70785 40.7079,-106.72763 0,-147.69642 z M 958.49701,1065.6161 c -10.6989,10.6989 -18.2664,24.007 -21.9196,38.8811 l -39.1422,156.8296 c -3.6533,14.3522 0.5219,29.2263 10.9598,39.6641 10.4379,10.4379 25.312,14.6131 39.6641,10.9599 l 156.82949,-39.1422 c 14.6131,-3.6532 28.1824,-11.2208 38.8812,-21.9196 L 1480.9143,913.48345 1295.6415,728.21058 Z" />
</svg>
