<?xml version="1.0" encoding="utf-8"?>
<!-- Generator: Adobe Illustrator 25.2.0, SVG Export Plug-In . SVG Version: 6.00 Build 0)  -->
<svg version="1.1" id="Layer_1" xmlns="http://www.w3.org/2000/svg" x="0px" y="0px"
     viewBox="0 0 2500 2500" style="enable-background:new 0 0 2500 2500;" xml:space="preserve">
<style type="text/css">
	.st0{fill:#4A4B4C;}
	.st1{fill:#FFFFFF;}
	.st2{fill:#F4BD19;}
	.st3{fill:#3CBEB1;}
	.st4{fill:#E9478C;}
	.st5{fill:#2C458F;}
	.st6{fill:#95C63D;}
	.st7{fill:#176655;}
</style>
<g>
	<path class="st0" d="M1240,1071.5c220.3,0,426.2-20,617.7-60c191.5-40,80.9,38.1,191.5-40l114,129.1c0,64.1,99.8,94.5,4,149.3
		s-225.9,98.3-390.4,130.4s-343.5,48.1-536.8,48.1s-372.3-16-536.8-48.1s-294.7-75.5-390.4-130.4s-143.6-114.3-143.6-178.5v-237
		c110.6,78.1,261.7,137.1,453.2,177.1C813.8,1051.5,1019.7,1071.5,1240,1071.5z M1240,2499.4c-193.4,0-372.3-16-536.8-48.1
		s-294.7-75.5-390.4-130.4s-143.6-114.3-143.6-178.5v-237c110.6,78.1,261.7,137.1,453.2,177.1c191.5,40,397.4,60,617.7,60
		 M1776.8,1915.8c-164.5,32.1-343.5,48.1-536.8,48.1s-372.3-16-536.8-48.1c-164.5-32.1-294.7-75.5-390.4-130.4
		S169.1,1671.1,169.1,1607v-237C279.7,1448,430.8,1507,622.3,1547c191.5,40,397.4,60,617.7,60s426.2-20,617.7-60
		c191.5-40,163.5-99,274.1-177.1l179.1,237c0,64.1-47.9,123.6-143.6,178.5 M1240,0.6c193.4,0,372.3,16,536.8,48.1
		s294.7,75.5,390.4,130.4s143.6,114.3,143.6,178.5v178.5c0,64.1-47.9,123.6-143.6,178.5s-225.9,98.3-390.4,130.4
		C1612.3,877,1433.4,893,1240,893s-372.3-16-536.8-48.1c-164.5-32.1-294.7-75.5-390.4-130.4S169.1,600.2,169.1,536.1V357.6
		c0-64.1,47.9-123.6,143.6-178.5S538.6,80.8,703.2,48.8S1046.6,0.6,1240,0.6z"/>
</g>
<path class="st1" d="M2518.6,1692.2c0-151.6-94.2-282.5-234-334c5.9-32,8.9-64.5,8.8-97.1c0-281-228.1-509.1-509.1-509.1
	c-163.3,0-316.3,78-412,211.9c-47.1-36.8-104.5-55.9-164.8-55.9c-148.6,0-270.7,120.7-270.7,270.7c0,32.4,5.9,64.7,16.2,94.2
	c-141.2,48.6-236.9,183.9-236.9,334c0,151.6,94.2,284,235.4,335.5c-5.9,30.9-8.8,63.3-8.8,97.1c0,279.6,228.1,507.6,507.6,507.6
	c164.8,0,316.4-79.5,412-211.9c47.1,36.8,105.9,57.4,166.3,57.4c148.6,0,270.7-120.7,270.7-270.7c0-32.4-5.9-64.7-16.2-94.2
	C2421.4,1977.6,2518.5,1842.2,2518.6,1692.2L2518.6,1692.2z"/>
<path class="st2" d="M1420.9,1522.9l401.7,183.9l406.1-356.1c5.9-29.6,8.9-59.6,8.8-89.8c0-250.1-203-453.2-453.2-453.2
	c-150.1,0-289.9,73.6-373.7,197.2l-67.7,350.2L1420.9,1522.9L1420.9,1522.9z"/>
<path class="st3" d="M1004.5,1948.2c-5.9,29.4-8.8,60.3-8.8,91.2c0,250.1,204.5,454.7,454.7,454.7c151.6,0,291.3-75,376.7-198.6
	l66.2-350.2l-89.8-170.7l-403.2-183.9L1004.5,1948.2L1004.5,1948.2z"/>
<path class="st4" d="M1001.5,1252.2l275.2,64.7l61.8-313.4c-38.3-29.4-83.9-44.1-132.4-44.1c-119.2,0-217.8,97.1-217.8,217.8
	C988.3,1202.2,992.7,1228.7,1001.5,1252.2L1001.5,1252.2z"/>
<path class="st5" d="M978,1318.4c-123.6,39.7-208.9,158.9-208.9,288.4c0,126.5,78,239.8,195.7,284l387-350.2l-70.6-151.5L978,1318.4
	L978,1318.4z"/>
<path class="st6" d="M1897.6,2294c38.3,29.4,83.9,45.6,131,45.6c119.2,0,217.8-97.1,217.8-217.8c0-26.5-4.4-51.5-13.2-75
	l-275.2-64.7L1897.6,2294L1897.6,2294z"/>
<path class="st7" d="M1953.5,1909.9l303.1,70.6c123.6-41.2,208.9-158.9,208.9-288.4c0-126.5-78-238.4-195.7-284l-397.3,347.2
	L1953.5,1909.9L1953.5,1909.9z"/>
</svg>
