<?xml version="1.0" encoding="UTF-8" standalone="no"?>
<!-- Created with Inkscape (http://www.inkscape.org/) -->

<svg
   width="1792"
   height="1792"
   viewBox="0 0 1792 1792"
   version="1.1"
   id="svg4037"
   xmlns="http://www.w3.org/2000/svg"
   xmlns:svg="http://www.w3.org/2000/svg">
  <defs
     id="defs4034">
    <clipPath
       clipPathUnits="userSpaceOnUse"
       id="clipPath4012">
      <g
         id="g4016">
        <path
           d="M 0,0.113 H 91.887 V 92 H 0 Z m 0,0"
           id="path4014" />
      </g>
    </clipPath>
  </defs>
  <rect
     style="fill:none;opacity:0;stroke:none"
     id="rect2366"
     width="1787.1763"
     height="1789.5881"
     x="4.8236876"
     y="4.8236876" />
  <path
     d="m 161.6332,565.16992 -0.32063,-77.77921 c 0,-54.17728 19.43329,-116.08667 58.29963,-154.95297 38.86632,-38.86636 85.38818,-58.29951 139.56542,-58.29951 h 282.66441 c 54.17738,0 100.69912,19.43315 139.56543,58.29951 38.86635,38.8663 58.29951,85.38819 58.29951,139.56556 v 28.26634 c 320.88963,-2.49331 369.93943,-0.24664 413.89213,-0.2309 65.3114,0.0269 128.1755,0.0898 179.7047,0.22854 50.4173,0.13204 100.6992,19.43321 139.5656,58.29953 38.8662,38.86634 58.2994,85.38822 58.2994,139.56557 v 0.003 621.86152 c 0,54.1773 -19.4332,100.6991 -58.2994,139.5656 -38.8664,38.8663 -85.3883,58.2993 -139.5657,58.2993 H 359.17748 c -54.17724,0 -100.69912,-19.433 -139.56543,-58.2993 -38.86647,-38.8664 -55.08651,-85.4836 -58.29962,-139.5656 l -0.48119,-668.33173 m 0,0 c 78.56977,23.57133 591.52058,147.37427 641.8452,161.50115 -0.18565,33.24624 41.99167,107.17528 122.63749,88.79041 32.67109,56.65474 191.07397,323.47207 194.74137,328.79427 -66.8861,76.7838 25.3908,220.2299 140.62,154.5082 85.8809,-48.9829 55.9736,-198.1749 -65.4018,-195.5353 -35.1651,-60.3538 -132.9869,-225.46813 -191.7765,-325.11204 15.3168,3.1481 153.8663,38.39438 196.5532,49.55756 24.2135,116.62498 186.2274,117.25278 209.2703,5.03251 23.0426,-112.22014 -118.8486,-172.78314 -187.108,-89.28899 -19.439,-4.75099 -170.4284,-42.03262 -211.4111,-51.46854 -1.2753,-25.63526 -33.72788,-76.37916 -72.82574,-84.5236 -39.09758,-8.14439 -77.7405,-5.64017 -116.28979,35.99182 C 800.98188,723.89179 302.92115,599.88508 161.63271,565.17006"
     id="path4026"
     style="fill:#2196f3;fill-opacity:1;stroke:none;stroke-width:0.883327;stroke-opacity:1" />
</svg>
