<?xml version="1.0" encoding="UTF-8" standalone="no"?>
<svg width="92pt"
     height="92pt"
     viewBox="0 0 92 92"
     version="1.1"
     xmlns="http://www.w3.org/2000/svg">
    <g transform="translate(-4.9938649e-4,-0.05665769)"
       style="fill:#fff">
        <path style="fill:#fff;fill-opacity:1;fill-rule:nonzero;stroke:none"
              d="M 90.156,41.965 50.036,1.848 c -2.311429,-2.31291276 -6.060571,-2.31291276 -8.372,0 C 28.356942,15.161941 15.042127,28.468128 1.73,41.777 c -2.30838489,2.312914 -2.30838489,6.058086 0,8.371 L 41.852,90.27 c 2.312798,2.30772 6.057202,2.30772 8.37,0 L 90.156,50.336 c 2.308385,-2.312914 2.308385,-6.058086 0,-8.371"/>
    </g>
    <g transform="translate(-4.9938649e-4,-0.05665769)">
        <path style="fill:#f03c2e;fill-opacity:1;fill-rule:nonzero;stroke:none"
              d="M 90.156,41.965 50.036,1.848 a 5.918,5.918 0 0 0 -8.372,0 l -8.328,8.332 10.566,10.566 a 7.03,7.03 0 0 1 7.23,1.684 7.034,7.034 0 0 1 1.669,7.277 l 10.187,10.184 a 7.028,7.028 0 0 1 7.278,1.672 7.04,7.04 0 0 1 0,9.957 7.05,7.05 0 0 1 -9.965,0 7.044,7.044 0 0 1 -1.528,-7.66 l -9.5,-9.497 V 59.36 a 7.04,7.04 0 0 1 1.86,11.29 7.04,7.04 0 0 1 -9.957,0 7.04,7.04 0 0 1 0,-9.958 7.06,7.06 0 0 1 2.304,-1.539 V 33.926 A 7.049,7.049 0 0 1 39.66,24.692 L 29.242,14.272 1.73,41.777 a 5.925,5.925 0 0 0 0,8.371 L 41.852,90.27 a 5.925,5.925 0 0 0 8.37,0 L 90.156,50.336 a 5.925,5.925 0 0 0 0,-8.371"/>
    </g>
</svg>