<?xml version="1.0" encoding="UTF-8" standalone="no"?>
<svg
        height="1750"
        width="1681.5132"
        viewBox="0 0 53.808422 56"
        version="1.1"
        xmlns="http://www.w3.org/2000/svg">
    <path
            d="M 51,8.5 C 51,5.035 41.066,0 25.5,0 9.934,0 0,5.035 0,8.5 L 0.094,9.254 5.642,49.778 C 5.775,54.31 17.86,56 25.494,56 34.966,56 45.029,53.822 45.159,49.78 L 50.898,9.293 Z"
            style="fill:#4caf50"/>
    <path
            d="m 47.836004,30.893 0.384,-2.704 c 3.54,2.12 3.587,2.997 3.586,3.02 -0.006,0.006 -0.61,0.51 -3.97,-0.316 z m -1.943,-0.54 C 39.773,28.5 31.25,24.59 27.8,22.96 c 0,-0.014 0.004,-0.027 0.004,-0.041 A 2.406,2.406 0 0 0 25.4,20.516 c -1.324,0 -2.402,1.078 -2.402,2.403 0,1.325 1.078,2.403 2.402,2.403 0.582,0 1.11,-0.217 1.527,-0.562 4.058,1.92 12.515,5.774 18.680004,7.594 L 43.17,49.56 a 0.955,0.955 0 0 0 -0.01,0.14 c 0,1.516 -6.707,4.299 -17.666,4.299 -11.075,0 -17.853,-2.783 -17.853,-4.298 0,-0.046 -0.003,-0.091 -0.01,-0.136 L 2.538,12.358 c 4.409,3.035 13.892,4.64 22.962,4.64 9.056,0 18.523,-1.6 22.940004,-4.625 z M 2,8.478 C 2.072,7.162 9.634,2 25.5,2 41.364,2 48.927004,7.16 49.000004,8.478 V 8.927 C 48.130004,11.877 38.33,15 25.5,15 12.648,15 2.843,11.868 2,8.913 Z M 51.000004,8.5 C 51.000004,5.035 41.066,0 25.5,0 9.934,0 0,5.035 0,8.5 L 0.094,9.254 5.642,49.778 C 5.775,54.31 17.86,56 25.494,56 c 9.472,0 19.535004,-2.178 19.665004,-6.22 l 2.396,-16.896 c 1.333,0.319 2.43,0.482 3.31,0.482 1.184,0 1.984,-0.29 2.469,-0.867 a 1.95,1.95 0 0 0 0.436,-1.66 c -0.26,-1.383 -1.902,-2.875 -5.248,-4.784 l 2.376,-16.762 z"
            style="fill:#000000"/>
</svg>
