<?xml version="1.0" encoding="UTF-8" standalone="no"?>
<svg
   id="Calque_1"
   data-name="Calque 1"
   viewBox="0 0 164.22001 202.57924"
   version="1.1"
   sodipodi:docname="ScyllaDb.svg"
   width="164.22"
   height="202.57924"
   inkscape:version="1.3.2 (091e20ef0f, 2023-11-25, custom)"
   xmlns:inkscape="http://www.inkscape.org/namespaces/inkscape"
   xmlns:sodipodi="http://sodipodi.sourceforge.net/DTD/sodipodi-0.dtd"
   xmlns="http://www.w3.org/2000/svg"
   xmlns:svg="http://www.w3.org/2000/svg"
   xmlns:rdf="http://www.w3.org/1999/02/22-rdf-syntax-ns#"
   xmlns:cc="http://creativecommons.org/ns#"
   xmlns:dc="http://purl.org/dc/elements/1.1/">
  <sodipodi:namedview
     id="namedview16"
     pagecolor="#ffffff"
     bordercolor="#000000"
     borderopacity="0.25"
     inkscape:showpageshadow="2"
     inkscape:pageopacity="0.0"
     inkscape:pagecheckerboard="0"
     inkscape:deskcolor="#d1d1d1"
     inkscape:clip-to-page="false"
     inkscape:zoom="4.5931559"
     inkscape:cx="79.792632"
     inkscape:cy="88.827815"
     inkscape:window-width="2560"
     inkscape:window-height="1412"
     inkscape:window-x="2560"
     inkscape:window-y="0"
     inkscape:window-maximized="1"
     inkscape:current-layer="Calque_1" />
  <defs
     id="defs1">
    <style
       id="style1">.cls-1,.cls-2{fill:#57d1e5;}.cls-1,.cls-4,.cls-5{stroke:#3b2d55;stroke-linecap:round;stroke-linejoin:round;}.cls-1,.cls-4{stroke-width:3.7px;}.cls-3{fill:#3b2d55;}.cls-4,.cls-5{fill:#fff;}.cls-5{stroke-width:3.09px;}</style>
  </defs>
  <title
     id="title1">Plan de travail 1</title>
  <path
     class="cls-1"
     d="m 45.19,187.41 a 11.43,11.43 0 0 1 -22.43,4.33 c 0,0 -20.91,-98.17 -20.91,-118.27 0,-42 33.34,-71.62 80.26,-71.62 46.92,0 80.26,29.64 80.26,71.62 0,20.1 -20.91,118.24 -20.91,118.24 a 11.43,11.43 0 0 1 -22.43,-4.3"
     id="path1" />
  <path
     class="cls-2"
     d="m 136.31,159.26 -5.71,32 a 11.43,11.43 0 0 1 -22.59,-3.38"
     id="path2" />
  <path
     class="cls-3"
     d="m 137.52,159.47 -1.25,8.38 -1.32,8.36 -1.37,8.35 -0.69,4.17 a 41.44,41.44 0 0 1 -0.84,4.37 13.27,13.27 0 0 1 -25.88,-5.46 1.8525186,1.8525186 0 0 1 3.68,0.43 9.55,9.55 0 0 0 1.8,6.67 9.4,9.4 0 0 0 5.75,3.75 9.62,9.62 0 0 0 6.78,-1.08 9.47,9.47 0 0 0 4.31,-5.39 c 0.31,-1 0.55,-2.57 0.82,-3.92 l 0.8,-4.16 1.61,-8.31 1.65,-8.3 1.72,-8.29 a 1.233876,1.233876 0 0 1 2.43,0.43 z"
     id="path3" />
  <circle
     class="cls-4"
     cx="54.949997"
     cy="66.060005"
     r="35.810001"
     id="circle3" />
  <path
     class="cls-3"
     d="m 62.35,42.6 c -6.17,1.24 -7.4,14.82 -3.7,18.52 2.43,2.44 7.41,3.25 7.41,4.94 0,1.69 -5,2.51 -7.41,4.94 -3.7,3.7 -2.47,17.29 3.7,18.52 C 69.72,91 80.88,82.11 80.88,66.06 80.88,50.01 69.72,41.13 62.35,42.6 Z"
     id="path4" />
  <path
     class="cls-5"
     d="m 37.66,114.22 c 1.23,3.7 4.94,9.88 9.88,8.64 2.39,-0.6 3.7,-3.7 3.7,-8.64"
     id="path5" />
  <path
     class="cls-4"
     d="m 69.76,111.75 c 1.24,4.94 2.47,8.64 6.18,8.64 3.71,0 8.64,-4.94 7.41,-13.58"
     id="path6" />
  <path
     class="cls-3"
     d="m 30.48,111.46 a 95.15,95.15 0 0 0 67.87,-16.05 1.85,1.85 0 1 1 2.11,3 v 0 a 98.51,98.51 0 0 1 -70.43,16 1.54,1.54 0 0 1 0.46,-3 z"
     id="path7" />
  <path
     class="cls-3"
     d="m 101.12,101.28 a 7.93,7.93 0 0 0 -2.49,-4.34 7.65,7.65 0 0 0 -4.43,-1.88 1.86,1.86 0 0 1 0.28,-3.7 h 0.19 0.05 a 11,11 0 0 1 6.09,3.37 10.58,10.58 0 0 1 2.75,6.18 1.22,1.22 0 0 1 -1.11,1.34 1.24,1.24 0 0 1 -1.33,-1 z"
     id="path8" />
  <path
     class="cls-2"
     d="m 56.22,187.85 a 11.43,11.43 0 0 1 -22.6,3.38 l -5.7,-32"
     id="path9" />
  <path
     class="cls-3"
     d="m 58.05,187.63 a 13.26,13.26 0 0 1 -10.41,14.66 13.14,13.14 0 0 1 -9.53,-1.6 13.34,13.34 0 0 1 -5.93,-7.58 40.11,40.11 0 0 1 -0.85,-4.37 l -0.69,-4.18 -1.37,-8.35 -1.32,-8.36 -1.25,-8.38 a 1.233876,1.233876 0 0 1 2.43,-0.43 l 1.72,8.29 1.66,8.3 1.6,8.31 0.8,4.15 c 0.27,1.36 0.51,2.89 0.82,3.92 a 9.58,9.58 0 0 0 18.65,-3.93 v 0 a 1.85,1.85 0 0 1 3.67,-0.44 z"
     id="path10" />
  <path
     class="cls-2"
     d="m 72.71,188.59 a 11.42,11.42 0 0 1 -22.76,1.9 l -3.6,-32"
     id="path11" />
  <path
     class="cls-3"
     d="m 74.56,188.49 a 13.27,13.27 0 0 1 -11.28,13.92 13.16,13.16 0 0 1 -9.38,-2.15 13.33,13.33 0 0 1 -5.48,-7.85 34.51,34.51 0 0 1 -0.58,-4.42 l -0.42,-4.19 -0.83,-8.4 -0.74,-8.39 -0.7,-8.41 a 1.232974,1.232974 0 0 1 2.45,-0.28 l 1.18,8.36 1.07,8.35 1.07,8.38 0.53,4.18 c 0.19,1.38 0.31,2.88 0.58,3.93 a 9.57,9.57 0 0 0 18.82,-2.83 v 0 a 1.8524376,1.8524376 0 0 1 3.7,-0.19 z"
     id="path12" />
  <path
     class="cls-2"
     d="m 117.85,158.46 -3.6,32 a 11.43,11.43 0 0 1 -22.77,-1.9"
     id="path13" />
  <path
     class="cls-3"
     d="m 119.11,158.6 -0.71,8.41 -0.77,8.39 -0.83,8.39 -0.41,4.2 a 38.06,38.06 0 0 1 -0.54,4.42 13.27,13.27 0 0 1 -23.22,5.24 13.42,13.42 0 0 1 -2.93,-9.15 1.86,1.86 0 0 1 2,-1.73 1.84,1.84 0 0 1 1.73,1.93 9.6,9.6 0 0 0 2.22,6.52 9.49,9.49 0 0 0 5.94,3.38 9.68,9.68 0 0 0 6.69,-1.47 9.43,9.43 0 0 0 4,-5.61 c 0.26,-1 0.39,-2.55 0.57,-3.93 l 0.53,-4.18 1.06,-8.36 1.11,-8.36 1.18,-8.36 a 1.24,1.24 0 0 1 2.46,0.28 z"
     id="path14" />
  <path
     class="cls-2"
     d="m 94.46,157.41 -0.93,32.1 a 11.42,11.42 0 0 1 -22.84,0 l -0.93,-32.1"
     id="path15" />
  <path
     class="cls-3"
     d="m 95.69,157.47 q 0,12.44 -0.19,24.87 l -0.1,6.22 a 17.8,17.8 0 0 1 -0.3,3.42 13.31,13.31 0 0 1 -13,10.59 12.81,12.81 0 0 1 -3.59,-0.5 12.62,12.62 0 0 1 -3.32,-1.46 13.38,13.38 0 0 1 -4.85,-5.2 13.15,13.15 0 0 1 -1.22,-3.4 17,17 0 0 1 -0.3,-3.42 l -0.1,-6.22 Q 68.49,169.93 68.53,157.5 A 1.24,1.24 0 0 1 71,157.43 c 0.49,8.28 0.92,16.56 1.24,24.84 l 0.26,6.21 a 15.61,15.61 0 0 0 0.27,2.75 9.55,9.55 0 0 0 9.35,7.48 9.49,9.49 0 0 0 8.44,-5.05 9,9 0 0 0 0.9,-2.42 15.73,15.73 0 0 0 0.27,-2.76 l 0.26,-6.21 c 0.32,-8.28 0.75,-16.56 1.23,-24.84 a 1.24,1.24 0 0 1 2.47,0.07 z"
     id="path16" />
  <metadata
     id="metadata16">
    <rdf:RDF>
      <cc:Work
         rdf:about="">
        <dc:title>Plan de travail 1</dc:title>
      </cc:Work>
    </rdf:RDF>
  </metadata>
</svg>
