<?xml version="1.0" encoding="UTF-8" standalone="no"?>
<svg
   id="svg4232"
   height="1792"
   viewBox="0 0 1792 1792"
   width="1792"
   version="1.1"
   sodipodi:docname="traces.svg"
   inkscape:version="1.4.2 (ebf0e940d0, 2025-05-08)"
   xmlns:inkscape="http://www.inkscape.org/namespaces/inkscape"
   xmlns:sodipodi="http://sodipodi.sourceforge.net/DTD/sodipodi-0.dtd"
   xmlns="http://www.w3.org/2000/svg"
   xmlns:svg="http://www.w3.org/2000/svg">
  <defs
     id="defs1" />
  <sodipodi:namedview
     id="namedview1"
     pagecolor="#ffffff"
     bordercolor="#000000"
     borderopacity="0.25"
     inkscape:showpageshadow="2"
     inkscape:pageopacity="0.0"
     inkscape:pagecheckerboard="0"
     inkscape:deskcolor="#d1d1d1"
     inkscape:zoom="0.66964286"
     inkscape:cx="896"
     inkscape:cy="896"
     inkscape:window-width="2516"
     inkscape:window-height="1412"
     inkscape:window-x="44"
     inkscape:window-y="0"
     inkscape:window-maximized="1"
     inkscape:current-layer="svg4232" />
  <path
     d="m 161.26877,63.52 c -17.61254,0 -32.85445,6.3333 -45.72573,19 -12.87129,12.6667 -19.306425,27.667 -19.306425,45 v 128 c 0,17.333 6.435445,32.333 19.306425,45 12.87098,12.667 28.11319,19 45.72573,19 H 1630.7312 c 17.6126,0 32.8545,-6.3333 45.7257,-19 12.8713,-12.6667 19.3065,-27.667 19.3065,-45 v -128 c 0,-17.333 -6.4356,-32.333 -19.3065,-45 -12.8709,-12.667 -28.1131,-19 -45.7257,-19 z"
     id="path9"
     sodipodi:nodetypes="sssssssssssss"
     style="stroke-width:1.00803;fill:#fe9000;fill-opacity:1" />
  <path
     d="m 910.86333,996.40887 c -17.333,0 -32.333,6.33333 -45,19.00003 -12.667,12.6667 -19,27.667 -19,45 v 128 c 0,17.333 6.3333,32.333 19,45 12.6667,12.667 27.667,19 45,19 h 307.71997 c 17.333,0 32.333,-6.3333 45,-19 12.667,-12.6667 19,-27.667 19,-45 v -128 c 0,-17.333 -6.3333,-32.333 -19,-45 -12.6667,-12.667 -27.667,-19.00003 -45,-19.00003 z"
     id="path4"
     sodipodi:nodetypes="sssssssssssss"
     style="fill:#fff53d;fill-opacity:1" />
  <path
     d="m 1324.0435,1462.8533 c -17.333,0 -32.333,6.3333 -45,19 -12.667,12.6667 -19,27.667 -19,45 v 128 c 0,17.333 6.3333,32.333 19,45 12.6667,12.667 27.667,19 45,19 h 307.7199 c 17.333,0 32.333,-6.3333 45,-19 12.667,-12.6667 19,-27.667 19,-45 v -128 c 0,-17.333 -6.3333,-32.333 -19,-45 -12.6667,-12.667 -27.667,-19 -45,-19 z"
     id="path4-2"
     sodipodi:nodetypes="sssssssssssss"
     style="fill:#1e97f5;fill-opacity:1" />
  <path
     d="m 317.53333,529.96443 c -17.333,0 -32.333,6.3334 -45,19 -12.667,12.6666 -19,27.667 -19,45 v 128 c 0,17.333 6.3333,32.333 19,45 12.6667,12.667 27.667,19 45,19 h 901.04997 c 17.333,0 32.333,-6.3333 45,-19 12.667,-12.6667 19,-27.667 19,-45 v -128 c 0,-17.333 -6.3333,-32.333 -19,-45 -12.6667,-12.667 -27.667,-19 -45,-19 z"
     id="path1-5"
     sodipodi:nodetypes="sssssssssssss"
     style="fill:#4cae4f;fill-opacity:1" />
</svg>
