<?xml version="1.0" encoding="utf-8"?>
<svg xmlns="http://www.w3.org/2000/svg" width="1792" height="1792" viewBox="0 0 1792 1792">
    <path style="fill:#2196f3"
          d="m 288,333.95508 c -26.66667,0 -49.33333,9.33333 -68,28 -18.66667,18.66666 -28,41.33333 -28,68 0.0805,246.24683 0,490.77231 0,736.97462 0,26.6667 9.33333,49.3333 28,68 18.66667,18.6667 41.33333,28 68,28 l 1216,0 c 26.6667,0 49.3333,-9.3333 68,-28 18.6667,-18.6667 28,-41.3333 28,-68 -0.078,-246.27922 0,-490.86553 0,-736.97462 0,-26.66667 -9.3333,-49.33334 -28,-68 -18.6667,-18.66667 -41.3333,-28 -68,-28 z"/>
    <path style="fill:#ffffff"
          d="M 877.22852 517.63477 C 848.44694 517.63477 822.54479 522.26523 799.51953 531.52539 C 776.49426 540.53528 756.84792 552.92215 740.58008 568.68945 C 724.5625 584.45675 712.17368 602.97861 703.41406 624.25195 C 694.90473 645.27502 690.65039 667.67313 690.65039 691.44922 L 780.74805 691.44922 C 780.74805 660.16489 788.38168 635.63863 803.64844 617.86914 C 819.16546 600.09964 843.19282 591.21484 875.72852 591.21484 C 888.24225 591.21484 899.50464 593.34299 909.51562 597.59766 C 919.77689 601.85232 928.41028 607.85867 935.41797 615.61719 C 942.67594 623.12543 948.18143 632.25968 951.93555 643.02148 C 955.93994 653.53302 957.94336 665.04681 957.94336 677.56055 C 957.94336 687.07098 956.6922 696.45468 954.18945 705.71484 C 951.68671 714.975 947.43237 724.98624 941.42578 735.74805 C 935.41919 746.50985 927.2847 758.39783 917.02344 771.41211 C 907.01246 784.17612 894.4989 798.94254 879.48242 815.71094 L 701.53711 1009.7988 L 701.53711 1071.7422 L 1068.6895 1071.7422 L 1068.6895 1000.0391 L 813.0332 1000.0391 L 936.91992 867.14258 C 952.68722 850.37418 967.32892 834.10714 980.84375 818.33984 C 994.35856 802.32227 1005.9951 786.42941 1015.7559 770.66211 C 1025.5166 754.89481 1033.1502 739.12668 1038.6562 723.35938 C 1044.1623 707.3418 1046.916 690.82531 1046.916 673.80664 C 1046.916 651.03165 1043.1606 630.1322 1035.6523 611.11133 C 1028.1441 592.09046 1017.1331 575.6987 1002.6172 561.93359 C 988.10125 547.91822 970.33166 537.03 949.30859 529.27148 C 928.28553 521.51297 904.25818 517.63477 877.22852 517.63477 z M 1337.4844 517.63477 C 1312.2066 517.63477 1288.9315 521.51297 1267.6582 529.27148 C 1246.3849 536.77972 1227.9897 547.29181 1212.4727 560.80664 C 1197.2059 574.07119 1185.1932 589.83933 1176.4336 608.10938 C 1167.9243 626.37941 1163.668 646.27521 1163.668 667.79883 L 1253.3926 667.79883 C 1253.3926 655.78565 1255.5188 645.02411 1259.7734 635.51367 C 1264.0281 626.00324 1269.9097 617.86874 1277.418 611.11133 C 1285.1765 604.35391 1294.1861 599.22455 1304.4473 595.7207 C 1314.9588 591.96658 1326.3479 590.08789 1338.6113 590.08789 C 1366.6421 590.08789 1387.5396 597.34735 1401.3047 611.86328 C 1415.3201 626.12893 1422.3281 646.52558 1422.3281 673.05469 C 1422.3281 685.56842 1420.3247 697.08026 1416.3203 707.5918 C 1412.5662 717.85306 1406.8113 726.73786 1399.0527 734.24609 C 1391.2943 741.75433 1381.5325 747.63596 1369.7695 751.89062 C 1358.0066 755.89502 1344.2419 757.89844 1328.4746 757.89844 L 1274.791 757.89844 L 1274.791 828.47461 L 1328.4746 828.47461 C 1344.2419 828.47461 1358.3828 830.22662 1370.8965 833.73047 C 1383.4102 837.23431 1394.047 842.74176 1402.8066 850.25 C 1411.8165 857.50796 1418.6979 866.89166 1423.4531 878.4043 C 1428.2083 889.66666 1430.5859 903.18192 1430.5859 918.94922 C 1430.5859 947.7308 1422.3267 969.75474 1405.8086 985.02148 C 1389.5407 1000.038 1367.1427 1007.5469 1338.6113 1007.5469 C 1324.8463 1007.5469 1312.4574 1005.5454 1301.4453 1001.541 C 1290.4332 997.53661 1280.9229 992.02917 1272.9141 985.02148 C 1265.1556 977.76352 1259.1492 969.13013 1254.8945 959.11914 C 1250.6399 948.85788 1248.5117 937.72021 1248.5117 925.70703 L 1158.7891 925.70703 C 1158.7891 950.98476 1163.669 973.2601 1173.4297 992.53125 C 1183.1904 1011.5521 1196.2048 1027.5697 1212.4727 1040.584 C 1228.9908 1053.348 1248.0116 1062.9831 1269.5352 1069.4902 C 1291.0588 1075.9974 1313.7083 1079.25 1337.4844 1079.25 C 1363.2626 1079.25 1387.29 1075.7459 1409.5645 1068.7383 C 1431.8389 1061.4803 1451.1091 1051.0949 1467.377 1037.5801 C 1483.8951 1023.815 1496.7848 1006.9204 1506.0449 986.89844 C 1515.3051 966.87647 1519.9355 944.10223 1519.9355 918.57422 C 1519.9355 905.30966 1518.433 892.29525 1515.4297 879.53125 C 1512.4264 866.76724 1507.4218 854.87927 1500.4141 843.86719 C 1493.4064 832.60483 1484.2701 822.46887 1473.0078 813.45898 C 1461.7454 804.4491 1447.856 797.06687 1431.3379 791.31055 C 1445.103 785.05368 1456.991 777.42004 1467.002 768.41016 C 1477.2632 759.15 1485.6472 749.26349 1492.1543 738.75195 C 1498.9117 728.24042 1503.9163 717.35416 1507.1699 706.0918 C 1510.4235 694.82944 1512.0508 683.8165 1512.0508 673.05469 C 1512.0508 647.52668 1507.7964 625.12662 1499.2871 605.85547 C 1490.7778 586.33406 1478.8898 570.06701 1463.623 557.05273 C 1448.3563 544.03845 1429.9612 534.27667 1408.4375 527.76953 C 1386.9139 521.01212 1363.2626 517.63477 1337.4844 517.63477 z M 496.5625 525.14258 L 272.06641 608.10938 L 272.06641 686.94531 L 411.71875 635.88867 L 411.71875 1071.7422 L 502.19336 1071.7422 L 502.19336 525.14258 L 496.5625 525.14258 z "/>
</svg>