<?xml version="1.0" encoding="utf-8"?>
<svg xmlns="http://www.w3.org/2000/svg" width="1792" height="1792" viewBox="0 0 1792 1792">
    <path style="fill:#ce93d8"
          d="M 684.30664 211.38672 C 672.42766 211.38672 661.91891 215.95413 652.78125 225.0918 L 14.058594 863.81641 C 4.9209141 872.95409 0.3515625 883.46088 0.3515625 895.33984 C 0.3515625 907.21882 4.9209142 917.72756 14.058594 926.86523 L 652.78125 1565.5898 C 661.91891 1574.7275 672.42766 1579.2949 684.30664 1579.2949 C 696.1856 1579.2949 706.69435 1574.7275 715.83203 1565.5898 L 784.36523 1497.0566 C 793.5029 1487.9191 798.07031 1477.4102 798.07031 1465.5312 C 798.07031 1453.6524 793.5029 1443.1436 784.36523 1434.0059 L 245.69922 895.33984 L 784.36523 356.67578 C 793.5029 347.53811 798.07031 337.02937 798.07031 325.15039 C 798.07031 313.27142 793.5029 302.76268 784.36523 293.625 L 715.83203 225.0918 C 706.69435 215.95413 696.1856 211.38672 684.30664 211.38672 z M 1107.9082 211.38672 C 1096.0293 211.38672 1085.5225 215.95414 1076.3848 225.0918 L 1007.8516 293.625 C 998.71402 302.76268 994.14453 313.27142 994.14453 325.15039 C 994.14453 337.02937 998.71402 347.53811 1007.8516 356.67578 L 1546.5176 895.33984 L 1007.8516 1434.0059 C 998.71402 1443.1436 994.14453 1453.6523 994.14453 1465.5312 C 994.14453 1477.4102 998.71402 1487.9191 1007.8516 1497.0566 L 1076.3848 1565.5898 C 1085.5225 1574.7275 1096.0293 1579.2949 1107.9082 1579.2949 C 1119.7872 1579.2949 1130.2959 1574.7275 1139.4336 1565.5898 L 1778.1582 926.86523 C 1787.2959 917.72756 1791.8633 907.21882 1791.8633 895.33984 C 1791.8633 883.46088 1787.2959 872.95409 1778.1582 863.81641 L 1139.4336 225.0918 C 1130.2959 215.95414 1119.7872 211.38672 1107.9082 211.38672 z "/>
    <path style="fill:#000000"
          d="M 109.28711 619.72266 L 298.79297 891.09375 L 103.94922 1170.959 L 239.62891 1170.959 L 365.96484 988.56641 L 492.74609 1170.959 L 628.42383 1170.959 L 434.4707 891.09375 L 623.08594 619.72266 L 487.4082 619.72266 L 365.96484 795.09961 L 244.9668 619.72266 L 109.28711 619.72266 z M 678.24805 619.72266 L 678.24805 1170.959 L 791.23828 1170.959 L 791.23828 729.37891 L 862.41406 970.47656 L 966.95312 970.47656 L 1037.2383 729.37891 L 1037.2383 1170.959 L 1150.2305 1170.959 L 1150.2305 619.72266 L 992.75391 619.72266 L 914.01562 861.55664 L 834.83398 619.72266 L 678.24805 619.72266 z M 1288.1328 619.72266 L 1288.1328 1170.959 L 1700.0605 1170.959 L 1700.0605 1074.9629 L 1419.3633 1074.9629 L 1419.3633 619.72266 L 1288.1328 619.72266 z "/>
</svg>