<?xml version="1.0" encoding="UTF-8" standalone="no"?>
<!-- Created with Inkscape (http://www.inkscape.org/) -->

<svg
   xmlns:dc="http://purl.org/dc/elements/1.1/"
   xmlns:cc="http://creativecommons.org/ns#"
   xmlns:rdf="http://www.w3.org/1999/02/22-rdf-syntax-ns#"
   xmlns:svg="http://www.w3.org/2000/svg"
   xmlns="http://www.w3.org/2000/svg"
   xmlns:sodipodi="http://sodipodi.sourceforge.net/DTD/sodipodi-0.dtd"
   xmlns:inkscape="http://www.inkscape.org/namespaces/inkscape"
   version="1.1"
   width="1792"
   height="1792"
   viewBox="0 0 1792 1792"
   id="svg2"
   xml:space="preserve"
   inkscape:version="0.91 r13725"
   sodipodi:docname="hadoop-elephant-logo.svg"><sodipodi:namedview
     pagecolor="#ffffff"
     bordercolor="#666666"
     borderopacity="1"
     objecttolerance="10"
     gridtolerance="10"
     guidetolerance="10"
     inkscape:pageopacity="0"
     inkscape:pageshadow="2"
     inkscape:window-width="1920"
     inkscape:window-height="1137"
     id="namedview3486"
     showgrid="false"
     inkscape:zoom="0.22965887"
     inkscape:cx="-958.33091"
     inkscape:cy="1784.32"
     inkscape:window-x="0"
     inkscape:window-y="0"
     inkscape:window-maximized="1"
     inkscape:current-layer="svg2"
     fit-margin-top="0"
     fit-margin-left="0"
     fit-margin-right="0"
     fit-margin-bottom="0" /><title
     id="title3117">Hadoop logo</title><metadata
     id="metadata8"><rdf:RDF><cc:Work
         rdf:about=""><dc:format>image/svg+xml</dc:format><dc:type
           rdf:resource="http://purl.org/dc/dcmitype/StillImage" /><dc:title>Hadoop logo</dc:title><cc:license
           rdf:resource="http://www.apache.org/licenses/LICENSE-2.0.html" /></cc:Work></rdf:RDF></metadata><defs
     id="defs6"><clipPath
       id="clipPath128"><path
         d="m 91.7368,146.3253 -9.7039,-1.577 -8.8548,-3.8814 -7.5206,-4.7308 -7.1566,-8.7335 -4.0431,-4.282 -3.9093,-1.4409 -1.034,2.5271 1.8079,2.6096 0.4062,3.6802 1.211,-0.0488 1.3232,-1.2069 -0.3569,3.7488 -1.4667,0.9839 0.0445,1.4286 -3.4744,-1.9655 -3.1462,-3.712 -0.6559,-3.3176 1.3453,-2.6567 1.2549,-4.5133 2.5521,-1.2084 2.6847,0.1318 2.5455,1.4791 -1.698,-8.6122 1.698,-9.5825 -1.8692,-4.4246 -6.1223,-6.5965 1.0885,-3.941 2.9002,-4.5669 5.4688,-3.8486 2.9007,-0.3969 3.225,-0.1094 -2.012,-8.2601 7.3993,-3.0326 9.2188,-1.2129 3.1535,2.0619 0.2427,5.5797 3.5178,5.8224 0.2426,4.6094 8.4909,-0.6066 7.8843,0.7279 -7.8843,-4.7307 1.3343,-5.701 4.9731,-7.763 4.8521,-2.0622 3.8814,1.5769 1.577,3.1538 8.1269,6.1861 1.5769,-1.3343 12.7363,-0.485 2.5473,2.0619 0.2426,3.6391 -0.849,1.5767 -0.6066,9.8251 -4.2454,8.4909 0.7276,3.7605 2.5475,-1.3343 7.1566,-6.6716 3.5175,-0.2424 3.8815,1.5769 3.8818,2.9109 1.9406,6.3077 11.4021,-0.7277 6.914,2.6686 5.5797,5.2157 4.0028,7.5206 0.9706,8.8546 -0.8493,10.3105 -2.1832,9.2185 -2.1836,2.9112 -3.0322,0.9706 -5.3373,-5.8224 -4.8518,-1.6982 -4.2455,7.0353 -4.2454,3.8815 -2.3049,1.4556 -9.2185,7.6419 -7.3993,4.0028 -7.3993,0.6066 -8.6119,-1.4556 -7.5206,-2.7899 -5.2158,-4.2454 -4.1241,-4.9734 -4.2454,-1.2129"
         id="path130"
         inkscape:connector-curvature="0" /></clipPath></defs><g
     id="g112"
     transform="matrix(1.25,0,0,-1.25,-47.439415,213.03962)" /><g
     id="g124"
     transform="matrix(1.25,0,0,-1.25,29.10624,80.3382)"><g
       id="g126"
       clip-path="url(#clipPath128)"><g
         id="g132"
         transform="matrix(136.89723,0,0,105.04488,45.2072,62.9932)" /></g></g><g
     id="g3580"
     transform="matrix(9.7565533,0,0,9.7565533,6.7633277,229.18427)"><path
       d="m 20.235585,85.484125 c -0.747625,2.034875 -1.49625,4.0705 -2.243875,6.1065 -1.8515,1.83225 -3.702875,3.66775 -5.554875,5.501 -2.024375,2.0055 -2.4597499,1.99175 -1.98425,4.828505 0.558375,3.33312 2.161,6.768 5.11125,9.72599 3.10175,3.10926 9.614375,7.50964 14.30075,5.43538 -0.4355,1.57475 -1.01375,3.22587 -1.74975,4.84025 -3.1425,6.89024 4.516,8.23987 9.875625,9.68949 4.45425,1.20438 15.38575,4.41388 16.96325,-1.44037 0.709375,-2.63411 0.8195,-4.04962 0.566875,-6.56462 1.386125,-3.09375 1.82875,-3.587 2.976,-5.28949 1.574375,-2.335 1.46125,-3.22375 1.116875,-6.12138 -0.06663,-0.5585 -0.14775,-1.16751 -0.241625,-1.80751 5.30425,0.798 10.404125,0.78838 15.60225,0.1435 -1.57825,0.9195 -3.161,1.72488 -5.248375,2.79813 -4.95425,2.54663 -0.285625,10.05988 1.849625,13.35012 4.48125,6.90563 8.49925,11.65675 16.06925,7.56038 2.543005,-1.37651 2.739255,-2.84275 4.326375,-5.2125 0.87663,-0.48088 5.39463,-4.32325 8.0815,-6.49387 1.01837,1.22174 2.96762,1.44675 5.92375,1.66038 1.4875,0.10812 7.32088,0.0713 8.86712,0.0811 4.63888,0.0291 7.42288,-0.45238 7.78575,-5.508 0.17188,-2.39738 0.069,-2.90725 -1.11049,-5.00287 -0.0712,-2.64463 -0.14176,-5.28976 -0.21226,-7.93375 -0.0807,-2.97888 -0.6495,-4.80613 -1.81837,-7.589125 -1.063,-2.52737 -1.65837,-4.6845 -2.8995,-7.1355 0.17038,-0.96087 0.30537,-1.952375 0.39712,-2.988375 1.57713,1.519 3.15388,3.039125 4.73113,4.558505 3.00637,2.89587 5.49062,5.26112 10.07462,5.04462 4.77388,-0.225 10.23913,-3.98587 11.63875,-8.58625 0.46663,-1.535625 0.93188,-3.070875 1.3985,-4.605875 7.19925,1.360625 15.61288,1.049125 21.88138,-2.295375 9.21925,-4.92025 13.53287,-14.812375 14.59312,-25.2765 0.85775,-8.465 -0.79337,-22.699875 -4.82925,-30.423625 -1.18662,-2.27125 -6.5455,-5.145125 -8.89475,-2.7645 -1.76987,1.794 -2.98562,4.527 -4.8965,6.15975 -1.48,1.264625 -3.31337,1.89075 -4.91987,2.552625 -1.24375,-3.357625 -3.03125,-5.967375 -5.22,-8.575125 -1.7405,-2.0725 -3.38038,-3.105375 -5.67563,-4.542625 -4.5355,-2.84025 -8.055,-6.42575 -12.18187,-9.828 -12.48813,-10.296875 -23.21225,-9.981125 -38.772,-3.432125 -7.42325,3.124875 -11.00375,7.3655 -15.556875,13.456125 -2.751375,0.1435 -4.64175,0.676375 -7.550125,3.243125 -2.146875,1.894625 -4.145625,3.843875 -6.08025,5.8635 -14.544625,2.318 -23.5775,5.089625 -33.133875,13.561625 -3.88875,3.447625 -6.715625,7.268125 -8.920625,11.562875 -2.047,2.262125 -4.08225,4.580875 -6.785,5.6215 -1.90275,0.73175 -1.867375,0.729875 -2.53775,-1.05975 2.262375,-1.700125 2.226625,-4.9005 2.436,-7.797125 1.42725,0.068 1.96225,1.668875 2.93275,2.893875 0.572625,-2.5615 0.904625,-6.5395 -1.791125,-7.935625 0.438375,-1.17175 0.934375,-2.35275 1.388625,-3.645 -3.97625,0.69025 -17.6083749,9.87875 -10.3347499,16.88675 0.4787499,1.945875 0.8557499,3.286375 1.4882499,4.602 1.66425,3.461125 5.406375,4.05425 8.66725,2.7825 -0.893625,4.097125 -1.07475,8.555 -0.536875,14.812875 0.129,1.50025 0.3455,3.013875 0.63675,4.531875"
       id="path66"
       style="fill:#000000;fill-opacity:1;fill-rule:evenodd;stroke:none"
       inkscape:connector-curvature="0" /><path
       d="m 21.09946,85.800875 c -0.300125,0.81775 -0.601625,1.637 -0.902125,2.455125 l -1.72775,-0.6335 c 0.3005,-0.818125 0.602125,-1.637375 0.902125,-2.455125 l 1.72775,0.6335 z M 20.197335,88.256 c -0.447125,1.2165 -0.895,2.434625 -1.341875,3.651375 l -1.727625,-0.6335 c 0.44675,-1.21675 0.894625,-2.435 1.34175,-3.651375 l 1.72775,0.6335 z m -1.341875,3.651375 -0.216125,0.3345 -0.647625,-0.65125 0.86375,0.31675 z m -0.216125,0.3345 c -0.98075,0.97088 -1.962625,1.9435 -2.94375,2.91513 l -1.295375,-1.3025 c 0.981125,-0.97163 1.962875,-1.94425 2.94375,-2.91513 l 1.295375,1.3025 z m -2.94375,2.91513 c -0.869875,0.86175 -1.740875,1.7245 -2.611125,2.58587 l -1.295375,-1.3025 c 0.87025,-0.86137 1.741125,-1.72412 2.611125,-2.58587 l 1.295375,1.3025 z m -2.611125,2.58587 c -0.397875,0.39363 -0.532875,0.52375 -0.652625,0.63925 l -1.274125,-1.33162 c 0.26575,-0.25575 0.559125,-0.5385 0.631375,-0.61013 l 1.295375,1.3025 z m -0.652625,0.63925 c -1.1785,1.1345 -1.411625,1.3595 -1.07225,3.386635 l -1.8141249,0.30262 c -0.50025,-2.986635 -0.15125,-3.323255 1.6122499,-5.020875 l 1.274125,1.33162 z m -1.07225,3.386635 c 0.273625,1.63212 0.816375,3.29749 1.66825,4.91849 L 11.39371,107.544 c -0.940125,-1.78863 -1.5417499,-3.6425 -1.8482499,-5.47263 l 1.8141249,-0.30262 z m 1.66825,4.91849 c 0.790875,1.50562 1.843625,2.96363 3.18725,4.31112 l -1.302625,1.29551 c -1.491,-1.49537 -2.6525,-3.10112 -3.51875,-4.74987 l 1.634125,-0.85676 z m 3.18725,4.31112 c 1.719125,1.7235 4.5255,3.859 7.44625,4.96875 l -0.64775,1.72075 c -3.191875,-1.21288 -6.240125,-3.52888 -8.101125,-5.394 l 1.302625,-1.2955 z m 7.44625,4.96875 c 2.03175,0.77212 4.102375,1.03787 5.832625,0.27212 l 0.74125,1.6845 c -2.232,0.98788 -4.7775,0.69313 -7.221625,-0.23587 l 0.64775,-1.72075 z m 5.832625,0.27212 1.777625,-0.78686 -0.518,1.874 -0.889,-0.24488 -0.370625,-0.84225 z m 1.259625,1.08714 c -0.231,0.83587 -0.501375,1.69299 -0.812125,2.55262 l -1.73475,-0.6265 c 0.29475,-0.816 0.550875,-1.62675 0.768875,-2.41575 l 1.778,0.48963 z M 29.94146,119.879 c -0.29025,0.80187 -0.618625,1.61462 -0.987875,2.42437 l -1.677375,-0.76325 c 0.342625,-0.75163 0.652625,-1.51974 0.9305,-2.28763 l 1.73475,0.6265 z m -0.987875,2.42437 c -1.556625,3.41288 0.07475,5.21 2.60325,6.36338 l -0.76325,1.67737 c -3.459625,-1.57775 -5.682375,-4.05636 -3.517375,-8.804 l 1.677375,0.76325 z m 2.60325,6.36338 c 1.61575,0.73662 3.571,1.24587 5.388,1.71924 l -0.460625,1.778 c -1.909125,-0.49712 -3.96325,-1.03249 -5.690625,-1.81987 l 0.76325,-1.67737 z m 5.388,1.71924 c 0.480125,0.12438 0.945375,0.24588 1.2795,0.33627 l -0.46775,1.77798 C 37.26446,132.367 36.87396,132.265 36.48421,132.16399 l 0.460625,-1.778 z m 1.2795,0.33627 c 2.191125,0.59236 5.97925,1.67875 9.384375,1.89462 l -0.1155,1.8425 c -3.568125,-0.22614 -7.474625,-1.3475 -9.736625,-1.95913 l 0.46775,-1.77799 z m 9.384375,1.89462 c 3.077375,0.19488 5.821,-0.3235 6.455875,-2.67987 l 1.778125,0.46775 c -0.94225,3.49687 -4.454625,4.30162 -8.3495,4.05462 l 0.1155,-1.8425 z m 6.455875,-2.67987 c 0.336,-1.24826 0.530875,-2.21238 0.612,-3.16838 l 1.8425,0.15087 c -0.08788,1.03863 -0.303625,2.10013 -0.676375,3.48526 L 54.064585,129.937 Z m 0.612,-3.16838 c 0.0815,-0.96063 0.04812,-1.89325 -0.07013,-3.076 l 1.82825,-0.17288 c 0.13325,1.33163 0.171875,2.3655 0.08438,3.39975 l -1.8425,-0.15087 z m -0.07013,-3.076 0.07188,-0.46063 0.84225,0.37425 -0.914125,0.0864 z m 0.07188,-0.46063 c 1.2395,-2.767 1.750375,-3.51425 2.6525,-4.83549 l 1.518625,1.03675 c -0.834,1.22137 -1.306375,1.91299 -2.486625,4.54712 l -1.6845,-0.74837 z m 2.6525,-4.83549 c 0.09213,-0.135 0.170875,-0.24988 0.402875,-0.59425 l 1.52575,1.029 c -0.0585,0.0871 -0.2505,0.36812 -0.41,0.602 l -1.518625,-1.03675 z m 0.402875,-0.59425 c 0.703375,-1.0435 1.026875,-1.7405 1.130375,-2.46113 l 1.82125,0.25225 c -0.148125,1.03175 -0.556,1.947 -1.425875,3.23788 l -1.52575,-1.029 z m 1.130375,-2.46113 c 0.108,-0.75687 -7.5e-4,-1.66037 -0.16475,-3.04125 l 1.82825,-0.20912 c 0.18,1.51624 0.300125,2.50762 0.15775,3.50262 l -1.82125,-0.25225 z m -0.16475,-3.04125 c -0.045,-0.37738 -0.08225,-0.67575 -0.108125,-0.87062 l 1.82125,-0.23026 c 0.05525,0.41413 0.09325,0.70651 0.115125,0.89175 l -1.82825,0.20913 z m -0.108125,-0.87062 c -0.0205,-0.15625 -0.06625,-0.47051 -0.13,-0.90813 l 1.82125,-0.2665 c 0.02837,0.196 0.07125,0.50175 0.13,0.94437 l -1.82125,0.23026 z m -0.13,-0.90813 -0.179625,-1.22887 1.227,0.185 -0.13675,0.91062 -0.910625,0.13325 z m 1.047375,-1.04387 c 2.606125,0.39187 5.163625,0.58575 7.70775,0.60237 l -0.0071,1.8425 c -2.630125,-0.017 -5.27625,-0.21787 -7.974125,-0.62362 l 0.2735,-1.82125 z m 7.70775,0.60237 c 2.551875,0.0162 5.09,-0.14487 7.649625,-0.46238 l 0.216125,1.82838 c -2.637625,0.327 -5.250125,0.49313 -7.872875,0.4765 l 0.0071,-1.8425 z m 7.649625,-0.46238 0.56875,1.71313 -0.460625,-0.799 -0.108125,-0.91413 z m 0.56875,1.71313 c -1.487125,0.86638 -2.9715,1.62963 -4.865375,2.60263 l -0.841875,-1.64125 c 1.869125,-0.96025 3.333875,-1.71363 4.786,-2.55938 l 0.92125,1.598 z m -4.865375,2.60263 c -0.138125,0.0709 -0.279875,0.14387 -0.422625,0.21712 l -0.842,-1.64125 c 0.142875,-0.0733 0.284625,-0.14625 0.42275,-0.21712 l 0.841875,1.64125 z m -0.422625,0.21712 c -1.946375,1.00063 -1.964125,3.1015 -1.27675,5.30187 l -1.756,0.54713 c -0.941875,-3.01462 -0.816375,-5.94425 2.19075,-7.49025 l 0.842,1.64125 z m -1.27675,5.30187 c 0.779875,2.49738 2.436,5.12538 3.475625,6.72738 L 70.80496,127.18 c -1.09525,-1.68776 -2.842,-4.4625 -3.691,-7.18088 l 1.756,-0.54713 z m 3.475625,6.72738 c 2.176,3.35374 4.22825,6.17738 6.584875,7.62162 l -0.957375,1.569 c -2.664875,-1.63313 -4.863875,-4.63863 -7.168125,-8.19 l 1.540625,-1.00063 z m 6.584875,7.62162 c 2.226625,1.36488 4.83025,1.49138 8.278625,-0.3745 l 0.871,1.627 c -4.120875,2.23025 -7.312375,2.02963 -10.107,0.31651 L 78.93046,133.801 Z m 8.278625,-0.3745 c 1.629625,-0.88201 2.176625,-1.83976 2.913255,-3.13051 l 1.60512,0.90702 c -0.89,1.55912 -1.55088,2.71562 -3.647375,3.85049 l -0.871,-1.627 z m 2.913255,-3.13051 c 0.29312,-0.5135 0.61487,-1.07612 1.08575,-1.77949 l 1.52575,1.02187 c -0.377,0.563 -0.70625,1.13925 -1.00638,1.66463 l -1.60512,-0.90701 z m 1.08575,-1.77949 0.32025,-0.29863 0.44262,0.80963 -0.76287,-0.511 z m 0.32025,-0.29863 c 0.53787,-0.29525 2.83575,-2.19337 5.0705,-4.04012 l 1.1735,1.418 c -2.31088,1.90988 -4.68813,3.87349 -5.35888,4.24137 l -0.88512,-1.61925 z m 5.0705,-4.04012 c 1.1505,-0.95038 2.2855,-1.88825 2.87437,-2.36376 l 1.15863,1.43925 c -1.07788,0.871 -1.96475,1.60338 -2.8595,2.3425 l -1.1735,-1.418 z m 2.87437,-2.36376 0.70575,-0.57012 0.58262,0.6995 -0.70912,0.59025 -0.57925,-0.71963 z m 1.28837,0.12938 c 0.36738,0.44075 0.9485,0.71325 1.73826,0.90238 l -0.42451,1.79225 c -1.17775,-0.28163 -2.08162,-0.73413 -2.73187,-1.51401 l 1.41812,-1.18062 z m 1.73826,0.90238 c 0.90675,0.21687 2.098,0.32324 3.54125,0.427 l -0.12975,1.8425 c -1.51263,-0.10913 -2.77538,-0.2235 -3.83601,-0.47725 l 0.42451,-1.79225 z m 3.54125,0.427 c 1.13175,0.0819 4.74725,0.0801 7.082,0.0794 l 0,1.8425 c -2.38538,0.001 -6.07888,0.003 -7.21175,-0.0794 l 0.12975,-1.8425 z m 7.082,0.0794 c 0.7405,-3.7e-4 1.35562,-3.7e-4 1.72374,0.002 l -0.007,1.8425 c -0.3675,-0.002 -0.97975,-0.002 -1.71675,-0.002 l 0,-1.8425 z m 1.72374,0.002 c 2.17563,0.0135 3.9005,-0.0832 5.03938,-0.7285 l 0.907,1.60513 c -1.503,0.85149 -3.49087,0.98112 -5.95338,0.96587 l 0.007,-1.8425 z m 5.03938,-0.7285 c 1.04062,-0.58962 1.666,-1.75113 1.82162,-3.92313 l 1.8425,0.12976 c -0.20662,2.88275 -1.1555,4.49112 -2.75712,5.3985 l -0.907,-1.60513 z m 1.82162,-3.92313 c 0.0796,-1.11574 0.0985,-1.78124 -0.027,-2.35162 l 1.79938,-0.39625 c 0.1775,0.80725 0.1615,1.59663 0.0701,2.87763 l -1.8425,-0.12976 z m -0.027,-2.35162 c -0.12537,-0.57125 -0.42087,-1.16337 -0.96837,-2.13637 l 1.61225,-0.9 c 0.63137,1.12187 0.97825,1.83375 1.1555,2.64012 l -1.79938,0.39625 z m -0.96837,-2.13637 -0.11513,-0.42838 0.92125,-0.0216 -0.80612,0.45 z m -0.11513,-0.42838 c -0.0355,-1.322 -0.0716,-2.645 -0.10637,-3.967 l 1.84262,-0.0433 c 0.0346,1.322 0.0709,2.64513 0.10625,3.96713 l -1.8425,0.0431 z m -0.10637,-3.967 c -0.035,-1.322 -0.0711,-2.64512 -0.10588,-3.96675 l 1.8425,-0.0433 c 0.0348,1.32163 0.0709,2.64475 0.106,3.96675 l -1.84262,0.0433 z m -0.10588,-3.96675 c -0.0382,-1.4195 -0.19175,-2.55862 -0.47237,-3.66625 l 1.78512,-0.4465 c 0.31575,1.2455 0.48763,2.51075 0.52975,4.0695 l -1.8425,0.0433 z m -0.47237,-3.66625 c -0.28313,-1.11587 -0.70475,-2.231995 -1.27413,-3.587995 l 1.69863,-0.71287 c 0.59887,1.42612 1.04675,2.616365 1.36062,3.854365 l -1.78512,0.4465 z m -1.27413,-3.587995 c -0.40325,-0.95875 -0.74874,-1.89037 -1.08712,-2.8035 l 1.72775,-0.6335 c 0.3225,0.87025 0.65162,1.75825 1.058,2.72413 l -1.69863,0.71287 z m 0.64063,-3.4405 0,0.004 -0.86388,0.31675 0.86388,-0.32025 z m -1.72775,0.64063 c -0.5265,-1.42013 -1.0375,-2.79788 -1.78725,-4.27825 l 1.64837,-0.82763 c 0.787,1.55363 1.31888,2.98725 1.86663,4.46525 l -1.72775,0.64063 z m -1.78725,-4.27825 -0.0829,-0.57225 0.90713,0.15837 -0.82425,0.41388 z m -0.0829,-0.57225 c 0.0907,-0.51375 0.16688,-0.99063 0.22463,-1.42263 l 1.82125,0.230375 c -0.0751,0.562255 -0.15275,1.062625 -0.23175,1.509005 l -1.81413,-0.31675 z m 0.22463,-1.42263 c 0.0521,-0.39225 0.10525,-0.883375 0.15837,-1.482875 l 1.8425,0.151 c -0.0386,0.43575 -0.0995,0.96025 -0.17962,1.56225 l -1.82125,-0.230375 z m 0.15837,-1.482875 0.1715,-1.9265 1.38688,1.33625 -0.63713,0.66575 -0.92125,-0.0755 z m 1.55838,-0.59025 c 0.90212,0.86875 1.805,1.739 2.70712,2.608255 l -1.27425,1.3315 c -0.90212,-0.86913 -1.80487,-1.73938 -2.707,-2.608255 l 1.27413,-1.3315 z m 2.70712,2.608255 2.02388,1.95012 -1.27413,1.33163 -2.024,-1.95025 1.27425,-1.3315 z m 2.02388,1.95012 c 1.46087,1.4075 2.79537,2.68625 4.2765,3.56 l -0.9355,1.591 c -1.65825,-0.97837 -3.07025,-2.33087 -4.61513,-3.81937 l 1.27413,-1.33163 z m 4.2765,3.56 c 1.42437,0.8405 3.03087,1.32775 5.11787,1.22913 l 0.0865,1.84262 c -2.49662,0.118 -4.42525,-0.46912 -6.13987,-1.48075 l 0.9355,-1.591 z m 5.11787,1.22913 c 2.25213,-0.10588 4.68463,-1.0725 6.70675,-2.56425 l 1.09425,1.4825 c -2.30312,1.699 -5.09987,2.801 -7.7145,2.92437 l -0.0865,-1.84262 z m 6.70675,-2.56425 c 1.92975,-1.42338 3.46825,-3.31188 4.09325,-5.367005 l 1.76388,0.532875 c -0.74663,2.45413 -2.53488,4.67288 -4.76288,6.31663 l -1.09425,-1.4825 z m 4.09325,-5.367005 c 0.2155,-0.709375 0.43125,-1.4195 0.64638,-2.1285 l 1.76375,0.532875 c -0.215,0.709 -0.43088,1.419125 -0.64625,2.1285 l -1.76388,-0.532875 z m 0.64638,-2.1285 c 0.25012,-0.825625 0.50162,-1.65225 0.75225,-2.4775 l 1.76375,0.533 c -0.2505,0.825125 -0.502,1.651875 -0.75225,2.477375 l -1.76375,-0.532875 z m 0.75225,-2.4775 0.24012,-0.790125 0.81075,0.153375 -0.169,0.90325 -0.88187,-0.2665 z m 1.05087,-0.63675 c 3.73075,0.705125 7.7935,0.951375 11.69788,0.542125 l 0.18,1.828375 c -4.08225,0.428 -8.32425,0.171125 -12.21588,-0.564125 l 0.338,-1.806375 z m 11.69788,0.542125 c 3.43025,-0.359625 6.73862,-1.2305 9.5825,-2.74775 l 0.86387,1.627 c -3.05537,1.630375 -6.59837,2.564375 -10.26637,2.949125 l -0.18,-1.828375 z m 9.5825,-2.74775 c 4.1655,-2.223125 7.29387,-5.50675 9.54637,-9.408625 l 1.598,0.91425 c -2.42037,4.192375 -5.78825,7.724 -10.2805,10.121375 l -0.86387,-1.627 z m 9.54637,-9.408625 0,-0.0037 0.799,0.460625 -0.799,-0.457125 z m 0,-0.0037 c 2.57388,-4.45825 4.01563,-9.718625 4.5645,-15.137375 l 1.82838,0.172875 c -0.5755,5.680625 -2.08988,11.2005 -4.79488,15.88575 l -1.598,-0.92125 z m 4.5645,-15.137375 c 0.44713,-4.416 0.1995,-10.438625 -0.725,-16.263375 l 1.81425,-0.28775 c 0.94813,5.973625 1.2005,12.16775 0.73913,16.724 l -1.82838,-0.172875 z m -0.725,-16.263375 c -0.81523,-5.138205 -2.15635,-10.106955 -4.0071,-13.649205 L 177.29096,26.108 c 1.94212,3.71725 3.34237,8.88625 4.18712,14.21075 l -1.81425,0.28775 z m -4.0071,-13.649205 c -0.14488,-0.27775 -0.38575,-0.58075 -0.69513,-0.886125 l 1.28838,-1.3175 c 0.44425,0.439125 0.80425,0.9 1.041,1.354 l -1.63425,0.849625 z M 174.96158,26.0715 c -0.78987,-0.77925 -1.96337,-1.51725 -3.17875,-1.935375 l 0.59738,-1.741875 c 1.47625,0.50775 2.90487,1.40775 3.86975,2.35975 l -1.28838,1.3175 z m -3.17875,-1.935375 c -1.1275,-0.388 -2.26375,-0.495 -3.07525,-0.07088 l -0.84962,-1.634125 c 1.30925,-0.68425 2.95825,-0.57475 4.52225,-0.03688 l -0.59738,1.741875 z m -3.07525,-0.07088 c -0.17,0.08863 -0.32875,0.204125 -0.46975,0.34725 l -1.3175,-1.288375 c 0.28213,-0.285875 0.59775,-0.515875 0.93763,-0.693 l 0.84962,1.634125 z m -0.46975,0.34725 c -0.75337,0.763625 -1.4145,1.729125 -2.07712,2.697125 l -1.51863,-1.03675 c 0.71575,-1.046 1.43038,-2.089125 2.27825,-2.94875 l 1.3175,1.288375 z m -2.07712,2.697125 c -0.87163,1.273125 -1.74725,2.551875 -2.88075,3.52025 l -1.19475,-1.40375 c 0.9585,-0.818875 1.75962,-1.988875 2.55687,-3.15325 l 1.51863,1.03675 z m -2.88075,3.52025 c -1.3875,1.185625 -2.99613,1.830875 -4.49,2.43 l -0.68388,-1.71275 c 1.3585,-0.544625 2.82113,-1.13175 3.97913,-2.121 l 1.19475,1.40375 z m -4.49,2.43 c -0.2605,0.10425 -0.516,0.207 -0.67825,0.273625 l -0.698,-1.70575 c 0.28625,-0.117625 0.49,-0.1995 0.69237,-0.280625 l 0.68388,1.71275 z m -0.67825,0.273625 -0.87975,0.3625 -0.33313,-0.898625 0.86388,-0.31675 0.349,0.852875 z m -1.21288,-0.536125 c -0.59562,-1.608625 -1.32662,-3.0455 -2.17275,-4.39625 l 1.56188,-0.978625 c 0.90537,1.445 1.69125,2.993 2.33862,4.741375 l -1.72775,0.6335 z m -2.17275,-4.39625 c -0.855,-1.365125 -1.82437,-2.636875 -2.88887,-3.905375 l 1.411,-1.180625 c 1.12325,1.338625 2.14362,2.677 3.03975,4.107375 l -1.56188,0.978625 z m -2.88887,-3.905375 c -0.82238,-0.979375 -1.62038,-1.712875 -2.482,-2.369 l 1.11537,-1.46125 c 0.96663,0.73625 1.85988,1.556875 2.77763,2.649625 l -1.411,1.180625 z m -2.482,-2.369 c -0.86,-0.65525 -1.83725,-1.26925 -2.9775,-1.982875 l 0.97862,-1.561875 c 1.1545,0.72275 2.1455,1.345375 3.11425,2.0835 l -1.11537,1.46125 z m -2.9775,-1.982875 c -3.21238,-2.0115 -5.90488,-4.3735 -8.65175,-6.783375 l 1.209,-1.388875 c 2.689,2.359125 5.32487,4.671125 8.42137,6.610375 l -0.97862,1.561875 z m -8.65175,-6.783375 c -1.1565,-1.014 -2.32325,-2.03775 -3.62763,-3.113125 l 1.17363,-1.425125 c 1.20712,0.995375 2.441,2.0775 3.663,3.149375 l -1.209,1.388875 z m -3.62763,-3.113125 c -6.0845,-5.016875 -11.7195,-7.447625 -17.70512,-7.824625 l 0.1155,-1.8425 c 6.38787,0.402125 12.3605,2.962875 18.76325,8.242 l -1.17363,1.425125 z M 116.39321,2.422745 c -6.03,-0.3795 -12.4735,1.30925 -20.1235,4.529375 l -0.713,-1.698625 c 7.90875,-3.329 14.60837,-5.07225 20.952,-4.67325 l -0.1155,1.8425 z M 96.26971,6.95212 c -3.60538,1.51725 -6.2735,3.302375 -8.588625,5.44325 l -1.245125,-1.3535 c 2.468625,-2.283 5.30363,-4.181875 9.12075,-5.788375 l 0.713,1.698625 z m -8.588625,5.44325 c -2.332625,2.157125 -4.338125,4.7055 -6.587,7.714125 l -1.4755,-1.10125 c 2.3035,-3.081625 4.3665,-5.69975 6.817375,-7.966375 l 1.245125,1.3535 z m -6.587,7.714125 -0.260125,0.34825 -0.430875,0.02238 -0.04675,-0.92125 0.73775,0.550625 z m -0.691,0.370625 c -1.28125,0.06663 -2.354125,0.2215 -3.421,0.648125 l -0.683875,-1.71287 c 1.291875,-0.516625 2.540875,-0.701625 4.011375,-0.77775 l 0.0935,1.8425 z m -3.421,0.648125 c -1.08325,0.432875 -2.19975,1.1575 -3.5675,2.36475 l -1.21675,-1.381875 c 1.539625,-1.358875 2.824375,-2.1855 4.100375,-2.69575 l 0.683875,1.712875 z m -3.5675,2.36475 c -1.053375,0.929375 -2.079875,1.8815 -3.087625,2.85625 l -1.28125,-1.3245 c 1.01125,-0.97825 2.05875,-1.949125 3.152125,-2.913625 l 1.21675,1.381875 z m -3.087625,2.85625 -0.0035,0.0037 -0.637125,-0.66575 0.640625,0.66225 z m -0.0035,0.0037 c -0.998125,0.96525 -1.972875,1.948875 -2.93175,2.949875 l -1.3315,-1.27425 c 0.97475,-1.017625 1.96825,-2.02 2.989125,-3.007125 l 1.274125,1.3315 z m -2.93175,2.949875 -0.521875,0.27 -0.143875,-0.907125 0.66575,0.637125 z m -0.521875,0.27 c -7.20175,1.147625 -13.038,2.40725 -18.2505,4.42625 l -0.662,-1.720625 c 5.32925,-2.064 11.282625,-3.349875 18.62475,-4.519875 l 0.28775,1.81425 z m -18.2505,4.42625 c -5.167625,2.001625 -9.72825,4.760875 -14.418875,8.91925 l -1.21675,-1.381875 c 4.865,-4.31325 9.601,-7.177 14.973625,-9.258 l 0.662,1.720625 z M 34.20046,42.918375 c -1.900625,1.684875 -3.53975,3.45825 -4.9695,5.3305 L 27.76971,47.1335 c 1.50625,-1.972875 3.22625,-3.835 5.214,-5.597 l 1.21675,1.381875 z m -4.9695,5.3305 c -1.430375,1.873 -2.6595,3.85625 -3.738875,5.958875 l -1.64125,-0.834875 c 1.125,-2.1915 2.413,-4.267125 3.918875,-6.239375 l 1.46125,1.115375 z m -3.738875,5.958875 -0.13675,0.198 -0.683875,-0.6155 0.820625,0.4175 z m -0.13675,0.198 c -1.04775,1.157625 -2.093375,2.331125 -3.214875,3.340625 l -1.230875,-1.37475 c 1.08275,-0.975125 2.07925,-2.093125 3.078,-3.19675 l 1.36775,1.230875 z m -3.214875,3.340625 c -1.175625,1.058375 -2.450125,1.958375 -3.923125,2.52575 l -0.661875,-1.72075 c 1.229125,-0.473375 2.325125,-1.2535 3.354125,-2.17975 l 1.230875,1.37475 z m -3.923125,2.52575 -0.0035,0 -0.327375,-0.860375 0.330875,0.860375 z m -0.0035,0 c -1.182125,0.45425 -1.76,0.682 -2.41475,0.404625 L 16.51196,58.978 c 0.02975,0.0125 0.32675,-0.149875 1.047,-0.426625 l 0.654875,1.72075 z m -2.41475,0.404625 -0.0036,-0.0037 0.36,-0.84575 -0.356375,0.849375 z m -0.0036,-0.0037 c -0.6905,-0.293 -0.88325,-0.86025 -1.310625,-2.000875 l 1.72775,-0.640625 c 0.242625,0.648375 0.23775,0.922375 0.302875,0.95 l -0.72,1.6915 z m -1.310625,-2.000875 -0.24025,-0.641625 0.5535,-0.416375 0.550625,0.73775 -0.863875,0.32025 z m 0.31325,-1.058 c 1.693,-1.272125 1.8535,-3.8055 2.007625,-6.2455 l 1.8425,0.1155 c -0.18,2.853125 -0.368125,5.816375 -2.748875,7.605375 l -1.10125,-1.475375 z m 2.007625,-6.2455 c 0.01987,-0.31925 0.04037,-0.636625 0.05775,-0.87875 l 1.8425,0.12975 c -0.02413,0.333375 -0.04113,0.599875 -0.05775,0.8645 l -1.8425,-0.1155 z m 0.05775,-0.87875 0.0655,-0.898875 0.899,0.0425 -0.04325,0.92125 -0.92125,-0.06487 z m 0.9645,-0.856375 c 1.51975,0.07225 2.212125,1.1445 2.959,2.301 l -1.54775,0.993625 c -0.47725,-0.739125 -0.920125,-1.42475 -1.49775,-1.452125 l 0.0865,-1.8425 z m 2.959,2.301 c 0.208375,0.322875 0.423125,0.65525 0.65025,0.941875 l -1.439375,1.1445 c -0.28625,-0.3615 -0.52575,-0.732125 -0.758625,-1.09275 l 1.54775,-0.993625 z m 0.83025,1.712125 -0.421375,1.885375 -1.198,-1.511125 0.719625,-0.57225 0.89975,0.198 z m -1.7994,-0.396175 c 0.311125,-1.391375 0.549625,-3.215875 0.212625,-4.709375 l 1.79225,-0.40325 c 0.41175,1.824125 0.14775,3.9285 -0.2055,5.50875 L 19.817835,53.2505 Z m 0.212625,-4.709375 c -0.214,-0.949625 -0.6725,-1.766 -1.525,-2.2075 l 0.841875,-1.64125 c 1.4095,0.73025 2.148625,1.996 2.475375,3.4455 l -1.79225,0.40325 z m -1.525,-2.2075 -0.7285,-0.377375 0.2855,-0.7635 0.863875,0.32025 -0.420875,0.820625 z m -0.443,-1.140875 c 0.136125,-0.364 0.33425,-0.86925 0.537875,-1.388375 l 1.712875,0.66975 c -0.159375,0.406375 -0.31925,0.815 -0.523,1.35925 L 18.06246,45.19275 Z m 0.537875,-1.388375 c 0.2715,-0.693 0.550375,-1.40375 0.84375,-2.238625 l 1.741875,0.6045 c -0.26225,0.745875 -0.571875,1.535375 -0.87275,2.303875 l -1.712875,-0.66975 z m 1.559875,-2.8435 1.5455,-0.268125 -0.51975,1.4775 -0.871,-0.30225 -0.15475,-0.907125 z m 0.309625,1.81425 c -1.784,0.309625 -5.712875,2.51425 -8.564875,5.474375 L 10.573335,46.975375 C 13.68471,43.746 18.10396,41.31775 20.16021,40.960875 l 0.309625,1.81425 z M 11.90496,48.2495 c -1.033625,1.072875 -1.9098749,2.231625 -2.4632499,3.4125 l -1.669625,-0.77025 c 0.65225,-1.391875 1.645875,-2.717 2.8012499,-3.916375 L 11.90496,48.2495 Z M 9.4417101,51.662 c -0.528,1.126125 -0.769,2.27875 -0.57475,3.39775 l -1.81425,0.309625 c -0.26325,-1.5165 0.04075,-3.03025 0.719375,-4.477625 l 1.669625,0.77025 z m -0.57475,3.39775 c 0.176125,1.0165 0.722125,2.0385 1.7503749,3.029125 L 9.3430851,59.4205 C 8.0102101,58.136 7.2947101,56.765875 7.0527101,55.369375 l 1.81425,-0.309625 z m 1.7503749,3.029125 0.2555,0.446125 -0.8926249,0.21975 0.6371249,-0.665875 z m 0.2555,0.446125 c 0.233875,0.95175 0.443625,1.756375 0.67175,2.4835 l -1.7559999,0.547125 c -0.23775,-0.757625 -0.45675,-1.59775 -0.700875,-2.59125 L 10.872835,58.535 Z m 0.67175,2.4835 c 0.21825,0.695625 0.456375,1.321 0.755125,1.9425 l -1.6625,0.7915 c -0.3335,-0.69375 -0.601,-1.398125 -0.8486249,-2.186875 L 11.544585,61.0185 Z m 0.755125,1.9425 c 0.662625,1.37825 1.711,2.217375 2.91925,2.605375 l -0.56125,1.756 C 12.98746,66.786 11.542835,65.636125 10.63721,63.7525 l 1.6625,-0.7915 z m 2.91925,2.605375 c 1.409625,0.4525 3.04975,0.313875 4.581875,-0.2835 l 0.66975,1.712875 c -1.9155,0.746875 -3.99375,0.910625 -5.812875,0.326625 l 0.56125,-1.756 z m 4.581875,-0.2835 1.599875,-0.624 -0.365375,1.674625 -0.899625,-0.19425 -0.334875,-0.856375 z m 1.2345,1.050625 c -0.434,1.991 -0.695875,4.077625 -0.78375,6.43425 l -1.8425,-0.0645 c 0.09175,-2.46075 0.368125,-4.653 0.827,-6.758125 l 1.79925,0.388375 z m -0.78375,6.43425 c -0.0875,2.357375 0.0018,5.002125 0.268625,8.108875 l -1.842625,0.151 c -0.270625,-3.15075 -0.36,-5.864875 -0.2685,-8.324375 l 1.8425,0.0645 z m 0.268625,8.108875 c 0.068,0.790875 0.1495,1.519375 0.243,2.1855 l -1.82125,0.2445 c -0.115875,-0.826625 -0.205125,-1.5885 -0.264375,-2.279 l 1.842625,-0.151 z m 0.243,2.1855 c 0.103125,0.734125 0.22925,1.485375 0.375625,2.249 l -1.806375,0.34575 c -0.148125,-0.772 -0.27925,-1.555875 -0.3905,-2.35025 l 1.82125,-0.2445 z m 0.375625,2.249 -0.03937,0.489625 L 20.23559,85.484"
       id="path68"
       style="fill:#000000;fill-opacity:1;fill-rule:nonzero;stroke:none"
       inkscape:connector-curvature="0" /><path
       d="m 67.231585,30.133 -12.129875,1.97125 -11.0685,4.85175 -9.40075,5.9135 -8.94575,10.916875 -5.053875,5.3525 -4.886625,1.801125 -1.2925,-3.158875 2.259875,-3.262 0.50775,-4.60025 1.51375,0.061 1.654,1.508625 -0.446125,-4.686 -1.833375,-1.229875 0.05562,-1.78575 -4.343,2.456875 -3.9327499,4.64 -0.819875,4.147 1.6816249,3.320875 1.568625,5.641625 3.190125,1.5105 3.355875,-0.16475 3.181875,-1.848875 -2.1225,10.76525 2.1225,11.978125 -2.3365,5.530745 -7.652875,8.245625 1.360625,4.92625 3.62525,5.70862 6.836,4.81075 3.625875,0.49613 4.03125,0.13675 -2.515,10.32512 9.249125,3.79075 11.5235,1.51613 3.941875,-2.57738 0.303375,-6.97462 4.39725,-7.278 0.30325,-5.76175 10.613625,0.75825 9.855375,-0.90988 -9.855375,5.91338 1.667875,7.12626 6.216375,9.70374 6.065125,2.57775 4.85175,-1.97113 1.971245,-3.94225 10.15862,-7.73261 1.97113,1.66787 15.92037,0.60624 3.18413,-2.57737 0.30325,-4.54888 -1.06125,-1.97087 -0.75825,-12.28138 -5.30675,-10.613615 0.9095,-4.700625 3.18438,1.667875 8.94575,8.3395 4.39687,0.303 4.85188,-1.97113 4.85225,-3.63862 2.42575,-7.884625 14.25262,0.909625 8.6425,-3.33575 6.97462,-6.519625 5.0035,-9.40075 1.21325,-11.06825 -1.06162,-12.888125 -2.729,-11.523125 -2.7295,-3.639 -3.79025,-1.21325 -6.67163,7.278 -6.06475,2.12275 -5.30687,-8.794125 -5.30675,-4.851875 -2.88113,-1.8195 -11.52312,-9.552375 -9.24913,-5.0035 -9.24912,-0.75825 -10.76488,1.8195 -9.40075,3.487375 -6.51974,5.30675 -5.155125,6.21675 -5.30675,1.516125 L 67.23158,30.133 Z"
       id="path70"
       style="fill:#ffff00;fill-opacity:1;fill-rule:evenodd;stroke:#1f1917;stroke-width:0.27000001;stroke-linecap:butt;stroke-linejoin:miter;stroke-miterlimit:10;stroke-dasharray:none;stroke-opacity:1"
       inkscape:connector-curvature="0" /><path
       d="M 32.051835,57.498 C 21.66146,69.6165 23.969585,84.3145 26.84921,98.714125 25.31246,94.831375 23.775335,90.949005 22.23871,87.06625 21.67246,83.507 21.10621,79.94775 20.53996,76.3885 c 0.161625,-3.640125 0.3235,-7.280125 0.4855,-10.920125 1.455875,-3.478125 2.911875,-6.95625 4.36775,-10.43475 2.184125,-3.235375 4.36825,-6.471125 6.552375,-9.706875 3.39725,-2.831125 6.794625,-5.66225 10.191875,-8.49325 3.720875,-1.53675 7.442,-3.073875 11.162875,-4.610625 4.367875,-0.56625 8.736,-1.132375 13.10425,-1.698625 -4.04475,4.6105 -8.089,9.2215 -12.13375,13.832 -9.74225,3.159875 -15.48775,5.288 -22.219,13.14175"
       id="path72"
       style="fill:#ffffcc;fill-opacity:1;fill-rule:evenodd;stroke:none"
       inkscape:connector-curvature="0" /><path
       d="m 80.96471,20.574625 c -7.223375,7.04725 -11.168875,12.36225 -15.765625,20.613875 -3.288125,5.902875 -6.976375,11.58775 -10.43325,17.407875 -1.748625,2.946 -1.91375,5.416375 -2.436375,8.813375 -1.698625,-2.02225 -3.39725,-4.044375 -5.096,-6.0665 0.809,-2.426875 1.617875,-4.853625 2.426875,-7.280125 2.75025,-4.934375 5.500625,-9.868875 8.250625,-14.802875 5.824125,-5.743375 11.64825,-11.486375 17.472375,-17.229625 1.86025,-0.4855 3.72075,-0.970625 5.581375,-1.456"
       id="path74"
       style="fill:#ffffcc;fill-opacity:1;fill-rule:evenodd;stroke:none"
       inkscape:connector-curvature="0" /><path
       d="m 116.63696,3.102625 c -5.78513,2.169125 -15.39288,2.8835 -16.05937,9.523625 -0.47475,4.7155 0.3555,7.084875 3.19787,12.073875 -7.02037,-7.2645 -8.75663,-6.14025 -22.325625,-3.88275 1.941375,-2.750375 3.88275,-5.500625 5.824125,-8.251 3.39725,-2.102875 6.795,-4.20625 10.19225,-6.30925 4.36788,-0.97075 8.73613,-1.941375 13.10425,-2.912125 2.02213,-0.08088 4.04438,-0.161625 6.0665,-0.242375"
       id="path76"
       style="fill:#ffffcc;fill-opacity:1;fill-rule:evenodd;stroke:none"
       inkscape:connector-curvature="0" /><path
       d="m 132.60059,92.920125 c 1.92612,1.18875 1.88475,2.05013 1.56262,2.86513 1.51938,-0.60813 3.03838,-1.21575 4.55775,-1.82313 0.98437,-1.32162 1.96838,-2.64287 2.95262,-3.964875 0.73063,-1.883 1.46125,-3.765875 2.19188,-5.649125 -0.93363,-0.701875 -1.86688,-1.403875 -2.80062,-2.106125 -4.08013,0.520875 -8.16051,1.04175 -12.24063,1.562625 -0.30375,0.824875 -0.60775,1.64975 -0.91175,2.47425 0.0871,1.172125 0.174,2.343875 0.26075,3.516 0.3905,0.6945 0.78137,1.38938 1.17187,2.0835 0.60801,0.304 1.21563,0.608 1.82301,0.91163 0.478,0.0436 0.95525,0.0872 1.4325,0.13012"
       id="path78"
       style="fill:#cccc00;fill-opacity:1;fill-rule:evenodd;stroke:none"
       inkscape:connector-curvature="0" /><path
       d="m 131.46108,71.986625 c -6.13562,1.77125 -6.08775,2.259125 -7.89974,8.34625 2.39199,-3.83775 4.16299,-5.7745 7.89974,-8.34625"
       id="path80"
       style="fill:#cccc00;fill-opacity:1;fill-rule:evenodd;stroke:none"
       inkscape:connector-curvature="0" /><path
       d="m 172.25909,26.4335 c -1.09063,0.503875 -2.15251,0.7465 -2.83426,1.744375 -1.468,2.147625 -2.72587,3.95425 -5.15337,5.462 -1.2225,0.759625 -2.48713,1.2515 -3.78363,1.655375 -1.07537,0.3345 -1.721,0.03587 -2.6365,0.6935 0.54313,0.09488 1.086,0.189875 1.62913,0.28525 1.19737,0 2.39462,0 3.59187,0 1.47613,-0.91175 2.952,-1.823375 4.42776,-2.73475 0.86849,-0.91175 1.73625,-1.823 2.60437,-2.73475 0.71812,-1.457 1.43638,-2.914375 2.15463,-4.371"
       id="path82"
       style="fill:#cccc00;fill-opacity:1;fill-rule:evenodd;stroke:none"
       inkscape:connector-curvature="0" /><path
       d="m 74.521585,40.05 c -2.414125,6.605125 -4.523,12.267375 -8.180125,18.24775 4.686,-5.0485 7.526375,-9.3395 10.210125,-15.047375 1.042375,-2.217 1.239375,-4.818875 4.143125,-3.85125 0.130375,2.213875 0.5985,4.427375 0.728875,6.64125 1.569,-11.246875 5.993125,-15.949875 16.277625,-20.3145 -2.90838,0.347625 -5.81675,0.6945 -8.72475,1.04175 -2.73475,0.608 -5.469375,1.215375 -8.204125,1.823 -1.34575,1.9535 -2.6915,3.906875 -4.036875,5.86 -0.738125,1.8665 -1.475875,3.733125 -2.213875,5.599375"
       id="path84"
       style="fill:#cccc00;fill-opacity:1;fill-rule:evenodd;stroke:none"
       inkscape:connector-curvature="0" /><path
       d="m 94.44558,39.789625 c 2.21775,10.438875 5.411,20.456875 6.79825,31.061375 0.90101,6.890625 0.99951,10.201125 -2.46762,16.14575 -3.78887,-0.244875 -6.14125,0.1825 -9.806125,1.38325 -14.59025,4.782875 -22.95775,11.81487 -32.788625,-2.354125 3.13825,1.478625 6.276875,2.957625 9.414875,4.437 2.23725,-0.43975 4.4745,-0.8795 6.71175,-1.31925 3.95,-2.300625 7.900125,-4.601 11.85025,-6.901625 3.081875,-0.608 6.163875,-1.215375 9.245505,-1.823 0.9985,-4.167 1.99662,-8.33425 2.99512,-12.501125 -0.738,-5.513125 -1.47612,-11.02575 -2.21375,-16.5385 -0.0865,-2.60425 -0.17337,-5.208625 -0.2605,-7.81325 0.174,-1.259 0.34763,-2.517625 0.52088,-3.7765"
       id="path86"
       style="fill:#cccc00;fill-opacity:1;fill-rule:evenodd;stroke:none"
       inkscape:connector-curvature="0" /><path
       d="m 119.57858,104.37987 c -1.22562,8.48088 2.82188,13.04013 1.14625,15.38188 -0.47474,0.66326 -1.11787,1.82012 -1.83575,2.13725 -2.56462,1.13287 -6.09025,-0.21188 -6.3425,0.45149 -2.8215,0 -5.64275,0 -8.46462,0 -1.12813,-0.478 -2.25675,-0.95536 -3.38563,-1.43262 1.73625,-2.04025 3.47275,-4.0805 5.209,-6.12038 1.69263,-3.68962 3.38563,-7.37962 5.07863,-11.06887 1.08537,-3.732865 2.17062,-7.465745 3.25525,-11.198995 0.5645,0 1.12887,0 1.693,0 1.21575,3.95013 2.431,7.900125 3.64637,11.850245"
       id="path88"
       style="fill:#cccc00;fill-opacity:1;fill-rule:evenodd;stroke:none"
       inkscape:connector-curvature="0" /><path
       d="m 105.35183,79.724875 c 0.6875,3.850875 1.88151,4.76575 3.69288,8.49325 -1.20575,6.081 -3.1425,13.312875 -5.47337,18.678245 -0.98288,2.26275 -1.77625,3.51025 -3.50925,5.25888 -2.92575,2.9545 -5.88363,5.52825 -9.202,8.08899 -2.38813,1.84113 -4.055255,0.91776 -7.002255,0.50038 -1.25325,2.272 -1.5995,3.53413 -3.906125,4.6875 -3.547625,1.77375 -6.722375,-2.04875 -9.50675,-4.297 2.010125,3.13975 4.02025,6.27938 6.03,9.41913 1.389375,1.30212 2.778375,2.60437 4.167375,3.90687 1.17175,0.17325 2.343875,0.34688 3.516,0.52088 1.562625,-0.95526 3.125125,-1.91025 4.68775,-2.86513 0.824875,-1.56262 1.649755,-3.12525 2.474255,-4.68774 1.73625,-1.30225 3.47287,-2.60438 5.20875,-3.90689 2.12737,-1.82299 4.25437,-3.64611 6.38112,-5.46912 1.34575,-1.91025 2.69113,-3.81999 4.03688,-5.72987 1.215,-2.25713 2.43075,-4.5145 3.646,-6.77163 1.56262,-4.68775 3.12525,-9.375865 4.68825,-14.063745 0.13,-1.780125 0.26037,-3.559625 0.39037,-5.339 -1.95338,-0.8685 -3.9065,-1.736625 -5.85987,-2.60475 -1.43251,-1.34575 -3.02738,-2.473875 -4.46001,-3.81925"
       id="path90"
       style="fill:#cccc00;fill-opacity:1;fill-rule:evenodd;stroke:none"
       inkscape:connector-curvature="0" /><path
       d="m 58.634835,106.85375 c 6.5725,0 13.513375,-0.3645 19.533125,-3.12513 1.703625,-2.55575 3.385,-4.642865 5.4695,-6.901615 -1.897125,3.582995 -2.492,5.608245 -2.995125,9.636375 -0.651375,0.95449 -1.30225,1.90975 -1.9535,2.86475 -4.948625,0.13038 -9.89675,0.26037 -14.845375,0.39074 -1.606125,-0.17386 -3.212375,-0.34749 -4.81825,-0.52087 -0.1735,-0.17388 -0.347125,-0.34751 -0.52075,-0.52088 0.0435,-0.608 0.08713,-1.21562 0.130375,-1.82337"
       id="path92"
       style="fill:#cccc00;fill-opacity:1;fill-rule:evenodd;stroke:none"
       inkscape:connector-curvature="0" /><path
       d="m 57.723085,102.296 c -0.17,-1.54062 -0.340125,-3.081875 -0.51025,-4.623245 -1.122875,6.758865 -0.852875,11.288255 -3.9635,17.342745 -2.32375,2.6925 -5.184625,5.14237 -8.461375,6.45337 0.276625,1.66 0.35925,2.69713 0.19875,3.91426 -0.57725,4.37774 -9.334875,2.44387 -12.937,2.2695 5.779875,1.48824 11.55975,2.97599 17.339125,4.46424 1.30225,-0.52087 2.604375,-1.04175 3.906875,-1.56262 0.434125,-2.5175 0.868125,-5.03538 1.30225,-7.55288 1.21525,-2.25711 2.431,-4.5145 3.646,-6.77124 0.216875,-1.38937 0.434125,-2.77837 0.65125,-4.16725 -0.39075,-3.25562 -0.78125,-6.51125 -1.172125,-9.76687"
       id="path94"
       style="fill:#cccc00;fill-opacity:1;fill-rule:evenodd;stroke:none"
       inkscape:connector-curvature="0" /><path
       d="m 47.956335,64.141375 c -0.18175,3.286375 -0.394,4.656625 1.05525,7.55925 1.8425,3.689375 4.10525,7.155375 6.10725,10.80175 0.21675,-2.431 0.433625,-4.86175 0.650875,-7.292375 -2.604375,-3.68975 -5.20875,-7.379375 -7.813375,-11.068625"
       id="path96"
       style="fill:#cccc00;fill-opacity:1;fill-rule:evenodd;stroke:none"
       inkscape:connector-curvature="0" /><path
       d="m 21.224585,88.967125 c -0.56375,1.19988 -1.1275,2.4 -1.69125,3.59975 1.551625,5.226 2.930625,8.536495 5.885125,13.101995 -0.5145,1.85 -0.899625,2.65925 -2.0835,4.167 -2.600125,-0.40012 -4.908875,-0.51562 -7.543375,-0.50775 2.90875,2.257 5.817125,4.51413 8.725125,6.77163 1.432125,-0.2605 2.86475,-0.52088 4.29725,-0.78138 1.43225,-1.4325 2.86475,-2.86475 4.297375,-4.29725 -2.040625,-3.16887 -4.0805,-6.33762 -6.120375,-9.50637 -1.92225,-4.182495 -3.8445,-8.365375 -5.766375,-12.547625"
       id="path98"
       style="fill:#cccc00;fill-opacity:1;fill-rule:evenodd;stroke:none"
       inkscape:connector-curvature="0" /><path
       d="m 172.27821,24.704375 c 1.771,7.96925 4.05538,15.32225 3.8435,23.484 -0.26012,10.013 -2.21175,22.661125 -11.48925,28.699375 -10.38962,6.762 -22.58575,3.56375 -33.98525,0.6665 4.64488,1.90975 9.2895,3.81925 13.93375,5.7295 4.34088,0.217125 8.68175,0.434 13.02225,0.65125 2.952,-0.8685 5.9035,-1.736625 8.85513,-2.604375 2.30062,-1.910125 4.60137,-3.82 6.90162,-5.729875 1.73625,-3.646 3.4725,-7.2925 5.209,-10.9385 0.651,-4.210875 1.30225,-8.421375 1.95313,-12.6315 -0.52088,-4.124125 -1.04175,-8.2475 -1.56263,-12.371125 -0.95487,-4.0805 -1.91012,-8.161 -2.86475,-12.24075 -1.272,-0.905 -2.54412,-1.809625 -3.8165,-2.7145"
       id="path100"
       style="fill:#cccc00;fill-opacity:1;fill-rule:evenodd;stroke:none"
       inkscape:connector-curvature="0" /><path
       d="m 17.22846,48.4555 c -4.716875,3.069875 -6.569375,4.41775 -6.052375,10.10725 0.469875,1.704 0.94,3.408375 1.41025,5.11225 0.66575,0.45075 1.331875,0.901125 1.99775,1.351875 0.82275,0.273875 1.6455,0.548125 2.46825,0.822375 1.4885,-0.352625 2.977125,-0.705125 4.466,-1.05775 0.763875,-2.370125 1.527875,-4.740125 2.29175,-7.11025 -2.115625,1.038125 -4.231,2.076375 -6.346375,3.1145 -0.48975,0 -0.979375,0 -1.469125,0 -0.5485,-0.84225 -1.097,-1.6845 -1.6455,-2.52675 0.666125,-0.979375 1.332,-1.95875 1.998125,-2.938125 C 16.69971,53.47 17.052335,51.609 17.404835,49.7485 c 0.450375,0.137125 0.901125,0.273875 1.3515,0.411 0.5485,0.43125 1.097,0.862 1.6455,1.292875 -0.07837,-0.979375 -0.156625,-1.95875 -0.23525,-2.938125 -0.372125,-0.62675 -0.744125,-1.2535 -1.1165,-1.880375 -0.372125,-0.313625 -0.744125,-0.62675 -1.1165,-0.940375 -0.235,0.920875 -0.469875,1.8415 -0.705125,2.762"
       id="path102"
       style="fill:#cccc00;fill-opacity:1;fill-rule:evenodd;stroke:none"
       inkscape:connector-curvature="0" /><path
       d="m 123.04996,3.622 c 4.18575,3.887 9.32388,7.265875 12.672,12.0165 1.29575,1.83925 2.73575,2.779625 -0.022,5.376875 2.91363,-0.83225 3.99612,-0.741875 6.32838,-0.459125 4.24275,0.513375 8.21937,6.5445 8.47312,10.866625 -0.05,0.40425 -1.1785,1.321625 -4.459,2.22725 -0.0651,0.126125 -1.85137,-0.2445 -1.807,-0.123625 0.34087,0.932875 0.7965,1.07575 1.492,1.51225 0.151,1.0375 0.24812,2.63725 0.95462,3.7715 2.06438,-0.03612 4.0815,0.1885 6.103,0.588875 0.68025,1.12825 0.5775,2.256375 0.52088,3.385625 0.78125,-0.13 1.56262,-0.260375 2.34387,-0.3905 -0.21725,-1.780125 -0.434,-3.5595 -0.65087,-5.339 0.69412,-1.172125 1.38862,-2.34425 2.08337,-3.516 -0.99875,-2.257125 -1.997,-4.51425 -2.99512,-6.771625 -1.91013,-1.823 -3.82,-3.646125 -5.72988,-5.4695 -0.1835,-0.0087 -0.36812,-0.01838 -0.55162,-0.02725 -2.148,-1.3185 -4.29563,-2.63625 -6.44325,-3.954375 -3.50325,-2.866125 -7.0065,-5.732625 -10.50975,-8.598875 C 128.25158,7.019 125.65083,5.320375 123.04996,3.622"
       id="path104"
       style="fill:#cccc00;fill-opacity:1;fill-rule:evenodd;stroke:none"
       inkscape:connector-curvature="0" /><path
       d="m 130.10158,35.707 c -0.22075,0.38625 -0.55424,1.0035 -0.98149,1.430875 1.74362,1.649375 2.60387,2.75375 3.22537,5.086375 -1.97113,0.978625 -3.94188,1.95725 -5.913,2.936 -1.66788,1.59875 -3.33575,3.19775 -5.0035,4.7965 -2.19513,-1.181625 -2.74225,-2.089125 -3.8045,-4.341875 -1.237,0.327375 -2.40913,0.64275 -3.43062,0.267875 0.64812,0.005 1.04637,-0.157 1.69375,-0.557375 1.06149,-1.10275 2.12274,-2.205375 3.18399,-3.308125 1.87475,-1.41975 3.7495,-2.8395 5.62388,-4.259 1.22675,-0.4 2.45375,-0.79975 3.6805,-1.199375 0.46837,-0.19275 1.25675,-0.65875 1.72562,-0.851875"
       id="path106"
       style="fill:#cccc00;fill-opacity:1;fill-rule:evenodd;stroke:none"
       inkscape:connector-curvature="0" /><path
       d="m 135.54233,41.58925 c -6.27099,3.3765 -12.27725,6.772375 -15.48362,13.185 0,-8.139625 8.17263,-11.722625 15.48362,-13.185"
       id="path108"
       style="fill:#cccc00;fill-opacity:1;fill-rule:evenodd;stroke:none"
       inkscape:connector-curvature="0" /><path
       d="m 118.81358,25.57775 c -4.65625,3.174875 -7.94899,9.581875 -7.53512,15.82625 -1.51688,-5.40675 -0.97938,-10.515875 3.67787,-14.2505 0.786,-0.382 1.57151,-0.764 2.357,-1.145875 0.50038,-0.14325 1.00038,-0.286375 1.50025,-0.429875"
       id="path110"
       style="fill:#cccc00;fill-opacity:1;fill-rule:evenodd;stroke:none"
       inkscape:connector-curvature="0" /><path
       d="m 127.71408,73.7795 c 0.96238,-0.52375 2.7095,-1.244 3.67188,-1.76775 -0.99,0.16725 -2.76487,0.531125 -3.75487,0.698 -2.64438,0.4465 -2.95538,1.082125 -3.36575,3.68575 -0.1935,1.226 -0.45988,2.747125 -0.65338,3.9735 0.51838,-1.3865 1.142,-2.998 1.74613,-4.320375 0.63925,-1.3985 0.99925,-1.530375 2.356,-2.269125 z M 78.64921,6.725625 C 80.727335,3.6085 81.923835,2.5945 85.12171,0.61975 c -4.34225,1.046 -5.17,1.85 -6.4725,6.105875 z m -0.683875,6.86725 C 81.601835,6.282375 84.355335,3.5905 91.96884,0 83.35721,2.11075 80.825835,3.61175 77.965335,13.592875 Z M 0.09083505,51.6445 c 0.798,-3.660625 1.54175005,-5.0415 3.79875005,-8.0465 -3.66125005,2.557875 -4.13850005,3.6085 -3.79875005,8.0465 z M 81.60246,112.91212 c -0.110125,-0.88825 -0.22075,-1.77725 -0.331625,-2.66562 -0.1995,-1.60938 -0.191625,-2.91725 -0.06338,-4.53725 0.123625,-1.56788 0.246625,-3.13575 0.369875,-4.704 -0.45675,1.59375 -1.3695,3.1875 -1.825875,4.78125 -0.1825,0.63787 -0.33375,1.15375 -0.42025,1.63062 -6.814125,1.39225 -13.578625,1.47938 -20.3945,0.26338 -0.43475,-2.52325 -0.964125,-5.15275 -1.408125,-7.03738 -0.134625,2.11113 -0.04788,7.94725 -0.05888,11.21488 -0.0085,2.532 -0.115125,3.39875 -1.4205,5.55237 -1.222375,2.0165 -1.740125,2.47388 -3.451125,5.88051 0.142125,2.14938 0.144875,3.57087 -0.42625,5.61112 -0.95,3.39137 -10.53075,0.76362 -13.0585,0.0716 -3.1125,-0.85187 -9.5475,-2.11824 -7.92925,-6.26775 1.424375,-3.65175 2.326875,-7.50187 3.02275,-12.61212 -5.7025,-8.21475 -11.006125,-19.472875 -12.0235,-29.447375 -0.790125,-7.74525 -0.316,-12.512375 1.36,-17.249875 2.655625,-7.506125 6.3705,-14.00375 12.332125,-19.235875 8.041125,-7.05575 15.55825,-9.89 27.32775,-11.68125 -2.830125,3.168125 -5.630375,6.518625 -8.6825,10.110875 -3.08975,3.63725 -4.926,7.3105 -6.8875,11.28825 -2.71025,5.49425 -2.65225,7.584875 0.94075,12.408 3.096125,4.156625 4.7675,6.02825 6.11925,10.094875 -1.1165,2.301375 -1.52225,4.245875 -1.89775,7.3885 3.791,4.1435 6.607875,6.98313 10.288625,7.858 3.610375,0.85813 6.625625,0.69163 9.855375,-0.95925 7.174125,-3.668 13.811875,-8.403625 21.90438,-8.5995 3.74387,-9.2045 3.3655,-16.894875 1.56787,-25.80025 -1.22737,-6.08175 -1.7195,-11.840375 -2.1015,-18.04075 -1.51787,6.385375 -1.8025,12.00075 -0.67675,18.361 1.35775,7.66525 2.413,16.13375 -1.3635,22.87025 -7.31725,0.56025 -13.5885,5.012 -20.184,8.42775 -2.65075,1.3735 -5.41075,1.507 -8.34525,0.701625 -2.72375,-0.748 -4.561625,-2.54975 -7.495875,-5.934 -0.04575,-3.397625 0.72075,-4.965875 2.280875,-8.042625 2.506875,-4.941375 5.274125,-9.541 8.310375,-14.4035 -3.71825,4.488375 -7.24075,8.2375 -10.167125,12.7495 -1.118625,-3.187125 -2.71775,-4.805 -5.367375,-8.393375 -2.588,-3.504625 -2.859125,-5.039625 -0.924125,-9.09525 1.945625,-4.075875 3.59575,-7.6585 6.907375,-11.234125 5.722,-6.179125 10.963625,-13.056375 17.221125,-19.141625 3.397375,-3.304125 4.77675,-3.19 9.2835,-3.873125 4.073,-0.61725 8.05038,-1.396875 12.2045,-2.362 -4.01775,0.3745 -7.901125,0.512375 -11.81225,0.609375 -0.04075,0.0011 -0.08075,0.0025 -0.12125,0.0025 3.848125,-4.9145 6.08138,-7.652875 12.33113,-10.368375 15.3875,-6.683125 25.1645,-7.405875 37.25187,2.754875 3.13263,2.633375 5.86875,5.189875 9.04538,7.461875 -1.15163,0.0985 -2.14413,0.305 -3.45688,0.820625 1.59763,-0.304375 3.44263,-0.0025 5.1005,0.3005 0.46563,0.301875 0.94363,0.59625 1.434,0.885375 2.24188,1.321 3.51463,2.050625 5.03113,4.16375 1.603,2.233 2.93887,4.46425 4.11662,6.923625 -0.77175,-0.275625 -1.41875,-0.50875 -1.9955,-0.68025 -0.4245,-0.1945 -0.88625,-0.323125 -1.37587,-0.37025 -0.96988,-0.09325 -1.89788,0.14525 -2.671,0.621125 -0.0311,0.0145 -0.062,0.02862 -0.0935,0.04387 -1.24025,0.60375 -3.16175,1.29225 -4.44763,1.501 0.6555,0.226375 2.10613,0.311125 2.79038,0.04038 0.0917,-0.0365 0.185,-0.06413 0.28062,-0.08713 -0.30862,0.525125 -0.51025,1.12175 -0.57225,1.766 -0.0821,0.85425 0.0915,1.674125 0.45888,2.386 0.001,0.0025 0.002,0.005 0.004,0.0075 0.11625,0.273125 0.2775,0.525375 0.455,0.706875 -0.58813,0.216125 -1.18775,0.46375 -1.806,0.732375 2.86725,-0.436875 5.45275,-0.512 8.25162,-0.143125 0.18463,0.88225 0.37063,1.817 0.54288,2.768 -0.34688,0.02763 -0.69275,0.05387 -1.03925,0.08113 -0.028,0.0025 -0.0564,0.005 -0.0844,0.0075 -1.32412,-1.058375 -2.7995,-0.8805 -4.815,-0.4205 -6.12925,1.39775 -4.68887,4.83725 -7.509,10.019375 2.92788,-3.579125 2.711,-7.323625 7.48213,-8.453625 1.11187,-0.26325 1.86875,-0.5925 2.62125,-0.479375 -1.3545,0.681375 -2.52638,1.810625 -2.99088,3.122 -1.30962,3.698125 -0.49637,6.814125 -1.935,10.268125 1.78225,-3.087625 1.88963,-6.10125 3.48313,-9.34975 0.57225,-1.167125 2.69637,-3.035125 4.00037,-3.063875 0.35788,-0.0075 0.715,-0.01525 1.07325,-0.023 0.31425,2.05575 0.50525,4.096375 0.38338,5.789375 -0.22213,3.089 -1.02475,7.674125 -1.50513,9.428375 1.61425,-2.075 2.3495,-6.470125 3.0585,-9.56375 0.7385,-3.221875 0.55213,-7.087625 -0.0942,-10.548375 -0.88687,-4.74875 4.00363,-3.976375 6.84288,-6.21425 2.087,-1.6455 3.5235,-4.2725 5.43712,-6.1335 1.89825,-1.845375 4.88588,0.866375 5.63213,2.670625 3.2375,7.831375 4.71225,20.1525 3.85725,28.047 -0.9595,8.858625 -5.23875,18.529375 -13.05213,22.890875 -9.96025,5.559125 -21.7045,2.16275 -31.60025,-1.171125 -2.11212,-0.7115 -3.58087,-1.748625 -5.43762,-2.91825 0.50562,2.27625 0.73525,4.685375 0.0627,6.95875 -1.06763,3.60675 -2.79175,9.50813 2.1055,10.59663 1.86375,0.41412 2.70887,0.35425 5.34037,-1.0035 -2.12987,0.4815 -3.2035,0.3635 -4.66725,0.0931 -1.3265,-0.24437 -2.02987,-1.08737 -2.4005,-2.08087 0.46338,0.33475 1.21925,0.51687 2.51075,0.828 3.6305,0.87487 7.09013,-0.87238 7.76663,-3.390255 0.39462,-1.47075 0.32737,-2.24325 1.16325,-4.247375 0.75075,0.231375 1.52787,0.44325 2.32437,0.63575 -0.44925,1.465875 -0.89925,2.9335 -1.34887,4.399375 -1.16688,3.806125 -5.71263,6.875375 -9.72675,6.804875 -3.71063,-0.0659 -6.063,-2.39025 -8.6245,-4.669 -1.76488,-1.570375 -3.46313,-3.07275 -5.14663,-4.560625 -4.618,-1.457 -8.31962,-3.159875 -12.60562,-6.332875 3.05,3.58475 5.11937,5.569 9.37312,7.352625 -0.619,6.310375 -2.812,10.911255 -4.68175,16.9505 -0.84587,2.73125 -7.52675,13.67287 -9.37812,14.73987 -1.32025,0.76038 -9.58888,7.72538 -11.144755,8.64388 -1.158375,1.53887 -2.17525,3.6645 -3.91675,4.585 -5.30725,2.80625 -8.717625,-2.56713 -11.573875,-7.10575 -1.30075,-2.0675 -4.911375,-8.02238 -1.7635,-9.69063 2.976375,-1.57675 4.643125,-2.70275 7.67975,-4.69625 0.446125,0.81313 1.212125,1.59763 1.711,2.41013 z m 18.45038,9.62151 c -2.68688,2.17062 -7.20525,6.01299 -8.08188,6.49424 -1.58738,2.36937 -1.78337,3.83562 -4.326375,5.21213 -7.57025,4.09637 -11.588,-0.65438 -16.06925,-7.56038 -2.13525,-3.29062 -6.803875,-10.8035 -1.849625,-13.35037 2.087375,-1.07301 3.6695,-1.87726 5.247625,-2.79638 -5.197375,0.64488 -10.29825,0.65263 -15.60225,-0.14537 0.09388,0.64 0.17575,1.249 0.242,1.8075 0.34475,2.898 0.457875,3.78675 -1.1165,6.12176 -1.147625,1.70286 -1.589875,2.19574 -2.976,5.28949 0.25225,2.515 0.14275,3.93051 -0.566875,6.56462 -1.5775,5.85387 -12.509,2.64513 -16.96325,1.44037 -5.359625,-1.44925 -13.018125,-2.79887 -9.875625,-9.68949 0.736375,-1.61438 1.314625,-3.2655 1.74975,-4.84025 -4.686375,2.07426 -11.199,-2.32576 -14.30075,-5.43538 -2.95025,-2.95799 -4.552875,-6.39287 -5.11125,-9.72599 -0.4754999,-2.836755 -0.04012,-2.823005 1.98425,-4.828505 1.852,-1.83325 3.703375,-3.66875 5.554875,-5.501 0.747625,-2.03525 1.496625,-4.06875 2.243875,-6.102625 -0.29125,-1.519375 -0.50775,-3.034875 -0.63675,-4.53575 C 19.06096,74.694375 19.24171,70.238 20.13571,66.14125 16.874835,67.413625 13.133085,66.817625 11.468835,63.356875 10.83596,62.04125 10.45896,60.701125 9.9809601,58.7555 2.7068351,51.746875 16.338335,42.55875 20.31496,41.86775 c -0.454625,1.291875 -0.95275,2.473625 -1.391125,3.645375 2.696875,1.396125 2.36625,5.374125 1.793625,7.93525 -0.970125,-1.22425 -1.50625,-2.825125 -2.933125,-2.893875 -0.209,2.896375 -0.172875,6.097 -2.434875,7.7975 0.669625,1.79 0.6345,1.7915 2.537625,1.05975 2.702875,-1.040625 4.738125,-3.35875 6.7855,-5.621125 2.205,-4.295125 5.0315,-8.115875 8.919875,-11.56325 9.55525,-8.471625 18.587125,-11.24325 33.13025,-13.560875 1.93575,-2.020125 3.93625,-3.96925 6.0835,-5.8645 2.909125,-2.567125 4.798,-3.100125 7.549375,-3.243625 C 84.90846,13.4685 88.49071,9.2275 95.91359,6.103 c 15.559,-6.549 26.2835,-6.86475 38.77162,3.432125 4.12688,3.40225 7.64638,6.98775 12.18187,9.828 2.29525,1.43725 3.93551,2.470375 5.67563,4.542625 2.18837,2.60775 3.97562,5.215625 5.21962,8.57225 1.60726,-0.6615 3.44025,-1.28475 4.92026,-2.54975 1.91087,-1.63275 3.12662,-4.36575 4.8965,-6.15975 2.34925,-2.380625 7.70812,0.49325 8.89475,2.7645 4.03587,7.72375 5.687,21.958625 4.82925,30.423625 -1.06025,10.464125 -5.37388,20.35625 -14.59313,25.2765 -6.2685,3.3445 -14.68175,3.656 -21.88175,2.295 -0.46662,1.535375 -0.9315,3.070625 -1.39812,4.606 -1.4,4.60063 -6.86488,8.36113 -11.63875,8.58675 -4.58363,0.21625 -7.06825,-2.14937 -10.07438,-5.04487 -1.57712,-1.51938 -3.15525,-3.037755 -4.73237,-4.55713 -0.0917,1.035 -0.22713,2.0275 -0.39763,2.98813 1.24163,2.45162 1.838,4.607 2.90063,7.13437 1.16925,2.783375 1.73837,4.610245 1.81875,7.589125 0.0705,2.64437 0.14137,5.2895 0.21225,7.93375 1.1795,2.09562 1.28262,2.6055 1.11087,5.00362 -0.36325,5.05413 -3.14687,5.53638 -7.78612,5.50725 -1.54563,-0.01 -7.37963,0.0263 -8.86675,-0.0811 -2.95625,-0.21363 -4.905,-0.43938 -5.92375,-1.66038 z m 15.643,-27.571125 c -0.93325,3.33275 -2.18763,6.478865 -3.33275,10.084865 -1.08363,3.41362 -6.64163,13.32612 -9.91313,15.72838 0.63675,0.47413 1.80563,0.65987 3.88763,0.8395 1.473,0.12712 7.28012,0.15412 8.73825,0.17924 3.21012,0.056 4.42837,-0.18525 4.753,-3.84062 0.15862,-1.78938 0.0187,-2.12388 -0.87638,-3.6925 -0.0794,-2.79775 -0.15863,-5.59625 -0.23737,-8.394 -0.0747,-2.6525 -0.58388,-4.18038 -1.62675,-6.652245 -0.62425,-1.47937 -0.963,-2.86012 -1.3925,-4.25262 z M 17.91621,49.17725 c 0.720625,-0.08187 1.166375,0.29625 1.72375,0.85325 -0.103125,-1.330875 -0.349,-2.317625 -1.283375,-2.861625 -0.0655,0.2165 -0.127125,0.432625 -0.18525,0.652375 -0.113125,0.428375 -0.193875,0.883375 -0.255125,1.356 z m 4.528,9.615875 c -0.51875,1.342125 -1,2.7255 -1.453125,4.154875 -0.07513,0.23625 -0.147125,0.474125 -0.21725,0.71075 -2.741125,1.162625 -6.345375,1.901375 -7.725125,-0.979375 -0.67,-1.398125 -1.048125,-2.770125 -1.53675,-4.5375 -4.5141249,-4.6765 2.23375,-10.850375 5.90925,-13.064875 -0.531875,1.143375 -0.909625,2.009 -1.1675,2.900125 -1.117625,3.86225 0.505875,7.309125 -2.9995,10.109125 1.647375,3.32425 1.5715,4.649875 5.40425,3.11375 1.478625,-0.592375 2.697875,-1.424 3.78575,-2.406875 z m -1.05625,31.47125 c 2.07775,7.18588 5.616125,14.246625 9.538875,20.182375 -3.75e-4,0.0344 -7.5e-4,0.0684 -0.001,0.10337 -0.245625,1.0205 -0.530125,2.01513 -1.126125,2.81338 -2.80375,3.751 -9.936125,-1.75526 -12.0005,-3.86288 -2.25675,-2.30425 -3.76725,-5.03325 -4.126875,-7.59225 -0.2615,-1.867 -0.0078,-1.912245 1.29475,-3.232875 1.755375,-1.777 3.5125,-3.55537 5.267125,-5.332 0.384125,-1.02687 0.769625,-2.05262 1.15375,-3.07912 z M 154.15671,32.58825 c 0.4,0.395375 0.72275,0.86625 0.94538,1.387125 0.12112,-0.11125 0.25087,-0.2165 0.3865,-0.316375 -0.16438,-0.37025 -0.33163,-0.73525 -0.50238,-1.094875 -0.28425,0.0062 -0.56025,0.01412 -0.8295,0.02412 z m -34.34462,12.925625 c -0.36563,-0.76675 -0.54063,-1.57575 -0.547,-2.37475 -1.34575,1.075 -2.80888,2.094125 -4.32713,2.683 2.09625,-1.872 4.94363,-6.286875 7.00687,-7.6805 2.34138,-1.582125 5.51901,-1.274125 8.24888,-2.537 -0.932,0.846875 -2.12637,1.52925 -3.3425,2.17875 1.33975,0.490375 2.49737,1.4825 3.15787,2.86725 0.2785,0.584 0.445,1.19375 0.51238,1.803875 1.834,-0.602375 3.635,-0.8875 5.15612,-0.865625 -5.44137,1.5275 -11.22937,5.099875 -15.22025,9.830625 0.44825,-1.23375 1.07475,-2.347125 1.82938,-3.341375 -1.04588,-0.54675 -1.92888,-1.420875 -2.47463,-2.56425 z M 94.57884,25.829 c -3.00475,1.1725 -5.745505,2.05225 -8.674755,2.78825 -2.67275,3.51275 -4.300875,5.332625 -4.916,10.041 -0.7235,-4.631875 -0.874125,-5.49175 1.187375,-8.949 -0.597375,0.303625 -1.153,0.721125 -1.949125,1.40175 -2.88,2.462625 -6.634125,12.140125 -8.135125,15.600125 0.95275,-4.1645 3.933125,-14.574 7.002625,-17.608125 2.018625,-1.995625 2.476375,-1.949875 5.32275,-2.219125 C 87.806835,26.5625 91.19034,26.212 94.57884,25.829 Z m 62.71787,10.09775 c 2.4375,0.230625 3.83112,0.606875 6.01375,-0.47275 4.06838,-2.01325 7.06188,-5.3 9.00288,-9.231 -1.18738,4.689875 -3.577,8.675125 -8.53375,10.442875 -2.43425,0.867375 -4.00388,-0.02837 -6.48288,-0.739125 z m -46.78112,0.458125 c 0.91837,-4.067 2.54899,-7.985625 8.86537,-11.01725 -8.37187,2.09625 -9.9415,5.61225 -8.86537,11.01725 z M 1.9599601,58.287875 C 2.6782101,50.1545 4.2599601,46.6435 10.03871,40.52275 2.7904601,45.63 0.98171005,47.950875 1.9599601,58.287875"
       id="path136"
       style="fill:#000000;fill-opacity:1;fill-rule:evenodd;stroke:none"
       inkscape:connector-curvature="0" /><path
       d="m 120.90421,46.823125 c -0.5595,-1.17 -0.0593,-2.579875 1.11362,-3.138 1.17313,-0.55875 2.58588,-0.0595 3.14538,1.11125 0.0531,0.110875 0.0954,0.225 0.12975,0.339375 -1.12012,0.830875 -2.14725,1.810625 -3.008,2.94525 -0.58038,-0.233125 -1.09337,-0.657 -1.38075,-1.257875"
       id="path138"
       style="fill:#ffffcc;fill-opacity:1;fill-rule:evenodd;stroke:none"
       inkscape:connector-curvature="0" /><path
       d="m 147.11396,36.683875 c 0.0936,-0.969375 0.92025,-1.684125 1.88937,-1.5905 0.96901,0.09387 1.6845,0.960125 1.59125,1.929625 -0.0199,0.20625 -0.0757,0.39975 -0.15937,0.577875 -0.88725,0.151 -1.77425,0.411375 -2.68838,0.747375 -0.38237,-0.39125 -0.68662,-1.1055 -0.63287,-1.664375"
       id="path140"
       style="fill:#ffffcc;fill-opacity:1;fill-rule:evenodd;stroke:none"
       inkscape:connector-curvature="0" /></g></svg>