<?xml version="1.0" encoding="utf-8"?>
<svg xmlns="http://www.w3.org/2000/svg" width="1792" height="1792" viewBox="0 0 1792 1792">
    <path style="fill:#000000"
          d="M 690.22266 67.236328 A 219.56609 219.56609 0 0 0 470.65625 286.80273 A 219.56609 219.56609 0 0 0 644.55664 501.30078 L 644.55664 619.13477 C 510.57778 640.9603 408.30644 757.2035 408.30664 897.35156 C 408.30645 1037.4997 510.57778 1153.7412 644.55664 1175.5664 L 644.55664 1293.2305 A 219.56609 219.56609 0 0 0 470.65625 1507.8984 A 219.56609 219.56609 0 0 0 690.22266 1727.4648 A 219.56609 219.56609 0 0 0 909.78711 1507.8984 A 219.56609 219.56609 0 0 0 736.05859 1293.4395 L 736.05859 1175.5391 C 805.9433 1164.1107 867.1782 1126.9923 909.76367 1074.1895 L 1010.0684 1135.9277 A 219.56609 219.56609 0 0 0 999.41992 1202.625 A 219.56609 219.56609 0 0 0 1218.9863 1422.1914 A 219.56609 219.56609 0 0 0 1438.5508 1202.625 A 219.56609 219.56609 0 0 0 1218.9863 983.05859 A 219.56609 219.56609 0 0 0 1055.5059 1056.4512 L 954.93164 994.54688 C 966.06016 964.24779 972.13676 931.50993 972.13672 897.35156 C 972.13677 862.90988 965.95177 829.91584 954.64648 799.40625 L 1054.9258 737.68359 A 219.56609 219.56609 0 0 0 1218.9863 811.64453 A 219.56609 219.56609 0 0 0 1438.5508 592.07812 A 219.56609 219.56609 0 0 0 1218.9863 372.50977 A 219.56609 219.56609 0 0 0 999.41992 592.07812 A 219.56609 219.56609 0 0 0 1009.6445 658.10938 L 909.26367 719.89453 C 866.69949 667.42016 805.67004 630.5463 736.05859 619.16211 L 736.05859 501.42578 A 219.56609 219.56609 0 0 0 909.78711 286.80273 A 219.56609 219.56609 0 0 0 690.22266 67.236328 z M 689.71875 184.85742 C 704.96771 184.60155 720.12427 188.45326 733.75781 195.1875 C 776.51314 213.76688 800.28415 265.17378 789.31445 310.0293 C 779.84752 357.59375 731.16053 391.49973 683.54102 388.49023 C 632.79021 386.4796 590.05041 340.0161 588.09961 290.00977 C 585.55538 235.17369 634.99524 184.52244 689.71875 184.85742 z M 1221.3398 490.13086 C 1235.6196 490.36785 1249.7401 494.14759 1262.5215 500.46094 C 1305.2768 519.04032 1329.0478 570.44721 1318.0781 615.30273 C 1308.6111 662.86718 1259.9242 696.77513 1212.3047 693.76562 C 1161.5539 691.755 1118.8141 645.29149 1116.8633 595.28516 C 1114.3191 540.44908 1163.7588 489.79783 1218.4824 490.13281 C 1219.4355 490.11682 1220.3879 490.11506 1221.3398 490.13086 z M 688.45508 750.42969 C 711.00612 750.17995 733.47783 755.60476 753.75391 765.38477 C 816.35863 793.48939 850.3251 870.32051 832.06445 935.92188 C 814.99038 1003.4669 743.82707 1050.8523 675.05664 1043.5996 C 601.30926 1037.0165 540.51379 966.63923 543.01562 892.9375 C 544.83222 817.58427 612.99146 750.538 688.45508 750.42969 z M 1218.4824 1100.6797 C 1233.7313 1100.4239 1248.888 1104.2756 1262.5215 1111.0098 C 1305.2768 1129.5892 1329.0478 1180.9961 1318.0781 1225.8516 C 1308.6111 1273.4161 1259.9242 1307.322 1212.3047 1304.3125 C 1161.5539 1302.3019 1118.8141 1255.8383 1116.8633 1205.832 C 1114.3191 1150.9959 1163.7588 1100.3448 1218.4824 1100.6797 z M 689.71875 1405.9531 C 704.96771 1405.6972 720.12427 1409.549 733.75781 1416.2832 C 776.51314 1434.8626 800.28415 1486.2695 789.31445 1531.125 C 779.84752 1578.6895 731.16053 1612.5954 683.54102 1609.5859 C 632.79021 1607.5753 590.05041 1561.1118 588.09961 1511.1055 C 585.55538 1456.2694 634.99524 1405.6181 689.71875 1405.9531 z "/>
</svg>
