<?xml version="1.0" encoding="utf-8"?>
<svg xmlns="http://www.w3.org/2000/svg" width="1792" height="1792" viewBox="0 0 1792 1792">
    <path style="fill:#388e3c"
          d="m 938.50195,211.41007 c -5.56299,0.0388 -11.74705,1.29983 -18.55468,3.7832 -18.1537,6.6223 -30.41561,18.62426 -36.78321,36.00781 L 781.2832,529.3378 l -636.59961,0 c -11.58903,0 -22.47327,3.72569 -32.65234,11.17578 -10.17907,7.4501 -17.391684,16.96956 -21.636719,28.5586 L 3.0683594,807.47452 c -4.2450584,11.5891 -4.00823944,21.10849 0.7128906,28.55859 4.72114,7.4501 12.877765,11.17578 24.466797,11.17578 358.940143,-0.86657 728.661783,-0.53744 1037.093753,-0.52148 l 192.0293,-132.33789 c 11.3101,-8.27788 19.0869,-18.21175 23.332,-29.80078 3.9418,-10.76125 3.2906,-20.28072 -1.9551,-28.5586 L 961.13086,221.4003 c -5.81425,-6.72578 -13.35726,-10.05491 -22.62891,-9.99023 z m 509.37505,415.625 c -5.563,0.0388 -11.7471,1.29983 -18.5547,3.7832 -18.1537,6.6223 -30.4156,18.62426 -36.7832,36.00781 l -101.8809,278.13672 -762.55273,0 c -11.58903,0 -22.47327,3.72569 -32.65235,11.17578 -10.17906,7.4501 -17.39165,16.96957 -21.63671,28.5586 l -87.32618,238.40232 c -4.24506,11.5891 -4.00824,21.1085 0.71289,28.5586 4.72113,7.4501 12.87777,11.1758 24.4668,11.1758 l 762.55278,0 -101.8809,278.1367 c -6.0644,16.5558 -2.5987,28.5577 10.4004,36.0078 13.3022,6.6223 28.6997,4.1399 46.1894,-7.4492 l 637.8145,-439.5547 c 11.3101,-8.2779 19.0869,-18.2117 23.332,-29.8008 3.9418,-10.7612 3.2906,-20.2807 -1.9551,-28.5586 L 1470.5059,637.0253 c -5.8143,-6.72578 -13.3573,-10.05491 -22.6289,-9.99023 z"/>
</svg>