<?xml version="1.0" encoding="UTF-8" standalone="no"?>
<!--
  - Copyright 2016-2025 Crown Copyright
  -
  - Licensed under the Apache License, Version 2.0 (the "License");
  - you may not use this file except in compliance with the License.
  - You may obtain a copy of the License at
  -
  -     http://www.apache.org/licenses/LICENSE-2.0
  -
  - Unless required by applicable law or agreed to in writing, software
  - distributed under the License is distributed on an "AS IS" BASIS,
  - WITHOUT WARRANTIES OR CONDITIONS OF ANY KIND, either express or implied.
  - See the License for the specific language governing permissions and
  - limitations under the License.
  -->

<svg
   width="1792"
   height="1792"
   viewBox="0 0 1792 1792"
   xmlns="http://www.w3.org/2000/svg">
  <path
     style="fill:#010101"
     d="M 1408,160 V 320 H 1280 V 160 q 0,-13 -9.5,-22.5 Q 1261,128 1248,128 H 160 q -13,0 -22.5,9.5 Q 128,147 128,160 v 1088 q 0,13 9.5,22.5 9.5,9.5 22.5,9.5 h 160 v 128 H 160 Q 94,1408 47,1361 0,1314 0,1248 V 160 Q 0,94 47,47 94,0 160,0 h 1088 q 66,0 113,47 47,47 47,113 z"
     id="path594" />
  <path
     id="path592"
     style="fill:#010101"
     d="M 544 384 C 500.00004 384 462.3333 399.6667 431 431 C 399.6667 462.3333 384 500.00004 384 544 L 384 1632 C 384 1676 399.6667 1713.6667 431 1745 C 462.3333 1776.3333 500.00004 1792 544 1792 L 1632 1792 C 1676 1792 1713.6667 1776.3333 1745 1745 C 1776.3333 1713.6667 1792 1676 1792 1632 L 1792 544 C 1792 500.00004 1776.3333 462.3333 1745 431 C 1713.6667 399.6667 1676 384 1632 384 L 544 384 z M 544 512 L 1632 512 C 1640.6667 512 1648.1667 515.16667 1654.5 521.5 C 1660.8333 527.83333 1664 535.33334 1664 544 L 1664 1632 C 1664 1640.6667 1660.8333 1648.1667 1654.5 1654.5 C 1648.1667 1660.8333 1640.6667 1664 1632 1664 L 544 1664 C 535.33334 1664 527.83333 1660.8333 521.5 1654.5 C 515.16667 1648.1667 512 1640.6667 512 1632 L 512 544 C 512 535.33334 515.16667 527.83333 521.5 521.5 C 527.83333 515.16667 535.33334 512 544 512 z " />
  <path
     style="fill:#010101;stroke-width:0.65685"
     d="m 1550.4219,1024.9425 v 126.1151 q 0,26.274 -18.3918,44.6658 -18.3917,18.3917 -44.6657,18.3917 H 1214.115 v 273.2494 q 0,26.274 -18.3917,44.6657 -18.3918,18.3918 -44.6658,18.3918 h -126.1151 q -26.27392,0 -44.6657,-18.3918 -18.39176,-18.3917 -18.39176,-44.6657 V 1214.1151 H 688.6356 q -26.274,0 -44.66577,-18.3917 -18.39177,-18.3918 -18.39177,-44.6658 v -126.1151 q 0,-26.27406 18.39177,-44.66583 18.39177,-18.39176 44.66577,-18.39176 H 961.88494 V 688.63557 q 0,-26.274 18.39176,-44.66577 18.39178,-18.39177 44.6657,-18.39177 h 126.1151 q 26.274,0 44.6658,18.39177 18.3917,18.39177 18.3917,44.66577 v 273.24934 h 273.2494 q 26.274,0 44.6657,18.39176 18.3918,18.39177 18.3918,44.66583 z"
     id="path172" />
</svg>
