<?xml version="1.0" encoding="UTF-8" standalone="no"?>
<svg
   xmlns="http://www.w3.org/2000/svg"
   width="1792"
   viewBox="0 0 1792 1792"
   height="1792"
   id="svg5595"
   version="1.1">
  <path
     d="m 1439.5203,1672.1424 205.9575,-348.3761 c 16.7261,-28.3055 0.4948,-71.6547 -40.8748,-71.6547 l -411.8159,0 c -37.1139,0 -59.4812,40.2811 -40.8748,71.6547 l 205.8585,348.3761 c 18.3095,31.0766 63.4401,31.1756 81.7495,0 z"
     style="fill:#2196f3;fill-opacity:1"
     id="path4198" />
  <path
     style="fill:#2196f3"
     d="m 1381.6288,684.87062 0,169.30991 q 0,35.273 -24.6911,59.9641 -24.6911,24.6909 -59.964,24.6909 l -366.83841,0 0,366.83847 q 0,35.2729 -24.691,59.964 -24.6911,24.6911 -59.964,24.6911 l -169.3101,0 q -35.2729,0 -59.9639,-24.6911 -24.6911,-24.6911 -24.6911,-59.964 l 0,-366.83847 -366.8384,0 q -35.2729,0 -59.964,-24.6909 -24.691,-24.6911 -24.691,-59.9641 l 0,-169.30991 q 0,-35.27288 24.691,-59.96393 24.6911,-24.69104 59.964,-24.69104 l 366.8384,0 0,-366.83842 q 0,-35.27291 24.6911,-59.96396 24.691,-24.69105 59.9639,-24.69105 l 169.3101,0 q 35.2729,0 59.964,24.69105 24.691,24.69105 24.691,59.96396 l 0,366.83842 366.83841,0 q 35.2729,0 59.964,24.69104 24.6911,24.69105 24.6911,59.96393 z"
     id="path4256" />
</svg>
