<?xml version="1.0" encoding="utf-8"?>
<!--
  - Copyright 2016-2025 Crown Copyright
  -
  - Licensed under the Apache License, Version 2.0 (the "License");
  - you may not use this file except in compliance with the License.
  - You may obtain a copy of the License at
  -
  -     http://www.apache.org/licenses/LICENSE-2.0
  -
  - Unless required by applicable law or agreed to in writing, software
  - distributed under the License is distributed on an "AS IS" BASIS,
  - WITHOUT WARRANTIES OR CONDITIONS OF ANY KIND, either express or implied.
  - See the License for the specific language governing permissions and
  - limitations under the License.
  -->

<svg xmlns="http://www.w3.org/2000/svg" width="1792" height="1792" viewBox="0 0 1792 1792">
    <path style="fill:#010101"
          d="m 1600,800 0,192 q 0,40 -28,68 -28,28 -68,28 l -416,0 0,416 q 0,40 -28,68 -28,28 -68,28 l -192,0 q -40,0 -68,-28 -28,-28 -28,-68 l 0,-416 -416,0 q -40,0 -68,-28 -28,-28 -28,-68 l 0,-192 q 0,-40 28,-68 28,-28 68,-28 l 416,0 0,-416 q 0,-40 28,-68 28,-28 68,-28 l 192,0 q 40,0 68,28 28,28 28,68 l 0,416 416,0 q 40,0 68,28 28,28 28,68 z"/>
</svg>
