<?xml version="1.0" encoding="UTF-8" standalone="no"?>
<svg xmlns="http://www.w3.org/2000/svg" width="1792" height="1792" viewBox="-120 -200 2032 2032">
  <path
     style="fill:#eed202"
     d="m 1008,67 768,1408 c 19.1682,31.4648 23.1567,86.205 -2,126 -13.7834,22.0284 -26.3499,33.6691 -45.5484,44.8183 C 1713.8004,1654.3267 1689.1168,1664 1664,1664 l -1536,0 c -13.90257,0 -43.91811,-6.0363 -63.5,-17.5155 -18.893364,-11.0756 -34.393364,-24.8623 -46.242232,-46 -25.6977373,-40.1957 -23.2711934,-92.2486 0.577675,-131.1554 L 784,67 C 795.33333,46.333333 811,30 831,18 851,6 872.66667,0 896,0 c 23.33333,0 45,6 65,18 20,12 35.66667,28.333333 47,49 z"/>
  <path style="fill:none;stroke:#000;stroke-width:140" d="m 1008,67 768,1408 c 19.1682,31.4648 23.1567,86.205 -2,126 -13.7834,22.0284 -26.3499,33.6691 -45.5484,44.8183 C 1713.8004,1654.3267 1689.1168,1664 1664,1664 l -1536,0 c -13.90257,0 -43.91811,-6.0363 -63.5,-17.5155 -18.893364,-11.0756 -34.393364,-24.8623 -46.242232,-46 -25.6977373,-40.1957 -23.2711934,-92.2486 0.577675,-131.1554 L 784,67 C 795.33333,46.333333 811,30 831,18 851,6 872.66667,0 896,0 c 23.33333,0 45,6 65,18 20,12 35.66667,28.333333 47,49 z"></path>
</svg>
