<?xml version="1.0" encoding="utf-8"?>
<svg xmlns="http://www.w3.org/2000/svg" width="1792" height="1792" viewBox="0 0 1792 1792">
    <path
            style="fill:#010101"
            d="M 383.37305 1128.0742 C 383.65683 1128.7015 383.89025 1129.3581 384.17578 1129.9844 L 384.25391 1129.9844 C 383.9631 1129.346 383.66159 1128.714 383.37305 1128.0742 z "/>
    <path
            style="fill:#010101"
            d="M 217.53125 1024 L 192 1024 C 174.66672 1024 159.66663 1030.3333 147 1043 C 134.33337 1055.6667 128 1070.6667 128 1088 L 128 1536 C 128 1553.3333 134.33337 1568.3333 147 1581 C 159.66663 1593.6667 174.66672 1600 192 1600 C 209.33328 1600 224.33337 1593.6667 237 1581 L 366 1452 C 437.33312 1519.9997 518.50027 1572.3334 609.5 1609 C 700.49973 1645.6666 794.66696 1664 892 1664 C 1074.6661 1664 1234.0003 1608.4997 1370 1497.5 C 1505.9997 1386.5003 1595.3334 1241.6661 1638 1063 C 1638.6667 1061.6667 1639 1059.3333 1639 1056 C 1639 1047.3333 1635.8333 1039.8333 1629.5 1033.5 C 1623.1667 1027.1667 1615.6667 1024 1607 1024 L 1574.5645 1024 L 1478.1309 1024 C 1478.1309 1024 1474.7585 1024.0561 1470.2129 1024.791 C 1467.9401 1025.1585 1465.3744 1025.6962 1462.791 1026.4805 C 1460.2077 1027.2647 1457.605 1028.2959 1455.2617 1029.6523 C 1453.1579 1031.0302 1451.0908 1032.7194 1449.123 1034.6445 C 1447.1553 1036.5697 1445.2886 1038.7303 1443.5859 1041.0508 C 1441.8832 1043.3712 1440.3438 1045.8524 1439.0352 1048.416 C 1437.7265 1050.9797 1436.6469 1053.6266 1435.8613 1056.2812 C 1432.0881 1069.0321 1427.8071 1081.5263 1423.1172 1093.7988 C 1421.7201 1097.4547 1420.0569 1100.9608 1418.5898 1104.5781 C 1415.8637 1111.4375 1413.0156 1118.228 1410.0371 1124.9414 C 1409.2957 1126.6019 1408.6736 1128.3313 1407.9199 1129.9844 L 1407.7441 1129.9844 C 1317.8048 1327.4255 1119.6274 1459.399 896 1459.957 C 672.37232 1459.399 474.19322 1327.4261 384.25391 1129.9844 L 384.17578 1129.9844 C 383.89025 1129.3581 383.65683 1128.7015 383.37305 1128.0742 C 379.44158 1119.3571 375.73356 1110.5078 372.23047 1101.543 C 371.19032 1098.9366 369.98219 1096.4252 368.97852 1093.7988 C 364.2886 1081.5263 360.00763 1069.0321 356.23438 1056.2812 C 355.44876 1053.6265 354.36919 1050.9797 353.06055 1048.416 C 351.7519 1045.8524 350.21441 1043.3712 348.51172 1041.0508 C 346.80903 1038.7303 344.94235 1036.5697 342.97461 1034.6445 C 341.00686 1032.7193 338.93779 1031.0302 336.83398 1029.6523 C 334.49071 1028.2959 331.88998 1027.2647 329.30664 1026.4805 C 326.7233 1025.6962 324.15759 1025.1584 321.88477 1024.791 C 317.33912 1024.0562 313.96484 1024 313.96484 1024 L 217.53125 1024 z "/>
    <path
            style="fill:#010101"
            d="m 1407.7441,1129.9844 h 0.1758 c 0.7537,-1.6531 1.3758,-3.3825 2.1172,-5.043 -0.7497,1.6898 -1.5275,3.3626 -2.293,5.043 z"/>
    <path
            style="fill:#010101"
            d="M 1408.998 662.01562 C 1410.8019 665.97553 1412.5691 669.95862 1414.2852 673.9707 C 1412.5695 670.0093 1411.0506 665.93469 1409.2637 662.01562 L 1408.998 662.01562 z "/>
    <path
            style="fill:#010101"
            d="M 896 128 C 712.66721 128 552.66625 183.50033 416 294.5 C 279.33375 405.49967 189.33321 550.33387 146 729 L 146 736 C 146 744.66664 149.16669 752.16669 155.5 758.5 C 161.83331 764.83331 169.33336 768 178 768 L 314.42773 768 C 314.42773 768 327.9238 767.77341 337.29688 762.34766 C 345.71211 756.83634 353.55482 746.33794 356.69727 735.71875 C 427.0175 498.08732 645.56448 332.66797 896 332.04297 C 1120.0947 332.10458 1318.8778 464.1752 1408.998 662.01562 L 1409.2637 662.01562 C 1411.0506 665.93469 1412.5695 670.0093 1414.2852 673.9707 C 1415.0485 675.7553 1415.7953 677.54898 1416.541 679.34375 C 1419.1931 685.62348 1422.0169 691.80554 1424.4609 698.20117 C 1429.1508 710.47373 1433.4318 722.96786 1437.2051 735.71875 C 1437.9907 738.37355 1439.0703 741.02032 1440.3789 743.58398 C 1441.6876 746.14765 1443.227 748.62876 1444.9297 750.94922 C 1446.6324 753.26967 1448.4991 755.43029 1450.4668 757.35547 C 1452.4345 759.28064 1454.5017 760.96983 1456.6055 762.34766 C 1458.9487 763.70408 1461.5514 764.7353 1464.1348 765.51953 C 1466.7181 766.30376 1469.2838 766.84155 1471.5566 767.20898 C 1476.1023 767.94385 1479.4746 768 1479.4746 768 L 1575.9082 768 L 1600 768 C 1617.3333 768 1632.3333 761.66663 1645 749 C 1657.6667 736.33337 1664 721.33328 1664 704 L 1664 256 C 1664 238.66672 1657.6667 223.66663 1645 211 C 1632.3333 198.33337 1617.3333 192 1600 192 C 1582.6667 192 1567.6667 198.33337 1555 211 L 1425 340 C 1353.6669 272.66687 1271.9997 220.49988 1180 183.5 C 1088.0003 146.50012 993.33304 128 896 128 z "/>
    <path
            style="fill:none;stroke:#010101;stroke-width:145;stroke-linecap:round;stroke-linejoin:round;stroke-opacity:1;stroke-dasharray:none"
            d="M 664.92147,1027.8846 H 1127.0785 M 608.29781,1150.9974 895.99986,525.46719 1183.7022,1150.9974"/>
</svg>
