<!--
  - Copyright 2016-2025 Crown Copyright
  -
  - Licensed under the Apache License, Version 2.0 (the "License");
  - you may not use this file except in compliance with the License.
  - You may obtain a copy of the License at
  -
  -     http://www.apache.org/licenses/LICENSE-2.0
  -
  - Unless required by applicable law or agreed to in writing, software
  - distributed under the License is distributed on an "AS IS" BASIS,
  - WITHOUT WARRANTIES OR CONDITIONS OF ANY KIND, either express or implied.
  - See the License for the specific language governing permissions and
  - limitations under the License.
  -->

<svg class="svg-icon" style="width: 1em; height: 1em;vertical-align: middle;fill: currentColor;overflow: hidden;" viewBox="0 0 1024 1024" version="1.1" xmlns="http://www.w3.org/2000/svg"><path d="M296.28 318.93c25.61 0 45.31-19.7 45.31-45.31v-132c0-23.64-19.7-45.31-45.31-45.31-25.61 0-45.31 19.7-45.31 45.31v132c0 25.61 19.7 45.31 45.31 45.31zM668.62 578.98h94.56c11.82 0 21.67-9.85 21.67-21.67v-61.07c0-11.82-9.85-21.67-21.67-21.67h-94.56c-11.82 0-21.67 9.85-21.67 21.67v61.07c-1.97 11.82 7.88 21.67 21.67 21.67zM668.62 762.2h94.56c11.82 0 21.67-9.85 21.67-21.68v-61.07c0-11.82-9.85-21.67-21.67-21.67h-94.56c-11.82 0-21.67 9.85-21.67 21.67v61.07c-1.97 11.83 7.88 21.68 21.67 21.68zM773.03 273.62c0 3.94-1.97 5.91 0 7.88v-7.88zM725.75 318.93c25.61 0 45.31-19.7 45.31-45.31v-132c0-23.64-19.7-45.31-45.31-45.31-25.61 0-45.31 19.7-45.31 45.31v132c1.97 25.61 21.67 45.31 45.31 45.31zM463.73 578.98h94.56c11.82 0 21.67-9.85 21.67-21.67v-61.07c0-11.82-9.85-21.67-21.67-21.67h-94.56c-11.82 0-21.67 9.85-21.67 21.67v61.07c0 11.82 9.85 21.67 21.67 21.67zM260.81 578.98h94.57c11.82 0 21.67-9.85 21.67-21.67v-61.07c0-11.82-9.85-21.67-21.67-21.67h-94.57c-11.82 0-21.67 9.85-21.67 21.67v61.07c-1.97 11.82 9.85 21.67 21.67 21.67zM260.81 762.2h94.57c11.82 0 21.67-9.85 21.67-21.68v-61.07c0-11.82-9.85-21.67-21.67-21.67h-94.57c-11.82 0-21.67 9.85-21.67 21.67v61.07c-1.97 11.83 9.85 21.68 21.67 21.68zM463.73 762.2h94.56c11.82 0 21.67-9.85 21.67-21.68v-61.07c0-11.82-9.85-21.67-21.67-21.67h-94.56c-11.82 0-21.67 9.85-21.67 21.67v61.07c0 11.83 9.85 21.68 21.67 21.68z"  /><path d="M847.9 177.09h-47.28v96.54c0 39.4-33.49 70.92-72.89 70.92s-72.89-31.52-72.89-70.92v-96.54H369.17v96.54c0 39.4-33.49 70.92-72.89 70.92-39.41 0-72.89-31.52-72.89-70.92v-96.54H176.1c-43.34 0-76.83 35.46-76.83 76.84v598.9c0 41.37 33.49 74.86 76.83 74.86h671.8c41.37 0 76.83-33.49 76.83-74.86v-598.9c0-41.38-35.46-76.84-76.83-76.84z m9.85 675.73c0 5.91-3.94 9.85-9.85 9.85H176.1c-5.91 0-9.85-3.94-9.85-9.85V378.04h691.5v474.78z"  /></svg>
