<?xml version="1.0" encoding="utf-8"?>
<svg xmlns="http://www.w3.org/2000/svg" width="1792" height="1792" viewBox="0 0 1792 1792">
    <path fill="#2196f3" d="M 204.392 1630.946 C 170.389 1630.946 141.519 1619.085 117.752 1595.269 C 93.935 1571.495 82.074 1542.63 82.074 1508.626 L 82.074 285.417 C 82.074 251.447 93.935 222.585 117.752 198.774 C 141.519 175.001 170.389 163.096 204.392 163.096 L 622.321 163.096 C 629.092 115.549 650.864 76.455 687.565 45.873 C 724.259 15.293 767.071 0 816 0 C 864.926 0 907.739 15.293 944.438 45.873 C 981.133 76.455 1002.863 115.549 1009.676 163.096 L 1427.604 163.096 C 1461.574 163.096 1490.44 175.001 1514.248 198.774 C 1538.021 222.585 1549.924 251.447 1549.924 285.417 L 1549.924 956.145 C 1530.884 945.297 1510.823 936.444 1489.787 929.639 C 1468.701 922.868 1447.995 917.407 1427.604 913.332 L 1427.604 285.417 L 204.392 285.417 L 204.392 1508.626 L 834.345 1508.626 C 839.772 1530.398 845.887 1551.442 852.7 1571.826 C 859.463 1592.21 867.623 1611.949 877.161 1630.946 L 204.392 1630.946 Z M 204.392 1412.811 L 204.392 1508.626 L 204.392 285.417 L 204.392 913.332 L 204.392 905.173 L 204.392 1412.811 Z M 408.259 1304.76 L 838.428 1304.76 C 843.847 1283.023 849.962 1261.947 856.776 1241.555 C 863.539 1221.17 872.391 1201.48 883.282 1182.441 L 408.259 1182.441 L 408.259 1304.76 Z M 408.259 958.182 L 1109.567 958.182 C 1128.572 948.681 1146.919 940.853 1164.616 934.737 C 1182.271 928.616 1201.966 922.868 1223.738 917.407 L 1223.738 835.861 L 408.259 835.861 L 408.259 958.182 Z M 408.259 611.603 L 1223.738 611.603 L 1223.738 489.284 L 408.259 489.284 L 408.259 611.603 Z M 816 250.754 C 835.003 250.754 851.676 243.62 865.948 229.354 C 880.218 215.083 887.355 198.447 887.355 179.406 C 887.355 160.4 880.218 143.728 865.948 129.456 C 851.676 115.184 835.003 108.047 816 108.047 C 796.96 108.047 780.321 115.184 766.049 129.456 C 751.779 143.728 744.643 160.4 744.643 179.406 C 744.643 198.447 751.779 215.083 766.049 229.354 C 780.321 243.62 796.96 250.754 816 250.754 Z M 1331.787 1792 C 1225.774 1792 1135.379 1754.288 1060.641 1678.859 C 985.859 1603.425 948.515 1514.088 948.515 1410.772 C 948.515 1304.76 985.859 1214.036 1060.641 1138.603 C 1128.434 1077.059 1223.095 1030.821 1331.787 1025.455 C 1436.412 1025.455 1526.479 1063.172 1601.911 1138.603 C 1644.707 1181.399 1675.367 1229.122 1693.88 1281.763 C 1708.001 1321.904 1715.059 1364.908 1715.059 1410.772 C 1715.059 1514.088 1677.344 1603.425 1601.911 1678.859 C 1526.479 1754.288 1436.412 1792 1331.787 1792 Z M 1301.207 1669.678 L 1368.48 1669.678 L 1368.48 1445.428 L 1592.74 1445.428 L 1592.74 1378.148 L 1368.48 1378.148 L 1368.48 1153.898 L 1301.207 1153.898 L 1301.207 1378.148 L 1076.95 1378.148 L 1076.95 1445.428 L 1301.207 1445.428 L 1301.207 1669.678 Z" />
</svg>