<?xml version="1.0" encoding="UTF-8" standalone="no"?>
<svg xmlns:rdf="http://www.w3.org/1999/02/22-rdf-syntax-ns#" xmlns="http://www.w3.org/2000/svg" height="1792" width="1792" version="1.1" xmlns:cc="http://creativecommons.org/ns#" xmlns:dc="http://purl.org/dc/elements/1.1/" viewBox="0 0 1792 1792">
 <g fill="#2196f3" transform="matrix(-1 0 0 -1 1804.2 1781.1)">
  <path d="m422.72 145.7 102.39-101.77q11.72-11.72 27.757-11.72t27.757 11.72l327.53 327.53 327.55-327.53q11.72-11.72 27.757-11.72t27.757 11.72l102.39 101.78q11.72 11.72 11.72 28.065 0 16.346-11.72 28.065l-457.69 457.06q-11.72 11.72-27.757 11.72t-27.757-11.72l-457.68-457.06q-11.72-11.72-11.72-28.065 0-16.346 11.72-28.065z"/>
  <path style="color-rendering:auto;color:#000000;isolation:auto;mix-blend-mode:normal;shape-rendering:auto;solid-color:#000000;image-rendering:auto" d="m422.72 679.36 102.39-101.77q11.72-11.72 27.757-11.72t27.757 11.72l327.53 327.53 327.55-327.53q11.72-11.72 27.757-11.72t27.757 11.72l102.39 101.78q11.72 11.72 11.72 28.065 0 16.346-11.72 28.065l-457.69 457.1q-11.72 11.72-27.757 11.72t-27.757-11.72l-457.68-457.1q-11.72-11.72-11.72-28.065 0-16.346 11.72-28.065z"/>
  <path style="color-rendering:auto;color:#000000;isolation:auto;mix-blend-mode:normal;shape-rendering:auto;solid-color:#000000;image-rendering:auto" d="m422.72 1213 102.39-101.78q11.72-11.72 27.757-11.72t27.757 11.72l327.53 327.53 327.53-327.53q11.72-11.72 27.757-11.72t27.757 11.72l102.39 101.78q11.72 11.72 11.72 28.065 0 16.346-11.72 28.065l-457.68 457.06q-11.72 11.72-27.757 11.72t-27.757-11.72l-457.69-457q-11.72-11.72-11.72-28.065 0-16.346 11.72-28.065z"/>
 </g>
</svg>
