<?xml version="1.0" encoding="UTF-8" standalone="no"?>
<svg version="1.1" viewBox="0 0 121.48 122.88" xmlns="http://www.w3.org/2000/svg">
    <path d="M 2.74,19.11 59.65,0.16 c 0.68,-0.23 1.39,-0.21 2.02,0.01 V 0.16 l 57.66,19.75 c 1.42,0.48 2.28,1.86 2.15,3.29 0.01,0.07 0.01,0.15 0.01,0.23 v 67.06 h -0.01 c 0,1.16 -0.64,2.28 -1.75,2.84 l -57.25,29.09 c -0.48,0.29 -1.05,0.46 -1.65,0.46 -0.64,0 -1.23,-0.19 -1.73,-0.51 L 1.72,92.44 C 0.64,91.87 0.01,90.77 0.01,89.62 H 0 V 22.27 c 0,-1.61 1.19,-2.94 2.74,-3.16 z m 12.59,49.13 c 0,-1.22 0.99,-2.22 2.22,-2.22 1.22,0 2.22,0.99 2.22,2.22 v 9.03 c 0,0.07 0,0.15 -0.01,0.22 0,0.31 0.04,0.56 0.11,0.75 0.03,0.06 0.06,0.12 0.12,0.16 l 5.53,2.57 c 1.11,0.51 1.59,1.83 1.08,2.93 -0.51,1.11 -1.82,1.59 -2.93,1.08 l -5.66,-2.63 c -0.1,-0.04 -0.2,-0.09 -0.3,-0.16 -0.91,-0.57 -1.54,-1.34 -1.93,-2.29 -0.31,-0.76 -0.45,-1.6 -0.44,-2.5 v -0.14 -9.02 z m 42.31,46.2 V 50.3 L 6.38,27.06 V 87.7 Z M 115.1,27.82 64.02,50.33 V 114.5 L 115.1,88.54 Z M 60.62,6.53 12.14,22.68 60.85,44.77 109.56,23.3 Z"
          style="stroke:#2196f3;stroke-opacity:1;fill:#2196f3;fill-opacity:1"/>
</svg>
