<?xml version="1.0" encoding="utf-8"?>
<svg xmlns="http://www.w3.org/2000/svg" width="1792" height="1792" viewBox="0 0 1792 1792">
    <path style="fill:#2196f3"
          d="m 1520,1216 q 0,-40 -28,-68 L 1284,940 q -28,-28 -68,-28 -42,0 -72,32 3,3 19,18.5 16,15.5 21.5,21.5 5.5,6 15,19 9.5,13 13,25.5 3.5,12.5 3.5,27.5 0,40 -28,68 -28,28 -68,28 -15,0 -27.5,-3.5 -12.5,-3.5 -25.5,-13 -13,-9.5 -19,-15 -6,-5.5 -21.5,-21.5 -15.5,-16 -18.5,-19 -33,31 -33,73 0,40 28,68 l 206,207 q 27,27 68,27 40,0 68,-26 l 147,-146 q 28,-28 28,-67 z M 817,511 q 0,-40 -28,-68 L 583,236 q -28,-28 -68,-28 -39,0 -68,27 L 300,381 q -28,28 -28,67 0,40 28,68 l 208,208 q 27,27 68,27 42,0 72,-31 -3,-3 -19,-18.5 Q 613,686 607.5,680 602,674 592.5,661 583,648 579.5,635.5 576,623 576,608 q 0,-40 28,-68 28,-28 68,-28 15,0 27.5,3.5 12.5,3.5 25.5,13 13,9.5 19,15 6,5.5 21.5,21.5 15.5,16 18.5,19 33,-31 33,-73 z m 895,705 q 0,120 -85,203 l -147,146 q -83,83 -203,83 -121,0 -204,-85 L 867,1356 q -83,-83 -83,-203 0,-123 88,-209 l -88,-88 q -86,88 -208,88 -120,0 -204,-84 L 164,652 Q 80,568 80,448 80,328 165,245 L 312,99 q 83,-83 203,-83 121,0 204,85 l 206,207 q 83,83 83,203 0,123 -88,209 l 88,88 q 86,-88 208,-88 120,0 204,84 l 208,208 q 84,84 84,204 z"/>
</svg>
