<?xml version="1.0" encoding="UTF-8" standalone="no"?>
<!--
  - Copyright 2016-2025 Crown Copyright
  -
  - Licensed under the Apache License, Version 2.0 (the "License");
  - you may not use this file except in compliance with the License.
  - You may obtain a copy of the License at
  -
  -     http://www.apache.org/licenses/LICENSE-2.0
  -
  - Unless required by applicable law or agreed to in writing, software
  - distributed under the License is distributed on an "AS IS" BASIS,
  - WITHOUT WARRANTIES OR CONDITIONS OF ANY KIND, either express or implied.
  - See the License for the specific language governing permissions and
  - limitations under the License.
  -->

<svg
   width="1792"
   height="1792"
   viewBox="0 0 1792 1792"
   version="1.1"
   xmlns="http://www.w3.org/2000/svg">
  <path
     style="fill:#010101"
     d="M 896 128 C 756.66681 128 628.16655 162.3334 510.5 231 C 392.83345 299.6666 299.6666 392.83345 231 510.5 C 162.3334 628.16655 128 756.66681 128 896 C 128 1035.3332 162.3334 1163.8335 231 1281.5 C 299.6666 1399.1665 392.83345 1492.3334 510.5 1561 C 628.16655 1629.6666 756.66681 1664 896 1664 C 1035.3332 1664 1163.8335 1629.6666 1281.5 1561 C 1399.1665 1492.3334 1492.3334 1399.1665 1561 1281.5 C 1629.6666 1163.8335 1664 1035.3332 1664 896 C 1664 756.66681 1629.6666 628.16655 1561 510.5 C 1492.3334 392.83345 1399.1665 299.6666 1281.5 231 C 1163.8335 162.3334 1035.3332 128 896 128 z M 896 352 C 994.66657 352 1085.6668 376.33338 1169 425 C 1252.3332 473.66662 1318.3334 539.66675 1367 623 C 1415.6666 706.33325 1440 797.33343 1440 896 C 1440 994.66657 1415.6666 1085.6668 1367 1169 C 1318.3334 1252.3332 1252.3332 1318.3334 1169 1367 C 1085.6668 1415.6666 994.66657 1440 896 1440 C 797.33343 1440 706.33325 1415.6666 623 1367 C 539.66675 1318.3334 473.66662 1252.3332 425 1169 C 376.33338 1085.6668 352 994.66657 352 896 C 352 797.33343 376.33338 706.33325 425 623 C 473.66662 539.66675 539.66675 473.66662 623 425 C 706.33325 376.33338 797.33343 352 896 352 z " />
  <path
     style="fill:#010101;fill-opacity:1;stroke-width:3.40204"
     d="m 896.00009,460.51434 c 45.24717,0 81.64911,36.40193 81.64911,81.6492 v 381.02962 c 0,45.24728 -36.40194,81.64914 -81.64911,81.64914 -45.24734,0 -81.64922,-36.40186 -81.64922,-81.64914 V 542.16353 c 0,-45.24726 36.40188,-81.6492 81.64922,-81.64919 z M 787.13438,1222.5734 a 108.86562,108.86562 0 1 1 217.73122,0 108.86562,108.86562 0 1 1 -217.73122,0 z" />
</svg>
