<?xml version="1.0" encoding="UTF-8" standalone="no"?>
<!--
  - Copyright 2016-2025 Crown Copyright
  -
  - Licensed under the Apache License, Version 2.0 (the "License");
  - you may not use this file except in compliance with the License.
  - You may obtain a copy of the License at
  -
  -     http://www.apache.org/licenses/LICENSE-2.0
  -
  - Unless required by applicable law or agreed to in writing, software
  - distributed under the License is distributed on an "AS IS" BASIS,
  - WITHOUT WARRANTIES OR CONDITIONS OF ANY KIND, either express or implied.
  - See the License for the specific language governing permissions and
  - limitations under the License.
  -->

<svg xmlns:rdf="http://www.w3.org/1999/02/22-rdf-syntax-ns#" xmlns="http://www.w3.org/2000/svg" height="1792" width="1792" version="1.1" xmlns:cc="http://creativecommons.org/ns#" xmlns:dc="http://purl.org/dc/elements/1.1/" viewBox="0 0 1792 1792">
 <g fill="#010101" transform="translate(-12.153 10.926)">
  <path d="m422.72 145.7 102.39-101.77q11.72-11.72 27.757-11.72t27.757 11.72l327.53 327.53 327.55-327.53q11.72-11.72 27.757-11.72t27.757 11.72l102.39 101.78q11.72 11.72 11.72 28.065 0 16.346-11.72 28.065l-457.69 457.06q-11.72 11.72-27.757 11.72t-27.757-11.72l-457.68-457.06q-11.72-11.72-11.72-28.065 0-16.346 11.72-28.065z"/>
  <path d="m422.72 679.36 102.39-101.77q11.72-11.72 27.757-11.72t27.757 11.72l327.53 327.53 327.55-327.53q11.72-11.72 27.757-11.72t27.757 11.72l102.39 101.78q11.72 11.72 11.72 28.065 0 16.346-11.72 28.065l-457.69 457.1q-11.72 11.72-27.757 11.72t-27.757-11.72l-457.68-457.1q-11.72-11.72-11.72-28.065 0-16.346 11.72-28.065z"/>
  <path d="m422.72 1213 102.39-101.78q11.72-11.72 27.757-11.72t27.757 11.72l327.53 327.53 327.53-327.53q11.72-11.72 27.757-11.72t27.757 11.72l102.39 101.78q11.72 11.72 11.72 28.065 0 16.346-11.72 28.065l-457.68 457.06q-11.72 11.72-27.757 11.72t-27.757-11.72l-457.69-457q-11.72-11.72-11.72-28.065 0-16.346 11.72-28.065z"/>
 </g>
</svg>
