<?xml version="1.0" encoding="UTF-8" standalone="no"?>
<svg
   width="1427.7665"
   height="2031.5197"
   viewBox="-300 -330 2027.7665 2631.5197"
   version="1.1"
   id="svg1"
   sodipodi:docname="expand.svg"
   inkscape:version="1.3.2 (091e20ef0f, 2023-11-25, custom)"
   xmlns:inkscape="http://www.inkscape.org/namespaces/inkscape"
   xmlns:sodipodi="http://sodipodi.sourceforge.net/DTD/sodipodi-0.dtd"
   xmlns="http://www.w3.org/2000/svg"
   xmlns:svg="http://www.w3.org/2000/svg">
  <defs
     id="defs1" />
  <sodipodi:namedview
     id="namedview1"
     pagecolor="#ffffff"
     bordercolor="#000000"
     borderopacity="0.25"
     inkscape:showpageshadow="2"
     inkscape:pageopacity="0.0"
     inkscape:pagecheckerboard="0"
     inkscape:deskcolor="#d1d1d1"
     inkscape:zoom="0.27501497"
     inkscape:cx="-125.44772"
     inkscape:cy="1319.9282"
     inkscape:window-width="2520"
     inkscape:window-height="1404"
     inkscape:window-x="0"
     inkscape:window-y="0"
     inkscape:window-maximized="1"
     inkscape:current-layer="svg1" />
  <g
     style="stroke:currentColor;stroke-width:167.567"
     id="g1"
     transform="translate(0.03304027,-272.00435)">
    <path
       d="m 83.75224,1012.6366 c 0.4303,39.9266 48.3887,75.4147 81.9121,40.0468 183.0776,-192.5449 365.53292,-385.74845 548.20252,-578.72498 182.6695,192.97653 365.12474,386.18008 548.20224,578.72498 43.7856,46.1947 112.1966,-28.4881 67.1682,-76.05707 -185.823,-195.93558 -370.82484,-392.95261 -557.52754,-587.98689 -4.8034,-5.6117 -10.2473,-10.4633 -16.1231,-14.4855 -12.4844,-9.643 -27.0796,-13.9638 -41.7198,-13.6909 -14.6402,-0.2729 -29.2354,4.0479 -41.7198,13.6909 -5.8758,4.0222 -11.3198,8.8738 -16.1231,14.4855 -186.7028,195.03428 -371.70472,392.05131 -557.52782,587.98689 -10.5534,11.14898 -14.8757,23.78787 -14.7439,36.01027 z"
       id="path1" />
  </g>
  <g
     style="stroke:currentColor;stroke-width:167.567"
     id="g2"
     transform="rotate(180,713.86671,1153.5801)">
    <path
       d="m 83.75224,1012.6366 c 0.4303,39.9266 48.3887,75.4147 81.9121,40.0468 183.0776,-192.5449 365.53292,-385.74845 548.20252,-578.72498 182.6695,192.97653 365.12474,386.18008 548.20224,578.72498 43.7856,46.1947 112.1966,-28.4881 67.1682,-76.05707 -185.823,-195.93558 -370.82484,-392.95261 -557.52754,-587.98689 -4.8034,-5.6117 -10.2473,-10.4633 -16.1231,-14.4855 -12.4844,-9.643 -27.0796,-13.9638 -41.7198,-13.6909 -14.6402,-0.2729 -29.2354,4.0479 -41.7198,13.6909 -5.8758,4.0222 -11.3198,8.8738 -16.1231,14.4855 -186.7028,195.03428 -371.70472,392.05131 -557.52782,587.98689 -10.5534,11.14898 -14.8757,23.78787 -14.7439,36.01027 z"
       id="path1-5" />
  </g>
</svg>
