<?xml version="1.0" encoding="utf-8"?>
<!--
  - Copyright 2016-2025 Crown Copyright
  -
  - Licensed under the Apache License, Version 2.0 (the "License");
  - you may not use this file except in compliance with the License.
  - You may obtain a copy of the License at
  -
  -     http://www.apache.org/licenses/LICENSE-2.0
  -
  - Unless required by applicable law or agreed to in writing, software
  - distributed under the License is distributed on an "AS IS" BASIS,
  - WITHOUT WARRANTIES OR CONDITIONS OF ANY KIND, either express or implied.
  - See the License for the specific language governing permissions and
  - limitations under the License.
  -->

<svg xmlns="http://www.w3.org/2000/svg" viewBox="0 0 512 512">
    <!-- Font Awesome Free 5.15.1 by @fontawesome - https://fontawesome.com License - https://fontawesome.com/license/free (Icons: CC BY 4.0, Fonts: SIL OFL 1.1, Code: MIT License) -->
    <path style="fill:#010101"
          d="M0 436V76c0-6.6 5.4-12 12-12h40c6.6 0 12 5.4 12 12v151.9L235.5 71.4C256.1 54.3 288 68.6 288 96v131.9L459.5 71.4C480.1 54.3 512 68.6 512 96v320c0 27.4-31.9 41.7-52.5 24.6L288 285.3V416c0 27.4-31.9 41.7-52.5 24.6L64 285.3V436c0 6.6-5.4 12-12 12H12c-6.6 0-12-5.4-12-12z"/>
</svg>
