<svg xmlns="http://www.w3.org/2000/svg" viewBox="0 0 384 512">
<!-- Font Awesome Free 5.15.1 by @fontawesome - https://fontawesome.com License - https://fontawesome.com/license/free (Icons: CC BY 4.0, Fonts: SIL OFL 1.1, Code: MIT License) -->
  <path style="fill:#2196f3"
     d="m 92.366072,207.064 c -2.070085,0 -3.861537,0.8632 -5.374365,2.58961 -1.512819,1.72642 -2.269171,3.77089 -2.269171,6.1333 l 0,17.44582 c 0,2.36241 0.756388,4.40684 2.269171,6.13329 1.512793,1.72646 3.30428,2.58962 5.374365,2.58962 l 29.519568,0 2.3548,0 39.28777,0 c 2.07008,0 3.86153,-0.8632 5.37436,-2.58962 1.51282,-1.72641 2.26917,-3.77088 2.26917,-6.13329 l 0,-17.44582 c 0,-2.36241 -0.75638,-4.40684 -2.26917,-6.1333 -1.51278,-1.72645 -3.30428,-2.58961 -5.37436,-2.58961 l -39.28777,0 -2.3548,0 -29.519568,0 z m 114.793388,0 c -2.362,0 -4.40643,0.86316 -6.1333,2.58961 -1.72686,1.72646 -2.58961,3.77116 -2.58961,6.13316 l 0,17.44582 c 0,2.362 0.86275,4.40643 2.58961,6.1333 1.72687,1.72686 3.7713,2.58961 6.1333,2.58961 l 25.92612,0 57.46216,0 c 2.37154,0 4.41597,-0.86275 6.1333,-2.58961 1.73095,-1.72687 2.58961,-3.7713 2.58961,-6.1333 l 0,-17.44582 c 0,-2.362 -0.85866,-4.4067 -2.58961,-6.13316 -1.71733,-1.72645 -3.76176,-2.58961 -6.1333,-2.58961 l -57.46216,0 -25.92612,0 z M 92.786556,266.90983 c -2.182488,0 -4.071213,0.8632 -5.666176,2.58961 -1.594973,1.72642 -2.392394,3.77089 -2.392394,6.1333 l 0,17.44581 c 0,2.36241 0.797458,4.40685 2.392394,6.1333 1.594926,1.72645 3.483688,2.58961 5.666176,2.58961 l 31.264724,0 82.19111,0 c 2.18248,0 4.07122,-0.8632 5.66618,-2.58961 1.59497,-1.72641 2.39238,-3.77089 2.39238,-6.1333 l 0,-17.44581 c 0,-2.36241 -0.79746,-4.40684 -2.39238,-6.1333 -1.59493,-1.72645 -3.4837,-2.58961 -5.66618,-2.58961 l -82.19111,0 -31.264724,0 z m 155.823074,0 c -2.36241,0 -4.40684,0.8632 -6.13329,2.58961 -1.72646,1.72642 -2.58962,3.77089 -2.58962,6.1333 l 0,17.44581 c 0,2.36241 0.8632,4.40685 2.58962,6.1333 1.72641,1.72645 3.77088,2.58961 6.13329,2.58961 l 16.05152,0 25.88932,0 c 2.36241,0 4.40684,-0.8632 6.13329,-2.58961 1.72646,-1.72641 2.58962,-3.77089 2.58962,-6.1333 l 0,-17.44581 c 0,-2.36241 -0.8632,-4.40684 -2.58962,-6.1333 -1.72641,-1.72645 -3.77088,-2.58961 -6.13329,-2.58961 l -25.88932,0 -16.05152,0 z m -70.84657,59.84582 c -2.18249,0 -4.07122,0.8632 -5.66618,2.58961 -1.59497,1.72642 -2.39239,3.77089 -2.39239,6.1333 l 0,17.44581 c 0,2.36241 0.79746,4.40685 2.39239,6.1333 1.59493,1.72645 3.48369,2.58961 5.66618,2.58961 l 31.26473,0 82.19111,0 c 2.18248,0 4.07121,-0.8632 5.66618,-2.58961 1.59496,-1.72641 2.39238,-3.77089 2.39238,-6.1333 l 0,-17.44581 c 0,-2.36241 -0.79746,-4.40684 -2.39238,-6.1333 -1.59493,-1.72645 -3.4837,-2.58961 -5.66618,-2.58961 l -82.19111,0 -31.26473,0 z m -84.317614,0 c -2.36241,0 -4.40684,0.8632 -6.1333,2.58961 -1.72645,1.72642 -2.58961,3.77089 -2.58961,6.1333 l 0,17.44581 c 0,2.36241 0.8632,4.40685 2.58961,6.1333 1.72642,1.72645 3.77089,2.58961 6.1333,2.58961 l 16.051514,0 25.88931,0 c 2.36241,0 4.40685,-0.8632 6.1333,-2.58961 1.72645,-1.72641 2.58961,-3.77089 2.58961,-6.1333 l 0,-17.44581 c 0,-2.36241 -0.8632,-4.40684 -2.58961,-6.1333 -1.72641,-1.72645 -3.77089,-2.58961 -6.1333,-2.58961 l -25.88931,0 -16.051514,0 z m 0,59.84582 c -2.36241,0 -4.40684,0.8632 -6.1333,2.58961 -1.72645,1.72641 -2.58961,3.77089 -2.58961,6.1333 l 0,17.44581 c 0,2.36241 0.8632,4.40684 2.58961,6.1333 1.72642,1.72645 3.77089,2.58961 6.1333,2.58961 l 33.688144,0 2.68733,0 44.83575,0 c 2.36241,0 4.40684,-0.8632 6.1333,-2.58961 1.72645,-1.72642 2.58961,-3.77089 2.58961,-6.1333 l 0,-17.44581 c 0,-2.36241 -0.8632,-4.40685 -2.58961,-6.1333 -1.72641,-1.72645 -3.77089,-2.58961 -6.1333,-2.58961 l -44.83575,0 -2.68733,0 -33.688144,0 z m 122.774884,0 c -2.13004,0 -3.97338,0.8632 -5.53002,2.58961 -1.55663,1.72641 -2.33489,3.77089 -2.33489,6.1333 l 0,17.44581 c 0,2.36241 0.77829,4.40684 2.33489,6.1333 1.55661,1.72645 3.39998,2.58961 5.53002,2.58961 l 23.3809,0 51.81133,0 c 2.13003,0 3.97337,-0.8632 5.53001,-2.58961 1.55663,-1.72642 2.33489,-3.77089 2.33489,-6.1333 l 0,-17.44581 c 0,-2.36241 -0.77829,-4.40685 -2.33489,-6.1333 -1.5566,-1.72645 -3.39998,-2.58961 -5.53001,-2.58961 l -51.81133,0 -23.3809,0 z M 369.9,97.9 286,14 C 277,5 264.8,-0.1 252.1,-0.1 L 48,-0.1 C 21.5,0 0,21.5 0,48 l 0,416 c 0,26.5 21.5,48 48,48 l 288,0 c 26.5,0 48,-21.5 48,-48 l 0,-332.1 c 0,-12.7 -5.1,-25 -14.1,-34 z M 332.1,128 256,128 256,51.9 332.1,128 Z M 48,464 48,48 l 160,0 0,104 c 0,13.3 10.7,24 24,24 l 104,0 0,288 -288,0 z" />
</svg>
