<?xml version="1.0" encoding="UTF-8" standalone="no"?>
<svg
        viewBox="0 0 384 512"
        version="1.1"
        id="svg416"
        xml:space="preserve"
        xmlns="http://www.w3.org/2000/svg"
><defs
     id="defs420" /><!-- Font Awesome Free 5.15.1 by @fontawesome - https://fontawesome.com License - https://fontawesome.com/license/free (Icons: CC BY 4.0, Fonts: SIL OFL 1.1, Code: MIT License) --><path
     style="fill:currentColor"
     d="M369.9 97.9L286 14C277 5 264.8-.1 252.1-.1H48C21.5 0 0 21.5 0 48v416c0 26.5 21.5 48 48 48h288c26.5 0 48-21.5 48-48V131.9c0-12.7-5.1-25-14.1-34zM332.1 128H256V51.9l76.1 76.1zM48 464V48h160v104c0 13.3 10.7 24 24 24h104v288H48z"
     id="path414" /><path
     style="fill:#000000;stroke-width:0.168617;fill-opacity:1"
     d="m 296.46393,371.28394 q 0,34.88939 -27.37471,54.03379 -27.19581,19.1444 -76.75658,19.1444 -92.14367,0 -106.815086,-64.05328 l 33.100146,-6.62002 q 5.72544,22.72281 24.33309,33.458 18.60765,10.5562 50.63429,10.5562 33.10015,0 50.99212,-11.2719 18.07089,-11.45086 18.07089,-33.45798 0,-12.34548 -5.72543,-20.03902 -5.54649,-7.69354 -15.74492,-12.7033 -10.19843,-5.00975 -24.33309,-8.40923 -14.13466,-3.39948 -31.31096,-7.33571 -29.8796,-6.62003 -45.44562,-13.24006 -15.38709,-6.62003 -24.33308,-14.67142 -8.94599,-8.23031 -13.77682,-19.14442 -4.651916,-10.9141 -4.651916,-25.04876 0,-32.38447 24.690926,-49.91861 24.86984,-17.53413 71.03114,-17.53413 42.94074,0 65.66355,13.24006 22.72281,13.06114 31.84771,44.72993 l -33.63692,5.90436 q -5.54649,-20.03902 -21.11252,-28.985 -15.56602,-9.12491 -43.11966,-9.12491 -30.23744,0 -46.1613,10.0195 -15.92385,10.01951 -15.92385,29.8796 0,11.62979 6.08327,19.32334 6.26219,7.51462 17.89197,12.88222 11.62979,5.18867 46.34022,12.88222 11.62979,2.6838 23.08065,5.54651 11.62978,2.6838 22.18605,6.62003 10.55625,3.75732 19.68117,8.94599 9.30383,5.18867 16.10278,12.7033 6.79895,7.51463 10.55627,17.71306 3.93622,10.19843 3.93622,23.97524 z"
     id="path675" /></svg>
