<?xml version="1.0" encoding="UTF-8" standalone="no"?>
<svg id="svg4232" xmlns:rdf="http://www.w3.org/1999/02/22-rdf-syntax-ns#" xmlns="http://www.w3.org/2000/svg" height="1792" width="1792" version="1.1" xmlns:cc="http://creativecommons.org/ns#" xmlns:dc="http://purl.org/dc/elements/1.1/" viewBox="0 0 1792 1792">
 <g id="g4311" fill="#2196f3" transform="translate(89.176 -311.75)">
  <path id="path4255" d="m71.887 1784.2c-17.333 0-32.333 6.3333-45 19s-19 27.667-19 45v128c0 17.333 6.3333 32.333 19 45s27.667 19 45 19h247.17 19.717 328.96c17.333 0 32.333-6.3333 45-19s19-27.667 19-45v-128c0-17.333-6.3333-32.333-19-45s-27.667-19-45-19h-328.96-19.717-247.17z"/>
  <path id="path4263" d="m356.3 1432c-17.333 0-32.333 6.3333-45 19s-19 27.667-19 45v128c0 17.333 6.3333 32.333 19 45s27.667 19 45 19h248.3 652.75c17.333 0 32.333-6.3333 45-19s19-27.667 19-45v-128c0-17.333-6.3333-32.333-19-45s-27.667-19-45-19h-652.75-248.3z"/>
  <path id="path4263-3" d="m640.72 1079.8c-17.333 0-32.333 6.3333-45 19s-19 27.667-19 45v128c0 17.333 6.3333 32.333 19 45s27.667 19 45 19h248.3 652.75c17.333 0 32.333-6.3333 45-19s19-27.667 19-45v-128c0-17.333-6.3333-32.333-19-45s-27.667-19-45-19h-652.75-248.3z"/>
  <path id="path4263-6" d="m356.3 727.52c-17.333 0-32.333 6.3333-45 19s-19 27.667-19 45v128c0 17.333 6.3333 32.333 19 45s27.667 19 45 19h248.3 652.75c17.333 0 32.333-6.3333 45-19s19-27.667 19-45v-128c0-17.333-6.3333-32.333-19-45s-27.667-19-45-19h-652.75-248.3z"/>
  <path id="path4255-7" d="m71.887 375.29c-17.333 0-32.333 6.3333-45 19s-19 27.667-19 45v128c0 17.333 6.3333 32.333 19 45s27.667 19 45 19h247.17 19.717 328.96c17.333 0 32.333-6.3333 45-19s19-27.667 19-45v-128c0-17.333-6.3333-32.333-19-45s-27.667-19-45-19h-328.96-19.717-247.17z"/>
 </g>
</svg>
