<?xml version="1.0" encoding="utf-8"?>
<svg xmlns="http://www.w3.org/2000/svg" width="1792" height="1792" viewBox="0 0 1792 1792">
    <path style="fill:#2196f3"
          d="m 1664,896 c 0,139.3333 -34.3333,267.8333 -103,385.5 -68.6667,117.6667 -161.8333,210.8333 -279.5,279.5 -117.6667,68.6667 -246.1667,103 -385.5,103 -139.33333,0 -267.83333,-34.3333 -385.5,-103 C 392.83333,1492.3333 299.66667,1399.1667 231,1281.5 162.33333,1163.8333 128,1035.3333 128,896 128,756.66667 162.33333,628.16667 231,510.5 299.66667,392.83333 392.83333,299.66667 510.5,231 628.16667,162.33333 756.66667,128 896,128 c 139.3333,0 267.8333,34.33333 385.5,103 117.6667,68.66667 210.8333,161.83333 279.5,279.5 68.6667,117.66667 103,246.16667 103,385.5 z"/>
    <path style="fill:#ffffff"
          d="m 1152,1376 0,-160 c 0,-9.3333 -3,-17 -9,-23 -6,-6 -13.6667,-9 -23,-9 l -96,0 0,-512 c 0,-9.33333 -3,-17 -9,-23 -6,-6 -13.6667,-9 -23,-9 l -320,0 c -9.33333,0 -17,3 -23,9 -6,6 -9,13.66667 -9,23 l 0,160 c 0,9.33333 3,17 9,23 6,6 13.66667,9 23,9 l 96,0 0,320 -96,0 c -9.33333,0 -17,3 -23,9 -6,6 -9,13.6667 -9,23 l 0,160 c 0,9.3333 3,17 9,23 6,6 13.66667,9 23,9 l 448,0 c 9.3333,0 17,-3 23,-9 6,-6 9,-13.6667 9,-23 z m -128,-896 0,-160 c 0,-9.33333 -3,-17 -9,-23 -6,-6 -13.6667,-9 -23,-9 l -192,0 c -9.33333,0 -17,3 -23,9 -6,6 -9,13.66667 -9,23 l 0,160 c 0,9.33333 3,17 9,23 6,6 13.66667,9 23,9 l 192,0 c 9.3333,0 17,-3 23,-9 6,-6 9,-13.66667 9,-23 z"/>
</svg>