<?xml version="1.0" encoding="utf-8"?>
<!--
  - Copyright 2016-2025 Crown Copyright
  -
  - Licensed under the Apache License, Version 2.0 (the "License");
  - you may not use this file except in compliance with the License.
  - You may obtain a copy of the License at
  -
  -     http://www.apache.org/licenses/LICENSE-2.0
  -
  - Unless required by applicable law or agreed to in writing, software
  - distributed under the License is distributed on an "AS IS" BASIS,
  - WITHOUT WARRANTIES OR CONDITIONS OF ANY KIND, either express or implied.
  - See the License for the specific language governing permissions and
  - limitations under the License.
  -->

<svg xmlns="http://www.w3.org/2000/svg" width="1792" height="1792" viewBox="0 0 1792 1792">
    <path style="fill:#010101"
          d="M1024 1408h640v-128h-640v128zm-384-512h1024v-128h-1024v128zm640-512h384v-128h-384v128zm512 832v256q0 26-19 45t-45 19h-1664q-26 0-45-19t-19-45v-256q0-26 19-45t45-19h1664q26 0 45 19t19 45zm0-512v256q0 26-19 45t-45 19h-1664q-26 0-45-19t-19-45v-256q0-26 19-45t45-19h1664q26 0 45 19t19 45zm0-512v256q0 26-19 45t-45 19h-1664q-26 0-45-19t-19-45v-256q0-26 19-45t45-19h1664q26 0 45 19t19 45z"/>
</svg>
