<?xml version="1.0" encoding="UTF-8" standalone="no"?>
<!--
  - Copyright 2016-2025 Crown Copyright
  -
  - Licensed under the Apache License, Version 2.0 (the "License");
  - you may not use this file except in compliance with the License.
  - You may obtain a copy of the License at
  -
  -     http://www.apache.org/licenses/LICENSE-2.0
  -
  - Unless required by applicable law or agreed to in writing, software
  - distributed under the License is distributed on an "AS IS" BASIS,
  - WITHOUT WARRANTIES OR CONDITIONS OF ANY KIND, either express or implied.
  - See the License for the specific language governing permissions and
  - limitations under the License.
  -->

<svg xmlns="http://www.w3.org/2000/svg" viewBox="0 0 448 512">
  <path style="fill:#ff8f00"
        d="m 382.4,227.2 -21.6,0 0,-64.8 C 360.8,86.98 299.42,25.6 224,25.6 148.58,25.6 87.2,86.98 87.2,162.4 l 0,64.8 -21.6,0 c -23.85,0 -43.2,19.35 -43.2,43.2 l 0,172.8 c 0,23.85 19.35,43.2 43.2,43.2 l 316.8,0 c 23.85,0 43.2,-19.35 43.2,-43.2 l 0,-172.8 c 0,-23.85 -19.35,-43.2 -43.2,-43.2 z m -93.6,0 -129.6,0 0,-64.8 c 0,-35.73 29.07,-64.8 64.8,-64.8 35.73,0 64.8,29.07 64.8,64.8 l 0,64.8 z" />
</svg>
