<?xml version="1.0" encoding="UTF-8" standalone="no"?>
<svg xmlns="http://www.w3.org/2000/svg" viewBox="0 0 448 512">
  <path style="fill:#ff8f00"
        d="m 382.4,227.2 -21.6,0 0,-64.8 C 360.8,86.98 299.42,25.6 224,25.6 148.58,25.6 87.2,86.98 87.2,162.4 l 0,64.8 -21.6,0 c -23.85,0 -43.2,19.35 -43.2,43.2 l 0,172.8 c 0,23.85 19.35,43.2 43.2,43.2 l 316.8,0 c 23.85,0 43.2,-19.35 43.2,-43.2 l 0,-172.8 c 0,-23.85 -19.35,-43.2 -43.2,-43.2 z m -93.6,0 -129.6,0 0,-64.8 c 0,-35.73 29.07,-64.8 64.8,-64.8 35.73,0 64.8,29.07 64.8,64.8 l 0,64.8 z" />
</svg>
