<!DOCTYPE svg PUBLIC "-//W3C//DTD SVG 1.1//EN" "http://www.w3.org/Graphics/SVG/1.1/DTD/svg11.dtd">

<svg fill="#010101" width="800px" height="800px" viewBox="0 0 32 32" version="1.1" xmlns="http://www.w3.org/2000/svg">

<g id="SVGRepo_bgCarrier" stroke-width="0"/>

<g id="SVGRepo_tracerCarrier" stroke-linecap="round" stroke-linejoin="round"/>

<g id="SVGRepo_iconCarrier"> <path d="M0 30.016v-6.016q0-0.64 0.352-1.12t0.864-0.704 1.12-0.128 1.088 0.544l1.568 1.6 5.6-5.6q0.384-0.384 0.832-0.512t0.864-0.064 0.768 0.32 0.608 0.608 0.32 0.8-0.032 0.832-0.544 0.832l-5.568 5.6 1.568 1.568q0.48 0.48 0.576 1.088t-0.128 1.12-0.736 0.864-1.12 0.352h-5.984q-0.832 0-1.44-0.576t-0.576-1.408zM18.048 12.288q-0.096-0.416 0.032-0.864t0.512-0.832l5.568-5.568-1.568-1.6q-0.48-0.448-0.544-1.056t0.096-1.152 0.736-0.864 1.12-0.352h6.016q0.8 0 1.408 0.608t0.576 1.408v5.984q0 0.64-0.352 1.152t-0.864 0.704-1.12 0.128-1.056-0.576l-1.6-1.568-5.6 5.568q-0.352 0.384-0.8 0.512t-0.864 0.064-0.8-0.32-0.576-0.608-0.32-0.768z"/> </g>

</svg>