<?xml version="1.0" encoding="utf-8"?>
<!--
  - Copyright 2016-2025 Crown Copyright
  -
  - Licensed under the Apache License, Version 2.0 (the "License");
  - you may not use this file except in compliance with the License.
  - You may obtain a copy of the License at
  -
  -     http://www.apache.org/licenses/LICENSE-2.0
  -
  - Unless required by applicable law or agreed to in writing, software
  - distributed under the License is distributed on an "AS IS" BASIS,
  - WITHOUT WARRANTIES OR CONDITIONS OF ANY KIND, either express or implied.
  - See the License for the specific language governing permissions and
  - limitations under the License.
  -->

<svg xmlns="http://www.w3.org/2000/svg" width="1792" height="1792" viewBox="0 0 1792 1792">
    <path style="fill:#010101"
          d="M1344 1024q133 0 226.5 93.5t93.5 226.5-93.5 226.5-226.5 93.5-226.5-93.5-93.5-226.5q0-12 2-34l-360-180q-92 86-218 86-133 0-226.5-93.5t-93.5-226.5 93.5-226.5 226.5-93.5q126 0 218 86l360-180q-2-22-2-34 0-133 93.5-226.5t226.5-93.5 226.5 93.5 93.5 226.5-93.5 226.5-226.5 93.5q-126 0-218-86l-360 180q2 22 2 34t-2 34l360 180q92-86 218-86z"/>
</svg>
