<?xml version="1.0" encoding="utf-8"?>
<svg xmlns="http://www.w3.org/2000/svg" width="1792" height="1792" viewBox="0 0 1792 1792">
    <path style="fill:#2196f3"
          d="M 685.875 193.30859 C 600.92254 193.30859 538.96121 215.17246 499.99219 258.90234 C 461.02317 302.1353 441.53906 371.7057 441.53906 467.61328 L 441.53906 620.41992 C 441.53906 694.95949 431.01593 746.64092 409.97266 775.46289 C 388.92938 804.28486 350.7403 818.69531 295.4043 818.69531 L 259.74805 818.69531 L 259.74805 984.91797 L 295.4043 984.91797 C 350.7403 984.91797 388.92938 999.57756 409.97266 1028.8965 C 431.01593 1057.7184 441.53906 1109.3999 441.53906 1183.9395 L 441.53906 1327.0547 C 441.53906 1422.9623 461.02317 1492.7819 499.99219 1536.5117 C 538.96121 1580.2417 600.92254 1602.1055 685.875 1602.1055 L 812.71875 1602.1055 L 812.71875 1434.3926 L 772.38477 1434.3926 C 717.43844 1434.3926 681.58676 1423.4587 664.83008 1401.5938 C 648.46309 1380.2258 640.28125 1334.0123 640.28125 1262.9512 L 640.28125 1139.2148 C 640.28125 1061.6936 631.51262 1005.2918 613.97656 970.00977 C 596.8302 934.72771 566.62867 910.37806 523.37305 896.96094 C 566.23897 884.53767 596.4405 860.68636 613.97656 825.4043 C 631.51262 790.12224 640.28125 733.47121 640.28125 655.45312 L 640.28125 531.7168 C 640.28125 461.15268 648.46309 415.18833 664.83008 393.82031 C 681.58676 371.95537 717.43844 361.02148 772.38477 361.02148 L 812.71875 361.02148 L 812.71875 193.30859 L 685.875 193.30859 z M 979.28125 193.30859 L 979.28125 361.02148 L 1020.1992 361.02148 C 1074.7559 361.02148 1110.217 371.95537 1126.584 393.82031 C 1143.3407 415.18833 1151.7188 461.15268 1151.7188 531.7168 L 1151.7188 655.45312 C 1151.7188 733.47121 1160.4874 790.12224 1178.0234 825.4043 C 1195.5594 860.68636 1225.9553 884.53767 1269.2109 896.96094 C 1225.9553 910.37806 1195.5594 934.72771 1178.0234 970.00977 C 1160.4874 1005.2918 1151.7188 1061.6936 1151.7188 1139.2148 L 1151.7188 1262.9512 C 1151.7188 1334.0123 1143.3407 1380.2258 1126.584 1401.5938 C 1110.217 1423.4587 1074.7558 1434.3926 1020.1992 1434.3926 L 979.28125 1434.3926 L 979.28125 1602.1055 L 1106.125 1602.1055 C 1191.0774 1602.1055 1253.0387 1580.2417 1292.0078 1536.5117 C 1330.9769 1492.7819 1350.4609 1422.9623 1350.4609 1327.0547 L 1350.4609 1183.9395 C 1350.4609 1109.3999 1360.9841 1057.7184 1382.0273 1028.8965 C 1403.0706 999.57756 1441.2597 984.91797 1496.5957 984.91797 L 1532.252 984.91797 L 1532.252 818.69531 L 1496.5957 818.69531 C 1441.2597 818.69531 1403.0706 804.28486 1382.0273 775.46289 C 1360.9841 746.64092 1350.4609 694.95949 1350.4609 620.41992 L 1350.4609 467.61328 C 1350.4609 371.7057 1330.9769 302.1353 1292.0078 258.90234 C 1253.0387 215.17246 1191.0774 193.30859 1106.125 193.30859 L 979.28125 193.30859 z "/>
</svg>