<?xml version="1.0" encoding="utf-8"?>
<svg xmlns="http://www.w3.org/2000/svg" width="1792" height="1792" viewBox="0 0 1792 1792">
    <path style="fill:#1976d2"
          d="m 1440,95.339844 c -9.3333,0 -17,2.999997 -23,8.999996 -6,6 -9,13.66667 -9,23 l 0,192 -256,0 c -45.3333,0 -88,5.5 -128,16.5 -40.00001,11 -75.50001,25 -106.50001,42 -31,17 -61,39.83333 -90,68.5 -29,28.66667 -53.66667,56.33333 -74,83 -20.33333,26.66667 -41.66667,60 -64,100 -19.99699,35.8155 -36.49225,67.59036 -49.54102,95.38868 -0.27492,0.10932 -0.53471,0.21669 -0.81054,0.32617 -16,30.66667 -31,56.5 -45,77.5 -14,21 -31,41.5 -51,61.5 -20,20 -43,35 -69,45 -26,10 -55,15 -87,15 l -355.148435,0 c -9.333333,0 -17,3 -23.0000004,9 -6,6 -9.0000000375455,13.66667 -9.0000000375455,23 l 0,192.00001 c 0,9.3333 3.0000000375455,17 9.0000000375455,23 6.0000004,6 13.6666674,9 23.0000004,9 l 355.148435,0 c 45.33333,0 88,-5.5 128,-16.5 40,-11 75.5,-25 106.5,-42 31,-17 61,-39.8333 90,-68.5 29,-28.6667 53.66667,-56.33334 74,-83.00001 20.33333,-26.66667 41.66667,-60 64,-100 19.8569,-35.56461 36.26775,-67.15315 49.27344,-94.8125 0.36178,-0.305 0.71557,-0.5961 1.07812,-0.90235 16,-30.66667 31,-56.5 45,-77.5 14,-21 31,-41.5 51,-61.5 20.00001,-20 43.00001,-35 69.00001,-45 26,-10 55,-15 87,-15 l 256,0 0,192 c 0,8.66667 3.1667,16.16667 9.5,22.5 6.3333,6.33333 13.8333,9.5 22.5,9.5 9.3333,0 17,-3 23,-9 l 320,-320 c 6,-6 9,-13.66667 9,-23 0,-9.33333 -3,-17 -9,-23 l -319,-319 c -8,-6.666666 -16,-9.999996 -24,-9.999996 z"/>
    <path style="fill:#388e3c"
          d="M 32 608.88672 C 22.666667 608.88672 15 611.88672 9 617.88672 C 3.0000001 623.88672 0 631.55342 0 640.88672 L 0 832.88672 C -2.3684758e-15 842.22005 3.0000001 849.88672 9 855.88672 C 14.999999 861.88672 22.666667 864.88672 32 864.88672 L 387.14844 864.88672 C 389.01484 864.88672 390.86885 864.90739 392.71484 864.94141 C 424.84023 863.54598 455.12074 854.70213 477.65234 838.51562 C 513.22947 811.0071 542.31317 769.76507 567.46094 723.21289 A 59.082625 59.082625 0 0 1 567.88281 722.44336 C 577.24508 705.7116 585.95748 689.48787 593.56641 673.41992 A 59.082625 59.082625 0 0 1 594.40625 671.7168 C 596.87369 666.9118 599.36286 662.08644 601.86719 657.25195 C 575.79127 644.74345 546.89263 634.11637 515.14844 625.38672 C 475.14844 614.38672 432.48177 608.88672 387.14844 608.88672 L 32 608.88672 z M 870.56641 957.2793 C 853.49205 984.29535 834.72449 1010.8834 813.4375 1036.3711 A 59.082625 59.082625 0 0 1 813.08984 1036.7852 C 777.58172 1078.5162 737.58032 1121.5966 687.80664 1156.543 C 688.3781 1157.5702 688.9227 1158.5676 689.5 1159.6016 C 711.83333 1199.6016 733.16667 1232.9349 753.5 1259.6016 C 773.83333 1286.2683 798.5 1313.9349 827.5 1342.6016 C 856.5 1371.2683 886.5 1394.1016 917.5 1411.1016 C 948.5 1428.1016 983.99999 1442.1016 1024 1453.1016 C 1064 1464.1016 1106.6667 1469.6016 1152 1469.6016 L 1408 1469.6016 L 1408 1661.6016 C 1408 1670.9349 1411 1678.6016 1417 1684.6016 C 1423 1690.6016 1430.6667 1693.6016 1440 1693.6016 C 1448 1693.6016 1456 1690.2683 1464 1683.6016 L 1783 1364.6016 C 1789 1358.6016 1792 1350.9349 1792 1341.6016 C 1792 1332.2683 1789 1324.6016 1783 1318.6016 L 1463 998.60156 C 1457 992.60156 1449.3333 989.60156 1440 989.60156 C 1431.3333 989.60156 1423.8333 992.76823 1417.5 999.10156 C 1411.1667 1005.4348 1408 1012.9349 1408 1021.6016 L 1408 1213.6016 L 1152 1213.6016 C 1120 1213.6016 1091 1208.6016 1065 1198.6016 C 1039 1188.6016 1016 1173.6016 996 1153.6016 C 976 1133.6016 959 1113.1016 945 1092.1016 C 931 1071.1016 916 1045.2683 900 1014.6016 C 899.63745 1014.2954 899.28365 1014.0042 898.92188 1013.6992 C 890.80126 996.429 881.35206 977.6246 870.56641 957.2793 z "/>
</svg>