<?xml version="1.0" encoding="UTF-8" standalone="no"?>
<svg
   width="1792"
   height="1792"
   viewBox="0 0 1792 1792"
   version="1.1"
   id="svg240"
   sodipodi:docname="saveas.svg"
   inkscape:version="1.2.2 (b0a8486541, 2022-12-01)"
   xmlns:inkscape="http://www.inkscape.org/namespaces/inkscape"
   xmlns:sodipodi="http://sodipodi.sourceforge.net/DTD/sodipodi-0.dtd"
   xmlns="http://www.w3.org/2000/svg"
   xmlns:svg="http://www.w3.org/2000/svg">
  <defs
     id="defs244">
    <linearGradient
       id="linearGradient914"
       inkscape:swatch="solid">
      <stop
         style="stop-color:#000000;stop-opacity:1;"
         offset="0"
         id="stop912" />
    </linearGradient>
    <inkscape:path-effect
       effect="fill_between_many"
       method="originald"
       linkedpaths="#path8251,0,1|#path8246,0,1"
       id="path-effect8253" />
  </defs>
  <sodipodi:namedview
     id="namedview242"
     pagecolor="#ffffff"
     bordercolor="#000000"
     borderopacity="0.25"
     inkscape:showpageshadow="2"
     inkscape:pageopacity="0.0"
     inkscape:pagecheckerboard="0"
     inkscape:deskcolor="#d1d1d1"
     showgrid="false"
     inkscape:zoom="0.26871636"
     inkscape:cx="844.7569"
     inkscape:cy="1114.5581"
     inkscape:window-width="1920"
     inkscape:window-height="1172"
     inkscape:window-x="0"
     inkscape:window-y="0"
     inkscape:window-maximized="1"
     inkscape:current-layer="svg240" />
  <!--! Font Awesome Free 6.4.0 by @fontawesome - https://fontawesome.com License - https://fontawesome.com/license (Commercial License) Copyright 2023 Fonticons, Inc. -->
  <path
     id="path4265"
     style="fill:#010101;fill-opacity:1;stroke-width:0.5839"
     d="m 1692.4485,1645.6688 c 53.3816,-53.3818 53.3816,-139.6698 0,-193.0514 l -73.1255,-73.3693 -238.6328,238.6328 73.3693,73.3693 c 53.3816,53.3818 139.6696,53.3818 193.0512,0 z M 1156.1948,916.36376 c -14.8687,-14.86883 -33.1501,-26.32523 -53.3814,-32.90651 L 886.36189,811.3068 c -20.96268,-7.06884 -44.11906,-1.46243 -59.96289,14.13755 -15.84383,15.60012 -21.20653,38.75651 -14.13769,59.9629 l 72.15045,216.45155 c 6.58141,19.9876 18.03768,38.269 32.90651,53.3816 l 408.04033,407.7965 238.8766,-238.8766 z M 339.40234,116.52148 c -122.83717,0 -222.70703,99.86984 -222.70703,222.70704 V 1452.7715 c 0,122.8373 99.86986,222.707 222.70703,222.707 H 1343.6699 l -138.2265,-138.8691 -28.0313,-28.1621 H 503.25 v -448.6114 c 0,-19.6317 16.06336,-35.6933 35.69531,-35.6933 h 251.1211 L 757.86914,917.05859 H 539.16797 c -78.75051,0 -142.7793,64.02692 -142.7793,142.77731 v 448.6114 h -56.98633 c -30.6223,0 -55.67578,-25.0534 -55.67578,-55.6758 V 339.22852 c 0,-30.6223 25.05348,-55.67579 55.67578,-55.67579 h 55.67774 v 361.90039 c 0,46.28145 37.2342,83.51563 83.51562,83.51563 h 668.125 c 46.2816,0 83.5156,-37.23418 83.5156,-83.51563 V 297.12305 c 1.044,1.04395 1.7393,1.73925 2.7832,2.7832 l 259.5957,258.89844 -0.3476,0.34961 c 10.4394,10.43942 16.3535,24.70511 16.3535,39.32031 v 560.24019 l 38.0605,38.2383 128.6231,129.2227 V 598.82422 c 0,-59.15672 -23.3146,-115.87903 -65.0723,-157.63672 l 0.3477,-0.34766 -259.2461,-259.24609 c -41.7579,-41.75769 -98.4779,-65.07227 -157.6348,-65.07227 z M 562.11133,283.55273 H 1063.2051 V 561.9375 H 562.11133 Z" />
</svg>
