<?xml version="1.0" encoding="utf-8"?>
<svg xmlns="http://www.w3.org/2000/svg" width="1792" height="1792" viewBox="0 0 1792 1792">
    <path id="background"
          d="m 224,128 c -26.66667,0 -49.33333,9.33333 -68,28 -18.66667,18.66667 -28,41.33333 -28,68 l 0,1344 c 0,26.6667 9.33333,49.3333 28,68 18.66667,18.6667 41.33333,28 68,28 l 1344,0 c 26.6667,0 49.3333,-9.3333 68,-28 18.6667,-18.6667 28,-41.3333 28,-68 l 0,-928 c 0,-26.66667 -6.6667,-56 -20,-88 -13.3333,-32 -29.3333,-57.33333 -48,-76 L 1316,196 c -18.6667,-18.66667 -44,-34.66667 -76,-48 -32,-13.33333 -61.3333,-20 -88,-20 z"
          style="fill:#1976d2"/>
    <path id="slider"
          style="fill:#eeeeee"
          d="M 384.00002,256 1152,256 l 0,415.99997 c 0,26.6667 -9.3333,49.3334 -28,68 -18.6667,18.6667 -41.3333,28 -68,28 l -575.99998,0 c -26.6667,0 -49.3333,-9.3333 -68,-28 -18.6667,-18.6666 -28,-41.3333 -28,-68 z"/>
    <path id="platter"
          style="fill:#616161"
          d="m 767.8022,255.3895 0,347.7071 c 0,9.8296 3.1667,18.3344 9.5,25.5175 6.3333,7.1832 13.8333,10.7754 22.5,10.7754 l 192,0 c 8.6667,0 16.1667,-3.5922 22.5,-10.7754 6.3333,-7.1831 9.5,-15.6879 9.5,-25.5175 l 0,-347.7071 z"/>
    <path id="label"
          style="fill:#ffffff"
          d="m 480.24608,1023.9999 832.00002,0 c 26.6667,0 49.3334,9.3333 68,28 18.6667,18.6667 28,41.3333 28,68 l 0,416 -1024.00002,0 0,-416 c 0,-26.6667 9.3333,-49.3333 28,-68 18.6667,-18.6667 41.3333,-28 68,-28 z"/>
</svg>