<?xml version="1.0" encoding="utf-8"?>
<!--
  - Copyright 2016-2025 Crown Copyright
  -
  - Licensed under the Apache License, Version 2.0 (the "License");
  - you may not use this file except in compliance with the License.
  - You may obtain a copy of the License at
  -
  -     http://www.apache.org/licenses/LICENSE-2.0
  -
  - Unless required by applicable law or agreed to in writing, software
  - distributed under the License is distributed on an "AS IS" BASIS,
  - WITHOUT WARRANTIES OR CONDITIONS OF ANY KIND, either express or implied.
  - See the License for the specific language governing permissions and
  - limitations under the License.
  -->

<svg height="16" viewBox="0 0 16 16" version="1.1" width="16" xmlns="http://www.w3.org/2000/svg">
    <path style="fill:#010101" fill-rule="evenodd" d="M6.823 7.823L4.427 5.427A.25.25 0 004 5.604v4.792c0 .223.27.335.427.177l2.396-2.396a.25.25 0 000-.354z"></path>
    <path style="fill:#010101" fill-rule="evenodd" d="M1.75 0A1.75 1.75 0 000 1.75v12.5C0 15.216.784 16 1.75 16h12.5A1.75 1.75 0 0016 14.25V1.75A1.75 1.75 0 0014.25 0H1.75zM1.5 1.75a.25.25 0 01.25-.25H9.5v13H1.75a.25.25 0 01-.25-.25V1.75zM11 14.5v-13h3.25a.25.25 0 01.25.25v12.5a.25.25 0 01-.25.25H11z"></path>
</svg>
