<?xml version="1.0" encoding="utf-8"?>
<svg xmlns="http://www.w3.org/2000/svg" viewBox="0 0 448 512">
    <path style="fill:#ff8f00"
          d="m 382.4,255.99995 -223.2,0 0,-92.79 c 0,-35.64 28.53,-65.249999 64.17,-65.609999 36,-0.36 65.43,28.889999 65.43,64.799999 l 0,14.4 c 0,11.97 9.63,21.6 21.6,21.6 l 28.8,0 c 11.97,0 21.6,-9.63 21.6,-21.6 l 0,-14.4 c 0,-75.599999 -61.65,-137.069999 -137.25,-136.799999 -75.6,0.27 -136.35,62.55 -136.35,138.149999 l 0,92.25 -21.6,0 c -23.85,0 -43.2,19.35 -43.2,43.2 l 0,144 c 0,23.85 19.35,43.2 43.2,43.2 l 316.8,0 c 23.85,0 43.2,-19.35 43.2,-43.2 l 0,-144 c 0,-23.85 -19.35,-43.2 -43.2,-43.2 z" />
</svg>