<?xml version="1.0" encoding="UTF-8" standalone="no"?>
<svg
   xmlns="http://www.w3.org/2000/svg"
   width="1792"
   viewBox="0 0 1792 1792"
   height="1792"
   id="svg4190"
   version="1.1">
  <path
     d="m 1357.6869,174.43922 -205.9575,348.37605 c -16.7261,28.30556 -0.4948,71.6547 40.8748,71.6547 l 411.8159,0 c 37.1139,0 59.4812,-40.28107 40.8748,-71.6547 L 1439.4364,174.43922 c -18.3095,-31.07668 -63.4401,-31.17566 -81.7495,0 z"
     style="fill:#2196f3;fill-opacity:1"
     id="path4198" />
  <path
     style="fill:#2196f3"
     d="m 1381.6288,935.44687 0,169.30993 q 0,35.273 -24.6911,59.9641 -24.6911,24.6909 -59.964,24.6909 l -366.83837,0 0,366.8385 q 0,35.2729 -24.69105,59.964 -24.69104,24.6911 -59.96399,24.6911 l -169.31004,0 q -35.27292,0 -59.96397,-24.6911 -24.69104,-24.6911 -24.69104,-59.964 l 0,-366.8385 -366.83843,0 q -35.27292,0 -59.96397,-24.6909 -24.69104,-24.6911 -24.69104,-59.9641 l 0,-169.30993 q 0,-35.27288 24.69104,-59.96393 24.69105,-24.69104 59.96397,-24.69104 l 366.83843,0 0,-366.83842 q 0,-35.27292 24.69104,-59.96397 24.69105,-24.69105 59.96397,-24.69105 l 169.31004,0 q 35.27295,0 59.96399,24.69105 24.69105,24.69105 24.69105,59.96397 l 0,366.83842 366.83837,0 q 35.2729,0 59.964,24.69104 24.6911,24.69105 24.6911,59.96393 z"
     id="path4256" />
</svg>
