<?xml version="1.0" encoding="utf-8"?>
<svg xmlns="http://www.w3.org/2000/svg" width="1792" height="1792" viewBox="0 0 1792 1792">
    <path style="fill:#2196f3"
          d="m 1600,800 0,192 q 0,40 -28,68 -28,28 -68,28 l -416,0 0,416 q 0,40 -28,68 -28,28 -68,28 l -192,0 q -40,0 -68,-28 -28,-28 -28,-68 l 0,-416 -416,0 q -40,0 -68,-28 -28,-28 -28,-68 l 0,-192 q 0,-40 28,-68 28,-28 68,-28 l 416,0 0,-416 q 0,-40 28,-68 28,-28 68,-28 l 192,0 q 40,0 68,28 28,28 28,68 l 0,416 416,0 q 40,0 68,28 28,28 28,68 z"/>
</svg>
