<?xml version="1.0" encoding="utf-8"?>
<svg xmlns="http://www.w3.org/2000/svg" width="1792" height="1792" viewBox="0 0 1792 1792">
    <path style="fill:#ffa000"
          d="m 1008,67 768,1408 c 19.1682,31.4648 23.1567,86.205 -2,126 -13.7834,22.0284 -26.3499,33.6691 -45.5484,44.8183 C 1713.8004,1654.3267 1689.1168,1664 1664,1664 l -1536,0 c -13.90257,0 -43.91811,-6.0363 -63.5,-17.5155 -18.893364,-11.0756 -34.393364,-24.8623 -46.242232,-46 -25.6977373,-40.1957 -23.2711934,-92.2486 0.577675,-131.1554 L 784,67 C 795.33333,46.333333 811,30 831,18 851,6 872.66667,0 896,0 c 23.33333,0 45,6 65,18 20,12 35.66667,28.333333 47,49 z"/>
    <path style="fill:#000000"
          d="m 1024,1375 0,-190 c 0,-9.3333 -3.1667,-17.1667 -9.5,-23.5 -6.3333,-6.3333 -13.8333,-9.5 -22.5,-9.5 l -192,0 c -8.66667,0 -16.16667,3.1667 -22.5,9.5 -6.33333,6.3333 -9.5,14.1667 -9.5,23.5 l 0,190 c 0,9.3333 3.16667,17.1667 9.5,23.5 6.33333,6.3333 13.83333,9.5 22.5,9.5 l 192,0 c 8.6667,0 16.1667,-3.1667 22.5,-9.5 6.3333,-6.3333 9.5,-14.1667 9.5,-23.5 z m -2,-374 18,-459 c 0,-8 -3.3333,-14.33333 -10,-19 -8.6667,-7.33333 -16.6667,-11 -24,-11 l -220,0 c -7.33333,0 -15.33333,3.66667 -24,11 -6.66667,4.66667 -10,11.66667 -10,21 l 17,457 c 0,6.6667 3.33333,12.1667 10,16.5 6.66667,4.3333 14.66667,6.5 24,6.5 l 185,0 c 9.33333,0 17.1667,-2.1667 23.5,-6.5 6.3333,-4.3333 9.8333,-9.8333 10.5,-16.5 z"/>
</svg>