<?xml version="1.0" encoding="UTF-8" standalone="no"?>
<svg xmlns="http://www.w3.org/2000/svg" viewBox="0 0 576 512">
  <!-- Font Awesome Free 5.15.1 by @fontawesome - https://fontawesome.com License - https://fontawesome.com/license/free (Icons: CC BY 4.0, Fonts: SIL OFL 1.1, Code: MIT License) -->
  <path
     style="fill:#000000"
     d="m 259.18988,334.88021 c -2.47172,-1.07063 -4.69334,-3.21787 -6.04078,-5.83857 -1.00597,-1.95656 -1.37041,-7.32865 -4.92724,-72.63006 l -3.84092,-70.51722 1.61295,-3.15387 c 1.23062,-2.40628 2.24024,-3.54178 4.25934,-4.79038 l 2.6464,-1.63652 33.69245,-0.15435 c 38.52635,-0.17649 37.74485,-0.24939 41.54691,3.87536 1.27144,1.37935 2.4595,3.3531 2.81661,4.67928 0.92518,3.43587 -6.59535,140.76188 -7.88524,143.98563 -1.05146,2.62784 -4.51356,5.75526 -7.19611,6.50047 -1.15399,0.32057 -12.50013,0.52712 -28.35981,0.51625 -22.40473,-0.0153 -26.72422,-0.14284 -28.32456,-0.83602 z"/>
  <path
     style="fill:#000000"
     d="m 278.61243,444.75613 c -17.58452,-3.71724 -31.6815,-17.71863 -35.3373,-35.09766 -1.16669,-5.54625 -1.04659,-14.90277 0.26132,-20.35821 3.95596,-16.50076 16.44286,-29.16546 33.18768,-33.66021 6.07028,-1.62942 16.551,-1.63485 22.65964,-0.0117 20.5712,5.46594 34.28826,23.39489 34.24986,44.76645 -0.0516,28.73377 -26.82677,50.32146 -55.0212,44.36136 z"/>
  <path
     style="fill:#fdd835;stroke:#000000;stroke-width:2"
     d="M 38.258377,510.82094 C 27.561797,508.45629 17.536749,502.34233 11.035302,494.21843 7.4853807,489.78262 3.8639332,482.76226 2.0450399,476.79035 0.72595568,472.45944 0.57626382,471.14319 0.57626382,463.87524 c 0,-7.2408 0.15246535,-8.59295 1.44831088,-12.8445 0.796571,-2.61346 2.0869503,-6.01241 2.8675092,-7.55321 C 6.9930778,439.33024 247.1814,22.965119 249.11185,20.12392 c 2.58171,-3.799697 8.36601,-9.323559 12.69683,-12.1251523 21.95011,-14.1994562 51.28227,-8.30784112 65.7387,13.2041823 1.17084,1.742279 180.62743,312.6478 240.28576,416.29102 5.948,10.33334 7.71016,16.36492 7.70746,26.38127 0,5.5716 -0.25298,7.95655 -1.22319,11.59931 -4.99175,18.74199 -19.48222,32.2919 -38.05064,35.58077 -2.20897,0.39126 -79.38876,0.55373 -248.9863,0.52413 C 85.209711,511.54419 40.919734,511.40928 38.258377,510.82094 Z M 299.38377,444.7394 c 21.4291,-5.52665 35.85719,-25.20662 34.622,-47.22454 -1.07496,-19.16169 -13.14273,-35.01815 -31.53472,-41.43507 -4.20556,-1.46731 -5.53745,-1.66592 -12.52879,-1.8683 -8.98847,-0.26018 -13.08938,0.3954 -19.70742,3.1505 -11.74323,4.88872 -21.21512,14.78407 -25.55357,26.696 -4.24257,11.64868 -3.4881,25.77774 1.95737,36.65602 3.07997,6.15279 9.47529,13.43294 15.24882,17.35858 10.96568,7.45598 24.8586,9.92613 37.49631,6.66681 z m 16.33625,-109.09329 c 3.19009,-0.80327 7.16018,-4.61611 8.04749,-7.72872 0.33835,-1.18694 0.76569,-4.82867 0.94964,-8.09273 0.18395,-3.26407 1.04633,-18.19516 1.91641,-33.18019 0.87008,-14.98504 1.95895,-34.52898 2.41972,-43.43098 0.46076,-8.902 1.30397,-25.18178 1.87378,-36.17728 0.77431,-14.94176 0.8896,-20.56866 0.45638,-22.2754 -0.73963,-2.91396 -4.64863,-7.32492 -7.33444,-8.2763 -1.57951,-0.5595 -9.4021,-0.71043 -36.82165,-0.71043 l -34.81605,0 -2.61985,1.8883 c -1.61354,1.163 -3.25375,3.01312 -4.27021,4.81672 l -1.65036,2.92842 0.93903,17.57316 c 1.46814,27.475 5.1226,93.78202 6.02347,109.29076 0.55231,9.50839 1.08281,14.75237 1.64669,16.27777 0.96757,2.61746 4.88827,6.46493 7.08256,6.9503 0.83356,0.18438 1.75834,0.41622 2.05507,0.5152 0.29674,0.099 12.02484,0.19914 26.06246,0.22257 17.88879,0.0298 26.27579,-0.14697 28.03986,-0.59117 z"/>
</svg>
