<?xml version="1.0" encoding="utf-8"?>
<svg xmlns="http://www.w3.org/2000/svg" width="1427.7665" height="1427.7665" viewBox="0 0 1427.7665 1427.7665">
  <path
     style="fill:none;stroke:#fff;stroke-width:167.567;stroke-miterlimit:4;stroke-dasharray:none;stroke-opacity:1"
     d="m 1343.9812,415.01091 c -0.4303,-39.92654 -48.3887,-75.41463 -81.9121,-40.0468 C 1078.9915,567.50904 896.53618,760.71259 713.86658,953.68912 531.19708,760.71259 348.74187,567.50904 165.6643,374.96411 121.87875,328.7694 53.467698,403.45223 98.496155,451.02121 284.31914,646.95679 469.32098,843.97382 656.02368,1039.0081 c 4.8034,5.6117 10.2473,10.4633 16.1231,14.4855 12.4844,9.643 27.0796,13.9638 41.7198,13.6909 14.6402,0.2729 29.2354,-4.0479 41.7198,-13.6909 5.8758,-4.0222 11.3198,-8.8738 16.1231,-14.4855 186.7028,-195.03428 371.70472,-392.05131 557.52782,-587.98689 10.5534,-11.14898 14.8757,-23.78789 14.7439,-36.0103 z"
     id="path983" />
</svg>
