<?xml version="1.0" encoding="utf-8"?>
<svg xmlns="http://www.w3.org/2000/svg" width="1427.7665" height="1427.7665" viewBox="0 0 1427.7665 1427.7665">
  <path
     style="fill:#000000;stroke:#000;stroke-width:167.567;stroke-miterlimit:4;stroke-dasharray:none;stroke-opacity:1"
     d="m 415.05387,83.70929 c -39.92654,0.4303 -75.41463,48.3887 -40.0468,81.9121 C 567.552,348.69899 760.75555,531.15431 953.73208,713.82391 760.75555,896.49341 567.552,1078.9486 375.00707,1262.0262 c -46.19471,43.7855 28.48812,112.1966 76.0571,67.1681 195.93558,-185.823 392.95261,-370.82479 587.98693,-557.52749 5.6117,-4.8034 10.4633,-10.2473 14.4855,-16.1231 9.643,-12.4844 13.9638,-27.0796 13.6909,-41.7198 0.2729,-14.6402 -4.0479,-29.2354 -13.6909,-41.7198 -4.0222,-5.8758 -8.8738,-11.3198 -14.4855,-16.1231 C 844.01678,469.27821 646.99975,284.27629 451.06417,98.45319 439.91519,87.89979 427.27628,83.57749 415.05387,83.70929 Z"
     id="path983" />
</svg>
