<?xml version="1.0" encoding="UTF-8" standalone="no"?>
<svg
        viewBox="0 0 1792 1792"
        width="1792"
        height="1792"
        xmlns="http://www.w3.org/2000/svg">
    <!--! Font Awesome Free 6.1.1 by @fontawesome - https://fontawesome.com License - https://fontawesome.com/license/free (Icons: CC BY 4.0, Fonts: SIL OFL 1.1, Code: MIT License) Copyright 2022 Fonticons, Inc. -->
    <path
            d="M 323.20585,900.29456 C 267.96269,944.22651 221.88463,1041.1798 185.60291,1146.2126 l 152.42367,-55.5463 c 14.51774,-5.3652 26.81364,11.9905 16.72696,23.9834 l -238.91155,283.0354 c -18.304977,79.2795 -27.77307,140.1277 -27.77307,140.1277 0,0 521.62881,34.3882 673.1183,-86.1469 151.48948,-120.8634 193.47732,-378.9763 193.47732,-378.9763 L 735.68649,796.77674 c 0,0 -261.06689,-19.18867 -412.48064,103.51782 z M 1686.7881,280.80354 c -27.3691,-35.12031 -78.0423,-41.53336 -113.3898,-14.19961 L 1003.5452,709.96316 915.20153,598.71938 c -12.8766,-16.04778 -38.12485,-13.01799 -46.96174,5.66571 l -63.62558,135.33061 219.02849,275.7109 148.3335,-31.5603 c 20.1986,-4.10288 28.7326,-28.07609 16.0959,-44.18447 l -83.799,-105.51243 568.5906,-442.3493 c 35.1329,-25.07152 41.445,-75.84575 13.9244,-111.01656 z"
            style="fill:#2196f3;fill-opacity:1;stroke-width:2.52483" />
</svg>
