<svg width="1792" height="1792" viewBox="0 0 1792 1792" version="1.1" xmlns="http://www.w3.org/2000/svg"><g style="fill:currentColor"><path style="fill:currentColor;fill-opacity:1;stroke-width:0.881986" d="m 1232.0366,1095.3288 c 0,-15.2878 -5.5859,-28.5176 -16.7578,-39.6894 L 1055.6394,895.99998 1215.2788,736.36055 c 11.1719,-11.17182 16.7578,-24.40161 16.7578,-39.68936 0,-15.87574 -5.5859,-29.39952 -16.7578,-40.57134 l -79.3787,-79.37872 c -11.1718,-11.17182 -24.6956,-16.75773 -40.5713,-16.75773 -15.2878,0 -28.5176,5.58591 -39.6894,16.75773 L 895.99998,736.36055 736.36055,576.72113 c -11.17182,-11.17182 -24.40161,-16.75773 -39.68936,-16.75773 -15.87574,0 -29.39952,5.58591 -40.57134,16.75773 l -79.37872,79.37872 c -11.17182,11.17182 -16.75773,24.6956 -16.75773,40.57134 0,15.28775 5.58591,28.51754 16.75773,39.68936 L 736.36055,895.99998 576.72113,1055.6394 c -11.17182,11.1718 -16.75773,24.4016 -16.75773,39.6894 0,15.8757 5.58591,29.3995 16.75773,40.5713 l 79.37872,79.3787 c 11.17182,11.1719 24.6956,16.7578 40.57134,16.7578 15.28775,0 28.51754,-5.5859 39.68936,-16.7578 l 159.63943,-159.6394 159.63942,159.6394 c 11.1718,11.1719 24.4016,16.7578 39.6894,16.7578 15.8757,0 29.3995,-5.5859 40.5713,-16.7578 l 79.3787,-79.3787 c 11.1719,-11.1718 16.7578,-24.6956 16.7578,-40.5713 z"/><path style="fill:currentColor" d="m 896,127.99998 c -139.3332,0 -267.8335,34.3334 -385.50003,103 -117.66655,68.66665 -210.8334,161.83345 -279.5,279.50005 -68.6666,117.6665 -103,246.1668 -103,385.5 0,139.33317 34.3334,267.83347 103,385.49997 68.6666,117.6664 161.83345,210.8334 279.5,279.5 117.66653,68.6666 246.16683,103 385.50003,103 139.3332,0 267.8335,-34.3334 385.5,-103 117.6665,-68.6666 210.8334,-161.8336 279.5,-279.5 68.6666,-117.6665 103,-246.1668 103,-385.49997 0,-139.3332 -34.3334,-267.8335 -103,-385.5 -68.6666,-117.6666 -161.8335,-210.8334 -279.5,-279.50005 -117.6665,-68.6666 -246.1668,-103 -385.5,-103 z m 0,224.00005 c 98.66653,0 189.6668,24.3333 273,73 83.3332,48.6666 149.3334,114.6667 198,198 48.6666,83.3332 73,174.3334 73,273 0,98.66649 -24.3334,189.66677 -73,272.99997 -48.6666,83.3332 -114.6668,149.3334 -198,198 -83.3332,48.6666 -174.33347,73 -273,73 -98.6666,0 -189.6668,-24.3334 -273,-73 -83.3333,-48.6666 -149.33341,-114.6668 -198.00003,-198 -48.66662,-83.3332 -73,-174.33348 -73,-272.99997 0,-98.6666 24.33338,-189.6668 73,-273 48.66662,-83.3333 114.66673,-149.3334 198.00003,-198 83.3332,-48.6667 174.3334,-73 273,-73 z" /></g></svg> 