<!--
  - Copyright 2016-2025 Crown Copyright
  -
  - Licensed under the Apache License, Version 2.0 (the "License");
  - you may not use this file except in compliance with the License.
  - You may obtain a copy of the License at
  -
  -     http://www.apache.org/licenses/LICENSE-2.0
  -
  - Unless required by applicable law or agreed to in writing, software
  - distributed under the License is distributed on an "AS IS" BASIS,
  - WITHOUT WARRANTIES OR CONDITIONS OF ANY KIND, either express or implied.
  - See the License for the specific language governing permissions and
  - limitations under the License.
  -->

<svg xmlns="http://www.w3.org/2000/svg" width="1792" height="1792" viewBox="0 0 1792 1792"><path style="fill:currentColor" d="M1664 1632v-1088q0-13-9.5-22.5t-22.5-9.5h-1088q-13 0-22.5 9.5t-9.5 22.5v1088q0 13 9.5 22.5t22.5 9.5h1088q13 0 22.5-9.5t9.5-22.5zm128-1088v1088q0 66-47 113t-113 47h-1088q-66 0-113-47t-47-113v-1088q0-66 47-113t113-47h1088q66 0 113 47t47 113zm-384-384v160h-128v-160q0-13-9.5-22.5t-22.5-9.5h-1088q-13 0-22.5 9.5t-9.5 22.5v1088q0 13 9.5 22.5t22.5 9.5h160v128h-160q-66 0-113-47t-47-113v-1088q0-66 47-113t113-47h1088q66 0 113 47t47 113z"/></svg>
