<!-- Created with Inkscape (http://www.inkscape.org/) --><svg width="82mm" height="82mm" viewBox="0 0 82 82.000001" version="1.1" id="svg5" xmlns="http://www.w3.org/2000/svg" xmlns:svg="http://www.w3.org/2000/svg"><defs id="defs2" /><g id="layer1" transform="translate(-33.703152,-50.187084)"><g id="g6232"><path id="path111" style="fill:var(--icon-colour__blue);fill-opacity:1;stroke:none;stroke-width:0.301984;stroke-opacity:1" d="M 56.015485 89.490111 A 18.318985 18.318985 0 0 0 43.503071 94.24486 A 18.318985 18.318985 0 0 0 42.252501 120.12183 A 18.318985 18.318985 0 0 0 68.129474 121.37189 A 18.318985 18.318985 0 0 0 69.379527 95.494913 A 18.318985 18.318985 0 0 0 56.015485 89.490111 z M 48.491397 110.9255 A 4.1437071 3.8358509 47.765907 0 1 51.738227 112.35332 A 4.1437071 3.8358509 47.765907 0 1 51.68345 117.99948 A 4.1437071 3.8358509 47.765907 0 1 46.057953 117.51011 A 4.1437071 3.8358509 47.765907 0 1 46.11273 111.86342 A 4.1437071 3.8358509 47.765907 0 1 48.491397 110.9255 z " /><path style="fill:var(--icon-colour__blue);fill-opacity:1;stroke:none;stroke-width:0.301984;stroke-opacity:1" d="m 71.096528,101.0691 40.812572,-37.050859 -0.61713,-6.57253 -6.8837,-1.198792 -6.174641,5.474956 -4.306236,-0.440496 -4.385505,4.008329 0.981986,7.495261 -6.667405,6.001102 -3.5956,-0.639832 -6.576664,6.101057 -9.192327,8.187453" id="path845" /></g></g></svg> 