<?xml version="1.0" encoding="utf-8"?>
<svg xmlns="http://www.w3.org/2000/svg" width="1792" height="1792" viewBox="0 0 1792 1792">
    <!--
    <path
            style="fill:#ff8f00"
            d="m 896,0 q 208,0 385,34.5 177,34.5 280,93.5 103,59 103,128 v 128 q 0,69 -103,128 -103,59 -280,93.5 Q 1104,640 896,640 688,640 511,605.5 334,571 231,512 128,453 128,384 V 256 Q 128,187 231,128 334,69 511,34.5 688,0 896,0 Z"
            id="path246" />
    <path
            style="fill:#4caf50"
            d="m 896,1152 q 237,0 443,-43 206,-43 325,-127 v 170 q 0,69 -103,128 -103,59 -280,93.5 -177,34.5 -385,34.5 -208,0 -385,-34.5 Q 334,1339 231,1280 128,1221 128,1152 V 982 q 119,84 325,127 206,43 443,43 z"
            id="path244" />
    <path
            style="fill:#2196f3"
            d="m 896,1536 q 237,0 443,-43 206,-43 325,-127 v 170 q 0,69 -103,128 -103,59 -280,93.5 -177,34.5 -385,34.5 -208,0 -385,-34.5 Q 334,1723 231,1664 128,1605 128,1536 v -170 q 119,84 325,127 206,43 443,43 z"
            id="path242" />
    <path
            style="fill:#ffeb3b"
            d="m 896,768 q 237,0 443,-43 206,-43 325,-127 v 170 q 0,69 -103,128 -103,59 -280,93.5 Q 1104,1024 896,1024 688,1024 511,989.5 334,955 231,896 128,837 128,768 V 598 q 119,84 325,127 206,43 443,43 z"
            id="path74" />
    <path style="fill:#000000;stroke:red;stroke-width:22"
          d="M1595 295q17 41-14 70l-493 493v742q0 42-39 59-13 5-25 5-27 0-45-19l-256-256q-19-19-19-45v-486l-493-493q-31-29-14-70 17-39 59-39h1280q42 0 59 39z"/>
-->

<!--

    <path
            style="fill:#2196f3"
            d="m 896,0 q 208,0 385,34.5 177,34.5 280,93.5 103,59 103,128 v 128 q 0,69 -103,128 -103,59 -280,93.5 Q 1104,640 896,640 688,640 511,605.5 334,571 231,512 128,453 128,384 V 256 Q 128,187 231,128 334,69 511,34.5 688,0 896,0 Z"
            id="path246" />
    <path
            style="fill:#2196f3"
            d="m 896,1152 q 237,0 443,-43 206,-43 325,-127 v 170 q 0,69 -103,128 -103,59 -280,93.5 -177,34.5 -385,34.5 -208,0 -385,-34.5 Q 334,1339 231,1280 128,1221 128,1152 V 982 q 119,84 325,127 206,43 443,43 z"
            id="path244" />
    <path
            style="fill:#2196f3"
            d="m 896,1536 q 237,0 443,-43 206,-43 325,-127 v 170 q 0,69 -103,128 -103,59 -280,93.5 -177,34.5 -385,34.5 -208,0 -385,-34.5 Q 334,1723 231,1664 128,1605 128,1536 v -170 q 119,84 325,127 206,43 443,43 z"
            id="path242" />
    <path
            style="fill:#2196f3"
            d="m 896,768 q 237,0 443,-43 206,-43 325,-127 v 170 q 0,69 -103,128 -103,59 -280,93.5 Q 1104,1024 896,1024 688,1024 511,989.5 334,955 231,896 128,837 128,768 V 598 q 119,84 325,127 206,43 443,43 z"
            id="path74" />
    <path style="fill:#ffeb3b"
          d="M1595 295q17 41-14 70l-493 493v742q0 42-39 59-13 5-25 5-27 0-45-19l-256-256q-19-19-19-45v-486l-493-493q-31-29-14-70 17-39 59-39h1280q42 0 59 39z"/>
-->

    <path style="fill:#4caf50"
          d="M1595 295q17 41-14 70l-493 493v742q0 42-39 59-13 5-25 5-27 0-45-19l-256-256q-19-19-19-45v-486l-493-493q-31-29-14-70 17-39 59-39h1280q42 0 59 39z"/>
</svg>