<svg width="1792" height="1792" viewBox="0 0 1792 1792" version="1.1" xmlns="http://www.w3.org/2000/svg"><path style="fill:currentColor" d="M 896 128 C 756.66681 128 628.16655 162.3334 510.5 231 C 392.83345 299.6666 299.6666 392.83345 231 510.5 C 162.3334 628.16655 128 756.66681 128 896 C 128 1035.3332 162.3334 1163.8335 231 1281.5 C 299.6666 1399.1665 392.83345 1492.3334 510.5 1561 C 628.16655 1629.6666 756.66681 1664 896 1664 C 1035.3332 1664 1163.8335 1629.6666 1281.5 1561 C 1399.1665 1492.3334 1492.3334 1399.1665 1561 1281.5 C 1629.6666 1163.8335 1664 1035.3332 1664 896 C 1664 756.66681 1629.6666 628.16655 1561 510.5 C 1492.3334 392.83345 1399.1665 299.6666 1281.5 231 C 1163.8335 162.3334 1035.3332 128 896 128 z M 896 352 C 994.66657 352 1085.6668 376.33338 1169 425 C 1252.3332 473.66662 1318.3334 539.66675 1367 623 C 1415.6666 706.33325 1440 797.33343 1440 896 C 1440 994.66657 1415.6666 1085.6668 1367 1169 C 1318.3334 1252.3332 1252.3332 1318.3334 1169 1367 C 1085.6668 1415.6666 994.66657 1440 896 1440 C 797.33343 1440 706.33325 1415.6666 623 1367 C 539.66675 1318.3334 473.66662 1252.3332 425 1169 C 376.33338 1085.6668 352 994.66657 352 896 C 352 797.33343 376.33338 706.33325 425 623 C 473.66662 539.66675 539.66675 473.66662 623 425 C 706.33325 376.33338 797.33343 352 896 352 z " /><path style="fill:currentColor;fill-opacity:1;stroke-width:3.80567" d="m 896.00012,408.87347 c 50.6154,0 91.33614,40.72074 91.33614,91.33624 v 426.23583 c 0,50.61551 -40.72074,91.33616 -91.33614,91.33616 -50.61558,0 -91.33627,-40.72065 -91.33627,-91.33616 V 500.2097 c 0,-50.61549 40.72069,-91.33624 91.33627,-91.33623 z M 774.21834,1261.3449 a 121.78168,121.78168 0 1 1 243.56336,0 121.78168,121.78168 0 1 1 -243.56336,0 z" /></svg> 