<?xml version="1.0" encoding="UTF-8" standalone="no"?>
<svg xmlns="http://www.w3.org/2000/svg"
     width="1792"
     height="1792"
     viewBox="0 0 1792 1792"
     version="1.1">
    <path style="fill:currentColor;fill-opacity:1;stroke-width:3.09787"
          d="m 896,1689.0561 a 793.05621,793.05621 0 1 0 0,-1586.1122 793.05621,793.05621 0 1 0 0,1586.1122 z"/>
    <!--! Font Awesome Free 6.4.0 by @fontawesome - https://fontawesome.com License - https://fontawesome.com/license (Commercial License) Copyright 2023 Fonticons, Inc. -->
    <path style="fill:#ffffff;fill-opacity:1;stroke-width:4.58448"
          d="m 749.29634,1336.062 a 146.70369,146.70369 0 1 1 293.40736,0 146.70369,146.70369 0 1 1 -293.40736,0 z"/>
    <path style="fill:#ffffff;fill-opacity:1;stroke-width:4.58448"
          d="m 896.00006,309.13656 c 60.97368,0 110.02774,49.05404 110.02774,110.02775 v 513.46292 c 0,60.97372 -49.05406,110.02767 -110.02774,110.02767 -60.97381,0 -110.0278,-49.05395 -110.0278,-110.02767 V 419.16431 c 0,-60.97371 49.05399,-110.02775 110.0278,-110.02775 z"/>
</svg>
