<!--
  - Copyright 2016-2025 Crown Copyright
  -
  - Licensed under the Apache License, Version 2.0 (the "License");
  - you may not use this file except in compliance with the License.
  - You may obtain a copy of the License at
  -
  -     http://www.apache.org/licenses/LICENSE-2.0
  -
  - Unless required by applicable law or agreed to in writing, software
  - distributed under the License is distributed on an "AS IS" BASIS,
  - WITHOUT WARRANTIES OR CONDITIONS OF ANY KIND, either express or implied.
  - See the License for the specific language governing permissions and
  - limitations under the License.
  -->

<svg xmlns="http://www.w3.org/2000/svg" width="1792" height="1792" viewBox="0 0 1792 1792"><path style="fill:currentColor" d="M1792 1248v320q0 40-28 68t-68 28h-320q-40 0-68-28t-28-68v-320q0-40 28-68t68-28h96v-192h-512v192h96q40 0 68 28t28 68v320q0 40-28 68t-68 28h-320q-40 0-68-28t-28-68v-320q0-40 28-68t68-28h96v-192h-512v192h96q40 0 68 28t28 68v320q0 40-28 68t-68 28h-320q-40 0-68-28t-28-68v-320q0-40 28-68t68-28h96v-192q0-52 38-90t90-38h512v-192h-96q-40 0-68-28t-28-68v-320q0-40 28-68t68-28h320q40 0 68 28t28 68v320q0 40-28 68t-68 28h-96v192h512q52 0 90 38t38 90v192h96q40 0 68 28t28 68z"/></svg>
