<!--
  - Copyright 2016-2025 Crown Copyright
  -
  - Licensed under the Apache License, Version 2.0 (the "License");
  - you may not use this file except in compliance with the License.
  - You may obtain a copy of the License at
  -
  -     http://www.apache.org/licenses/LICENSE-2.0
  -
  - Unless required by applicable law or agreed to in writing, software
  - distributed under the License is distributed on an "AS IS" BASIS,
  - WITHOUT WARRANTIES OR CONDITIONS OF ANY KIND, either express or implied.
  - See the License for the specific language governing permissions and
  - limitations under the License.
  -->

<svg xmlns="http://www.w3.org/2000/svg" width="1792" height="1792" viewBox="0 0 1792 1792"><path fill="transparent" stroke="var(--icon-colour__orange)" stroke-width="100" d="M 1649.449 663.853 C 1649.449 677.135 1641.6 691.624 1625.903 707.321 L 1297.175 1027.899 L 1375.056 1480.692 C 1375.659 1484.919 1375.961 1490.956 1375.961 1498.804 C 1375.961 1511.482 1372.792 1522.199 1366.453 1530.953 C 1360.114 1539.707 1350.907 1544.084 1338.832 1544.084 C 1327.361 1544.084 1315.287 1540.461 1302.609 1533.217 L 896 1319.498 L 489.391 1533.217 C 476.109 1540.461 464.035 1544.084 453.168 1544.084 C 440.49 1544.084 430.981 1539.707 424.642 1530.953 C 418.303 1522.199 415.133 1511.482 415.133 1498.804 C 415.133 1495.182 415.737 1489.145 416.944 1480.692 L 494.825 1027.899 L 165.191 707.321 C 150.098 691.02 142.551 676.531 142.551 663.853 C 142.551 641.515 159.456 627.629 193.264 622.196 L 647.869 556.088 L 851.626 144.045 C 863.097 119.293 877.888 106.916 896 106.916 C 914.112 106.916 928.903 119.293 940.374 144.045 L 1144.131 556.088 L 1598.736 622.196 C 1632.544 627.629 1649.449 641.515 1649.449 663.853 Z" style=""/></svg>
