<?xml version="1.0" encoding="UTF-8" standalone="no"?>
<svg
   xmlns:dc="http://purl.org/dc/elements/1.1/"
   xmlns:cc="http://creativecommons.org/ns#"
   xmlns:rdf="http://www.w3.org/1999/02/22-rdf-syntax-ns#"
   xmlns:svg="http://www.w3.org/2000/svg"
   xmlns="http://www.w3.org/2000/svg"
   xmlns:sodipodi="http://sodipodi.sourceforge.net/DTD/sodipodi-0.dtd"
   xmlns:inkscape="http://www.inkscape.org/namespaces/inkscape"
   width="1792"
   height="1792"
   viewBox="0 0 1792 1792"
   id="svg4184"
   version="1.1"
   inkscape:version="0.91 r13725"
   sodipodi:docname="field.svg">
  <metadata
     id="metadata4192">
    <rdf:RDF>
      <cc:Work
         rdf:about="">
        <dc:format>image/svg+xml</dc:format>
        <dc:type
           rdf:resource="http://purl.org/dc/dcmitype/StillImage" />
        <dc:title></dc:title>
      </cc:Work>
    </rdf:RDF>
  </metadata>
  <defs
     id="defs4190" />
  <sodipodi:namedview
     pagecolor="#ffffff"
     bordercolor="#666666"
     borderopacity="1"
     objecttolerance="10"
     gridtolerance="10"
     guidetolerance="10"
     inkscape:pageopacity="0"
     inkscape:pageshadow="2"
     inkscape:window-width="1920"
     inkscape:window-height="1137"
     id="namedview4188"
     showgrid="false"
     inkscape:zoom="0.26478795"
     inkscape:cx="889.78236"
     inkscape:cy="572.402"
     inkscape:window-x="0"
     inkscape:window-y="0"
     inkscape:window-maximized="1"
     inkscape:current-layer="svg4184" />
  <g
     id="g4236"
     transform="matrix(1.2768286,0,0,1.2768286,-147.71785,-248.03842)"
     style="fill:#2196f3;fill-opacity:1">
    <path
       d="m 652.75216,1025.9956 q 0,79.3447 -57.38769,127.75 -57.38769,47.9063 -160.68553,57.3877 l 0,102.2998 -68.36621,0 0,-100.3037 q -121.76171,-2.4951 -213.58202,-42.916 l 0,-131.7422 q 43.41504,21.458 104.29589,37.9258 61.37988,16.4677 109.28613,19.4619 l 0,-154.69728 -33.43457,-12.97461 Q 234.07153,889.26319 192.65258,843.85206 151.73266,797.9419 151.73266,730.57374 q 0,-72.35839 56.38965,-118.76757 56.88867,-46.9082 158.19042,-56.88867 l 0,-76.35058 68.36621,0 0,74.35449 q 114.27636,4.99023 206.59569,45.91015 l -46.9082,116.77148 q -77.84766,-31.9375 -159.68749,-38.92382 l 0,147.2119 q 97.30956,37.42676 138.22948,64.87304 41.41894,27.44629 60.38183,60.38184 19.46191,32.93554 19.46191,76.8496 z m -150.20604,7.4853 q 0,-20.9589 -16.9668,-35.43061 -16.96679,-14.47168 -50.90038,-29.9414 l 0,124.25681 q 67.86718,-11.4775 67.86718,-58.8848 z M 301.93871,730.57374 q 0,21.95703 14.9707,36.42871 15.46973,13.97266 49.40332,28.94336 l 0,-117.2705 q -64.37402,9.48144 -64.37402,51.89843 z"
       style="font-style:normal;font-variant:normal;font-weight:bold;font-stretch:normal;font-size:1021.99993896px;line-height:125%;font-family:'Noto Sans';-inkscape-font-specification:'Noto Sans, Bold';text-align:start;letter-spacing:0px;word-spacing:0px;writing-mode:lr-tb;text-anchor:start;fill:#2196f3;fill-opacity:1;stroke:none;stroke-width:1px;stroke-linecap:butt;stroke-linejoin:miter;stroke-opacity:1"
       id="path4227"
       inkscape:connector-curvature="0" />
    <path
       d="m 835.89373,1045.208 q 0,-48.40527 -32.93555,-68.86523 -32.43652,-20.45996 -94.81444,-20.45996 l 0,-119.2666 q 62.37792,0 94.81444,-19.96093 32.93555,-20.45996 32.93555,-68.86523 l 0,-158.68945 q 0,-55.39159 20.45996,-83.83593 20.45996,-28.44433 66.86914,-41.41894 46.9082,-13.47363 131.24317,-13.47363 l 0,112.28026 q -49.4033,0.99805 -68.36623,17.96485 -18.46386,16.46776 -18.46386,52.39745 l 0,149.208 q 0,93.31737 -116.77148,110.78319 l 0,5.98829 q 116.77148,17.46582 116.77148,110.28416 l 0,149.208 q 0,36.4287 18.96289,52.8965 18.9629,16.4678 67.8672,17.4658 l 0,112.7793 q -82.8379,0 -130.24513,-12.9746 -46.9082,-12.9746 -67.86718,-41.419 -20.45996,-28.4443 -20.45996,-84.8339 l 0,-157.1924 z"
       style="font-style:normal;font-variant:normal;font-weight:bold;font-stretch:normal;font-size:1021.99993896px;line-height:125%;font-family:'Noto Sans';-inkscape-font-specification:'Noto Sans, Bold';text-align:start;letter-spacing:0px;word-spacing:0px;writing-mode:lr-tb;text-anchor:start;fill:#2196f3;fill-opacity:1;stroke:none;stroke-width:1px;stroke-linecap:butt;stroke-linejoin:miter;stroke-opacity:1"
       id="path4229"
       inkscape:connector-curvature="0" />
    <path
       d="m 1355.3771,1202.4004 q 0,55.8906 -20.46,84.3349 -20.46,28.4444 -67.8672,41.419 -46.9082,13.4736 -130.2451,13.4736 l 0,-112.7793 q 49.4033,-0.998 67.8672,-18.4639 18.9629,-16.9668 18.9629,-51.8984 l 0,-149.208 q 0,-92.81835 116.2724,-110.28417 l 0,-5.98828 q -116.2724,-17.46582 -116.2724,-110.7832 l 0,-149.208 q 0,-34.93164 -18.4639,-51.89843 -18.4639,-16.9668 -68.3662,-18.46387 l 0,-112.28026 q 82.8379,0 129.7461,12.9746 47.4072,12.97461 67.8672,41.41895 20.959,28.44433 20.959,84.33495 l 0,158.68945 q 0,48.40527 32.4365,68.86523 32.9355,19.96093 95.3135,19.96093 l 0,119.2666 q -62.378,0 -95.3135,20.45996 -32.4365,20.45996 -32.4365,68.86524 l 0,157.1924 z"
       style="font-style:normal;font-variant:normal;font-weight:bold;font-stretch:normal;font-size:1021.99993896px;line-height:125%;font-family:'Noto Sans';-inkscape-font-specification:'Noto Sans, Bold';text-align:start;letter-spacing:0px;word-spacing:0px;writing-mode:lr-tb;text-anchor:start;fill:#2196f3;fill-opacity:1;stroke:none;stroke-width:1px;stroke-linecap:butt;stroke-linejoin:miter;stroke-opacity:1"
       id="path4231"
       inkscape:connector-curvature="0" />
  </g>
</svg>
