<svg xmlns="http://www.w3.org/2000/svg" viewBox="0 0 384 512">
<!-- Font Awesome Free 5.15.1 by @fontawesome - https://fontawesome.com License - https://fontawesome.com/license/free (Icons: CC BY 4.0, Fonts: SIL OFL 1.1, Code: MIT License) -->
  <path style="fill:#2196f3"
     d="m 100.43482,205.99644 c -2.648093,0 -4.939753,0.96759 -6.874983,2.90277 -1.93523,1.93518 -2.90277,4.22689 -2.90277,6.87498 l 0,19.5555 c 0,2.64809 0.96758,4.93974 2.90277,6.87498 1.93518,1.93523 4.22689,2.90276 6.874983,2.90276 l 37.76197,0 3.01231,0 50.25763,0 c 2.64809,0 4.93975,-0.96758 6.87498,-2.90276 1.93522,-1.93519 2.90277,-4.22689 2.90277,-6.87498 l 0,-19.5555 c 0,-2.64809 -0.96759,-4.93975 -2.90277,-6.87498 -1.93519,-1.93523 -4.22689,-2.90277 -6.87498,-2.90277 l -50.25763,0 -3.01231,0 -37.76197,0 z m 43.45186,58.52467 c -2.64809,0 -4.93975,0.96758 -6.87498,2.90276 -1.93523,1.93519 -2.90277,4.2269 -2.90277,6.87498 l 0,19.5555 c 0,2.64809 0.96759,4.93975 2.90277,6.87498 1.93518,1.93523 4.22689,2.90277 6.87498,2.90277 l 37.93461,0 99.72539,0 c 2.64809,0 4.93975,-0.96758 6.87497,-2.90277 1.93523,-1.93518 2.90277,-4.22689 2.90277,-6.87498 l 0,-19.5555 c 0,-2.64808 -0.96758,-4.93974 -2.90277,-6.87498 -1.93518,-1.93523 -4.22689,-2.90276 -6.87497,-2.90276 l -99.72539,0 -37.93461,0 z m 0,58.52467 c -2.64809,0 -4.93975,0.96759 -6.87498,2.90277 -1.93523,1.93519 -2.90277,4.22689 -2.90277,6.87498 l 0,19.5555 c 0,2.64809 0.96759,4.93975 2.90277,6.87498 1.93518,1.93523 4.22689,2.90277 6.87498,2.90277 l 37.93461,0 99.72539,0 c 2.64809,0 4.93975,-0.96759 6.87497,-2.90277 1.93523,-1.93519 2.90277,-4.22689 2.90277,-6.87498 l 0,-19.5555 c 0,-2.64809 -0.96758,-4.93975 -2.90277,-6.87498 -1.93518,-1.93523 -4.22689,-2.90277 -6.87497,-2.90277 l -99.72539,0 -37.93461,0 z m -43.45186,58.52468 c -2.648093,0 -4.939753,0.96759 -6.874983,2.90277 -1.93523,1.93519 -2.90277,4.22689 -2.90277,6.87498 l 0,19.5555 c 0,2.64809 0.96758,4.93975 2.90277,6.87498 1.93518,1.93523 4.22689,2.90277 6.874983,2.90277 l 37.76197,0 3.01231,0 50.25763,0 c 2.64809,0 4.93975,-0.96759 6.87498,-2.90277 1.93522,-1.93519 2.90277,-4.22689 2.90277,-6.87498 l 0,-19.5555 c 0,-2.64809 -0.96759,-4.93975 -2.90277,-6.87498 -1.93519,-1.93523 -4.22689,-2.90277 -6.87498,-2.90277 l -50.25763,0 -3.01231,0 -37.76197,0 z M 369.9,97.9 286,14 C 277,5 264.8,-0.1 252.1,-0.1 L 48,-0.1 C 21.5,0 0,21.5 0,48 l 0,416 c 0,26.5 21.5,48 48,48 l 288,0 c 26.5,0 48,-21.5 48,-48 l 0,-332.1 c 0,-12.7 -5.1,-25 -14.1,-34 z M 332.1,128 256,128 256,51.9 332.1,128 Z M 48,464 48,48 l 160,0 0,104 c 0,13.3 10.7,24 24,24 l 104,0 0,288 -288,0 z" />
</svg>
