<svg viewBox="0 0 384 512" version="1.1" id="svg4" xmlns="http://www.w3.org/2000/svg"><defs id="defs8" /><!-- Font Awesome Free 5.15.1 by @fontawesome - https://fontawesome.com License - https://fontawesome.com/license/free (Icons: CC BY 4.0, Fonts: SIL OFL 1.1, Code: MIT License) --><path style="fill:var(--icon-colour__black);stroke:#808080;stroke-opacity:1;fill-opacity:1" d="M369.9 97.9L286 14C277 5 264.8-.1 252.1-.1H48C21.5 0 0 21.5 0 48v416c0 26.5 21.5 48 48 48h288c26.5 0 48-21.5 48-48V131.9c0-12.7-5.1-25-14.1-34zM332.1 128H256V51.9l76.1 76.1zM48 464V48h160v104c0 13.3 10.7 24 24 24h104v288H48z" id="path2" /><path style="fill:none;stroke:var(--icon-colour__black);stroke-width:40;stroke-dasharray:none;stroke-opacity:1" d="M 28.20339,282.0339 106.30508,238.64407 256,483.79661" id="path6405" /><circle style="fill:none;stroke:#f2e900;stroke-width:40;stroke-dasharray:none;stroke-opacity:1" id="path7200" cx="248.40678" cy="252.74576" r="40.135593" /></svg>