<?xml version="1.0" encoding="UTF-8" standalone="no"?>
<svg xmlns:rdf="http://www.w3.org/1999/02/22-rdf-syntax-ns#" xmlns="http://www.w3.org/2000/svg" height="1792" width="1792" version="1.1" xmlns:cc="http://creativecommons.org/ns#" xmlns:dc="http://purl.org/dc/elements/1.1/" viewBox="0 0 1792 1792">
 <g fill="#2196f3">
  <path d="m804.29 276.08v287.08q0 37.516-26.913 64.429t-64.429 26.913h-495.86q-37.516 0-64.429-26.913-26.91-26.92-26.91-64.43v-391.47q0-37.516 26.913-64.429t64.429-26.913h130.49q37.516 0 64.429 26.913t26.913 64.429v13.049h274.03q37.516 0 64.429 26.913t26.913 64.429z"/>
  <path d="m1653.2 1336.4v287.08q0 37.516-26.913 64.429t-64.429 26.913h-495.86q-37.516 0-64.429-26.913t-26.913-64.429v-391.47q0-37.516 26.913-64.429t64.429-26.913h130.49q37.516 0 64.429 26.913t26.913 64.429v13.049h274.03q37.516 0 64.429 26.914 26.913 26.913 26.913 64.429z"/>
  <path d="m1653.2 654.02v287.08q0 37.516-26.913 64.429t-64.429 26.913h-495.86q-37.516 0-64.429-26.913t-26.913-64.429v-391.47q0-37.516 26.913-64.429t64.429-26.913h130.49q37.516 0 64.429 26.913t26.913 64.429v13.049h274.03q37.516 0 64.429 26.913t26.913 64.429z"/>
 </g>
 <path stroke-linejoin="round" d="m600.75 492.64v949.1h381.89" stroke="#2196f3" stroke-width="71.125" fill="none"/>
 <path d="m597.94 807.14h539.13" fill-rule="evenodd" stroke="#2196f3" stroke-width="71.125"/>
</svg>
