<?xml version="1.0" encoding="UTF-8" standalone="no"?>
<svg
   xmlns:dc="http://purl.org/dc/elements/1.1/"
   xmlns:cc="http://creativecommons.org/ns#"
   xmlns:rdf="http://www.w3.org/1999/02/22-rdf-syntax-ns#"
   xmlns:svg="http://www.w3.org/2000/svg"
   xmlns="http://www.w3.org/2000/svg"
   xmlns:sodipodi="http://sodipodi.sourceforge.net/DTD/sodipodi-0.dtd"
   xmlns:inkscape="http://www.inkscape.org/namespaces/inkscape"
   width="1792"
   height="1792"
   viewBox="0 0 1792 1792"
   id="svg4184"
   version="1.1"
   inkscape:version="0.91 r13725"
   sodipodi:docname="function.svg">
  <metadata
     id="metadata4192">
    <rdf:RDF>
      <cc:Work
         rdf:about="">
        <dc:format>image/svg+xml</dc:format>
        <dc:type
           rdf:resource="http://purl.org/dc/dcmitype/StillImage" />
        <dc:title />
      </cc:Work>
    </rdf:RDF>
  </metadata>
  <defs
     id="defs4190" />
  <sodipodi:namedview
     pagecolor="#ffffff"
     bordercolor="#666666"
     borderopacity="1"
     objecttolerance="10"
     gridtolerance="10"
     guidetolerance="10"
     inkscape:pageopacity="0"
     inkscape:pageshadow="2"
     inkscape:window-width="1920"
     inkscape:window-height="1137"
     id="namedview4188"
     showgrid="false"
     inkscape:zoom="0.26478795"
     inkscape:cx="270.41883"
     inkscape:cy="572.402"
     inkscape:window-x="0"
     inkscape:window-y="0"
     inkscape:window-maximized="1"
     inkscape:current-layer="svg4184" />
  <g
     id="g4830"
     transform="matrix(0.96593676,0,0,0.96593676,45.112514,30.520682)"
     style="fill:#2196f3;fill-opacity:1">
    <path
       d="m 123.97185,1625.5582 q -71.205453,0 -119.1321997,-17.7163 l 0,-171.4941 q 41.7647367,14.8818 78.7367977,14.8818 41.764732,0 73.259452,-28.3461 31.49472,-28.3462 44.50341,-92.125 l 139.67223,-683.85003 -111.60086,0 20.54004,-102.75468 125.29422,-59.52686 12.32402,-59.52684 q 28.07138,-134.64406 94.48416,-196.29687 67.09745,-62.36146 187.59898,-62.36146 89.69148,0 160.89694,34.72399 l -54.77343,158.73827 q -47.24208,-21.96824 -91.06082,-21.96824 -39.02606,0 -62.98943,28.34611 -23.96338,28.34612 -32.17939,74.40857 l -8.21602,43.93647 149.94225,0 -33.54872,162.28154 -150.62692,0 -147.20359,715.73943 q -52.71941,262.9103 -275.92112,262.9103 z"
       style="font-style:italic;font-variant:normal;font-weight:bold;font-stretch:normal;font-size:1021.99700928px;line-height:125%;font-family:'Noto Sans';-inkscape-font-specification:'Noto Sans, Bold Italic';text-align:start;letter-spacing:0px;word-spacing:0px;writing-mode:lr-tb;text-anchor:start;fill:#2196f3;fill-opacity:1;stroke:none;stroke-width:1px;stroke-linecap:butt;stroke-linejoin:miter;stroke-opacity:1"
       id="path4218"
       inkscape:connector-curvature="0" />
    <g
       transform="matrix(0.87966516,0,0,0.9104814,184.84476,203.73334)"
       id="g4813"
       style="fill:#2196f3;fill-opacity:1">
      <path
         inkscape:connector-curvature="0"
         id="path4220"
         style="font-style:italic;font-variant:normal;font-weight:bold;font-stretch:normal;font-size:1021.99700928px;line-height:125%;font-family:'Noto Sans';-inkscape-font-specification:'Noto Sans, Bold Italic';text-align:start;letter-spacing:0px;word-spacing:0px;writing-mode:lr-tb;text-anchor:start;fill:#2196f3;fill-opacity:1;stroke:none;stroke-width:1px;stroke-linecap:butt;stroke-linejoin:miter;stroke-opacity:1"
         d="m 561.38701,1031.0562 q 0,-178.49534 64.23726,-329.61086 64.76379,-151.64206 201.13633,-292.22688 l 137.95214,0 Q 830.44634,555.59517 765.68256,711.4495 701.4453,866.7773 701.4453,1036.848 q 0,162.1728 61.60458,312.7618 l -123.20916,0 q -78.45371,-140.0583 -78.45371,-318.5536 z" />
      <path
         inkscape:connector-curvature="0"
         id="path4222"
         style="font-style:italic;font-variant:normal;font-weight:bold;font-stretch:normal;font-size:1021.99700928px;line-height:125%;font-family:'Noto Sans';-inkscape-font-specification:'Noto Sans, Bold Italic';text-align:start;letter-spacing:0px;word-spacing:0px;writing-mode:lr-tb;text-anchor:start;fill:#2196f3;fill-opacity:1;stroke:none;stroke-width:1px;stroke-linecap:butt;stroke-linejoin:miter;stroke-opacity:1"
         d="m 1088.4484,877.308 -118.4703,-286.96153 169.0178,0 60.5514,175.86267 128.4745,-175.86267 186.3934,0 -245.8918,295.38608 128.4745,293.27995 -171.6503,0 -65.8169,-180.07494 -139.0052,180.07494 -184.28726,0 252.21016,-301.7045 z" />
      <path
         inkscape:connector-curvature="0"
         id="path4224"
         style="font-style:italic;font-variant:normal;font-weight:bold;font-stretch:normal;font-size:1021.99700928px;line-height:125%;font-family:'Noto Sans';-inkscape-font-specification:'Noto Sans, Bold Italic';text-align:start;letter-spacing:0px;word-spacing:0px;writing-mode:lr-tb;text-anchor:start;fill:#2196f3;fill-opacity:1;stroke:none;stroke-width:1px;stroke-linecap:butt;stroke-linejoin:miter;stroke-opacity:1"
         d="m 1787.1604,727.24555 q 0,180.07494 -65.2903,332.24355 -65.2904,151.642 -199.5568,290.1207 l -137.9521,0 q 262.7408,-286.9615 262.7408,-627.6296 0,-161.64622 -61.078,-312.76174 l 122.6826,0 q 78.4538,139.00523 78.4538,318.02709 z" />
    </g>
  </g>
</svg>
