<?xml version="1.0" encoding="utf-8"?>
<svg xmlns="http://www.w3.org/2000/svg" width="1792" height="1792" viewBox="0 0 1792 1792">
    <path style="fill:#2196f3"
          d="m 1664,896 c 0,139.3333 -34.3333,267.8333 -103,385.5 -68.6667,117.6667 -161.8333,210.8333 -279.5,279.5 -117.6667,68.6667 -246.1667,103 -385.5,103 -139.33333,0 -267.83333,-34.3333 -385.5,-103 C 392.83333,1492.3333 299.66667,1399.1667 231,1281.5 162.33333,1163.8333 128,1035.3333 128,896 128,756.66667 162.33333,628.16667 231,510.5 299.66667,392.83333 392.83333,299.66667 510.5,231 628.16667,162.33333 756.66667,128 896,128 c 139.3333,0 267.8333,34.33333 385.5,103 117.6667,68.66667 210.8333,161.83333 279.5,279.5 68.6667,117.66667 103,246.16667 103,385.5 z"/>
    <path style="fill:#ffffff"
          d="m 1024,1376 0,-192 c 0,-9.3333 -3,-17 -9,-23 -6,-6 -13.6667,-9 -23,-9 l -192,0 c -9.33333,0 -17,3 -23,9 -6,6 -9,13.6667 -9,23 l 0,192 c 0,9.3333 3,17 9,23 6,6 13.66667,9 23,9 l 192,0 c 9.3333,0 17,-3 23,-9 6,-6 9,-13.6667 9,-23 z m 256,-672 c 0,-58.66667 -18.5,-113 -55.5,-163 -37,-50 -83.1667,-88.66667 -138.5,-116 -55.3333,-27.33333 -112,-41 -170,-41 -162,0 -285.66667,71 -371,213 -10,16 -7.33333,30 8,42 l 132,100 c 4.66667,4 11,6 19,6 10.66667,0 19,-4 25,-12 35.33333,-45.33333 64,-76 86,-92 22.66667,-16 51.33333,-24 86,-24 32,0 60.5,8.66667 85.5,26 25,17.33333 37.5,37 37.5,59 0,25.33333 -6.6667,45.66667 -20,61 -13.33333,15.33333 -36,30.33333 -68,45 -42,18.66667 -80.5,47.5 -115.5,86.5 -35,39 -52.5,80.83333 -52.5,125.5 l 0,36 c 0,9.3333 3,17 9,23 6,6 13.66667,9 23,9 l 192,0 c 9.3333,0 17,-3 23,-9 6,-6 9,-13.6667 9,-23 0,-12.6667 7.1667,-29.1667 21.5,-49.5 14.3333,-20.33333 32.5,-36.83333 54.5,-49.5 21.3333,-12 37.6667,-21.5 49,-28.5 11.3333,-7 26.6667,-18.66667 46,-35 19.3333,-16.33333 34.1667,-32.33333 44.5,-48 10.3333,-15.66667 19.6667,-35.83333 28,-60.5 8.3333,-24.66667 12.5,-51.66667 12.5,-81 z"/>
</svg>