<svg width="1792" height="1792" viewBox="0 0 1792 1792" version="1.1" xmlns="http://www.w3.org/2000/svg"><path style="fill:none;stroke:currentColor;stroke-width:120" d="m 1664,896 c 0,139.3333 -34.3333,267.8333 -103,385.5 -68.6667,117.6667 -161.8333,210.8333 -279.5,279.5 -117.6667,68.6667 -246.1667,103 -385.5,103 -139.33333,0 -267.83333,-34.3333 -385.5,-103 C 392.83333,1492.3333 299.66667,1399.1667 231,1281.5 162.33333,1163.8333 128,1035.3333 128,896 128,756.66667 162.33333,628.16667 231,510.5 299.66667,392.83333 392.83333,299.66667 510.5,231 628.16667,162.33333 756.66667,128 896,128 c 139.3333,0 267.8333,34.33333 385.5,103 117.6667,68.66667 210.8333,161.83333 279.5,279.5 68.6667,117.66667 103,246.16667 103,385.5 z"/><path style="fill:currentColor" d="m 912.46484,418.1543 c -9.76422,0.0703 -19.45778,0.41002 -29.09179,1.05273 a 32.145205,32.145205 0 0 1 -0.0215,0.002 c -11.54234,0.76209 -23.01266,1.95756 -34.44726,3.61719 a 32.145205,32.145205 0 0 1 -0.006,0 c -9.43791,1.36821 -18.96294,3.08743 -28.28516,5.12695 a 32.145205,32.145205 0 0 1 -0.006,0.002 c -18.48079,4.0391 -36.74303,9.44983 -54.2539,16.22851 a 32.145205,32.145205 0 0 1 -0.0312,0.0117 c -15.57484,6.01067 -30.84979,13.21042 -45.4043,21.4336 a 32.145205,32.145205 0 0 1 -0.008,0.004 c -6.49781,3.66855 -12.8789,7.54725 -19.13477,11.63867 a 32.145205,32.145205 0 0 1 -0.0137,0.008 c -3.66356,2.39367 -7.12466,4.74923 -10.7207,7.29297 -7.87472,5.5704 -15.59939,11.53737 -23.01954,17.74218 -11.99398,10.03909 -23.39765,20.90045 -34.1875,32.42969 -0.003,0.003 -0.005,0.005 -0.008,0.008 -2.58274,2.77242 -5.16726,5.60179 -7.61719,8.37891 a 32.145205,32.145205 0 0 1 -0.043,0.0488 c -5.18404,5.85243 -10.35468,12.03256 -15.23047,18.19336 a 32.145205,32.145205 0 0 1 -0.0156,0.0195 c -11.06014,13.95265 -21.3539,28.64865 -30.94726,43.90234 -0.004,0.006 -0.008,0.0116 -0.0117,0.0176 -1.68125,2.70455 -3.16038,5.15928 -4.66211,7.64453 1.37336,1.0609 2.51873,1.94057 5.70312,4.42188 0.0222,0.0168 0.0442,0.034 0.0664,0.0508 40.80693,30.91924 81.62799,61.83202 122.44141,92.76758 15.33726,-19.57864 31.39605,-39.15527 48.96484,-57.95313 a 32.145205,32.145205 0 0 1 0.0723,-0.0762 c 11.11858,-11.81833 23.26177,-23.94913 37.42188,-35.04688 13.93444,-10.94 29.44235,-18.82713 45.33398,-24.21679 a 32.145205,32.145205 0 0 1 0.0117,-0.004 c 23.36762,-7.91507 47.18854,-10.37229 69.85938,-9.99609 a 32.145205,32.145205 0 0 1 0.084,0 c 22.33998,0.42912 44.97832,4.60091 66.41992,13.39843 16.55051,6.77188 31.97617,16.01016 45.74807,27.31446 a 32.145205,32.145205 0 0 1 0.078,0.0644 c 12.4604,10.29397 24.8473,23.63871 32.8047,41.54102 5.5681,12.44402 8.163,25.85499 7.7988,39.3164 -0.2433,17.59643 -3.1259,36.50735 -11.5488,54.79297 -5.4771,11.98216 -13.0379,22.66822 -22.084,31.76953 -12.4596,12.60616 -26.17925,21.96283 -39.25585,29.77539 a 32.145205,32.145205 0 0 1 -0.0566,0.0352 c -13.20438,7.85181 -26.59047,14.40161 -39.7207,20.30078 l 0.36132,-0.16406 C 921.2853,852.43 898.38109,867.77025 877.56055,885.9707 a 32.145205,32.145205 0 0 1 -0.0293,0.0254 c -5.5735,4.86018 -11.19997,10.1213 -16.58398,15.46875 -0.005,0.005 -0.009,0.009 -0.0137,0.0137 -7.64211,7.65658 -14.81368,15.30109 -21.26562,23.08007 -9.3334,11.29989 -17.32253,23.2911 -23.42969,35.77539 -0.004,0.008 -0.008,0.0159 -0.0117,0.0234 -0.003,0.006 -0.007,0.013 -0.01,0.0195 -0.57052,1.17255 -1.2478,2.60158 -1.73243,3.66602 a 32.145205,32.145205 0 0 1 -0.0156,0.0371 c -2.73591,5.98893 -5.11763,12.34056 -6.9375,18.50976 a 32.145205,32.145205 0 0 1 0,0.002 c -1.80417,6.11426 -3.19243,12.46522 -4.08008,18.7637 a 32.145205,32.145205 0 0 1 -0.0137,0.09 c -0.26438,1.8377 -0.53067,4.1088 -0.70117,5.9629 a 32.145205,32.145205 0 0 1 -0.01,0.088 c -0.30238,3.1913 -0.47204,6.2205 -0.54492,9.4863 -0.0839,8.6262 -0.016,17.556 -0.0391,26.7891 1.5e-4,0.035 -1.5e-4,0.059 0,0.094 -1.2e-4,0.047 1.2e-4,0.088 0,0.1348 0.0143,3.6458 0.009,6.754 0.0215,9.8438 24.61351,0.027 49.2674,-8e-4 73.97266,0.014 37.9652,-0.01 75.90532,0.013 113.82422,-0.01 0.47796,-14.4872 4.89488,-26.2461 9.03515,-35.4278 a 32.145205,32.145205 0 0 1 0.11328,-0.248 c 6.04673,-13.1118 13.48343,-24.49155 20.91013,-34.70315 a 32.145205,32.145205 0 0 1 0.084,-0.11719 c 14.4298,-19.65604 32.3607,-36.4762 52.6914,-49.69726 8.8459,-5.81375 16.8949,-9.96446 23.3574,-13.70703 a 32.145205,32.145205 0 0 1 0.1524,-0.0879 c 12.5692,-7.18675 24.7993,-14.21656 36.4473,-21.48046 2.4637,-1.58312 4.9741,-3.29441 7.4687,-5.07422 a 32.145205,32.145205 0 0 1 0.01,-0.002 c 6.0844,-4.33916 11.9671,-8.88968 18.1582,-13.85546 8.1902,-6.63073 15.9625,-13.01438 23.0429,-19.44532 13.2359,-12.0814 24.6335,-24.74594 32.5762,-38.07226 a 32.145205,32.145205 0 0 1 0.045,-0.0781 c 4.1722,-6.95612 8.0057,-14.63856 11.4864,-22.625 4.1055,-9.48344 7.7395,-19.25643 10.9394,-29.23633 1.8482,-5.91734 3.4146,-11.99779 4.7149,-18.20703 0.4059,-1.99311 0.8117,-4.05764 1.121,-5.8164 a 32.145205,32.145205 0 0 1 0.018,-0.10157 c 0.597,-3.3305 1.1572,-7.00635 1.5879,-10.39843 a 32.145205,32.145205 0 0 1 0.01,-0.0566 c 0.7338,-5.69777 1.2503,-11.55686 1.5625,-17.37696 a 32.145205,32.145205 0 0 1 0,-0.002 c 0.2933,-5.46479 0.4055,-10.85694 0.3594,-16.43555 -0.1073,-10.7149 -0.9323,-21.50157 -2.5059,-32.0332 a 32.145205,32.145205 0 0 1 -0,-0.0234 c -1.0428,-7.01442 -2.4453,-14.10629 -4.1679,-21.03515 a 32.145205,32.145205 0 0 1 0,-0.008 c -0.9624,-3.87449 -2.0071,-7.62715 -3.1973,-11.53711 l -0,-0.0117 c -3.6255,-11.84719 -8.3451,-23.66849 -13.9121,-34.93555 l -0,-0.006 c -3.1884,-6.44482 -6.6662,-12.78413 -10.418,-18.98438 a 32.145205,32.145205 0 0 1 -0,-0.004 c -1.8722,-3.09466 -3.7272,-6.02434 -5.7657,-9.1211 l -0.01,-0.008 c -5.6253,-8.52008 -11.8939,-16.92516 -18.5684,-25.20117 l -0.01,-0.006 c -18.8041,-23.27371 -40.6091,-44.21133 -64.6622,-61.77148 a 32.145205,32.145205 0 0 1 -0.02,-0.0137 c -14.9276,-10.91533 -30.7574,-20.61278 -47.332,-29.07617 l -0,-0.002 c -6.9189,-3.53165 -13.9993,-6.87839 -21.1914,-10.0332 -6.8543,-2.99482 -13.9962,-5.87622 -20.9629,-8.43946 a 32.145205,32.145205 0 0 1 -0.01,-0.004 c -13.8073,-5.08469 -28.2192,-9.41625 -42.49217,-12.69532 a 32.145205,32.145205 0 0 1 -0.0215,-0.006 c -14.45603,-3.33222 -29.15292,-5.71277 -43.96484,-7.08203 a 32.145205,32.145205 0 0 1 -0.0293,-0.004 c -5.15148,-0.4811 -10.52747,-0.84755 -15.73828,-1.08008 a 32.145205,32.145205 0 0 1 -0.0156,0 c -6.03559,-0.27245 -12.14032,-0.36827 -18.36133,-0.32031 a 32.145205,32.145205 0 0 1 -0.0156,0 z m 77.41016,636.623 c -6.5e-4,0.019 -6.5e-4,0.044 0,0.037 9.4e-4,-0.042 -9.2e-4,0.01 0,-0.037 z m -0.0273,131.3633 c -62.57927,0.01 -125.14828,-0.01 -187.70508,0.01 0.005,62.5781 -0.009,125.1463 0.008,187.707 62.57992,-0.01 125.14958,0.01 187.70703,-0.01 -0.009,-62.58 0.009,-125.1496 -0.01,-187.7071 z"/></svg> 