<!--
  - Copyright 2016-2025 Crown Copyright
  -
  - Licensed under the Apache License, Version 2.0 (the "License");
  - you may not use this file except in compliance with the License.
  - You may obtain a copy of the License at
  -
  -     http://www.apache.org/licenses/LICENSE-2.0
  -
  - Unless required by applicable law or agreed to in writing, software
  - distributed under the License is distributed on an "AS IS" BASIS,
  - WITHOUT WARRANTIES OR CONDITIONS OF ANY KIND, either express or implied.
  - See the License for the specific language governing permissions and
  - limitations under the License.
  -->

<svg height="16" viewBox="0 0 16 16" width="16" xmlns="http://www.w3.org/2000/svg"><path style="fill:currentColor" fill-rule="evenodd" d="M4.177 7.823l2.396-2.396A.25.25 0 017 5.604v4.792a.25.25 0 01-.427.177L4.177 8.177a.25.25 0 010-.354z"></path><path style="fill:currentColor" fill-rule="evenodd" d="M0 1.75C0 .784.784 0 1.75 0h12.5C15.216 0 16 .784 16 1.75v12.5A1.75 1.75 0 0114.25 16H1.75A1.75 1.75 0 010 14.25V1.75zm1.75-.25a.25.25 0 00-.25.25v12.5c0 .138.112.25.25.25H9.5v-13H1.75zm12.5 13H11v-13h3.25a.25.25 0 01.25.25v12.5a.25.25 0 01-.25.25z"></path></svg>
