<?xml version="1.0" encoding="UTF-8" standalone="no"?>
<svg xmlns="http://www.w3.org/2000/svg"
     width="1792"
     viewBox="0 0 1792 1792"
     height="1792">
  <path style="fill:#2196f3;fill-opacity:1"
        d="m 445.47498,171.43521 c -17.333,0 -32.333,6.3333 -45,19 -12.667,12.6667 -19,27.667 -19,45 l 0,128 c 0,17.333 6.3333,32.333 19,45 12.6667,12.667 27.667,19 45,19 l 248.30001,0 652.75001,0 c 17.333,0 32.333,-6.3333 45,-19 12.667,-12.6667 19,-27.667 19,-45 l 0,-128 c 0,-17.333 -6.3333,-32.333 -19,-45 -12.6667,-12.667 -27.667,-19 -45,-19 l -652.75001,0 -248.3,0 z" />
  <path style="fill:#2196f3;fill-opacity:1;stroke:none;stroke-opacity:1"
        d="m 445.47498,560.62579 c -17.33301,0 -32.33301,6.3333 -45,19 -12.667,12.6667 -19,27.667 -19,45 l 0,128 c 0,17.333 6.3333,32.333 19,45 12.6667,12.66698 27.66699,18.99998 45,18.99998 l 248.30001,0 652.75001,0 c 17.333,0 32.333,-6.3333 45,-18.99998 12.667,-12.6667 19,-27.667 19,-45 l 0,-128 c 0,-17.333 -6.3333,-32.333 -19,-45 -12.6667,-12.667 -27.667,-19 -45,-19 l -652.75001,0 -248.30001,0 z" />
  <path style="fill:#2196f3;fill-opacity:1"
        d="m 445.47497,1363.3238 c -17.333,0 -32.333,6.3333 -45,19 -12.667,12.6667 -19,27.667 -19,45 l 0,128 c 0,17.333 6.3333,32.333 19,45 12.6667,12.667 27.667,19 45,19 l 248.3,0 652.75003,0 c 17.333,0 32.333,-6.3333 45,-19 12.667,-12.6667 19,-27.667 19,-45 l 0,-128 c 0,-17.333 -6.3333,-32.333 -19,-45 -12.6667,-12.667 -27.667,-19 -45,-19 l -652.75003,0 -248.3,0 z" />
  <path d="m 1285.0843,1129.9063 339.9888,200.9991 c 27.6241,16.3234 69.9296,0.4829 69.9296,-39.8907 l 0,-401.90139 c 0,-36.22034 -39.3113,-58.04916 -69.9296,-39.89068 L 1285.0843,1050.125 c -30.3285,17.8687 -30.4251,61.9127 0,79.7813 z"
        style="fill:#2196f3;fill-opacity:1" />
</svg>
