<!--
  - Copyright 2016-2025 Crown Copyright
  -
  - Licensed under the Apache License, Version 2.0 (the "License");
  - you may not use this file except in compliance with the License.
  - You may obtain a copy of the License at
  -
  -     http://www.apache.org/licenses/LICENSE-2.0
  -
  - Unless required by applicable law or agreed to in writing, software
  - distributed under the License is distributed on an "AS IS" BASIS,
  - WITHOUT WARRANTIES OR CONDITIONS OF ANY KIND, either express or implied.
  - See the License for the specific language governing permissions and
  - limitations under the License.
  -->

<svg xmlns="http://www.w3.org/2000/svg" width="122.879" height="103.609" viewBox="0 0 122.879 103.609"><g style="fill:currentColor"><path d="M10.368,0h102.144c5.703,0,10.367,4.665,10.367,10.367v0 c0,5.702-4.664,10.368-10.367,10.368H10.368C4.666,20.735,0,16.07,0,10.368v0C0,4.665,4.666,0,10.368,0L10.368,0z M10.368,82.875 h102.144c5.703,0,10.367,4.665,10.367,10.367l0,0c0,5.702-4.664,10.367-10.367,10.367H10.368C4.666,103.609,0,98.944,0,93.242l0,0 C0,87.54,4.666,82.875,10.368,82.875L10.368,82.875z M10.368,41.438h102.144c5.703,0,10.367,4.665,10.367,10.367l0,0 c0,5.702-4.664,10.368-10.367,10.368H10.368C4.666,62.173,0,57.507,0,51.805l0,0C0,46.103,4.666,41.438,10.368,41.438 L10.368,41.438z"/></g></svg>
