<!--
  - Copyright 2016-2025 Crown Copyright
  -
  - Licensed under the Apache License, Version 2.0 (the "License");
  - you may not use this file except in compliance with the License.
  - You may obtain a copy of the License at
  -
  -     http://www.apache.org/licenses/LICENSE-2.0
  -
  - Unless required by applicable law or agreed to in writing, software
  - distributed under the License is distributed on an "AS IS" BASIS,
  - WITHOUT WARRANTIES OR CONDITIONS OF ANY KIND, either express or implied.
  - See the License for the specific language governing permissions and
  - limitations under the License.
  -->

<svg fill="currentColor" width="800px" height="800px" viewBox="0 0 32 32" version="1.1" xmlns="http://www.w3.org/2000/svg"><path d="M 2 27.792 q 0.064 -0.64 0.608 -1.184 l 5.568 -5.568 l -1.568 -1.6 q -0.48 -0.448 -0.576 -1.056 t 0.128 -1.152 t 0.704 -0.864 t 1.152 -0.352 h 5.984 q 0.832 0 1.408 0.608 t 0.608 1.408 v 5.984 q 0 0.64 -0.384 1.152 t -0.864 0.704 t -1.12 0.128 t -1.056 -0.544 l -1.6 -1.6 l -5.568 5.6 q -0.544 0.512 -1.184 0.608 t -1.152 -0.288 t -0.832 -0.832 t -0.256 -1.152 z M 16.016 14.032 v -6.016 q 0 -0.704 0.352 -1.216 t 0.928 -0.672 t 1.12 -0.032 t 0.992 0.512 l 1.6 1.6 l 5.6 -5.6 q 0.352 -0.384 0.8 -0.512 t 0.864 -0.064 t 0.768 0.32 t 0.608 0.608 t 0.32 0.8 t -0.032 0.832 t -0.512 0.832 l -5.6 5.6 l 1.6 1.568 q 0.48 0.48 0.576 1.088 t -0.16 1.12 t -0.704 0.864 t -1.12 0.352 h -6.016 q -0.832 0 -1.408 -0.576 t -0.576 -1.408 z"></path></svg>
