<?xml version="1.0" encoding="utf-8"?>
<svg xmlns="http://www.w3.org/2000/svg" width="1427.7665" height="1427.7665" viewBox="0 0 1427.7665 1427.7665">
    <g style="stroke:currentColor;stroke-width:167.567">
        <path d="m 83.75224,1012.6366 c 0.4303,39.9266 48.3887,75.4147 81.9121,40.0468 183.0776,-192.5449 365.53292,-385.74845 548.20252,-578.72498 182.6695,192.97653 365.12474,386.18008 548.20224,578.72498 43.7856,46.1947 112.1966,-28.4881 67.1682,-76.05707 -185.823,-195.93558 -370.82484,-392.95261 -557.52754,-587.98689 -4.8034,-5.6117 -10.2473,-10.4633 -16.1231,-14.4855 -12.4844,-9.643 -27.0796,-13.9638 -41.7198,-13.6909 -14.6402,-0.2729 -29.2354,4.0479 -41.7198,13.6909 -5.8758,4.0222 -11.3198,8.8738 -16.1231,14.4855 -186.7028,195.03428 -371.70472,392.05131 -557.52782,587.98689 -10.5534,11.14898 -14.8757,23.78787 -14.7439,36.01027 z"/>
    </g>
</svg>
