<?xml version="1.0" encoding="utf-8"?>
<svg xmlns="http://www.w3.org/2000/svg" width="1792" height="1792" viewBox="0 0 1792 1792">
  <path style="fill:#2196f3"
        d="m 1664,896 c 0,139.3333 -34.3333,267.8333 -103,385.5 -68.6667,117.6667 -161.8333,210.8333 -279.5,279.5 -117.6667,68.6667 -246.1667,103 -385.5,103 -139.33333,0 -267.83333,-34.3333 -385.5,-103 C 392.83333,1492.3333 299.66667,1399.1667 231,1281.5 162.33333,1163.8333 128,1035.3333 128,896 128,756.66667 162.33333,628.16667 231,510.5 299.66667,392.83333 392.83333,299.66667 510.5,231 628.16667,162.33333 756.66667,128 896,128 c 139.3333,0 267.8333,34.33333 385.5,103 117.6667,68.66667 210.8333,161.83333 279.5,279.5 68.6667,117.66667 103,246.16667 103,385.5 z"/>
  <path style="fill:#ffffff"
        d="m 790.92872,1174.2937 c 2.06597,-23.1061 5.72167,-44.8969 10.96708,-65.3722 4.21905,-16.4689 13.83863,-42.1743 20.76592,-57.4926 7.28631,-16.1121 15.12953,-31.4179 23.52966,-45.9172 8.35611,-14.42336 23.66862,-36.48481 33.83531,-49.41869 8.78852,-11.18059 17.68783,-21.71946 26.69792,-31.61661 10.99597,-12.07853 29.93135,-30.38415 41.81499,-41.3957 7.99899,-7.41199 15.83706,-14.49109 23.51422,-21.23732 12.13883,-10.66688 32.11108,-27.55351 44.27788,-38.1825 7.5065,-6.5577 14.5469,-12.72969 21.1209,-18.51597 12.1317,-10.67768 31.8243,-27.98165 43.3598,-39.43188 0.712,-0.70664 1.4151,-1.40962 2.1093,-2.10895 11.4555,-11.53963 29.4264,-31.42379 37.2702,-46.14415 4.1782,-7.84113 11.5953,-27.88273 13.3493,-44.82712 0.9007,-8.70123 1.1186,-29.88216 -1.9675,-46.63176 -1.2291,-6.67057 -2.8695,-13.20495 -4.9214,-19.60315 -5.1671,-16.1122 -17.6952,-40.48039 -27.0484,-54.1179 -4.0815,-5.95104 -8.4932,-11.62874 -13.2353,-17.03311 -10.7828,-12.28887 -30.8654,-29.29805 -44.2126,-38.00741 -8.0318,-5.24086 -16.5143,-9.98421 -25.4479,-14.23006 -14.2463,-6.77083 -38.21664,-15.49886 -53.32343,-19.38183 -10.96819,-2.81921 -22.22108,-4.85313 -33.75868,-6.10177 -15.43957,-1.67091 -40.66626,-1.67568 -56.12884,-0.26362 -5.99519,0.54748 -11.80562,1.27843 -17.43131,2.19282 -15.34364,2.49396 -39.65755,9.97064 -54.23652,15.82953 -0.9043,0.36341 -1.80243,0.72938 -2.6944,1.09789 -14.52733,6.00192 -37.1921,18.29841 -50.13507,27.72747 -9.79049,7.13246 -26.87074,22.70466 -37.92936,34.71126 -2.68251,2.91247 -13.64529,15.37915 -22.19171,29.64902 -8.15175,13.61094 -16.47144,39.41429 -19.74942,56.13686 -2.93091,14.95203 -16.84589,27.29586 -32.36576,27.29586 H 487.8229 c -15.51988,0 -27.42751,-13.88145 -25.34946,-30.84449 5.32882,-43.49895 16.5095,-82.15563 33.54204,-115.97004 7.5343,-14.95772 22.31336,-37.51172 32.26363,-50.64655 21.44853,-28.31308 45.30121,-52.64739 71.55806,-73.00295 12.69464,-9.84148 34.48603,-23.79869 48.35229,-31.48382 28.94209,-16.04065 58.9404,-28.8039 89.9949,-38.28975 14.95511,-4.56815 39.51248,-10.69289 54.73399,-14.02902 28.91465,-6.33727 56.42736,-10.35441 82.53813,-12.05141 15.49077,-1.00678 40.674,-1.01523 56.17582,-0.22251 43.07516,2.20276 83.3567,9.5425 120.8446,22.01924 14.8556,4.94428 38.5415,14.3865 52.9143,20.8411 33.1177,14.87266 62.9455,32.6946 89.483,53.46583 12.6546,9.90487 32.2054,27.44569 43.5789,39.08922 20.762,21.2548 38.4836,44.25144 53.1645,68.98993 8.4977,14.31945 20.6887,38.68012 26.9662,54.33023 9.9235,24.73936 16.3108,49.82296 19.1621,75.25081 1.9041,16.98059 1.8977,44.8348 0.5404,61.88454 -1.1507,14.45517 -3.1405,28.04247 -5.9694,40.7619 -3.6947,16.61236 -12.7036,42.67473 -19.7208,57.9331 -3.4828,7.57301 -7.2999,14.86929 -11.4515,21.88885 -8.4739,14.32778 -25.0733,35.32231 -36.1054,47.3584 -5.2358,5.71241 -10.6295,11.25075 -16.181,16.61501 -11.6717,11.27822 -31.8773,27.86252 -44.3925,37.98711 -5.8854,4.76116 -11.7708,9.47975 -17.6562,14.15577 -12.5936,10.00575 -33.4068,25.61192 -45.9956,35.62346 -15.4433,12.28167 -29.2246,24.31329 -41.3439,36.09487 -11.6408,11.31646 -29.2324,31.21876 -39.3347,44.21256 -5.2595,6.7651 -10.129,13.438 -14.6083,20.0186 -9.3148,13.6847 -21.8222,37.8512 -27.9173,53.5908 -0.8294,2.1418 -1.6322,4.2781 -2.4083,6.409 -5.7841,15.8783 -11.6804,42.8992 -14.8772,59.6529 -0.086,0.4513 -0.1723,0.9025 -0.2584,1.3538 -3.19689,16.7537 -18.3698,30.3352 -33.8897,30.3352 H 817.23541 c -15.51987,0 -27.82982,-13.8959 -26.30669,-30.9309 z"
  />
  <path style="fill:#ffffff"
        d="M 976.11925,1515.346 H 825.36559 a 27.194718,30 0 0 1 -27.19473,-30 v -139.1306 a 27.194718,30 0 0 1 27.19473,-30 h 150.75366 a 27.194718,30 0 0 1 27.19465,30 v 139.1306 a 27.194718,30 0 0 1 -27.19465,30 z"
  />
</svg>