<?xml version="1.0" encoding="UTF-8" standalone="no"?>
<svg id="svg4232" xmlns:rdf="http://www.w3.org/1999/02/22-rdf-syntax-ns#" xmlns="http://www.w3.org/2000/svg" height="1792" viewBox="0 0 1792 1792" width="1792" version="1.1" xmlns:cc="http://creativecommons.org/ns#" xmlns:dc="http://purl.org/dc/elements/1.1/">
 <path id="path4420-1" fill="#2196f3" d="m1299.5 1461.6c-17.333 0-32.333 6.3333-45 19s-19 27.667-19 45v128c0 17.333 6.3333 32.333 19 45s27.667 19 45 19h117.77 189.95c17.333 0 32.333-6.3333 45-19s19-27.667 19-45v-128c0-17.333-6.3333-32.333-19-45s-27.667-19-45-19h-189.95-117.77zm-1138.4 0c-17.333 0-32.333 6.3334-45 19s-19 27.667-19 45v128c0 17.333 6.3333 32.333 19 45s27.667 19 45 19h248.3 652.75c17.333 0 32.333-6.3333 45-19s19-27.667 19-45v-128c0-17.333-6.3333-32.333-19-45s-27.667-19-45-19h-652.75-248.3zm834.32-349.52c-17.333 0-32.333 6.3333-45 19s-19 27.667-19 45v128c0 17.333 6.3333 32.333 19 45s27.667 19 45 19h190.26 421.61c17.333 0 32.333-6.3333 45-19s19-27.667 19-45v-128c0-17.333-6.3333-32.333-19-45s-27.667-19-45-19h-421.61-190.26zm-834.32 0c-17.333 0-32.333 6.3333-45 19s-19 27.667-19 45v128c0 17.333 6.3333 32.333 19 45s27.667 19 45 19h247.17 19.717 328.96c17.333 0 32.333-6.3333 45-19s19-27.667 19-45v-128c0-17.333-6.3333-32.333-19-45s-27.667-19-45-19h-328.96-19.717-247.17zm0-349.53c-17.333 0-32.333 6.3333-45 19s-19 27.667-19 45v128c0 17.333 6.3333 32.333 19 45s27.667 19 45 19h117.77 189.95c17.333 0 32.333-6.3333 45-19s19-27.667 19-45v-128c0-17.333-6.3333-32.333-19-45s-27.667-19-45-19h-189.95-117.77zm545.14 0c-17.333 0-32.333 6.3333-45 19s-19 27.667-19 45v128c0 17.333 6.3333 32.333 19 45s27.667 19 45 19h248.3 652.75c17.333 0 32.333-6.3333 45-19s19-27.667 19-45v-128c0-17.333-6.3333-32.333-19-45s-27.667-19-45-19h-652.75-248.3zm593.3-349.5c-17.333 0-32.333 6.3333-45 19s-19 27.667-19 45v128c0 17.333 6.3333 32.333 19 45s27.667 19 45 19h117.77 189.95c17.333 0 32.333-6.3333 45-19s19-27.667 19-45v-128c0-17.333-6.3333-32.333-19-45s-27.667-19-45-19h-189.95-117.77zm-1138.4 0c-17.333 0-32.333 6.3333-45 19s-19 27.667-19 45v128c0 17.333 6.3333 32.333 19 45s27.667 19 45 19h248.3 652.75c17.333 0 32.333-6.3333 45-19s19-27.667 19-45v-128c0-17.333-6.3333-32.333-19-45s-27.667-19-45-19h-652.75-248.3zm834.28-349.53c-17.33 0-32.33 6.333-45 19s-19 27.669-19 44.999v128c0 17.33 6.33 32.33 19 45s27.67 19 45 19h190.22 421.6c17.4 0 32.4-6.33 45-19 12.7-12.67 19-27.67 19-45v-128c0-17.33-6.3-32.332-19-44.999-12.6-12.667-27.6-19-45-19h-421.6-190.22zm-834.32 0c-17.333 0-32.333 6.3333-45 19s-19 27.667-19 45v128c0 17.333 6.3333 32.333 19 45s27.667 19 45 19h247.17 19.717 328.96c17.333 0 32.333-6.3333 45-19s19-27.667 19-45v-128c0-17.333-6.3333-32.333-19-45s-27.667-19-45-19h-328.96-19.717-247.17z"/>
</svg>
