<svg class="svg-icon" style="width: 1em; height: 1em;vertical-align: middle;fill: currentColor;overflow: hidden;" viewBox="0 0 1024 1024" version="1.1" xmlns="http://www.w3.org/2000/svg"><path d="M682.666667 721.92c-14.08 2.133333-28.16 3.413333-42.666667 3.413333-14.506667 0-28.586667-1.28-42.666667-3.413333v-149.76l-106.666666 105.813333c-21.333333-16.64-42.666667-37.973333-59.306667-59.306666l105.813333-106.666667H387.413333c-2.133333-14.08-3.413333-28.16-3.413333-42.666667 0-14.506667 1.28-28.586667 3.413333-42.666666h149.76l-105.813333-106.666667c8.106667-10.666667 16.64-21.333333 27.733333-31.573333 10.24-11.093333 20.906667-19.626667 31.573334-27.733334L597.333333 366.506667V216.746667c14.08-2.133333 28.16-3.413333 42.666667-3.413334 14.506667 0 28.586667 1.28 42.666667 3.413334v149.76l106.666666-105.813334c21.333333 16.64 42.666667 37.973333 59.306667 59.306667L742.826667 426.666667h149.76c2.133333 14.08 3.413333 28.16 3.413333 42.666666 0 14.506667-1.28 28.586667-3.413333 42.666667h-149.76l105.813333 106.666667c-8.106667 10.666667-16.64 21.333333-27.733333 31.573333-10.24 11.093333-20.906667 19.626667-31.573334 27.733333L682.666667 572.16v149.76M213.333333 810.666667a85.333333 85.333333 0 0 1 85.333334-85.333334 85.333333 85.333333 0 0 1 85.333333 85.333334 85.333333 85.333333 0 0 1-85.333333 85.333333 85.333333 85.333333 0 0 1-85.333334-85.333333z"/></svg>