<!-- Created with Inkscape (http://www.inkscape.org/) --><svg width="210mm" height="210mm" viewBox="0 0 210 210.00001" version="1.1" id="svg5" sodipodi:docname="rerun.svg" inkscape:version="1.2.2 (b0a8486541, 2022-12-01)" inkscape:export-filename="drawing.png" inkscape:export-xdpi="96" inkscape:export-ydpi="96" xmlns:inkscape="http://www.inkscape.org/namespaces/inkscape" xmlns:sodipodi="http://sodipodi.sourceforge.net/DTD/sodipodi-0.dtd" xmlns="http://www.w3.org/2000/svg" ><sodipodi:namedview id="namedview7" pagecolor="var(--icon-colour__white)" bordercolor="var(--icon-colour__black)" borderopacity="0.25" inkscape:showpageshadow="2" inkscape:pageopacity="0" inkscape:pagecheckerboard="0" inkscape:deskcolor="#d1d1d1" inkscape:document-units="mm" showgrid="false" inkscape:zoom="0.70710678" inkscape:cx="545.88643" inkscape:cy="486.48946" inkscape:window-width="1920" inkscape:window-height="1008" inkscape:window-x="0" inkscape:window-y="0" inkscape:window-maximized="1" inkscape:current-layer="layer1" /><defs id="defs2" /><g inkscape:groupmode="layer" id="layer3" inkscape:label="Layer 2" /><g inkscape:label="Layer 1" inkscape:groupmode="layer" id="layer1" transform="translate(0,-1.6910937)"><text xml:space="preserve" style="font-size:3.175px;fill:var(--icon-colour__black);stroke-width:0.264583" x="83.659332" y="77.214859" id="text946"><tspan sodipodi:role="line" id="tspan944" style="stroke-width:0.264583"></tspan></text><g id="g9697" transform="matrix(1.3228665,0.33092318,-0.33092318,1.3228665,-44.227363,-53.719178)"><path sodipodi:type="star" style="fill:var(--icon-colour__black);stroke-width:0.264583" id="path1196" inkscape:flatsided="false" sodipodi:sides="3" sodipodi:cx="310.15042" sodipodi:cy="183.14101" sodipodi:r1="41.86467" sodipodi:r2="20.932335" sodipodi:arg1="-0.32252128" sodipodi:arg2="0.72467628" inkscape:rounded="0.14" inkscape:randomized="0" d="m 349.85652,169.87163 c 1.60883,4.81411 -20.66904,23.34494 -24.03377,27.14528 -3.36472,3.80034 -19.06021,28.15904 -24.03376,27.14527 -4.97355,-1.01377 -9.88279,-29.57238 -11.49162,-34.38648 -1.60882,-4.81411 -14.85634,-30.58616 -11.49162,-34.38649 3.36473,-3.80034 30.55183,6.22744 35.52539,7.24121 4.97355,1.01377 33.91655,2.4271 35.52538,7.24121 z" transform="matrix(0.17052459,-0.53135238,0.54675496,0.17546767,8.7540464,157.71892)" inkscape:transform-center-x="6.9086319" inkscape:transform-center-y="-3.1716699" /><path style="fill:var(--icon-colour__black);stroke-width:0.264583" d="M 164.43179,4.6189065 181.35225,32.2586 179.37707,33.46776 162.47629,5.8601959 164.45407,4.6494441" id="path1211" /><path style="fill:var(--icon-colour__black);stroke-width:0.264583" d="m 173.70723,37.70359 -27.05594,0.21003 -0.021,-2.701525 27.03839,-0.209893 0.0211,2.716434" id="path1321" /></g><path sodipodi:type="star" style="fill:var(--icon-colour__black);stroke-width:0.264583" id="path1392" inkscape:flatsided="false" sodipodi:sides="3" sodipodi:cx="273.75394" sodipodi:cy="199.73717" sodipodi:r1="251.99969" sodipodi:r2="125.99984" sodipodi:arg1="0.50510721" sodipodi:arg2="1.5523048" inkscape:rounded="0" inkscape:randomized="0" d="M 494.28457,321.68014 276.08373,325.71547 57.882912,329.75081 163.48863,138.76568 269.09433,-52.219445 381.68945,134.73036 Z" transform="matrix(0.23158394,-0.12795787,0.12795787,0.23158394,10.071879,95.474846)" inkscape:transform-center-x="-17.321196" inkscape:transform-center-y="1.252762" /><path id="path1745" style="opacity:1;fill:var(--icon-colour__white);stroke-width:0.264583" d="m 200.12835,63.284233 -7.5029,2.958993 c 0.0361,-0.0125 0.0724,-0.02463 0.10852,-0.03721 0.62569,-0.216452 1.25459,-0.424481 1.87637,-0.652157 0.76548,-0.280864 1.52936,-0.565305 2.28255,-0.877982 0.72613,-0.287044 1.44721,-0.58712 2.16473,-0.895036 0.3607,-0.157076 0.71644,-0.325379 1.07073,-0.496611 z" /><path id="path644" style="fill:var(--icon-colour__black);stroke-width:0.264583" d="M -104.99979 4.4408921e-16 A 105 105 0 0 1 0 104.99979 A 105 105 0 0 1 -104.99979 210.0001 A 105 105 0 0 1 -210.0001 104.99979 A 105 105 0 0 1 -203.82322 69.569397 L -186.45735 74.592346 C -186.45494 74.593211 -186.45253 74.594066 -186.45012 74.59493 A 87 87 0 0 0 -192.00017 104.99979 A 87 87 0 0 0 -104.99979 192.00017 A 87 87 0 0 0 -17.999935 104.99979 A 87 87 0 0 0 -104.99979 17.999935 A 87 87 0 0 0 -145.37304 27.9554 L -161.16329 16.300814 A 105 105 0 0 1 -104.99979 4.4408921e-16 z " transform="matrix(-1,0,0,1,0,1.6910937)" /><ellipse style="opacity:1;fill:var(--icon-colour__black);fill-opacity:1;fill-rule:nonzero;stroke-width:57.8689;stroke-dasharray:none;paint-order:stroke markers fill" id="path9602" cx="166.73792" cy="124.80812" rx="9.0336218" ry="2.5987132" transform="matrix(0.96111449,-0.27615019,0.27951282,0.96014196,0,0)" /></g></svg> 