<!--
  - Copyright 2016-2025 Crown Copyright
  -
  - Licensed under the Apache License, Version 2.0 (the "License");
  - you may not use this file except in compliance with the License.
  - You may obtain a copy of the License at
  -
  -     http://www.apache.org/licenses/LICENSE-2.0
  -
  - Unless required by applicable law or agreed to in writing, software
  - distributed under the License is distributed on an "AS IS" BASIS,
  - WITHOUT WARRANTIES OR CONDITIONS OF ANY KIND, either express or implied.
  - See the License for the specific language governing permissions and
  - limitations under the License.
  -->

<svg xmlns="http://www.w3.org/2000/svg" width="1792" height="1792" viewBox="0 0 1792 1792"><!--! Font Awesome Free 6.4.0 by @fontawesome - https://fontawesome.com License - https://fontawesome.com/license (Commercial License) Copyright 2023 Fonticons, Inc. --><path style="fill:currentColor;stroke-width:0.570676;stroke-dasharray:none" d="M 339.40234 116.52148 C 216.56504 116.52148 116.69531 216.3912 116.69531 339.22852 L 116.69531 1452.7715 C 116.69531 1575.6089 216.56504 1675.4785 339.40234 1675.4785 L 1452.5977 1675.4785 C 1575.4349 1675.4785 1675.3047 1575.6089 1675.3047 1452.7715 L 1675.3047 598.82422 C 1675.3047 539.66744 1651.9901 482.94523 1610.2324 441.1875 L 1610.5801 440.83984 L 1351.334 181.59375 C 1309.5761 139.83602 1252.8561 116.52148 1193.6992 116.52148 L 339.40234 116.52148 z M 339.40234 283.55273 L 395.08008 283.55273 L 395.08008 645.45312 C 395.08008 691.73461 432.31423 728.96875 478.5957 728.96875 L 1146.7207 728.96875 C 1193.0023 728.96875 1230.2363 691.73461 1230.2363 645.45312 L 1230.2363 297.12305 C 1231.2803 298.167 1231.9756 298.8623 1233.0195 299.90625 L 1492.6152 558.80469 L 1492.2676 559.1543 C 1502.707 569.59373 1508.6211 583.8594 1508.6211 598.47461 L 1508.6211 1452.7715 C 1508.6211 1483.3939 1483.5678 1508.4473 1452.9453 1508.4473 L 1395.6113 1508.4473 L 1395.6113 1059.8359 C 1395.6113 981.08539 1331.5826 917.05859 1252.832 917.05859 L 539.16797 917.05859 C 460.41738 917.05859 396.38867 981.08539 396.38867 1059.8359 L 396.38867 1508.4473 L 339.40234 1508.4473 C 308.78001 1508.4473 283.72656 1483.3939 283.72656 1452.7715 L 283.72656 339.22852 C 283.72656 308.60619 308.78001 283.55273 339.40234 283.55273 z M 562.11133 283.55273 L 1063.2051 283.55273 L 1063.2051 561.9375 L 562.11133 561.9375 L 562.11133 283.55273 z M 538.94531 1024.1426 L 1252.832 1024.1426 C 1272.4639 1024.1426 1288.5273 1040.2041 1288.5273 1059.8359 L 1288.5273 1508.4473 L 503.25 1508.4473 L 503.25 1059.8359 C 503.25 1040.2041 519.31334 1024.1426 538.94531 1024.1426 z " /></svg>
