<?xml version="1.0" encoding="utf-8"?>
<svg xmlns="http://www.w3.org/2000/svg" width="1792" height="1792" viewBox="0 0 1792 1792">
    <path fill="#2196f3" d="M 1440.207 1768.614 C 1371.954 1768.614 1313.505 1744.29 1264.857 1695.642 C 1216.209 1646.994 1191.885 1588.545 1191.885 1520.292 C 1191.885 1510.127 1192.974 1498.147 1195.152 1484.35 C 1197.33 1470.554 1200.597 1457.848 1204.955 1446.231 L 544.94 1062.856 C 523.157 1087.543 496.291 1107.509 464.344 1122.758 C 432.396 1138.006 399.722 1145.63 366.322 1145.63 C 298.069 1145.63 239.619 1121.306 190.971 1072.658 C 142.324 1024.01 118 965.559 118 897.308 C 118 827.602 142.324 768.79 190.971 720.868 C 239.619 672.946 298.069 648.986 366.322 648.986 C 399.722 648.986 431.671 655.519 462.165 668.59 C 492.66 681.66 520.252 700.537 544.94 725.224 L 1204.955 346.206 C 1200.597 336.042 1197.33 324.423 1195.152 311.354 C 1192.974 298.284 1191.885 285.94 1191.885 274.324 C 1191.885 204.618 1216.209 145.806 1264.857 97.884 C 1313.505 49.962 1371.954 26 1440.207 26 C 1509.911 26 1568.724 49.962 1616.646 97.884 C 1664.569 145.806 1688.529 204.618 1688.529 274.324 C 1688.529 342.575 1664.569 401.026 1616.646 449.674 C 1568.724 498.322 1509.911 522.646 1440.207 522.646 C 1406.807 522.646 1374.496 517.199 1343.274 506.309 C 1312.052 495.418 1285.55 477.627 1263.767 452.942 L 603.752 818.89 C 606.657 830.507 609.199 843.94 611.377 859.188 C 613.555 874.436 614.644 887.143 614.644 897.308 C 614.644 907.473 613.555 918.364 611.377 929.981 C 609.199 941.598 606.657 953.217 603.752 964.834 L 1263.767 1339.495 C 1285.55 1319.165 1310.964 1302.827 1340.007 1290.485 C 1369.05 1278.142 1402.451 1271.97 1440.207 1271.97 C 1509.911 1271.97 1568.724 1295.93 1616.646 1343.852 C 1664.569 1391.774 1688.529 1450.586 1688.529 1520.292 C 1688.529 1588.545 1664.569 1646.994 1616.646 1695.642 C 1568.724 1744.29 1509.911 1768.614 1440.207 1768.614 Z M 1440.207 391.95 C 1473.608 391.95 1501.561 380.696 1524.071 358.186 C 1546.579 335.678 1557.834 307.723 1557.834 274.324 C 1557.834 240.923 1546.579 212.968 1524.071 190.46 C 1501.561 167.951 1473.608 156.696 1440.207 156.696 C 1406.807 156.696 1378.852 167.951 1356.343 190.46 C 1333.835 212.968 1322.581 240.923 1322.581 274.324 C 1322.581 307.723 1333.835 335.678 1356.343 358.186 C 1378.852 380.696 1406.807 391.95 1440.207 391.95 Z M 366.322 1014.934 C 399.722 1014.934 427.677 1003.68 450.185 981.17 C 472.694 958.662 483.948 930.707 483.948 897.308 C 483.948 863.907 472.694 835.954 450.185 813.444 C 427.677 790.935 399.722 779.68 366.322 779.68 C 332.921 779.68 304.968 790.935 282.458 813.444 C 259.951 835.954 248.695 863.907 248.695 897.308 C 248.695 930.707 259.951 958.662 282.458 981.17 C 304.968 1003.68 332.921 1014.934 366.322 1014.934 Z M 1440.207 1637.918 C 1473.608 1637.918 1501.561 1626.664 1524.071 1604.154 C 1546.579 1581.646 1557.834 1553.691 1557.834 1520.292 C 1557.834 1486.891 1546.579 1458.938 1524.071 1436.428 C 1501.561 1413.92 1473.608 1402.664 1440.207 1402.664 C 1406.807 1402.664 1378.852 1413.92 1356.343 1436.428 C 1333.835 1458.938 1322.581 1486.891 1322.581 1520.292 C 1322.581 1553.691 1333.835 1581.646 1356.343 1604.154 C 1378.852 1626.664 1406.807 1637.918 1440.207 1637.918 Z M 1440.207 274.324 Z M 366.322 897.308 Z M 1440.207 1520.292 Z" />
</svg>