<?xml version="1.0" encoding="utf-8"?>
<svg xmlns="http://www.w3.org/2000/svg" width="1792" height="1792" viewBox="0 0 1792 1792">
    <path style="fill:#757575"
          d="M 504.35742 1187.6074 C 389.50028 1210.4757 298.36975 1241.2006 231 1279.791 C 162.33333 1319.1243 128 1361.791 128 1407.791 L 128 1535.791 C 128 1581.791 162.33333 1624.4577 231 1663.791 C 299.66667 1703.1243 393 1734.291 511 1757.291 C 629 1780.291 757.33333 1791.791 896 1791.791 C 1034.6667 1791.791 1163 1780.291 1281 1757.291 C 1399 1734.291 1492.3333 1703.1243 1561 1663.791 C 1629.6667 1624.4577 1664 1581.791 1664 1535.791 L 1664 1407.791 C 1664 1361.791 1629.6667 1319.1243 1561 1279.791 C 1493.7817 1241.2873 1402.9105 1210.6138 1288.418 1187.7617 L 1056.3926 1420.1445 A 107.19621 107.19621 0 0 1 1054.3145 1422.1719 C 1012.9015 1461.461 953.6261 1485.9707 896 1485.9707 C 838.23415 1485.9707 777.60767 1461.2151 736.5957 1420.2031 A 107.19621 107.19621 0 0 1 736.53711 1420.1445 L 504.35742 1187.6074 z "/>
    <path style="fill:#2196f3"
          d="m 836.54102,1.0253906 c -32.20659,0 -60.07772,11.7671574 -83.61329,35.3027344 C 729.39215,59.863702 717.625,87.734831 717.625,119.94141 l 0,654.04101 L 444.48828,500.8457 c -22.91621,-22.91622 -50.78734,-34.37304 -83.61328,-34.37304 -32.20658,0 -60.38608,11.45682 -84.54102,34.37304 l -68.75,69.67774 c -23.53558,23.53557 -35.30273,51.71703 -35.30273,84.54297 0,33.44529 11.76715,61.31642 35.30273,83.61328 l 604.80274,605.73241 c 22.91621,22.9162 50.78731,34.3731 83.61328,34.3731 32.20659,0 60.38804,-11.4569 84.54297,-34.3731 L 1585.3438,738.67969 c 22.9162,-22.91622 34.375,-50.78735 34.375,-83.61328 0,-32.20658 -11.4588,-60.38804 -34.375,-84.54297 L 1515.668,500.8457 c -24.155,-22.91622 -52.3365,-34.37304 -84.543,-34.37304 -32.8259,0 -60.697,11.45682 -83.6133,34.37304 l -273.1367,273.13672 0,-654.04101 c 0,-32.206579 -11.7671,-60.077708 -35.3027,-83.613285 C 1015.5367,12.792548 987.6656,1.0253906 955.45898,1.0253906 l -118.91796,0 z"/>
</svg>