<?xml version="1.0" encoding="utf-8"?>
<svg xmlns="http://www.w3.org/2000/svg"
     width="81.627068"
     height="89.375465"
     viewBox="0 0 81.627068 89.375463">
    <path style="fill:#da3522;fill-opacity:1;fill-rule:nonzero;stroke:none;stroke-width:1.33333325"
          d="M 36.855469 0 C 30.759469 0 24.95225 1.2230209 19.65625 3.4296875 L 13.751953 53.181641 L 43.253906 0.46289062 C 41.163236 0.16289064 39.028809 -3.7007434e-17 36.855469 0 z M 45.953125 0.92578125 L 20.302734 56.519531 L 67.882812 12.511719 C 61.916152 6.7717196 54.370455 2.6631145 45.953125 0.92578125 z M 15.775391 5.2695312 C 9.4580606 8.6481979 4.05067 13.496708 0 19.359375 L 6.4902344 52.03125 L 15.775391 5.2695312 z M 69.501953 14.150391 L 25.501953 61.71875 L 80.798828 36.207031 C 79.162828 27.767031 75.157953 20.178391 69.501953 14.150391 z M 81.238281 38.947266 L 28.839844 68.269531 L 78 62.4375 C 80.33067 57.0175 81.626953 51.04615 81.626953 44.771484 C 81.626953 42.795484 81.486281 40.855266 81.238281 38.947266 z M 76.068359 66.382812 L 29.990234 75.533203 L 61.919922 81.875 C 67.774592 77.912333 72.635029 72.597479 76.068359 66.382812 z M 28.839844 82.794922 L 40.597656 89.375 C 45.554986 88.964334 50.282391 87.752089 54.650391 85.857422 L 28.839844 82.794922 z "/>
</svg>