<?xml version="1.0" encoding="UTF-8" standalone="no"?>
<svg xmlns="http://www.w3.org/2000/svg" viewBox="0 0 1792 1792" height="1792" width="1792">
    <path style="fill:#2196f3"
          d="m 1664,896 c 0,139.3333 -34.3333,267.8333 -103,385.5 -68.6667,117.6667 -161.8333,210.8333 -279.5,279.5 -117.6667,68.6667 -246.1667,103 -385.5,103 -139.33333,0 -267.83333,-34.3333 -385.5,-103 C 392.83333,1492.3333 299.66667,1399.1667 231,1281.5 162.33333,1163.8333 128,1035.3333 128,896 128,756.66667 162.33333,628.16667 231,510.5 299.66667,392.83333 392.83333,299.66667 510.5,231 628.16667,162.33333 756.66667,128 896,128 c 139.3333,0 267.8333,34.33333 385.5,103 117.6667,68.66667 210.8333,161.83333 279.5,279.5 68.6667,117.66667 103,246.16667 103,385.5 z" />
    <path style="fill:#ffffff"
          d="m 1303.3748,386.71917 0,1018.43693 c 0,18.6714 -15.2766,33.948 -33.948,33.948 l -113.1596,0 c -18.6713,0 -33.9479,-15.2766 -33.9479,-33.948 l 0,-429.72386 -485.17205,442.73726 c -58.27722,48.6587 -148.52205,7.9212 -148.52205,-69.5932 0,-571.78462 0,-247.4743 0,-905.2773 0,-77.51437 90.24483,-117.96894 148.52205,-69.59319 l 485.17205,439.62531 0,-426.61195 c 0,-18.67134 15.2766,-33.94789 33.9479,-33.94789 l 113.1596,0 c 18.6714,0 33.948,15.27655 33.948,33.94789 z" />
</svg>
