<!--
  - Copyright 2016-2025 Crown Copyright
  -
  - Licensed under the Apache License, Version 2.0 (the "License");
  - you may not use this file except in compliance with the License.
  - You may obtain a copy of the License at
  -
  -     http://www.apache.org/licenses/LICENSE-2.0
  -
  - Unless required by applicable law or agreed to in writing, software
  - distributed under the License is distributed on an "AS IS" BASIS,
  - WITHOUT WARRANTIES OR CONDITIONS OF ANY KIND, either express or implied.
  - See the License for the specific language governing permissions and
  - limitations under the License.
  -->

<svg xmlns="http://www.w3.org/2000/svg" viewBox="0 0 1792 1792" height="1792" width="1792"><path style="fill:#fff" d="m 1303.3748,386.71917 0,1018.43693 c 0,18.6714 -15.2766,33.948 -33.948,33.948 l -113.1596,0 c -18.6713,0 -33.9479,-15.2766 -33.9479,-33.948 l 0,-429.72386 -485.17205,442.73726 c -58.27722,48.6587 -148.52205,7.9212 -148.52205,-69.5932 0,-571.78462 0,-247.4743 0,-905.2773 0,-77.51437 90.24483,-117.96894 148.52205,-69.59319 l 485.17205,439.62531 0,-426.61195 c 0,-18.67134 15.2766,-33.94789 33.9479,-33.94789 l 113.1596,0 c 18.6714,0 33.948,15.27655 33.948,33.94789 z" /></svg>
