<?xml version="1.0" encoding="UTF-8" standalone="no"?>
<svg
   xmlns:dc="http://purl.org/dc/elements/1.1/"
   xmlns:cc="http://creativecommons.org/ns#"
   xmlns:rdf="http://www.w3.org/1999/02/22-rdf-syntax-ns#"
   xmlns:svg="http://www.w3.org/2000/svg"
   xmlns="http://www.w3.org/2000/svg"
   xmlns:sodipodi="http://sodipodi.sourceforge.net/DTD/sodipodi-0.dtd"
   xmlns:inkscape="http://www.inkscape.org/namespaces/inkscape"
   width="1792"
   height="1792"
   viewBox="0 0 1792 1792"
   id="svg5453"
   version="1.1"
   inkscape:version="0.91 r13725"
   sodipodi:docname="table.svg">
  <metadata
     id="metadata5461">
    <rdf:RDF>
      <cc:Work
         rdf:about="">
        <dc:format>image/svg+xml</dc:format>
        <dc:type
           rdf:resource="http://purl.org/dc/dcmitype/StillImage" />
      </cc:Work>
    </rdf:RDF>
  </metadata>
  <defs
     id="defs5459" />
  <sodipodi:namedview
     pagecolor="#ffffff"
     bordercolor="#666666"
     borderopacity="1"
     objecttolerance="10"
     gridtolerance="10"
     guidetolerance="10"
     inkscape:pageopacity="0"
     inkscape:pageshadow="2"
     inkscape:window-width="1091"
     inkscape:window-height="903"
     id="namedview5457"
     showgrid="false"
     inkscape:zoom="0.13169643"
     inkscape:cx="896"
     inkscape:cy="896"
     inkscape:window-x="0"
     inkscape:window-y="0"
     inkscape:window-maximized="0"
     inkscape:current-layer="svg5453" />
  <path
     d="m 594.691,1387.3898 0,-176.2294 q 0,-12.8501 -8.26075,-21.1109 -8.26076,-8.2607 -21.11083,-8.2607 l -293.71577,0 q -12.85007,0 -21.11082,8.2607 -8.26076,8.2608 -8.26076,21.1109 l 0,176.2294 q 0,12.8501 8.26076,21.1108 8.26075,8.2608 21.11082,8.2608 l 293.71577,0 q 12.85007,0 21.11083,-8.2608 8.26075,-8.2607 8.26075,-21.1108 z m 0,-352.4589 0,-176.22946 q 0,-12.85007 -8.26075,-21.11082 -8.26076,-8.26076 -21.11083,-8.26076 l -293.71577,0 q -12.85007,0 -21.11082,8.26076 -8.26076,8.26075 -8.26076,21.11082 l 0,176.22946 q 0,12.8501 8.26076,21.1108 8.26075,8.2608 21.11082,8.2608 l 293.71577,0 q 12.85007,0 21.11083,-8.2608 8.26075,-8.2607 8.26075,-21.1108 z m 469.9453,352.4589 0,-176.2294 q 0,-12.8501 -8.2608,-21.1109 -8.2608,-8.2607 -21.1108,-8.2607 l -293.71581,0 q -12.85007,0 -21.11082,8.2607 -8.26076,8.2608 -8.26076,21.1109 l 0,176.2294 q 0,12.8501 8.26076,21.1108 8.26075,8.2608 21.11082,8.2608 l 293.71581,0 q 12.85,0 21.1108,-8.2608 8.2608,-8.2607 8.2608,-21.1108 z M 594.691,682.47197 l 0,-176.22946 q 0,-12.85007 -8.26075,-21.11082 -8.26076,-8.26076 -21.11083,-8.26076 l -293.71577,0 q -12.85007,0 -21.11082,8.26076 -8.26076,8.26075 -8.26076,21.11082 l 0,176.22946 q 0,12.85007 8.26076,21.11083 8.26075,8.26075 21.11082,8.26075 l 293.71577,0 q 12.85007,0 21.11083,-8.26075 8.26075,-8.26076 8.26075,-21.11083 z m 469.9453,352.45893 0,-176.22946 q 0,-12.85007 -8.2608,-21.11082 -8.2608,-8.26076 -21.1108,-8.26076 l -293.71581,0 q -12.85007,0 -21.11082,8.26076 -8.26076,8.26075 -8.26076,21.11082 l 0,176.22946 q 0,12.8501 8.26076,21.1108 8.26075,8.2608 21.11082,8.2608 l 293.71581,0 q 12.85,0 21.1108,-8.2608 8.2608,-8.2607 8.2608,-21.1108 z m 469.9452,352.4589 0,-176.2294 q 0,-12.8501 -8.2607,-21.1109 -8.2608,-8.2607 -21.1109,-8.2607 l -293.7157,0 q -12.8501,0 -21.1109,8.2607 -8.2607,8.2608 -8.2607,21.1109 l 0,176.2294 q 0,12.8501 8.2607,21.1108 8.2608,8.2608 21.1109,8.2608 l 293.7157,0 q 12.8501,0 21.1109,-8.2608 8.2607,-8.2607 8.2607,-21.1108 z m -469.9452,-704.91783 0,-176.22946 q 0,-12.85007 -8.2608,-21.11082 -8.2608,-8.26076 -21.1108,-8.26076 l -293.71581,0 q -12.85007,0 -21.11082,8.26076 -8.26076,8.26075 -8.26076,21.11082 l 0,176.22946 q 0,12.85007 8.26076,21.11083 8.26075,8.26075 21.11082,8.26075 l 293.71581,0 q 12.85,0 21.1108,-8.26075 8.2608,-8.26076 8.2608,-21.11083 z m 469.9452,352.45893 0,-176.22946 q 0,-12.85007 -8.2607,-21.11082 -8.2608,-8.26076 -21.1109,-8.26076 l -293.7157,0 q -12.8501,0 -21.1109,8.26076 -8.2607,8.26075 -8.2607,21.11082 l 0,176.22946 q 0,12.8501 8.2607,21.1108 8.2608,8.2608 21.1109,8.2608 l 293.7157,0 q 12.8501,0 21.1109,-8.2608 8.2607,-8.2607 8.2607,-21.1108 z m 0,-352.45893 0,-176.22946 q 0,-12.85007 -8.2607,-21.11082 -8.2608,-8.26076 -21.1109,-8.26076 l -293.7157,0 q -12.8501,0 -21.1109,8.26076 -8.2607,8.26075 -8.2607,21.11082 l 0,176.22946 q 0,12.85007 8.2607,21.11083 8.2608,8.26075 21.1109,8.26075 l 293.7157,0 q 12.8501,0 21.1109,-8.26075 8.2607,-8.26076 8.2607,-21.11083 z m 117.4863,-293.71577 0,998.6336 q 0,60.5789 -43.1395,103.7184 -43.1395,43.1395 -103.7184,43.1395 l -1233.60625,0 q -60.57888,0 -103.71839,-43.1395 -43.1395,-43.1395 -43.1395,-103.7184 l 0,-998.6336 q 0,-60.57888 43.1395,-103.71839 43.13951,-43.1395 103.71839,-43.1395 l 1233.60625,0 q 60.5789,0 103.7184,43.1395 43.1395,43.13951 43.1395,103.71839 z"
     id="path5455"
     style="fill:#2196f3;fill-opacity:1"
     inkscape:connector-curvature="0" />
</svg>
