<?xml version="1.0" encoding="UTF-8" standalone="no"?>
<svg
   xmlns:dc="http://purl.org/dc/elements/1.1/"
   xmlns:cc="http://creativecommons.org/ns#"
   xmlns:rdf="http://www.w3.org/1999/02/22-rdf-syntax-ns#"
   xmlns:svg="http://www.w3.org/2000/svg"
   xmlns="http://www.w3.org/2000/svg"
   xmlns:sodipodi="http://sodipodi.sourceforge.net/DTD/sodipodi-0.dtd"
   xmlns:inkscape="http://www.inkscape.org/namespaces/inkscape"
   width="1792"
   height="1792"
   viewBox="0 0 1792 1792"
   id="svg5453"
   version="1.1"
   inkscape:version="0.91 r13725"
   sodipodi:docname="table-nested.svg">
  <metadata
     id="metadata5461">
    <rdf:RDF>
      <cc:Work
         rdf:about="">
        <dc:format>image/svg+xml</dc:format>
        <dc:type
           rdf:resource="http://purl.org/dc/dcmitype/StillImage" />
        <dc:title />
      </cc:Work>
    </rdf:RDF>
  </metadata>
  <defs
     id="defs5459" />
  <sodipodi:namedview
     pagecolor="#ffffff"
     bordercolor="#666666"
     borderopacity="1"
     objecttolerance="10"
     gridtolerance="10"
     guidetolerance="10"
     inkscape:pageopacity="0"
     inkscape:pageshadow="2"
     inkscape:window-width="1920"
     inkscape:window-height="1137"
     id="namedview5457"
     showgrid="false"
     inkscape:zoom="0.35355339"
     inkscape:cx="1584.2261"
     inkscape:cy="1033.783"
     inkscape:window-x="0"
     inkscape:window-y="0"
     inkscape:window-maximized="1"
     inkscape:current-layer="svg5453" />
  <g
     id="g4315"
     transform="translate(7.0000002e-6,-1.5e-5)">
    <path
       inkscape:connector-curvature="0"
       id="path4204"
       d="m 137.53829,107.20283 c -23.61612,0 -43.834079,8.40922 -60.651635,25.22678 -16.817554,16.81756 -25.226769,37.03288 -25.226769,60.649 l 0,118.52869 0,49.96653 c 0,23.61616 8.409215,43.83409 25.226769,60.65164 16.817556,16.81755 37.035515,25.22415 60.651635,25.22415 l 721.36499,0 c 23.61615,0 43.83408,-8.4066 60.65163,-25.22415 16.81755,-16.81755 25.22679,-37.03548 25.22679,-60.65164 l 0,-49.96653 0,-118.52869 c 0,-23.61612 -8.40924,-43.83144 -25.22679,-60.649 -16.81755,-16.81756 -37.03548,-25.22678 -60.65163,-25.22678 l -721.36499,0 z m 0,137.40336 171.7542,0 c 5.00948,-2e-5 9.12318,1.61015 12.34356,4.83054 3.22039,3.22037 4.83054,7.33409 4.83054,12.34357 l 0,49.827 0,49.96653 c 0,5.0095 -1.61015,9.12319 -4.83054,12.34356 -3.22036,3.22039 -7.33408,4.83055 -12.34356,4.83055 l -171.7542,0 c -5.00947,0 -9.12578,-1.61016 -12.34619,-4.83055 -3.22038,-3.22037 -4.83054,-7.33406 -4.83054,-12.34356 l 0,-49.96653 0,-49.827 c 0,-5.00948 1.61016,-9.1232 4.83054,-12.34357 3.22041,-3.22039 7.33672,-4.83054 12.34619,-4.83054 z m 274.80672,0 171.75156,0 c 5.00946,-2e-5 9.12577,1.61015 12.34619,4.83054 3.22038,3.22037 4.83054,7.33409 4.83054,12.34357 l 0,49.827 0,49.96653 c 0,5.0095 -1.61016,9.12319 -4.83054,12.34356 -3.22042,3.22039 -7.33673,4.83055 -12.34619,4.83055 l -171.75156,0 c -5.00948,0 -9.12582,-1.61016 -12.3462,-4.83055 -3.22038,-3.22037 -4.83053,-7.33406 -4.83053,-12.34356 l 0,-49.96653 0,-49.827 c 0,-5.00948 1.61015,-9.1232 4.83053,-12.34357 3.22038,-3.22039 7.33672,-4.83054 12.3462,-4.83054 z m 274.80407,0 171.7542,0 c 5.00951,-2e-5 9.12576,1.61015 12.34619,4.83054 3.22038,3.22037 4.83054,7.33409 4.83054,12.34357 l 0,49.827 0,49.96653 c 0,5.0095 -1.61016,9.12319 -4.83054,12.34356 -3.22043,3.22039 -7.33668,4.83055 -12.34619,4.83055 l -171.7542,0 c -5.0095,0 -9.12313,-1.61016 -12.34355,-4.83055 -3.22036,-3.22037 -4.83055,-7.33406 -4.83055,-12.34356 l 0,-49.96653 0,-49.827 c 0,-5.00948 1.61019,-9.1232 4.83055,-12.34357 3.2204,-3.22039 7.33405,-4.83054 12.34355,-4.83054 z"
       style="fill:#2196f3;fill-opacity:1" />
    <path
       sodipodi:nodetypes="cc"
       inkscape:connector-curvature="0"
       id="path4261"
       d="m 894.22334,748.49717 -199.78761,0"
       style="color:#000000;clip-rule:nonzero;display:inline;overflow:visible;visibility:visible;opacity:1;isolation:auto;mix-blend-mode:normal;color-interpolation:sRGB;color-interpolation-filters:linearRGB;solid-color:#000000;solid-opacity:1;fill:none;fill-opacity:1;fill-rule:evenodd;stroke:#2196f3;stroke-width:65.86434937;stroke-linecap:butt;stroke-linejoin:round;stroke-miterlimit:4;stroke-dasharray:none;stroke-dashoffset:0;stroke-opacity:1;color-rendering:auto;image-rendering:auto;shape-rendering:auto;text-rendering:auto;enable-background:accumulate" />
    <path
       sodipodi:nodetypes="ccc"
       inkscape:connector-curvature="0"
       id="path4291"
       d="m 705.84636,418.11046 0,960.56934 186.95219,0"
       style="color:#000000;clip-rule:nonzero;display:inline;overflow:visible;visibility:visible;opacity:1;isolation:auto;mix-blend-mode:normal;color-interpolation:sRGB;color-interpolation-filters:linearRGB;solid-color:#000000;solid-opacity:1;fill:none;fill-opacity:1;fill-rule:evenodd;stroke:#2196f3;stroke-width:72.15077972;stroke-linecap:butt;stroke-linejoin:round;stroke-miterlimit:4;stroke-dasharray:none;stroke-dashoffset:0;stroke-opacity:1;color-rendering:auto;image-rendering:auto;shape-rendering:auto;text-rendering:auto;enable-background:accumulate" />
    <path
       inkscape:connector-curvature="0"
       d="m 847.21806,914.95913 0,45.33078 c 0,23.61627 8.40921,43.83409 25.22676,60.65159 16.81756,16.8176 37.03557,25.2267 60.65157,25.2267 l 721.36531,0 c 23.616,0 43.8339,-8.4091 60.6516,-25.2267 16.8172,-16.8175 25.2266,-37.03533 25.2266,-60.6516 l 0,-45.33077 -68.7018,0 0,45.33077 c 0,5.00955 -1.61,9.12591 -4.8306,12.34624 -3.2203,3.22034 -7.3367,4.83058 -12.3461,4.83058 l -171.7543,0 c -5.0094,0 -9.1232,-1.61024 -12.3438,-4.83058 -3.2201,-3.22033 -4.8305,-7.33669 -4.8305,-12.34624 l 0,-45.33077 -68.7017,0 0,45.33077 c 0,5.00955 -1.6101,9.12591 -4.8304,12.34624 -3.2206,3.22034 -7.3368,4.83058 -12.3462,4.83058 l -171.7516,0 c -5.0094,0 -9.1259,-1.61024 -12.3462,-4.83058 -3.2203,-3.22033 -4.8306,-7.33669 -4.8306,-12.34624 l 0,-45.33077 -68.7016,0 0,45.33077 c 0,5.00955 -1.6102,9.12591 -4.8306,12.34624 -3.2204,3.22034 -7.3339,4.83058 -12.3435,4.83058 l -171.75401,0 c -5.0094,0 -9.12576,-1.61024 -12.34608,-4.83058 -3.22044,-3.22033 -4.8306,-7.33669 -4.8306,-12.34624 l 0,-45.33077 -68.70165,0 z M 933.09639,502.0566 c -23.616,0 -43.83401,8.4092 -60.65157,25.22678 -16.81755,16.81755 -25.22676,37.03549 -25.22676,60.65165 l 0,327.02397 68.70165,0 0,-52.21716 c 0,-5.00962 1.61016,-9.12597 4.8306,-12.34631 3.22032,-3.22033 7.33668,-4.83057 12.34608,-4.83057 l 171.75421,0 c 5.0097,0 9.1233,1.61024 12.3438,4.83057 3.2203,3.22034 4.8306,7.33669 4.8306,12.34631 l 0,52.21716 68.7015,0 0,-52.21716 c 0,-5.00962 1.6102,-9.12597 4.8306,-12.34631 3.2204,-3.22033 7.3369,-4.83057 12.3464,-4.83057 l 171.7513,0 c 5.0095,0 9.1258,1.61024 12.3462,4.83057 3.2205,3.22034 4.8307,7.33669 4.8307,12.34631 l 0,52.21716 68.7015,0 0,-52.21716 c 0,-5.00962 1.6105,-9.12597 4.8306,-12.34631 3.2204,-3.22033 7.3341,-4.83057 12.3437,-4.83057 l 171.7542,0 c 5.0094,0 9.1256,1.61024 12.3459,4.83057 3.2206,3.22034 4.8306,7.33669 4.8306,12.34631 l 0,52.21716 68.7019,0 0,-327.02397 c 0,-23.61616 -8.4094,-43.8341 -25.2268,-60.65165 -16.8177,-16.81755 -37.0354,-25.22677 -60.6516,-25.22677 l -721.36531,0 z m 0,137.40336 171.75421,0 c 5.0097,0 9.1233,1.61015 12.3438,4.83054 3.2203,3.22037 4.8306,7.3367 4.8306,12.34619 l 0,103.05251 c 0,5.00948 -1.6103,9.12319 -4.8306,12.34356 -3.2205,3.22038 -7.334,4.83056 -12.3438,4.83056 l -171.75421,0 c -5.0094,0 -9.12576,-1.61018 -12.34608,-4.83056 -3.22044,-3.22037 -4.8306,-7.33408 -4.8306,-12.34356 l 0,-103.05251 c 0,-5.00949 1.61016,-9.12582 4.8306,-12.34619 3.22032,-3.22038 7.33668,-4.83054 12.34608,-4.83054 z m 274.80701,0 171.7513,0 c 5.0095,0 9.1258,1.61015 12.3462,4.83054 3.2204,3.22037 4.8308,7.3367 4.8308,12.34619 l 0,103.05251 c 0,5.00948 -1.6104,9.12319 -4.8308,12.34356 -3.2204,3.22038 -7.3367,4.83056 -12.3462,4.83056 l -171.7513,0 c -5.0094,0 -9.126,-1.61018 -12.3465,-4.83056 -3.2203,-3.22037 -4.8306,-7.33408 -4.8306,-12.34356 l 0,-103.05251 c 0,-5.00949 1.6103,-9.12582 4.8306,-12.34619 3.2205,-3.22038 7.3371,-4.83054 12.3465,-4.83054 z m 274.8039,0 171.7544,0 c 5.0094,0 9.1256,1.61015 12.3459,4.83054 3.2206,3.22037 4.8306,7.3367 4.8306,12.34619 l 0,103.05251 c 0,5.00948 -1.61,9.12319 -4.8306,12.34356 -3.2203,3.22038 -7.3365,4.83056 -12.3459,4.83056 l -171.7542,0 c -5.0096,0 -9.1233,-1.61018 -12.3437,-4.83056 -3.2201,-3.22037 -4.8306,-7.33408 -4.8306,-12.34356 l 0,-103.05251 c 0,-5.00949 1.6105,-9.12582 4.8306,-12.34619 3.2204,-3.22038 7.3341,-4.83054 12.3437,-4.83054 z"
       style="fill:#2196f3;fill-opacity:1"
       id="path5455-6-3" />
    <path
       inkscape:connector-curvature="0"
       d="m 847.21806,1553.5881 0,45.3308 c 0,23.6162 8.40928,43.834 25.22676,60.6517 16.81763,16.8176 37.03557,25.2266 60.65157,25.2266 l 721.36501,0 c 23.6162,0 43.8341,-8.409 60.6518,-25.2266 16.8172,-16.8177 25.2266,-37.0355 25.2266,-60.6517 l 0,-45.3308 -68.7018,0 0,45.3308 c 0,5.0096 -1.6102,9.126 -4.8306,12.3463 -3.2203,3.2203 -7.3367,4.8306 -12.3461,4.8306 l -171.7543,0 c -5.0095,0 -9.1232,-1.6103 -12.3438,-4.8306 -3.2202,-3.2203 -4.8305,-7.3367 -4.8305,-12.3463 l 0,-45.3308 -68.7017,0 0,45.3308 c 0,5.0096 -1.6101,9.126 -4.8306,12.3463 -3.2204,3.2203 -7.3366,4.8306 -12.3462,4.8306 l -171.7514,0 c -5.0094,0 -9.1259,-1.6103 -12.3462,-4.8306 -3.2203,-3.2203 -4.8306,-7.3367 -4.8306,-12.3463 l 0,-45.3308 -68.7016,0 0,45.3308 c 0,5.0096 -1.6102,9.126 -4.8306,12.3463 -3.2204,3.2203 -7.3339,4.8306 -12.3435,4.8306 l -171.75391,0 c -5.0094,0 -9.12576,-1.6103 -12.34608,-4.8306 -3.22044,-3.2203 -4.83048,-7.3367 -4.83048,-12.3463 l 0,-45.3308 -68.70177,0 z m 85.87833,-412.9024 c -23.616,0 -43.83394,8.4091 -60.65157,25.2266 -16.81748,16.8176 -25.22676,37.0356 -25.22676,60.6517 l 0,327.024 68.70177,0 0,-52.2172 c 0,-5.0094 1.61004,-9.1258 4.83048,-12.3464 3.22032,-3.2203 7.33668,-4.8304 12.34608,-4.8304 l 171.75411,0 c 5.0097,0 9.1233,1.6101 12.3438,4.8304 3.2203,3.2206 4.8306,7.337 4.8306,12.3464 l 0,52.2172 68.7015,0 0,-52.2172 c 0,-5.0094 1.6102,-9.1258 4.8306,-12.3464 3.2204,-3.2203 7.3369,-4.8304 12.3464,-4.8304 l 171.7513,0 c 5.0095,0 9.1258,1.6101 12.3462,4.8304 3.2205,3.2206 4.8307,7.337 4.8307,12.3464 l 0,52.2172 68.7015,0 0,-52.2172 c 0,-5.0094 1.6105,-9.1258 4.8306,-12.3464 3.2204,-3.2203 7.3341,-4.8304 12.3437,-4.8304 l 171.754,0 c 5.0096,0 9.1258,1.6101 12.3461,4.8304 3.2206,3.2206 4.8306,7.337 4.8306,12.3464 l 0,52.2172 68.7019,0 0,-327.024 c 0,-23.6161 -8.4094,-43.834 -25.2268,-60.6517 -16.8177,-16.8175 -37.0355,-25.2266 -60.6518,-25.2266 l -721.36501,0 z m 0,137.4032 171.75411,0 c 5.0097,0 9.1233,1.6102 12.3438,4.8306 3.2203,3.2203 4.8306,7.3367 4.8306,12.3462 l 0,103.0525 c 0,5.0094 -1.6103,9.1233 -4.8306,12.3436 -3.2205,3.2204 -7.334,4.8305 -12.3438,4.8305 l -171.75411,0 c -5.0094,0 -9.12576,-1.6101 -12.34608,-4.8305 -3.22044,-3.2203 -4.83048,-7.3342 -4.83048,-12.3436 l 0,-103.0525 c 0,-5.0095 1.61004,-9.1259 4.83048,-12.3462 3.22032,-3.2204 7.33668,-4.8306 12.34608,-4.8306 z m 274.80681,0 171.7514,0 c 5.0095,0 9.1256,1.6102 12.3462,4.8306 3.2204,3.2203 4.8308,7.3367 4.8308,12.3462 l 0,103.0525 c 0,5.0094 -1.6104,9.1233 -4.8308,12.3436 -3.2206,3.2204 -7.3367,4.8305 -12.3462,4.8305 l -171.7514,0 c -5.0093,0 -9.1259,-1.6101 -12.3464,-4.8305 -3.2203,-3.2203 -4.8306,-7.3342 -4.8306,-12.3436 l 0,-103.0525 c 0,-5.0095 1.6103,-9.1259 4.8306,-12.3462 3.2205,-3.2204 7.3371,-4.8306 12.3464,-4.8306 z m 274.804,0 171.7542,0 c 5.0096,0 9.1258,1.6102 12.3461,4.8306 3.2206,3.2203 4.8306,7.3367 4.8306,12.3462 l 0,103.0525 c 0,5.0094 -1.61,9.1233 -4.8306,12.3436 -3.2203,3.2204 -7.3365,4.8305 -12.3461,4.8305 l -171.754,0 c -5.0096,0 -9.1233,-1.6101 -12.3437,-4.8305 -3.2201,-3.2203 -4.8306,-7.3342 -4.8306,-12.3436 l 0,-103.0525 c 0,-5.0095 1.6105,-9.1259 4.8306,-12.3462 3.2204,-3.2204 7.3341,-4.8306 12.3437,-4.8306 z"
       style="fill:#2196f3;fill-opacity:1"
       id="path5455-6-3-6" />
  </g>
</svg>
