<?xml version="1.0" encoding="UTF-8" standalone="no"?>
<svg
   xmlns:dc="http://purl.org/dc/elements/1.1/"
   xmlns:cc="http://creativecommons.org/ns#"
   xmlns:rdf="http://www.w3.org/1999/02/22-rdf-syntax-ns#"
   xmlns:svg="http://www.w3.org/2000/svg"
   xmlns="http://www.w3.org/2000/svg"
   xmlns:sodipodi="http://sodipodi.sourceforge.net/DTD/sodipodi-0.dtd"
   xmlns:inkscape="http://www.inkscape.org/namespaces/inkscape"
   width="1792"
   height="1792"
   viewBox="0 0 1792 1792"
   id="svg5453"
   version="1.1"
   inkscape:version="0.91 r13725"
   sodipodi:docname="table-nested.svg">
  <metadata
     id="metadata5461">
    <rdf:RDF>
      <cc:Work
         rdf:about="">
        <dc:format>image/svg+xml</dc:format>
        <dc:type
           rdf:resource="http://purl.org/dc/dcmitype/StillImage" />
        <dc:title></dc:title>
      </cc:Work>
    </rdf:RDF>
  </metadata>
  <defs
     id="defs5459" />
  <sodipodi:namedview
     pagecolor="#ffffff"
     bordercolor="#666666"
     borderopacity="1"
     objecttolerance="10"
     gridtolerance="10"
     guidetolerance="10"
     inkscape:pageopacity="0"
     inkscape:pageshadow="2"
     inkscape:window-width="1920"
     inkscape:window-height="1137"
     id="namedview5457"
     showgrid="false"
     inkscape:zoom="0.32"
     inkscape:cx="501.17064"
     inkscape:cy="1085.0277"
     inkscape:window-x="0"
     inkscape:window-y="0"
     inkscape:window-maximized="1"
     inkscape:current-layer="svg5453" />
  <g
     id="g4307"
     transform="matrix(1.1389721,0,0,1.1389721,-76.83338,-167.76661)">
    <path
       inkscape:connector-curvature="0"
       style="fill:#2196f3;fill-opacity:1"
       id="path5455"
       d="m 372.09713,654.13189 0,-67.12962 q 0,-4.89489 -3.1467,-8.0416 -3.1467,-3.14669 -8.04157,-3.14669 l -111.88275,0 q -4.89487,0 -8.04157,3.14669 -3.14671,3.14671 -3.14671,8.0416 l 0,67.12962 q 0,4.89488 3.14671,8.04156 3.1467,3.14672 8.04157,3.14672 l 111.88275,0 q 4.89487,0 8.04157,-3.14672 3.1467,-3.14668 3.1467,-8.04156 z m 0,-134.25928 0,-67.12965 q 0,-4.89487 -3.1467,-8.04157 -3.1467,-3.1467 -8.04157,-3.1467 l -111.88275,0 q -4.89487,0 -8.04157,3.1467 -3.14671,3.1467 -3.14671,8.04157 l 0,67.12965 q 0,4.89488 3.14671,8.04156 3.1467,3.14672 8.04157,3.14672 l 111.88275,0 q 4.89487,0 8.04157,-3.14672 3.1467,-3.14668 3.1467,-8.04156 z m 179.01241,134.25928 0,-67.12962 q 0,-4.89489 -3.14671,-8.0416 -3.14673,-3.14669 -8.04157,-3.14669 l -111.88276,0 q -4.89487,0 -8.04157,3.14669 -3.1467,3.14671 -3.1467,8.0416 l 0,67.12962 q 0,4.89488 3.1467,8.04156 3.1467,3.14672 8.04157,3.14672 l 111.88276,0 q 4.89484,0 8.04157,-3.14672 3.14671,-3.14668 3.14671,-8.04156 z m -179.01241,-268.51857 0,-67.12965 q 0,-4.89487 -3.1467,-8.04157 -3.1467,-3.14671 -8.04157,-3.14671 l -111.88275,0 q -4.89487,0 -8.04157,3.14671 -3.14671,3.1467 -3.14671,8.04157 l 0,67.12965 q 0,4.89487 3.14671,8.04157 3.1467,3.1467 8.04157,3.1467 l 111.88275,0 q 4.89487,0 8.04157,-3.1467 3.1467,-3.1467 3.1467,-8.04157 z m 179.01241,134.25929 0,-67.12965 q 0,-4.89487 -3.14671,-8.04157 -3.14673,-3.1467 -8.04157,-3.1467 l -111.88276,0 q -4.89487,0 -8.04157,3.1467 -3.1467,3.1467 -3.1467,8.04157 l 0,67.12965 q 0,4.89488 3.1467,8.04156 3.1467,3.14672 8.04157,3.14672 l 111.88276,0 q 4.89484,0 8.04157,-3.14672 3.14671,-3.14668 3.14671,-8.04156 z m 179.01241,134.25928 0,-67.12962 q 0,-4.89489 -3.14671,-8.0416 -3.14672,-3.14669 -8.04161,-3.14669 l -111.88271,0 q -4.89488,0 -8.04161,3.14669 -3.14667,3.14671 -3.14667,8.0416 l 0,67.12962 q 0,4.89488 3.14667,8.04156 3.14673,3.14672 8.04161,3.14672 l 111.88271,0 q 4.89489,0 8.04161,-3.14672 3.14671,-3.14668 3.14671,-8.04156 z m -179.01241,-268.51857 0,-67.12965 q 0,-4.89487 -3.14671,-8.04157 -3.14673,-3.14671 -8.04157,-3.14671 l -111.88276,0 q -4.89487,0 -8.04157,3.14671 -3.1467,3.1467 -3.1467,8.04157 l 0,67.12965 q 0,4.89487 3.1467,8.04157 3.1467,3.1467 8.04157,3.1467 l 111.88276,0 q 4.89484,0 8.04157,-3.1467 3.14671,-3.1467 3.14671,-8.04157 z m 179.01241,134.25929 0,-67.12965 q 0,-4.89487 -3.14671,-8.04157 -3.14672,-3.1467 -8.04161,-3.1467 l -111.88271,0 q -4.89488,0 -8.04161,3.1467 -3.14667,3.1467 -3.14667,8.04157 l 0,67.12965 q 0,4.89488 3.14667,8.04156 3.14673,3.14672 8.04161,3.14672 l 111.88271,0 q 4.89489,0 8.04161,-3.14672 3.14671,-3.14668 3.14671,-8.04156 z m 0,-134.25929 0,-67.12965 q 0,-4.89487 -3.14671,-8.04157 -3.14672,-3.14671 -8.04161,-3.14671 l -111.88271,0 q -4.89488,0 -8.04161,3.14671 -3.14667,3.1467 -3.14667,8.04157 l 0,67.12965 q 0,4.89487 3.14667,8.04157 3.14673,3.1467 8.04161,3.1467 l 111.88271,0 q 4.89489,0 8.04161,-3.1467 3.14671,-3.1467 3.14671,-8.04157 z m 44.75305,-111.88275 0,380.40132 q 0,23.07583 -16.43276,39.50861 -16.43277,16.43276 -39.50861,16.43276 l -469.90752,0 q -23.07581,0 -39.50859,-16.43276 -16.43278,-16.43278 -16.43278,-39.50861 l 0,-380.40132 q 0,-23.07581 16.43278,-39.50859 16.43278,-16.43278 39.50859,-16.43278 l 469.90752,0 q 23.07584,0 39.50861,16.43278 16.43276,16.43278 16.43276,39.50859 z" />
    <path
       inkscape:connector-curvature="0"
       style="fill:#2196f3;fill-opacity:1"
       id="path5455-6"
       d="m 1063.3166,1072.076 0,-67.1296 q 0,-4.8949 -3.1467,-8.04159 -3.1467,-3.14669 -8.0416,-3.14669 l -111.88273,0 q -4.89487,0 -8.04157,3.14669 -3.14671,3.14669 -3.14671,8.04159 l 0,67.1296 q 0,4.8949 3.14671,8.0416 3.1467,3.1467 8.04157,3.1467 l 111.88273,0 q 4.8949,0 8.0416,-3.1467 3.1467,-3.1467 3.1467,-8.0416 z m 0,-134.25925 0,-67.12965 q 0,-4.89487 -3.1467,-8.04157 -3.1467,-3.1467 -8.0416,-3.1467 l -111.88273,0 q -4.89487,0 -8.04157,3.1467 -3.14671,3.1467 -3.14671,8.04157 l 0,67.12965 q 0,4.89488 3.14671,8.04156 3.1467,3.14672 8.04157,3.14672 l 111.88273,0 q 4.8949,0 8.0416,-3.14672 3.1467,-3.14668 3.1467,-8.04156 z m 179.0124,134.25925 0,-67.1296 q 0,-4.8949 -3.1467,-8.04159 -3.1468,-3.14669 -8.0416,-3.14669 l -111.8828,0 q -4.8948,0 -8.0415,3.14669 -3.1467,3.14669 -3.1467,8.04159 l 0,67.1296 q 0,4.8949 3.1467,8.0416 3.1467,3.1467 8.0415,3.1467 l 111.8828,0 q 4.8948,0 8.0416,-3.1467 3.1467,-3.1467 3.1467,-8.0416 z m -179.0124,-268.51854 0,-67.12965 q 0,-4.89487 -3.1467,-8.04157 -3.1467,-3.14671 -8.0416,-3.14671 l -111.88273,0 q -4.89487,0 -8.04157,3.14671 -3.14671,3.1467 -3.14671,8.04157 l 0,67.12965 q 0,4.89487 3.14671,8.04157 3.1467,3.1467 8.04157,3.1467 l 111.88273,0 q 4.8949,0 8.0416,-3.1467 3.1467,-3.1467 3.1467,-8.04157 z m 179.0124,134.25929 0,-67.12965 q 0,-4.89487 -3.1467,-8.04157 -3.1468,-3.1467 -8.0416,-3.1467 l -111.8828,0 q -4.8948,0 -8.0415,3.1467 -3.1467,3.1467 -3.1467,8.04157 l 0,67.12965 q 0,4.89488 3.1467,8.04156 3.1467,3.14672 8.0415,3.14672 l 111.8828,0 q 4.8948,0 8.0416,-3.14672 3.1467,-3.14668 3.1467,-8.04156 z m 179.0124,134.25925 0,-67.1296 q 0,-4.8949 -3.1467,-8.04159 -3.1467,-3.14669 -8.0416,-3.14669 l -111.8827,0 q -4.8949,0 -8.0417,3.14669 -3.1466,3.14669 -3.1466,8.04159 l 0,67.1296 q 0,4.8949 3.1466,8.0416 3.1468,3.1467 8.0417,3.1467 l 111.8827,0 q 4.8949,0 8.0416,-3.1467 3.1467,-3.1467 3.1467,-8.0416 z m -179.0124,-268.51854 0,-67.12965 q 0,-4.89487 -3.1467,-8.04157 -3.1468,-3.14671 -8.0416,-3.14671 l -111.8828,0 q -4.8948,0 -8.0415,3.14671 -3.1467,3.1467 -3.1467,8.04157 l 0,67.12965 q 0,4.89487 3.1467,8.04157 3.1467,3.1467 8.0415,3.1467 l 111.8828,0 q 4.8948,0 8.0416,-3.1467 3.1467,-3.1467 3.1467,-8.04157 z m 179.0124,134.25929 0,-67.12965 q 0,-4.89487 -3.1467,-8.04157 -3.1467,-3.1467 -8.0416,-3.1467 l -111.8827,0 q -4.8949,0 -8.0417,3.1467 -3.1466,3.1467 -3.1466,8.04157 l 0,67.12965 q 0,4.89488 3.1466,8.04156 3.1468,3.14672 8.0417,3.14672 l 111.8827,0 q 4.8949,0 8.0416,-3.14672 3.1467,-3.14668 3.1467,-8.04156 z m 0,-134.25929 0,-67.12965 q 0,-4.89487 -3.1467,-8.04157 -3.1467,-3.14671 -8.0416,-3.14671 l -111.8827,0 q -4.8949,0 -8.0417,3.14671 -3.1466,3.1467 -3.1466,8.04157 l 0,67.12965 q 0,4.89487 3.1466,8.04157 3.1468,3.1467 8.0417,3.1467 l 111.8827,0 q 4.8949,0 8.0416,-3.1467 3.1467,-3.1467 3.1467,-8.04157 z m 44.753,-111.88275 0,380.40129 q 0,23.0759 -16.4327,39.5086 -16.4328,16.4328 -39.5086,16.4328 l -469.90753,0 q -23.07581,0 -39.50859,-16.4328 -16.43278,-16.4327 -16.43278,-39.5086 l 0,-380.40129 q 0,-23.07581 16.43278,-39.50859 16.43278,-16.43278 39.50859,-16.43278 l 469.90753,0 q 23.0758,0 39.5086,16.43278 16.4327,16.43278 16.4327,39.50859 z" />
    <path
       inkscape:connector-curvature="0"
       style="fill:#2196f3;fill-opacity:1"
       id="path5455-6-7"
       d="m 1063.3166,1600.9862 0,-67.1296 q 0,-4.8949 -3.1467,-8.0416 -3.1467,-3.1467 -8.0416,-3.1467 l -111.88267,0 q -4.8949,0 -8.0416,3.1467 -3.1467,3.1467 -3.1467,8.0416 l 0,67.1296 q 0,4.8949 3.1467,8.0416 3.1467,3.1467 8.0416,3.1467 l 111.88267,0 q 4.8949,0 8.0416,-3.1467 3.1467,-3.1467 3.1467,-8.0416 z m 0,-134.2593 0,-67.1296 q 0,-4.8949 -3.1467,-8.0416 -3.1467,-3.1467 -8.0416,-3.1467 l -111.88267,0 q -4.8949,0 -8.0416,3.1467 -3.1467,3.1467 -3.1467,8.0416 l 0,67.1296 q 0,4.8949 3.1467,8.0416 3.1467,3.1467 8.0416,3.1467 l 111.88267,0 q 4.8949,0 8.0416,-3.1467 3.1467,-3.1467 3.1467,-8.0416 z m 179.0124,134.2593 0,-67.1296 q 0,-4.8949 -3.1467,-8.0416 -3.1468,-3.1467 -8.0416,-3.1467 l -111.8828,0 q -4.8948,0 -8.0415,3.1467 -3.1467,3.1467 -3.1467,8.0416 l 0,67.1296 q 0,4.8949 3.1467,8.0416 3.1467,3.1467 8.0415,3.1467 l 111.8828,0 q 4.8948,0 8.0416,-3.1467 3.1467,-3.1467 3.1467,-8.0416 z m -179.0124,-268.5185 0,-67.1297 q 0,-4.8948 -3.1467,-8.0415 -3.1467,-3.1468 -8.0416,-3.1468 l -111.88267,0 q -4.8949,0 -8.0416,3.1468 -3.1467,3.1467 -3.1467,8.0415 l 0,67.1297 q 0,4.8948 3.1467,8.0415 3.1467,3.1467 8.0416,3.1467 l 111.88267,0 q 4.8949,0 8.0416,-3.1467 3.1467,-3.1467 3.1467,-8.0415 z m 179.0124,134.2592 0,-67.1296 q 0,-4.8949 -3.1467,-8.0416 -3.1468,-3.1467 -8.0416,-3.1467 l -111.8828,0 q -4.8948,0 -8.0415,3.1467 -3.1467,3.1467 -3.1467,8.0416 l 0,67.1296 q 0,4.8949 3.1467,8.0416 3.1467,3.1467 8.0415,3.1467 l 111.8828,0 q 4.8948,0 8.0416,-3.1467 3.1467,-3.1467 3.1467,-8.0416 z m 179.0124,134.2593 0,-67.1296 q 0,-4.8949 -3.1467,-8.0416 -3.1467,-3.1467 -8.0416,-3.1467 l -111.8827,0 q -4.8949,0 -8.0417,3.1467 -3.1466,3.1467 -3.1466,8.0416 l 0,67.1296 q 0,4.8949 3.1466,8.0416 3.1468,3.1467 8.0417,3.1467 l 111.8827,0 q 4.8949,0 8.0416,-3.1467 3.1467,-3.1467 3.1467,-8.0416 z m -179.0124,-268.5185 0,-67.1297 q 0,-4.8948 -3.1467,-8.0415 -3.1468,-3.1468 -8.0416,-3.1468 l -111.8828,0 q -4.8948,0 -8.0415,3.1468 -3.1467,3.1467 -3.1467,8.0415 l 0,67.1297 q 0,4.8948 3.1467,8.0415 3.1467,3.1467 8.0415,3.1467 l 111.8828,0 q 4.8948,0 8.0416,-3.1467 3.1467,-3.1467 3.1467,-8.0415 z m 179.0124,134.2592 0,-67.1296 q 0,-4.8949 -3.1467,-8.0416 -3.1467,-3.1467 -8.0416,-3.1467 l -111.8827,0 q -4.8949,0 -8.0417,3.1467 -3.1466,3.1467 -3.1466,8.0416 l 0,67.1296 q 0,4.8949 3.1466,8.0416 3.1468,3.1467 8.0417,3.1467 l 111.8827,0 q 4.8949,0 8.0416,-3.1467 3.1467,-3.1467 3.1467,-8.0416 z m 0,-134.2592 0,-67.1297 q 0,-4.8948 -3.1467,-8.0415 -3.1467,-3.1468 -8.0416,-3.1468 l -111.8827,0 q -4.8949,0 -8.0417,3.1468 -3.1466,3.1467 -3.1466,8.0415 l 0,67.1297 q 0,4.8948 3.1466,8.0415 3.1468,3.1467 8.0417,3.1467 l 111.8827,0 q 4.8949,0 8.0416,-3.1467 3.1467,-3.1467 3.1467,-8.0415 z m 44.753,-111.8828 0,380.4013 q 0,23.0759 -16.4327,39.5086 -16.4328,16.4328 -39.5086,16.4328 l -469.90747,0 q -23.0759,0 -39.5087,-16.4328 -16.43274,-16.4327 -16.43274,-39.5086 l 0,-380.4013 q 0,-23.0758 16.43274,-39.5086 16.4328,-16.4327 39.5087,-16.4327 l 469.90747,0 q 23.0758,0 39.5086,16.4327 16.4327,16.4328 16.4327,39.5086 z" />
    <path
       inkscape:connector-curvature="0"
       id="path4261"
       d="m 906.25,906.0625 -242.1875,0"
       style="color:#000000;clip-rule:nonzero;display:inline;overflow:visible;visibility:visible;opacity:1;isolation:auto;mix-blend-mode:normal;color-interpolation:sRGB;color-interpolation-filters:linearRGB;solid-color:#000000;solid-opacity:1;fill:none;fill-opacity:1;fill-rule:evenodd;stroke:#2196f3;stroke-width:47;stroke-linecap:butt;stroke-linejoin:round;stroke-miterlimit:4;stroke-dasharray:none;stroke-dashoffset:0;stroke-opacity:1;color-rendering:auto;image-rendering:auto;shape-rendering:auto;text-rendering:auto;enable-background:accumulate" />
    <path
       inkscape:connector-curvature="0"
       id="path4291"
       d="m 659.375,688.875 0,746.875 254.6875,0"
       style="color:#000000;clip-rule:nonzero;display:inline;overflow:visible;visibility:visible;opacity:1;isolation:auto;mix-blend-mode:normal;color-interpolation:sRGB;color-interpolation-filters:linearRGB;solid-color:#000000;solid-opacity:1;fill:none;fill-opacity:1;fill-rule:evenodd;stroke:#2196f3;stroke-width:47;stroke-linecap:butt;stroke-linejoin:round;stroke-miterlimit:4;stroke-dasharray:none;stroke-dashoffset:0;stroke-opacity:1;color-rendering:auto;image-rendering:auto;shape-rendering:auto;text-rendering:auto;enable-background:accumulate" />
  </g>
</svg>
