<?xml version="1.0" encoding="UTF-8" standalone="no"?>
<svg id="svg5453" xmlns:rdf="http://www.w3.org/1999/02/22-rdf-syntax-ns#" xmlns="http://www.w3.org/2000/svg" height="1792" width="1792" version="1.1" xmlns:cc="http://creativecommons.org/ns#" xmlns:dc="http://purl.org/dc/elements/1.1/" viewBox="0 0 1792 1792">
 <g id="g4315" transform="translate(0.000007 -.000015)">
  <path id="path4204" d="m137.54 107.2c-23.616 0-43.834 8.4092-60.652 25.227s-25.227 37.033-25.227 60.649v118.53 49.967c0 23.616 8.4092 43.834 25.227 60.652s37.036 25.224 60.652 25.224h721.36c23.616 0 43.834-8.4066 60.652-25.224 16.818-16.818 25.227-37.035 25.227-60.652v-49.967-118.53c0-23.616-8.4092-43.831-25.227-60.649s-37.035-25.227-60.652-25.227h-721.36zm0 137.4h171.75c5.0095-0.00002 9.1232 1.6102 12.344 4.8305 3.2204 3.2204 4.8305 7.3341 4.8305 12.344v49.827 49.967c0 5.0095-1.6102 9.1232-4.8305 12.344-3.2204 3.2204-7.3341 4.8306-12.344 4.8306h-171.75c-5.0095 0-9.1258-1.6102-12.346-4.8306-3.2204-3.2204-4.8305-7.3341-4.8305-12.344v-49.967-49.827c0-5.0095 1.6102-9.1232 4.8305-12.344 3.2204-3.2204 7.3367-4.8305 12.346-4.8305zm274.81 0h171.75c5.0095-0.00002 9.1258 1.6102 12.346 4.8305 3.2204 3.2204 4.8305 7.3341 4.8305 12.344v49.827 49.967c0 5.0095-1.6102 9.1232-4.8305 12.344-3.2204 3.2204-7.3367 4.8306-12.346 4.8306h-171.75c-5.0095 0-9.1258-1.6102-12.346-4.8306-3.2204-3.2204-4.8305-7.3341-4.8305-12.344v-49.967-49.827c0-5.0095 1.6102-9.1232 4.8305-12.344 3.2204-3.2204 7.3367-4.8305 12.346-4.8305zm274.8 0h171.75c5.0095-0.00002 9.1258 1.6102 12.346 4.8305 3.2204 3.2204 4.8305 7.3341 4.8305 12.344v49.827 49.967c0 5.0095-1.6102 9.1232-4.8305 12.344-3.2204 3.2204-7.3367 4.8306-12.346 4.8306h-171.75c-5.0095 0-9.1231-1.6102-12.344-4.8306-3.2204-3.2204-4.8306-7.3341-4.8306-12.344v-49.967-49.827c0-5.0095 1.6102-9.1232 4.8306-12.344 3.2204-3.2204 7.334-4.8305 12.344-4.8305z" fill="#2196f3"/>
  <path id="path4261" stroke-linejoin="round" style="color-rendering:auto;color:#000000;isolation:auto;mix-blend-mode:normal;shape-rendering:auto;solid-color:#000000;image-rendering:auto" d="m894.22 748.5h-199.79" stroke="#2196f3" stroke-width="65.864" fill="none"/>
  <path id="path4291" stroke-linejoin="round" style="color-rendering:auto;color:#000000;isolation:auto;mix-blend-mode:normal;shape-rendering:auto;solid-color:#000000;image-rendering:auto" d="m705.85 418.11v960.57h186.95" stroke="#2196f3" stroke-width="72.151" fill="none"/>
  <path id="path5455-6-3" d="m847.22 914.96v45.331c0 23.616 8.4092 43.834 25.227 60.652s37.036 25.227 60.652 25.227h721.37c23.616 0 43.834-8.4091 60.652-25.227 16.817-16.818 25.227-37.035 25.227-60.652v-45.331h-68.702v45.331c0 5.0096-1.61 9.1259-4.8306 12.346-3.2203 3.2203-7.3367 4.8306-12.346 4.8306h-171.75c-5.0094 0-9.1232-1.6102-12.344-4.8306-3.2201-3.2203-4.8305-7.3367-4.8305-12.346v-45.331h-68.702v45.331c0 5.0096-1.6101 9.1259-4.8304 12.346-3.2206 3.2203-7.3368 4.8306-12.346 4.8306h-171.75c-5.0094 0-9.1259-1.6102-12.346-4.8306-3.2203-3.2203-4.8306-7.3367-4.8306-12.346v-45.331h-68.702v45.331c0 5.0096-1.6102 9.1259-4.8306 12.346-3.2204 3.2203-7.3339 4.8306-12.344 4.8306h-171.75c-5.0094 0-9.1258-1.6102-12.346-4.8306-3.2204-3.2203-4.8306-7.3367-4.8306-12.346v-45.331h-68.702zm85.88-412.9c-23.616 0-43.834 8.4092-60.652 25.227s-25.227 37.035-25.227 60.652v327.02h68.702v-52.217c0-5.0096 1.6102-9.126 4.8306-12.346 3.2203-3.2203 7.3367-4.8306 12.346-4.8306h171.75c5.0097 0 9.1233 1.6102 12.344 4.8306 3.2203 3.2203 4.8306 7.3367 4.8306 12.346v52.217h68.702v-52.217c0-5.0096 1.6102-9.126 4.8306-12.346 3.2204-3.2203 7.3369-4.8306 12.346-4.8306h171.75c5.0095 0 9.1258 1.6102 12.346 4.8306 3.2205 3.2203 4.8307 7.3367 4.8307 12.346v52.217h68.702v-52.217c0-5.0096 1.6105-9.126 4.8306-12.346 3.2204-3.2203 7.3341-4.8306 12.344-4.8306h171.75c5.0094 0 9.1256 1.6102 12.346 4.8306 3.2206 3.2203 4.8306 7.3367 4.8306 12.346v52.217h68.702v-327.02c0-23.616-8.4094-43.834-25.227-60.652s-37.035-25.227-60.652-25.227h-721.37zm0 137.4h171.75c5.0097 0 9.1233 1.6102 12.344 4.8305 3.2203 3.2204 4.8306 7.3367 4.8306 12.346v103.05c0 5.0095-1.6103 9.1232-4.8306 12.344-3.2205 3.2204-7.334 4.8306-12.344 4.8306h-171.75c-5.0094 0-9.1258-1.6102-12.346-4.8306-3.2204-3.2204-4.8306-7.3341-4.8306-12.344v-103.05c0-5.0095 1.6102-9.1258 4.8306-12.346 3.2203-3.2204 7.3367-4.8305 12.346-4.8305zm274.81 0h171.75c5.0095 0 9.1258 1.6102 12.346 4.8305 3.2204 3.2204 4.8308 7.3367 4.8308 12.346v103.05c0 5.0095-1.6104 9.1232-4.8308 12.344-3.2204 3.2204-7.3367 4.8306-12.346 4.8306h-171.75c-5.0094 0-9.126-1.6102-12.346-4.8306-3.2203-3.2204-4.8306-7.3341-4.8306-12.344v-103.05c0-5.0095 1.6103-9.1258 4.8306-12.346 3.2205-3.2204 7.3371-4.8305 12.346-4.8305zm274.8 0h171.75c5.0094 0 9.1256 1.6102 12.346 4.8305 3.2206 3.2204 4.8306 7.3367 4.8306 12.346v103.05c0 5.0095-1.61 9.1232-4.8306 12.344-3.2203 3.2204-7.3365 4.8306-12.346 4.8306h-171.75c-5.0096 0-9.1233-1.6102-12.344-4.8306-3.2201-3.2204-4.8306-7.3341-4.8306-12.344v-103.05c0-5.0095 1.6105-9.1258 4.8306-12.346 3.2204-3.2204 7.3341-4.8305 12.344-4.8305z" fill="#2196f3"/>
  <path id="path5455-6-3-6" d="m847.22 1553.6v45.331c0 23.616 8.4093 43.834 25.227 60.652s37.036 25.227 60.652 25.227h721.37c23.616 0 43.834-8.409 60.652-25.227 16.817-16.818 25.227-37.036 25.227-60.652v-45.331h-68.702v45.331c0 5.0096-1.6102 9.126-4.8306 12.346-3.2203 3.2203-7.3367 4.8306-12.346 4.8306h-171.75c-5.0095 0-9.1232-1.6103-12.344-4.8306-3.2202-3.2203-4.8305-7.3367-4.8305-12.346v-45.331h-68.702v45.331c0 5.0096-1.6101 9.126-4.8306 12.346-3.2204 3.2203-7.3366 4.8306-12.346 4.8306h-171.75c-5.0094 0-9.1259-1.6103-12.346-4.8306-3.2203-3.2203-4.8306-7.3367-4.8306-12.346v-45.331h-68.702v45.331c0 5.0096-1.6102 9.126-4.8306 12.346-3.2204 3.2203-7.3339 4.8306-12.344 4.8306h-171.75c-5.0094 0-9.1258-1.6103-12.346-4.8306-3.2204-3.2203-4.8305-7.3367-4.8305-12.346v-45.331h-68.702zm85.878-412.9c-23.616 0-43.834 8.4091-60.652 25.227-16.817 16.818-25.227 37.036-25.227 60.652v327.02h68.702v-52.217c0-5.0094 1.61-9.1258 4.8305-12.346 3.2203-3.2203 7.3367-4.8304 12.346-4.8304h171.75c5.0097 0 9.1233 1.6101 12.344 4.8304 3.2203 3.2206 4.8306 7.337 4.8306 12.346v52.217h68.702v-52.217c0-5.0094 1.6102-9.1258 4.8306-12.346 3.2204-3.2203 7.3369-4.8304 12.346-4.8304h171.75c5.0095 0 9.1258 1.6101 12.346 4.8304 3.2205 3.2206 4.8307 7.337 4.8307 12.346v52.217h68.702v-52.217c0-5.0094 1.6105-9.1258 4.8306-12.346 3.2204-3.2203 7.3341-4.8304 12.344-4.8304h171.75c5.0096 0 9.1258 1.6101 12.346 4.8304 3.2206 3.2206 4.8306 7.337 4.8306 12.346v52.217h68.702v-327.02c0-23.616-8.4094-43.834-25.227-60.652s-37.036-25.227-60.652-25.227h-721.37zm0 137.4h171.75c5.0097 0 9.1233 1.6102 12.344 4.8306 3.2203 3.2203 4.8306 7.3367 4.8306 12.346v103.05c0 5.0094-1.6103 9.1233-4.8306 12.344-3.2205 3.2204-7.334 4.8305-12.344 4.8305h-171.75c-5.0094 0-9.1258-1.6101-12.346-4.8305-3.2204-3.2203-4.8305-7.3342-4.8305-12.344v-103.05c0-5.0095 1.61-9.1259 4.8305-12.346 3.2203-3.2204 7.3367-4.8306 12.346-4.8306zm274.81 0h171.75c5.0095 0 9.1256 1.6102 12.346 4.8306 3.2204 3.2203 4.8308 7.3367 4.8308 12.346v103.05c0 5.0094-1.6104 9.1233-4.8308 12.344-3.2206 3.2204-7.3367 4.8305-12.346 4.8305h-171.75c-5.0093 0-9.1259-1.6101-12.346-4.8305-3.2203-3.2203-4.8306-7.3342-4.8306-12.344v-103.05c0-5.0095 1.6103-9.1259 4.8306-12.346 3.2205-3.2204 7.3371-4.8306 12.346-4.8306zm274.8 0h171.75c5.0096 0 9.1258 1.6102 12.346 4.8306 3.2206 3.2203 4.8306 7.3367 4.8306 12.346v103.05c0 5.0094-1.61 9.1233-4.8306 12.344-3.2203 3.2204-7.3365 4.8305-12.346 4.8305h-171.75c-5.0096 0-9.1233-1.6101-12.344-4.8305-3.2201-3.2203-4.8306-7.3342-4.8306-12.344v-103.05c0-5.0095 1.6105-9.1259 4.8306-12.346 3.2204-3.2204 7.3341-4.8306 12.344-4.8306z" fill="#2196f3"/>
 </g>
</svg>
