<!--
  - Copyright 2016-2025 Crown Copyright
  -
  - Licensed under the Apache License, Version 2.0 (the "License");
  - you may not use this file except in compliance with the License.
  - You may obtain a copy of the License at
  -
  -     http://www.apache.org/licenses/LICENSE-2.0
  -
  - Unless required by applicable law or agreed to in writing, software
  - distributed under the License is distributed on an "AS IS" BASIS,
  - WITHOUT WARRANTIES OR CONDITIONS OF ANY KIND, either express or implied.
  - See the License for the specific language governing permissions and
  - limitations under the License.
  -->

<svg id="svg5453" xmlns:rdf="http://www.w3.org/1999/02/22-rdf-syntax-ns#" xmlns="http://www.w3.org/2000/svg" height="1792" width="1792" version="1.1" xmlns:cc="http://creativecommons.org/ns#" xmlns:dc="http://purl.org/dc/elements/1.1/" viewBox="0 0 1792 1792"><path id="path5455" fill="currentColor" d="m602.28 1395.3v-176.23q0-12.85-8.2608-21.111-8.2608-8.2607-21.111-8.2607h-293.72q-12.85 0-21.111 8.2607-8.2608 8.2608-8.2608 21.111v176.23q0 12.85 8.2608 21.111 8.2608 8.2608 21.111 8.2608h293.72q12.85 0 21.111-8.2608 8.2608-8.2607 8.2608-21.111zm0-352.46v-176.23q0-12.85-8.2608-21.111-8.2608-8.2608-21.111-8.2608h-293.72q-12.85 0-21.111 8.2608-8.2608 8.2608-8.2608 21.111v176.23q0 12.85 8.2608 21.111 8.2608 8.2608 21.111 8.2608h293.72q12.85 0 21.111-8.2608 8.2608-8.2607 8.2608-21.111zm469.95 352.46v-176.23q0-12.85-8.2608-21.111-8.2608-8.2607-21.111-8.2607h-293.72q-12.85 0-21.111 8.2607-8.2608 8.2608-8.2608 21.111v176.23q0 12.85 8.2608 21.111 8.2608 8.2608 21.111 8.2608h293.72q12.85 0 21.111-8.2608 8.2608-8.2607 8.2608-21.111zm-469.95-704.92v-176.23q0-12.85-8.2608-21.111-8.2608-8.2608-21.111-8.2608h-293.72q-12.85 0-21.111 8.2608-8.2608 8.2608-8.2608 21.111v176.23q0 12.85 8.2608 21.111 8.2608 8.2608 21.111 8.2608h293.72q12.85 0 21.111-8.2608 8.2608-8.2608 8.2608-21.111zm469.95 352.46v-176.23q0-12.85-8.2608-21.111-8.2608-8.2608-21.111-8.2608h-293.72q-12.85 0-21.111 8.2608-8.2608 8.2608-8.2608 21.111v176.23q0 12.85 8.2608 21.111 8.2608 8.2608 21.111 8.2608h293.72q12.85 0 21.111-8.2608 8.2608-8.2607 8.2608-21.111zm469.95 352.46v-176.23q0-12.85-8.2607-21.111-8.2608-8.2607-21.111-8.2607h-293.72q-12.85 0-21.111 8.2607-8.2607 8.2608-8.2607 21.111v176.23q0 12.85 8.2607 21.111 8.2608 8.2608 21.111 8.2608h293.72q12.85 0 21.111-8.2608 8.2607-8.2607 8.2607-21.111zm-469.95-704.92v-176.23q0-12.85-8.2608-21.111-8.2608-8.2608-21.111-8.2608h-293.72q-12.85 0-21.111 8.2608-8.2608 8.2608-8.2608 21.111v176.23q0 12.85 8.2608 21.111 8.2608 8.2608 21.111 8.2608h293.72q12.85 0 21.111-8.2608 8.2608-8.2608 8.2608-21.111zm469.95 352.46v-176.23q0-12.85-8.2607-21.111-8.2608-8.2608-21.111-8.2608h-293.72q-12.85 0-21.111 8.2608-8.2607 8.2608-8.2607 21.111v176.23q0 12.85 8.2607 21.111 8.2608 8.2608 21.111 8.2608h293.72q12.85 0 21.111-8.2608 8.2607-8.2607 8.2607-21.111zm0-352.46v-176.23q0-12.85-8.2607-21.111-8.2608-8.2608-21.111-8.2608h-293.72q-12.85 0-21.111 8.2608-8.2607 8.2608-8.2607 21.111v176.23q0 12.85 8.2607 21.111 8.2608 8.2608 21.111 8.2608h293.72q12.85 0 21.111-8.2608 8.2607-8.2608 8.2607-21.111zm117.49-293.72v998.63q0 60.579-43.14 103.72-43.14 43.14-103.72 43.14h-1233.6q-60.579 0-103.72-43.14-43.14-43.14-43.14-103.72v-998.63q0-60.579 43.14-103.72 43.14-43.14 103.72-43.14h1233.6q60.579 0 103.72 43.14 43.14 43.14 43.14 103.72z"/></svg>
