<?xml version="1.0" encoding="UTF-8" standalone="no"?>
<svg
   xmlns="http://www.w3.org/2000/svg"
   height="1792"
   width="1792"
   viewBox="0 0 1792 1792">
  <g>
    <path d="m 419.91125,42.656847 0,372.743613 254.93709,0 c 26.87882,0 49.89056,-9.21009 69.03216,-27.63354 19.1416,-18.4241 28.71192,-40.57219 28.71192,-66.44459 l 0,-54.73859 0,-129.84876 c 0,-25.87132 -9.57054,-48.0162 -28.71192,-66.440322 C 724.73913,51.870559 701.72829,42.656847 674.84834,42.656847 l -254.93709,0 z m 59.45783,150.522023 195.47926,0 c 5.70162,-2e-5 10.38629,1.76351 14.0514,5.29134 3.66533,3.52796 5.49741,8.03636 5.49741,13.52471 l 0,54.58453 0,54.73859 c 0,5.48791 -1.83219,9.9942 -5.49741,13.52258 -3.66534,3.52794 -8.35001,5.29135 -14.0514,5.29135 l -195.47926,0 c -5.70163,0 -10.38328,-1.76341 -14.04919,-5.29135 -3.66534,-3.52794 -5.49963,-8.03422 -5.49963,-13.52258 l 0,-54.73859 0,-54.58453 c 0,-5.4879 1.83429,-9.99632 5.49963,-13.52471 3.66534,-3.52794 8.34699,-5.29134 14.04919,-5.29134 z M 167.11385,42.656847 c -26.87883,0 -49.88834,9.213922 -69.029944,27.637811 C 78.942303,88.718548 69.36978,110.86366 69.36978,136.73498 l 0,129.84876 0,54.73859 c 0,25.87131 9.572746,48.02049 28.714126,66.44459 19.141364,18.42411 42.151114,27.63354 69.029944,27.63354 l 252.89861,0 0,-372.743613 -252.89861,0 z m 0,150.522023 195.47924,0 c 5.70163,-2e-5 10.38563,1.76351 14.05143,5.29134 3.66532,3.52796 5.4974,8.03636 5.4974,13.52471 l 0,54.58453 0,54.73859 c 0,5.48791 -1.83218,9.9942 -5.4974,13.52258 -3.66534,3.52794 -8.34934,5.29135 -14.05143,5.29135 l -195.47924,0 c -5.70163,0 -10.3863,-1.76341 -14.05141,-5.29135 -3.66533,-3.52794 -5.49741,-8.03422 -5.49741,-13.52258 l 0,-54.73859 0,-54.58453 c 0,-5.4879 1.83218,-9.99632 5.49741,-13.52471 3.66533,-3.52794 8.35001,-5.29134 14.05141,-5.29134 z"
          style="fill:#2196f3" />
    <path style="color:#000000;isolation:auto;mix-blend-mode:normal;solid-color:#000000;fill:none;stroke:#2196f3;stroke-width:73.54550171;stroke-linejoin:round;color-rendering:auto;image-rendering:auto;shape-rendering:auto"
          d="m 752.31759,729.34354 -227.39331,0"/>
    <path style="color:#000000;isolation:auto;mix-blend-mode:normal;solid-color:#000000;fill:none;stroke:#2196f3;stroke-width:80.56573486;stroke-linejoin:round;color-rendering:auto;image-rendering:auto;shape-rendering:auto"
          d="m 537.92208,357.88685 0,1052.30385 212.77932,0" />
    <path d="m 698.82399,911.70036 0,49.66006 c 0,25.87127 9.57103,48.02008 28.7124,66.44418 19.14138,18.4242 42.15296,27.6362 69.03178,27.6362 l 821.03563,0 c 26.8789,0 49.8902,-9.2121 69.0318,-27.6362 19.1404,-18.4241 28.7124,-40.57175 28.7124,-66.44418 l 0,-49.66006 -78.194,0 0,49.66006 c 0,5.48802 -1.8324,9.99742 -5.4981,13.52505 -3.6651,3.52783 -8.3502,5.29191 -14.0516,5.29191 l -195.4793,0 c -5.7015,0 -10.3836,-1.76397 -14.0494,-5.29191 -3.665,-3.52785 -5.4979,-8.03736 -5.4979,-13.52505 l 0,-49.66006 -78.1941,0 0,49.66006 c 0,5.48802 -1.8324,9.99742 -5.4977,13.52505 -3.6656,3.52783 -8.3505,5.29191 -14.0517,5.29191 l -195.4792,0 c -5.7016,0 -10.3868,-1.76397 -14.0519,-5.29191 -3.6651,-3.52785 -5.498,-8.03736 -5.498,-13.52505 l 0,-49.66006 -78.1939,0 0,49.66006 c 0,5.48802 -1.8327,9.99742 -5.498,13.52505 -3.6653,3.52783 -8.34712,5.29191 -14.04953,5.29191 l -195.47922,0 c -5.7015,0 -10.38664,-1.76397 -14.05174,-5.29191 -3.66534,-3.52785 -5.49801,-8.03736 -5.49801,-13.52505 l 0,-49.66006 -78.19398,0 z m 97.74533,-452.33165 c -26.87883,0 -49.89018,9.21227 -69.0318,27.63616 -19.14159,18.42388 -28.71239,40.57181 -28.71239,66.44422 l 0,358.25016 78.19399,0 0,-57.20368 c 0,-5.48802 1.83265,-9.99753 5.49799,-13.52503 3.66522,-3.52784 8.35035,-5.29193 14.05174,-5.29193 l 195.47928,0 c 5.70181,0 10.38367,1.76398 14.04947,5.29193 3.6652,3.52782 5.4979,8.03734 5.4979,13.52503 l 0,57.20368 78.1941,0 0,-57.20368 c 0,-5.48802 1.8326,-9.99753 5.498,-13.52503 3.6654,-3.52784 8.3505,-5.29193 14.0516,-5.29193 l 195.4794,0 c 5.7016,0 10.3866,1.76398 14.0518,5.29193 3.6654,3.52782 5.498,8.03734 5.498,13.52503 l 0,57.20368 78.1939,0 0,-57.20368 c 0,-5.48802 1.8331,-9.99753 5.4982,-13.52503 3.6652,-3.52784 8.3473,-5.29193 14.0493,-5.29193 l 195.4794,0 c 5.7014,0 10.3864,1.76398 14.0517,5.29193 3.6656,3.52782 5.4979,8.03734 5.4979,13.52503 l 0,57.20368 78.1941,0 0,-358.25016 c 0,-25.87131 -9.5713,-48.02011 -28.7125,-66.44422 -19.1412,-18.4241 -42.1518,-27.63616 -69.0317,-27.63616 l -821.03567,0 z m 0,150.5216 195.47922,0 c 5.7019,0 10.38376,1.76396 14.04946,5.29181 3.6653,3.52794 5.498,8.03734 5.498,13.52503 l 0,112.89119 c 0,5.4879 -1.8327,9.99446 -5.498,13.52285 -3.6653,3.52794 -8.34725,5.29192 -14.04946,5.29192 l -195.47922,0 c -5.70152,0 -10.38664,-1.76398 -14.05175,-5.29192 -3.66534,-3.52794 -5.49801,-8.0345 -5.49801,-13.52285 l 0,-112.89119 c 0,-5.4879 1.83267,-9.9973 5.49801,-13.52503 3.66522,-3.52795 8.35035,-5.29181 14.05175,-5.29181 z m 312.77818,0 195.4793,0 c 5.7016,0 10.3866,1.76396 14.0517,5.29181 3.6654,3.52794 5.4983,8.03734 5.4983,13.52503 l 0,112.89119 c 0,5.4879 -1.8329,9.99446 -5.4983,13.52285 -3.6654,3.52794 -8.3504,5.29192 -14.0517,5.29192 l -195.4793,0 c -5.7016,0 -10.3868,-1.76398 -14.0518,-5.29192 -3.6652,-3.52794 -5.498,-8.0345 -5.498,-13.52285 l 0,-112.89119 c 0,-5.4879 1.8328,-9.9973 5.498,-13.52503 3.6655,-3.52795 8.3509,-5.29181 14.0518,-5.29181 z m 312.7668,0 195.4793,0 c 5.7015,0 10.3864,1.76396 14.0517,5.29181 3.6656,3.52794 5.4981,8.03734 5.4981,13.52503 l 0,112.89119 c 0,5.4879 -1.8325,9.99446 -5.4981,13.52285 -3.6652,3.52794 -8.3501,5.29192 -14.0517,5.29192 l -195.4793,0 c -5.7018,0 -10.3838,-1.76398 -14.0495,-5.29192 -3.6649,-3.52794 -5.4979,-8.0345 -5.4979,-13.52285 l 0,-112.89119 c 0,-5.4879 1.833,-9.9973 5.4979,-13.52503 3.6654,-3.52795 8.3474,-5.29181 14.0495,-5.29181 z"
          style="fill:#2196f3" />
    <path d="m 698.82399,1601.8153 0,49.6601 c 0,25.8712 9.57114,48.0201 28.7124,66.4442 19.14127,18.4242 42.15296,27.6362 69.03178,27.6362 l 821.03563,0 c 26.8789,0 49.8902,-9.212 69.0318,-27.6362 19.1404,-18.4241 28.7124,-40.573 28.7124,-66.4442 l 0,-49.6601 -78.194,0 0,49.6601 c 0,5.488 -1.8326,9.9975 -5.4981,13.5251 -3.6651,3.5278 -8.3502,5.2919 -14.0516,5.2919 l -195.4793,0 c -5.7016,0 -10.3836,-1.7641 -14.0494,-5.2919 -3.6652,-3.5279 -5.4979,-8.0374 -5.4979,-13.5251 l 0,-49.6601 -78.1941,0 0,49.6601 c 0,5.488 -1.8324,9.9975 -5.4979,13.5251 -3.6654,3.5278 -8.3503,5.2919 -14.0517,5.2919 l -195.4794,0 c -5.7014,0 -10.3866,-1.7641 -14.0517,-5.2919 -3.6651,-3.5279 -5.498,-8.0374 -5.498,-13.5251 l 0,-49.6601 -78.1939,0 0,49.6601 c 0,5.488 -1.8327,9.9975 -5.4981,13.5251 -3.6653,3.5278 -8.34712,5.2919 -14.04943,5.2919 l -195.47925,0 c -5.70151,0 -10.38663,-1.7641 -14.05174,-5.2919 -3.66533,-3.5279 -5.49789,-8.0374 -5.49789,-13.5251 l 0,-49.6601 -78.19398,0 z m 97.74304,-452.3315 c -26.87882,0 -49.89018,9.212 -69.03178,27.636 -19.14046,18.4242 -28.7124,40.5729 -28.7124,66.4442 l 0,358.2503 78.19398,0 0,-57.2037 c 0,-5.4879 1.83245,-9.9974 5.49789,-13.5251 3.66522,-3.5279 8.35036,-5.2917 14.05174,-5.2917 l 195.47924,0 c 5.7018,0 10.3838,1.7638 14.0495,5.2917 3.6652,3.5282 5.498,8.0377 5.498,13.5251 l 0,57.2037 78.1939,0 0,-57.2037 c 0,-5.4879 1.8327,-9.9974 5.4981,-13.5251 3.6652,-3.5279 8.3505,-5.2917 14.0517,-5.2917 l 195.4793,0 c 5.7016,0 10.3866,1.7638 14.0516,5.2917 3.6656,3.5282 5.4983,8.0377 5.4983,13.5251 l 0,57.2037 78.1939,0 0,-57.2037 c 0,-5.4879 1.833,-9.9974 5.498,-13.5251 3.6654,-3.5279 8.3474,-5.2917 14.0495,-5.2917 l 195.4792,0 c 5.7018,0 10.3866,1.7638 14.0518,5.2917 3.6655,3.5282 5.498,8.0377 5.498,13.5251 l 0,57.2037 78.1939,0 0,-358.2503 c 0,-25.8713 -9.5712,-48.02 -28.7124,-66.4442 -19.1411,-18.4241 -42.1529,-27.636 -69.0318,-27.636 l -821.03556,0 z m 0,150.5214 195.47928,0 c 5.7018,0 10.38369,1.764 14.04949,5.2919 3.6652,3.5279 5.4979,8.0374 5.4979,13.5251 l 0,112.8911 c 0,5.4879 -1.8327,9.9947 -5.4979,13.523 -3.6656,3.5279 -8.34729,5.2917 -14.04949,5.2917 l -195.47928,0 c -5.70151,0 -10.38663,-1.7638 -14.05174,-5.2917 -3.66533,-3.5278 -5.49789,-8.0347 -5.49789,-13.523 l 0,-112.8911 c 0,-5.4879 1.83244,-9.9974 5.49789,-13.5251 3.66522,-3.5279 8.35036,-5.2919 14.05174,-5.2919 z m 312.77827,0 195.4791,0 c 5.7016,0 10.3865,1.764 14.0519,5.2919 3.6652,3.5279 5.4981,8.0374 5.4981,13.5251 l 0,112.8911 c 0,5.4879 -1.8329,9.9947 -5.4981,13.523 -3.6657,3.5279 -8.3505,5.2917 -14.0519,5.2917 l -195.4791,0 c -5.7015,0 -10.3868,-1.7638 -14.0518,-5.2917 -3.6652,-3.5278 -5.498,-8.0347 -5.498,-13.523 l 0,-112.8911 c 0,-5.4879 1.8328,-9.9974 5.498,-13.5251 3.6655,-3.5279 8.3508,-5.2919 14.0518,-5.2919 z m 312.7668,0 195.4792,0 c 5.7017,0 10.3867,1.764 14.0517,5.2919 3.6656,3.5279 5.4981,8.0374 5.4981,13.5251 l 0,112.8911 c 0,5.4879 -1.8325,9.9947 -5.4981,13.523 -3.6651,3.5279 -8.3501,5.2917 -14.0517,5.2917 l -195.4792,0 c -5.7018,0 -10.3838,-1.7638 -14.0495,-5.2917 -3.665,-3.5278 -5.498,-8.0347 -5.498,-13.523 l 0,-112.8911 c 0,-5.4879 1.833,-9.9974 5.498,-13.5251 3.6653,-3.5279 8.3474,-5.2919 14.0495,-5.2919 z"
          style="fill:#2196f3" />
  </g>
</svg>
