<!--
  - Copyright 2016-2025 Crown Copyright
  -
  - Licensed under the Apache License, Version 2.0 (the "License");
  - you may not use this file except in compliance with the License.
  - You may obtain a copy of the License at
  -
  -     http://www.apache.org/licenses/LICENSE-2.0
  -
  - Unless required by applicable law or agreed to in writing, software
  - distributed under the License is distributed on an "AS IS" BASIS,
  - WITHOUT WARRANTIES OR CONDITIONS OF ANY KIND, either express or implied.
  - See the License for the specific language governing permissions and
  - limitations under the License.
  -->

<svg width="1792" height="1792" viewBox="0 0 1792 1792" xmlns="http://www.w3.org/2000/svg" ><path style="stroke-width:32;fill:currentColor;stroke:currentColor;stroke-dasharray:none" d="m 55.939046,1336.0329 c 0,-33.1384 26.865158,-60.0043 60.004354,-60.0043 h 520.03774 c 33.1392,0 60.00435,26.8659 60.00435,60.0043 0,33.1384 -26.86515,60.0044 -60.00435,60.0044 H 115.9434 c -33.139196,0 -60.004354,-26.866 -60.004354,-60.0044 z M 115.9434,755.99082 c -33.139196,0 -60.004354,26.86595 -60.004354,60.00436 0,33.1384 26.865158,60.00435 60.004354,60.00435 h 1300.0944 c 110.4641,0 200.0145,89.5505 200.0145,200.01457 0,110.464 -89.5504,200.0145 -200.0145,200.0145 h -355.1697 l 57.5721,-57.5802 c 23.4337,-23.4337 23.4337,-61.4204 0,-84.8542 -23.4337,-23.4337 -61.4205,-23.4337 -84.8541,0 l -160.01172,160.0117 c -23.4337,23.4336 -23.4337,61.4205 0,84.8541 l 160.01172,160.0116 c 23.4336,23.4338 61.4204,23.4338 84.8541,0 23.4337,-23.4337 23.4337,-61.4204 0,-84.8542 l -57.5721,-57.5801 h 355.1697 c 176.7409,0 320.0232,-143.2824 320.0232,-320.0232 0,-176.74088 -143.2823,-320.02328 -320.0232,-320.02328 z m 0,-520.03774 c -33.139196,0 -60.004354,26.86515 -60.004354,60.00436 0,33.1392 26.865158,60.00435 60.004354,60.00435 h 1480.1074 c 33.1385,0 60.0044,-26.86515 60.0044,-60.00435 0,-33.13921 -26.8659,-60.00436 -60.0044,-60.00436 z" /></svg>
