<svg width="1792" height="1792" viewBox="0 0 1792 1792" version="1.1" xmlns="http://www.w3.org/2000/svg"><path style="fill:currentColor" d="M 515,16 C 435,16 367.33333,43.666667 312,99 L 165,245 c -56.66667,55.33333 -85,123 -85,203 0,80 28,148 84,204 l 208,208 c 56,56 124,84 204,84 81.33333,0 150.66667,-29.33333 208,-88 L 920,720 c 58.66667,-57.33333 88,-127 88,-209 0,-80 -27.66667,-147.66667 -83,-203 L 719,101 C 663.66667,44.333333 595.66667,16 515,16 Z m 0,192 c 26.66667,0 49.33333,9.33333 68,28 l 206,207 c 18.66667,18.66667 28,41.33333 28,68 0,28 -11,52.33333 -33,73 -15.83875,39.23102 -168.30424,159.55814 -208,167 -26.8653,5.0365 -50,-9 -68,-27 L 300,516 c -18.66667,-18.66667 -28,-41.33333 -28,-68 0,-26 9.33333,-48.33333 28,-67 L 447,235 c 19.33333,-18 42,-27 68,-27 z m 701,512 c -81.3333,0 -150.6667,29.33333 -208,88 L 872,944 c -58.66667,57.3333 -88,127 -88,209 0,80 27.66667,147.6667 83,203 l 206,207 c 55.3333,56.6667 123.3333,85 204,85 80,0 147.6667,-27.6667 203,-83 l 147,-146 c 56.6667,-55.3333 85,-123 85,-203 0,-80 -28,-148 -84,-204 L 1420,804 c -56,-56 -124,-84 -204,-84 z m 0,192 c 26.6667,0 49.3333,9.33333 68,28 l 208,208 c 18.6667,18.6667 28,41.3333 28,68 0,26 -9.3333,48.3333 -28,67 l -147,146 c -18.6667,17.3333 -41.3333,26 -68,26 -27.3333,0 -50,-9 -68,-27 l -206,-207 c -18.66667,-18.6667 -28,-41.3333 -28,-68 0,-28 11,-52.3333 33,-73 24.9065,-28.6749 106.4118,-113.49518 136,-136 20,-21.33333 44,-32 72,-32 z"/><path style="fill:currentColor" d="m 1129.6744,166.69767 -43.1628,360.18605 156.2791,-369.11628 z"/><path style="fill:currentColor" d="m 1154.9767,556.65116 226.2326,-425.67442 99.7209,72.93024 z"/><path style="fill:currentColor" d="m 1227.907,602.7907 415.2558,-279.81396 55.0698,133.95349 z"/><path style="fill:currentColor" d="m 583.44186,1067.1628 -384,61.0232 -4.46512,120.5582 z" /><path style="fill:currentColor" d="M 253.02326,1437.7674 602.7907,1129.6744 299.16279,1628.2791 Z" /><path style="fill:currentColor" d="m 680.18605,1204.093 -17.86047,322.9768 -126.51163,-16.3721 z"/></svg> 