<?xml version="1.0" encoding="utf-8"?>
<svg xmlns="http://www.w3.org/2000/svg" width="1792" height="1792" viewBox="0 0 1792 1792">
    <path style="fill:#1e88e5"
          d="m 1512.2605,1230.6818 q 0,206.9151 -162.3487,320.4532 -161.2877,113.538 -455.21327,113.538 -546.4681,0 -633.47856,-379.8749 l 196.30408,-39.2608 q 33.9553,134.7601 144.31002,198.4262 110.35472,62.6051 300.29218,62.6051 196.30405,0 302.41435,-66.8495 107.1714,-67.9106 107.1714,-198.4262 0,-73.2162 -33.9553,-118.8436 -32.8941,-45.6274 -93.377,-75.3383 -60.4829,-29.7109 -144.31,-49.87186 Q 956.24251,977.07818 854.37661,953.73391 677.17239,914.47309 584.85642,875.21228 493.60155,835.95146 440.5464,788.20182 387.49124,739.39108 358.84146,674.66379 331.25278,609.9365 331.25278,526.10936 q 0,-192.05966 146.43223,-296.04777 147.49333,-103.9881 421.25793,-103.9881 254.66476,0 389.42486,78.52163 134.7601,77.46052 188.8763,265.27577 l -199.4874,35.01641 q -32.8941,-118.84355 -125.2101,-171.89871 -92.316,-54.11626 -255.72587,-54.11626 -179.32642,0 -273.7646,59.42178 -94.43817,59.42177 -94.43817,177.20422 0,68.9717 36.0775,114.59913 37.13861,44.56633 106.11031,76.39943 68.9717,30.77199 274.82571,76.39942 68.97172,15.91655 136.88232,32.8942 68.9717,15.91654 131.5768,39.26081 62.605,22.28317 116.7213,53.05516 55.1774,30.77199 95.4993,75.33832 40.3219,44.5663 62.6051,105.0492 23.3442,60.4829 23.3442,142.1878 z"/>
</svg>