<?xml version="1.0" encoding="utf-8"?>
<svg xmlns="http://www.w3.org/2000/svg" width="1792" height="1792" viewBox="0 0 1792 1792">
    <path style="fill:#2196f3"
          d="m 768,890 546,546 Q 1208,1544 1066.5,1604 925,1664 768,1664 559,1664 382.5,1561 206,1458 103,1281.5 0,1105 0,896 0,687 103,510.5 206,334 382.5,231 559,128 768,128 l 0,762 z"/>
    <path style="fill:#ff8f00"
          d="m 955,896 773,0 q 0,157 -60,298.5 -60,141.5 -168,247.5 z"/>
    <path style="fill:#4caf50"
          d="M 1664,768 896,768 896,0 Q 1105,0 1281.5,103 1458,206 1561,382.5 1664,559 1664,768 Z"/>
</svg>